<?xml version="1.0" encoding="UTF-8" standalone="no"?>
<!DOCTYPE svg PUBLIC "-//W3C//DTD SVG 1.1//EN"
 "http://www.w3.org/Graphics/SVG/1.1/DTD/svg11.dtd">
<!-- Generated by graphviz version 2.26.3 (20100126.1600)
 -->
<!-- Title: G Pages: 1 -->
<svg width="1358pt" height="204pt"
 viewBox="0.00 0.00 1358.00 204.00" xmlns="http://www.w3.org/2000/svg" xmlns:xlink="http://www.w3.org/1999/xlink">
<g id="graph1" class="graph" transform="scale(1 1) rotate(0) translate(4 200)">
<title>G</title>
<polygon fill="white" stroke="white" points="-4,5 -4,-200 1355,-200 1355,5 -4,5"/>
<!-- Node1 -->
<g id="node1" class="node"><title>Node1</title>
<polygon fill="#bfbfbf" stroke="black" points="585,-174.5 585,-195.5 985,-195.5 985,-174.5 585,-174.5"/>
<text text-anchor="middle" x="785" y="-182.5" font-family="Helvetica,sans-Serif" font-size="10.00">/mnt/sshfs/imperialroot/homes/dk3810/workingcopies/disaggregate/src/AggregateData.h</text>
</g>
<!-- Node2 -->
<g id="node3" class="node"><title>Node2</title>
<a xlink:href="_aggregate_data_8cpp.html" target="_top" xlink:title="/mnt/sshfs/imperialroot/homes/dk3810/workingcopies/disaggregate/src/AggregateData.cpp">
<polygon fill="white" stroke="black" points="230,-116.5 230,-137.5 640,-137.5 640,-116.5 230,-116.5"/>
<text text-anchor="middle" x="435" y="-124.5" font-family="Helvetica,sans-Serif" font-size="10.00">/mnt/sshfs/imperialroot/homes/dk3810/workingcopies/disaggregate/src/AggregateData.cpp</text>
</a>
</g>
<!-- Node1&#45;&gt;Node2 -->
<g id="edge2" class="edge"><title>Node1&#45;&gt;Node2</title>
<path fill="none" stroke="midnightblue" d="M711.735,-172.859C648.657,-162.406 558.564,-147.476 498.501,-137.523"/>
<polygon fill="midnightblue" stroke="midnightblue" points="711.18,-176.315 721.618,-174.497 712.324,-169.409 711.18,-176.315"/>
</g>
<!-- Node3 -->
<g id="node5" class="node"><title>Node3</title>
<a xlink:href="_device_8h.html" target="_top" xlink:title="/mnt/sshfs/imperialroot/homes/dk3810/workingcopies/disaggregate/src/Device.h">
<polygon fill="white" stroke="black" points="485.5,-58.5 485.5,-79.5 850.5,-79.5 850.5,-58.5 485.5,-58.5"/>
<text text-anchor="middle" x="668" y="-66.5" font-family="Helvetica,sans-Serif" font-size="10.00">/mnt/sshfs/imperialroot/homes/dk3810/workingcopies/disaggregate/src/Device.h</text>
</a>
</g>
<!-- Node1&#45;&gt;Node3 -->
<g id="edge4" class="edge"><title>Node1&#45;&gt;Node3</title>
<path fill="none" stroke="midnightblue" d="M735.151,-170.67C717.74,-163.421 699.456,-152.904 687,-138 672.817,-121.03 669.172,-94.3 668.267,-79.587"/>
<polygon fill="midnightblue" stroke="midnightblue" points="734.102,-174.017 744.691,-174.368 736.632,-167.491 734.102,-174.017"/>
</g>
<!-- Node7 -->
<g id="node13" class="node"><title>Node7</title>
<a xlink:href="_power_state_graph_8h.html" target="_top" xlink:title="/mnt/sshfs/imperialroot/homes/dk3810/workingcopies/disaggregate/src/PowerStateGraph.h">
<polygon fill="white" stroke="black" points="696,-116.5 696,-137.5 1108,-137.5 1108,-116.5 696,-116.5"/>
<text text-anchor="middle" x="902" y="-124.5" font-family="Helvetica,sans-Serif" font-size="10.00">/mnt/sshfs/imperialroot/homes/dk3810/workingcopies/disaggregate/src/PowerStateGraph.h</text>
</a>
</g>
<!-- Node1&#45;&gt;Node7 -->
<g id="edge12" class="edge"><title>Node1&#45;&gt;Node7</title>
<path fill="none" stroke="midnightblue" d="M815.396,-169.932C835.848,-159.793 862.311,-146.675 880.574,-137.621"/>
<polygon fill="midnightblue" stroke="midnightblue" points="813.593,-166.919 806.188,-174.497 816.702,-173.191 813.593,-166.919"/>
</g>
<!-- Node8 -->
<g id="node17" class="node"><title>Node8</title>
<a xlink:href="_power_state_graph_8cpp.html" target="_top" xlink:title="/mnt/sshfs/imperialroot/homes/dk3810/workingcopies/disaggregate/src/PowerStateGraph.cpp">
<polygon fill="white" stroke="black" points="928,-58.5 928,-79.5 1350,-79.5 1350,-58.5 928,-58.5"/>
<text text-anchor="middle" x="1139" y="-66.5" font-family="Helvetica,sans-Serif" font-size="10.00">/mnt/sshfs/imperialroot/homes/dk3810/workingcopies/disaggregate/src/PowerStateGraph.cpp</text>
</a>
</g>
<!-- Node1&#45;&gt;Node8 -->
<g id="edge20" class="edge"><title>Node1&#45;&gt;Node8</title>
<path fill="none" stroke="midnightblue" d="M912.68,-173.46C999.387,-164.519 1101.1,-151.428 1117,-138 1134.39,-123.315 1138.18,-94.9028 1138.92,-79.5156"/>
<polygon fill="midnightblue" stroke="midnightblue" points="912.321,-169.978 902.728,-174.475 913.032,-176.942 912.321,-169.978"/>
</g>
<!-- Node4 -->
<g id="node7" class="node"><title>Node4</title>
<a xlink:href="_device_8cpp.html" target="_top" xlink:title="/mnt/sshfs/imperialroot/homes/dk3810/workingcopies/disaggregate/src/Device.cpp">
<polygon fill="white" stroke="black" points="0,-0.5 0,-21.5 376,-21.5 376,-0.5 0,-0.5"/>
<text text-anchor="middle" x="188" y="-8.5" font-family="Helvetica,sans-Serif" font-size="10.00">/mnt/sshfs/imperialroot/homes/dk3810/workingcopies/disaggregate/src/Device.cpp</text>
</a>
</g>
<!-- Node3&#45;&gt;Node4 -->
<g id="edge6" class="edge"><title>Node3&#45;&gt;Node4</title>
<path fill="none" stroke="midnightblue" d="M570.973,-57.2759C484.328,-46.8063 358.562,-31.6095 275.087,-21.5231"/>
<polygon fill="midnightblue" stroke="midnightblue" points="570.728,-60.7717 581.076,-58.4966 571.568,-53.8222 570.728,-60.7717"/>
</g>
<!-- Node5 -->
<g id="node9" class="node"><title>Node5</title>
<a xlink:href="_main_8cpp.html" target="_top" xlink:title="/mnt/sshfs/imperialroot/homes/dk3810/workingcopies/disaggregate/src/Main.cpp">
<polygon fill="white" stroke="black" points="798,-0.5 798,-21.5 1164,-21.5 1164,-0.5 798,-0.5"/>
<text text-anchor="middle" x="981" y="-8.5" font-family="Helvetica,sans-Serif" font-size="10.00">/mnt/sshfs/imperialroot/homes/dk3810/workingcopies/disaggregate/src/Main.cpp</text>
</a>
</g>
<!-- Node3&#45;&gt;Node5 -->
<g id="edge8" class="edge"><title>Node3&#45;&gt;Node5</title>
<path fill="none" stroke="midnightblue" d="M734.567,-56.6648C790.923,-46.222 870.83,-31.415 924.212,-21.5231"/>
<polygon fill="midnightblue" stroke="midnightblue" points="733.877,-53.2331 724.682,-58.4966 735.152,-60.116 733.877,-53.2331"/>
</g>
<!-- Node6 -->
<g id="node11" class="node"><title>Node6</title>
<a xlink:href="_signature_8cpp.html" target="_top" xlink:title="/mnt/sshfs/imperialroot/homes/dk3810/workingcopies/disaggregate/src/Signature.cpp">
<polygon fill="white" stroke="black" points="394,-0.5 394,-21.5 780,-21.5 780,-0.5 394,-0.5"/>
<text text-anchor="middle" x="587" y="-8.5" font-family="Helvetica,sans-Serif" font-size="10.00">/mnt/sshfs/imperialroot/homes/dk3810/workingcopies/disaggregate/src/Signature.cpp</text>
</a>
</g>
<!-- Node3&#45;&gt;Node6 -->
<g id="edge10" class="edge"><title>Node3&#45;&gt;Node6</title>
<path fill="none" stroke="midnightblue" d="M644.62,-52.2587C630.802,-42.3641 613.725,-30.1361 601.762,-21.5707"/>
<polygon fill="midnightblue" stroke="midnightblue" points="642.975,-55.3857 653.143,-58.3619 647.05,-49.6943 642.975,-55.3857"/>
</g>
<!-- Node7&#45;&gt;Node3 -->
<g id="edge14" class="edge"><title>Node7&#45;&gt;Node3</title>
<path fill="none" stroke="midnightblue" d="M849.861,-114.077C807.883,-103.672 749.62,-89.2306 710.455,-79.5231"/>
<polygon fill="midnightblue" stroke="midnightblue" points="849.076,-117.488 859.624,-116.497 850.76,-110.694 849.076,-117.488"/>
</g>
<!-- Node7&#45;&gt;Node5 -->
<g id="edge16" class="edge"><title>Node7&#45;&gt;Node5</title>
<path fill="none" stroke="midnightblue" d="M903.451,-106.303C905.298,-91.7821 909.491,-72.4558 919,-58 929.318,-42.3147 946.71,-29.8063 960.452,-21.6492"/>
<polygon fill="midnightblue" stroke="midnightblue" points="899.963,-106.012 902.447,-116.311 906.928,-106.711 899.963,-106.012"/>
</g>
<!-- Node7&#45;&gt;Node8 -->
<g id="edge18" class="edge"><title>Node7&#45;&gt;Node8</title>
<path fill="none" stroke="midnightblue" d="M954.808,-114.077C997.324,-103.672 1056.33,-89.2306 1096,-79.5231"/>
<polygon fill="midnightblue" stroke="midnightblue" points="953.8,-110.72 944.919,-116.497 955.464,-117.519 953.8,-110.72"/>
</g>
</g>
</svg>
