<?xml version="1.0" encoding="UTF-8" standalone="no"?>
<!DOCTYPE svg PUBLIC "-//W3C//DTD SVG 1.1//EN"
 "http://www.w3.org/Graphics/SVG/1.1/DTD/svg11.dtd">
<!-- Generated by graphviz version 2.26.3 (20100126.1600)
 -->
<!-- Title: G Pages: 1 -->
<svg width="1019pt" height="378pt"
 viewBox="0.00 0.00 1018.68 378.00" xmlns="http://www.w3.org/2000/svg" xmlns:xlink="http://www.w3.org/1999/xlink">
<g id="graph1" class="graph" transform="scale(1 1) rotate(0) translate(4 374)">
<title>G</title>
<polygon fill="white" stroke="white" points="-4,5 -4,-374 1015.68,-374 1015.68,5 -4,5"/>
<!-- Node1 -->
<g id="node1" class="node"><title>Node1</title>
<polygon fill="#bfbfbf" stroke="black" points="0,-348.5 0,-369.5 400,-369.5 400,-348.5 0,-348.5"/>
<text text-anchor="middle" x="200" y="-356.5" font-family="Helvetica,sans-Serif" font-size="10.00">/mnt/sshfs/imperialroot/homes/dk3810/workingcopies/disaggregate/src/AggregateData.h</text>
</g>
<!-- Node2 -->
<g id="node3" class="node"><title>Node2</title>
<a xlink:href="_array_8h.html" target="_top" xlink:title="Array.h">
<polygon fill="white" stroke="black" points="820,-174.5 820,-195.5 868,-195.5 868,-174.5 820,-174.5"/>
<text text-anchor="middle" x="844" y="-182.5" font-family="Helvetica,sans-Serif" font-size="10.00">Array.h</text>
</a>
</g>
<!-- Node1&#45;&gt;Node2 -->
<g id="edge2" class="edge"><title>Node1&#45;&gt;Node2</title>
<path fill="none" stroke="midnightblue" d="M399.244,-348.484C480.468,-341.643 574.878,-330.407 659,-312 736.987,-294.936 775.88,-313.593 829,-254 840.57,-241.02 843.924,-221.24 844.614,-206.182"/>
<polygon fill="midnightblue" stroke="midnightblue" points="848.118,-205.81 844.715,-195.777 841.118,-205.742 848.118,-205.81"/>
</g>
<!-- Node5 -->
<g id="node9" class="node"><title>Node5</title>
<polygon fill="white" stroke="#bfbfbf" points="703.5,-0.5 703.5,-21.5 744.5,-21.5 744.5,-0.5 703.5,-0.5"/>
<text text-anchor="middle" x="724" y="-8.5" font-family="Helvetica,sans-Serif" font-size="10.00">string</text>
</g>
<!-- Node1&#45;&gt;Node5 -->
<g id="edge62" class="edge"><title>Node1&#45;&gt;Node5</title>
<path fill="none" stroke="midnightblue" d="M176.93,-348.408C143.619,-331.34 86,-294.39 86,-243 86,-243 86,-243 86,-127 86,-41.3236 182.662,-77.8791 266,-58 347.728,-38.5051 604.097,-19.3326 693.154,-13.1003"/>
<polygon fill="midnightblue" stroke="midnightblue" points="693.665,-16.5733 703.399,-12.3889 693.181,-9.5901 693.665,-16.5733"/>
</g>
<!-- Node8 -->
<g id="node16" class="node"><title>Node8</title>
<polygon fill="white" stroke="#bfbfbf" points="646,-58.5 646,-79.5 696,-79.5 696,-58.5 646,-58.5"/>
<text text-anchor="middle" x="671" y="-66.5" font-family="Helvetica,sans-Serif" font-size="10.00">fstream</text>
</g>
<!-- Node1&#45;&gt;Node8 -->
<g id="edge66" class="edge"><title>Node1&#45;&gt;Node8</title>
<path fill="none" stroke="midnightblue" d="M186.762,-348.375C164.987,-329.606 124,-288.263 124,-243 124,-243 124,-243 124,-185 124,-138.716 159.59,-134.537 202,-116 279.885,-81.9574 540.213,-72.2149 635.591,-69.7516"/>
<polygon fill="midnightblue" stroke="midnightblue" points="635.952,-73.2439 645.863,-69.4983 635.78,-66.246 635.952,-73.2439"/>
</g>
<!-- Node10 -->
<g id="node23" class="node"><title>Node10</title>
<polygon fill="white" stroke="#bfbfbf" points="211,-116.5 211,-137.5 265,-137.5 265,-116.5 211,-116.5"/>
<text text-anchor="middle" x="238" y="-124.5" font-family="Helvetica,sans-Serif" font-size="10.00">iostream</text>
</g>
<!-- Node1&#45;&gt;Node10 -->
<g id="edge64" class="edge"><title>Node1&#45;&gt;Node10</title>
<path fill="none" stroke="midnightblue" d="M201.572,-348.136C205.735,-319.565 217.515,-239.979 229,-174 230.506,-165.35 232.302,-155.831 233.893,-147.636"/>
<polygon fill="midnightblue" stroke="midnightblue" points="237.33,-148.295 235.823,-137.808 230.461,-146.946 237.33,-148.295"/>
</g>
<!-- Node13 -->
<g id="node31" class="node"><title>Node13</title>
<a xlink:href="_statistic_8h.html" target="_top" xlink:title="Statistic.h">
<polygon fill="white" stroke="black" points="589.5,-290.5 589.5,-311.5 650.5,-311.5 650.5,-290.5 589.5,-290.5"/>
<text text-anchor="middle" x="620" y="-298.5" font-family="Helvetica,sans-Serif" font-size="10.00">Statistic.h</text>
</a>
</g>
<!-- Node1&#45;&gt;Node13 -->
<g id="edge36" class="edge"><title>Node1&#45;&gt;Node13</title>
<path fill="none" stroke="midnightblue" d="M276.059,-348.497C365.099,-336.201 509.276,-316.29 579.275,-306.624"/>
<polygon fill="midnightblue" stroke="midnightblue" points="580.024,-310.054 589.451,-305.219 579.066,-303.12 580.024,-310.054"/>
</g>
<!-- Node3 -->
<g id="node5" class="node"><title>Node3</title>
<a xlink:href="_common_8h.html" target="_top" xlink:title="Common.h">
<polygon fill="white" stroke="black" points="827.5,-58.5 827.5,-79.5 892.5,-79.5 892.5,-58.5 827.5,-58.5"/>
<text text-anchor="middle" x="860" y="-66.5" font-family="Helvetica,sans-Serif" font-size="10.00">Common.h</text>
</a>
</g>
<!-- Node2&#45;&gt;Node3 -->
<g id="edge4" class="edge"><title>Node2&#45;&gt;Node3</title>
<path fill="none" stroke="midnightblue" d="M845.477,-174.295C848.12,-155.131 853.703,-114.654 857.125,-89.8434"/>
<polygon fill="midnightblue" stroke="midnightblue" points="860.628,-90.0637 858.527,-79.6792 853.693,-89.1072 860.628,-90.0637"/>
</g>
<!-- Node6 -->
<g id="node11" class="node"><title>Node6</title>
<polygon fill="white" stroke="#bfbfbf" points="873.5,-0.5 873.5,-21.5 902.5,-21.5 902.5,-0.5 873.5,-0.5"/>
<text text-anchor="middle" x="888" y="-8.5" font-family="Helvetica,sans-Serif" font-size="10.00">list</text>
</g>
<!-- Node2&#45;&gt;Node6 -->
<g id="edge34" class="edge"><title>Node2&#45;&gt;Node6</title>
<path fill="none" stroke="midnightblue" d="M868.292,-180.204C890.513,-174.389 922.12,-162.192 937,-138 958.914,-102.372 927.104,-55.3024 905.383,-29.6426"/>
<polygon fill="midnightblue" stroke="midnightblue" points="907.727,-27.0078 898.495,-21.8087 902.469,-31.6299 907.727,-27.0078"/>
</g>
<!-- Node7 -->
<g id="node13" class="node"><title>Node7</title>
<a xlink:href="_utils_8h.html" target="_top" xlink:title="Utils.h">
<polygon fill="white" stroke="black" points="701.5,-116.5 701.5,-137.5 746.5,-137.5 746.5,-116.5 701.5,-116.5"/>
<text text-anchor="middle" x="724" y="-124.5" font-family="Helvetica,sans-Serif" font-size="10.00">Utils.h</text>
</a>
</g>
<!-- Node2&#45;&gt;Node7 -->
<g id="edge12" class="edge"><title>Node2&#45;&gt;Node7</title>
<path fill="none" stroke="midnightblue" d="M822.269,-174.497C803.526,-165.438 776.233,-152.246 755.164,-142.063"/>
<polygon fill="midnightblue" stroke="midnightblue" points="756.502,-138.822 745.975,-137.621 753.455,-145.124 756.502,-138.822"/>
</g>
<!-- Node2&#45;&gt;Node8 -->
<g id="edge28" class="edge"><title>Node2&#45;&gt;Node8</title>
<path fill="none" stroke="midnightblue" d="M819.859,-177.796C777.802,-165.205 695.319,-140.304 693,-138 680.15,-125.238 674.795,-104.993 672.57,-89.7264"/>
<polygon fill="midnightblue" stroke="midnightblue" points="676.034,-89.2143 671.44,-79.6676 669.078,-89.9959 676.034,-89.2143"/>
</g>
<!-- Node9 -->
<g id="node18" class="node"><title>Node9</title>
<a xlink:href="_g_n_uplot_8h.html" target="_top" xlink:title="GNUplot.h">
<polygon fill="white" stroke="black" points="763.5,-116.5 763.5,-137.5 826.5,-137.5 826.5,-116.5 763.5,-116.5"/>
<text text-anchor="middle" x="795" y="-124.5" font-family="Helvetica,sans-Serif" font-size="10.00">GNUplot.h</text>
</a>
</g>
<!-- Node2&#45;&gt;Node9 -->
<g id="edge18" class="edge"><title>Node2&#45;&gt;Node9</title>
<path fill="none" stroke="midnightblue" d="M835.013,-174.362C828.175,-166.268 818.598,-154.932 810.528,-145.38"/>
<polygon fill="midnightblue" stroke="midnightblue" points="813.058,-142.951 803.93,-137.571 807.71,-147.468 813.058,-142.951"/>
</g>
<!-- Node2&#45;&gt;Node10 -->
<g id="edge26" class="edge"><title>Node2&#45;&gt;Node10</title>
<path fill="none" stroke="midnightblue" d="M819.87,-182.691C726.571,-173.761 389.018,-141.454 275.525,-130.591"/>
<polygon fill="midnightblue" stroke="midnightblue" points="275.544,-127.077 265.256,-129.609 274.877,-134.046 275.544,-127.077"/>
</g>
<!-- Node11 -->
<g id="node26" class="node"><title>Node11</title>
<polygon fill="white" stroke="#bfbfbf" points="882,-116.5 882,-137.5 928,-137.5 928,-116.5 882,-116.5"/>
<text text-anchor="middle" x="905" y="-124.5" font-family="Helvetica,sans-Serif" font-size="10.00">cstdint</text>
</g>
<!-- Node2&#45;&gt;Node11 -->
<g id="edge30" class="edge"><title>Node2&#45;&gt;Node11</title>
<path fill="none" stroke="midnightblue" d="M855.188,-174.362C863.959,-166.023 876.349,-154.242 886.578,-144.516"/>
<polygon fill="midnightblue" stroke="midnightblue" points="889.047,-146.998 893.883,-137.571 884.224,-141.925 889.047,-146.998"/>
</g>
<!-- Node12 -->
<g id="node28" class="node"><title>Node12</title>
<polygon fill="white" stroke="#bfbfbf" points="597.5,-116.5 597.5,-137.5 646.5,-137.5 646.5,-116.5 597.5,-116.5"/>
<text text-anchor="middle" x="622" y="-124.5" font-family="Helvetica,sans-Serif" font-size="10.00">cassert</text>
</g>
<!-- Node2&#45;&gt;Node12 -->
<g id="edge32" class="edge"><title>Node2&#45;&gt;Node12</title>
<path fill="none" stroke="midnightblue" d="M819.918,-177.871C815.307,-176.551 810.511,-175.209 806,-174 741.444,-156.705 724.556,-155.295 660,-138 658.939,-137.716 657.861,-137.424 656.774,-137.127"/>
<polygon fill="midnightblue" stroke="midnightblue" points="657.471,-133.687 646.898,-134.362 655.584,-140.428 657.471,-133.687"/>
</g>
<!-- Node4 -->
<g id="node7" class="node"><title>Node4</title>
<polygon fill="white" stroke="#bfbfbf" points="807.5,-0.5 807.5,-21.5 856.5,-21.5 856.5,-0.5 807.5,-0.5"/>
<text text-anchor="middle" x="832" y="-8.5" font-family="Helvetica,sans-Serif" font-size="10.00">cstddef</text>
</g>
<!-- Node3&#45;&gt;Node4 -->
<g id="edge6" class="edge"><title>Node3&#45;&gt;Node4</title>
<path fill="none" stroke="midnightblue" d="M854.864,-58.3619C851.154,-50.6766 846.033,-40.0686 841.578,-30.8399"/>
<polygon fill="midnightblue" stroke="midnightblue" points="844.603,-29.0545 837.103,-21.5707 838.299,-32.0978 844.603,-29.0545"/>
</g>
<!-- Node3&#45;&gt;Node5 -->
<g id="edge8" class="edge"><title>Node3&#45;&gt;Node5</title>
<path fill="none" stroke="midnightblue" d="M835.371,-58.4966C812.632,-48.7989 778.787,-34.365 754.379,-23.9556"/>
<polygon fill="midnightblue" stroke="midnightblue" points="755.453,-20.6087 744.881,-19.9052 752.707,-27.0476 755.453,-20.6087"/>
</g>
<!-- Node3&#45;&gt;Node6 -->
<g id="edge10" class="edge"><title>Node3&#45;&gt;Node6</title>
<path fill="none" stroke="midnightblue" d="M865.136,-58.3619C868.846,-50.6766 873.967,-40.0686 878.422,-30.8399"/>
<polygon fill="midnightblue" stroke="midnightblue" points="881.701,-32.0978 882.897,-21.5707 875.397,-29.0545 881.701,-32.0978"/>
</g>
<!-- Node7&#45;&gt;Node5 -->
<g id="edge14" class="edge"><title>Node7&#45;&gt;Node5</title>
<path fill="none" stroke="midnightblue" d="M724,-116.295C724,-97.1314 724,-56.654 724,-31.8434"/>
<polygon fill="midnightblue" stroke="midnightblue" points="727.5,-31.6792 724,-21.6792 720.5,-31.6792 727.5,-31.6792"/>
</g>
<!-- Node7&#45;&gt;Node8 -->
<g id="edge16" class="edge"><title>Node7&#45;&gt;Node8</title>
<path fill="none" stroke="midnightblue" d="M714.279,-116.362C706.808,-108.186 696.314,-96.7025 687.531,-87.0907"/>
<polygon fill="midnightblue" stroke="midnightblue" points="689.989,-84.5918 680.659,-79.5707 684.821,-89.3138 689.989,-84.5918"/>
</g>
<!-- Node9&#45;&gt;Node3 -->
<g id="edge24" class="edge"><title>Node9&#45;&gt;Node3</title>
<path fill="none" stroke="midnightblue" d="M806.922,-116.362C816.359,-107.941 829.73,-96.0105 840.69,-86.2308"/>
<polygon fill="midnightblue" stroke="midnightblue" points="843.022,-88.8401 848.154,-79.5707 838.362,-83.6171 843.022,-88.8401"/>
</g>
<!-- Node9&#45;&gt;Node5 -->
<g id="edge20" class="edge"><title>Node9&#45;&gt;Node5</title>
<path fill="none" stroke="midnightblue" d="M788.448,-116.295C776.507,-96.7861 751.046,-55.1884 735.946,-30.5177"/>
<polygon fill="midnightblue" stroke="midnightblue" points="738.742,-28.3812 730.536,-21.6792 732.772,-32.0356 738.742,-28.3812"/>
</g>
<!-- Node9&#45;&gt;Node6 -->
<g id="edge22" class="edge"><title>Node9&#45;&gt;Node6</title>
<path fill="none" stroke="midnightblue" d="M796.589,-116.188C799.171,-101.688 805.424,-75.7192 819,-58 825.493,-49.5252 847.364,-35.2396 864.763,-24.6376"/>
<polygon fill="midnightblue" stroke="midnightblue" points="866.579,-27.6296 873.348,-19.4795 862.974,-21.6292 866.579,-27.6296"/>
</g>
<!-- Node13&#45;&gt;Node2 -->
<g id="edge52" class="edge"><title>Node13&#45;&gt;Node2</title>
<path fill="none" stroke="midnightblue" d="M650.863,-296.257C697.196,-288.638 781.877,-272.624 806,-254 821.832,-241.778 831.976,-221.001 837.765,-205.432"/>
<polygon fill="midnightblue" stroke="midnightblue" points="841.184,-206.25 841.093,-195.656 834.557,-203.994 841.184,-206.25"/>
</g>
<!-- Node13&#45;&gt;Node3 -->
<g id="edge54" class="edge"><title>Node13&#45;&gt;Node3</title>
<path fill="none" stroke="midnightblue" d="M650.514,-299.227C732.655,-294.145 953.693,-278.313 975,-254 998.621,-227.046 1050.83,-245.208 954,-116 941.328,-99.0906 920.883,-87.8616 902.292,-80.6341"/>
<polygon fill="midnightblue" stroke="midnightblue" points="903.385,-77.3075 892.79,-77.2104 901.012,-83.893 903.385,-77.3075"/>
</g>
<!-- Node13&#45;&gt;Node5 -->
<g id="edge38" class="edge"><title>Node13&#45;&gt;Node5</title>
<path fill="none" stroke="midnightblue" d="M589.227,-299.573C510.117,-295.531 301.492,-282.411 239,-254 197.168,-234.982 162,-230.952 162,-185 162,-185 162,-185 162,-127 162,-72.2945 575.706,-26.0703 693.214,-14.0443"/>
<polygon fill="midnightblue" stroke="midnightblue" points="693.736,-17.5094 703.332,-13.0187 693.03,-10.5451 693.736,-17.5094"/>
</g>
<!-- Node13&#45;&gt;Node10 -->
<g id="edge44" class="edge"><title>Node13&#45;&gt;Node10</title>
<path fill="none" stroke="midnightblue" d="M589.29,-299.122C506.026,-293.742 280.624,-277.162 257,-254 228.752,-226.305 230.536,-175.986 234.29,-147.713"/>
<polygon fill="midnightblue" stroke="midnightblue" points="237.765,-148.138 235.823,-137.723 230.846,-147.076 237.765,-148.138"/>
</g>
<!-- Node13&#45;&gt;Node12 -->
<g id="edge40" class="edge"><title>Node13&#45;&gt;Node12</title>
<path fill="none" stroke="midnightblue" d="M650.543,-295.985C690.839,-288.675 758.385,-273.778 773,-254 811.312,-202.152 711.685,-157.899 656.226,-138.095"/>
<polygon fill="midnightblue" stroke="midnightblue" points="657.348,-134.78 646.754,-134.796 655.046,-141.391 657.348,-134.78"/>
</g>
<!-- Node14 -->
<g id="node35" class="node"><title>Node14</title>
<polygon fill="white" stroke="#bfbfbf" points="266,-232.5 266,-253.5 310,-253.5 310,-232.5 266,-232.5"/>
<text text-anchor="middle" x="288" y="-240.5" font-family="Helvetica,sans-Serif" font-size="10.00">cmath</text>
</g>
<!-- Node13&#45;&gt;Node14 -->
<g id="edge42" class="edge"><title>Node13&#45;&gt;Node14</title>
<path fill="none" stroke="midnightblue" d="M589.288,-298.112C536.126,-292.706 423.491,-279.459 320.166,-253.942"/>
<polygon fill="midnightblue" stroke="midnightblue" points="320.75,-250.48 310.198,-251.435 319.042,-257.269 320.75,-250.48"/>
</g>
<!-- Node15 -->
<g id="node38" class="node"><title>Node15</title>
<polygon fill="white" stroke="#bfbfbf" points="328,-232.5 328,-253.5 516,-253.5 516,-232.5 328,-232.5"/>
<text text-anchor="middle" x="422" y="-240.5" font-family="Helvetica,sans-Serif" font-size="10.00">boost/math/distributions/students_t.hpp</text>
</g>
<!-- Node13&#45;&gt;Node15 -->
<g id="edge46" class="edge"><title>Node13&#45;&gt;Node15</title>
<path fill="none" stroke="midnightblue" d="M589.496,-292.065C556.934,-282.526 504.98,-267.307 467.565,-256.347"/>
<polygon fill="midnightblue" stroke="midnightblue" points="468.488,-252.971 457.907,-253.518 466.52,-259.688 468.488,-252.971"/>
</g>
<!-- Node16 -->
<g id="node40" class="node"><title>Node16</title>
<polygon fill="white" stroke="#bfbfbf" points="534,-232.5 534,-253.5 706,-253.5 706,-232.5 534,-232.5"/>
<text text-anchor="middle" x="620" y="-240.5" font-family="Helvetica,sans-Serif" font-size="10.00">boost/math/distributions/normal.hpp</text>
</g>
<!-- Node13&#45;&gt;Node16 -->
<g id="edge48" class="edge"><title>Node13&#45;&gt;Node16</title>
<path fill="none" stroke="midnightblue" d="M620,-290.362C620,-282.922 620,-272.743 620,-263.728"/>
<polygon fill="midnightblue" stroke="midnightblue" points="623.5,-263.571 620,-253.571 616.5,-263.571 623.5,-263.571"/>
</g>
<!-- Node17 -->
<g id="node42" class="node"><title>Node17</title>
<polygon fill="white" stroke="#bfbfbf" points="724,-232.5 724,-253.5 764,-253.5 764,-232.5 724,-232.5"/>
<text text-anchor="middle" x="744" y="-240.5" font-family="Helvetica,sans-Serif" font-size="10.00">limits</text>
</g>
<!-- Node13&#45;&gt;Node17 -->
<g id="edge50" class="edge"><title>Node13&#45;&gt;Node17</title>
<path fill="none" stroke="midnightblue" d="M642.455,-290.497C662.639,-281.056 692.42,-267.126 714.516,-256.791"/>
<polygon fill="midnightblue" stroke="midnightblue" points="716.189,-259.872 723.765,-252.465 713.224,-253.532 716.189,-259.872"/>
</g>
<!-- Node18 -->
<g id="node46" class="node"><title>Node18</title>
<a xlink:href="_histogram_8h.html" target="_top" xlink:title="Histogram.h">
<polygon fill="white" stroke="black" points="896,-232.5 896,-253.5 966,-253.5 966,-232.5 896,-232.5"/>
<text text-anchor="middle" x="931" y="-240.5" font-family="Helvetica,sans-Serif" font-size="10.00">Histogram.h</text>
</a>
</g>
<!-- Node13&#45;&gt;Node18 -->
<g id="edge56" class="edge"><title>Node13&#45;&gt;Node18</title>
<path fill="none" stroke="midnightblue" d="M650.671,-295.28C705.801,-284.999 821.858,-263.354 886.004,-251.391"/>
<polygon fill="midnightblue" stroke="midnightblue" points="886.648,-254.832 895.836,-249.558 885.364,-247.951 886.648,-254.832"/>
</g>
<!-- Node18&#45;&gt;Node2 -->
<g id="edge58" class="edge"><title>Node18&#45;&gt;Node2</title>
<path fill="none" stroke="midnightblue" d="M915.043,-232.362C902.043,-223.696 883.469,-211.313 868.573,-201.382"/>
<polygon fill="midnightblue" stroke="midnightblue" points="870.118,-198.206 859.856,-195.571 866.235,-204.03 870.118,-198.206"/>
</g>
<!-- Node18&#45;&gt;Node3 -->
<g id="edge60" class="edge"><title>Node18&#45;&gt;Node3</title>
<path fill="none" stroke="midnightblue" d="M935.078,-232.266C943.102,-209.242 958.389,-154.114 937,-116 929.015,-101.771 914.777,-91.3396 900.698,-83.9711"/>
<polygon fill="midnightblue" stroke="midnightblue" points="902.065,-80.7447 891.536,-79.5621 899.029,-87.0523 902.065,-80.7447"/>
</g>
</g>
</svg>
