<?xml version="1.0" encoding="UTF-8" standalone="no"?>
<!DOCTYPE svg PUBLIC "-//W3C//DTD SVG 1.1//EN"
 "http://www.w3.org/Graphics/SVG/1.1/DTD/svg11.dtd">
<!-- Generated by graphviz version 2.26.3 (20100126.1600)
 -->
<!-- Title: G Pages: 1 -->
<svg width="1048pt" height="436pt"
 viewBox="0.00 0.00 1048.25 436.00" xmlns="http://www.w3.org/2000/svg" xmlns:xlink="http://www.w3.org/1999/xlink">
<g id="graph1" class="graph" transform="scale(1 1) rotate(0) translate(4 432)">
<title>G</title>
<polygon fill="white" stroke="white" points="-4,5 -4,-432 1045.25,-432 1045.25,5 -4,5"/>
<!-- Node1 -->
<g id="node1" class="node"><title>Node1</title>
<polygon fill="#bfbfbf" stroke="black" points="630.251,-406.5 630.251,-427.5 1040.25,-427.5 1040.25,-406.5 630.251,-406.5"/>
<text text-anchor="middle" x="835.251" y="-414.5" font-family="Helvetica,sans-Serif" font-size="10.00">/mnt/sshfs/imperialroot/homes/dk3810/workingcopies/disaggregate/src/AggregateData.cpp</text>
</g>
<!-- Node2 -->
<g id="node3" class="node"><title>Node2</title>
<a xlink:href="_aggregate_data_8h.html" target="_top" xlink:title="AggregateData.h">
<polygon fill="white" stroke="black" points="714.251,-348.5 714.251,-369.5 804.251,-369.5 804.251,-348.5 714.251,-348.5"/>
<text text-anchor="middle" x="759.251" y="-356.5" font-family="Helvetica,sans-Serif" font-size="10.00">AggregateData.h</text>
</a>
</g>
<!-- Node1&#45;&gt;Node2 -->
<g id="edge2" class="edge"><title>Node1&#45;&gt;Node2</title>
<path fill="none" stroke="midnightblue" d="M821.311,-406.362C810.063,-397.777 794.035,-385.546 781.086,-375.664"/>
<polygon fill="midnightblue" stroke="midnightblue" points="783.175,-372.855 773.102,-369.571 778.928,-378.42 783.175,-372.855"/>
</g>
<!-- Node13 -->
<g id="node30" class="node"><title>Node13</title>
<polygon fill="white" stroke="#bfbfbf" points="701.751,-116.5 701.751,-137.5 750.751,-137.5 750.751,-116.5 701.751,-116.5"/>
<text text-anchor="middle" x="726.251" y="-124.5" font-family="Helvetica,sans-Serif" font-size="10.00">cassert</text>
</g>
<!-- Node1&#45;&gt;Node13 -->
<g id="edge70" class="edge"><title>Node1&#45;&gt;Node13</title>
<path fill="none" stroke="midnightblue" d="M844.663,-406.346C860.853,-386.881 892.251,-343.634 892.251,-301 892.251,-301 892.251,-301 892.251,-243 892.251,-179.486 809.589,-147.847 760.928,-134.725"/>
<polygon fill="midnightblue" stroke="midnightblue" points="761.659,-131.299 751.103,-132.201 759.918,-138.079 761.659,-131.299"/>
</g>
<!-- Node3 -->
<g id="node5" class="node"><title>Node3</title>
<a xlink:href="_array_8h.html" target="_top" xlink:title="Array.h">
<polygon fill="white" stroke="black" points="529.251,-174.5 529.251,-195.5 577.251,-195.5 577.251,-174.5 529.251,-174.5"/>
<text text-anchor="middle" x="553.251" y="-182.5" font-family="Helvetica,sans-Serif" font-size="10.00">Array.h</text>
</a>
</g>
<!-- Node2&#45;&gt;Node3 -->
<g id="edge4" class="edge"><title>Node2&#45;&gt;Node3</title>
<path fill="none" stroke="midnightblue" d="M753.541,-348.343C740.286,-324.494 705.184,-266.239 661.251,-232 639.052,-214.7 609.506,-202.416 586.929,-194.756"/>
<polygon fill="midnightblue" stroke="midnightblue" points="588.003,-191.425 577.411,-191.658 585.836,-198.081 588.003,-191.425"/>
</g>
<!-- Node6 -->
<g id="node11" class="node"><title>Node6</title>
<polygon fill="white" stroke="#bfbfbf" points="601.751,-0.5 601.751,-21.5 642.751,-21.5 642.751,-0.5 601.751,-0.5"/>
<text text-anchor="middle" x="622.251" y="-8.5" font-family="Helvetica,sans-Serif" font-size="10.00">string</text>
</g>
<!-- Node2&#45;&gt;Node6 -->
<g id="edge64" class="edge"><title>Node2&#45;&gt;Node6</title>
<path fill="none" stroke="midnightblue" d="M777.12,-348.294C804.639,-330.291 854.251,-291.157 854.251,-243 854.251,-243 854.251,-243 854.251,-127 854.251,-38.0303 716.069,-17.2959 652.991,-12.4659"/>
<polygon fill="midnightblue" stroke="midnightblue" points="653.053,-8.96212 642.839,-11.7771 652.58,-15.9461 653.053,-8.96212"/>
</g>
<!-- Node9 -->
<g id="node18" class="node"><title>Node9</title>
<polygon fill="white" stroke="#bfbfbf" points="650.251,-58.5 650.251,-79.5 700.251,-79.5 700.251,-58.5 650.251,-58.5"/>
<text text-anchor="middle" x="675.251" y="-66.5" font-family="Helvetica,sans-Serif" font-size="10.00">fstream</text>
</g>
<!-- Node2&#45;&gt;Node9 -->
<g id="edge68" class="edge"><title>Node2&#45;&gt;Node9</title>
<path fill="none" stroke="midnightblue" d="M762.22,-348.222C767.563,-327.841 778.251,-282.182 778.251,-243 778.251,-243 778.251,-243 778.251,-185 778.251,-153.192 778.871,-141.036 759.251,-116 746.757,-100.057 727.263,-88.6745 710.199,-81.1084"/>
<polygon fill="midnightblue" stroke="midnightblue" points="711.081,-77.6855 700.503,-77.0889 708.4,-84.1518 711.081,-77.6855"/>
</g>
<!-- Node11 -->
<g id="node25" class="node"><title>Node11</title>
<polygon fill="white" stroke="#bfbfbf" points="12.2509,-116.5 12.2509,-137.5 66.2509,-137.5 66.2509,-116.5 12.2509,-116.5"/>
<text text-anchor="middle" x="39.2509" y="-124.5" font-family="Helvetica,sans-Serif" font-size="10.00">iostream</text>
</g>
<!-- Node2&#45;&gt;Node11 -->
<g id="edge66" class="edge"><title>Node2&#45;&gt;Node11</title>
<path fill="none" stroke="midnightblue" d="M714.06,-355.771C561.586,-344.443 72.951,-304.454 25.2509,-254 -2.02951,-225.145 15.6893,-174.543 28.8131,-146.719"/>
<polygon fill="midnightblue" stroke="midnightblue" points="32.0378,-148.094 33.3484,-137.581 25.7676,-144.982 32.0378,-148.094"/>
</g>
<!-- Node14 -->
<g id="node33" class="node"><title>Node14</title>
<a xlink:href="_statistic_8h.html" target="_top" xlink:title="Statistic.h">
<polygon fill="white" stroke="black" points="461.751,-290.5 461.751,-311.5 522.751,-311.5 522.751,-290.5 461.751,-290.5"/>
<text text-anchor="middle" x="492.251" y="-298.5" font-family="Helvetica,sans-Serif" font-size="10.00">Statistic.h</text>
</a>
</g>
<!-- Node2&#45;&gt;Node14 -->
<g id="edge38" class="edge"><title>Node2&#45;&gt;Node14</title>
<path fill="none" stroke="midnightblue" d="M713.958,-349.161C663.12,-338.118 581.392,-320.364 532.647,-309.775"/>
<polygon fill="midnightblue" stroke="midnightblue" points="533.285,-306.332 522.769,-307.629 531.799,-313.173 533.285,-306.332"/>
</g>
<!-- Node4 -->
<g id="node7" class="node"><title>Node4</title>
<a xlink:href="_common_8h.html" target="_top" xlink:title="Common.h">
<polygon fill="white" stroke="black" points="380.751,-58.5 380.751,-79.5 445.751,-79.5 445.751,-58.5 380.751,-58.5"/>
<text text-anchor="middle" x="413.251" y="-66.5" font-family="Helvetica,sans-Serif" font-size="10.00">Common.h</text>
</a>
</g>
<!-- Node3&#45;&gt;Node4 -->
<g id="edge6" class="edge"><title>Node3&#45;&gt;Node4</title>
<path fill="none" stroke="midnightblue" d="M529.192,-180.534C492.477,-173.174 425.241,-157.366 411.251,-138 401.312,-124.242 402.982,-104.588 406.458,-89.7733"/>
<polygon fill="midnightblue" stroke="midnightblue" points="409.871,-90.5658 409.169,-79.9943 403.125,-88.6963 409.871,-90.5658"/>
</g>
<!-- Node7 -->
<g id="node13" class="node"><title>Node7</title>
<polygon fill="white" stroke="#bfbfbf" points="479.751,-0.5 479.751,-21.5 508.751,-21.5 508.751,-0.5 479.751,-0.5"/>
<text text-anchor="middle" x="494.251" y="-8.5" font-family="Helvetica,sans-Serif" font-size="10.00">list</text>
</g>
<!-- Node3&#45;&gt;Node7 -->
<g id="edge36" class="edge"><title>Node3&#45;&gt;Node7</title>
<path fill="none" stroke="midnightblue" d="M541.029,-174.312C531.826,-165.525 519.727,-152.24 513.251,-138 497.413,-103.174 494.271,-57.9712 493.921,-31.9521"/>
<polygon fill="midnightblue" stroke="midnightblue" points="497.421,-31.7557 493.916,-21.7572 490.421,-31.7587 497.421,-31.7557"/>
</g>
<!-- Node8 -->
<g id="node15" class="node"><title>Node8</title>
<a xlink:href="_utils_8h.html" target="_top" xlink:title="Utils.h">
<polygon fill="white" stroke="black" points="601.751,-116.5 601.751,-137.5 646.751,-137.5 646.751,-116.5 601.751,-116.5"/>
<text text-anchor="middle" x="624.251" y="-124.5" font-family="Helvetica,sans-Serif" font-size="10.00">Utils.h</text>
</a>
</g>
<!-- Node3&#45;&gt;Node8 -->
<g id="edge14" class="edge"><title>Node3&#45;&gt;Node8</title>
<path fill="none" stroke="midnightblue" d="M566.273,-174.362C576.682,-165.859 591.47,-153.779 603.506,-143.947"/>
<polygon fill="midnightblue" stroke="midnightblue" points="605.781,-146.608 611.311,-137.571 601.352,-141.187 605.781,-146.608"/>
</g>
<!-- Node3&#45;&gt;Node9 -->
<g id="edge30" class="edge"><title>Node3&#45;&gt;Node9</title>
<path fill="none" stroke="midnightblue" d="M577.376,-179.991C600.58,-173.938 635.03,-161.499 655.251,-138 666.79,-124.59 671.682,-104.858 673.751,-89.9254"/>
<polygon fill="midnightblue" stroke="midnightblue" points="677.269,-89.9407 674.845,-79.6267 670.308,-89.2008 677.269,-89.9407"/>
</g>
<!-- Node10 -->
<g id="node20" class="node"><title>Node10</title>
<a xlink:href="_g_n_uplot_8h.html" target="_top" xlink:title="GNUplot.h">
<polygon fill="white" stroke="black" points="521.751,-116.5 521.751,-137.5 584.751,-137.5 584.751,-116.5 521.751,-116.5"/>
<text text-anchor="middle" x="553.251" y="-124.5" font-family="Helvetica,sans-Serif" font-size="10.00">GNUplot.h</text>
</a>
</g>
<!-- Node3&#45;&gt;Node10 -->
<g id="edge20" class="edge"><title>Node3&#45;&gt;Node10</title>
<path fill="none" stroke="midnightblue" d="M553.251,-174.362C553.251,-166.922 553.251,-156.743 553.251,-147.728"/>
<polygon fill="midnightblue" stroke="midnightblue" points="556.751,-147.571 553.251,-137.571 549.751,-147.571 556.751,-147.571"/>
</g>
<!-- Node3&#45;&gt;Node11 -->
<g id="edge28" class="edge"><title>Node3&#45;&gt;Node11</title>
<path fill="none" stroke="midnightblue" d="M529.149,-182.28C446.805,-172.989 176.236,-142.457 76.5547,-131.209"/>
<polygon fill="midnightblue" stroke="midnightblue" points="76.6858,-127.702 66.3563,-130.059 75.9008,-134.658 76.6858,-127.702"/>
</g>
<!-- Node12 -->
<g id="node28" class="node"><title>Node12</title>
<polygon fill="white" stroke="#bfbfbf" points="420.251,-116.5 420.251,-137.5 466.251,-137.5 466.251,-116.5 420.251,-116.5"/>
<text text-anchor="middle" x="443.251" y="-124.5" font-family="Helvetica,sans-Serif" font-size="10.00">cstdint</text>
</g>
<!-- Node3&#45;&gt;Node12 -->
<g id="edge32" class="edge"><title>Node3&#45;&gt;Node12</title>
<path fill="none" stroke="midnightblue" d="M533.331,-174.497C516.305,-165.519 491.582,-152.484 472.342,-142.339"/>
<polygon fill="midnightblue" stroke="midnightblue" points="473.873,-139.189 463.395,-137.621 470.608,-145.381 473.873,-139.189"/>
</g>
<!-- Node3&#45;&gt;Node13 -->
<g id="edge34" class="edge"><title>Node3&#45;&gt;Node13</title>
<path fill="none" stroke="midnightblue" d="M577.306,-176.935C607.135,-166.935 658.178,-149.822 692.065,-138.461"/>
<polygon fill="midnightblue" stroke="midnightblue" points="693.193,-141.774 701.562,-135.277 690.968,-135.138 693.193,-141.774"/>
</g>
<!-- Node5 -->
<g id="node9" class="node"><title>Node5</title>
<polygon fill="white" stroke="#bfbfbf" points="388.751,-0.5 388.751,-21.5 437.751,-21.5 437.751,-0.5 388.751,-0.5"/>
<text text-anchor="middle" x="413.251" y="-8.5" font-family="Helvetica,sans-Serif" font-size="10.00">cstddef</text>
</g>
<!-- Node4&#45;&gt;Node5 -->
<g id="edge8" class="edge"><title>Node4&#45;&gt;Node5</title>
<path fill="none" stroke="midnightblue" d="M413.251,-58.3619C413.251,-50.9219 413.251,-40.7427 413.251,-31.7276"/>
<polygon fill="midnightblue" stroke="midnightblue" points="416.751,-31.5706 413.251,-21.5707 409.751,-31.5707 416.751,-31.5706"/>
</g>
<!-- Node4&#45;&gt;Node6 -->
<g id="edge10" class="edge"><title>Node4&#45;&gt;Node6</title>
<path fill="none" stroke="midnightblue" d="M445.907,-59.9375C485.85,-48.853 552.934,-30.2363 591.83,-19.4421"/>
<polygon fill="midnightblue" stroke="midnightblue" points="592.843,-22.7933 601.543,-16.7466 590.971,-16.0482 592.843,-22.7933"/>
</g>
<!-- Node4&#45;&gt;Node7 -->
<g id="edge12" class="edge"><title>Node4&#45;&gt;Node7</title>
<path fill="none" stroke="midnightblue" d="M428.108,-58.3619C440.096,-49.7773 457.178,-37.5459 470.979,-27.6636"/>
<polygon fill="midnightblue" stroke="midnightblue" points="473.396,-30.2383 479.488,-21.5707 469.32,-24.5469 473.396,-30.2383"/>
</g>
<!-- Node8&#45;&gt;Node6 -->
<g id="edge16" class="edge"><title>Node8&#45;&gt;Node6</title>
<path fill="none" stroke="midnightblue" d="M624.066,-116.295C623.736,-97.1314 623.038,-56.654 622.61,-31.8434"/>
<polygon fill="midnightblue" stroke="midnightblue" points="626.107,-31.6173 622.435,-21.6792 619.108,-31.7381 626.107,-31.6173"/>
</g>
<!-- Node8&#45;&gt;Node9 -->
<g id="edge18" class="edge"><title>Node8&#45;&gt;Node9</title>
<path fill="none" stroke="midnightblue" d="M633.605,-116.362C640.794,-108.186 650.892,-96.7025 659.344,-87.0907"/>
<polygon fill="midnightblue" stroke="midnightblue" points="661.981,-89.3916 665.956,-79.5707 656.724,-84.7692 661.981,-89.3916"/>
</g>
<!-- Node10&#45;&gt;Node4 -->
<g id="edge26" class="edge"><title>Node10&#45;&gt;Node4</title>
<path fill="none" stroke="midnightblue" d="M527.898,-116.497C505.638,-107.275 473.039,-93.7695 448.288,-83.5153"/>
<polygon fill="midnightblue" stroke="midnightblue" points="449.467,-80.2152 438.888,-79.6212 446.787,-86.6822 449.467,-80.2152"/>
</g>
<!-- Node10&#45;&gt;Node6 -->
<g id="edge22" class="edge"><title>Node10&#45;&gt;Node6</title>
<path fill="none" stroke="midnightblue" d="M559.619,-116.295C571.223,-96.7861 595.966,-55.1884 610.641,-30.5177"/>
<polygon fill="midnightblue" stroke="midnightblue" points="613.794,-32.063 615.899,-21.6792 607.778,-28.4844 613.794,-32.063"/>
</g>
<!-- Node10&#45;&gt;Node7 -->
<g id="edge24" class="edge"><title>Node10&#45;&gt;Node7</title>
<path fill="none" stroke="midnightblue" d="M547.806,-116.295C537.927,-96.8724 516.913,-55.5561 504.345,-30.8462"/>
<polygon fill="midnightblue" stroke="midnightblue" points="507.336,-29.0058 499.683,-21.6792 501.096,-32.1793 507.336,-29.0058"/>
</g>
<!-- Node14&#45;&gt;Node3 -->
<g id="edge54" class="edge"><title>Node14&#45;&gt;Node3</title>
<path fill="none" stroke="midnightblue" d="M522.794,-295.985C563.09,-288.675 630.636,-273.778 645.251,-254 664.905,-227.402 620.605,-206.335 586.886,-194.778"/>
<polygon fill="midnightblue" stroke="midnightblue" points="587.874,-191.419 577.282,-191.638 585.699,-198.072 587.874,-191.419"/>
</g>
<!-- Node14&#45;&gt;Node4 -->
<g id="edge56" class="edge"><title>Node14&#45;&gt;Node4</title>
<path fill="none" stroke="midnightblue" d="M461.607,-300.011C362.845,-296.538 57.428,-283.489 25.2509,-254 -13.4349,-218.546 8.16137,-190.244 3.25093,-138 2.33595,-128.265 -3.2574,-123.297 3.25093,-116 27.4323,-88.8882 270.654,-75.2345 370.657,-70.732"/>
<polygon fill="midnightblue" stroke="midnightblue" points="370.884,-74.2255 380.72,-70.2881 370.575,-67.2323 370.884,-74.2255"/>
</g>
<!-- Node14&#45;&gt;Node6 -->
<g id="edge40" class="edge"><title>Node14&#45;&gt;Node6</title>
<path fill="none" stroke="midnightblue" d="M523.024,-296.718C603.9,-284.607 816.251,-246.912 816.251,-185 816.251,-185 816.251,-185 816.251,-127 816.251,-51.9492 707.977,-24.2936 653.205,-15.105"/>
<polygon fill="midnightblue" stroke="midnightblue" points="653.434,-11.5982 643.012,-13.505 652.349,-18.5135 653.434,-11.5982"/>
</g>
<!-- Node14&#45;&gt;Node11 -->
<g id="edge46" class="edge"><title>Node14&#45;&gt;Node11</title>
<path fill="none" stroke="midnightblue" d="M461.434,-300.106C364.356,-296.98 69.6252,-284.991 41.2509,-254 14.8276,-225.14 24.0738,-175.271 32.2363,-147.384"/>
<polygon fill="midnightblue" stroke="midnightblue" points="35.6708,-148.13 35.3436,-137.54 28.9955,-146.023 35.6708,-148.13"/>
</g>
<!-- Node14&#45;&gt;Node13 -->
<g id="edge42" class="edge"><title>Node14&#45;&gt;Node13</title>
<path fill="none" stroke="midnightblue" d="M522.833,-295.547C565.508,-287.436 640.076,-271.282 661.251,-254 695.301,-226.211 713.377,-175.928 721.264,-147.686"/>
<polygon fill="midnightblue" stroke="midnightblue" points="724.73,-148.269 723.88,-137.708 717.959,-146.494 724.73,-148.269"/>
</g>
<!-- Node15 -->
<g id="node37" class="node"><title>Node15</title>
<polygon fill="white" stroke="#bfbfbf" points="138.251,-232.5 138.251,-253.5 182.251,-253.5 182.251,-232.5 138.251,-232.5"/>
<text text-anchor="middle" x="160.251" y="-240.5" font-family="Helvetica,sans-Serif" font-size="10.00">cmath</text>
</g>
<!-- Node14&#45;&gt;Node15 -->
<g id="edge44" class="edge"><title>Node14&#45;&gt;Node15</title>
<path fill="none" stroke="midnightblue" d="M461.539,-298.112C408.377,-292.706 295.742,-279.459 192.417,-253.942"/>
<polygon fill="midnightblue" stroke="midnightblue" points="193.001,-250.48 182.449,-251.435 191.293,-257.269 193.001,-250.48"/>
</g>
<!-- Node16 -->
<g id="node40" class="node"><title>Node16</title>
<polygon fill="white" stroke="#bfbfbf" points="200.251,-232.5 200.251,-253.5 388.251,-253.5 388.251,-232.5 200.251,-232.5"/>
<text text-anchor="middle" x="294.251" y="-240.5" font-family="Helvetica,sans-Serif" font-size="10.00">boost/math/distributions/students_t.hpp</text>
</g>
<!-- Node14&#45;&gt;Node16 -->
<g id="edge48" class="edge"><title>Node14&#45;&gt;Node16</title>
<path fill="none" stroke="midnightblue" d="M461.747,-292.065C429.185,-282.526 377.231,-267.307 339.816,-256.347"/>
<polygon fill="midnightblue" stroke="midnightblue" points="340.739,-252.971 330.158,-253.518 338.771,-259.688 340.739,-252.971"/>
</g>
<!-- Node17 -->
<g id="node42" class="node"><title>Node17</title>
<polygon fill="white" stroke="#bfbfbf" points="406.251,-232.5 406.251,-253.5 578.251,-253.5 578.251,-232.5 406.251,-232.5"/>
<text text-anchor="middle" x="492.251" y="-240.5" font-family="Helvetica,sans-Serif" font-size="10.00">boost/math/distributions/normal.hpp</text>
</g>
<!-- Node14&#45;&gt;Node17 -->
<g id="edge50" class="edge"><title>Node14&#45;&gt;Node17</title>
<path fill="none" stroke="midnightblue" d="M492.251,-290.362C492.251,-282.922 492.251,-272.743 492.251,-263.728"/>
<polygon fill="midnightblue" stroke="midnightblue" points="495.751,-263.571 492.251,-253.571 488.751,-263.571 495.751,-263.571"/>
</g>
<!-- Node18 -->
<g id="node44" class="node"><title>Node18</title>
<polygon fill="white" stroke="#bfbfbf" points="596.251,-232.5 596.251,-253.5 636.251,-253.5 636.251,-232.5 596.251,-232.5"/>
<text text-anchor="middle" x="616.251" y="-240.5" font-family="Helvetica,sans-Serif" font-size="10.00">limits</text>
</g>
<!-- Node14&#45;&gt;Node18 -->
<g id="edge52" class="edge"><title>Node14&#45;&gt;Node18</title>
<path fill="none" stroke="midnightblue" d="M514.706,-290.497C534.89,-281.056 564.671,-267.126 586.767,-256.791"/>
<polygon fill="midnightblue" stroke="midnightblue" points="588.44,-259.872 596.015,-252.465 585.474,-253.532 588.44,-259.872"/>
</g>
<!-- Node19 -->
<g id="node48" class="node"><title>Node19</title>
<a xlink:href="_histogram_8h.html" target="_top" xlink:title="Histogram.h">
<polygon fill="white" stroke="black" points="50.2509,-232.5 50.2509,-253.5 120.251,-253.5 120.251,-232.5 50.2509,-232.5"/>
<text text-anchor="middle" x="85.2509" y="-240.5" font-family="Helvetica,sans-Serif" font-size="10.00">Histogram.h</text>
</a>
</g>
<!-- Node14&#45;&gt;Node19 -->
<g id="edge58" class="edge"><title>Node14&#45;&gt;Node19</title>
<path fill="none" stroke="midnightblue" d="M461.465,-298.233C400.243,-292.47 258.749,-277.849 130.694,-254.115"/>
<polygon fill="midnightblue" stroke="midnightblue" points="131.188,-250.647 120.714,-252.242 129.897,-257.527 131.188,-250.647"/>
</g>
<!-- Node19&#45;&gt;Node3 -->
<g id="edge60" class="edge"><title>Node19&#45;&gt;Node3</title>
<path fill="none" stroke="midnightblue" d="M120.704,-233.701C123.585,-233.079 126.461,-232.501 129.251,-232 272.777,-206.225 446.338,-192.296 518.833,-187.237"/>
<polygon fill="midnightblue" stroke="midnightblue" points="519.443,-190.704 529.181,-186.528 518.965,-183.72 519.443,-190.704"/>
</g>
<!-- Node19&#45;&gt;Node4 -->
<g id="edge62" class="edge"><title>Node19&#45;&gt;Node4</title>
<path fill="none" stroke="midnightblue" d="M105.275,-232.377C161.087,-202.77 318.582,-119.221 384.096,-84.4661"/>
<polygon fill="midnightblue" stroke="midnightblue" points="385.878,-87.4829 393.072,-79.7046 382.598,-81.2991 385.878,-87.4829"/>
</g>
</g>
</svg>
