<?xml version="1.0" encoding="UTF-8" standalone="no"?>
<!DOCTYPE svg PUBLIC "-//W3C//DTD SVG 1.1//EN"
 "http://www.w3.org/Graphics/SVG/1.1/DTD/svg11.dtd">
<!-- Generated by graphviz version 2.26.3 (20100126.1600)
 -->
<!-- Title: G Pages: 1 -->
<svg width="1681pt" height="436pt"
 viewBox="0.00 0.00 1681.00 436.00" xmlns="http://www.w3.org/2000/svg" xmlns:xlink="http://www.w3.org/1999/xlink">
<g id="graph1" class="graph" transform="scale(1 1) rotate(0) translate(4 432)">
<title>G</title>
<polygon fill="white" stroke="white" points="-4,5 -4,-432 1678,-432 1678,5 -4,5"/>
<!-- Node1 -->
<g id="node1" class="node"><title>Node1</title>
<polygon fill="#bfbfbf" stroke="black" points="651,-406.5 651,-427.5 1009,-427.5 1009,-406.5 651,-406.5"/>
<text text-anchor="middle" x="830" y="-414.5" font-family="Helvetica,sans-Serif" font-size="10.00">/mnt/sshfs/imperialroot/homes/dk3810/workingcopies/disaggregate/src/Array.h</text>
</g>
<!-- Node2 -->
<g id="node3" class="node"><title>Node2</title>
<a xlink:href="_aggregate_data_8h.html" target="_top" xlink:title="/mnt/sshfs/imperialroot/homes/dk3810/workingcopies/disaggregate/src/AggregateData.h">
<polygon fill="white" stroke="black" points="86,-174.5 86,-195.5 486,-195.5 486,-174.5 86,-174.5"/>
<text text-anchor="middle" x="286" y="-182.5" font-family="Helvetica,sans-Serif" font-size="10.00">/mnt/sshfs/imperialroot/homes/dk3810/workingcopies/disaggregate/src/AggregateData.h</text>
</a>
</g>
<!-- Node1&#45;&gt;Node2 -->
<g id="edge2" class="edge"><title>Node1&#45;&gt;Node2</title>
<path fill="none" stroke="midnightblue" d="M790.613,-402.89C716.77,-376.107 552.895,-315.095 419,-254 377.585,-235.103 330.641,-209.798 305.081,-195.677"/>
<polygon fill="midnightblue" stroke="midnightblue" points="789.828,-406.328 800.422,-406.439 792.209,-399.746 789.828,-406.328"/>
</g>
<!-- Node6 -->
<g id="node11" class="node"><title>Node6</title>
<a xlink:href="_main_8cpp.html" target="_top" xlink:title="/mnt/sshfs/imperialroot/homes/dk3810/workingcopies/disaggregate/src/Main.cpp">
<polygon fill="white" stroke="black" points="509,-0.5 509,-21.5 875,-21.5 875,-0.5 509,-0.5"/>
<text text-anchor="middle" x="692" y="-8.5" font-family="Helvetica,sans-Serif" font-size="10.00">/mnt/sshfs/imperialroot/homes/dk3810/workingcopies/disaggregate/src/Main.cpp</text>
</a>
</g>
<!-- Node1&#45;&gt;Node6 -->
<g id="edge68" class="edge"><title>Node1&#45;&gt;Node6</title>
<path fill="none" stroke="midnightblue" d="M640.827,-409.027C395.876,-396.119 0,-365.31 0,-301 0,-301 0,-301 0,-127 0,-61.9803 66.644,-76.4196 129,-58 197.903,-37.6466 372.32,-25.1964 508.922,-18.2694"/>
<polygon fill="midnightblue" stroke="midnightblue" points="640.756,-412.528 650.924,-409.554 641.12,-405.538 640.756,-412.528"/>
</g>
<!-- Node10 -->
<g id="node22" class="node"><title>Node10</title>
<a xlink:href="_statistic_8h.html" target="_top" xlink:title="/mnt/sshfs/imperialroot/homes/dk3810/workingcopies/disaggregate/src/Statistic.h">
<polygon fill="white" stroke="black" points="644.5,-290.5 644.5,-311.5 1015.5,-311.5 1015.5,-290.5 644.5,-290.5"/>
<text text-anchor="middle" x="830" y="-298.5" font-family="Helvetica,sans-Serif" font-size="10.00">/mnt/sshfs/imperialroot/homes/dk3810/workingcopies/disaggregate/src/Statistic.h</text>
</a>
</g>
<!-- Node1&#45;&gt;Node10 -->
<g id="edge24" class="edge"><title>Node1&#45;&gt;Node10</title>
<path fill="none" stroke="midnightblue" d="M830,-396.123C830,-371.298 830,-330.824 830,-311.679"/>
<polygon fill="midnightblue" stroke="midnightblue" points="826.5,-396.295 830,-406.295 833.5,-396.295 826.5,-396.295"/>
</g>
<!-- Node11 -->
<g id="node25" class="node"><title>Node11</title>
<a xlink:href="_signature_8h.html" target="_top" xlink:title="/mnt/sshfs/imperialroot/homes/dk3810/workingcopies/disaggregate/src/Signature.h">
<polygon fill="white" stroke="black" points="1076,-174.5 1076,-195.5 1452,-195.5 1452,-174.5 1076,-174.5"/>
<text text-anchor="middle" x="1264" y="-182.5" font-family="Helvetica,sans-Serif" font-size="10.00">/mnt/sshfs/imperialroot/homes/dk3810/workingcopies/disaggregate/src/Signature.h</text>
</a>
</g>
<!-- Node1&#45;&gt;Node11 -->
<g id="edge66" class="edge"><title>Node1&#45;&gt;Node11</title>
<path fill="none" stroke="midnightblue" d="M965.766,-405.548C1151.78,-388.4 1466.67,-353.582 1499,-312 1549.17,-247.471 1418.87,-211.598 1332.81,-195.509"/>
<polygon fill="midnightblue" stroke="midnightblue" points="965.271,-402.079 955.632,-406.476 965.91,-409.049 965.271,-402.079"/>
</g>
<!-- Node14 -->
<g id="node42" class="node"><title>Node14</title>
<a xlink:href="_histogram_8h.html" target="_top" xlink:title="/mnt/sshfs/imperialroot/homes/dk3810/workingcopies/disaggregate/src/Histogram.h">
<polygon fill="white" stroke="black" points="882,-348.5 882,-369.5 1262,-369.5 1262,-348.5 882,-348.5"/>
<text text-anchor="middle" x="1072" y="-356.5" font-family="Helvetica,sans-Serif" font-size="10.00">/mnt/sshfs/imperialroot/homes/dk3810/workingcopies/disaggregate/src/Histogram.h</text>
</a>
</g>
<!-- Node1&#45;&gt;Node14 -->
<g id="edge56" class="edge"><title>Node1&#45;&gt;Node14</title>
<path fill="none" stroke="midnightblue" d="M883.647,-404.142C927.08,-393.733 987.504,-379.251 1028.09,-369.523"/>
<polygon fill="midnightblue" stroke="midnightblue" points="882.733,-400.762 873.824,-406.497 884.365,-407.569 882.733,-400.762"/>
</g>
<!-- Node3 -->
<g id="node5" class="node"><title>Node3</title>
<a xlink:href="_aggregate_data_8cpp.html" target="_top" xlink:title="/mnt/sshfs/imperialroot/homes/dk3810/workingcopies/disaggregate/src/AggregateData.cpp">
<polygon fill="white" stroke="black" points="66,-116.5 66,-137.5 476,-137.5 476,-116.5 66,-116.5"/>
<text text-anchor="middle" x="271" y="-124.5" font-family="Helvetica,sans-Serif" font-size="10.00">/mnt/sshfs/imperialroot/homes/dk3810/workingcopies/disaggregate/src/AggregateData.cpp</text>
</a>
</g>
<!-- Node2&#45;&gt;Node3 -->
<g id="edge4" class="edge"><title>Node2&#45;&gt;Node3</title>
<path fill="none" stroke="midnightblue" d="M280.695,-164.488C278.343,-155.392 275.675,-145.076 273.734,-137.571"/>
<polygon fill="midnightblue" stroke="midnightblue" points="277.356,-165.557 283.249,-174.362 284.133,-163.804 277.356,-165.557"/>
</g>
<!-- Node4 -->
<g id="node7" class="node"><title>Node4</title>
<a xlink:href="_device_8h.html" target="_top" xlink:title="/mnt/sshfs/imperialroot/homes/dk3810/workingcopies/disaggregate/src/Device.h">
<polygon fill="white" stroke="black" points="828.5,-58.5 828.5,-79.5 1193.5,-79.5 1193.5,-58.5 828.5,-58.5"/>
<text text-anchor="middle" x="1011" y="-66.5" font-family="Helvetica,sans-Serif" font-size="10.00">/mnt/sshfs/imperialroot/homes/dk3810/workingcopies/disaggregate/src/Device.h</text>
</a>
</g>
<!-- Node2&#45;&gt;Node4 -->
<g id="edge6" class="edge"><title>Node2&#45;&gt;Node4</title>
<path fill="none" stroke="midnightblue" d="M496.127,-174.146C683.911,-163.831 932.596,-148.392 953,-138 978.379,-125.074 996.987,-95.6523 1005.62,-79.723"/>
<polygon fill="midnightblue" stroke="midnightblue" points="495.901,-170.653 486.108,-174.695 496.284,-177.643 495.901,-170.653"/>
</g>
<!-- Node8 -->
<g id="node15" class="node"><title>Node8</title>
<a xlink:href="_power_state_graph_8h.html" target="_top" xlink:title="/mnt/sshfs/imperialroot/homes/dk3810/workingcopies/disaggregate/src/PowerStateGraph.h">
<polygon fill="white" stroke="black" points="532,-116.5 532,-137.5 944,-137.5 944,-116.5 532,-116.5"/>
<text text-anchor="middle" x="738" y="-124.5" font-family="Helvetica,sans-Serif" font-size="10.00">/mnt/sshfs/imperialroot/homes/dk3810/workingcopies/disaggregate/src/PowerStateGraph.h</text>
</a>
</g>
<!-- Node2&#45;&gt;Node8 -->
<g id="edge14" class="edge"><title>Node2&#45;&gt;Node8</title>
<path fill="none" stroke="midnightblue" d="M378.114,-173.18C459.679,-162.714 577.627,-147.579 655.993,-137.523"/>
<polygon fill="midnightblue" stroke="midnightblue" points="377.327,-169.752 367.854,-174.497 378.218,-176.695 377.327,-169.752"/>
</g>
<!-- Node9 -->
<g id="node19" class="node"><title>Node9</title>
<a xlink:href="_power_state_graph_8cpp.html" target="_top" xlink:title="/mnt/sshfs/imperialroot/homes/dk3810/workingcopies/disaggregate/src/PowerStateGraph.cpp">
<polygon fill="white" stroke="black" points="290,-58.5 290,-79.5 712,-79.5 712,-58.5 290,-58.5"/>
<text text-anchor="middle" x="501" y="-66.5" font-family="Helvetica,sans-Serif" font-size="10.00">/mnt/sshfs/imperialroot/homes/dk3810/workingcopies/disaggregate/src/PowerStateGraph.cpp</text>
</a>
</g>
<!-- Node2&#45;&gt;Node9 -->
<g id="edge22" class="edge"><title>Node2&#45;&gt;Node9</title>
<path fill="none" stroke="midnightblue" d="M378.153,-172.771C422.561,-165.044 469.513,-153.55 485,-138 500.533,-122.404 502.166,-94.8833 501.744,-79.739"/>
<polygon fill="midnightblue" stroke="midnightblue" points="377.415,-169.346 368.136,-174.46 378.579,-176.249 377.415,-169.346"/>
</g>
<!-- Node5 -->
<g id="node9" class="node"><title>Node5</title>
<a xlink:href="_device_8cpp.html" target="_top" xlink:title="/mnt/sshfs/imperialroot/homes/dk3810/workingcopies/disaggregate/src/Device.cpp">
<polygon fill="white" stroke="black" points="893,-0.5 893,-21.5 1269,-21.5 1269,-0.5 893,-0.5"/>
<text text-anchor="middle" x="1081" y="-8.5" font-family="Helvetica,sans-Serif" font-size="10.00">/mnt/sshfs/imperialroot/homes/dk3810/workingcopies/disaggregate/src/Device.cpp</text>
</a>
</g>
<!-- Node4&#45;&gt;Node5 -->
<g id="edge8" class="edge"><title>Node4&#45;&gt;Node5</title>
<path fill="none" stroke="midnightblue" d="M1031.55,-51.9753C1043.43,-42.1315 1058,-30.0545 1068.24,-21.5707"/>
<polygon fill="midnightblue" stroke="midnightblue" points="1029.31,-49.2866 1023.84,-58.3619 1033.77,-54.6768 1029.31,-49.2866"/>
</g>
<!-- Node4&#45;&gt;Node6 -->
<g id="edge10" class="edge"><title>Node4&#45;&gt;Node6</title>
<path fill="none" stroke="midnightblue" d="M943.157,-56.6648C885.721,-46.222 804.282,-31.415 749.877,-21.5231"/>
<polygon fill="midnightblue" stroke="midnightblue" points="942.767,-60.1512 953.232,-58.4966 944.019,-53.2642 942.767,-60.1512"/>
</g>
<!-- Node7 -->
<g id="node13" class="node"><title>Node7</title>
<a xlink:href="_signature_8cpp.html" target="_top" xlink:title="/mnt/sshfs/imperialroot/homes/dk3810/workingcopies/disaggregate/src/Signature.cpp">
<polygon fill="white" stroke="black" points="1287,-0.5 1287,-21.5 1673,-21.5 1673,-0.5 1287,-0.5"/>
<text text-anchor="middle" x="1480" y="-8.5" font-family="Helvetica,sans-Serif" font-size="10.00">/mnt/sshfs/imperialroot/homes/dk3810/workingcopies/disaggregate/src/Signature.cpp</text>
</a>
</g>
<!-- Node4&#45;&gt;Node7 -->
<g id="edge12" class="edge"><title>Node4&#45;&gt;Node7</title>
<path fill="none" stroke="midnightblue" d="M1106.06,-57.244C1190.71,-46.7755 1313.43,-31.5993 1394.91,-21.5231"/>
<polygon fill="midnightblue" stroke="midnightblue" points="1105.43,-53.7957 1095.93,-58.4966 1106.29,-60.7428 1105.43,-53.7957"/>
</g>
<!-- Node8&#45;&gt;Node4 -->
<g id="edge16" class="edge"><title>Node8&#45;&gt;Node4</title>
<path fill="none" stroke="midnightblue" d="M797.286,-114.404C846.367,-103.977 915.294,-89.333 961.469,-79.5231"/>
<polygon fill="midnightblue" stroke="midnightblue" points="796.493,-110.995 787.438,-116.497 797.947,-117.842 796.493,-110.995"/>
</g>
<!-- Node8&#45;&gt;Node6 -->
<g id="edge18" class="edge"><title>Node8&#45;&gt;Node6</title>
<path fill="none" stroke="midnightblue" d="M734.651,-106.327C731.967,-92.3324 727.553,-73.6201 721,-58 715.436,-44.7377 706.436,-30.881 699.937,-21.6797"/>
<polygon fill="midnightblue" stroke="midnightblue" points="731.244,-107.158 736.441,-116.39 738.135,-105.932 731.244,-107.158"/>
</g>
<!-- Node8&#45;&gt;Node9 -->
<g id="edge20" class="edge"><title>Node8&#45;&gt;Node9</title>
<path fill="none" stroke="midnightblue" d="M685.192,-114.077C642.676,-103.672 583.667,-89.2306 543.999,-79.5231"/>
<polygon fill="midnightblue" stroke="midnightblue" points="684.536,-117.519 695.081,-116.497 686.2,-110.72 684.536,-117.519"/>
</g>
<!-- Node10&#45;&gt;Node2 -->
<g id="edge26" class="edge"><title>Node10&#45;&gt;Node2</title>
<path fill="none" stroke="midnightblue" d="M713.209,-289.283C649.674,-281.68 569.985,-270.142 500,-254 431.723,-238.252 353.982,-210.665 313.617,-195.583"/>
<polygon fill="midnightblue" stroke="midnightblue" points="712.921,-292.773 723.263,-290.469 713.742,-285.821 712.921,-292.773"/>
</g>
<!-- Node10&#45;&gt;Node4 -->
<g id="edge48" class="edge"><title>Node10&#45;&gt;Node4</title>
<path fill="none" stroke="midnightblue" d="M931.265,-288.817C973.685,-281.437 1016.15,-270.238 1029,-254 1071.05,-200.859 1032,-110.414 1016.61,-79.6256"/>
<polygon fill="midnightblue" stroke="midnightblue" points="930.652,-285.371 921.367,-290.473 931.807,-292.275 930.652,-285.371"/>
</g>
<!-- Node10&#45;&gt;Node6 -->
<g id="edge52" class="edge"><title>Node10&#45;&gt;Node6</title>
<path fill="none" stroke="midnightblue" d="M634.285,-291.283C399.753,-276.954 38,-245.108 38,-185 38,-185 38,-185 38,-127 38,-74.7484 365.834,-38.338 557.284,-21.5298"/>
<polygon fill="midnightblue" stroke="midnightblue" points="634.118,-294.779 644.311,-291.89 634.541,-287.792 634.118,-294.779"/>
</g>
<!-- Node10&#45;&gt;Node7 -->
<g id="edge54" class="edge"><title>Node10&#45;&gt;Node7</title>
<path fill="none" stroke="midnightblue" d="M1025.85,-293.767C1188.68,-283.349 1402.82,-257.941 1461,-196 1507.64,-146.345 1490.31,-52.866 1482.77,-21.5365"/>
<polygon fill="midnightblue" stroke="midnightblue" points="1025.45,-290.285 1015.69,-294.402 1025.89,-297.271 1025.45,-290.285"/>
</g>
<!-- Node10&#45;&gt;Node8 -->
<g id="edge50" class="edge"><title>Node10&#45;&gt;Node8</title>
<path fill="none" stroke="midnightblue" d="M731.769,-289.02C674.304,-280.724 608.23,-268.569 583,-254 553.527,-236.98 544.853,-227.903 533,-196 529.595,-186.834 526.907,-181.648 533,-174 547.078,-156.329 595.448,-144.76 641.668,-137.522"/>
<polygon fill="midnightblue" stroke="midnightblue" points="731.624,-292.534 742.016,-290.473 732.606,-285.604 731.624,-292.534"/>
</g>
<!-- Node10&#45;&gt;Node11 -->
<g id="edge28" class="edge"><title>Node10&#45;&gt;Node11</title>
<path fill="none" stroke="midnightblue" d="M903.405,-288.639C949.328,-280.289 1009.52,-268.214 1062,-254 1125.67,-236.754 1198.46,-210.132 1236.9,-195.51"/>
<polygon fill="midnightblue" stroke="midnightblue" points="902.757,-285.2 893.535,-290.417 903.997,-292.089 902.757,-285.2"/>
</g>
<!-- Node12 -->
<g id="node32" class="node"><title>Node12</title>
<a xlink:href="_power_state_sequence_8h.html" target="_top" xlink:title="/mnt/sshfs/imperialroot/homes/dk3810/workingcopies/disaggregate/src/PowerStateSequence.h">
<polygon fill="white" stroke="black" points="591.5,-232.5 591.5,-253.5 1020.5,-253.5 1020.5,-232.5 591.5,-232.5"/>
<text text-anchor="middle" x="806" y="-240.5" font-family="Helvetica,sans-Serif" font-size="10.00">/mnt/sshfs/imperialroot/homes/dk3810/workingcopies/disaggregate/src/PowerStateSequence.h</text>
</a>
</g>
<!-- Node10&#45;&gt;Node12 -->
<g id="edge40" class="edge"><title>Node10&#45;&gt;Node12</title>
<path fill="none" stroke="midnightblue" d="M821.757,-281.079C817.935,-271.842 813.547,-261.239 810.374,-253.571"/>
<polygon fill="midnightblue" stroke="midnightblue" points="818.54,-282.46 825.598,-290.362 825.009,-279.783 818.54,-282.46"/>
</g>
<!-- Node11&#45;&gt;Node4 -->
<g id="edge30" class="edge"><title>Node11&#45;&gt;Node4</title>
<path fill="none" stroke="midnightblue" d="M1231.54,-170.119C1179.6,-146.304 1079.07,-100.211 1033.93,-79.5117"/>
<polygon fill="midnightblue" stroke="midnightblue" points="1230.1,-173.309 1240.65,-174.295 1233.02,-166.946 1230.1,-173.309"/>
</g>
<!-- Node11&#45;&gt;Node5 -->
<g id="edge34" class="edge"><title>Node11&#45;&gt;Node5</title>
<path fill="none" stroke="midnightblue" d="M1265.81,-164.003C1266.99,-136.172 1264.7,-87.1899 1238,-58 1224.22,-42.9374 1176.56,-29.9934 1137.33,-21.5257"/>
<polygon fill="midnightblue" stroke="midnightblue" points="1262.3,-163.997 1265.17,-174.195 1269.29,-164.431 1262.3,-163.997"/>
</g>
<!-- Node11&#45;&gt;Node6 -->
<g id="edge36" class="edge"><title>Node11&#45;&gt;Node6</title>
<path fill="none" stroke="midnightblue" d="M1260.37,-164.273C1254.07,-135.17 1238.17,-82.9694 1202,-58 1187.32,-47.8646 990.582,-31.9637 845.839,-21.5107"/>
<polygon fill="midnightblue" stroke="midnightblue" points="1256.96,-165.061 1262.33,-174.19 1263.82,-163.701 1256.96,-165.061"/>
</g>
<!-- Node11&#45;&gt;Node7 -->
<g id="edge38" class="edge"><title>Node11&#45;&gt;Node7</title>
<path fill="none" stroke="midnightblue" d="M1285.24,-167.886C1329.49,-132.24 1430.44,-50.9245 1466.71,-21.7046"/>
<polygon fill="midnightblue" stroke="midnightblue" points="1282.78,-165.378 1277.19,-174.377 1287.17,-170.83 1282.78,-165.378"/>
</g>
<!-- Node11&#45;&gt;Node8 -->
<g id="edge32" class="edge"><title>Node11&#45;&gt;Node8</title>
<path fill="none" stroke="midnightblue" d="M1158.54,-173.371C1063.57,-162.899 925.186,-147.64 833.433,-137.523"/>
<polygon fill="midnightblue" stroke="midnightblue" points="1158.42,-176.879 1168.75,-174.497 1159.19,-169.922 1158.42,-176.879"/>
</g>
<!-- Node12&#45;&gt;Node4 -->
<g id="edge44" class="edge"><title>Node12&#45;&gt;Node4</title>
<path fill="none" stroke="midnightblue" d="M891.276,-230.608C932.956,-222.782 977.102,-211.248 991,-196 1021.07,-163.007 1016.36,-104.051 1012.86,-79.8364"/>
<polygon fill="midnightblue" stroke="midnightblue" points="890.528,-227.187 881.316,-232.419 891.78,-234.074 890.528,-227.187"/>
</g>
<!-- Node12&#45;&gt;Node11 -->
<g id="edge42" class="edge"><title>Node12&#45;&gt;Node11</title>
<path fill="none" stroke="midnightblue" d="M899.084,-231.212C981.741,-220.745 1101.42,-205.589 1180.9,-195.523"/>
<polygon fill="midnightblue" stroke="midnightblue" points="898.421,-227.768 888.94,-232.497 899.301,-234.712 898.421,-227.768"/>
</g>
<!-- Node13 -->
<g id="node36" class="node"><title>Node13</title>
<a xlink:href="_power_state_sequence_8cpp.html" target="_top" xlink:title="/mnt/sshfs/imperialroot/homes/dk3810/workingcopies/disaggregate/src/PowerStateSequence.cpp">
<polygon fill="white" stroke="black" points="542,-174.5 542,-195.5 982,-195.5 982,-174.5 542,-174.5"/>
<text text-anchor="middle" x="762" y="-182.5" font-family="Helvetica,sans-Serif" font-size="10.00">/mnt/sshfs/imperialroot/homes/dk3810/workingcopies/disaggregate/src/PowerStateSequence.cpp</text>
</a>
</g>
<!-- Node12&#45;&gt;Node13 -->
<g id="edge46" class="edge"><title>Node12&#45;&gt;Node13</title>
<path fill="none" stroke="midnightblue" d="M791.776,-224.25C784.569,-214.75 776.084,-203.565 770.019,-195.571"/>
<polygon fill="midnightblue" stroke="midnightblue" points="789.097,-226.51 797.93,-232.362 794.674,-222.28 789.097,-226.51"/>
</g>
<!-- Node14&#45;&gt;Node7 -->
<g id="edge64" class="edge"><title>Node14&#45;&gt;Node7</title>
<path fill="none" stroke="midnightblue" d="M1263.49,-347.75C1368.17,-339.873 1480.34,-327.906 1499,-312 1523.21,-291.366 1518,-274.808 1518,-243 1518,-243 1518,-243 1518,-127 1518,-95.7085 1514.32,-87.5402 1504,-58 1499.47,-45.0262 1492.01,-31.1199 1486.61,-21.8281"/>
<polygon fill="midnightblue" stroke="midnightblue" points="1263.1,-344.269 1253.38,-348.5 1263.61,-351.25 1263.1,-344.269"/>
</g>
<!-- Node14&#45;&gt;Node10 -->
<g id="edge58" class="edge"><title>Node14&#45;&gt;Node10</title>
<path fill="none" stroke="midnightblue" d="M1018.35,-346.142C974.92,-335.733 914.496,-321.251 873.907,-311.523"/>
<polygon fill="midnightblue" stroke="midnightblue" points="1017.64,-349.569 1028.18,-348.497 1019.27,-342.762 1017.64,-349.569"/>
</g>
<!-- Node14&#45;&gt;Node11 -->
<g id="edge60" class="edge"><title>Node14&#45;&gt;Node11</title>
<path fill="none" stroke="midnightblue" d="M1073.7,-337.965C1075.8,-323.283 1080.5,-303.904 1091,-290 1127.74,-241.362 1194.15,-210.423 1233.13,-195.532"/>
<polygon fill="midnightblue" stroke="midnightblue" points="1070.2,-337.777 1072.54,-348.108 1077.15,-338.568 1070.2,-337.777"/>
</g>
<!-- Node15 -->
<g id="node46" class="node"><title>Node15</title>
<a xlink:href="_histogram_8cpp.html" target="_top" xlink:title="/mnt/sshfs/imperialroot/homes/dk3810/workingcopies/disaggregate/src/Histogram.cpp">
<polygon fill="white" stroke="black" points="1100,-290.5 1100,-311.5 1490,-311.5 1490,-290.5 1100,-290.5"/>
<text text-anchor="middle" x="1295" y="-298.5" font-family="Helvetica,sans-Serif" font-size="10.00">/mnt/sshfs/imperialroot/homes/dk3810/workingcopies/disaggregate/src/Histogram.cpp</text>
</a>
</g>
<!-- Node14&#45;&gt;Node15 -->
<g id="edge62" class="edge"><title>Node14&#45;&gt;Node15</title>
<path fill="none" stroke="midnightblue" d="M1122.2,-345.945C1162.16,-335.55 1217.37,-321.19 1254.54,-311.523"/>
<polygon fill="midnightblue" stroke="midnightblue" points="1121.18,-342.592 1112.38,-348.497 1122.94,-349.367 1121.18,-342.592"/>
</g>
</g>
</svg>
