<?xml version="1.0" encoding="UTF-8" standalone="no"?>
<!DOCTYPE svg PUBLIC "-//W3C//DTD SVG 1.1//EN"
 "http://www.w3.org/Graphics/SVG/1.1/DTD/svg11.dtd">
<!-- Generated by graphviz version 2.26.3 (20100126.1600)
 -->
<!-- Title: G Pages: 1 -->
<svg width="436pt" height="204pt"
 viewBox="0.00 0.00 436.00 204.00" xmlns="http://www.w3.org/2000/svg" xmlns:xlink="http://www.w3.org/1999/xlink">
<g id="graph1" class="graph" transform="scale(1 1) rotate(0) translate(4 200)">
<title>G</title>
<polygon fill="white" stroke="white" points="-4,5 -4,-200 433,-200 433,5 -4,5"/>
<!-- Node1 -->
<g id="node1" class="node"><title>Node1</title>
<polygon fill="#bfbfbf" stroke="black" points="0,-174.5 0,-195.5 358,-195.5 358,-174.5 0,-174.5"/>
<text text-anchor="middle" x="179" y="-182.5" font-family="Helvetica,sans-Serif" font-size="10.00">/mnt/sshfs/imperialroot/homes/dk3810/workingcopies/disaggregate/src/Array.h</text>
</g>
<!-- Node2 -->
<g id="node3" class="node"><title>Node2</title>
<a xlink:href="_common_8h.html" target="_top" xlink:title="Common.h">
<polygon fill="white" stroke="black" points="41.5,-58.5 41.5,-79.5 106.5,-79.5 106.5,-58.5 41.5,-58.5"/>
<text text-anchor="middle" x="74" y="-66.5" font-family="Helvetica,sans-Serif" font-size="10.00">Common.h</text>
</a>
</g>
<!-- Node1&#45;&gt;Node2 -->
<g id="edge2" class="edge"><title>Node1&#45;&gt;Node2</title>
<path fill="none" stroke="midnightblue" d="M169.31,-174.295C151.339,-154.441 112.659,-111.709 90.4958,-87.2239"/>
<polygon fill="midnightblue" stroke="midnightblue" points="92.9722,-84.7443 83.6665,-79.6792 87.7825,-89.4419 92.9722,-84.7443"/>
</g>
<!-- Node5 -->
<g id="node9" class="node"><title>Node5</title>
<polygon fill="white" stroke="#bfbfbf" points="-0.5,-0.5 -0.5,-21.5 28.5,-21.5 28.5,-0.5 -0.5,-0.5"/>
<text text-anchor="middle" x="14" y="-8.5" font-family="Helvetica,sans-Serif" font-size="10.00">list</text>
</g>
<!-- Node1&#45;&gt;Node5 -->
<g id="edge32" class="edge"><title>Node1&#45;&gt;Node5</title>
<path fill="none" stroke="midnightblue" d="M115.329,-174.454C75.4377,-166.419 29.3253,-154.012 17,-138 -6.64736,-107.279 0.765543,-58.8687 7.73323,-31.546"/>
<polygon fill="midnightblue" stroke="midnightblue" points="11.2043,-32.1267 10.5055,-21.555 4.45912,-30.2551 11.2043,-32.1267"/>
</g>
<!-- Node6 -->
<g id="node11" class="node"><title>Node6</title>
<a xlink:href="_utils_8h.html" target="_top" xlink:title="Utils.h">
<polygon fill="white" stroke="black" points="181.5,-116.5 181.5,-137.5 226.5,-137.5 226.5,-116.5 181.5,-116.5"/>
<text text-anchor="middle" x="204" y="-124.5" font-family="Helvetica,sans-Serif" font-size="10.00">Utils.h</text>
</a>
</g>
<!-- Node1&#45;&gt;Node6 -->
<g id="edge10" class="edge"><title>Node1&#45;&gt;Node6</title>
<path fill="none" stroke="midnightblue" d="M183.585,-174.362C186.898,-166.677 191.47,-156.069 195.448,-146.84"/>
<polygon fill="midnightblue" stroke="midnightblue" points="198.699,-148.139 199.444,-137.571 192.271,-145.368 198.699,-148.139"/>
</g>
<!-- Node7 -->
<g id="node14" class="node"><title>Node7</title>
<polygon fill="white" stroke="#bfbfbf" points="162,-58.5 162,-79.5 212,-79.5 212,-58.5 162,-58.5"/>
<text text-anchor="middle" x="187" y="-66.5" font-family="Helvetica,sans-Serif" font-size="10.00">fstream</text>
</g>
<!-- Node1&#45;&gt;Node7 -->
<g id="edge26" class="edge"><title>Node1&#45;&gt;Node7</title>
<path fill="none" stroke="midnightblue" d="M176.522,-174.199C173.751,-160.578 170.017,-136.466 173,-116 174.313,-106.996 176.969,-97.3181 179.619,-89.0986"/>
<polygon fill="midnightblue" stroke="midnightblue" points="182.934,-90.2223 182.87,-79.6276 176.313,-87.9496 182.934,-90.2223"/>
</g>
<!-- Node8 -->
<g id="node16" class="node"><title>Node8</title>
<a xlink:href="_g_n_uplot_8h.html" target="_top" xlink:title="GNUplot.h">
<polygon fill="white" stroke="black" points="25.5,-116.5 25.5,-137.5 88.5,-137.5 88.5,-116.5 25.5,-116.5"/>
<text text-anchor="middle" x="57" y="-124.5" font-family="Helvetica,sans-Serif" font-size="10.00">GNUplot.h</text>
</a>
</g>
<!-- Node1&#45;&gt;Node8 -->
<g id="edge16" class="edge"><title>Node1&#45;&gt;Node8</title>
<path fill="none" stroke="midnightblue" d="M156.907,-174.497C137.766,-165.397 109.854,-152.127 88.3947,-141.925"/>
<polygon fill="midnightblue" stroke="midnightblue" points="89.8753,-138.754 79.3412,-137.621 86.8698,-145.076 89.8753,-138.754"/>
</g>
<!-- Node9 -->
<g id="node21" class="node"><title>Node9</title>
<polygon fill="white" stroke="#bfbfbf" points="244,-116.5 244,-137.5 298,-137.5 298,-116.5 244,-116.5"/>
<text text-anchor="middle" x="271" y="-124.5" font-family="Helvetica,sans-Serif" font-size="10.00">iostream</text>
</g>
<!-- Node1&#45;&gt;Node9 -->
<g id="edge24" class="edge"><title>Node1&#45;&gt;Node9</title>
<path fill="none" stroke="midnightblue" d="M195.874,-174.362C209.751,-165.614 229.634,-153.079 245.46,-143.101"/>
<polygon fill="midnightblue" stroke="midnightblue" points="247.64,-145.864 254.233,-137.571 243.907,-139.943 247.64,-145.864"/>
</g>
<!-- Node10 -->
<g id="node24" class="node"><title>Node10</title>
<polygon fill="white" stroke="#bfbfbf" points="316,-116.5 316,-137.5 362,-137.5 362,-116.5 316,-116.5"/>
<text text-anchor="middle" x="339" y="-124.5" font-family="Helvetica,sans-Serif" font-size="10.00">cstdint</text>
</g>
<!-- Node1&#45;&gt;Node10 -->
<g id="edge28" class="edge"><title>Node1&#45;&gt;Node10</title>
<path fill="none" stroke="midnightblue" d="M207.975,-174.497C235.686,-164.451 277.416,-149.324 306.304,-138.852"/>
<polygon fill="midnightblue" stroke="midnightblue" points="307.734,-142.057 315.943,-135.358 305.349,-135.476 307.734,-142.057"/>
</g>
<!-- Node11 -->
<g id="node26" class="node"><title>Node11</title>
<polygon fill="white" stroke="#bfbfbf" points="379.5,-116.5 379.5,-137.5 428.5,-137.5 428.5,-116.5 379.5,-116.5"/>
<text text-anchor="middle" x="404" y="-124.5" font-family="Helvetica,sans-Serif" font-size="10.00">cassert</text>
</g>
<!-- Node1&#45;&gt;Node11 -->
<g id="edge30" class="edge"><title>Node1&#45;&gt;Node11</title>
<path fill="none" stroke="midnightblue" d="M226.628,-174.481C263.443,-166.093 315.851,-153.596 369.524,-138.294"/>
<polygon fill="midnightblue" stroke="midnightblue" points="370.56,-141.638 379.202,-135.507 368.624,-134.911 370.56,-141.638"/>
</g>
<!-- Node3 -->
<g id="node5" class="node"><title>Node3</title>
<polygon fill="white" stroke="#bfbfbf" points="48.5,-0.5 48.5,-21.5 97.5,-21.5 97.5,-0.5 48.5,-0.5"/>
<text text-anchor="middle" x="73" y="-8.5" font-family="Helvetica,sans-Serif" font-size="10.00">cstddef</text>
</g>
<!-- Node2&#45;&gt;Node3 -->
<g id="edge4" class="edge"><title>Node2&#45;&gt;Node3</title>
<path fill="none" stroke="midnightblue" d="M73.8166,-58.3619C73.6883,-50.9219 73.5128,-40.7427 73.3574,-31.7276"/>
<polygon fill="midnightblue" stroke="midnightblue" points="76.8542,-31.5088 73.1823,-21.5707 69.8553,-31.6295 76.8542,-31.5088"/>
</g>
<!-- Node4 -->
<g id="node7" class="node"><title>Node4</title>
<polygon fill="white" stroke="#bfbfbf" points="114.5,-0.5 114.5,-21.5 155.5,-21.5 155.5,-0.5 114.5,-0.5"/>
<text text-anchor="middle" x="135" y="-8.5" font-family="Helvetica,sans-Serif" font-size="10.00">string</text>
</g>
<!-- Node2&#45;&gt;Node4 -->
<g id="edge6" class="edge"><title>Node2&#45;&gt;Node4</title>
<path fill="none" stroke="midnightblue" d="M85.1883,-58.3619C93.959,-50.0226 106.349,-38.2418 116.578,-28.5162"/>
<polygon fill="midnightblue" stroke="midnightblue" points="119.047,-30.9978 123.883,-21.5707 114.224,-25.9248 119.047,-30.9978"/>
</g>
<!-- Node2&#45;&gt;Node5 -->
<g id="edge8" class="edge"><title>Node2&#45;&gt;Node5</title>
<path fill="none" stroke="midnightblue" d="M62.9951,-58.3619C54.4527,-50.1043 42.4198,-38.4725 32.4168,-28.8029"/>
<polygon fill="midnightblue" stroke="midnightblue" points="34.5577,-26.0044 24.9352,-21.5707 29.6925,-31.0374 34.5577,-26.0044"/>
</g>
<!-- Node6&#45;&gt;Node4 -->
<g id="edge12" class="edge"><title>Node6&#45;&gt;Node4</title>
<path fill="none" stroke="midnightblue" d="M211.188,-116.468C219.888,-102.286 232.077,-76.6762 221,-58 209.026,-37.8112 184.984,-25.7327 165.357,-18.8862"/>
<polygon fill="midnightblue" stroke="midnightblue" points="166.174,-15.473 155.583,-15.7676 164.046,-22.1418 166.174,-15.473"/>
</g>
<!-- Node6&#45;&gt;Node7 -->
<g id="edge14" class="edge"><title>Node6&#45;&gt;Node7</title>
<path fill="none" stroke="midnightblue" d="M200.882,-116.362C198.677,-108.84 195.652,-98.5187 192.988,-89.4308"/>
<polygon fill="midnightblue" stroke="midnightblue" points="196.27,-88.1825 190.098,-79.5707 189.552,-90.1514 196.27,-88.1825"/>
</g>
<!-- Node8&#45;&gt;Node2 -->
<g id="edge22" class="edge"><title>Node8&#45;&gt;Node2</title>
<path fill="none" stroke="midnightblue" d="M60.1181,-116.362C62.3227,-108.84 65.348,-98.5187 68.0117,-89.4308"/>
<polygon fill="midnightblue" stroke="midnightblue" points="71.4476,-90.1514 70.9017,-79.5707 64.7302,-88.1825 71.4476,-90.1514"/>
</g>
<!-- Node8&#45;&gt;Node4 -->
<g id="edge18" class="edge"><title>Node8&#45;&gt;Node4</title>
<path fill="none" stroke="midnightblue" d="M75.2066,-116.462C88.0906,-108.118 104.823,-95.3339 115,-80 124.673,-65.4256 129.75,-46.1107 132.364,-31.6238"/>
<polygon fill="midnightblue" stroke="midnightblue" points="135.837,-32.0647 133.918,-21.6452 128.921,-30.9876 135.837,-32.0647"/>
</g>
<!-- Node8&#45;&gt;Node5 -->
<g id="edge20" class="edge"><title>Node8&#45;&gt;Node5</title>
<path fill="none" stroke="midnightblue" d="M50.8315,-116.459C45.557,-107.117 38.0413,-92.9817 33,-80 26.8956,-64.2806 21.9235,-45.8353 18.5989,-31.9726"/>
<polygon fill="midnightblue" stroke="midnightblue" points="21.9518,-30.9357 16.2957,-21.977 15.1305,-32.5075 21.9518,-30.9357"/>
</g>
</g>
</svg>
