<?xml version="1.0" encoding="UTF-8" standalone="no"?>
<!DOCTYPE svg PUBLIC "-//W3C//DTD SVG 1.1//EN"
 "http://www.w3.org/Graphics/SVG/1.1/DTD/svg11.dtd">
<!-- Generated by graphviz version 2.26.3 (20100126.1600)
 -->
<!-- Title: G Pages: 1 -->
<svg width="2226pt" height="552pt"
 viewBox="0.00 0.00 2226.00 552.00" xmlns="http://www.w3.org/2000/svg" xmlns:xlink="http://www.w3.org/1999/xlink">
<g id="graph1" class="graph" transform="scale(1 1) rotate(0) translate(4 548)">
<title>G</title>
<polygon fill="white" stroke="white" points="-4,5 -4,-548 2223,-548 2223,5 -4,5"/>
<!-- Node1 -->
<g id="node1" class="node"><title>Node1</title>
<polygon fill="#bfbfbf" stroke="black" points="1172,-522.5 1172,-543.5 1546,-543.5 1546,-522.5 1172,-522.5"/>
<text text-anchor="middle" x="1359" y="-530.5" font-family="Helvetica,sans-Serif" font-size="10.00">/mnt/sshfs/imperialroot/homes/dk3810/workingcopies/disaggregate/src/Common.h</text>
</g>
<!-- Node2 -->
<g id="node3" class="node"><title>Node2</title>
<a xlink:href="_array_8h.html" target="_top" xlink:title="/mnt/sshfs/imperialroot/homes/dk3810/workingcopies/disaggregate/src/Array.h">
<polygon fill="white" stroke="black" points="573,-406.5 573,-427.5 931,-427.5 931,-406.5 573,-406.5"/>
<text text-anchor="middle" x="752" y="-414.5" font-family="Helvetica,sans-Serif" font-size="10.00">/mnt/sshfs/imperialroot/homes/dk3810/workingcopies/disaggregate/src/Array.h</text>
</a>
</g>
<!-- Node1&#45;&gt;Node2 -->
<g id="edge2" class="edge"><title>Node1&#45;&gt;Node2</title>
<path fill="none" stroke="midnightblue" d="M1203.46,-521.648C1096.9,-512.917 965.523,-500.007 912,-486 859.03,-472.138 800.98,-443.385 771.513,-427.727"/>
<polygon fill="midnightblue" stroke="midnightblue" points="1203.44,-525.158 1213.69,-522.48 1204.01,-518.181 1203.44,-525.158"/>
</g>
<!-- Node6 -->
<g id="node11" class="node"><title>Node6</title>
<a xlink:href="_device_8cpp.html" target="_top" xlink:title="/mnt/sshfs/imperialroot/homes/dk3810/workingcopies/disaggregate/src/Device.cpp">
<polygon fill="white" stroke="black" points="1166,-0.5 1166,-21.5 1542,-21.5 1542,-0.5 1166,-0.5"/>
<text text-anchor="middle" x="1354" y="-8.5" font-family="Helvetica,sans-Serif" font-size="10.00">/mnt/sshfs/imperialroot/homes/dk3810/workingcopies/disaggregate/src/Device.cpp</text>
</a>
</g>
<!-- Node1&#45;&gt;Node6 -->
<g id="edge86" class="edge"><title>Node1&#45;&gt;Node6</title>
<path fill="none" stroke="midnightblue" d="M1503.31,-521.382C1627.9,-507.24 1788,-477.33 1788,-417 1788,-417 1788,-417 1788,-243 1788,-94.6598 1588.37,-40.8182 1459.89,-21.5275"/>
<polygon fill="midnightblue" stroke="midnightblue" points="1502.82,-517.914 1493.27,-522.496 1503.59,-524.872 1502.82,-517.914"/>
</g>
<!-- Node7 -->
<g id="node13" class="node"><title>Node7</title>
<a xlink:href="_main_8cpp.html" target="_top" xlink:title="/mnt/sshfs/imperialroot/homes/dk3810/workingcopies/disaggregate/src/Main.cpp">
<polygon fill="white" stroke="black" points="686,-0.5 686,-21.5 1052,-21.5 1052,-0.5 686,-0.5"/>
<text text-anchor="middle" x="869" y="-8.5" font-family="Helvetica,sans-Serif" font-size="10.00">/mnt/sshfs/imperialroot/homes/dk3810/workingcopies/disaggregate/src/Main.cpp</text>
</a>
</g>
<!-- Node1&#45;&gt;Node7 -->
<g id="edge90" class="edge"><title>Node1&#45;&gt;Node7</title>
<path fill="none" stroke="midnightblue" d="M1161.91,-528.862C899.898,-522.581 450.976,-508.884 288,-486 157.656,-467.698 0,-548.622 0,-417 0,-417 0,-417 0,-127 0,-85.4736 25.5095,-75.8579 63,-58 117.612,-31.9865 465.063,-19.6846 685.588,-14.4308"/>
<polygon fill="midnightblue" stroke="midnightblue" points="1161.84,-532.362 1171.92,-529.101 1162.01,-525.364 1161.84,-532.362"/>
</g>
<!-- Node8 -->
<g id="node15" class="node"><title>Node8</title>
<a xlink:href="_signature_8cpp.html" target="_top" xlink:title="/mnt/sshfs/imperialroot/homes/dk3810/workingcopies/disaggregate/src/Signature.cpp">
<polygon fill="white" stroke="black" points="1560,-0.5 1560,-21.5 1946,-21.5 1946,-0.5 1560,-0.5"/>
<text text-anchor="middle" x="1753" y="-8.5" font-family="Helvetica,sans-Serif" font-size="10.00">/mnt/sshfs/imperialroot/homes/dk3810/workingcopies/disaggregate/src/Signature.cpp</text>
</a>
</g>
<!-- Node1&#45;&gt;Node8 -->
<g id="edge92" class="edge"><title>Node1&#45;&gt;Node8</title>
<path fill="none" stroke="midnightblue" d="M1538.49,-521.463C1670.13,-507.89 1826,-478.777 1826,-417 1826,-417 1826,-417 1826,-127 1826,-82.2657 1786.63,-40.6753 1765.72,-21.7367"/>
<polygon fill="midnightblue" stroke="midnightblue" points="1537.86,-518.009 1528.26,-522.492 1538.56,-524.974 1537.86,-518.009"/>
</g>
<!-- Node9 -->
<g id="node17" class="node"><title>Node9</title>
<a xlink:href="_power_state_graph_8h.html" target="_top" xlink:title="/mnt/sshfs/imperialroot/homes/dk3810/workingcopies/disaggregate/src/PowerStateGraph.h">
<polygon fill="white" stroke="black" points="532,-116.5 532,-137.5 944,-137.5 944,-116.5 532,-116.5"/>
<text text-anchor="middle" x="738" y="-124.5" font-family="Helvetica,sans-Serif" font-size="10.00">/mnt/sshfs/imperialroot/homes/dk3810/workingcopies/disaggregate/src/PowerStateGraph.h</text>
</a>
</g>
<!-- Node1&#45;&gt;Node9 -->
<g id="edge84" class="edge"><title>Node1&#45;&gt;Node9</title>
<path fill="none" stroke="midnightblue" d="M1161.75,-525.08C801.992,-509.317 76,-470.836 76,-417 76,-417 76,-417 76,-243 76,-151.068 181.287,-194.08 271,-174 330.887,-160.595 481.972,-146.694 596.205,-137.521"/>
<polygon fill="midnightblue" stroke="midnightblue" points="1161.61,-528.578 1171.75,-525.517 1161.92,-521.584 1161.61,-528.578"/>
</g>
<!-- Node11 -->
<g id="node24" class="node"><title>Node11</title>
<a xlink:href="_statistic_8h.html" target="_top" xlink:title="/mnt/sshfs/imperialroot/homes/dk3810/workingcopies/disaggregate/src/Statistic.h">
<polygon fill="white" stroke="black" points="668.5,-290.5 668.5,-311.5 1039.5,-311.5 1039.5,-290.5 668.5,-290.5"/>
<text text-anchor="middle" x="854" y="-298.5" font-family="Helvetica,sans-Serif" font-size="10.00">/mnt/sshfs/imperialroot/homes/dk3810/workingcopies/disaggregate/src/Statistic.h</text>
</a>
</g>
<!-- Node1&#45;&gt;Node11 -->
<g id="edge78" class="edge"><title>Node1&#45;&gt;Node11</title>
<path fill="none" stroke="midnightblue" d="M1362.42,-512.244C1365.75,-484.286 1366.94,-434.73 1340,-406 1291.1,-353.854 1102.05,-325.232 974.661,-311.522"/>
<polygon fill="midnightblue" stroke="midnightblue" points="1358.91,-512.071 1360.99,-522.459 1365.84,-513.04 1358.91,-512.071"/>
</g>
<!-- Node12 -->
<g id="node27" class="node"><title>Node12</title>
<a xlink:href="_signature_8h.html" target="_top" xlink:title="/mnt/sshfs/imperialroot/homes/dk3810/workingcopies/disaggregate/src/Signature.h">
<polygon fill="white" stroke="black" points="1308,-174.5 1308,-195.5 1684,-195.5 1684,-174.5 1308,-174.5"/>
<text text-anchor="middle" x="1496" y="-182.5" font-family="Helvetica,sans-Serif" font-size="10.00">/mnt/sshfs/imperialroot/homes/dk3810/workingcopies/disaggregate/src/Signature.h</text>
</a>
</g>
<!-- Node1&#45;&gt;Node12 -->
<g id="edge82" class="edge"><title>Node1&#45;&gt;Node12</title>
<path fill="none" stroke="midnightblue" d="M1475.03,-521.211C1590.3,-506.188 1750,-474.922 1750,-417 1750,-417 1750,-417 1750,-359 1750,-261.183 1620.21,-214.299 1546.18,-195.515"/>
<polygon fill="midnightblue" stroke="midnightblue" points="1474.54,-517.745 1465.07,-522.484 1475.43,-524.688 1474.54,-517.745"/>
</g>
<!-- Node15 -->
<g id="node44" class="node"><title>Node15</title>
<a xlink:href="_histogram_8h.html" target="_top" xlink:title="/mnt/sshfs/imperialroot/homes/dk3810/workingcopies/disaggregate/src/Histogram.h">
<polygon fill="white" stroke="black" points="1342,-348.5 1342,-369.5 1722,-369.5 1722,-348.5 1342,-348.5"/>
<text text-anchor="middle" x="1532" y="-356.5" font-family="Helvetica,sans-Serif" font-size="10.00">/mnt/sshfs/imperialroot/homes/dk3810/workingcopies/disaggregate/src/Histogram.h</text>
</a>
</g>
<!-- Node1&#45;&gt;Node15 -->
<g id="edge80" class="edge"><title>Node1&#45;&gt;Node15</title>
<path fill="none" stroke="midnightblue" d="M1376.89,-515.005C1412.68,-479.01 1492.13,-399.096 1521.14,-369.928"/>
<polygon fill="midnightblue" stroke="midnightblue" points="1374.13,-512.818 1369.56,-522.377 1379.09,-517.754 1374.13,-512.818"/>
</g>
<!-- Node17 -->
<g id="node53" class="node"><title>Node17</title>
<a xlink:href="_g_n_uplot_8h.html" target="_top" xlink:title="/mnt/sshfs/imperialroot/homes/dk3810/workingcopies/disaggregate/src/GNUplot.h">
<polygon fill="white" stroke="black" points="920.5,-464.5 920.5,-485.5 1293.5,-485.5 1293.5,-464.5 920.5,-464.5"/>
<text text-anchor="middle" x="1107" y="-472.5" font-family="Helvetica,sans-Serif" font-size="10.00">/mnt/sshfs/imperialroot/homes/dk3810/workingcopies/disaggregate/src/GNUplot.h</text>
</a>
</g>
<!-- Node1&#45;&gt;Node17 -->
<g id="edge72" class="edge"><title>Node1&#45;&gt;Node17</title>
<path fill="none" stroke="midnightblue" d="M1303.42,-520.208C1258.17,-509.794 1195.08,-495.272 1152.72,-485.523"/>
<polygon fill="midnightblue" stroke="midnightblue" points="1302.83,-523.664 1313.36,-522.497 1304.4,-516.843 1302.83,-523.664"/>
</g>
<!-- Node18 -->
<g id="node56" class="node"><title>Node18</title>
<a xlink:href="_g_n_uplot_8cpp.html" target="_top" xlink:title="/mnt/sshfs/imperialroot/homes/dk3810/workingcopies/disaggregate/src/GNUplot.cpp">
<polygon fill="white" stroke="black" points="948.5,-406.5 948.5,-427.5 1331.5,-427.5 1331.5,-406.5 948.5,-406.5"/>
<text text-anchor="middle" x="1140" y="-414.5" font-family="Helvetica,sans-Serif" font-size="10.00">/mnt/sshfs/imperialroot/homes/dk3810/workingcopies/disaggregate/src/GNUplot.cpp</text>
</a>
</g>
<!-- Node1&#45;&gt;Node18 -->
<g id="edge88" class="edge"><title>Node1&#45;&gt;Node18</title>
<path fill="none" stroke="midnightblue" d="M1347.6,-513.597C1337.5,-498.02 1321.36,-476.719 1302,-464 1274.22,-445.747 1239.23,-434.44 1208.88,-427.509"/>
<polygon fill="midnightblue" stroke="midnightblue" points="1344.84,-515.782 1353.09,-522.428 1350.79,-512.087 1344.84,-515.782"/>
</g>
<!-- Node19 -->
<g id="node66" class="node"><title>Node19</title>
<a xlink:href="_utils_8cpp.html" target="_top" xlink:title="/mnt/sshfs/imperialroot/homes/dk3810/workingcopies/disaggregate/src/Utils.cpp">
<polygon fill="white" stroke="black" points="1853.5,-464.5 1853.5,-485.5 2218.5,-485.5 2218.5,-464.5 1853.5,-464.5"/>
<text text-anchor="middle" x="2036" y="-472.5" font-family="Helvetica,sans-Serif" font-size="10.00">/mnt/sshfs/imperialroot/homes/dk3810/workingcopies/disaggregate/src/Utils.cpp</text>
</a>
</g>
<!-- Node1&#45;&gt;Node19 -->
<g id="edge94" class="edge"><title>Node1&#45;&gt;Node19</title>
<path fill="none" stroke="midnightblue" d="M1491.78,-521.625C1614.08,-511.146 1794.12,-495.722 1913.17,-485.523"/>
<polygon fill="midnightblue" stroke="midnightblue" points="1491.26,-518.156 1481.6,-522.497 1491.86,-525.13 1491.26,-518.156"/>
</g>
<!-- Node3 -->
<g id="node5" class="node"><title>Node3</title>
<a xlink:href="_aggregate_data_8h.html" target="_top" xlink:title="/mnt/sshfs/imperialroot/homes/dk3810/workingcopies/disaggregate/src/AggregateData.h">
<polygon fill="white" stroke="black" points="280,-174.5 280,-195.5 680,-195.5 680,-174.5 280,-174.5"/>
<text text-anchor="middle" x="480" y="-182.5" font-family="Helvetica,sans-Serif" font-size="10.00">/mnt/sshfs/imperialroot/homes/dk3810/workingcopies/disaggregate/src/AggregateData.h</text>
</a>
</g>
<!-- Node2&#45;&gt;Node3 -->
<g id="edge4" class="edge"><title>Node2&#45;&gt;Node3</title>
<path fill="none" stroke="midnightblue" d="M731.873,-399.832C678.696,-354.476 535.591,-232.416 492.467,-195.634"/>
<polygon fill="midnightblue" stroke="midnightblue" points="729.726,-402.602 739.606,-406.429 734.269,-397.276 729.726,-402.602"/>
</g>
<!-- Node2&#45;&gt;Node7 -->
<g id="edge70" class="edge"><title>Node2&#45;&gt;Node7</title>
<path fill="none" stroke="midnightblue" d="M562.755,-407.879C351.226,-392.38 38,-351.167 38,-243 38,-243 38,-243 38,-127 38,-63.9312 101.512,-75.8582 162,-58 256.531,-30.0909 509.749,-18.7059 685.944,-14.0937"/>
<polygon fill="midnightblue" stroke="midnightblue" points="562.524,-411.372 572.749,-408.598 563.026,-404.39 562.524,-411.372"/>
</g>
<!-- Node2&#45;&gt;Node11 -->
<g id="edge26" class="edge"><title>Node2&#45;&gt;Node11</title>
<path fill="none" stroke="midnightblue" d="M768.053,-398.744C789.596,-374.243 827.169,-331.513 844.61,-311.679"/>
<polygon fill="midnightblue" stroke="midnightblue" points="765.388,-396.474 761.413,-406.295 770.645,-401.096 765.388,-396.474"/>
</g>
<!-- Node2&#45;&gt;Node12 -->
<g id="edge68" class="edge"><title>Node2&#45;&gt;Node12</title>
<path fill="none" stroke="midnightblue" d="M797.028,-403.491C888.792,-375.899 1103.99,-310.866 1284,-254 1348.04,-233.771 1422.65,-209.268 1464.09,-195.577"/>
<polygon fill="midnightblue" stroke="midnightblue" points="795.806,-400.204 787.237,-406.434 797.821,-406.908 795.806,-400.204"/>
</g>
<!-- Node2&#45;&gt;Node15 -->
<g id="edge58" class="edge"><title>Node2&#45;&gt;Node15</title>
<path fill="none" stroke="midnightblue" d="M903.281,-405.751C1044.23,-395.27 1252.77,-379.763 1390.48,-369.523"/>
<polygon fill="midnightblue" stroke="midnightblue" points="902.965,-402.265 893.252,-406.497 903.484,-409.245 902.965,-402.265"/>
</g>
<!-- Node4 -->
<g id="node7" class="node"><title>Node4</title>
<a xlink:href="_aggregate_data_8cpp.html" target="_top" xlink:title="/mnt/sshfs/imperialroot/homes/dk3810/workingcopies/disaggregate/src/AggregateData.cpp">
<polygon fill="white" stroke="black" points="104,-116.5 104,-137.5 514,-137.5 514,-116.5 104,-116.5"/>
<text text-anchor="middle" x="309" y="-124.5" font-family="Helvetica,sans-Serif" font-size="10.00">/mnt/sshfs/imperialroot/homes/dk3810/workingcopies/disaggregate/src/AggregateData.cpp</text>
</a>
</g>
<!-- Node3&#45;&gt;Node4 -->
<g id="edge6" class="edge"><title>Node3&#45;&gt;Node4</title>
<path fill="none" stroke="midnightblue" d="M439.546,-171.279C409.075,-160.944 367.921,-146.985 340.025,-137.523"/>
<polygon fill="midnightblue" stroke="midnightblue" points="438.439,-174.599 449.033,-174.497 440.687,-167.97 438.439,-174.599"/>
</g>
<!-- Node5 -->
<g id="node9" class="node"><title>Node5</title>
<a xlink:href="_device_8h.html" target="_top" xlink:title="/mnt/sshfs/imperialroot/homes/dk3810/workingcopies/disaggregate/src/Device.h">
<polygon fill="white" stroke="black" points="1024.5,-58.5 1024.5,-79.5 1389.5,-79.5 1389.5,-58.5 1024.5,-58.5"/>
<text text-anchor="middle" x="1207" y="-66.5" font-family="Helvetica,sans-Serif" font-size="10.00">/mnt/sshfs/imperialroot/homes/dk3810/workingcopies/disaggregate/src/Device.h</text>
</a>
</g>
<!-- Node3&#45;&gt;Node5 -->
<g id="edge8" class="edge"><title>Node3&#45;&gt;Node5</title>
<path fill="none" stroke="midnightblue" d="M666.223,-173.679C753.742,-166.527 859.225,-155.272 953,-138 953.169,-137.969 1097.08,-98.8683 1168.18,-79.549"/>
<polygon fill="midnightblue" stroke="midnightblue" points="665.873,-170.196 656.186,-174.487 666.435,-177.173 665.873,-170.196"/>
</g>
<!-- Node3&#45;&gt;Node9 -->
<g id="edge16" class="edge"><title>Node3&#45;&gt;Node9</title>
<path fill="none" stroke="midnightblue" d="M536.61,-172.274C582.956,-161.855 647.735,-147.292 691.191,-137.523"/>
<polygon fill="midnightblue" stroke="midnightblue" points="535.711,-168.888 526.722,-174.497 537.246,-175.718 535.711,-168.888"/>
</g>
<!-- Node10 -->
<g id="node21" class="node"><title>Node10</title>
<a xlink:href="_power_state_graph_8cpp.html" target="_top" xlink:title="/mnt/sshfs/imperialroot/homes/dk3810/workingcopies/disaggregate/src/PowerStateGraph.cpp">
<polygon fill="white" stroke="black" points="171,-58.5 171,-79.5 593,-79.5 593,-58.5 171,-58.5"/>
<text text-anchor="middle" x="382" y="-66.5" font-family="Helvetica,sans-Serif" font-size="10.00">/mnt/sshfs/imperialroot/homes/dk3810/workingcopies/disaggregate/src/PowerStateGraph.cpp</text>
</a>
</g>
<!-- Node3&#45;&gt;Node10 -->
<g id="edge24" class="edge"><title>Node3&#45;&gt;Node10</title>
<path fill="none" stroke="midnightblue" d="M298.917,-173.659C206.022,-165.943 109.32,-154.174 95,-138 88.5185,-130.679 88.6694,-123.452 95,-116 107.054,-101.811 200.495,-88.3698 277.534,-79.5251"/>
<polygon fill="midnightblue" stroke="midnightblue" points="298.8,-177.161 309.052,-174.486 299.37,-170.184 298.8,-177.161"/>
</g>
<!-- Node5&#45;&gt;Node6 -->
<g id="edge10" class="edge"><title>Node5&#45;&gt;Node6</title>
<path fill="none" stroke="midnightblue" d="M1243.11,-54.7509C1269.07,-44.5086 1303.51,-30.9206 1327.08,-21.6212"/>
<polygon fill="midnightblue" stroke="midnightblue" points="1241.64,-51.5706 1233.62,-58.4966 1244.21,-58.0821 1241.64,-51.5706"/>
</g>
<!-- Node5&#45;&gt;Node7 -->
<g id="edge12" class="edge"><title>Node5&#45;&gt;Node7</title>
<path fill="none" stroke="midnightblue" d="M1135.87,-56.7943C1074.97,-46.3447 988.209,-31.4559 930.324,-21.5231"/>
<polygon fill="midnightblue" stroke="midnightblue" points="1135.34,-60.2549 1145.79,-58.4966 1136.53,-53.3557 1135.34,-60.2549"/>
</g>
<!-- Node5&#45;&gt;Node8 -->
<g id="edge14" class="edge"><title>Node5&#45;&gt;Node8</title>
<path fill="none" stroke="midnightblue" d="M1315.87,-57.435C1414.47,-46.9607 1558.5,-31.6607 1653.94,-21.5231"/>
<polygon fill="midnightblue" stroke="midnightblue" points="1315.45,-53.9598 1305.88,-58.4966 1316.19,-60.9206 1315.45,-53.9598"/>
</g>
<!-- Node9&#45;&gt;Node5 -->
<g id="edge18" class="edge"><title>Node9&#45;&gt;Node5</title>
<path fill="none" stroke="midnightblue" d="M833.062,-115.244C917.712,-104.775 1040.43,-89.5993 1121.91,-79.5231"/>
<polygon fill="midnightblue" stroke="midnightblue" points="832.427,-111.796 822.932,-116.497 833.286,-118.743 832.427,-111.796"/>
</g>
<!-- Node9&#45;&gt;Node7 -->
<g id="edge20" class="edge"><title>Node9&#45;&gt;Node7</title>
<path fill="none" stroke="midnightblue" d="M757.899,-109.379C785.445,-84.9881 834.346,-41.6859 856.94,-21.6792"/>
<polygon fill="midnightblue" stroke="midnightblue" points="755.256,-107.045 750.089,-116.295 759.896,-112.286 755.256,-107.045"/>
</g>
<!-- Node9&#45;&gt;Node10 -->
<g id="edge22" class="edge"><title>Node9&#45;&gt;Node10</title>
<path fill="none" stroke="midnightblue" d="M663.479,-114.859C599.32,-104.406 507.683,-89.4764 446.59,-79.5231"/>
<polygon fill="midnightblue" stroke="midnightblue" points="663.098,-118.343 673.531,-116.497 664.224,-111.434 663.098,-118.343"/>
</g>
<!-- Node11&#45;&gt;Node3 -->
<g id="edge28" class="edge"><title>Node11&#45;&gt;Node3</title>
<path fill="none" stroke="midnightblue" d="M807.105,-287.575C775.162,-278.345 731.949,-265.69 694,-254 629.087,-234.005 553.552,-209.314 511.823,-195.548"/>
<polygon fill="midnightblue" stroke="midnightblue" points="806.481,-291.038 817.059,-290.446 808.421,-284.312 806.481,-291.038"/>
</g>
<!-- Node11&#45;&gt;Node5 -->
<g id="edge50" class="edge"><title>Node11&#45;&gt;Node5</title>
<path fill="none" stroke="midnightblue" d="M828.387,-284.446C818.51,-276.544 808.325,-266.148 803,-254 788.726,-221.435 780.182,-201.268 803,-174 832.121,-139.2 960.061,-149.334 1004,-138 1068.34,-121.405 1141.65,-94.4057 1180.14,-79.5796"/>
<polygon fill="midnightblue" stroke="midnightblue" points="826.385,-287.319 836.497,-290.481 830.564,-281.703 826.385,-287.319"/>
</g>
<!-- Node11&#45;&gt;Node7 -->
<g id="edge54" class="edge"><title>Node11&#45;&gt;Node7</title>
<path fill="none" stroke="midnightblue" d="M821.367,-285.418C809.027,-277.763 796.229,-267.289 789,-254 771.998,-222.745 763.648,-201.683 786,-174 833.698,-114.925 905.302,-197.075 953,-138 985.715,-97.4813 918.337,-44.1168 885.542,-21.6712"/>
<polygon fill="midnightblue" stroke="midnightblue" points="819.771,-288.538 830.184,-290.494 823.264,-282.472 819.771,-288.538"/>
</g>
<!-- Node11&#45;&gt;Node8 -->
<g id="edge56" class="edge"><title>Node11&#45;&gt;Node8</title>
<path fill="none" stroke="midnightblue" d="M1021.59,-289.749C1251.64,-272.845 1642.66,-238.32 1693,-196 1747.54,-150.157 1752.93,-54.2059 1753.15,-21.8898"/>
<polygon fill="midnightblue" stroke="midnightblue" points="1021.16,-286.271 1011.44,-290.491 1021.67,-293.252 1021.16,-286.271"/>
</g>
<!-- Node11&#45;&gt;Node9 -->
<g id="edge52" class="edge"><title>Node11&#45;&gt;Node9</title>
<path fill="none" stroke="midnightblue" d="M802.765,-287.578C773.343,-278.721 740.569,-266.484 732,-254 707.142,-217.785 724.556,-161.131 733.543,-137.698"/>
<polygon fill="midnightblue" stroke="midnightblue" points="801.994,-290.999 812.574,-290.448 803.959,-284.281 801.994,-290.999"/>
</g>
<!-- Node11&#45;&gt;Node12 -->
<g id="edge30" class="edge"><title>Node11&#45;&gt;Node12</title>
<path fill="none" stroke="midnightblue" d="M994.551,-289.543C1088.33,-280.892 1202.63,-268.125 1249,-254 1269.54,-247.745 1271.83,-239.354 1292,-232 1337.58,-215.378 1391.1,-203.31 1431.88,-195.568"/>
<polygon fill="midnightblue" stroke="midnightblue" points="994.026,-286.076 984.386,-290.472 994.663,-293.047 994.026,-286.076"/>
</g>
<!-- Node13 -->
<g id="node34" class="node"><title>Node13</title>
<a xlink:href="_power_state_sequence_8h.html" target="_top" xlink:title="/mnt/sshfs/imperialroot/homes/dk3810/workingcopies/disaggregate/src/PowerStateSequence.h">
<polygon fill="white" stroke="black" points="811.5,-232.5 811.5,-253.5 1240.5,-253.5 1240.5,-232.5 811.5,-232.5"/>
<text text-anchor="middle" x="1026" y="-240.5" font-family="Helvetica,sans-Serif" font-size="10.00">/mnt/sshfs/imperialroot/homes/dk3810/workingcopies/disaggregate/src/PowerStateSequence.h</text>
</a>
</g>
<!-- Node11&#45;&gt;Node13 -->
<g id="edge42" class="edge"><title>Node11&#45;&gt;Node13</title>
<path fill="none" stroke="midnightblue" d="M894.691,-287.279C925.339,-276.944 966.735,-262.985 994.794,-253.523"/>
<polygon fill="midnightblue" stroke="midnightblue" points="893.505,-283.985 885.148,-290.497 895.742,-290.618 893.505,-283.985"/>
</g>
<!-- Node12&#45;&gt;Node5 -->
<g id="edge32" class="edge"><title>Node12&#45;&gt;Node5</title>
<path fill="none" stroke="midnightblue" d="M1460.31,-170.673C1401.41,-147.035 1285.25,-100.408 1233.25,-79.5352"/>
<polygon fill="midnightblue" stroke="midnightblue" points="1459,-173.921 1469.59,-174.398 1461.61,-167.425 1459,-173.921"/>
</g>
<!-- Node12&#45;&gt;Node6 -->
<g id="edge36" class="edge"><title>Node12&#45;&gt;Node6</title>
<path fill="none" stroke="midnightblue" d="M1492.19,-164.522C1486.2,-137.277 1472.21,-88.9533 1444,-58 1428.56,-41.0634 1405.6,-29.208 1386.73,-21.6407"/>
<polygon fill="midnightblue" stroke="midnightblue" points="1488.8,-165.388 1494.23,-174.483 1495.65,-163.984 1488.8,-165.388"/>
</g>
<!-- Node12&#45;&gt;Node7 -->
<g id="edge38" class="edge"><title>Node12&#45;&gt;Node7</title>
<path fill="none" stroke="midnightblue" d="M1487.22,-165.206C1473.09,-136.024 1442.35,-82.2944 1398,-58 1367.8,-41.4594 1192.74,-28.2196 1052.15,-20.0601"/>
<polygon fill="midnightblue" stroke="midnightblue" points="1484.11,-166.834 1491.51,-174.416 1490.46,-163.874 1484.11,-166.834"/>
</g>
<!-- Node12&#45;&gt;Node8 -->
<g id="edge40" class="edge"><title>Node12&#45;&gt;Node8</title>
<path fill="none" stroke="midnightblue" d="M1519.98,-168.768C1571.92,-133.599 1693.67,-51.168 1737.19,-21.7046"/>
<polygon fill="midnightblue" stroke="midnightblue" points="1518.01,-165.873 1511.69,-174.377 1521.93,-171.669 1518.01,-165.873"/>
</g>
<!-- Node12&#45;&gt;Node9 -->
<g id="edge34" class="edge"><title>Node12&#45;&gt;Node9</title>
<path fill="none" stroke="midnightblue" d="M1348.57,-173.719C1211.61,-163.239 1009.22,-147.753 875.526,-137.523"/>
<polygon fill="midnightblue" stroke="midnightblue" points="1348.49,-177.223 1358.73,-174.497 1349.03,-170.244 1348.49,-177.223"/>
</g>
<!-- Node13&#45;&gt;Node5 -->
<g id="edge46" class="edge"><title>Node13&#45;&gt;Node5</title>
<path fill="none" stroke="midnightblue" d="M1159.43,-231.014C1204.53,-223.989 1247.05,-213.012 1261,-196 1291.23,-159.128 1241.83,-102.839 1218.33,-79.6008"/>
<polygon fill="midnightblue" stroke="midnightblue" points="1158.84,-227.562 1149.47,-232.497 1159.87,-234.486 1158.84,-227.562"/>
</g>
<!-- Node13&#45;&gt;Node12 -->
<g id="edge44" class="edge"><title>Node13&#45;&gt;Node12</title>
<path fill="none" stroke="midnightblue" d="M1121.26,-231.244C1206.1,-220.775 1329.07,-205.599 1410.73,-195.523"/>
<polygon fill="midnightblue" stroke="midnightblue" points="1120.61,-227.798 1111.11,-232.497 1121.47,-234.745 1120.61,-227.798"/>
</g>
<!-- Node14 -->
<g id="node38" class="node"><title>Node14</title>
<a xlink:href="_power_state_sequence_8cpp.html" target="_top" xlink:title="/mnt/sshfs/imperialroot/homes/dk3810/workingcopies/disaggregate/src/PowerStateSequence.cpp">
<polygon fill="white" stroke="black" points="812,-174.5 812,-195.5 1252,-195.5 1252,-174.5 812,-174.5"/>
<text text-anchor="middle" x="1032" y="-182.5" font-family="Helvetica,sans-Serif" font-size="10.00">/mnt/sshfs/imperialroot/homes/dk3810/workingcopies/disaggregate/src/PowerStateSequence.cpp</text>
</a>
</g>
<!-- Node13&#45;&gt;Node14 -->
<g id="edge48" class="edge"><title>Node13&#45;&gt;Node14</title>
<path fill="none" stroke="midnightblue" d="M1028.15,-222.191C1029.09,-213.168 1030.14,-202.994 1030.91,-195.571"/>
<polygon fill="midnightblue" stroke="midnightblue" points="1024.65,-222.055 1027.1,-232.362 1031.61,-222.775 1024.65,-222.055"/>
</g>
<!-- Node15&#45;&gt;Node8 -->
<g id="edge66" class="edge"><title>Node15&#45;&gt;Node8</title>
<path fill="none" stroke="midnightblue" d="M1605.95,-345.712C1628.57,-338.718 1652.16,-328.096 1670,-312 1752.48,-237.585 1750.78,-190.413 1763,-80 1765.29,-59.307 1759.99,-35.2725 1756.26,-21.7278"/>
<polygon fill="midnightblue" stroke="midnightblue" points="1604.97,-342.352 1596.34,-348.492 1606.92,-349.076 1604.97,-342.352"/>
</g>
<!-- Node15&#45;&gt;Node11 -->
<g id="edge60" class="edge"><title>Node15&#45;&gt;Node11</title>
<path fill="none" stroke="midnightblue" d="M1399.03,-347.625C1276.54,-337.146 1096.23,-321.722 977.011,-311.523"/>
<polygon fill="midnightblue" stroke="midnightblue" points="1398.96,-351.131 1409.22,-348.497 1399.55,-344.157 1398.96,-351.131"/>
</g>
<!-- Node15&#45;&gt;Node12 -->
<g id="edge62" class="edge"><title>Node15&#45;&gt;Node12</title>
<path fill="none" stroke="midnightblue" d="M1602.81,-345.74C1638,-335.454 1670.11,-318.086 1655,-290 1628.2,-240.185 1566.26,-210.07 1528.08,-195.564"/>
<polygon fill="midnightblue" stroke="midnightblue" points="1601.57,-342.451 1592.84,-348.457 1603.41,-349.205 1601.57,-342.451"/>
</g>
<!-- Node16 -->
<g id="node48" class="node"><title>Node16</title>
<a xlink:href="_histogram_8cpp.html" target="_top" xlink:title="/mnt/sshfs/imperialroot/homes/dk3810/workingcopies/disaggregate/src/Histogram.cpp">
<polygon fill="white" stroke="black" points="1256,-290.5 1256,-311.5 1646,-311.5 1646,-290.5 1256,-290.5"/>
<text text-anchor="middle" x="1451" y="-298.5" font-family="Helvetica,sans-Serif" font-size="10.00">/mnt/sshfs/imperialroot/homes/dk3810/workingcopies/disaggregate/src/Histogram.cpp</text>
</a>
</g>
<!-- Node15&#45;&gt;Node16 -->
<g id="edge64" class="edge"><title>Node15&#45;&gt;Node16</title>
<path fill="none" stroke="midnightblue" d="M1508.62,-342.259C1494.8,-332.364 1477.72,-320.136 1465.76,-311.571"/>
<polygon fill="midnightblue" stroke="midnightblue" points="1506.98,-345.386 1517.14,-348.362 1511.05,-339.694 1506.98,-345.386"/>
</g>
<!-- Node17&#45;&gt;Node2 -->
<g id="edge74" class="edge"><title>Node17&#45;&gt;Node2</title>
<path fill="none" stroke="midnightblue" d="M1032.69,-462.859C968.71,-452.406 877.33,-437.476 816.408,-427.523"/>
<polygon fill="midnightblue" stroke="midnightblue" points="1032.28,-466.338 1042.71,-464.497 1033.41,-459.43 1032.28,-466.338"/>
</g>
<!-- Node17&#45;&gt;Node18 -->
<g id="edge76" class="edge"><title>Node17&#45;&gt;Node18</title>
<path fill="none" stroke="midnightblue" d="M1118,-455.667C1123.33,-446.295 1129.53,-435.402 1133.99,-427.571"/>
<polygon fill="midnightblue" stroke="midnightblue" points="1114.96,-453.939 1113.05,-464.362 1121.04,-457.401 1114.96,-453.939"/>
</g>
</g>
</svg>
