<?xml version="1.0" encoding="UTF-8" standalone="no"?>
<!DOCTYPE svg PUBLIC "-//W3C//DTD SVG 1.1//EN"
 "http://www.w3.org/Graphics/SVG/1.1/DTD/svg11.dtd">
<!-- Generated by graphviz version 2.26.3 (20100126.1600)
 -->
<!-- Title: G Pages: 1 -->
<svg width="382pt" height="88pt"
 viewBox="0.00 0.00 382.00 88.00" xmlns="http://www.w3.org/2000/svg" xmlns:xlink="http://www.w3.org/1999/xlink">
<g id="graph1" class="graph" transform="scale(1 1) rotate(0) translate(4 84)">
<title>G</title>
<polygon fill="white" stroke="white" points="-4,5 -4,-84 379,-84 379,5 -4,5"/>
<!-- Node1 -->
<g id="node1" class="node"><title>Node1</title>
<polygon fill="#bfbfbf" stroke="black" points="0,-58.5 0,-79.5 374,-79.5 374,-58.5 0,-58.5"/>
<text text-anchor="middle" x="187" y="-66.5" font-family="Helvetica,sans-Serif" font-size="10.00">/mnt/sshfs/imperialroot/homes/dk3810/workingcopies/disaggregate/src/Common.h</text>
</g>
<!-- Node2 -->
<g id="node3" class="node"><title>Node2</title>
<polygon fill="white" stroke="#bfbfbf" points="100.5,-0.5 100.5,-21.5 149.5,-21.5 149.5,-0.5 100.5,-0.5"/>
<text text-anchor="middle" x="125" y="-8.5" font-family="Helvetica,sans-Serif" font-size="10.00">cstddef</text>
</g>
<!-- Node1&#45;&gt;Node2 -->
<g id="edge2" class="edge"><title>Node1&#45;&gt;Node2</title>
<path fill="none" stroke="midnightblue" d="M175.628,-58.3619C166.714,-50.0226 154.121,-38.2418 143.724,-28.5162"/>
<polygon fill="midnightblue" stroke="midnightblue" points="145.993,-25.8463 136.3,-21.5707 141.211,-30.9582 145.993,-25.8463"/>
</g>
<!-- Node3 -->
<g id="node5" class="node"><title>Node3</title>
<polygon fill="white" stroke="#bfbfbf" points="166.5,-0.5 166.5,-21.5 207.5,-21.5 207.5,-0.5 166.5,-0.5"/>
<text text-anchor="middle" x="187" y="-8.5" font-family="Helvetica,sans-Serif" font-size="10.00">string</text>
</g>
<!-- Node1&#45;&gt;Node3 -->
<g id="edge4" class="edge"><title>Node1&#45;&gt;Node3</title>
<path fill="none" stroke="midnightblue" d="M187,-58.3619C187,-50.9219 187,-40.7427 187,-31.7276"/>
<polygon fill="midnightblue" stroke="midnightblue" points="190.5,-31.5706 187,-21.5707 183.5,-31.5707 190.5,-31.5706"/>
</g>
<!-- Node4 -->
<g id="node7" class="node"><title>Node4</title>
<polygon fill="white" stroke="#bfbfbf" points="224.5,-0.5 224.5,-21.5 253.5,-21.5 253.5,-0.5 224.5,-0.5"/>
<text text-anchor="middle" x="239" y="-8.5" font-family="Helvetica,sans-Serif" font-size="10.00">list</text>
</g>
<!-- Node1&#45;&gt;Node4 -->
<g id="edge6" class="edge"><title>Node1&#45;&gt;Node4</title>
<path fill="none" stroke="midnightblue" d="M196.538,-58.3619C203.868,-50.1861 214.163,-38.7025 222.781,-29.0907"/>
<polygon fill="midnightblue" stroke="midnightblue" points="225.453,-31.3528 229.523,-21.5707 220.241,-26.68 225.453,-31.3528"/>
</g>
</g>
</svg>
