<?xml version="1.0" encoding="UTF-8" standalone="no"?>
<!DOCTYPE svg PUBLIC "-//W3C//DTD SVG 1.1//EN"
 "http://www.w3.org/Graphics/SVG/1.1/DTD/svg11.dtd">
<!-- Generated by graphviz version 2.26.3 (20100126.1600)
 -->
<!-- Title: G Pages: 1 -->
<svg width="1456pt" height="610pt"
 viewBox="0.00 0.00 1456.00 610.00" xmlns="http://www.w3.org/2000/svg" xmlns:xlink="http://www.w3.org/1999/xlink">
<g id="graph1" class="graph" transform="scale(1 1) rotate(0) translate(4 606)">
<title>G</title>
<polygon fill="white" stroke="white" points="-4,5 -4,-606 1453,-606 1453,5 -4,5"/>
<!-- Node1 -->
<g id="node1" class="node"><title>Node1</title>
<polygon fill="#bfbfbf" stroke="black" points="895,-580.5 895,-601.5 1271,-601.5 1271,-580.5 895,-580.5"/>
<text text-anchor="middle" x="1083" y="-588.5" font-family="Helvetica,sans-Serif" font-size="10.00">/mnt/sshfs/imperialroot/homes/dk3810/workingcopies/disaggregate/src/Device.cpp</text>
</g>
<!-- Node2 -->
<g id="node3" class="node"><title>Node2</title>
<a xlink:href="_device_8h.html" target="_top" xlink:title="Device.h">
<polygon fill="white" stroke="black" points="903,-522.5 903,-543.5 959,-543.5 959,-522.5 903,-522.5"/>
<text text-anchor="middle" x="931" y="-530.5" font-family="Helvetica,sans-Serif" font-size="10.00">Device.h</text>
</a>
</g>
<!-- Node1&#45;&gt;Node2 -->
<g id="edge2" class="edge"><title>Node1&#45;&gt;Node2</title>
<path fill="none" stroke="midnightblue" d="M1055.47,-580.497C1031.02,-571.164 995.062,-557.445 968.076,-547.147"/>
<polygon fill="midnightblue" stroke="midnightblue" points="969.168,-543.818 958.578,-543.523 966.673,-550.358 969.168,-543.818"/>
</g>
<!-- Node3 -->
<g id="node5" class="node"><title>Node3</title>
<polygon fill="white" stroke="#bfbfbf" points="118.5,-0.5 118.5,-21.5 147.5,-21.5 147.5,-0.5 118.5,-0.5"/>
<text text-anchor="middle" x="133" y="-8.5" font-family="Helvetica,sans-Serif" font-size="10.00">list</text>
</g>
<!-- Node1&#45;&gt;Node3 -->
<g id="edge128" class="edge"><title>Node1&#45;&gt;Node3</title>
<path fill="none" stroke="midnightblue" d="M894.81,-585.557C684.161,-578.582 356.331,-564.845 234,-544 127.114,-525.786 0,-583.427 0,-475 0,-475 0,-475 0,-127 0,-69.9053 70.4725,-34.4667 108.821,-19.409"/>
<polygon fill="midnightblue" stroke="midnightblue" points="110.131,-22.6558 118.259,-15.8596 107.666,-16.1038 110.131,-22.6558"/>
</g>
<!-- Node6 -->
<g id="node11" class="node"><title>Node6</title>
<a xlink:href="_signature_8h.html" target="_top" xlink:title="Signature.h">
<polygon fill="white" stroke="black" points="397,-406.5 397,-427.5 463,-427.5 463,-406.5 397,-406.5"/>
<text text-anchor="middle" x="430" y="-414.5" font-family="Helvetica,sans-Serif" font-size="10.00">Signature.h</text>
</a>
</g>
<!-- Node1&#45;&gt;Node6 -->
<g id="edge124" class="edge"><title>Node1&#45;&gt;Node6</title>
<path fill="none" stroke="midnightblue" d="M993.85,-580.466C854.984,-563.091 594.209,-526.312 510,-486 484.501,-473.793 460.707,-451.273 445.808,-435.283"/>
<polygon fill="midnightblue" stroke="midnightblue" points="448.169,-432.676 438.866,-427.606 442.977,-437.371 448.169,-432.676"/>
</g>
<!-- Node8 -->
<g id="node15" class="node"><title>Node8</title>
<a xlink:href="_common_8h.html" target="_top" xlink:title="Common.h">
<polygon fill="white" stroke="black" points="283.5,-58.5 283.5,-79.5 348.5,-79.5 348.5,-58.5 283.5,-58.5"/>
<text text-anchor="middle" x="316" y="-66.5" font-family="Helvetica,sans-Serif" font-size="10.00">Common.h</text>
</a>
</g>
<!-- Node1&#45;&gt;Node8 -->
<g id="edge126" class="edge"><title>Node1&#45;&gt;Node8</title>
<path fill="none" stroke="midnightblue" d="M910.44,-580.49C613.63,-561.251 38,-518.353 38,-475 38,-475 38,-475 38,-417 38,-256.137 122.959,-227.407 239,-116 252.067,-103.454 269.045,-92.6511 283.732,-84.5765"/>
<polygon fill="midnightblue" stroke="midnightblue" points="285.79,-87.4472 292.989,-79.6736 282.514,-81.2614 285.79,-87.4472"/>
</g>
<!-- Node15 -->
<g id="node36" class="node"><title>Node15</title>
<polygon fill="white" stroke="#bfbfbf" points="1031.5,-116.5 1031.5,-137.5 1080.5,-137.5 1080.5,-116.5 1031.5,-116.5"/>
<text text-anchor="middle" x="1056" y="-124.5" font-family="Helvetica,sans-Serif" font-size="10.00">cassert</text>
</g>
<!-- Node1&#45;&gt;Node15 -->
<g id="edge130" class="edge"><title>Node1&#45;&gt;Node15</title>
<path fill="none" stroke="midnightblue" d="M1177.13,-580.468C1240.3,-567.557 1312,-538.842 1312,-475 1312,-475 1312,-475 1312,-359 1312,-240.661 1159.95,-166.928 1090.21,-139.335"/>
<polygon fill="midnightblue" stroke="midnightblue" points="1091.14,-135.941 1080.55,-135.599 1088.61,-142.47 1091.14,-135.941"/>
</g>
<!-- Node20 -->
<g id="node51" class="node"><title>Node20</title>
<polygon fill="white" stroke="#bfbfbf" points="1144,-232.5 1144,-253.5 1184,-253.5 1184,-232.5 1144,-232.5"/>
<text text-anchor="middle" x="1164" y="-240.5" font-family="Helvetica,sans-Serif" font-size="10.00">limits</text>
</g>
<!-- Node1&#45;&gt;Node20 -->
<g id="edge136" class="edge"><title>Node1&#45;&gt;Node20</title>
<path fill="none" stroke="midnightblue" d="M1121.21,-580.38C1166.53,-565.179 1236,-532.501 1236,-475 1236,-475 1236,-475 1236,-417 1236,-356.856 1198.82,-293.296 1177.89,-262.29"/>
<polygon fill="midnightblue" stroke="midnightblue" points="1180.55,-259.981 1171.98,-253.752 1174.8,-263.966 1180.55,-259.981"/>
</g>
<!-- Node28 -->
<g id="node94" class="node"><title>Node28</title>
<polygon fill="white" stroke="#bfbfbf" points="1340,-522.5 1340,-543.5 1386,-543.5 1386,-522.5 1340,-522.5"/>
<text text-anchor="middle" x="1363" y="-530.5" font-family="Helvetica,sans-Serif" font-size="10.00">cstring</text>
</g>
<!-- Node1&#45;&gt;Node28 -->
<g id="edge132" class="edge"><title>Node1&#45;&gt;Node28</title>
<path fill="none" stroke="midnightblue" d="M1146.56,-580.463C1195.8,-571.877 1265.58,-558.786 1326,-544 1327.24,-543.695 1328.51,-543.375 1329.79,-543.042"/>
<polygon fill="midnightblue" stroke="midnightblue" points="1330.9,-546.366 1339.61,-540.331 1329.04,-539.619 1330.9,-546.366"/>
</g>
<!-- Node29 -->
<g id="node96" class="node"><title>Node29</title>
<polygon fill="white" stroke="#bfbfbf" points="1403.5,-522.5 1403.5,-543.5 1448.5,-543.5 1448.5,-522.5 1403.5,-522.5"/>
<text text-anchor="middle" x="1426" y="-530.5" font-family="Helvetica,sans-Serif" font-size="10.00">cstdlib</text>
</g>
<!-- Node1&#45;&gt;Node29 -->
<g id="edge134" class="edge"><title>Node1&#45;&gt;Node29</title>
<path fill="none" stroke="midnightblue" d="M1186.2,-580.486C1244.83,-573.324 1319.57,-562.197 1393.51,-544.046"/>
<polygon fill="midnightblue" stroke="midnightblue" points="1394.61,-547.379 1403.47,-541.558 1392.92,-540.588 1394.61,-547.379"/>
</g>
<!-- Node2&#45;&gt;Node3 -->
<g id="edge4" class="edge"><title>Node2&#45;&gt;Node3</title>
<path fill="none" stroke="midnightblue" d="M902.966,-530.731C787.047,-521.067 345.253,-481.378 217,-428 111.373,-384.039 38,-357.41 38,-243 38,-243 38,-243 38,-127 38,-81.9019 81.5101,-44.7166 109.639,-25.3891"/>
<polygon fill="midnightblue" stroke="midnightblue" points="111.747,-28.1907 118.156,-19.754 107.885,-22.3526 111.747,-28.1907"/>
</g>
<!-- Node4 -->
<g id="node7" class="node"><title>Node4</title>
<polygon fill="white" stroke="#bfbfbf" points="859,-406.5 859,-427.5 903,-427.5 903,-406.5 859,-406.5"/>
<text text-anchor="middle" x="881" y="-414.5" font-family="Helvetica,sans-Serif" font-size="10.00">vector</text>
</g>
<!-- Node2&#45;&gt;Node4 -->
<g id="edge6" class="edge"><title>Node2&#45;&gt;Node4</title>
<path fill="none" stroke="midnightblue" d="M926.386,-522.295C918.051,-502.959 900.363,-461.923 889.697,-437.177"/>
<polygon fill="midnightblue" stroke="midnightblue" points="892.776,-435.477 885.603,-427.679 886.347,-438.248 892.776,-435.477"/>
</g>
<!-- Node5 -->
<g id="node9" class="node"><title>Node5</title>
<polygon fill="white" stroke="#bfbfbf" points="577.5,-0.5 577.5,-21.5 618.5,-21.5 618.5,-0.5 577.5,-0.5"/>
<text text-anchor="middle" x="598" y="-8.5" font-family="Helvetica,sans-Serif" font-size="10.00">string</text>
</g>
<!-- Node2&#45;&gt;Node5 -->
<g id="edge8" class="edge"><title>Node2&#45;&gt;Node5</title>
<path fill="none" stroke="midnightblue" d="M959.053,-529.565C1060.45,-515.444 1402,-452.34 1402,-243 1402,-243 1402,-243 1402,-127 1402,-112.232 1578.68,-138.664 1237,-58 1119.26,-30.2044 740.31,-15.7126 629.011,-11.983"/>
<polygon fill="midnightblue" stroke="midnightblue" points="628.912,-8.47795 618.802,-11.6461 628.681,-15.4741 628.912,-8.47795"/>
</g>
<!-- Node2&#45;&gt;Node6 -->
<g id="edge10" class="edge"><title>Node2&#45;&gt;Node6</title>
<path fill="none" stroke="midnightblue" d="M902.805,-532.411C841.261,-530.462 690.803,-522.072 571,-486 528.564,-473.223 483.146,-448.836 455.658,-432.745"/>
<polygon fill="midnightblue" stroke="midnightblue" points="457.438,-429.732 447.053,-427.635 453.864,-435.751 457.438,-429.732"/>
</g>
<!-- Node16 -->
<g id="node40" class="node"><title>Node16</title>
<a xlink:href="_statistic_8h.html" target="_top" xlink:title="Statistic.h">
<polygon fill="white" stroke="black" points="762.5,-290.5 762.5,-311.5 823.5,-311.5 823.5,-290.5 762.5,-290.5"/>
<text text-anchor="middle" x="793" y="-298.5" font-family="Helvetica,sans-Serif" font-size="10.00">Statistic.h</text>
</a>
</g>
<!-- Node2&#45;&gt;Node16 -->
<g id="edge88" class="edge"><title>Node2&#45;&gt;Node16</title>
<path fill="none" stroke="midnightblue" d="M936.779,-522.164C941.39,-512.868 947.48,-498.959 950,-486 956.939,-450.319 953.71,-435.873 933,-406 904.72,-365.208 855.517,-333.718 823.615,-316.27"/>
<polygon fill="midnightblue" stroke="midnightblue" points="825.18,-313.139 814.71,-311.519 821.884,-319.314 825.18,-313.139"/>
</g>
<!-- Node22 -->
<g id="node59" class="node"><title>Node22</title>
<a xlink:href="_power_state_sequence_8h.html" target="_top" xlink:title="PowerStateSequence.h">
<polygon fill="white" stroke="black" points="457.5,-348.5 457.5,-369.5 576.5,-369.5 576.5,-348.5 457.5,-348.5"/>
<text text-anchor="middle" x="517" y="-356.5" font-family="Helvetica,sans-Serif" font-size="10.00">PowerStateSequence.h</text>
</a>
</g>
<!-- Node2&#45;&gt;Node22 -->
<g id="edge90" class="edge"><title>Node2&#45;&gt;Node22</title>
<path fill="none" stroke="midnightblue" d="M933.199,-522.254C937.531,-497.701 944.159,-437.206 912,-406 889.134,-383.811 693.963,-369.189 586.795,-362.755"/>
<polygon fill="midnightblue" stroke="midnightblue" points="586.896,-359.255 576.707,-362.158 586.483,-366.243 586.896,-359.255"/>
</g>
<!-- Node23 -->
<g id="node69" class="node"><title>Node23</title>
<a xlink:href="_aggregate_data_8h.html" target="_top" xlink:title="AggregateData.h">
<polygon fill="white" stroke="black" points="1109,-348.5 1109,-369.5 1199,-369.5 1199,-348.5 1109,-348.5"/>
<text text-anchor="middle" x="1154" y="-356.5" font-family="Helvetica,sans-Serif" font-size="10.00">AggregateData.h</text>
</a>
</g>
<!-- Node2&#45;&gt;Node23 -->
<g id="edge92" class="edge"><title>Node2&#45;&gt;Node23</title>
<path fill="none" stroke="midnightblue" d="M959.053,-527.88C1000.27,-519.883 1074.52,-503.518 1095,-486 1127.79,-457.962 1143.47,-407.775 1150,-379.616"/>
<polygon fill="midnightblue" stroke="midnightblue" points="1153.46,-380.182 1152.14,-369.669 1146.62,-378.71 1153.46,-380.182"/>
</g>
<!-- Node24 -->
<g id="node76" class="node"><title>Node24</title>
<a xlink:href="_power_state_graph_8h.html" target="_top" xlink:title="PowerStateGraph.h">
<polygon fill="white" stroke="black" points="580,-464.5 580,-485.5 682,-485.5 682,-464.5 580,-464.5"/>
<text text-anchor="middle" x="631" y="-472.5" font-family="Helvetica,sans-Serif" font-size="10.00">PowerStateGraph.h</text>
</a>
</g>
<!-- Node2&#45;&gt;Node24 -->
<g id="edge104" class="edge"><title>Node2&#45;&gt;Node24</title>
<path fill="none" stroke="midnightblue" d="M902.777,-527.544C854.872,-518.282 756.596,-499.282 692.283,-486.848"/>
<polygon fill="midnightblue" stroke="midnightblue" points="692.748,-483.373 682.266,-484.911 691.419,-490.246 692.748,-483.373"/>
</g>
<!-- Node6&#45;&gt;Node3 -->
<g id="edge84" class="edge"><title>Node6&#45;&gt;Node3</title>
<path fill="none" stroke="midnightblue" d="M396.743,-410.458C322.953,-394.991 152,-353.493 152,-301 152,-301 152,-301 152,-243 152,-164.688 141.113,-72.0011 135.821,-31.5734"/>
<polygon fill="midnightblue" stroke="midnightblue" points="139.284,-31.0605 134.491,-21.6119 132.346,-31.9873 139.284,-31.0605"/>
</g>
<!-- Node7 -->
<g id="node13" class="node"><title>Node7</title>
<a xlink:href="_array_8h.html" target="_top" xlink:title="Array.h">
<polygon fill="white" stroke="black" points="522,-174.5 522,-195.5 570,-195.5 570,-174.5 522,-174.5"/>
<text text-anchor="middle" x="546" y="-182.5" font-family="Helvetica,sans-Serif" font-size="10.00">Array.h</text>
</a>
</g>
<!-- Node6&#45;&gt;Node7 -->
<g id="edge12" class="edge"><title>Node6&#45;&gt;Node7</title>
<path fill="none" stroke="midnightblue" d="M432.051,-406.444C434.919,-392.67 440.721,-367.971 449,-348 471.972,-292.588 511.364,-233.506 532.178,-204.031"/>
<polygon fill="midnightblue" stroke="midnightblue" points="535.041,-206.044 538.002,-195.872 529.343,-201.977 535.041,-206.044"/>
</g>
<!-- Node6&#45;&gt;Node8 -->
<g id="edge46" class="edge"><title>Node6&#45;&gt;Node8</title>
<path fill="none" stroke="midnightblue" d="M396.812,-409.436C348.891,-396.325 266,-364.472 266,-301 266,-301 266,-301 266,-185 266,-148.349 287.309,-110.114 302.105,-87.9834"/>
<polygon fill="midnightblue" stroke="midnightblue" points="305.141,-89.7476 307.967,-79.5364 299.39,-85.757 305.141,-89.7476"/>
</g>
<!-- Node11 -->
<g id="node24" class="node"><title>Node11</title>
<polygon fill="white" stroke="#bfbfbf" points="1014,-58.5 1014,-79.5 1064,-79.5 1064,-58.5 1014,-58.5"/>
<text text-anchor="middle" x="1039" y="-66.5" font-family="Helvetica,sans-Serif" font-size="10.00">fstream</text>
</g>
<!-- Node6&#45;&gt;Node11 -->
<g id="edge86" class="edge"><title>Node6&#45;&gt;Node11</title>
<path fill="none" stroke="midnightblue" d="M463.434,-408.088C466.327,-407.364 469.212,-406.658 472,-406 790.717,-330.714 986.693,-508.334 1193,-254 1244.5,-190.515 1127.38,-116.035 1069.26,-84.429"/>
<polygon fill="midnightblue" stroke="midnightblue" points="1070.61,-81.1825 1060.14,-79.5583 1067.32,-87.3569 1070.61,-81.1825"/>
</g>
<!-- Node6&#45;&gt;Node16 -->
<g id="edge48" class="edge"><title>Node6&#45;&gt;Node16</title>
<path fill="none" stroke="midnightblue" d="M463.035,-407.253C494.468,-397.915 543.055,-383.314 585,-370 643.583,-351.405 711.059,-328.801 752.875,-314.653"/>
<polygon fill="midnightblue" stroke="midnightblue" points="754.071,-317.943 762.419,-311.42 751.825,-311.313 754.071,-317.943"/>
</g>
<!-- Node21 -->
<g id="node55" class="node"><title>Node21</title>
<a xlink:href="_histogram_8h.html" target="_top" xlink:title="Histogram.h">
<polygon fill="white" stroke="black" points="294,-232.5 294,-253.5 364,-253.5 364,-232.5 294,-232.5"/>
<text text-anchor="middle" x="329" y="-240.5" font-family="Helvetica,sans-Serif" font-size="10.00">Histogram.h</text>
</a>
</g>
<!-- Node6&#45;&gt;Node21 -->
<g id="edge82" class="edge"><title>Node6&#45;&gt;Node21</title>
<path fill="none" stroke="midnightblue" d="M423.834,-406.377C407.321,-377.93 361.903,-299.684 340.475,-262.769"/>
<polygon fill="midnightblue" stroke="midnightblue" points="343.39,-260.819 335.343,-253.928 337.336,-264.333 343.39,-260.819"/>
</g>
<!-- Node6&#45;&gt;Node22 -->
<g id="edge74" class="edge"><title>Node6&#45;&gt;Node22</title>
<path fill="none" stroke="midnightblue" d="M445.957,-406.362C458.957,-397.696 477.531,-385.313 492.427,-375.382"/>
<polygon fill="midnightblue" stroke="midnightblue" points="494.765,-378.03 501.144,-369.571 490.882,-372.206 494.765,-378.03"/>
</g>
<!-- Node7&#45;&gt;Node3 -->
<g id="edge44" class="edge"><title>Node7&#45;&gt;Node3</title>
<path fill="none" stroke="midnightblue" d="M521.93,-175.453C501.702,-166.942 472.426,-153.464 449,-138 403.779,-108.148 405.522,-82.1179 357,-58 290.061,-24.7279 200.539,-14.9756 157.773,-12.1431"/>
<polygon fill="midnightblue" stroke="midnightblue" points="157.903,-8.64474 147.714,-11.5498 157.49,-15.6326 157.903,-8.64474"/>
</g>
<!-- Node7&#45;&gt;Node8 -->
<g id="edge14" class="edge"><title>Node7&#45;&gt;Node8</title>
<path fill="none" stroke="midnightblue" d="M521.745,-178.277C495.034,-170.411 451.207,-156.126 416,-138 386.922,-123.029 356.383,-100.881 336.82,-85.7416"/>
<polygon fill="midnightblue" stroke="midnightblue" points="338.925,-82.9445 328.897,-79.527 334.605,-88.4525 338.925,-82.9445"/>
</g>
<!-- Node10 -->
<g id="node21" class="node"><title>Node10</title>
<a xlink:href="_utils_8h.html" target="_top" xlink:title="Utils.h">
<polygon fill="white" stroke="black" points="575.5,-116.5 575.5,-137.5 620.5,-137.5 620.5,-116.5 575.5,-116.5"/>
<text text-anchor="middle" x="598" y="-124.5" font-family="Helvetica,sans-Serif" font-size="10.00">Utils.h</text>
</a>
</g>
<!-- Node7&#45;&gt;Node10 -->
<g id="edge22" class="edge"><title>Node7&#45;&gt;Node10</title>
<path fill="none" stroke="midnightblue" d="M555.538,-174.362C562.868,-166.186 573.163,-154.702 581.781,-145.091"/>
<polygon fill="midnightblue" stroke="midnightblue" points="584.453,-147.353 588.523,-137.571 579.241,-142.68 584.453,-147.353"/>
</g>
<!-- Node7&#45;&gt;Node11 -->
<g id="edge38" class="edge"><title>Node7&#45;&gt;Node11</title>
<path fill="none" stroke="midnightblue" d="M570.112,-179.327C650.422,-160.43 909.095,-99.5659 1003.82,-77.2778"/>
<polygon fill="midnightblue" stroke="midnightblue" points="1004.83,-80.6356 1013.76,-74.9381 1003.23,-73.8216 1004.83,-80.6356"/>
</g>
<!-- Node12 -->
<g id="node26" class="node"><title>Node12</title>
<a xlink:href="_g_n_uplot_8h.html" target="_top" xlink:title="GNUplot.h">
<polygon fill="white" stroke="black" points="457.5,-116.5 457.5,-137.5 520.5,-137.5 520.5,-116.5 457.5,-116.5"/>
<text text-anchor="middle" x="489" y="-124.5" font-family="Helvetica,sans-Serif" font-size="10.00">GNUplot.h</text>
</a>
</g>
<!-- Node7&#45;&gt;Node12 -->
<g id="edge28" class="edge"><title>Node7&#45;&gt;Node12</title>
<path fill="none" stroke="midnightblue" d="M535.545,-174.362C527.43,-166.104 515.999,-154.472 506.496,-144.803"/>
<polygon fill="midnightblue" stroke="midnightblue" points="508.894,-142.25 499.388,-137.571 503.901,-147.156 508.894,-142.25"/>
</g>
<!-- Node13 -->
<g id="node31" class="node"><title>Node13</title>
<polygon fill="white" stroke="#bfbfbf" points="960,-116.5 960,-137.5 1014,-137.5 1014,-116.5 960,-116.5"/>
<text text-anchor="middle" x="987" y="-124.5" font-family="Helvetica,sans-Serif" font-size="10.00">iostream</text>
</g>
<!-- Node7&#45;&gt;Node13 -->
<g id="edge36" class="edge"><title>Node7&#45;&gt;Node13</title>
<path fill="none" stroke="midnightblue" d="M570.023,-181.84C642.911,-172.254 861.911,-143.452 949.852,-131.886"/>
<polygon fill="midnightblue" stroke="midnightblue" points="950.45,-135.337 959.908,-130.563 949.537,-128.397 950.45,-135.337"/>
</g>
<!-- Node14 -->
<g id="node34" class="node"><title>Node14</title>
<polygon fill="white" stroke="#bfbfbf" points="638,-116.5 638,-137.5 684,-137.5 684,-116.5 638,-116.5"/>
<text text-anchor="middle" x="661" y="-124.5" font-family="Helvetica,sans-Serif" font-size="10.00">cstdint</text>
</g>
<!-- Node7&#45;&gt;Node14 -->
<g id="edge40" class="edge"><title>Node7&#45;&gt;Node14</title>
<path fill="none" stroke="midnightblue" d="M566.826,-174.497C584.706,-165.479 610.707,-152.365 630.861,-142.201"/>
<polygon fill="midnightblue" stroke="midnightblue" points="632.588,-145.249 639.941,-137.621 629.436,-138.999 632.588,-145.249"/>
</g>
<!-- Node7&#45;&gt;Node15 -->
<g id="edge42" class="edge"><title>Node7&#45;&gt;Node15</title>
<path fill="none" stroke="midnightblue" d="M570.114,-184.521C639.292,-182.751 844.29,-174.731 1021.29,-138.007"/>
<polygon fill="midnightblue" stroke="midnightblue" points="1022.24,-141.384 1031.3,-135.893 1020.79,-134.535 1022.24,-141.384"/>
</g>
<!-- Node8&#45;&gt;Node3 -->
<g id="edge20" class="edge"><title>Node8&#45;&gt;Node3</title>
<path fill="none" stroke="midnightblue" d="M283.283,-58.6308C247.104,-47.1641 189.661,-28.9583 157.277,-18.6945"/>
<polygon fill="midnightblue" stroke="midnightblue" points="158.293,-15.3447 147.702,-15.6598 156.178,-22.0176 158.293,-15.3447"/>
</g>
<!-- Node8&#45;&gt;Node5 -->
<g id="edge18" class="edge"><title>Node8&#45;&gt;Node5</title>
<path fill="none" stroke="midnightblue" d="M348.624,-62.29C403.537,-50.996 513.671,-28.3443 567.278,-17.3188"/>
<polygon fill="midnightblue" stroke="midnightblue" points="568.122,-20.7184 577.212,-15.2755 566.712,-13.862 568.122,-20.7184"/>
</g>
<!-- Node9 -->
<g id="node17" class="node"><title>Node9</title>
<polygon fill="white" stroke="#bfbfbf" points="291.5,-0.5 291.5,-21.5 340.5,-21.5 340.5,-0.5 291.5,-0.5"/>
<text text-anchor="middle" x="316" y="-8.5" font-family="Helvetica,sans-Serif" font-size="10.00">cstddef</text>
</g>
<!-- Node8&#45;&gt;Node9 -->
<g id="edge16" class="edge"><title>Node8&#45;&gt;Node9</title>
<path fill="none" stroke="midnightblue" d="M316,-58.3619C316,-50.9219 316,-40.7427 316,-31.7276"/>
<polygon fill="midnightblue" stroke="midnightblue" points="319.5,-31.5706 316,-21.5707 312.5,-31.5707 319.5,-31.5706"/>
</g>
<!-- Node10&#45;&gt;Node5 -->
<g id="edge24" class="edge"><title>Node10&#45;&gt;Node5</title>
<path fill="none" stroke="midnightblue" d="M598,-116.295C598,-97.1314 598,-56.654 598,-31.8434"/>
<polygon fill="midnightblue" stroke="midnightblue" points="601.5,-31.6792 598,-21.6792 594.5,-31.6792 601.5,-31.6792"/>
</g>
<!-- Node10&#45;&gt;Node11 -->
<g id="edge26" class="edge"><title>Node10&#45;&gt;Node11</title>
<path fill="none" stroke="midnightblue" d="M620.511,-118.346C623.341,-117.456 626.218,-116.644 629,-116 765.103,-84.4829 931.736,-73.7104 1003.43,-70.3658"/>
<polygon fill="midnightblue" stroke="midnightblue" points="1003.87,-73.8497 1013.7,-69.9076 1003.56,-66.8567 1003.87,-73.8497"/>
</g>
<!-- Node12&#45;&gt;Node3 -->
<g id="edge32" class="edge"><title>Node12&#45;&gt;Node3</title>
<path fill="none" stroke="midnightblue" d="M485.282,-116.308C479.253,-100.696 465.773,-72.0003 444,-58 396.565,-27.4992 223.217,-15.6204 158.019,-12.1693"/>
<polygon fill="midnightblue" stroke="midnightblue" points="157.999,-8.66394 147.835,-11.6531 157.645,-15.655 157.999,-8.66394"/>
</g>
<!-- Node12&#45;&gt;Node5 -->
<g id="edge30" class="edge"><title>Node12&#45;&gt;Node5</title>
<path fill="none" stroke="midnightblue" d="M494.369,-116.354C501.92,-102.042 516.702,-76.2856 534,-58 545.054,-46.315 559.326,-35.518 571.587,-27.227"/>
<polygon fill="midnightblue" stroke="midnightblue" points="573.641,-30.0657 580.085,-21.6558 569.803,-24.2116 573.641,-30.0657"/>
</g>
<!-- Node12&#45;&gt;Node8 -->
<g id="edge34" class="edge"><title>Node12&#45;&gt;Node8</title>
<path fill="none" stroke="midnightblue" d="M457.671,-116.497C429.467,-107.041 387.833,-93.0829 356.991,-82.7428"/>
<polygon fill="midnightblue" stroke="midnightblue" points="357.982,-79.3834 347.388,-79.5231 355.757,-86.0203 357.982,-79.3834"/>
</g>
<!-- Node16&#45;&gt;Node5 -->
<g id="edge50" class="edge"><title>Node16&#45;&gt;Node5</title>
<path fill="none" stroke="midnightblue" d="M823.72,-297.987C879.195,-292.034 993.28,-277.286 1025,-254 1097.3,-200.927 1141.59,-115.786 1073,-58 1039.03,-29.3764 728.687,-15.7282 628.81,-12.0509"/>
<polygon fill="midnightblue" stroke="midnightblue" points="628.874,-8.55103 618.755,-11.6884 628.622,-15.5465 628.874,-8.55103"/>
</g>
<!-- Node16&#45;&gt;Node7 -->
<g id="edge64" class="edge"><title>Node16&#45;&gt;Node7</title>
<path fill="none" stroke="midnightblue" d="M762.112,-300.355C698.222,-298.299 555.001,-289.72 525,-254 513.129,-239.866 521.891,-219.132 531.461,-204.084"/>
<polygon fill="midnightblue" stroke="midnightblue" points="534.545,-205.778 537.347,-195.56 528.785,-201.8 534.545,-205.778"/>
</g>
<!-- Node16&#45;&gt;Node8 -->
<g id="edge66" class="edge"><title>Node16&#45;&gt;Node8</title>
<path fill="none" stroke="midnightblue" d="M762.481,-297.887C699.796,-291.162 558.76,-274.241 515,-254 430.972,-215.133 358.82,-127.124 329.723,-88.1686"/>
<polygon fill="midnightblue" stroke="midnightblue" points="332.313,-85.7823 323.571,-79.796 326.672,-89.927 332.313,-85.7823"/>
</g>
<!-- Node16&#45;&gt;Node13 -->
<g id="edge56" class="edge"><title>Node16&#45;&gt;Node13</title>
<path fill="none" stroke="midnightblue" d="M823.784,-297.846C872.325,-292.177 963.185,-278.509 983,-254 1007.49,-223.712 1000.1,-174.791 993.157,-147.347"/>
<polygon fill="midnightblue" stroke="midnightblue" points="996.516,-146.363 990.491,-137.647 989.767,-148.218 996.516,-146.363"/>
</g>
<!-- Node16&#45;&gt;Node15 -->
<g id="edge52" class="edge"><title>Node16&#45;&gt;Node15</title>
<path fill="none" stroke="midnightblue" d="M823.721,-297.552C875.02,-291.24 975.149,-276.387 1002,-254 1034.65,-226.775 1047.98,-176.275 1053.09,-147.845"/>
<polygon fill="midnightblue" stroke="midnightblue" points="1056.57,-148.227 1054.72,-137.797 1049.66,-147.11 1056.57,-148.227"/>
</g>
<!-- Node17 -->
<g id="node44" class="node"><title>Node17</title>
<polygon fill="white" stroke="#bfbfbf" points="534,-232.5 534,-253.5 578,-253.5 578,-232.5 534,-232.5"/>
<text text-anchor="middle" x="556" y="-240.5" font-family="Helvetica,sans-Serif" font-size="10.00">cmath</text>
</g>
<!-- Node16&#45;&gt;Node17 -->
<g id="edge54" class="edge"><title>Node16&#45;&gt;Node17</title>
<path fill="none" stroke="midnightblue" d="M762.349,-295.171C723.753,-287.578 655.279,-273.276 588.142,-254.108"/>
<polygon fill="midnightblue" stroke="midnightblue" points="588.829,-250.663 578.25,-251.245 586.882,-257.387 588.829,-250.663"/>
</g>
<!-- Node18 -->
<g id="node47" class="node"><title>Node18</title>
<polygon fill="white" stroke="#bfbfbf" points="596,-232.5 596,-253.5 784,-253.5 784,-232.5 596,-232.5"/>
<text text-anchor="middle" x="690" y="-240.5" font-family="Helvetica,sans-Serif" font-size="10.00">boost/math/distributions/students_t.hpp</text>
</g>
<!-- Node16&#45;&gt;Node18 -->
<g id="edge58" class="edge"><title>Node16&#45;&gt;Node18</title>
<path fill="none" stroke="midnightblue" d="M774.108,-290.362C758.282,-281.45 735.477,-268.609 717.605,-258.545"/>
<polygon fill="midnightblue" stroke="midnightblue" points="719.203,-255.428 708.772,-253.571 715.768,-261.527 719.203,-255.428"/>
</g>
<!-- Node19 -->
<g id="node49" class="node"><title>Node19</title>
<polygon fill="white" stroke="#bfbfbf" points="802,-232.5 802,-253.5 974,-253.5 974,-232.5 802,-232.5"/>
<text text-anchor="middle" x="888" y="-240.5" font-family="Helvetica,sans-Serif" font-size="10.00">boost/math/distributions/normal.hpp</text>
</g>
<!-- Node16&#45;&gt;Node19 -->
<g id="edge60" class="edge"><title>Node16&#45;&gt;Node19</title>
<path fill="none" stroke="midnightblue" d="M810.424,-290.362C824.887,-281.532 845.669,-268.844 862.084,-258.822"/>
<polygon fill="midnightblue" stroke="midnightblue" points="863.975,-261.769 870.686,-253.571 860.327,-255.794 863.975,-261.769"/>
</g>
<!-- Node16&#45;&gt;Node20 -->
<g id="edge62" class="edge"><title>Node16&#45;&gt;Node20</title>
<path fill="none" stroke="midnightblue" d="M823.531,-298.539C883.066,-293.345 1018.59,-279.585 1130,-254 1131.26,-253.711 1132.54,-253.396 1133.82,-253.062"/>
<polygon fill="midnightblue" stroke="midnightblue" points="1135.03,-256.356 1143.67,-250.216 1133.09,-249.632 1135.03,-256.356"/>
</g>
<!-- Node16&#45;&gt;Node21 -->
<g id="edge68" class="edge"><title>Node16&#45;&gt;Node21</title>
<path fill="none" stroke="midnightblue" d="M762.196,-297.15C682.306,-287.163 468.145,-260.393 374.212,-248.651"/>
<polygon fill="midnightblue" stroke="midnightblue" points="374.525,-245.163 364.168,-247.396 373.657,-252.109 374.525,-245.163"/>
</g>
<!-- Node21&#45;&gt;Node7 -->
<g id="edge70" class="edge"><title>Node21&#45;&gt;Node7</title>
<path fill="none" stroke="midnightblue" d="M364.348,-233.552C405.115,-222.656 471.672,-204.866 511.903,-194.114"/>
<polygon fill="midnightblue" stroke="midnightblue" points="513.019,-197.438 521.776,-191.475 511.211,-190.676 513.019,-197.438"/>
</g>
<!-- Node21&#45;&gt;Node8 -->
<g id="edge72" class="edge"><title>Node21&#45;&gt;Node8</title>
<path fill="none" stroke="midnightblue" d="M328.206,-232.377C326.108,-204.293 320.384,-127.673 317.584,-90.2027"/>
<polygon fill="midnightblue" stroke="midnightblue" points="321.052,-89.6391 316.816,-79.9277 314.071,-90.1607 321.052,-89.6391"/>
</g>
<!-- Node22&#45;&gt;Node3 -->
<g id="edge76" class="edge"><title>Node22&#45;&gt;Node3</title>
<path fill="none" stroke="midnightblue" d="M476.078,-348.417C426.31,-333.893 341.916,-303.76 285,-254 209.929,-188.367 159.249,-76.5907 140.774,-31.1264"/>
<polygon fill="midnightblue" stroke="midnightblue" points="143.997,-29.7589 137.046,-21.7624 137.493,-32.3478 143.997,-29.7589"/>
</g>
<!-- Node22&#45;&gt;Node5 -->
<g id="edge78" class="edge"><title>Node22&#45;&gt;Node5</title>
<path fill="none" stroke="midnightblue" d="M514.877,-348.36C509.556,-319.683 497.171,-238.589 513,-174 516.737,-158.751 564.95,-70.6393 587.057,-30.6869"/>
<polygon fill="midnightblue" stroke="midnightblue" points="590.166,-32.2974 591.954,-21.8544 584.044,-28.9034 590.166,-32.2974"/>
</g>
<!-- Node22&#45;&gt;Node16 -->
<g id="edge80" class="edge"><title>Node22&#45;&gt;Node16</title>
<path fill="none" stroke="midnightblue" d="M566.982,-348.497C620.061,-337.342 702.959,-319.922 752.234,-309.567"/>
<polygon fill="midnightblue" stroke="midnightblue" points="753.149,-312.951 762.215,-307.469 751.709,-306.101 753.149,-312.951"/>
</g>
<!-- Node23&#45;&gt;Node5 -->
<g id="edge98" class="edge"><title>Node23&#45;&gt;Node5</title>
<path fill="none" stroke="midnightblue" d="M1199.05,-354.144C1260.76,-344.713 1364,-317.763 1364,-243 1364,-243 1364,-243 1364,-127 1364,-51.379 772.856,-19.1007 629.185,-12.3725"/>
<polygon fill="midnightblue" stroke="midnightblue" points="629.036,-8.86203 618.886,-11.8984 628.714,-15.8546 629.036,-8.86203"/>
</g>
<!-- Node23&#45;&gt;Node7 -->
<g id="edge94" class="edge"><title>Node23&#45;&gt;Node7</title>
<path fill="none" stroke="midnightblue" d="M1144.04,-348.441C1119.47,-323.184 1052.91,-259.354 983,-232 909.595,-203.278 670.049,-190.304 580.335,-186.366"/>
<polygon fill="midnightblue" stroke="midnightblue" points="580.299,-182.862 570.159,-185.93 580,-189.855 580.299,-182.862"/>
</g>
<!-- Node23&#45;&gt;Node11 -->
<g id="edge102" class="edge"><title>Node23&#45;&gt;Node11</title>
<path fill="none" stroke="midnightblue" d="M1182.39,-348.444C1217.85,-333.528 1276.91,-302.561 1302,-254 1324.15,-211.127 1333.19,-177.927 1264,-116 1236.41,-91.3098 1130.62,-77.7203 1074.48,-72.1101"/>
<polygon fill="midnightblue" stroke="midnightblue" points="1074.57,-68.6024 1064.28,-71.124 1073.9,-75.57 1074.57,-68.6024"/>
</g>
<!-- Node23&#45;&gt;Node13 -->
<g id="edge100" class="edge"><title>Node23&#45;&gt;Node13</title>
<path fill="none" stroke="midnightblue" d="M1162.77,-348.393C1180.48,-325.617 1216.86,-270.94 1193,-232 1173.9,-200.825 1077.68,-160.851 1023.76,-140.386"/>
<polygon fill="midnightblue" stroke="midnightblue" points="1024.8,-137.04 1014.21,-136.798 1022.34,-143.592 1024.8,-137.04"/>
</g>
<!-- Node23&#45;&gt;Node16 -->
<g id="edge96" class="edge"><title>Node23&#45;&gt;Node16</title>
<path fill="none" stroke="midnightblue" d="M1108.93,-350.453C1104.23,-349.605 1099.52,-348.773 1095,-348 1001.94,-332.087 892.355,-315.59 834.168,-307.008"/>
<polygon fill="midnightblue" stroke="midnightblue" points="834.32,-303.493 823.917,-305.499 833.301,-310.418 834.32,-303.493"/>
</g>
<!-- Node24&#45;&gt;Node3 -->
<g id="edge110" class="edge"><title>Node24&#45;&gt;Node3</title>
<path fill="none" stroke="midnightblue" d="M579.79,-471.887C493.063,-466.039 321.31,-451.81 266,-428 140.078,-373.792 76,-322.094 76,-185 76,-185 76,-185 76,-127 76,-89.5289 100.254,-51.5841 117.12,-29.7281"/>
<polygon fill="midnightblue" stroke="midnightblue" points="120.067,-31.6467 123.588,-21.6538 114.604,-27.2705 120.067,-31.6467"/>
</g>
<!-- Node24&#45;&gt;Node4 -->
<g id="edge108" class="edge"><title>Node24&#45;&gt;Node4</title>
<path fill="none" stroke="midnightblue" d="M682.298,-464.94C725.823,-456.118 789.807,-442.468 845,-428 846.422,-427.627 847.873,-427.235 849.335,-426.829"/>
<polygon fill="midnightblue" stroke="midnightblue" points="850.365,-430.175 858.995,-424.03 848.416,-423.452 850.365,-430.175"/>
</g>
<!-- Node24&#45;&gt;Node6 -->
<g id="edge120" class="edge"><title>Node24&#45;&gt;Node6</title>
<path fill="none" stroke="midnightblue" d="M594.6,-464.497C560.372,-454.62 509.119,-439.83 472.914,-429.383"/>
<polygon fill="midnightblue" stroke="midnightblue" points="473.707,-425.969 463.129,-426.559 471.766,-432.695 473.707,-425.969"/>
</g>
<!-- Node24&#45;&gt;Node8 -->
<g id="edge118" class="edge"><title>Node24&#45;&gt;Node8</title>
<path fill="none" stroke="midnightblue" d="M579.96,-471.083C471.518,-461.354 228,-431.442 228,-359 228,-359 228,-359 228,-185 228,-142.758 265.498,-106.236 291.538,-85.9659"/>
<polygon fill="midnightblue" stroke="midnightblue" points="293.956,-88.5278 299.859,-79.73 289.758,-82.9261 293.956,-88.5278"/>
</g>
<!-- Node24&#45;&gt;Node16 -->
<g id="edge116" class="edge"><title>Node24&#45;&gt;Node16</title>
<path fill="none" stroke="midnightblue" d="M681.075,-464.411C717.222,-455.726 761.74,-442.53 774,-428 799.272,-398.049 798.797,-349.351 796.017,-321.773"/>
<polygon fill="midnightblue" stroke="midnightblue" points="799.472,-321.189 794.798,-311.681 792.522,-322.028 799.472,-321.189"/>
</g>
<!-- Node24&#45;&gt;Node23 -->
<g id="edge122" class="edge"><title>Node24&#45;&gt;Node23</title>
<path fill="none" stroke="midnightblue" d="M681.587,-464.492C717.257,-456.362 765.818,-443.828 807,-428 827.038,-420.299 829.577,-412.613 850,-406 895.129,-391.387 1024.01,-374.423 1098.68,-365.407"/>
<polygon fill="midnightblue" stroke="midnightblue" points="1099.33,-368.854 1108.84,-364.189 1098.49,-361.904 1099.33,-368.854"/>
</g>
<!-- Node25 -->
<g id="node78" class="node"><title>Node25</title>
<polygon fill="white" stroke="#bfbfbf" points="613,-406.5 613,-427.5 765,-427.5 765,-406.5 613,-406.5"/>
<text text-anchor="middle" x="689" y="-414.5" font-family="Helvetica,sans-Serif" font-size="10.00">boost/graph/adjacency_list.hpp</text>
</g>
<!-- Node24&#45;&gt;Node25 -->
<g id="edge106" class="edge"><title>Node24&#45;&gt;Node25</title>
<path fill="none" stroke="midnightblue" d="M641.638,-464.362C649.896,-456.104 661.528,-444.472 671.197,-434.803"/>
<polygon fill="midnightblue" stroke="midnightblue" points="673.833,-437.117 678.429,-427.571 668.883,-432.167 673.833,-437.117"/>
</g>
<!-- Node26 -->
<g id="node82" class="node"><title>Node26</title>
<polygon fill="white" stroke="#bfbfbf" points="481,-406.5 481,-427.5 533,-427.5 533,-406.5 481,-406.5"/>
<text text-anchor="middle" x="507" y="-414.5" font-family="Helvetica,sans-Serif" font-size="10.00">ostream</text>
</g>
<!-- Node24&#45;&gt;Node26 -->
<g id="edge112" class="edge"><title>Node24&#45;&gt;Node26</title>
<path fill="none" stroke="midnightblue" d="M608.545,-464.497C589.09,-455.397 560.72,-442.127 538.909,-431.925"/>
<polygon fill="midnightblue" stroke="midnightblue" points="540.248,-428.688 529.707,-427.621 537.283,-435.028 540.248,-428.688"/>
</g>
<!-- Node27 -->
<g id="node84" class="node"><title>Node27</title>
<polygon fill="white" stroke="#bfbfbf" points="551,-406.5 551,-427.5 595,-427.5 595,-406.5 551,-406.5"/>
<text text-anchor="middle" x="573" y="-414.5" font-family="Helvetica,sans-Serif" font-size="10.00">time.h</text>
</g>
<!-- Node24&#45;&gt;Node27 -->
<g id="edge114" class="edge"><title>Node24&#45;&gt;Node27</title>
<path fill="none" stroke="midnightblue" d="M620.362,-464.362C612.104,-456.104 600.472,-444.472 590.803,-434.803"/>
<polygon fill="midnightblue" stroke="midnightblue" points="593.117,-432.167 583.571,-427.571 588.167,-437.117 593.117,-432.167"/>
</g>
</g>
</svg>
