<?xml version="1.0" encoding="UTF-8" standalone="no"?>
<!DOCTYPE svg PUBLIC "-//W3C//DTD SVG 1.1//EN"
 "http://www.w3.org/Graphics/SVG/1.1/DTD/svg11.dtd">
<!-- Generated by graphviz version 2.26.3 (20100126.1600)
 -->
<!-- Title: G Pages: 1 -->
<svg width="1358pt" height="552pt"
 viewBox="0.00 0.00 1358.00 552.00" xmlns="http://www.w3.org/2000/svg" xmlns:xlink="http://www.w3.org/1999/xlink">
<g id="graph1" class="graph" transform="scale(1 1) rotate(0) translate(4 548)">
<title>G</title>
<polygon fill="white" stroke="white" points="-4,5 -4,-548 1355,-548 1355,5 -4,5"/>
<!-- Node1 -->
<g id="node1" class="node"><title>Node1</title>
<polygon fill="#bfbfbf" stroke="black" points="455.5,-522.5 455.5,-543.5 820.5,-543.5 820.5,-522.5 455.5,-522.5"/>
<text text-anchor="middle" x="638" y="-530.5" font-family="Helvetica,sans-Serif" font-size="10.00">/mnt/sshfs/imperialroot/homes/dk3810/workingcopies/disaggregate/src/Device.h</text>
</g>
<!-- Node2 -->
<g id="node3" class="node"><title>Node2</title>
<polygon fill="white" stroke="#bfbfbf" points="199.5,-0.5 199.5,-21.5 228.5,-21.5 228.5,-0.5 199.5,-0.5"/>
<text text-anchor="middle" x="214" y="-8.5" font-family="Helvetica,sans-Serif" font-size="10.00">list</text>
</g>
<!-- Node1&#45;&gt;Node2 -->
<g id="edge2" class="edge"><title>Node1&#45;&gt;Node2</title>
<path fill="none" stroke="midnightblue" d="M510.042,-522.472C323.796,-505.396 0,-468.329 0,-417 0,-417 0,-417 0,-127 0,-41.8198 132.664,-18.8621 189.085,-12.9501"/>
<polygon fill="midnightblue" stroke="midnightblue" points="189.666,-16.4107 199.291,-11.9816 189.005,-9.44204 189.666,-16.4107"/>
</g>
<!-- Node3 -->
<g id="node5" class="node"><title>Node3</title>
<polygon fill="white" stroke="#bfbfbf" points="28,-406.5 28,-427.5 72,-427.5 72,-406.5 28,-406.5"/>
<text text-anchor="middle" x="50" y="-414.5" font-family="Helvetica,sans-Serif" font-size="10.00">vector</text>
</g>
<!-- Node1&#45;&gt;Node3 -->
<g id="edge4" class="edge"><title>Node1&#45;&gt;Node3</title>
<path fill="none" stroke="midnightblue" d="M569.932,-522.497C465.211,-505.79 258.596,-470.651 86,-428 84.7509,-427.691 83.4811,-427.365 82.201,-427.026"/>
<polygon fill="midnightblue" stroke="midnightblue" points="82.9388,-423.597 72.3638,-424.244 81.0343,-430.333 82.9388,-423.597"/>
</g>
<!-- Node4 -->
<g id="node7" class="node"><title>Node4</title>
<polygon fill="white" stroke="#bfbfbf" points="1139.5,-0.5 1139.5,-21.5 1180.5,-21.5 1180.5,-0.5 1139.5,-0.5"/>
<text text-anchor="middle" x="1160" y="-8.5" font-family="Helvetica,sans-Serif" font-size="10.00">string</text>
</g>
<!-- Node1&#45;&gt;Node4 -->
<g id="edge6" class="edge"><title>Node1&#45;&gt;Node4</title>
<path fill="none" stroke="midnightblue" d="M800.009,-522.477C1010.11,-506.609 1350,-472.38 1350,-417 1350,-417 1350,-417 1350,-127 1350,-53.2671 1244.48,-25.0072 1190.71,-15.3937"/>
<polygon fill="midnightblue" stroke="midnightblue" points="1191.14,-11.9162 1180.7,-13.7117 1189.98,-18.8195 1191.14,-11.9162"/>
</g>
<!-- Node5 -->
<g id="node9" class="node"><title>Node5</title>
<a xlink:href="_signature_8h.html" target="_top" xlink:title="Signature.h">
<polygon fill="white" stroke="black" points="333,-406.5 333,-427.5 399,-427.5 399,-406.5 333,-406.5"/>
<text text-anchor="middle" x="366" y="-414.5" font-family="Helvetica,sans-Serif" font-size="10.00">Signature.h</text>
</a>
</g>
<!-- Node1&#45;&gt;Node5 -->
<g id="edge8" class="edge"><title>Node1&#45;&gt;Node5</title>
<path fill="none" stroke="midnightblue" d="M563.48,-522.462C527.533,-515.415 484.596,-504.021 449,-486 423.374,-473.027 398.679,-450.852 382.988,-435.146"/>
<polygon fill="midnightblue" stroke="midnightblue" points="385.129,-432.328 375.645,-427.605 380.114,-437.211 385.129,-432.328"/>
</g>
<!-- Node15 -->
<g id="node38" class="node"><title>Node15</title>
<a xlink:href="_statistic_8h.html" target="_top" xlink:title="Statistic.h">
<polygon fill="white" stroke="black" points="591.5,-290.5 591.5,-311.5 652.5,-311.5 652.5,-290.5 591.5,-290.5"/>
<text text-anchor="middle" x="622" y="-298.5" font-family="Helvetica,sans-Serif" font-size="10.00">Statistic.h</text>
</a>
</g>
<!-- Node1&#45;&gt;Node15 -->
<g id="edge86" class="edge"><title>Node1&#45;&gt;Node15</title>
<path fill="none" stroke="midnightblue" d="M678.804,-522.476C699.974,-515.228 724.908,-503.65 742,-486 767.824,-459.333 782.824,-439.09 766,-406 743.633,-362.009 693.236,-332.074 658.421,-315.758"/>
<polygon fill="midnightblue" stroke="midnightblue" points="659.605,-312.452 649.051,-311.517 656.718,-318.829 659.605,-312.452"/>
</g>
<!-- Node21 -->
<g id="node57" class="node"><title>Node21</title>
<a xlink:href="_power_state_sequence_8h.html" target="_top" xlink:title="PowerStateSequence.h">
<polygon fill="white" stroke="black" points="475.5,-348.5 475.5,-369.5 594.5,-369.5 594.5,-348.5 475.5,-348.5"/>
<text text-anchor="middle" x="535" y="-356.5" font-family="Helvetica,sans-Serif" font-size="10.00">PowerStateSequence.h</text>
</a>
</g>
<!-- Node1&#45;&gt;Node21 -->
<g id="edge88" class="edge"><title>Node1&#45;&gt;Node21</title>
<path fill="none" stroke="midnightblue" d="M659.828,-522.357C701.154,-500.819 783.624,-450.342 748,-406 730.166,-383.801 659.777,-371.464 604.736,-365.063"/>
<polygon fill="midnightblue" stroke="midnightblue" points="604.98,-361.569 594.653,-363.936 604.203,-368.525 604.98,-361.569"/>
</g>
<!-- Node22 -->
<g id="node67" class="node"><title>Node22</title>
<a xlink:href="_aggregate_data_8h.html" target="_top" xlink:title="AggregateData.h">
<polygon fill="white" stroke="black" points="1039,-348.5 1039,-369.5 1129,-369.5 1129,-348.5 1039,-348.5"/>
<text text-anchor="middle" x="1084" y="-356.5" font-family="Helvetica,sans-Serif" font-size="10.00">AggregateData.h</text>
</a>
</g>
<!-- Node1&#45;&gt;Node22 -->
<g id="edge90" class="edge"><title>Node1&#45;&gt;Node22</title>
<path fill="none" stroke="midnightblue" d="M689.123,-522.496C725.823,-514.289 776.159,-501.662 819,-486 908.655,-453.224 1008.82,-400.515 1056.23,-374.52"/>
<polygon fill="midnightblue" stroke="midnightblue" points="1058.2,-377.436 1065.26,-369.543 1054.82,-371.306 1058.2,-377.436"/>
</g>
<!-- Node23 -->
<g id="node74" class="node"><title>Node23</title>
<a xlink:href="_power_state_graph_8h.html" target="_top" xlink:title="PowerStateGraph.h">
<polygon fill="white" stroke="black" points="458,-464.5 458,-485.5 560,-485.5 560,-464.5 458,-464.5"/>
<text text-anchor="middle" x="509" y="-472.5" font-family="Helvetica,sans-Serif" font-size="10.00">PowerStateGraph.h</text>
</a>
</g>
<!-- Node1&#45;&gt;Node23 -->
<g id="edge102" class="edge"><title>Node1&#45;&gt;Node23</title>
<path fill="none" stroke="midnightblue" d="M614.639,-522.497C594.309,-513.356 564.622,-500.008 541.891,-489.788"/>
<polygon fill="midnightblue" stroke="midnightblue" points="543.179,-486.53 532.623,-485.621 540.308,-492.914 543.179,-486.53"/>
</g>
<!-- Node5&#45;&gt;Node2 -->
<g id="edge82" class="edge"><title>Node5&#45;&gt;Node2</title>
<path fill="none" stroke="midnightblue" d="M332.905,-412.174C278.468,-402.159 176,-373.658 176,-301 176,-301 176,-301 176,-127 176,-91.7411 192.051,-53.3154 203.289,-30.7323"/>
<polygon fill="midnightblue" stroke="midnightblue" points="206.418,-32.3005 207.895,-21.809 200.198,-29.0901 206.418,-32.3005"/>
</g>
<!-- Node6 -->
<g id="node11" class="node"><title>Node6</title>
<a xlink:href="_array_8h.html" target="_top" xlink:title="Array.h">
<polygon fill="white" stroke="black" points="492,-174.5 492,-195.5 540,-195.5 540,-174.5 492,-174.5"/>
<text text-anchor="middle" x="516" y="-182.5" font-family="Helvetica,sans-Serif" font-size="10.00">Array.h</text>
</a>
</g>
<!-- Node5&#45;&gt;Node6 -->
<g id="edge10" class="edge"><title>Node5&#45;&gt;Node6</title>
<path fill="none" stroke="midnightblue" d="M372.835,-406.429C396.213,-370.271 473.207,-251.186 503.551,-204.255"/>
<polygon fill="midnightblue" stroke="midnightblue" points="506.635,-205.932 509.125,-195.634 500.756,-202.131 506.635,-205.932"/>
</g>
<!-- Node7 -->
<g id="node13" class="node"><title>Node7</title>
<a xlink:href="_common_8h.html" target="_top" xlink:title="Common.h">
<polygon fill="white" stroke="black" points="314.5,-58.5 314.5,-79.5 379.5,-79.5 379.5,-58.5 314.5,-58.5"/>
<text text-anchor="middle" x="347" y="-66.5" font-family="Helvetica,sans-Serif" font-size="10.00">Common.h</text>
</a>
</g>
<!-- Node5&#45;&gt;Node7 -->
<g id="edge44" class="edge"><title>Node5&#45;&gt;Node7</title>
<path fill="none" stroke="midnightblue" d="M332.953,-409.066C312.686,-402.31 288.332,-390.352 276,-370 218.637,-275.329 299.717,-137.921 333.456,-88.0139"/>
<polygon fill="midnightblue" stroke="midnightblue" points="336.364,-89.9624 339.161,-79.7434 330.602,-85.9877 336.364,-89.9624"/>
</g>
<!-- Node10 -->
<g id="node22" class="node"><title>Node10</title>
<polygon fill="white" stroke="#bfbfbf" points="624,-58.5 624,-79.5 674,-79.5 674,-58.5 624,-58.5"/>
<text text-anchor="middle" x="649" y="-66.5" font-family="Helvetica,sans-Serif" font-size="10.00">fstream</text>
</g>
<!-- Node5&#45;&gt;Node10 -->
<g id="edge84" class="edge"><title>Node5&#45;&gt;Node10</title>
<path fill="none" stroke="midnightblue" d="M356.825,-406.175C332.709,-376.342 271.88,-291.235 309,-232 359.877,-150.814 418.373,-182.922 503,-138 520.237,-128.85 523.58,-124.797 541,-116 565.06,-103.85 592.976,-91.7515 614.398,-82.8726"/>
<polygon fill="midnightblue" stroke="midnightblue" points="615.827,-86.0693 623.746,-79.0311 613.167,-79.5947 615.827,-86.0693"/>
</g>
<!-- Node5&#45;&gt;Node15 -->
<g id="edge46" class="edge"><title>Node5&#45;&gt;Node15</title>
<path fill="none" stroke="midnightblue" d="M378.612,-406.486C396.999,-391.617 432.72,-364.427 467,-348 504.069,-330.236 549.343,-317.435 581.365,-309.72"/>
<polygon fill="midnightblue" stroke="midnightblue" points="582.334,-313.088 591.269,-307.394 580.734,-306.273 582.334,-313.088"/>
</g>
<!-- Node20 -->
<g id="node53" class="node"><title>Node20</title>
<a xlink:href="_histogram_8h.html" target="_top" xlink:title="Histogram.h">
<polygon fill="white" stroke="black" points="318,-232.5 318,-253.5 388,-253.5 388,-232.5 318,-232.5"/>
<text text-anchor="middle" x="353" y="-240.5" font-family="Helvetica,sans-Serif" font-size="10.00">Histogram.h</text>
</a>
</g>
<!-- Node5&#45;&gt;Node20 -->
<g id="edge80" class="edge"><title>Node5&#45;&gt;Node20</title>
<path fill="none" stroke="midnightblue" d="M365.206,-406.377C363.108,-378.293 357.384,-301.673 354.584,-264.203"/>
<polygon fill="midnightblue" stroke="midnightblue" points="358.052,-263.639 353.816,-253.928 351.071,-264.161 358.052,-263.639"/>
</g>
<!-- Node5&#45;&gt;Node21 -->
<g id="edge72" class="edge"><title>Node5&#45;&gt;Node21</title>
<path fill="none" stroke="midnightblue" d="M396.605,-406.497C424.037,-397.082 464.476,-383.204 494.564,-372.877"/>
<polygon fill="midnightblue" stroke="midnightblue" points="496.016,-376.08 504.338,-369.523 493.743,-369.459 496.016,-376.08"/>
</g>
<!-- Node6&#45;&gt;Node2 -->
<g id="edge42" class="edge"><title>Node6&#45;&gt;Node2</title>
<path fill="none" stroke="midnightblue" d="M491.989,-177.731C466.482,-169.592 425.323,-155.256 392,-138 351.061,-116.8 343.564,-106.728 306,-80 281.564,-62.6132 254.13,-41.8743 235.629,-27.7031"/>
<polygon fill="midnightblue" stroke="midnightblue" points="237.621,-24.8198 227.558,-21.5038 233.357,-30.3711 237.621,-24.8198"/>
</g>
<!-- Node6&#45;&gt;Node7 -->
<g id="edge12" class="edge"><title>Node6&#45;&gt;Node7</title>
<path fill="none" stroke="midnightblue" d="M491.694,-174.891C472.322,-166.332 444.91,-153.072 423,-138 401.196,-123.001 379.115,-102.186 364.415,-87.3485"/>
<polygon fill="midnightblue" stroke="midnightblue" points="366.541,-84.5157 357.056,-79.7956 361.528,-89.4006 366.541,-84.5157"/>
</g>
<!-- Node9 -->
<g id="node19" class="node"><title>Node9</title>
<a xlink:href="_utils_8h.html" target="_top" xlink:title="Utils.h">
<polygon fill="white" stroke="black" points="651.5,-116.5 651.5,-137.5 696.5,-137.5 696.5,-116.5 651.5,-116.5"/>
<text text-anchor="middle" x="674" y="-124.5" font-family="Helvetica,sans-Serif" font-size="10.00">Utils.h</text>
</a>
</g>
<!-- Node6&#45;&gt;Node9 -->
<g id="edge20" class="edge"><title>Node6&#45;&gt;Node9</title>
<path fill="none" stroke="midnightblue" d="M540.341,-176.065C567.561,-166.072 611.762,-149.847 641.818,-138.814"/>
<polygon fill="midnightblue" stroke="midnightblue" points="643.243,-142.019 651.424,-135.287 640.83,-135.448 643.243,-142.019"/>
</g>
<!-- Node6&#45;&gt;Node10 -->
<g id="edge36" class="edge"><title>Node6&#45;&gt;Node10</title>
<path fill="none" stroke="midnightblue" d="M540,-176.319C559.207,-168.494 585.981,-155.523 605,-138 620.111,-124.077 632.192,-103.863 639.843,-88.9104"/>
<polygon fill="midnightblue" stroke="midnightblue" points="643.175,-90.0629 644.415,-79.5409 636.884,-86.993 643.175,-90.0629"/>
</g>
<!-- Node11 -->
<g id="node24" class="node"><title>Node11</title>
<a xlink:href="_g_n_uplot_8h.html" target="_top" xlink:title="GNUplot.h">
<polygon fill="white" stroke="black" points="431.5,-116.5 431.5,-137.5 494.5,-137.5 494.5,-116.5 431.5,-116.5"/>
<text text-anchor="middle" x="463" y="-124.5" font-family="Helvetica,sans-Serif" font-size="10.00">GNUplot.h</text>
</a>
</g>
<!-- Node6&#45;&gt;Node11 -->
<g id="edge26" class="edge"><title>Node6&#45;&gt;Node11</title>
<path fill="none" stroke="midnightblue" d="M506.279,-174.362C498.808,-166.186 488.314,-154.702 479.531,-145.091"/>
<polygon fill="midnightblue" stroke="midnightblue" points="481.989,-142.592 472.659,-137.571 476.821,-147.314 481.989,-142.592"/>
</g>
<!-- Node12 -->
<g id="node29" class="node"><title>Node12</title>
<polygon fill="white" stroke="#bfbfbf" points="1078,-116.5 1078,-137.5 1132,-137.5 1132,-116.5 1078,-116.5"/>
<text text-anchor="middle" x="1105" y="-124.5" font-family="Helvetica,sans-Serif" font-size="10.00">iostream</text>
</g>
<!-- Node6&#45;&gt;Node12 -->
<g id="edge34" class="edge"><title>Node6&#45;&gt;Node12</title>
<path fill="none" stroke="midnightblue" d="M540.188,-182.618C631.725,-173.604 957.324,-141.542 1067.92,-130.651"/>
<polygon fill="midnightblue" stroke="midnightblue" points="1068.33,-134.128 1077.94,-129.665 1067.65,-127.161 1068.33,-134.128"/>
</g>
<!-- Node13 -->
<g id="node32" class="node"><title>Node13</title>
<polygon fill="white" stroke="#bfbfbf" points="550,-116.5 550,-137.5 596,-137.5 596,-116.5 550,-116.5"/>
<text text-anchor="middle" x="573" y="-124.5" font-family="Helvetica,sans-Serif" font-size="10.00">cstdint</text>
</g>
<!-- Node6&#45;&gt;Node13 -->
<g id="edge38" class="edge"><title>Node6&#45;&gt;Node13</title>
<path fill="none" stroke="midnightblue" d="M526.455,-174.362C534.57,-166.104 546.001,-154.472 555.504,-144.803"/>
<polygon fill="midnightblue" stroke="midnightblue" points="558.099,-147.156 562.612,-137.571 553.106,-142.25 558.099,-147.156"/>
</g>
<!-- Node14 -->
<g id="node34" class="node"><title>Node14</title>
<polygon fill="white" stroke="#bfbfbf" points="713.5,-116.5 713.5,-137.5 762.5,-137.5 762.5,-116.5 713.5,-116.5"/>
<text text-anchor="middle" x="738" y="-124.5" font-family="Helvetica,sans-Serif" font-size="10.00">cassert</text>
</g>
<!-- Node6&#45;&gt;Node14 -->
<g id="edge40" class="edge"><title>Node6&#45;&gt;Node14</title>
<path fill="none" stroke="midnightblue" d="M540.028,-179.658C574.324,-171.898 639.462,-156.658 703.371,-138.342"/>
<polygon fill="midnightblue" stroke="midnightblue" points="704.566,-141.64 713.199,-135.498 702.62,-134.916 704.566,-141.64"/>
</g>
<!-- Node7&#45;&gt;Node2 -->
<g id="edge18" class="edge"><title>Node7&#45;&gt;Node2</title>
<path fill="none" stroke="midnightblue" d="M322.915,-58.4966C298.942,-48.0422 262.347,-32.0837 238.299,-21.5966"/>
<polygon fill="midnightblue" stroke="midnightblue" points="239.4,-18.2584 228.835,-17.4692 236.602,-24.6748 239.4,-18.2584"/>
</g>
<!-- Node7&#45;&gt;Node4 -->
<g id="edge16" class="edge"><title>Node7&#45;&gt;Node4</title>
<path fill="none" stroke="midnightblue" d="M379.624,-66.6725C511.01,-57.2994 1000.47,-22.3813 1128.95,-13.2152"/>
<polygon fill="midnightblue" stroke="midnightblue" points="1129.52,-16.6834 1139.25,-12.4806 1129.02,-9.70119 1129.52,-16.6834"/>
</g>
<!-- Node8 -->
<g id="node15" class="node"><title>Node8</title>
<polygon fill="white" stroke="#bfbfbf" points="322.5,-0.5 322.5,-21.5 371.5,-21.5 371.5,-0.5 322.5,-0.5"/>
<text text-anchor="middle" x="347" y="-8.5" font-family="Helvetica,sans-Serif" font-size="10.00">cstddef</text>
</g>
<!-- Node7&#45;&gt;Node8 -->
<g id="edge14" class="edge"><title>Node7&#45;&gt;Node8</title>
<path fill="none" stroke="midnightblue" d="M347,-58.3619C347,-50.9219 347,-40.7427 347,-31.7276"/>
<polygon fill="midnightblue" stroke="midnightblue" points="350.5,-31.5706 347,-21.5707 343.5,-31.5707 350.5,-31.5706"/>
</g>
<!-- Node9&#45;&gt;Node4 -->
<g id="edge22" class="edge"><title>Node9&#45;&gt;Node4</title>
<path fill="none" stroke="midnightblue" d="M696.59,-118.649C699.406,-117.707 702.259,-116.8 705,-116 862.624,-70.01 1055.64,-31.0672 1129.38,-16.8079"/>
<polygon fill="midnightblue" stroke="midnightblue" points="1130.22,-20.2111 1139.38,-14.8852 1128.9,-13.3371 1130.22,-20.2111"/>
</g>
<!-- Node9&#45;&gt;Node10 -->
<g id="edge24" class="edge"><title>Node9&#45;&gt;Node10</title>
<path fill="none" stroke="midnightblue" d="M669.415,-116.362C666.102,-108.677 661.53,-98.0686 657.552,-88.8399"/>
<polygon fill="midnightblue" stroke="midnightblue" points="660.729,-87.3685 653.556,-79.5707 654.301,-90.1393 660.729,-87.3685"/>
</g>
<!-- Node11&#45;&gt;Node2 -->
<g id="edge30" class="edge"><title>Node11&#45;&gt;Node2</title>
<path fill="none" stroke="midnightblue" d="M454.469,-116.432C441.639,-101.241 415.891,-73.3742 388,-58 339.287,-31.1481 274.328,-18.9253 239.173,-13.9624"/>
<polygon fill="midnightblue" stroke="midnightblue" points="239.237,-10.4404 228.864,-12.5968 238.318,-17.3798 239.237,-10.4404"/>
</g>
<!-- Node11&#45;&gt;Node4 -->
<g id="edge28" class="edge"><title>Node11&#45;&gt;Node4</title>
<path fill="none" stroke="midnightblue" d="M480.969,-116.386C508.676,-100.598 563.975,-71.3596 615,-58 713.504,-32.209 1029.38,-16.648 1129.36,-12.2749"/>
<polygon fill="midnightblue" stroke="midnightblue" points="1129.56,-15.7693 1139.4,-11.8415 1129.26,-8.77581 1129.56,-15.7693"/>
</g>
<!-- Node11&#45;&gt;Node7 -->
<g id="edge32" class="edge"><title>Node11&#45;&gt;Node7</title>
<path fill="none" stroke="midnightblue" d="M441.993,-116.497C423.957,-107.479 397.73,-94.3649 377.401,-84.2006"/>
<polygon fill="midnightblue" stroke="midnightblue" points="378.752,-80.9629 368.242,-79.6212 375.621,-87.2239 378.752,-80.9629"/>
</g>
<!-- Node15&#45;&gt;Node4 -->
<g id="edge48" class="edge"><title>Node15&#45;&gt;Node4</title>
<path fill="none" stroke="midnightblue" d="M652.514,-300.462C743.111,-298.468 1009.06,-289.649 1087,-254 1127.6,-235.43 1160,-229.644 1160,-185 1160,-185 1160,-185 1160,-127 1160,-93.5978 1160,-54.7853 1160,-31.5939"/>
<polygon fill="midnightblue" stroke="midnightblue" points="1163.5,-31.5561 1160,-21.5561 1156.5,-31.5561 1163.5,-31.5561"/>
</g>
<!-- Node15&#45;&gt;Node6 -->
<g id="edge62" class="edge"><title>Node15&#45;&gt;Node6</title>
<path fill="none" stroke="midnightblue" d="M591.398,-297.309C565.115,-292.342 528.742,-280.779 511,-254 501.605,-239.82 504.136,-220.211 508.272,-205.521"/>
<polygon fill="midnightblue" stroke="midnightblue" points="511.656,-206.433 511.42,-195.841 504.999,-204.268 511.656,-206.433"/>
</g>
<!-- Node15&#45;&gt;Node7 -->
<g id="edge64" class="edge"><title>Node15&#45;&gt;Node7</title>
<path fill="none" stroke="midnightblue" d="M591.338,-293.38C565.491,-286.012 528.301,-273.131 500,-254 433.118,-208.79 379.857,-126.089 357.893,-88.5087"/>
<polygon fill="midnightblue" stroke="midnightblue" points="360.779,-86.5062 352.767,-79.574 354.707,-89.9896 360.779,-86.5062"/>
</g>
<!-- Node15&#45;&gt;Node12 -->
<g id="edge54" class="edge"><title>Node15&#45;&gt;Node12</title>
<path fill="none" stroke="midnightblue" d="M652.566,-298.678C750.181,-291.142 1048.99,-267.1 1065,-254 1096.91,-227.897 1103.77,-176.535 1105,-147.77"/>
<polygon fill="midnightblue" stroke="midnightblue" points="1108.5,-147.701 1105.24,-137.622 1101.5,-147.537 1108.5,-147.701"/>
</g>
<!-- Node15&#45;&gt;Node14 -->
<g id="edge50" class="edge"><title>Node15&#45;&gt;Node14</title>
<path fill="none" stroke="midnightblue" d="M616.57,-290.175C610.323,-276.11 602.01,-251.097 611,-232 630.6,-190.363 675.712,-159.595 706.536,-142.475"/>
<polygon fill="midnightblue" stroke="midnightblue" points="708.448,-145.421 715.6,-137.604 705.134,-139.256 708.448,-145.421"/>
</g>
<!-- Node16 -->
<g id="node42" class="node"><title>Node16</title>
<polygon fill="white" stroke="#bfbfbf" points="520,-232.5 520,-253.5 564,-253.5 564,-232.5 520,-232.5"/>
<text text-anchor="middle" x="542" y="-240.5" font-family="Helvetica,sans-Serif" font-size="10.00">cmath</text>
</g>
<!-- Node15&#45;&gt;Node16 -->
<g id="edge52" class="edge"><title>Node15&#45;&gt;Node16</title>
<path fill="none" stroke="midnightblue" d="M607.327,-290.362C595.486,-281.777 578.615,-269.546 564.984,-259.664"/>
<polygon fill="midnightblue" stroke="midnightblue" points="566.731,-256.607 556.58,-253.571 562.622,-262.274 566.731,-256.607"/>
</g>
<!-- Node17 -->
<g id="node45" class="node"><title>Node17</title>
<polygon fill="white" stroke="#bfbfbf" points="620,-232.5 620,-253.5 808,-253.5 808,-232.5 620,-232.5"/>
<text text-anchor="middle" x="714" y="-240.5" font-family="Helvetica,sans-Serif" font-size="10.00">boost/math/distributions/students_t.hpp</text>
</g>
<!-- Node15&#45;&gt;Node17 -->
<g id="edge56" class="edge"><title>Node15&#45;&gt;Node17</title>
<path fill="none" stroke="midnightblue" d="M638.874,-290.362C652.751,-281.614 672.634,-269.079 688.46,-259.101"/>
<polygon fill="midnightblue" stroke="midnightblue" points="690.64,-261.864 697.233,-253.571 686.907,-255.943 690.64,-261.864"/>
</g>
<!-- Node18 -->
<g id="node47" class="node"><title>Node18</title>
<polygon fill="white" stroke="#bfbfbf" points="826,-232.5 826,-253.5 998,-253.5 998,-232.5 826,-232.5"/>
<text text-anchor="middle" x="912" y="-240.5" font-family="Helvetica,sans-Serif" font-size="10.00">boost/math/distributions/normal.hpp</text>
</g>
<!-- Node15&#45;&gt;Node18 -->
<g id="edge58" class="edge"><title>Node15&#45;&gt;Node18</title>
<path fill="none" stroke="midnightblue" d="M652.761,-294.848C699.364,-285.527 788.844,-267.631 849.485,-255.503"/>
<polygon fill="midnightblue" stroke="midnightblue" points="850.212,-258.927 859.332,-253.534 848.84,-252.063 850.212,-258.927"/>
</g>
<!-- Node19 -->
<g id="node49" class="node"><title>Node19</title>
<polygon fill="white" stroke="#bfbfbf" points="1016,-232.5 1016,-253.5 1056,-253.5 1056,-232.5 1016,-232.5"/>
<text text-anchor="middle" x="1036" y="-240.5" font-family="Helvetica,sans-Serif" font-size="10.00">limits</text>
</g>
<!-- Node15&#45;&gt;Node19 -->
<g id="edge60" class="edge"><title>Node15&#45;&gt;Node19</title>
<path fill="none" stroke="midnightblue" d="M652.648,-299.764C716.899,-296.642 870.308,-286.407 1006.17,-253.72"/>
<polygon fill="midnightblue" stroke="midnightblue" points="1007.04,-257.11 1015.92,-251.328 1005.37,-250.312 1007.04,-257.11"/>
</g>
<!-- Node15&#45;&gt;Node20 -->
<g id="edge66" class="edge"><title>Node15&#45;&gt;Node20</title>
<path fill="none" stroke="midnightblue" d="M591.404,-294.403C544.087,-284.201 452.903,-264.54 398.044,-252.712"/>
<polygon fill="midnightblue" stroke="midnightblue" points="398.755,-249.285 388.242,-250.599 397.28,-256.128 398.755,-249.285"/>
</g>
<!-- Node20&#45;&gt;Node6 -->
<g id="edge68" class="edge"><title>Node20&#45;&gt;Node6</title>
<path fill="none" stroke="midnightblue" d="M382.518,-232.497C410.625,-222.495 452.888,-207.457 482.303,-196.99"/>
<polygon fill="midnightblue" stroke="midnightblue" points="483.498,-200.28 491.746,-193.63 481.152,-193.685 483.498,-200.28"/>
</g>
<!-- Node20&#45;&gt;Node7 -->
<g id="edge70" class="edge"><title>Node20&#45;&gt;Node7</title>
<path fill="none" stroke="midnightblue" d="M352.634,-232.377C351.665,-204.293 349.023,-127.673 347.731,-90.2027"/>
<polygon fill="midnightblue" stroke="midnightblue" points="351.219,-89.8011 347.377,-79.9277 344.224,-90.0424 351.219,-89.8011"/>
</g>
<!-- Node21&#45;&gt;Node2 -->
<g id="edge74" class="edge"><title>Node21&#45;&gt;Node2</title>
<path fill="none" stroke="midnightblue" d="M475.375,-353.433C382.544,-341.126 214,-302.588 214,-185 214,-185 214,-185 214,-127 214,-93.5978 214,-54.7853 214,-31.5939"/>
<polygon fill="midnightblue" stroke="midnightblue" points="217.5,-31.5561 214,-21.5561 210.5,-31.5561 217.5,-31.5561"/>
</g>
<!-- Node21&#45;&gt;Node4 -->
<g id="edge76" class="edge"><title>Node21&#45;&gt;Node4</title>
<path fill="none" stroke="midnightblue" d="M594.796,-353.523C725.904,-340.692 1034.12,-305.804 1124,-254 1153.24,-237.149 1161.13,-227.59 1173,-196 1176.17,-187.559 1175.69,-69.5886 1174,-58 1172.69,-48.9958 1170.03,-39.3181 1167.38,-31.0986"/>
<polygon fill="midnightblue" stroke="midnightblue" points="1170.69,-29.9496 1164.13,-21.6276 1164.07,-32.2223 1170.69,-29.9496"/>
</g>
<!-- Node21&#45;&gt;Node15 -->
<g id="edge78" class="edge"><title>Node21&#45;&gt;Node15</title>
<path fill="none" stroke="midnightblue" d="M550.957,-348.362C563.957,-339.696 582.531,-327.313 597.427,-317.382"/>
<polygon fill="midnightblue" stroke="midnightblue" points="599.765,-320.03 606.144,-311.571 595.882,-314.206 599.765,-320.03"/>
</g>
<!-- Node22&#45;&gt;Node4 -->
<g id="edge96" class="edge"><title>Node22&#45;&gt;Node4</title>
<path fill="none" stroke="midnightblue" d="M1129.05,-355.908C1195.49,-348.628 1312,-324.274 1312,-243 1312,-243 1312,-243 1312,-127 1312,-66.4845 1234.92,-33.3328 1190.54,-19.2602"/>
<polygon fill="midnightblue" stroke="midnightblue" points="1191.4,-15.8641 1180.82,-16.315 1189.37,-22.5635 1191.4,-15.8641"/>
</g>
<!-- Node22&#45;&gt;Node6 -->
<g id="edge92" class="edge"><title>Node22&#45;&gt;Node6</title>
<path fill="none" stroke="midnightblue" d="M1086.27,-348.18C1090.75,-323.471 1097.67,-262.671 1065,-232 1027.46,-196.757 664.736,-187.55 550.363,-185.514"/>
<polygon fill="midnightblue" stroke="midnightblue" points="550.148,-182.01 540.09,-185.338 550.028,-189.009 550.148,-182.01"/>
</g>
<!-- Node22&#45;&gt;Node10 -->
<g id="edge100" class="edge"><title>Node22&#45;&gt;Node10</title>
<path fill="none" stroke="midnightblue" d="M1094.26,-348.351C1102.29,-339.383 1113.06,-325.837 1119,-312 1153.57,-231.447 1199.96,-180.864 1141,-116 1110.35,-82.281 791.798,-72.1595 684.245,-69.6908"/>
<polygon fill="midnightblue" stroke="midnightblue" points="684.296,-66.1911 674.221,-69.469 684.141,-73.1894 684.296,-66.1911"/>
</g>
<!-- Node22&#45;&gt;Node12 -->
<g id="edge98" class="edge"><title>Node22&#45;&gt;Node12</title>
<path fill="none" stroke="midnightblue" d="M1089.29,-348.467C1093.72,-339.129 1099.83,-324.996 1103,-312 1117.59,-252.226 1119.81,-235.253 1114,-174 1113.17,-165.259 1111.49,-155.724 1109.81,-147.542"/>
<polygon fill="midnightblue" stroke="midnightblue" points="1113.22,-146.762 1107.66,-137.744 1106.38,-148.261 1113.22,-146.762"/>
</g>
<!-- Node22&#45;&gt;Node15 -->
<g id="edge94" class="edge"><title>Node22&#45;&gt;Node15</title>
<path fill="none" stroke="midnightblue" d="M1038.86,-353.333C948.969,-342.048 748.845,-316.924 662.713,-306.111"/>
<polygon fill="midnightblue" stroke="midnightblue" points="663.147,-302.638 652.789,-304.865 662.275,-309.584 663.147,-302.638"/>
</g>
<!-- Node23&#45;&gt;Node2 -->
<g id="edge108" class="edge"><title>Node23&#45;&gt;Node2</title>
<path fill="none" stroke="midnightblue" d="M457.682,-471.205C377.952,-464.72 228.452,-450.034 180,-428 137.258,-408.563 100,-405.954 100,-359 100,-359 100,-359 100,-127 100,-76.1152 156.492,-39.3879 189.941,-22.1014"/>
<polygon fill="midnightblue" stroke="midnightblue" points="191.696,-25.1377 199.096,-17.5556 188.583,-18.868 191.696,-25.1377"/>
</g>
<!-- Node23&#45;&gt;Node3 -->
<g id="edge106" class="edge"><title>Node23&#45;&gt;Node3</title>
<path fill="none" stroke="midnightblue" d="M457.733,-472.384C377.677,-467.61 218.425,-455.341 86,-428 84.7399,-427.74 83.4608,-427.455 82.1729,-427.15"/>
<polygon fill="midnightblue" stroke="midnightblue" points="82.8661,-423.712 72.3019,-424.518 81.0624,-430.476 82.8661,-423.712"/>
</g>
<!-- Node23&#45;&gt;Node5 -->
<g id="edge118" class="edge"><title>Node23&#45;&gt;Node5</title>
<path fill="none" stroke="midnightblue" d="M483.104,-464.497C460.367,-455.275 427.07,-441.769 401.788,-431.515"/>
<polygon fill="midnightblue" stroke="midnightblue" points="402.769,-428.136 392.187,-427.621 400.138,-434.623 402.769,-428.136"/>
</g>
<!-- Node23&#45;&gt;Node7 -->
<g id="edge116" class="edge"><title>Node23&#45;&gt;Node7</title>
<path fill="none" stroke="midnightblue" d="M457.804,-469.814C356.029,-458.082 138,-425.219 138,-359 138,-359 138,-359 138,-185 138,-109.68 243.056,-82.8527 304.201,-73.6176"/>
<polygon fill="midnightblue" stroke="midnightblue" points="304.931,-77.0493 314.344,-72.1854 303.953,-70.1181 304.931,-77.0493"/>
</g>
<!-- Node23&#45;&gt;Node15 -->
<g id="edge114" class="edge"><title>Node23&#45;&gt;Node15</title>
<path fill="none" stroke="midnightblue" d="M487.06,-464.406C462.632,-451.194 428.716,-427.695 446,-406 490.607,-350.007 551.295,-419.513 603,-370 615.998,-357.553 620.37,-337.102 621.716,-321.689"/>
<polygon fill="midnightblue" stroke="midnightblue" points="625.22,-321.711 622.242,-311.543 618.229,-321.349 625.22,-321.711"/>
</g>
<!-- Node23&#45;&gt;Node22 -->
<g id="edge120" class="edge"><title>Node23&#45;&gt;Node22</title>
<path fill="none" stroke="midnightblue" d="M560.308,-465.039C608.723,-455.609 683.325,-441 748,-428 847.125,-408.076 962.56,-384.229 1029.07,-370.427"/>
<polygon fill="midnightblue" stroke="midnightblue" points="1029.84,-373.843 1038.92,-368.383 1028.41,-366.989 1029.84,-373.843"/>
</g>
<!-- Node24 -->
<g id="node76" class="node"><title>Node24</title>
<polygon fill="white" stroke="#bfbfbf" points="455,-406.5 455,-427.5 607,-427.5 607,-406.5 455,-406.5"/>
<text text-anchor="middle" x="531" y="-414.5" font-family="Helvetica,sans-Serif" font-size="10.00">boost/graph/adjacency_list.hpp</text>
</g>
<!-- Node23&#45;&gt;Node24 -->
<g id="edge104" class="edge"><title>Node23&#45;&gt;Node24</title>
<path fill="none" stroke="midnightblue" d="M513.035,-464.362C515.919,-456.758 519.888,-446.294 523.363,-437.135"/>
<polygon fill="midnightblue" stroke="midnightblue" points="526.716,-438.162 526.99,-427.571 520.171,-435.679 526.716,-438.162"/>
</g>
<!-- Node25 -->
<g id="node80" class="node"><title>Node25</title>
<polygon fill="white" stroke="#bfbfbf" points="625,-406.5 625,-427.5 677,-427.5 677,-406.5 625,-406.5"/>
<text text-anchor="middle" x="651" y="-414.5" font-family="Helvetica,sans-Serif" font-size="10.00">ostream</text>
</g>
<!-- Node23&#45;&gt;Node25 -->
<g id="edge110" class="edge"><title>Node23&#45;&gt;Node25</title>
<path fill="none" stroke="midnightblue" d="M534.715,-464.497C557.293,-455.275 590.358,-441.769 615.463,-431.515"/>
<polygon fill="midnightblue" stroke="midnightblue" points="617.062,-434.643 624.996,-427.621 614.415,-428.162 617.062,-434.643"/>
</g>
<!-- Node26 -->
<g id="node82" class="node"><title>Node26</title>
<polygon fill="white" stroke="#bfbfbf" points="695,-406.5 695,-427.5 739,-427.5 739,-406.5 695,-406.5"/>
<text text-anchor="middle" x="717" y="-414.5" font-family="Helvetica,sans-Serif" font-size="10.00">time.h</text>
</g>
<!-- Node23&#45;&gt;Node26 -->
<g id="edge112" class="edge"><title>Node23&#45;&gt;Node26</title>
<path fill="none" stroke="midnightblue" d="M552.562,-464.485C586.383,-456.085 634.621,-443.592 684.965,-428.168"/>
<polygon fill="midnightblue" stroke="midnightblue" points="686.203,-431.449 694.722,-425.15 684.134,-424.761 686.203,-431.449"/>
</g>
</g>
</svg>
