<?xml version="1.0" encoding="UTF-8" standalone="no"?>
<!DOCTYPE svg PUBLIC "-//W3C//DTD SVG 1.1//EN"
 "http://www.w3.org/Graphics/SVG/1.1/DTD/svg11.dtd">
<!-- Generated by graphviz version 2.26.3 (20100126.1600)
 -->
<!-- Title: G Pages: 1 -->
<svg width="1172pt" height="88pt"
 viewBox="0.00 0.00 1172.00 88.00" xmlns="http://www.w3.org/2000/svg" xmlns:xlink="http://www.w3.org/1999/xlink">
<g id="graph1" class="graph" transform="scale(1 1) rotate(0) translate(4 84)">
<title>G</title>
<polygon fill="white" stroke="white" points="-4,5 -4,-84 1169,-84 1169,5 -4,5"/>
<!-- Node1 -->
<g id="node1" class="node"><title>Node1</title>
<polygon fill="#bfbfbf" stroke="black" points="394.5,-58.5 394.5,-79.5 759.5,-79.5 759.5,-58.5 394.5,-58.5"/>
<text text-anchor="middle" x="577" y="-66.5" font-family="Helvetica,sans-Serif" font-size="10.00">/mnt/sshfs/imperialroot/homes/dk3810/workingcopies/disaggregate/src/Device.h</text>
</g>
<!-- Node2 -->
<g id="node3" class="node"><title>Node2</title>
<a xlink:href="_device_8cpp.html" target="_top" xlink:title="/mnt/sshfs/imperialroot/homes/dk3810/workingcopies/disaggregate/src/Device.cpp">
<polygon fill="white" stroke="black" points="0,-0.5 0,-21.5 376,-21.5 376,-0.5 0,-0.5"/>
<text text-anchor="middle" x="188" y="-8.5" font-family="Helvetica,sans-Serif" font-size="10.00">/mnt/sshfs/imperialroot/homes/dk3810/workingcopies/disaggregate/src/Device.cpp</text>
</a>
</g>
<!-- Node1&#45;&gt;Node2 -->
<g id="edge2" class="edge"><title>Node1&#45;&gt;Node2</title>
<path fill="none" stroke="midnightblue" d="M496.435,-56.9877C426.29,-46.529 325.608,-31.5174 258.577,-21.5231"/>
<polygon fill="midnightblue" stroke="midnightblue" points="496.148,-60.4836 506.555,-58.4966 497.181,-53.5601 496.148,-60.4836"/>
</g>
<!-- Node3 -->
<g id="node5" class="node"><title>Node3</title>
<a xlink:href="_main_8cpp.html" target="_top" xlink:title="/mnt/sshfs/imperialroot/homes/dk3810/workingcopies/disaggregate/src/Main.cpp">
<polygon fill="white" stroke="black" points="394,-0.5 394,-21.5 760,-21.5 760,-0.5 394,-0.5"/>
<text text-anchor="middle" x="577" y="-8.5" font-family="Helvetica,sans-Serif" font-size="10.00">/mnt/sshfs/imperialroot/homes/dk3810/workingcopies/disaggregate/src/Main.cpp</text>
</a>
</g>
<!-- Node1&#45;&gt;Node3 -->
<g id="edge4" class="edge"><title>Node1&#45;&gt;Node3</title>
<path fill="none" stroke="midnightblue" d="M577,-48.1906C577,-39.1684 577,-28.9941 577,-21.5707"/>
<polygon fill="midnightblue" stroke="midnightblue" points="573.5,-48.3619 577,-58.3619 580.5,-48.3619 573.5,-48.3619"/>
</g>
<!-- Node4 -->
<g id="node7" class="node"><title>Node4</title>
<a xlink:href="_signature_8cpp.html" target="_top" xlink:title="/mnt/sshfs/imperialroot/homes/dk3810/workingcopies/disaggregate/src/Signature.cpp">
<polygon fill="white" stroke="black" points="778,-0.5 778,-21.5 1164,-21.5 1164,-0.5 778,-0.5"/>
<text text-anchor="middle" x="971" y="-8.5" font-family="Helvetica,sans-Serif" font-size="10.00">/mnt/sshfs/imperialroot/homes/dk3810/workingcopies/disaggregate/src/Signature.cpp</text>
</a>
</g>
<!-- Node1&#45;&gt;Node4 -->
<g id="edge6" class="edge"><title>Node1&#45;&gt;Node4</title>
<path fill="none" stroke="midnightblue" d="M658.601,-56.9877C729.648,-46.529 831.623,-31.5174 899.516,-21.5231"/>
<polygon fill="midnightblue" stroke="midnightblue" points="657.734,-53.5775 648.35,-58.4966 658.754,-60.5029 657.734,-53.5775"/>
</g>
</g>
</svg>
