<?xml version="1.0" encoding="UTF-8" standalone="no"?>
<!DOCTYPE svg PUBLIC "-//W3C//DTD SVG 1.1//EN"
 "http://www.w3.org/Graphics/SVG/1.1/DTD/svg11.dtd">
<!-- Generated by graphviz version 2.26.3 (20100126.1600)
 -->
<!-- Title: G Pages: 1 -->
<svg width="620pt" height="204pt"
 viewBox="0.00 0.00 620.48 204.00" xmlns="http://www.w3.org/2000/svg" xmlns:xlink="http://www.w3.org/1999/xlink">
<g id="graph1" class="graph" transform="scale(1 1) rotate(0) translate(4 200)">
<title>G</title>
<polygon fill="white" stroke="white" points="-4,5 -4,-200 617.482,-200 617.482,5 -4,5"/>
<!-- Node1 -->
<g id="node1" class="node"><title>Node1</title>
<polygon fill="#bfbfbf" stroke="black" points="73.9816,-174.5 73.9816,-195.5 456.982,-195.5 456.982,-174.5 73.9816,-174.5"/>
<text text-anchor="middle" x="265.482" y="-182.5" font-family="Helvetica,sans-Serif" font-size="10.00">/mnt/sshfs/imperialroot/homes/dk3810/workingcopies/disaggregate/src/GNUplot.cpp</text>
</g>
<!-- Node2 -->
<g id="node3" class="node"><title>Node2</title>
<a xlink:href="_g_n_uplot_8h.html" target="_top" xlink:title="GNUplot.h">
<polygon fill="white" stroke="black" points="155.982,-116.5 155.982,-137.5 218.982,-137.5 218.982,-116.5 155.982,-116.5"/>
<text text-anchor="middle" x="187.482" y="-124.5" font-family="Helvetica,sans-Serif" font-size="10.00">GNUplot.h</text>
</a>
</g>
<!-- Node1&#45;&gt;Node2 -->
<g id="edge2" class="edge"><title>Node1&#45;&gt;Node2</title>
<path fill="none" stroke="midnightblue" d="M251.175,-174.362C239.63,-165.777 223.181,-153.546 209.891,-143.664"/>
<polygon fill="midnightblue" stroke="midnightblue" points="211.81,-140.729 201.697,-137.571 207.633,-146.346 211.81,-140.729"/>
</g>
<!-- Node3 -->
<g id="node5" class="node"><title>Node3</title>
<polygon fill="white" stroke="#bfbfbf" points="86.9816,-0.5 86.9816,-21.5 127.982,-21.5 127.982,-0.5 86.9816,-0.5"/>
<text text-anchor="middle" x="107.482" y="-8.5" font-family="Helvetica,sans-Serif" font-size="10.00">string</text>
</g>
<!-- Node1&#45;&gt;Node3 -->
<g id="edge24" class="edge"><title>Node1&#45;&gt;Node3</title>
<path fill="none" stroke="midnightblue" d="M166.433,-174.47C130.744,-167.661 91.2303,-156.452 58.4816,-138 27.2636,-120.411 15.9031,-113.224 2.48156,-80 -11.6102,-45.1171 40.9467,-25.9176 76.7424,-17.1025"/>
<polygon fill="midnightblue" stroke="midnightblue" points="77.8144,-20.4473 86.7727,-14.7905 76.242,-13.6261 77.8144,-20.4473"/>
</g>
<!-- Node4 -->
<g id="node7" class="node"><title>Node4</title>
<polygon fill="white" stroke="#bfbfbf" points="232.982,-0.5 232.982,-21.5 261.982,-21.5 261.982,-0.5 232.982,-0.5"/>
<text text-anchor="middle" x="247.482" y="-8.5" font-family="Helvetica,sans-Serif" font-size="10.00">list</text>
</g>
<!-- Node1&#45;&gt;Node4 -->
<g id="edge32" class="edge"><title>Node1&#45;&gt;Node4</title>
<path fill="none" stroke="midnightblue" d="M264.383,-174.377C261.477,-146.293 253.551,-69.6735 249.675,-32.2027"/>
<polygon fill="midnightblue" stroke="midnightblue" points="253.123,-31.5145 248.612,-21.9277 246.16,-32.2348 253.123,-31.5145"/>
</g>
<!-- Node5 -->
<g id="node9" class="node"><title>Node5</title>
<a xlink:href="_common_8h.html" target="_top" xlink:title="Common.h">
<polygon fill="white" stroke="black" points="154.982,-58.5 154.982,-79.5 219.982,-79.5 219.982,-58.5 154.982,-58.5"/>
<text text-anchor="middle" x="187.482" y="-66.5" font-family="Helvetica,sans-Serif" font-size="10.00">Common.h</text>
</a>
</g>
<!-- Node1&#45;&gt;Node5 -->
<g id="edge22" class="edge"><title>Node1&#45;&gt;Node5</title>
<path fill="none" stroke="midnightblue" d="M260.444,-174.324C253.698,-160.421 241.001,-135.582 227.482,-116 220.562,-105.977 211.901,-95.5884 204.409,-87.135"/>
<polygon fill="midnightblue" stroke="midnightblue" points="206.984,-84.7648 197.679,-79.6983 201.794,-89.4616 206.984,-84.7648"/>
</g>
<!-- Node7 -->
<g id="node15" class="node"><title>Node7</title>
<a xlink:href="_utils_8h.html" target="_top" xlink:title="Utils.h">
<polygon fill="white" stroke="black" points="66.9816,-116.5 66.9816,-137.5 111.982,-137.5 111.982,-116.5 66.9816,-116.5"/>
<text text-anchor="middle" x="89.4816" y="-124.5" font-family="Helvetica,sans-Serif" font-size="10.00">Utils.h</text>
</a>
</g>
<!-- Node1&#45;&gt;Node7 -->
<g id="edge16" class="edge"><title>Node1&#45;&gt;Node7</title>
<path fill="none" stroke="midnightblue" d="M233.609,-174.497C201.967,-164.069 153.708,-148.165 121.882,-137.677"/>
<polygon fill="midnightblue" stroke="midnightblue" points="122.761,-134.282 112.168,-134.476 120.57,-140.93 122.761,-134.282"/>
</g>
<!-- Node9 -->
<g id="node22" class="node"><title>Node9</title>
<polygon fill="white" stroke="#bfbfbf" points="312.482,-116.5 312.482,-137.5 358.482,-137.5 358.482,-116.5 312.482,-116.5"/>
<text text-anchor="middle" x="335.482" y="-124.5" font-family="Helvetica,sans-Serif" font-size="10.00">stdio.h</text>
</g>
<!-- Node1&#45;&gt;Node9 -->
<g id="edge26" class="edge"><title>Node1&#45;&gt;Node9</title>
<path fill="none" stroke="midnightblue" d="M278.321,-174.362C288.484,-165.941 302.883,-154.011 314.686,-144.231"/>
<polygon fill="midnightblue" stroke="midnightblue" points="317.257,-146.646 322.724,-137.571 312.791,-141.256 317.257,-146.646"/>
</g>
<!-- Node10 -->
<g id="node24" class="node"><title>Node10</title>
<polygon fill="white" stroke="#bfbfbf" points="376.482,-116.5 376.482,-137.5 430.482,-137.5 430.482,-116.5 376.482,-116.5"/>
<text text-anchor="middle" x="403.482" y="-124.5" font-family="Helvetica,sans-Serif" font-size="10.00">iostream</text>
</g>
<!-- Node1&#45;&gt;Node10 -->
<g id="edge28" class="edge"><title>Node1&#45;&gt;Node10</title>
<path fill="none" stroke="midnightblue" d="M290.472,-174.497C312.415,-165.275 344.547,-151.769 368.945,-141.515"/>
<polygon fill="midnightblue" stroke="midnightblue" points="370.348,-144.722 378.21,-137.621 367.635,-138.269 370.348,-144.722"/>
</g>
<!-- Node11 -->
<g id="node26" class="node"><title>Node11</title>
<polygon fill="white" stroke="#bfbfbf" points="448.482,-116.5 448.482,-137.5 612.482,-137.5 612.482,-116.5 448.482,-116.5"/>
<text text-anchor="middle" x="530.482" y="-124.5" font-family="Helvetica,sans-Serif" font-size="10.00">boost/algorithm/string/replace.hpp</text>
</g>
<!-- Node1&#45;&gt;Node11 -->
<g id="edge30" class="edge"><title>Node1&#45;&gt;Node11</title>
<path fill="none" stroke="midnightblue" d="M313.471,-174.497C358.169,-164.714 424.89,-150.111 472.539,-139.682"/>
<polygon fill="midnightblue" stroke="midnightblue" points="473.382,-143.08 482.402,-137.523 471.885,-136.242 473.382,-143.08"/>
</g>
<!-- Node2&#45;&gt;Node3 -->
<g id="edge4" class="edge"><title>Node2&#45;&gt;Node3</title>
<path fill="none" stroke="midnightblue" d="M177.041,-116.318C168.328,-107.115 155.864,-93.2578 146.482,-80 135.352,-64.2735 124.73,-45.1092 117.39,-30.972"/>
<polygon fill="midnightblue" stroke="midnightblue" points="120.32,-29.0123 112.665,-21.6874 114.081,-32.1872 120.32,-29.0123"/>
</g>
<!-- Node2&#45;&gt;Node4 -->
<g id="edge6" class="edge"><title>Node2&#45;&gt;Node4</title>
<path fill="none" stroke="midnightblue" d="M199.542,-116.138C208.716,-107.255 220.999,-93.9263 228.482,-80 236.555,-64.9724 241.434,-46.2171 244.222,-32.055"/>
<polygon fill="midnightblue" stroke="midnightblue" points="247.734,-32.2982 246.032,-21.8409 240.841,-31.0772 247.734,-32.2982"/>
</g>
<!-- Node2&#45;&gt;Node5 -->
<g id="edge8" class="edge"><title>Node2&#45;&gt;Node5</title>
<path fill="none" stroke="midnightblue" d="M187.482,-116.362C187.482,-108.922 187.482,-98.7427 187.482,-89.7276"/>
<polygon fill="midnightblue" stroke="midnightblue" points="190.982,-89.5706 187.482,-79.5707 183.982,-89.5707 190.982,-89.5706"/>
</g>
<!-- Node5&#45;&gt;Node3 -->
<g id="edge12" class="edge"><title>Node5&#45;&gt;Node3</title>
<path fill="none" stroke="midnightblue" d="M172.808,-58.3619C160.967,-49.7773 144.097,-37.5459 130.466,-27.6636"/>
<polygon fill="midnightblue" stroke="midnightblue" points="132.212,-24.6067 122.062,-21.5707 128.103,-30.274 132.212,-24.6067"/>
</g>
<!-- Node5&#45;&gt;Node4 -->
<g id="edge14" class="edge"><title>Node5&#45;&gt;Node4</title>
<path fill="none" stroke="midnightblue" d="M198.486,-58.3619C207.029,-50.1043 219.062,-38.4725 229.065,-28.8029"/>
<polygon fill="midnightblue" stroke="midnightblue" points="231.789,-31.0374 236.546,-21.5707 226.924,-26.0044 231.789,-31.0374"/>
</g>
<!-- Node6 -->
<g id="node11" class="node"><title>Node6</title>
<polygon fill="white" stroke="#bfbfbf" points="162.982,-0.5 162.982,-21.5 211.982,-21.5 211.982,-0.5 162.982,-0.5"/>
<text text-anchor="middle" x="187.482" y="-8.5" font-family="Helvetica,sans-Serif" font-size="10.00">cstddef</text>
</g>
<!-- Node5&#45;&gt;Node6 -->
<g id="edge10" class="edge"><title>Node5&#45;&gt;Node6</title>
<path fill="none" stroke="midnightblue" d="M187.482,-58.3619C187.482,-50.9219 187.482,-40.7427 187.482,-31.7276"/>
<polygon fill="midnightblue" stroke="midnightblue" points="190.982,-31.5706 187.482,-21.5707 183.982,-31.5707 190.982,-31.5706"/>
</g>
<!-- Node7&#45;&gt;Node3 -->
<g id="edge18" class="edge"><title>Node7&#45;&gt;Node3</title>
<path fill="none" stroke="midnightblue" d="M91.1427,-116.295C94.1163,-97.1314 100.397,-56.654 104.247,-31.8434"/>
<polygon fill="midnightblue" stroke="midnightblue" points="107.75,-32.0977 105.824,-21.6792 100.832,-31.0242 107.75,-32.0977"/>
</g>
<!-- Node8 -->
<g id="node18" class="node"><title>Node8</title>
<polygon fill="white" stroke="#bfbfbf" points="11.4816,-58.5 11.4816,-79.5 61.4816,-79.5 61.4816,-58.5 11.4816,-58.5"/>
<text text-anchor="middle" x="36.4816" y="-66.5" font-family="Helvetica,sans-Serif" font-size="10.00">fstream</text>
</g>
<!-- Node7&#45;&gt;Node8 -->
<g id="edge20" class="edge"><title>Node7&#45;&gt;Node8</title>
<path fill="none" stroke="midnightblue" d="M79.7605,-116.362C72.2895,-108.186 61.7959,-96.7025 53.0127,-87.0907"/>
<polygon fill="midnightblue" stroke="midnightblue" points="55.4704,-84.5918 46.141,-79.5707 50.303,-89.3138 55.4704,-84.5918"/>
</g>
</g>
</svg>
