<?xml version="1.0" encoding="UTF-8" standalone="no"?>
<!DOCTYPE svg PUBLIC "-//W3C//DTD SVG 1.1//EN"
 "http://www.w3.org/Graphics/SVG/1.1/DTD/svg11.dtd">
<!-- Generated by graphviz version 2.26.3 (20100126.1600)
 -->
<!-- Title: G Pages: 1 -->
<svg width="380pt" height="146pt"
 viewBox="0.00 0.00 380.00 146.00" xmlns="http://www.w3.org/2000/svg" xmlns:xlink="http://www.w3.org/1999/xlink">
<g id="graph1" class="graph" transform="scale(1 1) rotate(0) translate(4 142)">
<title>G</title>
<polygon fill="white" stroke="white" points="-4,5 -4,-142 377,-142 377,5 -4,5"/>
<!-- Node1 -->
<g id="node1" class="node"><title>Node1</title>
<polygon fill="#bfbfbf" stroke="black" points="-0.5,-116.5 -0.5,-137.5 372.5,-137.5 372.5,-116.5 -0.5,-116.5"/>
<text text-anchor="middle" x="186" y="-124.5" font-family="Helvetica,sans-Serif" font-size="10.00">/mnt/sshfs/imperialroot/homes/dk3810/workingcopies/disaggregate/src/GNUplot.h</text>
</g>
<!-- Node2 -->
<g id="node3" class="node"><title>Node2</title>
<polygon fill="white" stroke="#bfbfbf" points="105.5,-0.5 105.5,-21.5 146.5,-21.5 146.5,-0.5 105.5,-0.5"/>
<text text-anchor="middle" x="126" y="-8.5" font-family="Helvetica,sans-Serif" font-size="10.00">string</text>
</g>
<!-- Node1&#45;&gt;Node2 -->
<g id="edge2" class="edge"><title>Node1&#45;&gt;Node2</title>
<path fill="none" stroke="midnightblue" d="M173.94,-116.138C164.765,-107.255 152.482,-93.9263 145,-80 136.926,-64.9724 132.048,-46.2171 129.259,-32.055"/>
<polygon fill="midnightblue" stroke="midnightblue" points="132.641,-31.0772 127.45,-21.8409 125.748,-32.2982 132.641,-31.0772"/>
</g>
<!-- Node3 -->
<g id="node5" class="node"><title>Node3</title>
<polygon fill="white" stroke="#bfbfbf" points="230.5,-0.5 230.5,-21.5 259.5,-21.5 259.5,-0.5 230.5,-0.5"/>
<text text-anchor="middle" x="245" y="-8.5" font-family="Helvetica,sans-Serif" font-size="10.00">list</text>
</g>
<!-- Node1&#45;&gt;Node3 -->
<g id="edge4" class="edge"><title>Node1&#45;&gt;Node3</title>
<path fill="none" stroke="midnightblue" d="M198.112,-116.166C207.316,-107.298 219.612,-93.9766 227,-80 234.943,-64.9727 239.544,-46.2174 242.102,-32.0552"/>
<polygon fill="midnightblue" stroke="midnightblue" points="245.613,-32.2693 243.741,-21.8411 238.701,-31.1602 245.613,-32.2693"/>
</g>
<!-- Node4 -->
<g id="node7" class="node"><title>Node4</title>
<a xlink:href="_common_8h.html" target="_top" xlink:title="Common.h">
<polygon fill="white" stroke="black" points="153.5,-58.5 153.5,-79.5 218.5,-79.5 218.5,-58.5 153.5,-58.5"/>
<text text-anchor="middle" x="186" y="-66.5" font-family="Helvetica,sans-Serif" font-size="10.00">Common.h</text>
</a>
</g>
<!-- Node1&#45;&gt;Node4 -->
<g id="edge6" class="edge"><title>Node1&#45;&gt;Node4</title>
<path fill="none" stroke="midnightblue" d="M186,-116.362C186,-108.922 186,-98.7427 186,-89.7276"/>
<polygon fill="midnightblue" stroke="midnightblue" points="189.5,-89.5706 186,-79.5707 182.5,-89.5707 189.5,-89.5706"/>
</g>
<!-- Node4&#45;&gt;Node2 -->
<g id="edge10" class="edge"><title>Node4&#45;&gt;Node2</title>
<path fill="none" stroke="midnightblue" d="M174.995,-58.3619C166.453,-50.1043 154.42,-38.4725 144.417,-28.8029"/>
<polygon fill="midnightblue" stroke="midnightblue" points="146.558,-26.0044 136.935,-21.5707 141.692,-31.0374 146.558,-26.0044"/>
</g>
<!-- Node4&#45;&gt;Node3 -->
<g id="edge12" class="edge"><title>Node4&#45;&gt;Node3</title>
<path fill="none" stroke="midnightblue" d="M196.822,-58.3619C205.221,-50.1043 217.054,-38.4725 226.89,-28.8029"/>
<polygon fill="midnightblue" stroke="midnightblue" points="229.569,-31.077 234.247,-21.5707 224.662,-26.0851 229.569,-31.077"/>
</g>
<!-- Node5 -->
<g id="node9" class="node"><title>Node5</title>
<polygon fill="white" stroke="#bfbfbf" points="163.5,-0.5 163.5,-21.5 212.5,-21.5 212.5,-0.5 163.5,-0.5"/>
<text text-anchor="middle" x="188" y="-8.5" font-family="Helvetica,sans-Serif" font-size="10.00">cstddef</text>
</g>
<!-- Node4&#45;&gt;Node5 -->
<g id="edge8" class="edge"><title>Node4&#45;&gt;Node5</title>
<path fill="none" stroke="midnightblue" d="M186.367,-58.3619C186.623,-50.9219 186.974,-40.7427 187.285,-31.7276"/>
<polygon fill="midnightblue" stroke="midnightblue" points="190.789,-31.6854 187.635,-21.5707 183.793,-31.4441 190.789,-31.6854"/>
</g>
</g>
</svg>
