<?xml version="1.0" encoding="UTF-8" standalone="no"?>
<!DOCTYPE svg PUBLIC "-//W3C//DTD SVG 1.1//EN"
 "http://www.w3.org/Graphics/SVG/1.1/DTD/svg11.dtd">
<!-- Generated by graphviz version 2.26.3 (20100126.1600)
 -->
<!-- Title: G Pages: 1 -->
<svg width="515pt" height="262pt"
 viewBox="0.00 0.00 514.51 262.00" xmlns="http://www.w3.org/2000/svg" xmlns:xlink="http://www.w3.org/1999/xlink">
<g id="graph1" class="graph" transform="scale(1 1) rotate(0) translate(4 258)">
<title>G</title>
<polygon fill="white" stroke="white" points="-4,5 -4,-258 511.507,-258 511.507,5 -4,5"/>
<!-- Node1 -->
<g id="node1" class="node"><title>Node1</title>
<polygon fill="#bfbfbf" stroke="black" points="0,-232.5 0,-253.5 380,-253.5 380,-232.5 0,-232.5"/>
<text text-anchor="middle" x="190" y="-240.5" font-family="Helvetica,sans-Serif" font-size="10.00">/mnt/sshfs/imperialroot/homes/dk3810/workingcopies/disaggregate/src/Histogram.h</text>
</g>
<!-- Node2 -->
<g id="node3" class="node"><title>Node2</title>
<a xlink:href="_array_8h.html" target="_top" xlink:title="Array.h">
<polygon fill="white" stroke="black" points="287,-174.5 287,-195.5 335,-195.5 335,-174.5 287,-174.5"/>
<text text-anchor="middle" x="311" y="-182.5" font-family="Helvetica,sans-Serif" font-size="10.00">Array.h</text>
</a>
</g>
<!-- Node1&#45;&gt;Node2 -->
<g id="edge2" class="edge"><title>Node1&#45;&gt;Node2</title>
<path fill="none" stroke="midnightblue" d="M211.912,-232.497C230.811,-223.438 258.331,-210.246 279.576,-200.063"/>
<polygon fill="midnightblue" stroke="midnightblue" points="281.337,-203.1 288.842,-195.621 278.311,-196.788 281.337,-203.1"/>
</g>
<!-- Node3 -->
<g id="node5" class="node"><title>Node3</title>
<a xlink:href="_common_8h.html" target="_top" xlink:title="Common.h">
<polygon fill="white" stroke="black" points="75.5,-58.5 75.5,-79.5 140.5,-79.5 140.5,-58.5 75.5,-58.5"/>
<text text-anchor="middle" x="108" y="-66.5" font-family="Helvetica,sans-Serif" font-size="10.00">Common.h</text>
</a>
</g>
<!-- Node1&#45;&gt;Node3 -->
<g id="edge36" class="edge"><title>Node1&#45;&gt;Node3</title>
<path fill="none" stroke="midnightblue" d="M178.216,-232.474C159.622,-215.005 124.14,-177.97 110,-138 104.512,-122.488 104.336,-103.768 105.352,-89.7426"/>
<polygon fill="midnightblue" stroke="midnightblue" points="108.848,-89.9465 106.344,-79.6521 101.882,-89.2617 108.848,-89.9465"/>
</g>
<!-- Node2&#45;&gt;Node3 -->
<g id="edge4" class="edge"><title>Node2&#45;&gt;Node3</title>
<path fill="none" stroke="midnightblue" d="M286.833,-181.862C242.275,-175.603 149.647,-160.229 127,-138 114.228,-125.463 109.813,-105.19 108.395,-89.8556"/>
<polygon fill="midnightblue" stroke="midnightblue" points="111.882,-89.5267 107.815,-79.7436 104.893,-89.9276 111.882,-89.5267"/>
</g>
<!-- Node6 -->
<g id="node11" class="node"><title>Node6</title>
<polygon fill="white" stroke="#bfbfbf" points="229.5,-0.5 229.5,-21.5 258.5,-21.5 258.5,-0.5 229.5,-0.5"/>
<text text-anchor="middle" x="244" y="-8.5" font-family="Helvetica,sans-Serif" font-size="10.00">list</text>
</g>
<!-- Node2&#45;&gt;Node6 -->
<g id="edge34" class="edge"><title>Node2&#45;&gt;Node6</title>
<path fill="none" stroke="midnightblue" d="M335.22,-182.003C378.809,-176.075 467.739,-161.368 487,-138 509.643,-110.529 513.699,-85.425 491,-58 462.95,-24.1097 325.949,-14.4502 268.952,-11.8745"/>
<polygon fill="midnightblue" stroke="midnightblue" points="268.811,-8.36582 258.675,-11.4488 268.522,-15.3598 268.811,-8.36582"/>
</g>
<!-- Node7 -->
<g id="node13" class="node"><title>Node7</title>
<a xlink:href="_utils_8h.html" target="_top" xlink:title="Utils.h">
<polygon fill="white" stroke="black" points="417.5,-116.5 417.5,-137.5 462.5,-137.5 462.5,-116.5 417.5,-116.5"/>
<text text-anchor="middle" x="440" y="-124.5" font-family="Helvetica,sans-Serif" font-size="10.00">Utils.h</text>
</a>
</g>
<!-- Node2&#45;&gt;Node7 -->
<g id="edge12" class="edge"><title>Node2&#45;&gt;Node7</title>
<path fill="none" stroke="midnightblue" d="M334.361,-174.497C354.945,-165.242 385.122,-151.674 407.958,-141.407"/>
<polygon fill="midnightblue" stroke="midnightblue" points="409.561,-144.523 417.246,-137.231 406.69,-138.139 409.561,-144.523"/>
</g>
<!-- Node8 -->
<g id="node16" class="node"><title>Node8</title>
<polygon fill="white" stroke="#bfbfbf" points="432,-58.5 432,-79.5 482,-79.5 482,-58.5 432,-58.5"/>
<text text-anchor="middle" x="457" y="-66.5" font-family="Helvetica,sans-Serif" font-size="10.00">fstream</text>
</g>
<!-- Node2&#45;&gt;Node8 -->
<g id="edge28" class="edge"><title>Node2&#45;&gt;Node8</title>
<path fill="none" stroke="midnightblue" d="M335.095,-181.477C375.629,-175.002 454.649,-159.845 471,-138 481.575,-123.872 475.769,-103.733 468.696,-88.8574"/>
<polygon fill="midnightblue" stroke="midnightblue" points="471.771,-87.185 464.024,-79.9577 465.573,-90.4387 471.771,-87.185"/>
</g>
<!-- Node9 -->
<g id="node18" class="node"><title>Node9</title>
<a xlink:href="_g_n_uplot_8h.html" target="_top" xlink:title="GNUplot.h">
<polygon fill="white" stroke="black" points="135.5,-116.5 135.5,-137.5 198.5,-137.5 198.5,-116.5 135.5,-116.5"/>
<text text-anchor="middle" x="167" y="-124.5" font-family="Helvetica,sans-Serif" font-size="10.00">GNUplot.h</text>
</a>
</g>
<!-- Node2&#45;&gt;Node9 -->
<g id="edge18" class="edge"><title>Node2&#45;&gt;Node9</title>
<path fill="none" stroke="midnightblue" d="M286.898,-175.292C263.895,-166.027 228.956,-151.954 202.719,-141.387"/>
<polygon fill="midnightblue" stroke="midnightblue" points="203.716,-138.015 193.132,-137.525 201.1,-144.508 203.716,-138.015"/>
</g>
<!-- Node10 -->
<g id="node23" class="node"><title>Node10</title>
<polygon fill="white" stroke="#bfbfbf" points="216,-116.5 216,-137.5 270,-137.5 270,-116.5 216,-116.5"/>
<text text-anchor="middle" x="243" y="-124.5" font-family="Helvetica,sans-Serif" font-size="10.00">iostream</text>
</g>
<!-- Node2&#45;&gt;Node10 -->
<g id="edge26" class="edge"><title>Node2&#45;&gt;Node10</title>
<path fill="none" stroke="midnightblue" d="M298.528,-174.362C288.655,-165.941 274.667,-154.011 263.202,-144.231"/>
<polygon fill="midnightblue" stroke="midnightblue" points="265.273,-141.397 255.393,-137.571 260.73,-146.723 265.273,-141.397"/>
</g>
<!-- Node11 -->
<g id="node26" class="node"><title>Node11</title>
<polygon fill="white" stroke="#bfbfbf" points="288,-116.5 288,-137.5 334,-137.5 334,-116.5 288,-116.5"/>
<text text-anchor="middle" x="311" y="-124.5" font-family="Helvetica,sans-Serif" font-size="10.00">cstdint</text>
</g>
<!-- Node2&#45;&gt;Node11 -->
<g id="edge30" class="edge"><title>Node2&#45;&gt;Node11</title>
<path fill="none" stroke="midnightblue" d="M311,-174.362C311,-166.922 311,-156.743 311,-147.728"/>
<polygon fill="midnightblue" stroke="midnightblue" points="314.5,-147.571 311,-137.571 307.5,-147.571 314.5,-147.571"/>
</g>
<!-- Node12 -->
<g id="node28" class="node"><title>Node12</title>
<polygon fill="white" stroke="#bfbfbf" points="351.5,-116.5 351.5,-137.5 400.5,-137.5 400.5,-116.5 351.5,-116.5"/>
<text text-anchor="middle" x="376" y="-124.5" font-family="Helvetica,sans-Serif" font-size="10.00">cassert</text>
</g>
<!-- Node2&#45;&gt;Node12 -->
<g id="edge32" class="edge"><title>Node2&#45;&gt;Node12</title>
<path fill="none" stroke="midnightblue" d="M322.922,-174.362C332.359,-165.941 345.73,-154.011 356.69,-144.231"/>
<polygon fill="midnightblue" stroke="midnightblue" points="359.022,-146.84 364.154,-137.571 354.362,-141.617 359.022,-146.84"/>
</g>
<!-- Node4 -->
<g id="node7" class="node"><title>Node4</title>
<polygon fill="white" stroke="#bfbfbf" points="82.5,-0.5 82.5,-21.5 131.5,-21.5 131.5,-0.5 82.5,-0.5"/>
<text text-anchor="middle" x="107" y="-8.5" font-family="Helvetica,sans-Serif" font-size="10.00">cstddef</text>
</g>
<!-- Node3&#45;&gt;Node4 -->
<g id="edge6" class="edge"><title>Node3&#45;&gt;Node4</title>
<path fill="none" stroke="midnightblue" d="M107.817,-58.3619C107.688,-50.9219 107.513,-40.7427 107.357,-31.7276"/>
<polygon fill="midnightblue" stroke="midnightblue" points="110.854,-31.5088 107.182,-21.5707 103.855,-31.6295 110.854,-31.5088"/>
</g>
<!-- Node5 -->
<g id="node9" class="node"><title>Node5</title>
<polygon fill="white" stroke="#bfbfbf" points="148.5,-0.5 148.5,-21.5 189.5,-21.5 189.5,-0.5 148.5,-0.5"/>
<text text-anchor="middle" x="169" y="-8.5" font-family="Helvetica,sans-Serif" font-size="10.00">string</text>
</g>
<!-- Node3&#45;&gt;Node5 -->
<g id="edge8" class="edge"><title>Node3&#45;&gt;Node5</title>
<path fill="none" stroke="midnightblue" d="M119.188,-58.3619C127.959,-50.0226 140.349,-38.2418 150.578,-28.5162"/>
<polygon fill="midnightblue" stroke="midnightblue" points="153.047,-30.9978 157.883,-21.5707 148.224,-25.9248 153.047,-30.9978"/>
</g>
<!-- Node3&#45;&gt;Node6 -->
<g id="edge10" class="edge"><title>Node3&#45;&gt;Node6</title>
<path fill="none" stroke="midnightblue" d="M132.629,-58.4966C157.386,-47.9382 195.309,-31.7654 219.883,-21.2851"/>
<polygon fill="midnightblue" stroke="midnightblue" points="221.386,-24.4494 229.211,-17.307 218.64,-18.0105 221.386,-24.4494"/>
</g>
<!-- Node7&#45;&gt;Node5 -->
<g id="edge14" class="edge"><title>Node7&#45;&gt;Node5</title>
<path fill="none" stroke="midnightblue" d="M417.361,-117.309C368.62,-96.446 253.742,-47.2733 199.01,-23.8454"/>
<polygon fill="midnightblue" stroke="midnightblue" points="200.09,-20.5007 189.519,-19.7831 197.335,-26.9359 200.09,-20.5007"/>
</g>
<!-- Node7&#45;&gt;Node8 -->
<g id="edge16" class="edge"><title>Node7&#45;&gt;Node8</title>
<path fill="none" stroke="midnightblue" d="M443.118,-116.362C445.323,-108.84 448.348,-98.5187 451.012,-89.4308"/>
<polygon fill="midnightblue" stroke="midnightblue" points="454.448,-90.1514 453.902,-79.5707 447.73,-88.1825 454.448,-90.1514"/>
</g>
<!-- Node9&#45;&gt;Node3 -->
<g id="edge24" class="edge"><title>Node9&#45;&gt;Node3</title>
<path fill="none" stroke="midnightblue" d="M156.178,-116.362C147.779,-108.104 135.946,-96.4725 126.11,-86.8029"/>
<polygon fill="midnightblue" stroke="midnightblue" points="128.338,-84.0851 118.753,-79.5707 123.431,-89.077 128.338,-84.0851"/>
</g>
<!-- Node9&#45;&gt;Node5 -->
<g id="edge20" class="edge"><title>Node9&#45;&gt;Node5</title>
<path fill="none" stroke="midnightblue" d="M167.185,-116.295C167.515,-97.1314 168.213,-56.654 168.641,-31.8434"/>
<polygon fill="midnightblue" stroke="midnightblue" points="172.143,-31.7381 168.816,-21.6792 165.144,-31.6173 172.143,-31.7381"/>
</g>
<!-- Node9&#45;&gt;Node6 -->
<g id="edge22" class="edge"><title>Node9&#45;&gt;Node6</title>
<path fill="none" stroke="midnightblue" d="M174.106,-116.295C187.113,-96.6998 214.913,-54.8198 231.261,-30.1913"/>
<polygon fill="midnightblue" stroke="midnightblue" points="234.297,-31.9464 236.911,-21.6792 228.465,-28.0751 234.297,-31.9464"/>
</g>
</g>
</svg>
