<?xml version="1.0" encoding="UTF-8" standalone="no"?>
<!DOCTYPE svg PUBLIC "-//W3C//DTD SVG 1.1//EN"
 "http://www.w3.org/Graphics/SVG/1.1/DTD/svg11.dtd">
<!-- Generated by graphviz version 2.26.3 (20100126.1600)
 -->
<!-- Title: G Pages: 1 -->
<svg width="520pt" height="320pt"
 viewBox="0.00 0.00 519.51 320.00" xmlns="http://www.w3.org/2000/svg" xmlns:xlink="http://www.w3.org/1999/xlink">
<g id="graph1" class="graph" transform="scale(1 1) rotate(0) translate(4 316)">
<title>G</title>
<polygon fill="white" stroke="white" points="-4,5 -4,-316 516.507,-316 516.507,5 -4,5"/>
<!-- Node1 -->
<g id="node1" class="node"><title>Node1</title>
<polygon fill="#bfbfbf" stroke="black" points="0,-290.5 0,-311.5 390,-311.5 390,-290.5 0,-290.5"/>
<text text-anchor="middle" x="195" y="-298.5" font-family="Helvetica,sans-Serif" font-size="10.00">/mnt/sshfs/imperialroot/homes/dk3810/workingcopies/disaggregate/src/Histogram.cpp</text>
</g>
<!-- Node2 -->
<g id="node3" class="node"><title>Node2</title>
<a xlink:href="_histogram_8h.html" target="_top" xlink:title="Histogram.h">
<polygon fill="white" stroke="black" points="160,-232.5 160,-253.5 230,-253.5 230,-232.5 160,-232.5"/>
<text text-anchor="middle" x="195" y="-240.5" font-family="Helvetica,sans-Serif" font-size="10.00">Histogram.h</text>
</a>
</g>
<!-- Node1&#45;&gt;Node2 -->
<g id="edge2" class="edge"><title>Node1&#45;&gt;Node2</title>
<path fill="none" stroke="midnightblue" d="M195,-290.362C195,-282.922 195,-272.743 195,-263.728"/>
<polygon fill="midnightblue" stroke="midnightblue" points="198.5,-263.571 195,-253.571 191.5,-263.571 198.5,-263.571"/>
</g>
<!-- Node3 -->
<g id="node5" class="node"><title>Node3</title>
<a xlink:href="_array_8h.html" target="_top" xlink:title="Array.h">
<polygon fill="white" stroke="black" points="292,-174.5 292,-195.5 340,-195.5 340,-174.5 292,-174.5"/>
<text text-anchor="middle" x="316" y="-182.5" font-family="Helvetica,sans-Serif" font-size="10.00">Array.h</text>
</a>
</g>
<!-- Node2&#45;&gt;Node3 -->
<g id="edge4" class="edge"><title>Node2&#45;&gt;Node3</title>
<path fill="none" stroke="midnightblue" d="M216.912,-232.497C235.811,-223.438 263.331,-210.246 284.576,-200.063"/>
<polygon fill="midnightblue" stroke="midnightblue" points="286.337,-203.1 293.842,-195.621 283.311,-196.788 286.337,-203.1"/>
</g>
<!-- Node4 -->
<g id="node7" class="node"><title>Node4</title>
<a xlink:href="_common_8h.html" target="_top" xlink:title="Common.h">
<polygon fill="white" stroke="black" points="80.5,-58.5 80.5,-79.5 145.5,-79.5 145.5,-58.5 80.5,-58.5"/>
<text text-anchor="middle" x="113" y="-66.5" font-family="Helvetica,sans-Serif" font-size="10.00">Common.h</text>
</a>
</g>
<!-- Node2&#45;&gt;Node4 -->
<g id="edge38" class="edge"><title>Node2&#45;&gt;Node4</title>
<path fill="none" stroke="midnightblue" d="M183.216,-232.474C164.622,-215.005 129.14,-177.97 115,-138 109.512,-122.488 109.336,-103.768 110.352,-89.7426"/>
<polygon fill="midnightblue" stroke="midnightblue" points="113.848,-89.9465 111.344,-79.6521 106.882,-89.2617 113.848,-89.9465"/>
</g>
<!-- Node3&#45;&gt;Node4 -->
<g id="edge6" class="edge"><title>Node3&#45;&gt;Node4</title>
<path fill="none" stroke="midnightblue" d="M291.833,-181.862C247.275,-175.603 154.647,-160.229 132,-138 119.228,-125.463 114.813,-105.19 113.395,-89.8556"/>
<polygon fill="midnightblue" stroke="midnightblue" points="116.882,-89.5267 112.815,-79.7436 109.893,-89.9276 116.882,-89.5267"/>
</g>
<!-- Node7 -->
<g id="node13" class="node"><title>Node7</title>
<polygon fill="white" stroke="#bfbfbf" points="234.5,-0.5 234.5,-21.5 263.5,-21.5 263.5,-0.5 234.5,-0.5"/>
<text text-anchor="middle" x="249" y="-8.5" font-family="Helvetica,sans-Serif" font-size="10.00">list</text>
</g>
<!-- Node3&#45;&gt;Node7 -->
<g id="edge36" class="edge"><title>Node3&#45;&gt;Node7</title>
<path fill="none" stroke="midnightblue" d="M340.22,-182.003C383.809,-176.075 472.739,-161.368 492,-138 514.643,-110.529 518.699,-85.425 496,-58 467.95,-24.1097 330.949,-14.4502 273.952,-11.8745"/>
<polygon fill="midnightblue" stroke="midnightblue" points="273.811,-8.36582 263.675,-11.4488 273.522,-15.3598 273.811,-8.36582"/>
</g>
<!-- Node8 -->
<g id="node15" class="node"><title>Node8</title>
<a xlink:href="_utils_8h.html" target="_top" xlink:title="Utils.h">
<polygon fill="white" stroke="black" points="422.5,-116.5 422.5,-137.5 467.5,-137.5 467.5,-116.5 422.5,-116.5"/>
<text text-anchor="middle" x="445" y="-124.5" font-family="Helvetica,sans-Serif" font-size="10.00">Utils.h</text>
</a>
</g>
<!-- Node3&#45;&gt;Node8 -->
<g id="edge14" class="edge"><title>Node3&#45;&gt;Node8</title>
<path fill="none" stroke="midnightblue" d="M339.361,-174.497C359.945,-165.242 390.122,-151.674 412.958,-141.407"/>
<polygon fill="midnightblue" stroke="midnightblue" points="414.561,-144.523 422.246,-137.231 411.69,-138.139 414.561,-144.523"/>
</g>
<!-- Node9 -->
<g id="node18" class="node"><title>Node9</title>
<polygon fill="white" stroke="#bfbfbf" points="437,-58.5 437,-79.5 487,-79.5 487,-58.5 437,-58.5"/>
<text text-anchor="middle" x="462" y="-66.5" font-family="Helvetica,sans-Serif" font-size="10.00">fstream</text>
</g>
<!-- Node3&#45;&gt;Node9 -->
<g id="edge30" class="edge"><title>Node3&#45;&gt;Node9</title>
<path fill="none" stroke="midnightblue" d="M340.095,-181.477C380.629,-175.002 459.649,-159.845 476,-138 486.575,-123.872 480.769,-103.733 473.696,-88.8574"/>
<polygon fill="midnightblue" stroke="midnightblue" points="476.771,-87.185 469.024,-79.9577 470.573,-90.4387 476.771,-87.185"/>
</g>
<!-- Node10 -->
<g id="node20" class="node"><title>Node10</title>
<a xlink:href="_g_n_uplot_8h.html" target="_top" xlink:title="GNUplot.h">
<polygon fill="white" stroke="black" points="140.5,-116.5 140.5,-137.5 203.5,-137.5 203.5,-116.5 140.5,-116.5"/>
<text text-anchor="middle" x="172" y="-124.5" font-family="Helvetica,sans-Serif" font-size="10.00">GNUplot.h</text>
</a>
</g>
<!-- Node3&#45;&gt;Node10 -->
<g id="edge20" class="edge"><title>Node3&#45;&gt;Node10</title>
<path fill="none" stroke="midnightblue" d="M291.898,-175.292C268.895,-166.027 233.956,-151.954 207.719,-141.387"/>
<polygon fill="midnightblue" stroke="midnightblue" points="208.716,-138.015 198.132,-137.525 206.1,-144.508 208.716,-138.015"/>
</g>
<!-- Node11 -->
<g id="node25" class="node"><title>Node11</title>
<polygon fill="white" stroke="#bfbfbf" points="221,-116.5 221,-137.5 275,-137.5 275,-116.5 221,-116.5"/>
<text text-anchor="middle" x="248" y="-124.5" font-family="Helvetica,sans-Serif" font-size="10.00">iostream</text>
</g>
<!-- Node3&#45;&gt;Node11 -->
<g id="edge28" class="edge"><title>Node3&#45;&gt;Node11</title>
<path fill="none" stroke="midnightblue" d="M303.528,-174.362C293.655,-165.941 279.667,-154.011 268.202,-144.231"/>
<polygon fill="midnightblue" stroke="midnightblue" points="270.273,-141.397 260.393,-137.571 265.73,-146.723 270.273,-141.397"/>
</g>
<!-- Node12 -->
<g id="node28" class="node"><title>Node12</title>
<polygon fill="white" stroke="#bfbfbf" points="293,-116.5 293,-137.5 339,-137.5 339,-116.5 293,-116.5"/>
<text text-anchor="middle" x="316" y="-124.5" font-family="Helvetica,sans-Serif" font-size="10.00">cstdint</text>
</g>
<!-- Node3&#45;&gt;Node12 -->
<g id="edge32" class="edge"><title>Node3&#45;&gt;Node12</title>
<path fill="none" stroke="midnightblue" d="M316,-174.362C316,-166.922 316,-156.743 316,-147.728"/>
<polygon fill="midnightblue" stroke="midnightblue" points="319.5,-147.571 316,-137.571 312.5,-147.571 319.5,-147.571"/>
</g>
<!-- Node13 -->
<g id="node30" class="node"><title>Node13</title>
<polygon fill="white" stroke="#bfbfbf" points="356.5,-116.5 356.5,-137.5 405.5,-137.5 405.5,-116.5 356.5,-116.5"/>
<text text-anchor="middle" x="381" y="-124.5" font-family="Helvetica,sans-Serif" font-size="10.00">cassert</text>
</g>
<!-- Node3&#45;&gt;Node13 -->
<g id="edge34" class="edge"><title>Node3&#45;&gt;Node13</title>
<path fill="none" stroke="midnightblue" d="M327.922,-174.362C337.359,-165.941 350.73,-154.011 361.69,-144.231"/>
<polygon fill="midnightblue" stroke="midnightblue" points="364.022,-146.84 369.154,-137.571 359.362,-141.617 364.022,-146.84"/>
</g>
<!-- Node5 -->
<g id="node9" class="node"><title>Node5</title>
<polygon fill="white" stroke="#bfbfbf" points="87.5,-0.5 87.5,-21.5 136.5,-21.5 136.5,-0.5 87.5,-0.5"/>
<text text-anchor="middle" x="112" y="-8.5" font-family="Helvetica,sans-Serif" font-size="10.00">cstddef</text>
</g>
<!-- Node4&#45;&gt;Node5 -->
<g id="edge8" class="edge"><title>Node4&#45;&gt;Node5</title>
<path fill="none" stroke="midnightblue" d="M112.817,-58.3619C112.688,-50.9219 112.513,-40.7427 112.357,-31.7276"/>
<polygon fill="midnightblue" stroke="midnightblue" points="115.854,-31.5088 112.182,-21.5707 108.855,-31.6295 115.854,-31.5088"/>
</g>
<!-- Node6 -->
<g id="node11" class="node"><title>Node6</title>
<polygon fill="white" stroke="#bfbfbf" points="153.5,-0.5 153.5,-21.5 194.5,-21.5 194.5,-0.5 153.5,-0.5"/>
<text text-anchor="middle" x="174" y="-8.5" font-family="Helvetica,sans-Serif" font-size="10.00">string</text>
</g>
<!-- Node4&#45;&gt;Node6 -->
<g id="edge10" class="edge"><title>Node4&#45;&gt;Node6</title>
<path fill="none" stroke="midnightblue" d="M124.188,-58.3619C132.959,-50.0226 145.349,-38.2418 155.578,-28.5162"/>
<polygon fill="midnightblue" stroke="midnightblue" points="158.047,-30.9978 162.883,-21.5707 153.224,-25.9248 158.047,-30.9978"/>
</g>
<!-- Node4&#45;&gt;Node7 -->
<g id="edge12" class="edge"><title>Node4&#45;&gt;Node7</title>
<path fill="none" stroke="midnightblue" d="M137.629,-58.4966C162.386,-47.9382 200.309,-31.7654 224.883,-21.2851"/>
<polygon fill="midnightblue" stroke="midnightblue" points="226.386,-24.4494 234.211,-17.307 223.64,-18.0105 226.386,-24.4494"/>
</g>
<!-- Node8&#45;&gt;Node6 -->
<g id="edge16" class="edge"><title>Node8&#45;&gt;Node6</title>
<path fill="none" stroke="midnightblue" d="M422.361,-117.309C373.62,-96.446 258.742,-47.2733 204.01,-23.8454"/>
<polygon fill="midnightblue" stroke="midnightblue" points="205.09,-20.5007 194.519,-19.7831 202.335,-26.9359 205.09,-20.5007"/>
</g>
<!-- Node8&#45;&gt;Node9 -->
<g id="edge18" class="edge"><title>Node8&#45;&gt;Node9</title>
<path fill="none" stroke="midnightblue" d="M448.118,-116.362C450.323,-108.84 453.348,-98.5187 456.012,-89.4308"/>
<polygon fill="midnightblue" stroke="midnightblue" points="459.448,-90.1514 458.902,-79.5707 452.73,-88.1825 459.448,-90.1514"/>
</g>
<!-- Node10&#45;&gt;Node4 -->
<g id="edge26" class="edge"><title>Node10&#45;&gt;Node4</title>
<path fill="none" stroke="midnightblue" d="M161.178,-116.362C152.779,-108.104 140.946,-96.4725 131.11,-86.8029"/>
<polygon fill="midnightblue" stroke="midnightblue" points="133.338,-84.0851 123.753,-79.5707 128.431,-89.077 133.338,-84.0851"/>
</g>
<!-- Node10&#45;&gt;Node6 -->
<g id="edge22" class="edge"><title>Node10&#45;&gt;Node6</title>
<path fill="none" stroke="midnightblue" d="M172.185,-116.295C172.515,-97.1314 173.213,-56.654 173.641,-31.8434"/>
<polygon fill="midnightblue" stroke="midnightblue" points="177.143,-31.7381 173.816,-21.6792 170.144,-31.6173 177.143,-31.7381"/>
</g>
<!-- Node10&#45;&gt;Node7 -->
<g id="edge24" class="edge"><title>Node10&#45;&gt;Node7</title>
<path fill="none" stroke="midnightblue" d="M179.106,-116.295C192.113,-96.6998 219.913,-54.8198 236.261,-30.1913"/>
<polygon fill="midnightblue" stroke="midnightblue" points="239.297,-31.9464 241.911,-21.6792 233.465,-28.0751 239.297,-31.9464"/>
</g>
</g>
</svg>
