<?xml version="1.0" encoding="UTF-8" standalone="no"?>
<!DOCTYPE svg PUBLIC "-//W3C//DTD SVG 1.1//EN"
 "http://www.w3.org/Graphics/SVG/1.1/DTD/svg11.dtd">
<!-- Generated by graphviz version 2.26.3 (20100126.1600)
 -->
<!-- Title: G Pages: 1 -->
<svg width="2224pt" height="378pt"
 viewBox="0.00 0.00 2224.00 378.00" xmlns="http://www.w3.org/2000/svg" xmlns:xlink="http://www.w3.org/1999/xlink">
<g id="graph1" class="graph" transform="scale(1 1) rotate(0) translate(4 374)">
<title>G</title>
<polygon fill="white" stroke="white" points="-4,5 -4,-374 2221,-374 2221,5 -4,5"/>
<!-- Node1 -->
<g id="node1" class="node"><title>Node1</title>
<polygon fill="#bfbfbf" stroke="black" points="1589,-348.5 1589,-369.5 1969,-369.5 1969,-348.5 1589,-348.5"/>
<text text-anchor="middle" x="1779" y="-356.5" font-family="Helvetica,sans-Serif" font-size="10.00">/mnt/sshfs/imperialroot/homes/dk3810/workingcopies/disaggregate/src/Histogram.h</text>
</g>
<!-- Node2 -->
<g id="node3" class="node"><title>Node2</title>
<a xlink:href="_statistic_8h.html" target="_top" xlink:title="/mnt/sshfs/imperialroot/homes/dk3810/workingcopies/disaggregate/src/Statistic.h">
<polygon fill="white" stroke="black" points="691.5,-290.5 691.5,-311.5 1062.5,-311.5 1062.5,-290.5 691.5,-290.5"/>
<text text-anchor="middle" x="877" y="-298.5" font-family="Helvetica,sans-Serif" font-size="10.00">/mnt/sshfs/imperialroot/homes/dk3810/workingcopies/disaggregate/src/Statistic.h</text>
</a>
</g>
<!-- Node1&#45;&gt;Node2 -->
<g id="edge2" class="edge"><title>Node1&#45;&gt;Node2</title>
<path fill="none" stroke="midnightblue" d="M1605.52,-347.845C1442.51,-337.363 1200.38,-321.794 1040.65,-311.523"/>
<polygon fill="midnightblue" stroke="midnightblue" points="1605.45,-351.348 1615.65,-348.497 1605.9,-344.362 1605.45,-351.348"/>
</g>
<!-- Node8 -->
<g id="node15" class="node"><title>Node8</title>
<a xlink:href="_signature_8cpp.html" target="_top" xlink:title="/mnt/sshfs/imperialroot/homes/dk3810/workingcopies/disaggregate/src/Signature.cpp">
<polygon fill="white" stroke="black" points="1467,-0.5 1467,-21.5 1853,-21.5 1853,-0.5 1467,-0.5"/>
<text text-anchor="middle" x="1660" y="-8.5" font-family="Helvetica,sans-Serif" font-size="10.00">/mnt/sshfs/imperialroot/homes/dk3810/workingcopies/disaggregate/src/Signature.cpp</text>
</a>
</g>
<!-- Node1&#45;&gt;Node8 -->
<g id="edge58" class="edge"><title>Node1&#45;&gt;Node8</title>
<path fill="none" stroke="midnightblue" d="M1784.42,-338.526C1790.04,-315.477 1798,-276.825 1798,-243 1798,-243 1798,-243 1798,-127 1798,-71.7587 1732.4,-37.5499 1691.66,-21.6304"/>
<polygon fill="midnightblue" stroke="midnightblue" points="1781.03,-337.669 1781.97,-348.222 1787.81,-339.384 1781.03,-337.669"/>
</g>
<!-- Node11 -->
<g id="node24" class="node"><title>Node11</title>
<a xlink:href="_signature_8h.html" target="_top" xlink:title="/mnt/sshfs/imperialroot/homes/dk3810/workingcopies/disaggregate/src/Signature.h">
<polygon fill="white" stroke="black" points="841,-174.5 841,-195.5 1217,-195.5 1217,-174.5 841,-174.5"/>
<text text-anchor="middle" x="1029" y="-182.5" font-family="Helvetica,sans-Serif" font-size="10.00">/mnt/sshfs/imperialroot/homes/dk3810/workingcopies/disaggregate/src/Signature.h</text>
</a>
</g>
<!-- Node1&#45;&gt;Node11 -->
<g id="edge54" class="edge"><title>Node1&#45;&gt;Node11</title>
<path fill="none" stroke="midnightblue" d="M1755.98,-342.547C1715.15,-314.336 1626.38,-257.331 1542,-232 1507.71,-221.706 1315.61,-205.901 1176.54,-195.507"/>
<polygon fill="midnightblue" stroke="midnightblue" points="1754.2,-345.57 1764.4,-348.427 1758.21,-339.831 1754.2,-345.57"/>
</g>
<!-- Node14 -->
<g id="node42" class="node"><title>Node14</title>
<a xlink:href="_histogram_8cpp.html" target="_top" xlink:title="/mnt/sshfs/imperialroot/homes/dk3810/workingcopies/disaggregate/src/Histogram.cpp">
<polygon fill="white" stroke="black" points="1826,-290.5 1826,-311.5 2216,-311.5 2216,-290.5 1826,-290.5"/>
<text text-anchor="middle" x="2021" y="-298.5" font-family="Helvetica,sans-Serif" font-size="10.00">/mnt/sshfs/imperialroot/homes/dk3810/workingcopies/disaggregate/src/Histogram.cpp</text>
</a>
</g>
<!-- Node1&#45;&gt;Node14 -->
<g id="edge56" class="edge"><title>Node1&#45;&gt;Node14</title>
<path fill="none" stroke="midnightblue" d="M1832.65,-346.142C1876.08,-335.733 1936.5,-321.251 1977.09,-311.523"/>
<polygon fill="midnightblue" stroke="midnightblue" points="1831.73,-342.762 1822.82,-348.497 1833.36,-349.569 1831.73,-342.762"/>
</g>
<!-- Node3 -->
<g id="node5" class="node"><title>Node3</title>
<a xlink:href="_aggregate_data_8h.html" target="_top" xlink:title="/mnt/sshfs/imperialroot/homes/dk3810/workingcopies/disaggregate/src/AggregateData.h">
<polygon fill="white" stroke="black" points="347,-174.5 347,-195.5 747,-195.5 747,-174.5 347,-174.5"/>
<text text-anchor="middle" x="547" y="-182.5" font-family="Helvetica,sans-Serif" font-size="10.00">/mnt/sshfs/imperialroot/homes/dk3810/workingcopies/disaggregate/src/AggregateData.h</text>
</a>
</g>
<!-- Node2&#45;&gt;Node3 -->
<g id="edge4" class="edge"><title>Node2&#45;&gt;Node3</title>
<path fill="none" stroke="midnightblue" d="M837.07,-286.964C770.091,-263.42 636.594,-216.494 576.971,-195.535"/>
<polygon fill="midnightblue" stroke="midnightblue" points="836.245,-290.384 846.84,-290.398 838.566,-283.78 836.245,-290.384"/>
</g>
<!-- Node5 -->
<g id="node9" class="node"><title>Node5</title>
<a xlink:href="_device_8h.html" target="_top" xlink:title="/mnt/sshfs/imperialroot/homes/dk3810/workingcopies/disaggregate/src/Device.h">
<polygon fill="white" stroke="black" points="865.5,-58.5 865.5,-79.5 1230.5,-79.5 1230.5,-58.5 865.5,-58.5"/>
<text text-anchor="middle" x="1048" y="-66.5" font-family="Helvetica,sans-Serif" font-size="10.00">/mnt/sshfs/imperialroot/homes/dk3810/workingcopies/disaggregate/src/Device.h</text>
</a>
</g>
<!-- Node2&#45;&gt;Node5 -->
<g id="edge46" class="edge"><title>Node2&#45;&gt;Node5</title>
<path fill="none" stroke="midnightblue" d="M860.687,-282.832C839.239,-256.66 807.045,-207.787 832,-174 864.323,-130.236 900.096,-161.841 949,-138 982.709,-121.567 1017.68,-94.38 1035.67,-79.512"/>
<polygon fill="midnightblue" stroke="midnightblue" points="858.046,-285.129 867.188,-290.484 863.381,-280.597 858.046,-285.129"/>
</g>
<!-- Node7 -->
<g id="node13" class="node"><title>Node7</title>
<a xlink:href="_main_8cpp.html" target="_top" xlink:title="/mnt/sshfs/imperialroot/homes/dk3810/workingcopies/disaggregate/src/Main.cpp">
<polygon fill="white" stroke="black" points="616,-0.5 616,-21.5 982,-21.5 982,-0.5 616,-0.5"/>
<text text-anchor="middle" x="799" y="-8.5" font-family="Helvetica,sans-Serif" font-size="10.00">/mnt/sshfs/imperialroot/homes/dk3810/workingcopies/disaggregate/src/Main.cpp</text>
</a>
</g>
<!-- Node2&#45;&gt;Node7 -->
<g id="edge50" class="edge"><title>Node2&#45;&gt;Node7</title>
<path fill="none" stroke="midnightblue" d="M681.008,-294.229C422.512,-282.626 0,-253.225 0,-185 0,-185 0,-185 0,-127 0,-65.1283 380.07,-33.4229 615.944,-19.7039"/>
<polygon fill="midnightblue" stroke="midnightblue" points="681.134,-297.738 691.279,-294.685 681.444,-290.745 681.134,-297.738"/>
</g>
<!-- Node2&#45;&gt;Node8 -->
<g id="edge52" class="edge"><title>Node2&#45;&gt;Node8</title>
<path fill="none" stroke="midnightblue" d="M1072.71,-293.245C1236.08,-285.647 1455.68,-272.506 1542,-254 1615.14,-238.319 1657.18,-257.335 1700,-196 1739.31,-139.688 1687.78,-52.017 1667.53,-21.7233"/>
<polygon fill="midnightblue" stroke="midnightblue" points="1072.35,-289.757 1062.52,-293.714 1072.67,-296.75 1072.35,-289.757"/>
</g>
<!-- Node9 -->
<g id="node17" class="node"><title>Node9</title>
<a xlink:href="_power_state_graph_8h.html" target="_top" xlink:title="/mnt/sshfs/imperialroot/homes/dk3810/workingcopies/disaggregate/src/PowerStateGraph.h">
<polygon fill="white" stroke="black" points="494,-116.5 494,-137.5 906,-137.5 906,-116.5 494,-116.5"/>
<text text-anchor="middle" x="700" y="-124.5" font-family="Helvetica,sans-Serif" font-size="10.00">/mnt/sshfs/imperialroot/homes/dk3810/workingcopies/disaggregate/src/PowerStateGraph.h</text>
</a>
</g>
<!-- Node2&#45;&gt;Node9 -->
<g id="edge48" class="edge"><title>Node2&#45;&gt;Node9</title>
<path fill="none" stroke="midnightblue" d="M843.531,-285.939C828.583,-278.011 811.549,-267.181 799,-254 771.166,-224.765 781.472,-205.315 756,-174 744.306,-159.624 727.736,-146.359 715.656,-137.613"/>
<polygon fill="midnightblue" stroke="midnightblue" points="842.009,-289.091 852.51,-290.495 845.177,-282.849 842.009,-289.091"/>
</g>
<!-- Node2&#45;&gt;Node11 -->
<g id="edge26" class="edge"><title>Node2&#45;&gt;Node11</title>
<path fill="none" stroke="midnightblue" d="M899.268,-284.006C931.07,-259.736 988.565,-215.858 1015.01,-195.679"/>
<polygon fill="midnightblue" stroke="midnightblue" points="896.854,-281.446 891.027,-290.295 901.1,-287.01 896.854,-281.446"/>
</g>
<!-- Node12 -->
<g id="node31" class="node"><title>Node12</title>
<a xlink:href="_power_state_sequence_8h.html" target="_top" xlink:title="/mnt/sshfs/imperialroot/homes/dk3810/workingcopies/disaggregate/src/PowerStateSequence.h">
<polygon fill="white" stroke="black" points="1104.5,-232.5 1104.5,-253.5 1533.5,-253.5 1533.5,-232.5 1104.5,-232.5"/>
<text text-anchor="middle" x="1319" y="-240.5" font-family="Helvetica,sans-Serif" font-size="10.00">/mnt/sshfs/imperialroot/homes/dk3810/workingcopies/disaggregate/src/PowerStateSequence.h</text>
</a>
</g>
<!-- Node2&#45;&gt;Node12 -->
<g id="edge38" class="edge"><title>Node2&#45;&gt;Node12</title>
<path fill="none" stroke="midnightblue" d="M967.076,-289.18C1046.84,-278.714 1162.18,-263.579 1238.81,-253.523"/>
<polygon fill="midnightblue" stroke="midnightblue" points="966.502,-285.725 957.043,-290.497 967.413,-292.666 966.502,-285.725"/>
</g>
<!-- Node4 -->
<g id="node7" class="node"><title>Node4</title>
<a xlink:href="_aggregate_data_8cpp.html" target="_top" xlink:title="/mnt/sshfs/imperialroot/homes/dk3810/workingcopies/disaggregate/src/AggregateData.cpp">
<polygon fill="white" stroke="black" points="28,-116.5 28,-137.5 438,-137.5 438,-116.5 28,-116.5"/>
<text text-anchor="middle" x="233" y="-124.5" font-family="Helvetica,sans-Serif" font-size="10.00">/mnt/sshfs/imperialroot/homes/dk3810/workingcopies/disaggregate/src/AggregateData.cpp</text>
</a>
</g>
<!-- Node3&#45;&gt;Node4 -->
<g id="edge6" class="edge"><title>Node3&#45;&gt;Node4</title>
<path fill="none" stroke="midnightblue" d="M480.22,-172.665C423.684,-162.222 343.522,-147.415 289.97,-137.523"/>
<polygon fill="midnightblue" stroke="midnightblue" points="479.668,-176.122 490.137,-174.497 480.939,-169.238 479.668,-176.122"/>
</g>
<!-- Node3&#45;&gt;Node5 -->
<g id="edge8" class="edge"><title>Node3&#45;&gt;Node5</title>
<path fill="none" stroke="midnightblue" d="M674.917,-173.457C762.859,-164.611 871.343,-151.639 915,-138 916.494,-137.533 990.944,-98.7536 1027.79,-79.5439"/>
<polygon fill="midnightblue" stroke="midnightblue" points="674.449,-169.987 664.845,-174.462 675.143,-176.952 674.449,-169.987"/>
</g>
<!-- Node3&#45;&gt;Node9 -->
<g id="edge16" class="edge"><title>Node3&#45;&gt;Node9</title>
<path fill="none" stroke="midnightblue" d="M584.263,-170.874C611.413,-160.582 647.605,-146.862 672.241,-137.523"/>
<polygon fill="midnightblue" stroke="midnightblue" points="582.817,-167.679 574.707,-174.497 585.298,-174.225 582.817,-167.679"/>
</g>
<!-- Node10 -->
<g id="node21" class="node"><title>Node10</title>
<a xlink:href="_power_state_graph_8cpp.html" target="_top" xlink:title="/mnt/sshfs/imperialroot/homes/dk3810/workingcopies/disaggregate/src/PowerStateGraph.cpp">
<polygon fill="white" stroke="black" points="279,-58.5 279,-79.5 701,-79.5 701,-58.5 279,-58.5"/>
<text text-anchor="middle" x="490" y="-66.5" font-family="Helvetica,sans-Serif" font-size="10.00">/mnt/sshfs/imperialroot/homes/dk3810/workingcopies/disaggregate/src/PowerStateGraph.cpp</text>
</a>
</g>
<!-- Node3&#45;&gt;Node10 -->
<g id="edge24" class="edge"><title>Node3&#45;&gt;Node10</title>
<path fill="none" stroke="midnightblue" d="M515.163,-169.046C503.445,-161.389 491.465,-151.013 485,-138 475.702,-119.284 481.353,-94.1337 485.928,-79.9422"/>
<polygon fill="midnightblue" stroke="midnightblue" points="513.608,-172.196 523.978,-174.371 517.228,-166.204 513.608,-172.196"/>
</g>
<!-- Node6 -->
<g id="node11" class="node"><title>Node6</title>
<a xlink:href="_device_8cpp.html" target="_top" xlink:title="/mnt/sshfs/imperialroot/homes/dk3810/workingcopies/disaggregate/src/Device.cpp">
<polygon fill="white" stroke="black" points="1046,-0.5 1046,-21.5 1422,-21.5 1422,-0.5 1046,-0.5"/>
<text text-anchor="middle" x="1234" y="-8.5" font-family="Helvetica,sans-Serif" font-size="10.00">/mnt/sshfs/imperialroot/homes/dk3810/workingcopies/disaggregate/src/Device.cpp</text>
</a>
</g>
<!-- Node5&#45;&gt;Node6 -->
<g id="edge10" class="edge"><title>Node5&#45;&gt;Node6</title>
<path fill="none" stroke="midnightblue" d="M1091.57,-55.4127C1124.76,-45.0646 1169.78,-31.0258 1200.25,-21.5231"/>
<polygon fill="midnightblue" stroke="midnightblue" points="1090.19,-52.1783 1081.68,-58.4966 1092.27,-58.861 1090.19,-52.1783"/>
</g>
<!-- Node5&#45;&gt;Node7 -->
<g id="edge12" class="edge"><title>Node5&#45;&gt;Node7</title>
<path fill="none" stroke="midnightblue" d="M993.083,-56.2081C948.373,-45.7938 886.028,-31.2716 844.177,-21.5231"/>
<polygon fill="midnightblue" stroke="midnightblue" points="992.375,-59.6367 1002.91,-58.4966 993.963,-52.8192 992.375,-59.6367"/>
</g>
<!-- Node5&#45;&gt;Node8 -->
<g id="edge14" class="edge"><title>Node5&#45;&gt;Node8</title>
<path fill="none" stroke="midnightblue" d="M1169.03,-57.53C1279.57,-47.0535 1441.67,-31.6914 1548.96,-21.5231"/>
<polygon fill="midnightblue" stroke="midnightblue" points="1168.45,-54.0687 1158.83,-58.4966 1169.11,-61.0375 1168.45,-54.0687"/>
</g>
<!-- Node9&#45;&gt;Node5 -->
<g id="edge18" class="edge"><title>Node9&#45;&gt;Node5</title>
<path fill="none" stroke="midnightblue" d="M773.234,-114.794C835.932,-104.345 925.264,-89.4559 984.862,-79.5231"/>
<polygon fill="midnightblue" stroke="midnightblue" points="772.309,-111.4 763.02,-116.497 773.46,-118.305 772.309,-111.4"/>
</g>
<!-- Node9&#45;&gt;Node7 -->
<g id="edge20" class="edge"><title>Node9&#45;&gt;Node7</title>
<path fill="none" stroke="midnightblue" d="M715.854,-108.424C736.807,-83.8721 773.032,-41.4272 789.886,-21.6792"/>
<polygon fill="midnightblue" stroke="midnightblue" points="712.966,-106.416 709.136,-116.295 718.29,-110.961 712.966,-106.416"/>
</g>
<!-- Node9&#45;&gt;Node10 -->
<g id="edge22" class="edge"><title>Node9&#45;&gt;Node10</title>
<path fill="none" stroke="midnightblue" d="M652.251,-113.812C614.655,-103.428 562.952,-89.1487 528.101,-79.5231"/>
<polygon fill="midnightblue" stroke="midnightblue" points="651.4,-117.208 661.971,-116.497 653.263,-110.461 651.4,-117.208"/>
</g>
<!-- Node11&#45;&gt;Node5 -->
<g id="edge28" class="edge"><title>Node11&#45;&gt;Node5</title>
<path fill="none" stroke="midnightblue" d="M1032.42,-164.123C1036.49,-139.298 1043.12,-98.8235 1046.25,-79.6792"/>
<polygon fill="midnightblue" stroke="midnightblue" points="1028.92,-163.861 1030.75,-174.295 1035.82,-164.992 1028.92,-163.861"/>
</g>
<!-- Node11&#45;&gt;Node6 -->
<g id="edge32" class="edge"><title>Node11&#45;&gt;Node6</title>
<path fill="none" stroke="midnightblue" d="M1093.78,-171.791C1143.04,-157.982 1207.52,-130.929 1239,-80 1250.11,-62.0184 1243.58,-36.1482 1238.42,-21.7354"/>
<polygon fill="midnightblue" stroke="midnightblue" points="1092.58,-168.489 1083.83,-174.46 1094.4,-175.249 1092.58,-168.489"/>
</g>
<!-- Node11&#45;&gt;Node7 -->
<g id="edge34" class="edge"><title>Node11&#45;&gt;Node7</title>
<path fill="none" stroke="midnightblue" d="M1002.51,-168.981C955.063,-140.262 860.179,-82.7324 857,-80 836.112,-62.0482 816.531,-36.1669 806.333,-21.7441"/>
<polygon fill="midnightblue" stroke="midnightblue" points="1000.96,-172.133 1011.33,-174.315 1004.59,-166.144 1000.96,-172.133"/>
</g>
<!-- Node11&#45;&gt;Node8 -->
<g id="edge36" class="edge"><title>Node11&#45;&gt;Node8</title>
<path fill="none" stroke="midnightblue" d="M1078.92,-171.83C1114.17,-162.489 1162.51,-149.602 1205,-138 1360.46,-95.5473 1545.34,-43.4408 1622.88,-21.5126"/>
<polygon fill="midnightblue" stroke="midnightblue" points="1077.65,-168.545 1068.88,-174.488 1079.44,-175.312 1077.65,-168.545"/>
</g>
<!-- Node11&#45;&gt;Node9 -->
<g id="edge30" class="edge"><title>Node11&#45;&gt;Node9</title>
<path fill="none" stroke="midnightblue" d="M959.397,-172.73C900.141,-162.283 815.918,-147.435 759.691,-137.523"/>
<polygon fill="midnightblue" stroke="midnightblue" points="958.965,-176.207 969.421,-174.497 960.18,-169.314 958.965,-176.207"/>
</g>
<!-- Node12&#45;&gt;Node5 -->
<g id="edge42" class="edge"><title>Node12&#45;&gt;Node5</title>
<path fill="none" stroke="midnightblue" d="M1484.53,-231.623C1574.45,-223.711 1670.15,-211.751 1684,-196 1690.46,-188.658 1690.33,-181.456 1684,-174 1650.45,-134.452 1332,-97.1224 1158.85,-79.5352"/>
<polygon fill="midnightblue" stroke="midnightblue" points="1484.11,-228.147 1474.45,-232.496 1484.71,-235.121 1484.11,-228.147"/>
</g>
<!-- Node12&#45;&gt;Node11 -->
<g id="edge40" class="edge"><title>Node12&#45;&gt;Node11</title>
<path fill="none" stroke="midnightblue" d="M1256.67,-230.535C1204.5,-220.099 1130.87,-205.374 1081.62,-195.523"/>
<polygon fill="midnightblue" stroke="midnightblue" points="1255.99,-233.967 1266.48,-232.497 1257.36,-227.103 1255.99,-233.967"/>
</g>
<!-- Node13 -->
<g id="node35" class="node"><title>Node13</title>
<a xlink:href="_power_state_sequence_8cpp.html" target="_top" xlink:title="/mnt/sshfs/imperialroot/homes/dk3810/workingcopies/disaggregate/src/PowerStateSequence.cpp">
<polygon fill="white" stroke="black" points="1235,-174.5 1235,-195.5 1675,-195.5 1675,-174.5 1235,-174.5"/>
<text text-anchor="middle" x="1455" y="-182.5" font-family="Helvetica,sans-Serif" font-size="10.00">/mnt/sshfs/imperialroot/homes/dk3810/workingcopies/disaggregate/src/PowerStateSequence.cpp</text>
</a>
</g>
<!-- Node12&#45;&gt;Node13 -->
<g id="edge44" class="edge"><title>Node12&#45;&gt;Node13</title>
<path fill="none" stroke="midnightblue" d="M1353.05,-228.479C1376.99,-218.269 1408.48,-204.839 1430.1,-195.621"/>
<polygon fill="midnightblue" stroke="midnightblue" points="1351.45,-225.354 1343.63,-232.497 1354.2,-231.793 1351.45,-225.354"/>
</g>
</g>
</svg>
