<?xml version="1.0" encoding="UTF-8" standalone="no"?>
<!DOCTYPE svg PUBLIC "-//W3C//DTD SVG 1.1//EN"
 "http://www.w3.org/Graphics/SVG/1.1/DTD/svg11.dtd">
<!-- Generated by graphviz version 2.26.3 (20100126.1600)
 -->
<!-- Title: G Pages: 1 -->
<svg width="1722pt" height="610pt"
 viewBox="0.00 0.00 1722.00 610.00" xmlns="http://www.w3.org/2000/svg" xmlns:xlink="http://www.w3.org/1999/xlink">
<g id="graph1" class="graph" transform="scale(1 1) rotate(0) translate(4 606)">
<title>G</title>
<polygon fill="white" stroke="white" points="-4,5 -4,-606 1719,-606 1719,5 -4,5"/>
<!-- Node1 -->
<g id="node1" class="node"><title>Node1</title>
<polygon fill="#bfbfbf" stroke="black" points="763,-580.5 763,-601.5 1129,-601.5 1129,-580.5 763,-580.5"/>
<text text-anchor="middle" x="946" y="-588.5" font-family="Helvetica,sans-Serif" font-size="10.00">/mnt/sshfs/imperialroot/homes/dk3810/workingcopies/disaggregate/src/Main.cpp</text>
</g>
<!-- Node2 -->
<g id="node3" class="node"><title>Node2</title>
<polygon fill="white" stroke="#bfbfbf" points="0,-522.5 0,-543.5 134,-543.5 134,-522.5 0,-522.5"/>
<text text-anchor="middle" x="67" y="-530.5" font-family="Helvetica,sans-Serif" font-size="10.00">boost/program_options.hpp</text>
</g>
<!-- Node1&#45;&gt;Node2 -->
<g id="edge2" class="edge"><title>Node1&#45;&gt;Node2</title>
<path fill="none" stroke="midnightblue" d="M762.656,-584.171C600.714,-577.194 358.304,-564.443 148,-544 146.729,-543.876 145.447,-543.748 144.156,-543.615"/>
<polygon fill="midnightblue" stroke="midnightblue" points="144.459,-540.127 134.138,-542.518 143.697,-547.086 144.459,-540.127"/>
</g>
<!-- Node3 -->
<g id="node5" class="node"><title>Node3</title>
<a xlink:href="_array_8h.html" target="_top" xlink:title="Array.h">
<polygon fill="white" stroke="black" points="1020,-174.5 1020,-195.5 1068,-195.5 1068,-174.5 1020,-174.5"/>
<text text-anchor="middle" x="1044" y="-182.5" font-family="Helvetica,sans-Serif" font-size="10.00">Array.h</text>
</a>
</g>
<!-- Node1&#45;&gt;Node3 -->
<g id="edge4" class="edge"><title>Node1&#45;&gt;Node3</title>
<path fill="none" stroke="midnightblue" d="M804.32,-580.48C607.698,-563.94 276,-528.159 276,-475 276,-475 276,-475 276,-359 276,-240.67 396.697,-266.122 510,-232 604.244,-203.618 907.291,-190.051 1009.77,-186.193"/>
<polygon fill="midnightblue" stroke="midnightblue" points="1010.01,-189.687 1019.87,-185.82 1009.75,-182.692 1010.01,-189.687"/>
</g>
<!-- Node4 -->
<g id="node7" class="node"><title>Node4</title>
<a xlink:href="_common_8h.html" target="_top" xlink:title="Common.h">
<polygon fill="white" stroke="black" points="1134.5,-58.5 1134.5,-79.5 1199.5,-79.5 1199.5,-58.5 1134.5,-58.5"/>
<text text-anchor="middle" x="1167" y="-66.5" font-family="Helvetica,sans-Serif" font-size="10.00">Common.h</text>
</a>
</g>
<!-- Node1&#45;&gt;Node4 -->
<g id="edge134" class="edge"><title>Node1&#45;&gt;Node4</title>
<path fill="none" stroke="midnightblue" d="M1027.59,-580.467C1171.76,-559.92 1461.64,-509.257 1517,-428 1600.04,-306.118 1535.23,-183.308 1404,-116 1370.64,-98.8885 1268.3,-82.7565 1209.59,-74.58"/>
<polygon fill="midnightblue" stroke="midnightblue" points="1209.89,-71.089 1199.51,-73.1948 1208.94,-78.0238 1209.89,-71.089"/>
</g>
<!-- Node6 -->
<g id="node11" class="node"><title>Node6</title>
<polygon fill="white" stroke="#bfbfbf" points="366.5,-0.5 366.5,-21.5 407.5,-21.5 407.5,-0.5 366.5,-0.5"/>
<text text-anchor="middle" x="387" y="-8.5" font-family="Helvetica,sans-Serif" font-size="10.00">string</text>
</g>
<!-- Node1&#45;&gt;Node6 -->
<g id="edge142" class="edge"><title>Node1&#45;&gt;Node6</title>
<path fill="none" stroke="midnightblue" d="M762.932,-586.784C563.128,-580.986 265.192,-568.374 218,-544 182.908,-525.876 162,-514.496 162,-475 162,-475 162,-475 162,-127 162,-40.7652 294.185,-18.5759 355.921,-12.9151"/>
<polygon fill="midnightblue" stroke="midnightblue" points="356.558,-16.3746 366.236,-12.0639 355.982,-9.3983 356.558,-16.3746"/>
</g>
<!-- Node9 -->
<g id="node18" class="node"><title>Node9</title>
<polygon fill="white" stroke="#bfbfbf" points="365,-58.5 365,-79.5 415,-79.5 415,-58.5 365,-58.5"/>
<text text-anchor="middle" x="390" y="-66.5" font-family="Helvetica,sans-Serif" font-size="10.00">fstream</text>
</g>
<!-- Node1&#45;&gt;Node9 -->
<g id="edge138" class="edge"><title>Node1&#45;&gt;Node9</title>
<path fill="none" stroke="midnightblue" d="M762.807,-582.095C622.849,-574.159 442.109,-561.15 370,-544 290.671,-525.133 200,-556.542 200,-475 200,-475 200,-475 200,-301 200,-199.583 310.019,-118.174 362.619,-85.0477"/>
<polygon fill="midnightblue" stroke="midnightblue" points="364.762,-87.8379 371.436,-79.6092 361.087,-81.8801 364.762,-87.8379"/>
</g>
<!-- Node11 -->
<g id="node25" class="node"><title>Node11</title>
<polygon fill="white" stroke="#bfbfbf" points="1290,-116.5 1290,-137.5 1344,-137.5 1344,-116.5 1290,-116.5"/>
<text text-anchor="middle" x="1317" y="-124.5" font-family="Helvetica,sans-Serif" font-size="10.00">iostream</text>
</g>
<!-- Node1&#45;&gt;Node11 -->
<g id="edge136" class="edge"><title>Node1&#45;&gt;Node11</title>
<path fill="none" stroke="midnightblue" d="M963.1,-580.316C977.832,-570.998 999.57,-556.978 1018,-544 1059.5,-514.776 1154.78,-429.044 1200,-406 1249.23,-380.913 1270.51,-396.49 1319,-370 1353.86,-350.957 1370.36,-348.068 1387,-312 1414.45,-252.497 1362.08,-178.908 1333.64,-145.296"/>
<polygon fill="midnightblue" stroke="midnightblue" points="1336.19,-142.894 1326.99,-137.644 1330.91,-147.487 1336.19,-142.894"/>
</g>
<!-- Node14 -->
<g id="node33" class="node"><title>Node14</title>
<a xlink:href="_signature_8h.html" target="_top" xlink:title="Signature.h">
<polygon fill="white" stroke="black" points="1087,-406.5 1087,-427.5 1153,-427.5 1153,-406.5 1087,-406.5"/>
<text text-anchor="middle" x="1120" y="-414.5" font-family="Helvetica,sans-Serif" font-size="10.00">Signature.h</text>
</a>
</g>
<!-- Node1&#45;&gt;Node14 -->
<g id="edge38" class="edge"><title>Node1&#45;&gt;Node14</title>
<path fill="none" stroke="midnightblue" d="M956.623,-580.377C985.433,-551.567 1065.32,-471.678 1101.62,-435.376"/>
<polygon fill="midnightblue" stroke="midnightblue" points="1104.48,-437.474 1109.07,-427.928 1099.53,-432.524 1104.48,-437.474"/>
</g>
<!-- Node15 -->
<g id="node37" class="node"><title>Node15</title>
<a xlink:href="_statistic_8h.html" target="_top" xlink:title="Statistic.h">
<polygon fill="white" stroke="black" points="960.5,-290.5 960.5,-311.5 1021.5,-311.5 1021.5,-290.5 960.5,-290.5"/>
<text text-anchor="middle" x="991" y="-298.5" font-family="Helvetica,sans-Serif" font-size="10.00">Statistic.h</text>
</a>
</g>
<!-- Node1&#45;&gt;Node15 -->
<g id="edge84" class="edge"><title>Node1&#45;&gt;Node15</title>
<path fill="none" stroke="midnightblue" d="M901.757,-580.44C828.984,-561.768 692,-520.57 692,-475 692,-475 692,-475 692,-417 692,-362.203 868.759,-323.094 950.466,-307.944"/>
<polygon fill="midnightblue" stroke="midnightblue" points="951.197,-311.368 960.407,-306.132 949.941,-304.482 951.197,-311.368"/>
</g>
<!-- Node22 -->
<g id="node65" class="node"><title>Node22</title>
<a xlink:href="_device_8h.html" target="_top" xlink:title="Device.h">
<polygon fill="white" stroke="black" points="918,-522.5 918,-543.5 974,-543.5 974,-522.5 918,-522.5"/>
<text text-anchor="middle" x="946" y="-530.5" font-family="Helvetica,sans-Serif" font-size="10.00">Device.h</text>
</a>
</g>
<!-- Node1&#45;&gt;Node22 -->
<g id="edge86" class="edge"><title>Node1&#45;&gt;Node22</title>
<path fill="none" stroke="midnightblue" d="M946,-580.362C946,-572.922 946,-562.743 946,-553.728"/>
<polygon fill="midnightblue" stroke="midnightblue" points="949.5,-553.571 946,-543.571 942.5,-553.571 949.5,-553.571"/>
</g>
<!-- Node25 -->
<g id="node81" class="node"><title>Node25</title>
<a xlink:href="_power_state_graph_8h.html" target="_top" xlink:title="PowerStateGraph.h">
<polygon fill="white" stroke="black" points="1209,-464.5 1209,-485.5 1311,-485.5 1311,-464.5 1209,-464.5"/>
<text text-anchor="middle" x="1260" y="-472.5" font-family="Helvetica,sans-Serif" font-size="10.00">PowerStateGraph.h</text>
</a>
</g>
<!-- Node1&#45;&gt;Node25 -->
<g id="edge132" class="edge"><title>Node1&#45;&gt;Node25</title>
<path fill="none" stroke="midnightblue" d="M1032.27,-580.485C1092.69,-572.045 1167.36,-559.131 1195,-544 1216.84,-532.042 1235.57,-510.116 1247.24,-494.182"/>
<polygon fill="midnightblue" stroke="midnightblue" points="1250.37,-495.807 1253.26,-485.614 1244.65,-491.782 1250.37,-495.807"/>
</g>
<!-- Node29 -->
<g id="node99" class="node"><title>Node29</title>
<polygon fill="white" stroke="#bfbfbf" points="1667.5,-522.5 1667.5,-543.5 1714.5,-543.5 1714.5,-522.5 1667.5,-522.5"/>
<text text-anchor="middle" x="1691" y="-530.5" font-family="Helvetica,sans-Serif" font-size="10.00">iterator</text>
</g>
<!-- Node1&#45;&gt;Node29 -->
<g id="edge140" class="edge"><title>Node1&#45;&gt;Node29</title>
<path fill="none" stroke="midnightblue" d="M1129.09,-583.475C1304.69,-575.42 1557,-561.414 1654,-544 1655.09,-543.805 1656.19,-543.589 1657.3,-543.356"/>
<polygon fill="midnightblue" stroke="midnightblue" points="1658.43,-546.682 1667.3,-540.892 1656.76,-539.885 1658.43,-546.682"/>
</g>
<!-- Node3&#45;&gt;Node4 -->
<g id="edge6" class="edge"><title>Node3&#45;&gt;Node4</title>
<path fill="none" stroke="midnightblue" d="M1048.76,-174.075C1055.55,-159.448 1069.21,-133.335 1087,-116 1100.38,-102.968 1118.05,-92.1 1133.38,-84.1089"/>
<polygon fill="midnightblue" stroke="midnightblue" points="1135.18,-87.118 1142.56,-79.5116 1132.05,-80.8585 1135.18,-87.118"/>
</g>
<!-- Node7 -->
<g id="node13" class="node"><title>Node7</title>
<polygon fill="white" stroke="#bfbfbf" points="1511.5,-0.5 1511.5,-21.5 1540.5,-21.5 1540.5,-0.5 1511.5,-0.5"/>
<text text-anchor="middle" x="1526" y="-8.5" font-family="Helvetica,sans-Serif" font-size="10.00">list</text>
</g>
<!-- Node3&#45;&gt;Node7 -->
<g id="edge36" class="edge"><title>Node3&#45;&gt;Node7</title>
<path fill="none" stroke="midnightblue" d="M1068.23,-176.252C1150.61,-146.512 1419.33,-49.5089 1501.74,-19.7565"/>
<polygon fill="midnightblue" stroke="midnightblue" points="1503.05,-23.0061 1511.27,-16.3185 1500.67,-16.422 1503.05,-23.0061"/>
</g>
<!-- Node8 -->
<g id="node15" class="node"><title>Node8</title>
<a xlink:href="_utils_8h.html" target="_top" xlink:title="Utils.h">
<polygon fill="white" stroke="black" points="455.5,-116.5 455.5,-137.5 500.5,-137.5 500.5,-116.5 455.5,-116.5"/>
<text text-anchor="middle" x="478" y="-124.5" font-family="Helvetica,sans-Serif" font-size="10.00">Utils.h</text>
</a>
</g>
<!-- Node3&#45;&gt;Node8 -->
<g id="edge14" class="edge"><title>Node3&#45;&gt;Node8</title>
<path fill="none" stroke="midnightblue" d="M1019.68,-182.508C929.454,-173.262 613.8,-140.916 510.787,-130.36"/>
<polygon fill="midnightblue" stroke="midnightblue" points="510.973,-126.861 500.669,-129.323 510.26,-133.824 510.973,-126.861"/>
</g>
<!-- Node3&#45;&gt;Node9 -->
<g id="edge30" class="edge"><title>Node3&#45;&gt;Node9</title>
<path fill="none" stroke="midnightblue" d="M1019.72,-184.203C914.195,-180.593 498.484,-164.767 447,-138 426.026,-127.095 409.85,-104.782 400.176,-88.4711"/>
<polygon fill="midnightblue" stroke="midnightblue" points="403.195,-86.6975 395.245,-79.6932 397.092,-90.1259 403.195,-86.6975"/>
</g>
<!-- Node10 -->
<g id="node20" class="node"><title>Node10</title>
<a xlink:href="_g_n_uplot_8h.html" target="_top" xlink:title="GNUplot.h">
<polygon fill="white" stroke="black" points="913.5,-116.5 913.5,-137.5 976.5,-137.5 976.5,-116.5 913.5,-116.5"/>
<text text-anchor="middle" x="945" y="-124.5" font-family="Helvetica,sans-Serif" font-size="10.00">GNUplot.h</text>
</a>
</g>
<!-- Node3&#45;&gt;Node10 -->
<g id="edge20" class="edge"><title>Node3&#45;&gt;Node10</title>
<path fill="none" stroke="midnightblue" d="M1025.84,-174.362C1010.77,-165.532 989.113,-152.844 972.007,-142.822"/>
<polygon fill="midnightblue" stroke="midnightblue" points="973.441,-139.606 963.043,-137.571 969.902,-145.646 973.441,-139.606"/>
</g>
<!-- Node3&#45;&gt;Node11 -->
<g id="edge28" class="edge"><title>Node3&#45;&gt;Node11</title>
<path fill="none" stroke="midnightblue" d="M1068.23,-179.853C1116.02,-169.7 1222.71,-147.032 1279.6,-134.946"/>
<polygon fill="midnightblue" stroke="midnightblue" points="1280.56,-138.32 1289.62,-132.818 1279.11,-131.473 1280.56,-138.32"/>
</g>
<!-- Node12 -->
<g id="node28" class="node"><title>Node12</title>
<polygon fill="white" stroke="#bfbfbf" points="994,-116.5 994,-137.5 1040,-137.5 1040,-116.5 994,-116.5"/>
<text text-anchor="middle" x="1017" y="-124.5" font-family="Helvetica,sans-Serif" font-size="10.00">cstdint</text>
</g>
<!-- Node3&#45;&gt;Node12 -->
<g id="edge32" class="edge"><title>Node3&#45;&gt;Node12</title>
<path fill="none" stroke="midnightblue" d="M1039.05,-174.362C1035.47,-166.677 1030.53,-156.069 1026.24,-146.84"/>
<polygon fill="midnightblue" stroke="midnightblue" points="1029.31,-145.159 1021.92,-137.571 1022.97,-148.114 1029.31,-145.159"/>
</g>
<!-- Node13 -->
<g id="node30" class="node"><title>Node13</title>
<polygon fill="white" stroke="#bfbfbf" points="1095.5,-116.5 1095.5,-137.5 1144.5,-137.5 1144.5,-116.5 1095.5,-116.5"/>
<text text-anchor="middle" x="1120" y="-124.5" font-family="Helvetica,sans-Serif" font-size="10.00">cassert</text>
</g>
<!-- Node3&#45;&gt;Node13 -->
<g id="edge34" class="edge"><title>Node3&#45;&gt;Node13</title>
<path fill="none" stroke="midnightblue" d="M1057.94,-174.362C1069.19,-165.777 1085.22,-153.546 1098.16,-143.664"/>
<polygon fill="midnightblue" stroke="midnightblue" points="1100.32,-146.42 1106.15,-137.571 1096.08,-140.855 1100.32,-146.42"/>
</g>
<!-- Node5 -->
<g id="node9" class="node"><title>Node5</title>
<polygon fill="white" stroke="#bfbfbf" points="1142.5,-0.5 1142.5,-21.5 1191.5,-21.5 1191.5,-0.5 1142.5,-0.5"/>
<text text-anchor="middle" x="1167" y="-8.5" font-family="Helvetica,sans-Serif" font-size="10.00">cstddef</text>
</g>
<!-- Node4&#45;&gt;Node5 -->
<g id="edge8" class="edge"><title>Node4&#45;&gt;Node5</title>
<path fill="none" stroke="midnightblue" d="M1167,-58.3619C1167,-50.9219 1167,-40.7427 1167,-31.7276"/>
<polygon fill="midnightblue" stroke="midnightblue" points="1170.5,-31.5706 1167,-21.5707 1163.5,-31.5707 1170.5,-31.5706"/>
</g>
<!-- Node4&#45;&gt;Node6 -->
<g id="edge10" class="edge"><title>Node4&#45;&gt;Node6</title>
<path fill="none" stroke="midnightblue" d="M1134.48,-66.5817C1006.99,-57.1021 542.244,-22.5438 417.818,-13.2916"/>
<polygon fill="midnightblue" stroke="midnightblue" points="417.732,-9.77566 407.5,-12.5244 417.213,-16.7564 417.732,-9.77566"/>
</g>
<!-- Node4&#45;&gt;Node7 -->
<g id="edge12" class="edge"><title>Node4&#45;&gt;Node7</title>
<path fill="none" stroke="midnightblue" d="M1199.59,-60.8413C1204.08,-59.8239 1208.65,-58.8456 1213,-58 1319.51,-37.308 1447.92,-20.5747 1501.09,-14.0034"/>
<polygon fill="midnightblue" stroke="midnightblue" points="1501.76,-17.4479 1511.26,-12.7576 1500.91,-10.4998 1501.76,-17.4479"/>
</g>
<!-- Node8&#45;&gt;Node6 -->
<g id="edge16" class="edge"><title>Node8&#45;&gt;Node6</title>
<path fill="none" stroke="midnightblue" d="M469.591,-116.236C458.978,-102.654 440.154,-78.5811 424,-58 416.69,-48.6874 408.554,-38.3486 401.776,-29.7443"/>
<polygon fill="midnightblue" stroke="midnightblue" points="404.471,-27.5088 395.532,-21.8203 398.972,-31.8412 404.471,-27.5088"/>
</g>
<!-- Node8&#45;&gt;Node9 -->
<g id="edge18" class="edge"><title>Node8&#45;&gt;Node9</title>
<path fill="none" stroke="midnightblue" d="M461.859,-116.362C448.586,-107.614 429.568,-95.0786 414.43,-85.1015"/>
<polygon fill="midnightblue" stroke="midnightblue" points="416.314,-82.1515 406.038,-79.5707 412.462,-87.9962 416.314,-82.1515"/>
</g>
<!-- Node10&#45;&gt;Node4 -->
<g id="edge26" class="edge"><title>Node10&#45;&gt;Node4</title>
<path fill="none" stroke="midnightblue" d="M976.865,-118.189C979.615,-117.443 982.356,-116.705 985,-116 1032.7,-103.283 1087.58,-89.1832 1124.5,-79.7759"/>
<polygon fill="midnightblue" stroke="midnightblue" points="1125.58,-83.1108 1134.41,-77.2521 1123.86,-76.3271 1125.58,-83.1108"/>
</g>
<!-- Node10&#45;&gt;Node6 -->
<g id="edge22" class="edge"><title>Node10&#45;&gt;Node6</title>
<path fill="none" stroke="midnightblue" d="M913.401,-120.431C814.958,-99.9661 514.596,-37.5254 417.572,-17.3556"/>
<polygon fill="midnightblue" stroke="midnightblue" points="418.043,-13.8785 407.54,-15.2699 416.618,-20.732 418.043,-13.8785"/>
</g>
<!-- Node10&#45;&gt;Node7 -->
<g id="edge24" class="edge"><title>Node10&#45;&gt;Node7</title>
<path fill="none" stroke="midnightblue" d="M967.281,-116.438C1000.88,-100.991 1066.88,-72.5035 1126,-58 1265.01,-23.8945 1437.48,-14.2803 1501,-11.7968"/>
<polygon fill="midnightblue" stroke="midnightblue" points="1501.37,-15.2858 1511.24,-11.4229 1501.12,-8.29046 1501.37,-15.2858"/>
</g>
<!-- Node14&#45;&gt;Node3 -->
<g id="edge40" class="edge"><title>Node14&#45;&gt;Node3</title>
<path fill="none" stroke="midnightblue" d="M1116.54,-406.429C1104.77,-370.497 1066.17,-252.674 1050.6,-205.145"/>
<polygon fill="midnightblue" stroke="midnightblue" points="1053.92,-204.047 1047.48,-195.634 1047.27,-206.226 1053.92,-204.047"/>
</g>
<!-- Node14&#45;&gt;Node4 -->
<g id="edge42" class="edge"><title>Node14&#45;&gt;Node4</title>
<path fill="none" stroke="midnightblue" d="M1153.21,-409.226C1222.06,-392.139 1374,-348.993 1374,-301 1374,-301 1374,-301 1374,-185 1374,-152.944 1376.2,-138.117 1353,-116 1332.62,-96.5711 1258.01,-82.3031 1209.71,-74.8548"/>
<polygon fill="midnightblue" stroke="midnightblue" points="1209.94,-71.3505 1199.53,-73.3261 1208.9,-78.2729 1209.94,-71.3505"/>
</g>
<!-- Node14&#45;&gt;Node7 -->
<g id="edge80" class="edge"><title>Node14&#45;&gt;Node7</title>
<path fill="none" stroke="midnightblue" d="M1153.08,-413.436C1193.73,-408.117 1264.06,-395.82 1319,-370 1442.49,-311.964 1564,-321.445 1564,-185 1564,-185 1564,-185 1564,-127 1564,-91.7411 1547.95,-53.3154 1536.71,-30.7323"/>
<polygon fill="midnightblue" stroke="midnightblue" points="1539.8,-29.0901 1532.11,-21.809 1533.58,-32.3005 1539.8,-29.0901"/>
</g>
<!-- Node14&#45;&gt;Node9 -->
<g id="edge82" class="edge"><title>Node14&#45;&gt;Node9</title>
<path fill="none" stroke="midnightblue" d="M1086.96,-412.605C984.475,-398.658 673.377,-353.845 581,-312 484.199,-268.151 469.223,-230.553 417,-138 408.235,-122.466 401.044,-103.517 396.293,-89.4103"/>
<polygon fill="midnightblue" stroke="midnightblue" points="399.56,-88.1385 393.15,-79.7028 392.901,-90.2947 399.56,-88.1385"/>
</g>
<!-- Node14&#45;&gt;Node15 -->
<g id="edge44" class="edge"><title>Node14&#45;&gt;Node15</title>
<path fill="none" stroke="midnightblue" d="M1114.4,-406.094C1106.49,-391.489 1090.89,-365.401 1072,-348 1058.04,-335.138 1039.96,-324.231 1024.43,-316.172"/>
<polygon fill="midnightblue" stroke="midnightblue" points="1025.65,-312.872 1015.14,-311.53 1022.52,-319.133 1025.65,-312.872"/>
</g>
<!-- Node20 -->
<g id="node52" class="node"><title>Node20</title>
<a xlink:href="_histogram_8h.html" target="_top" xlink:title="Histogram.h">
<polygon fill="white" stroke="black" points="1200,-232.5 1200,-253.5 1270,-253.5 1270,-232.5 1200,-232.5"/>
<text text-anchor="middle" x="1235" y="-240.5" font-family="Helvetica,sans-Serif" font-size="10.00">Histogram.h</text>
</a>
</g>
<!-- Node14&#45;&gt;Node20 -->
<g id="edge78" class="edge"><title>Node14&#45;&gt;Node20</title>
<path fill="none" stroke="midnightblue" d="M1127.02,-406.377C1145.9,-377.809 1197.98,-299.017 1222.24,-262.3"/>
<polygon fill="midnightblue" stroke="midnightblue" points="1225.18,-264.2 1227.78,-253.928 1219.34,-260.34 1225.18,-264.2"/>
</g>
<!-- Node21 -->
<g id="node56" class="node"><title>Node21</title>
<a xlink:href="_power_state_sequence_8h.html" target="_top" xlink:title="PowerStateSequence.h">
<polygon fill="white" stroke="black" points="911.5,-348.5 911.5,-369.5 1030.5,-369.5 1030.5,-348.5 911.5,-348.5"/>
<text text-anchor="middle" x="971" y="-356.5" font-family="Helvetica,sans-Serif" font-size="10.00">PowerStateSequence.h</text>
</a>
</g>
<!-- Node14&#45;&gt;Node21 -->
<g id="edge70" class="edge"><title>Node14&#45;&gt;Node21</title>
<path fill="none" stroke="midnightblue" d="M1093.02,-406.497C1069.15,-397.205 1034.11,-383.565 1007.69,-373.283"/>
<polygon fill="midnightblue" stroke="midnightblue" points="1008.62,-369.889 998.033,-369.523 1006.08,-376.412 1008.62,-369.889"/>
</g>
<!-- Node15&#45;&gt;Node3 -->
<g id="edge60" class="edge"><title>Node15&#45;&gt;Node3</title>
<path fill="none" stroke="midnightblue" d="M1006.93,-290.279C1018.03,-281.843 1032.03,-269.025 1039,-254 1045.94,-239.04 1046.87,-220.279 1046.25,-206.098"/>
<polygon fill="midnightblue" stroke="midnightblue" points="1049.72,-205.584 1045.5,-195.867 1042.74,-206.096 1049.72,-205.584"/>
</g>
<!-- Node15&#45;&gt;Node4 -->
<g id="edge62" class="edge"><title>Node15&#45;&gt;Node4</title>
<path fill="none" stroke="midnightblue" d="M1019.08,-290.423C1037.61,-282.445 1061.59,-270.118 1079,-254 1123.88,-212.462 1130.09,-194.699 1153,-138 1159.29,-122.44 1162.86,-103.723 1164.82,-89.7116"/>
<polygon fill="midnightblue" stroke="midnightblue" points="1168.31,-89.9874 1166.06,-79.6333 1161.36,-89.1279 1168.31,-89.9874"/>
</g>
<!-- Node15&#45;&gt;Node6 -->
<g id="edge46" class="edge"><title>Node15&#45;&gt;Node6</title>
<path fill="none" stroke="midnightblue" d="M960.429,-300.156C869.641,-297.304 602.968,-286.319 523,-254 445.838,-222.815 424.18,-205.861 376,-138 354.783,-108.116 345.466,-93.1033 356,-58 359.054,-47.8243 365.102,-37.8172 371.052,-29.6697"/>
<polygon fill="midnightblue" stroke="midnightblue" points="373.927,-31.6745 377.323,-21.6387 368.41,-27.3662 373.927,-31.6745"/>
</g>
<!-- Node15&#45;&gt;Node11 -->
<g id="edge52" class="edge"><title>Node15&#45;&gt;Node11</title>
<path fill="none" stroke="midnightblue" d="M1021.84,-299.996C1088.11,-297.217 1241.13,-287.273 1279,-254 1309.68,-227.044 1316.08,-176.44 1317.13,-147.921"/>
<polygon fill="midnightblue" stroke="midnightblue" points="1320.63,-147.899 1317.3,-137.839 1313.63,-147.776 1320.63,-147.899"/>
</g>
<!-- Node15&#45;&gt;Node13 -->
<g id="edge48" class="edge"><title>Node15&#45;&gt;Node13</title>
<path fill="none" stroke="midnightblue" d="M1010.9,-290.381C1025.15,-281.996 1044.04,-269.197 1057,-254 1084.94,-221.249 1104.11,-173.969 1113.45,-147.3"/>
<polygon fill="midnightblue" stroke="midnightblue" points="1116.86,-148.137 1116.75,-137.543 1110.23,-145.895 1116.86,-148.137"/>
</g>
<!-- Node16 -->
<g id="node41" class="node"><title>Node16</title>
<polygon fill="white" stroke="#bfbfbf" points="532,-232.5 532,-253.5 576,-253.5 576,-232.5 532,-232.5"/>
<text text-anchor="middle" x="554" y="-240.5" font-family="Helvetica,sans-Serif" font-size="10.00">cmath</text>
</g>
<!-- Node15&#45;&gt;Node16 -->
<g id="edge50" class="edge"><title>Node15&#45;&gt;Node16</title>
<path fill="none" stroke="midnightblue" d="M960.294,-299.809C893.54,-296.718 730.273,-286.448 586.08,-253.828"/>
<polygon fill="midnightblue" stroke="midnightblue" points="586.703,-250.38 576.172,-251.543 585.13,-257.201 586.703,-250.38"/>
</g>
<!-- Node17 -->
<g id="node44" class="node"><title>Node17</title>
<polygon fill="white" stroke="#bfbfbf" points="594,-232.5 594,-253.5 782,-253.5 782,-232.5 594,-232.5"/>
<text text-anchor="middle" x="688" y="-240.5" font-family="Helvetica,sans-Serif" font-size="10.00">boost/math/distributions/students_t.hpp</text>
</g>
<!-- Node15&#45;&gt;Node17 -->
<g id="edge54" class="edge"><title>Node15&#45;&gt;Node17</title>
<path fill="none" stroke="midnightblue" d="M960.279,-295.119C911.937,-285.866 817.038,-267.7 753.055,-255.453"/>
<polygon fill="midnightblue" stroke="midnightblue" points="753.544,-251.983 743.064,-253.54 752.227,-258.858 753.544,-251.983"/>
</g>
<!-- Node18 -->
<g id="node46" class="node"><title>Node18</title>
<polygon fill="white" stroke="#bfbfbf" points="800,-232.5 800,-253.5 972,-253.5 972,-232.5 800,-232.5"/>
<text text-anchor="middle" x="886" y="-240.5" font-family="Helvetica,sans-Serif" font-size="10.00">boost/math/distributions/normal.hpp</text>
</g>
<!-- Node15&#45;&gt;Node18 -->
<g id="edge56" class="edge"><title>Node15&#45;&gt;Node18</title>
<path fill="none" stroke="midnightblue" d="M971.741,-290.362C955.534,-281.409 932.147,-268.491 913.891,-258.406"/>
<polygon fill="midnightblue" stroke="midnightblue" points="915.582,-255.342 905.137,-253.571 912.198,-261.47 915.582,-255.342"/>
</g>
<!-- Node19 -->
<g id="node48" class="node"><title>Node19</title>
<polygon fill="white" stroke="#bfbfbf" points="990,-232.5 990,-253.5 1030,-253.5 1030,-232.5 990,-232.5"/>
<text text-anchor="middle" x="1010" y="-240.5" font-family="Helvetica,sans-Serif" font-size="10.00">limits</text>
</g>
<!-- Node15&#45;&gt;Node19 -->
<g id="edge58" class="edge"><title>Node15&#45;&gt;Node19</title>
<path fill="none" stroke="midnightblue" d="M994.485,-290.362C996.976,-282.758 1000.4,-272.294 1003.4,-263.135"/>
<polygon fill="midnightblue" stroke="midnightblue" points="1006.75,-264.163 1006.54,-253.571 1000.1,-261.984 1006.75,-264.163"/>
</g>
<!-- Node15&#45;&gt;Node20 -->
<g id="edge64" class="edge"><title>Node15&#45;&gt;Node20</title>
<path fill="none" stroke="midnightblue" d="M1021.9,-293.654C1064.28,-283.58 1140.74,-265.406 1189.62,-253.786"/>
<polygon fill="midnightblue" stroke="midnightblue" points="1190.69,-257.129 1199.61,-251.411 1189.08,-250.319 1190.69,-257.129"/>
</g>
<!-- Node20&#45;&gt;Node3 -->
<g id="edge66" class="edge"><title>Node20&#45;&gt;Node3</title>
<path fill="none" stroke="midnightblue" d="M1200.41,-232.497C1165.58,-221.919 1112.19,-205.708 1077.69,-195.229"/>
<polygon fill="midnightblue" stroke="midnightblue" points="1078.64,-191.861 1068.05,-192.304 1076.61,-198.559 1078.64,-191.861"/>
</g>
<!-- Node20&#45;&gt;Node4 -->
<g id="edge68" class="edge"><title>Node20&#45;&gt;Node4</title>
<path fill="none" stroke="midnightblue" d="M1230.99,-232.441C1222.7,-210.639 1203.02,-159.081 1186,-116 1182.51,-107.154 1178.58,-97.4018 1175.2,-89.0842"/>
<polygon fill="midnightblue" stroke="midnightblue" points="1178.44,-87.7508 1171.43,-79.8077 1171.95,-90.3894 1178.44,-87.7508"/>
</g>
<!-- Node21&#45;&gt;Node6 -->
<g id="edge74" class="edge"><title>Node21&#45;&gt;Node6</title>
<path fill="none" stroke="midnightblue" d="M911.349,-353.486C801.49,-342.027 573.748,-311.764 523,-254 482.311,-207.687 536.364,-171.242 509,-116 488.965,-75.5535 445.646,-44.3469 416.4,-26.8216"/>
<polygon fill="midnightblue" stroke="midnightblue" points="417.851,-23.6167 407.446,-21.6179 414.333,-29.6688 417.851,-23.6167"/>
</g>
<!-- Node21&#45;&gt;Node7 -->
<g id="edge72" class="edge"><title>Node21&#45;&gt;Node7</title>
<path fill="none" stroke="midnightblue" d="M1030.73,-351.164C1078.24,-343.92 1145.98,-331.321 1203,-312 1258.72,-293.118 1273.02,-286.599 1322,-254 1414.7,-192.3 1488.21,-76.5048 1515.03,-30.5326"/>
<polygon fill="midnightblue" stroke="midnightblue" points="1518.22,-32.004 1520.17,-21.5896 1512.15,-28.5168 1518.22,-32.004"/>
</g>
<!-- Node21&#45;&gt;Node15 -->
<g id="edge76" class="edge"><title>Node21&#45;&gt;Node15</title>
<path fill="none" stroke="midnightblue" d="M974.668,-348.362C977.29,-340.758 980.899,-330.294 984.057,-321.135"/>
<polygon fill="midnightblue" stroke="midnightblue" points="987.404,-322.165 987.355,-311.571 980.786,-319.883 987.404,-322.165"/>
</g>
<!-- Node22&#45;&gt;Node6 -->
<g id="edge92" class="edge"><title>Node22&#45;&gt;Node6</title>
<path fill="none" stroke="midnightblue" d="M917.758,-529.597C827.363,-517.304 541.461,-467.383 377,-312 311.731,-250.335 321.095,-205.526 328,-116 330.006,-89.991 324.835,-81.0763 337,-58 343.102,-46.4253 353.171,-36.1315 362.68,-28.1499"/>
<polygon fill="midnightblue" stroke="midnightblue" points="365.098,-30.7002 370.778,-21.7569 360.761,-25.2058 365.098,-30.7002"/>
</g>
<!-- Node22&#45;&gt;Node7 -->
<g id="edge88" class="edge"><title>Node22&#45;&gt;Node7</title>
<path fill="none" stroke="midnightblue" d="M974.016,-530.811C1078.57,-522.232 1444.99,-488.358 1543,-428 1603.48,-390.756 1640,-372.025 1640,-301 1640,-301 1640,-301 1640,-127 1640,-76.1152 1583.51,-39.3879 1550.06,-22.1014"/>
<polygon fill="midnightblue" stroke="midnightblue" points="1551.42,-18.868 1540.9,-17.5556 1548.3,-25.1377 1551.42,-18.868"/>
</g>
<!-- Node22&#45;&gt;Node14 -->
<g id="edge94" class="edge"><title>Node22&#45;&gt;Node14</title>
<path fill="none" stroke="midnightblue" d="M962.058,-522.295C992.693,-501.871 1059.64,-457.238 1095.76,-433.162"/>
<polygon fill="midnightblue" stroke="midnightblue" points="1097.85,-435.971 1104.23,-427.512 1093.97,-430.147 1097.85,-435.971"/>
</g>
<!-- Node22&#45;&gt;Node15 -->
<g id="edge96" class="edge"><title>Node22&#45;&gt;Node15</title>
<path fill="none" stroke="midnightblue" d="M938.312,-522.131C918.16,-492.187 867.73,-406.823 903,-348 913.446,-330.578 932.79,-319.255 950.688,-312.099"/>
<polygon fill="midnightblue" stroke="midnightblue" points="952.227,-315.262 960.416,-308.539 949.822,-308.689 952.227,-315.262"/>
</g>
<!-- Node22&#45;&gt;Node21 -->
<g id="edge98" class="edge"><title>Node22&#45;&gt;Node21</title>
<path fill="none" stroke="midnightblue" d="M943.116,-522.17C937.688,-499.869 927.565,-447.438 940,-406 943.054,-395.824 949.102,-385.817 955.052,-377.67"/>
<polygon fill="midnightblue" stroke="midnightblue" points="957.927,-379.674 961.323,-369.639 952.41,-375.366 957.927,-379.674"/>
</g>
<!-- Node23 -->
<g id="node68" class="node"><title>Node23</title>
<polygon fill="white" stroke="#bfbfbf" points="949,-406.5 949,-427.5 993,-427.5 993,-406.5 949,-406.5"/>
<text text-anchor="middle" x="971" y="-414.5" font-family="Helvetica,sans-Serif" font-size="10.00">vector</text>
</g>
<!-- Node22&#45;&gt;Node23 -->
<g id="edge90" class="edge"><title>Node22&#45;&gt;Node23</title>
<path fill="none" stroke="midnightblue" d="M948.307,-522.295C952.456,-503.045 961.239,-462.289 966.58,-437.509"/>
<polygon fill="midnightblue" stroke="midnightblue" points="970.013,-438.192 968.698,-427.679 963.17,-436.717 970.013,-438.192"/>
</g>
<!-- Node24 -->
<g id="node74" class="node"><title>Node24</title>
<a xlink:href="_aggregate_data_8h.html" target="_top" xlink:title="AggregateData.h">
<polygon fill="white" stroke="black" points="574,-348.5 574,-369.5 664,-369.5 664,-348.5 574,-348.5"/>
<text text-anchor="middle" x="619" y="-356.5" font-family="Helvetica,sans-Serif" font-size="10.00">AggregateData.h</text>
</a>
</g>
<!-- Node22&#45;&gt;Node24 -->
<g id="edge100" class="edge"><title>Node22&#45;&gt;Node24</title>
<path fill="none" stroke="midnightblue" d="M926.037,-522.377C870.395,-492.77 713.381,-409.221 648.066,-374.466"/>
<polygon fill="midnightblue" stroke="midnightblue" points="649.589,-371.312 639.117,-369.705 646.301,-377.492 649.589,-371.312"/>
</g>
<!-- Node22&#45;&gt;Node25 -->
<g id="edge112" class="edge"><title>Node22&#45;&gt;Node25</title>
<path fill="none" stroke="midnightblue" d="M974.142,-527.802C1024.47,-518.506 1130.96,-498.835 1198.81,-486.303"/>
<polygon fill="midnightblue" stroke="midnightblue" points="1199.74,-489.69 1208.94,-484.432 1198.47,-482.807 1199.74,-489.69"/>
</g>
<!-- Node24&#45;&gt;Node3 -->
<g id="edge102" class="edge"><title>Node24&#45;&gt;Node3</title>
<path fill="none" stroke="midnightblue" d="M600.483,-348.448C563.308,-326.005 486.176,-272.296 523,-232 555.796,-196.113 898.209,-187.378 1009.36,-185.481"/>
<polygon fill="midnightblue" stroke="midnightblue" points="1009.74,-188.975 1019.68,-185.313 1009.62,-181.976 1009.74,-188.975"/>
</g>
<!-- Node24&#45;&gt;Node6 -->
<g id="edge106" class="edge"><title>Node24&#45;&gt;Node6</title>
<path fill="none" stroke="midnightblue" d="M573.882,-352.672C520.174,-344.512 434.311,-329.296 407,-312 379.436,-294.543 373.8,-284.418 362,-254 330.414,-172.579 318.356,-140.148 348,-58 351.941,-47.079 359.646,-36.9016 367.174,-28.8297"/>
<polygon fill="midnightblue" stroke="midnightblue" points="369.898,-31.0551 374.497,-21.5102 364.95,-26.1042 369.898,-31.0551"/>
</g>
<!-- Node24&#45;&gt;Node9 -->
<g id="edge110" class="edge"><title>Node24&#45;&gt;Node9</title>
<path fill="none" stroke="midnightblue" d="M573.695,-354.151C516.397,-345.317 419.921,-320.824 376,-254 342.347,-202.799 366.436,-125.544 381.037,-89.2236"/>
<polygon fill="midnightblue" stroke="midnightblue" points="384.379,-90.3045 385.019,-79.729 377.924,-87.5972 384.379,-90.3045"/>
</g>
<!-- Node24&#45;&gt;Node11 -->
<g id="edge108" class="edge"><title>Node24&#45;&gt;Node11</title>
<path fill="none" stroke="midnightblue" d="M664.033,-358.157C800.391,-354.697 1205.29,-337.458 1301,-254 1330.87,-227.955 1326.89,-176.569 1321.72,-147.786"/>
<polygon fill="midnightblue" stroke="midnightblue" points="1325.08,-146.744 1319.68,-137.63 1318.22,-148.124 1325.08,-146.744"/>
</g>
<!-- Node24&#45;&gt;Node15 -->
<g id="edge104" class="edge"><title>Node24&#45;&gt;Node15</title>
<path fill="none" stroke="midnightblue" d="M664.069,-350.428C668.769,-349.585 673.479,-348.761 678,-348 775.381,-331.616 890.285,-315.074 950.121,-306.669"/>
<polygon fill="midnightblue" stroke="midnightblue" points="950.87,-310.098 960.288,-305.245 949.899,-303.166 950.87,-310.098"/>
</g>
<!-- Node25&#45;&gt;Node4 -->
<g id="edge126" class="edge"><title>Node25&#45;&gt;Node4</title>
<path fill="none" stroke="midnightblue" d="M1311.02,-472.484C1374.73,-468.15 1478.28,-456.771 1502,-428 1508.22,-420.456 1503.05,-415.721 1502,-406 1486.88,-265.928 1495.44,-187.414 1374,-116 1346.53,-99.8446 1261.68,-84.064 1209.53,-75.527"/>
<polygon fill="midnightblue" stroke="midnightblue" points="1209.99,-72.0565 1199.56,-73.9182 1208.88,-78.9671 1209.99,-72.0565"/>
</g>
<!-- Node25&#45;&gt;Node7 -->
<g id="edge118" class="edge"><title>Node25&#45;&gt;Node7</title>
<path fill="none" stroke="midnightblue" d="M1311.21,-471.199C1376.76,-465.409 1485.61,-452.384 1517,-428 1588.46,-372.487 1602,-333.486 1602,-243 1602,-243 1602,-243 1602,-127 1602,-86.5104 1569.2,-49.1585 1546.7,-28.2949"/>
<polygon fill="midnightblue" stroke="midnightblue" points="1549.03,-25.681 1539.24,-21.6247 1544.36,-30.8993 1549.03,-25.681"/>
</g>
<!-- Node25&#45;&gt;Node14 -->
<g id="edge128" class="edge"><title>Node25&#45;&gt;Node14</title>
<path fill="none" stroke="midnightblue" d="M1234.65,-464.497C1212.39,-455.275 1179.79,-441.769 1155.04,-431.515"/>
<polygon fill="midnightblue" stroke="midnightblue" points="1156.22,-428.215 1145.64,-427.621 1153.54,-434.682 1156.22,-428.215"/>
</g>
<!-- Node25&#45;&gt;Node15 -->
<g id="edge124" class="edge"><title>Node25&#45;&gt;Node15</title>
<path fill="none" stroke="midnightblue" d="M1208.74,-466.701C1162.21,-458.301 1097.9,-444.258 1078,-428 1047.37,-402.976 1062.14,-380.084 1039,-348 1031.19,-337.171 1020.77,-326.63 1011.63,-318.283"/>
<polygon fill="midnightblue" stroke="midnightblue" points="1013.84,-315.564 1004.03,-311.562 1009.2,-320.808 1013.84,-315.564"/>
</g>
<!-- Node25&#45;&gt;Node23 -->
<g id="edge116" class="edge"><title>Node25&#45;&gt;Node23</title>
<path fill="none" stroke="midnightblue" d="M1208.76,-467.223C1157.39,-459.02 1076.21,-444.946 1007,-428 1005.75,-427.694 1004.48,-427.37 1003.2,-427.033"/>
<polygon fill="midnightblue" stroke="midnightblue" points="1003.93,-423.604 993.36,-424.26 1002.04,-430.341 1003.93,-423.604"/>
</g>
<!-- Node25&#45;&gt;Node24 -->
<g id="edge130" class="edge"><title>Node25&#45;&gt;Node24</title>
<path fill="none" stroke="midnightblue" d="M1208.57,-467.587C1164.36,-460.316 1099.31,-447.461 1045,-428 1024.79,-420.759 1022.52,-412.293 1002,-406 986.539,-401.26 776.451,-376.925 674.175,-365.256"/>
<polygon fill="midnightblue" stroke="midnightblue" points="674.363,-361.755 664.031,-364.1 673.57,-368.71 674.363,-361.755"/>
</g>
<!-- Node26 -->
<g id="node83" class="node"><title>Node26</title>
<polygon fill="white" stroke="#bfbfbf" points="1209,-406.5 1209,-427.5 1361,-427.5 1361,-406.5 1209,-406.5"/>
<text text-anchor="middle" x="1285" y="-414.5" font-family="Helvetica,sans-Serif" font-size="10.00">boost/graph/adjacency_list.hpp</text>
</g>
<!-- Node25&#45;&gt;Node26 -->
<g id="edge114" class="edge"><title>Node25&#45;&gt;Node26</title>
<path fill="none" stroke="midnightblue" d="M1264.59,-464.362C1267.9,-456.677 1272.47,-446.069 1276.45,-436.84"/>
<polygon fill="midnightblue" stroke="midnightblue" points="1279.7,-438.139 1280.44,-427.571 1273.27,-435.368 1279.7,-438.139"/>
</g>
<!-- Node27 -->
<g id="node87" class="node"><title>Node27</title>
<polygon fill="white" stroke="#bfbfbf" points="1379,-406.5 1379,-427.5 1431,-427.5 1431,-406.5 1379,-406.5"/>
<text text-anchor="middle" x="1405" y="-414.5" font-family="Helvetica,sans-Serif" font-size="10.00">ostream</text>
</g>
<!-- Node25&#45;&gt;Node27 -->
<g id="edge120" class="edge"><title>Node25&#45;&gt;Node27</title>
<path fill="none" stroke="midnightblue" d="M1286.26,-464.497C1309.56,-455.176 1343.8,-441.48 1369.53,-431.187"/>
<polygon fill="midnightblue" stroke="midnightblue" points="1370.95,-434.389 1378.94,-427.425 1368.35,-427.89 1370.95,-434.389"/>
</g>
<!-- Node28 -->
<g id="node89" class="node"><title>Node28</title>
<polygon fill="white" stroke="#bfbfbf" points="1449,-406.5 1449,-427.5 1493,-427.5 1493,-406.5 1449,-406.5"/>
<text text-anchor="middle" x="1471" y="-414.5" font-family="Helvetica,sans-Serif" font-size="10.00">time.h</text>
</g>
<!-- Node25&#45;&gt;Node28 -->
<g id="edge122" class="edge"><title>Node25&#45;&gt;Node28</title>
<path fill="none" stroke="midnightblue" d="M1304.68,-464.461C1339.07,-456.097 1387.95,-443.663 1438.86,-428.19"/>
<polygon fill="midnightblue" stroke="midnightblue" points="1440.19,-431.442 1448.73,-425.161 1438.14,-424.75 1440.19,-431.442"/>
</g>
</g>
</svg>
