<?xml version="1.0" encoding="UTF-8" standalone="no"?>
<!DOCTYPE svg PUBLIC "-//W3C//DTD SVG 1.1//EN"
 "http://www.w3.org/Graphics/SVG/1.1/DTD/svg11.dtd">
<!-- Generated by graphviz version 2.26.3 (20100126.1600)
 -->
<!-- Title: G Pages: 1 -->
<svg width="1218pt" height="1094pt"
 viewBox="0.00 0.00 1218.00 1094.00" xmlns="http://www.w3.org/2000/svg" xmlns:xlink="http://www.w3.org/1999/xlink">
<g id="graph1" class="graph" transform="scale(1 1) rotate(0) translate(4 1090)">
<title>G</title>
<polygon fill="white" stroke="white" points="-4,5 -4,-1090 1215,-1090 1215,5 -4,5"/>
<!-- Node1 -->
<g id="node1" class="node"><title>Node1</title>
<polygon fill="#bfbfbf" stroke="black" points="0,-635.5 0,-656.5 38,-656.5 38,-635.5 0,-635.5"/>
<text text-anchor="middle" x="19" y="-643.5" font-family="Helvetica,sans-Serif" font-size="10.00">main</text>
</g>
<!-- Node2 -->
<g id="node3" class="node"><title>Node2</title>
<a xlink:href="_main_8cpp.html#aae7210087afa6b37666d72185a4ba7b3" target="_top" xlink:title="declareAndParseOptions">
<polygon fill="white" stroke="black" points="103.5,-1024.5 103.5,-1045.5 228.5,-1045.5 228.5,-1024.5 103.5,-1024.5"/>
<text text-anchor="middle" x="166" y="-1032.5" font-family="Helvetica,sans-Serif" font-size="10.00">declareAndParseOptions</text>
</a>
</g>
<!-- Node1&#45;&gt;Node2 -->
<g id="edge2" class="edge"><title>Node1&#45;&gt;Node2</title>
<path fill="none" stroke="midnightblue" d="M19.9403,-656.957C23.3144,-692.774 36.6604,-809.139 74,-897 93.746,-943.463 129.598,-991.013 150.233,-1016.37"/>
<polygon fill="midnightblue" stroke="midnightblue" points="147.778,-1018.89 156.845,-1024.37 153.175,-1014.43 147.778,-1018.89"/>
</g>
<!-- Node5 -->
<g id="node9" class="node"><title>Node5</title>
<a xlink:href="class_power_state_graph.html#a3823f720987e5e13eb7f1cfae7cdf4be" target="_top" xlink:title="This is the main public interface to the disaggregation algorithm.">
<polygon fill="white" stroke="black" points="88.5,-866.5 88.5,-887.5 243.5,-887.5 243.5,-866.5 88.5,-866.5"/>
<text text-anchor="middle" x="166" y="-874.5" font-family="Helvetica,sans-Serif" font-size="10.00">PowerStateGraph::disaggregate</text>
</a>
</g>
<!-- Node1&#45;&gt;Node5 -->
<g id="edge8" class="edge"><title>Node1&#45;&gt;Node5</title>
<path fill="none" stroke="midnightblue" d="M25.1135,-656.581C35.1055,-673.793 55.6623,-708.864 74,-738 101.302,-781.379 134.864,-831.269 152.955,-857.896"/>
<polygon fill="midnightblue" stroke="midnightblue" points="150.152,-859.999 158.673,-866.296 155.938,-856.06 150.152,-859.999"/>
</g>
<!-- Node8 -->
<g id="node15" class="node"><title>Node8</title>
<a xlink:href="namespace_utils.html#a5f35365dae06a93f4bbf0f406a78b90b" target="_top" xlink:title="Utils::fatalError">
<polygon fill="white" stroke="black" points="891.5,-673.5 891.5,-694.5 974.5,-694.5 974.5,-673.5 891.5,-673.5"/>
<text text-anchor="middle" x="933" y="-681.5" font-family="Helvetica,sans-Serif" font-size="10.00">Utils::fatalError</text>
</a>
</g>
<!-- Node1&#45;&gt;Node8 -->
<g id="edge58" class="edge"><title>Node1&#45;&gt;Node8</title>
<path fill="none" stroke="midnightblue" d="M25.0936,-635.033C33.79,-620.651 51.2577,-596.066 74,-586 127.239,-562.435 714.007,-532.915 806,-585 833.062,-600.322 818.572,-624.55 842,-645 854.216,-655.663 869.785,-663.763 884.579,-669.741"/>
<polygon fill="midnightblue" stroke="midnightblue" points="883.553,-673.096 894.145,-673.369 886.036,-666.551 883.553,-673.096"/>
</g>
<!-- Node26 -->
<g id="node56" class="node"><title>Node26</title>
<a xlink:href="class_device.html#a821d5fa106be895802fff97c673ba633" target="_top" xlink:title="Device::findAlignment">
<polygon fill="white" stroke="black" points="351.5,-59.5 351.5,-80.5 464.5,-80.5 464.5,-59.5 351.5,-59.5"/>
<text text-anchor="middle" x="408" y="-67.5" font-family="Helvetica,sans-Serif" font-size="10.00">Device::findAlignment</text>
</a>
</g>
<!-- Node1&#45;&gt;Node26 -->
<g id="edge60" class="edge"><title>Node1&#45;&gt;Node26</title>
<path fill="none" stroke="midnightblue" d="M19.9921,-635.227C24.5054,-587.821 44.174,-397.885 74,-347 150.066,-217.225 310.674,-121.372 377.661,-85.4782"/>
<polygon fill="midnightblue" stroke="midnightblue" points="379.641,-88.3904 386.843,-80.6205 376.367,-82.2029 379.641,-88.3904"/>
</g>
<!-- Node30 -->
<g id="node65" class="node"><title>Node30</title>
<a xlink:href="class_device.html#a89facf93091a42689e5b95968b6520b1" target="_top" xlink:title="Device::getPowerStateGraph">
<polygon fill="white" stroke="black" points="94,-635.5 94,-656.5 238,-656.5 238,-635.5 94,-635.5"/>
<text text-anchor="middle" x="166" y="-643.5" font-family="Helvetica,sans-Serif" font-size="10.00">Device::getPowerStateGraph</text>
</a>
</g>
<!-- Node1&#45;&gt;Node30 -->
<g id="edge70" class="edge"><title>Node1&#45;&gt;Node30</title>
<path fill="none" stroke="midnightblue" d="M38.2177,-646C50.2531,-646 66.6759,-646 83.7377,-646"/>
<polygon fill="midnightblue" stroke="midnightblue" points="83.829,-649.5 93.8289,-646 83.8289,-642.5 83.829,-649.5"/>
</g>
<!-- Node31 -->
<g id="node67" class="node"><title>Node31</title>
<a xlink:href="class_device.html#a8899e5602a83445001c75fa885e29eb5" target="_top" xlink:title="Device::getPowerStatesAndSequence">
<polygon fill="white" stroke="black" points="74,-595.5 74,-616.5 258,-616.5 258,-595.5 74,-595.5"/>
<text text-anchor="middle" x="166" y="-603.5" font-family="Helvetica,sans-Serif" font-size="10.00">Device::getPowerStatesAndSequence</text>
</a>
</g>
<!-- Node1&#45;&gt;Node31 -->
<g id="edge72" class="edge"><title>Node1&#45;&gt;Node31</title>
<path fill="none" stroke="midnightblue" d="M38.135,-638.322C48.6145,-634.301 61.8968,-629.499 74,-626 82.8792,-623.433 92.3245,-621.024 101.653,-618.829"/>
<polygon fill="midnightblue" stroke="midnightblue" points="102.728,-622.174 111.696,-616.534 101.168,-615.35 102.728,-622.174"/>
</g>
<!-- Node34 -->
<g id="node73" class="node"><title>Node34</title>
<a xlink:href="class_aggregate_data.html#a6081d80a8dacb3fe085b5dc9d99f8086" target="_top" xlink:title="AggregateData::loadCurrentCostData">
<polygon fill="white" stroke="black" points="318,-674.5 318,-695.5 498,-695.5 498,-674.5 318,-674.5"/>
<text text-anchor="middle" x="408" y="-682.5" font-family="Helvetica,sans-Serif" font-size="10.00">AggregateData::loadCurrentCostData</text>
</a>
</g>
<!-- Node1&#45;&gt;Node34 -->
<g id="edge78" class="edge"><title>Node1&#45;&gt;Node34</title>
<path fill="none" stroke="midnightblue" d="M38.1984,-654.547C48.584,-658.768 61.7589,-663.483 74,-666 151.38,-681.911 240.821,-686.278 307.662,-686.877"/>
<polygon fill="midnightblue" stroke="midnightblue" points="307.751,-690.377 317.773,-686.94 307.795,-683.377 307.751,-690.377"/>
</g>
<!-- Node36 -->
<g id="node80" class="node"><title>Node36</title>
<a xlink:href="class_device.html#a82d7e65439c0191ab9e767612b2ed843" target="_top" xlink:title="Load signature data files.">
<polygon fill="white" stroke="black" points="623,-712.5 623,-733.5 741,-733.5 741,-712.5 623,-712.5"/>
<text text-anchor="middle" x="682" y="-720.5" font-family="Helvetica,sans-Serif" font-size="10.00">Device::loadSignatures</text>
</a>
</g>
<!-- Node1&#45;&gt;Node36 -->
<g id="edge88" class="edge"><title>Node1&#45;&gt;Node36</title>
<path fill="none" stroke="midnightblue" d="M28.769,-656.662C38.9452,-666.97 55.9061,-682.022 74,-689 258.079,-759.99 496.874,-745.548 612.791,-732.505"/>
<polygon fill="midnightblue" stroke="midnightblue" points="613.415,-735.956 622.946,-731.33 612.61,-729.003 613.415,-735.956"/>
</g>
<!-- Node37 -->
<g id="node84" class="node"><title>Node37</title>
<a xlink:href="class_device.html#ad3d9721aca89723e22cf723149a39583" target="_top" xlink:title="Trains the powerStateGraph using signatures declared with loadSignatures(). To be called once signatu...">
<polygon fill="white" stroke="black" points="91.5,-356.5 91.5,-377.5 240.5,-377.5 240.5,-356.5 91.5,-356.5"/>
<text text-anchor="middle" x="166" y="-364.5" font-family="Helvetica,sans-Serif" font-size="10.00">Device::trainPowerStateGraph</text>
</a>
</g>
<!-- Node1&#45;&gt;Node37 -->
<g id="edge94" class="edge"><title>Node1&#45;&gt;Node37</title>
<path fill="none" stroke="midnightblue" d="M24.5831,-635.404C46.5038,-593.799 126.883,-441.242 155.664,-386.618"/>
<polygon fill="midnightblue" stroke="midnightblue" points="158.846,-388.086 160.411,-377.607 152.653,-384.823 158.846,-388.086"/>
</g>
<!-- Node3 -->
<g id="node5" class="node"><title>Node3</title>
<a xlink:href="_main_8cpp.html#a68dfdf58811df04ddcd52f1f9f7816f1" target="_top" xlink:title="printHelp">
<polygon fill="white" stroke="black" points="380,-1064.5 380,-1085.5 436,-1085.5 436,-1064.5 380,-1064.5"/>
<text text-anchor="middle" x="408" y="-1072.5" font-family="Helvetica,sans-Serif" font-size="10.00">printHelp</text>
</a>
</g>
<!-- Node2&#45;&gt;Node3 -->
<g id="edge4" class="edge"><title>Node2&#45;&gt;Node3</title>
<path fill="none" stroke="midnightblue" d="M228.636,-1045.35C273.312,-1052.74 331.946,-1062.43 369.802,-1068.69"/>
<polygon fill="midnightblue" stroke="midnightblue" points="369.462,-1072.18 379.899,-1070.36 370.604,-1065.27 369.462,-1072.18"/>
</g>
<!-- Node4 -->
<g id="node7" class="node"><title>Node4</title>
<a xlink:href="_main_8cpp.html#a9c4b081f1e1ad60def15811c71a936f2" target="_top" xlink:title="printVersion">
<polygon fill="white" stroke="black" points="374,-1024.5 374,-1045.5 442,-1045.5 442,-1024.5 374,-1024.5"/>
<text text-anchor="middle" x="408" y="-1032.5" font-family="Helvetica,sans-Serif" font-size="10.00">printVersion</text>
</a>
</g>
<!-- Node2&#45;&gt;Node4 -->
<g id="edge6" class="edge"><title>Node2&#45;&gt;Node4</title>
<path fill="none" stroke="midnightblue" d="M228.636,-1035C271.007,-1035 325.935,-1035 363.783,-1035"/>
<polygon fill="midnightblue" stroke="midnightblue" points="363.981,-1038.5 373.981,-1035 363.981,-1031.5 363.981,-1038.5"/>
</g>
<!-- Node6 -->
<g id="node11" class="node"><title>Node6</title>
<a xlink:href="class_power_state_graph.html#a8c7b40b543c04d5f5b498a537093ae46" target="_top" xlink:title="PowerStateGraph::displayAndPlotFingerprintList">
<polygon fill="white" stroke="black" points="294.5,-984.5 294.5,-1005.5 521.5,-1005.5 521.5,-984.5 294.5,-984.5"/>
<text text-anchor="middle" x="408" y="-992.5" font-family="Helvetica,sans-Serif" font-size="10.00">PowerStateGraph::displayAndPlotFingerprintList</text>
</a>
</g>
<!-- Node5&#45;&gt;Node6 -->
<g id="edge10" class="edge"><title>Node5&#45;&gt;Node6</title>
<path fill="none" stroke="midnightblue" d="M177.309,-887.785C198.444,-907.316 246.14,-948.506 294,-970 304.758,-974.831 316.517,-978.758 328.266,-981.942"/>
<polygon fill="midnightblue" stroke="midnightblue" points="327.556,-985.373 338.11,-984.445 329.281,-978.589 327.556,-985.373"/>
</g>
<!-- Node5&#45;&gt;Node8 -->
<g id="edge28" class="edge"><title>Node5&#45;&gt;Node8</title>
<path fill="none" stroke="midnightblue" d="M183.977,-866.481C208.149,-852.834 252.856,-829.32 294,-817 514.258,-751.047 585.629,-808.574 806,-743 841.952,-732.302 880.7,-713.068 905.813,-699.473"/>
<polygon fill="midnightblue" stroke="midnightblue" points="907.659,-702.453 914.737,-694.569 904.287,-696.318 907.659,-702.453"/>
</g>
<!-- Node14 -->
<g id="node29" class="node"><title>Node14</title>
<a xlink:href="class_aggregate_data.html#ada468d155767d721c755405582d108ee" target="_top" xlink:title="Find all spikes in aggregate data which fit spikeStats.">
<polygon fill="white" stroke="black" points="869,-836.5 869,-857.5 997,-857.5 997,-836.5 869,-836.5"/>
<text text-anchor="middle" x="933" y="-844.5" font-family="Helvetica,sans-Serif" font-size="10.00">AggregateData::findSpike</text>
</a>
</g>
<!-- Node5&#45;&gt;Node14 -->
<g id="edge30" class="edge"><title>Node5&#45;&gt;Node14</title>
<path fill="none" stroke="midnightblue" d="M182.532,-887.671C206.133,-902.205 251.359,-927.502 294,-937 516.723,-986.611 585.536,-957.842 806,-899 840.292,-889.848 877.679,-873.739 902.947,-861.869"/>
<polygon fill="midnightblue" stroke="midnightblue" points="904.485,-865.013 912.006,-857.55 901.473,-858.694 904.485,-865.013"/>
</g>
<!-- Node19 -->
<g id="node39" class="node"><title>Node19</title>
<a xlink:href="class_aggregate_data.html#aacf47acf1ff8001aebdcdf078c551358" target="_top" xlink:title="AggregateData::getFilename">
<polygon fill="white" stroke="black" points="337.5,-866.5 337.5,-887.5 478.5,-887.5 478.5,-866.5 337.5,-866.5"/>
<text text-anchor="middle" x="408" y="-874.5" font-family="Helvetica,sans-Serif" font-size="10.00">AggregateData::getFilename</text>
</a>
</g>
<!-- Node5&#45;&gt;Node19 -->
<g id="edge40" class="edge"><title>Node5&#45;&gt;Node19</title>
<path fill="none" stroke="midnightblue" d="M243.569,-877C270.293,-877 300.277,-877 327.249,-877"/>
<polygon fill="midnightblue" stroke="midnightblue" points="327.426,-880.5 337.426,-877 327.426,-873.5 327.426,-880.5"/>
</g>
<!-- Node20 -->
<g id="node41" class="node"><title>Node20</title>
<a xlink:href="class_power_state_graph.html#a0478f171d51d21613746640c7415fb0b" target="_top" xlink:title="PowerStateGraph::initTraceToEnd">
<polygon fill="white" stroke="black" points="325,-906.5 325,-927.5 491,-927.5 491,-906.5 325,-906.5"/>
<text text-anchor="middle" x="408" y="-914.5" font-family="Helvetica,sans-Serif" font-size="10.00">PowerStateGraph::initTraceToEnd</text>
</a>
</g>
<!-- Node5&#45;&gt;Node20 -->
<g id="edge42" class="edge"><title>Node5&#45;&gt;Node20</title>
<path fill="none" stroke="midnightblue" d="M229.583,-887.51C261.691,-892.817 300.822,-899.285 334.246,-904.809"/>
<polygon fill="midnightblue" stroke="midnightblue" points="333.985,-908.314 344.422,-906.491 335.127,-901.407 333.985,-908.314"/>
</g>
<!-- Node25 -->
<g id="node53" class="node"><title>Node25</title>
<a xlink:href="class_power_state_graph.html#a5ef8ee81761b13f9f16b564aca228994" target="_top" xlink:title="PowerStateGraph::removeOverlapping">
<polygon fill="white" stroke="black" points="316,-826.5 316,-847.5 500,-847.5 500,-826.5 316,-826.5"/>
<text text-anchor="middle" x="408" y="-834.5" font-family="Helvetica,sans-Serif" font-size="10.00">PowerStateGraph::removeOverlapping</text>
</a>
</g>
<!-- Node5&#45;&gt;Node25 -->
<g id="edge56" class="edge"><title>Node5&#45;&gt;Node25</title>
<path fill="none" stroke="midnightblue" d="M229.583,-866.49C261.691,-861.183 300.822,-854.715 334.246,-849.191"/>
<polygon fill="midnightblue" stroke="midnightblue" points="335.127,-852.593 344.422,-847.509 333.985,-845.686 335.127,-852.593"/>
</g>
<!-- Node7 -->
<g id="node13" class="node"><title>Node7</title>
<a xlink:href="namespace_utils.html#afb991f08a33e9d7f3298e60f3bf76960" target="_top" xlink:title="Utils::openFile">
<polygon fill="white" stroke="black" points="642,-594.5 642,-615.5 722,-615.5 722,-594.5 642,-594.5"/>
<text text-anchor="middle" x="682" y="-602.5" font-family="Helvetica,sans-Serif" font-size="10.00">Utils::openFile</text>
</a>
</g>
<!-- Node6&#45;&gt;Node7 -->
<g id="edge12" class="edge"><title>Node6&#45;&gt;Node7</title>
<path fill="none" stroke="midnightblue" d="M449.986,-984.492C475.03,-975.957 505.141,-961.249 522,-937 601.68,-822.39 461.545,-725.9 558,-625 576.607,-605.536 606.115,-600.196 631.679,-599.883"/>
<polygon fill="midnightblue" stroke="midnightblue" points="631.937,-603.386 641.981,-600.016 632.027,-596.387 631.937,-603.386"/>
</g>
<!-- Node9 -->
<g id="node17" class="node"><title>Node9</title>
<a xlink:href="namespace_g_n_uplot.html#ab276a6d946560395f9d6caa8cb6cb640" target="_top" xlink:title="Plot a graph using GNUplot.">
<polygon fill="white" stroke="black" points="643.5,-984.5 643.5,-1005.5 720.5,-1005.5 720.5,-984.5 643.5,-984.5"/>
<text text-anchor="middle" x="682" y="-992.5" font-family="Helvetica,sans-Serif" font-size="10.00">GNUplot::plot</text>
</a>
</g>
<!-- Node6&#45;&gt;Node9 -->
<g id="edge16" class="edge"><title>Node6&#45;&gt;Node9</title>
<path fill="none" stroke="midnightblue" d="M521.82,-995C560.79,-995 602.337,-995 633.35,-995"/>
<polygon fill="midnightblue" stroke="midnightblue" points="633.445,-998.5 643.445,-995 633.445,-991.5 633.445,-998.5"/>
</g>
<!-- Node13 -->
<g id="node26" class="node"><title>Node13</title>
<a xlink:href="namespace_utils.html#a48dfa27103961c7cc6082f7e68857748" target="_top" xlink:title="Utils::size_t_to_s">
<polygon fill="white" stroke="black" points="635.5,-1024.5 635.5,-1045.5 728.5,-1045.5 728.5,-1024.5 635.5,-1024.5"/>
<text text-anchor="middle" x="682" y="-1032.5" font-family="Helvetica,sans-Serif" font-size="10.00">Utils::size_t_to_s</text>
</a>
</g>
<!-- Node6&#45;&gt;Node13 -->
<g id="edge26" class="edge"><title>Node6&#45;&gt;Node13</title>
<path fill="none" stroke="midnightblue" d="M479.99,-1005.51C525.399,-1012.14 583.212,-1020.58 625.346,-1026.73"/>
<polygon fill="midnightblue" stroke="midnightblue" points="625.032,-1030.22 635.432,-1028.2 626.043,-1023.29 625.032,-1030.22"/>
</g>
<!-- Node7&#45;&gt;Node8 -->
<g id="edge14" class="edge"><title>Node7&#45;&gt;Node8</title>
<path fill="none" stroke="midnightblue" d="M722.233,-607.929C746.927,-610.593 778.905,-615.613 806,-625 823.295,-630.992 825.567,-636.94 842,-645 859.802,-653.732 880.039,-662.513 896.901,-669.527"/>
<polygon fill="midnightblue" stroke="midnightblue" points="895.816,-672.865 906.395,-673.438 898.482,-666.393 895.816,-672.865"/>
</g>
<!-- Node10 -->
<g id="node19" class="node"><title>Node10</title>
<a xlink:href="namespace_utils.html#ae7741f30cf104d6660673d7c336ef5cc" target="_top" xlink:title="Utils::fileExists">
<polygon fill="white" stroke="black" points="891.5,-751.5 891.5,-772.5 974.5,-772.5 974.5,-751.5 891.5,-751.5"/>
<text text-anchor="middle" x="933" y="-759.5" font-family="Helvetica,sans-Serif" font-size="10.00">Utils::fileExists</text>
</a>
</g>
<!-- Node9&#45;&gt;Node10 -->
<g id="edge18" class="edge"><title>Node9&#45;&gt;Node10</title>
<path fill="none" stroke="midnightblue" d="M700.509,-984.389C726.764,-968.586 775.061,-936.653 806,-899 828.713,-871.357 818.758,-854.2 842,-827 859.421,-806.612 884.535,-789.303 903.968,-777.685"/>
<polygon fill="midnightblue" stroke="midnightblue" points="905.829,-780.651 912.72,-772.603 902.315,-774.597 905.829,-780.651"/>
</g>
<!-- Node11 -->
<g id="node21" class="node"><title>Node11</title>
<a xlink:href="namespace_g_n_uplot.html#a1a232691d61b3e55fdcc406a3a2e9c1f" target="_top" xlink:title="Replaces all the tokens in the template file &#39;config/plotVars.inFilename&#39; with variables from...">
<polygon fill="white" stroke="black" points="860,-984.5 860,-1005.5 1006,-1005.5 1006,-984.5 860,-984.5"/>
<text text-anchor="middle" x="933" y="-992.5" font-family="Helvetica,sans-Serif" font-size="10.00">GNUplot::instantiateTemplate</text>
</a>
</g>
<!-- Node9&#45;&gt;Node11 -->
<g id="edge20" class="edge"><title>Node9&#45;&gt;Node11</title>
<path fill="none" stroke="midnightblue" d="M720.669,-995C754.987,-995 806.296,-995 849.879,-995"/>
<polygon fill="midnightblue" stroke="midnightblue" points="849.912,-998.5 859.912,-995 849.912,-991.5 849.912,-998.5"/>
</g>
<!-- Node12 -->
<g id="node23" class="node"><title>Node12</title>
<a xlink:href="namespace_g_n_uplot.html#a60ecface5bf85a5e3e2e1743bd266737" target="_top" xlink:title="Replace all characters which might confuse &#39;sed&#39;.">
<polygon fill="white" stroke="black" points="1087.5,-950.5 1087.5,-971.5 1182.5,-971.5 1182.5,-950.5 1087.5,-950.5"/>
<text text-anchor="middle" x="1135" y="-958.5" font-family="Helvetica,sans-Serif" font-size="10.00">GNUplot::sanitise</text>
</a>
</g>
<!-- Node9&#45;&gt;Node12 -->
<g id="edge24" class="edge"><title>Node9&#45;&gt;Node12</title>
<path fill="none" stroke="midnightblue" d="M720.71,-989.318C753.06,-984.772 800.443,-978.585 842,-975 923.488,-967.971 1018.05,-964.251 1077.21,-962.455"/>
<polygon fill="midnightblue" stroke="midnightblue" points="1077.58,-965.946 1087.48,-962.152 1077.38,-958.949 1077.58,-965.946"/>
</g>
<!-- Node11&#45;&gt;Node12 -->
<g id="edge22" class="edge"><title>Node11&#45;&gt;Node12</title>
<path fill="none" stroke="midnightblue" d="M995.531,-984.475C1021.61,-980.085 1051.72,-975.017 1077.28,-970.716"/>
<polygon fill="midnightblue" stroke="midnightblue" points="1077.91,-974.159 1087.19,-969.047 1076.75,-967.256 1077.91,-974.159"/>
</g>
<!-- Node15 -->
<g id="node31" class="node"><title>Node15</title>
<a xlink:href="namespace_utils.html#a30128571ef453645d7731302607a16de" target="_top" xlink:title="Utils::between">
<polygon fill="white" stroke="black" points="1095,-843.5 1095,-864.5 1175,-864.5 1175,-843.5 1095,-843.5"/>
<text text-anchor="middle" x="1135" y="-851.5" font-family="Helvetica,sans-Serif" font-size="10.00">Utils::between</text>
</a>
</g>
<!-- Node14&#45;&gt;Node15 -->
<g id="edge32" class="edge"><title>Node14&#45;&gt;Node15</title>
<path fill="none" stroke="midnightblue" d="M997.192,-849.224C1025.44,-850.203 1058.14,-851.337 1084.6,-852.253"/>
<polygon fill="midnightblue" stroke="midnightblue" points="1084.66,-855.758 1094.78,-852.606 1084.91,-848.762 1084.66,-855.758"/>
</g>
<!-- Node16 -->
<g id="node33" class="node"><title>Node16</title>
<a xlink:href="struct_statistic.html#aa487c5c0322d9d1fa96affa11939b393" target="_top" xlink:title="Returns stdev if stdev &gt; mean/10, else returns mean/10.">
<polygon fill="white" stroke="black" points="1075.5,-803.5 1075.5,-824.5 1194.5,-824.5 1194.5,-803.5 1075.5,-803.5"/>
<text text-anchor="middle" x="1135" y="-811.5" font-family="Helvetica,sans-Serif" font-size="10.00">Statistic::nonZeroStdev</text>
</a>
</g>
<!-- Node14&#45;&gt;Node16 -->
<g id="edge34" class="edge"><title>Node14&#45;&gt;Node16</title>
<path fill="none" stroke="midnightblue" d="M997.192,-836.513C1018.93,-832.962 1043.31,-828.98 1065.44,-825.363"/>
<polygon fill="midnightblue" stroke="midnightblue" points="1066.13,-828.797 1075.44,-823.73 1065.01,-821.889 1066.13,-828.797"/>
</g>
<!-- Node17 -->
<g id="node35" class="node"><title>Node17</title>
<a xlink:href="struct_statistic.html#a16764e35873ab9b1cfbffe5668515b47" target="_top" xlink:title="The likelihood is normalised by dividing the raw likelihood by the likelihood of the distribution&amp;#39...">
<polygon fill="white" stroke="black" points="1060.5,-901.5 1060.5,-922.5 1209.5,-922.5 1209.5,-901.5 1060.5,-901.5"/>
<text text-anchor="middle" x="1135" y="-909.5" font-family="Helvetica,sans-Serif" font-size="10.00">Statistic::normalisedLikelihood</text>
</a>
</g>
<!-- Node14&#45;&gt;Node17 -->
<g id="edge36" class="edge"><title>Node14&#45;&gt;Node17</title>
<path fill="none" stroke="midnightblue" d="M965.904,-857.588C1000.39,-868.684 1054.69,-886.157 1092.42,-898.298"/>
<polygon fill="midnightblue" stroke="midnightblue" points="1091.52,-901.685 1102.11,-901.416 1093.66,-895.022 1091.52,-901.685"/>
</g>
<!-- Node18 -->
<g id="node37" class="node"><title>Node18</title>
<a xlink:href="namespace_utils.html#a297beaecb52c2c24b05b9666d080bb7e" target="_top" xlink:title="Returns true if a and b are the same sign. Zero is assumed to be positive.">
<polygon fill="white" stroke="black" points="1092,-639.5 1092,-660.5 1178,-660.5 1178,-639.5 1092,-639.5"/>
<text text-anchor="middle" x="1135" y="-647.5" font-family="Helvetica,sans-Serif" font-size="10.00">Utils::sameSign</text>
</a>
</g>
<!-- Node14&#45;&gt;Node18 -->
<g id="edge38" class="edge"><title>Node14&#45;&gt;Node18</title>
<path fill="none" stroke="midnightblue" d="M950.402,-836.441C969.47,-824.458 1000.47,-803.74 1024,-782 1063.32,-745.669 1101.86,-695.701 1121.53,-668.865"/>
<polygon fill="midnightblue" stroke="midnightblue" points="1124.41,-670.853 1127.45,-660.704 1118.74,-666.742 1124.41,-670.853"/>
</g>
<!-- Node21 -->
<g id="node43" class="node"><title>Node21</title>
<a xlink:href="class_power_state_graph.html#a222bc37f6c90142887eb36b4e31ab568" target="_top" xlink:title="Iterates through each path in listOfPaths to find the one with the highest likelihood.">
<polygon fill="white" stroke="black" points="855,-906.5 855,-927.5 1011,-927.5 1011,-906.5 855,-906.5"/>
<text text-anchor="middle" x="933" y="-914.5" font-family="Helvetica,sans-Serif" font-size="10.00">PowerStateGraph::findBestPath</text>
</a>
</g>
<!-- Node20&#45;&gt;Node21 -->
<g id="edge44" class="edge"><title>Node20&#45;&gt;Node21</title>
<path fill="none" stroke="midnightblue" d="M491.188,-917C587.669,-917 746.055,-917 844.673,-917"/>
<polygon fill="midnightblue" stroke="midnightblue" points="844.913,-920.5 854.913,-917 844.913,-913.5 844.913,-920.5"/>
</g>
<!-- Node22 -->
<g id="node46" class="node"><title>Node22</title>
<a xlink:href="class_power_state_graph.html#a492bc7278329e94573559ec0cfdd2c7b" target="_top" xlink:title="Trace the tree downwards from vertex recursively finding every path which successfully completes (i...">
<polygon fill="white" stroke="black" points="558,-868.5 558,-889.5 806,-889.5 806,-868.5 558,-868.5"/>
<text text-anchor="middle" x="682" y="-876.5" font-family="Helvetica,sans-Serif" font-size="10.00">PowerStateGraph::findListOfPathsThroughDisagTree</text>
</a>
</g>
<!-- Node20&#45;&gt;Node22 -->
<g id="edge48" class="edge"><title>Node20&#45;&gt;Node22</title>
<path fill="none" stroke="midnightblue" d="M483.96,-906.465C518.704,-901.647 560.032,-895.915 595.923,-890.938"/>
<polygon fill="midnightblue" stroke="midnightblue" points="596.467,-894.396 605.892,-889.555 595.506,-887.462 596.467,-894.396"/>
</g>
<!-- Node23 -->
<g id="node48" class="node"><title>Node23</title>
<a xlink:href="class_power_state_graph.html#a0df76ca216d2d48aeb44d2bb08046e2f" target="_top" xlink:title="PowerStateGraph::traceToEnd">
<polygon fill="white" stroke="red" points="607,-828.5 607,-849.5 757,-849.5 757,-828.5 607,-828.5"/>
<text text-anchor="middle" x="682" y="-836.5" font-family="Helvetica,sans-Serif" font-size="10.00">PowerStateGraph::traceToEnd</text>
</a>
</g>
<!-- Node20&#45;&gt;Node23 -->
<g id="edge50" class="edge"><title>Node20&#45;&gt;Node23</title>
<path fill="none" stroke="midnightblue" d="M491.069,-908.887C501.843,-905.995 512.442,-902.136 522,-897 542.494,-885.989 537.431,-869.87 558,-859 569.946,-852.687 583.373,-848.258 596.865,-845.172"/>
<polygon fill="midnightblue" stroke="midnightblue" points="597.59,-848.596 606.68,-843.154 596.18,-841.739 597.59,-848.596"/>
</g>
<!-- Node21&#45;&gt;Node17 -->
<g id="edge46" class="edge"><title>Node21&#45;&gt;Node17</title>
<path fill="none" stroke="midnightblue" d="M1011.1,-915.067C1023.89,-914.75 1037.2,-914.421 1050.14,-914.101"/>
<polygon fill="midnightblue" stroke="midnightblue" points="1050.52,-917.592 1060.43,-913.846 1050.34,-910.595 1050.52,-917.592"/>
</g>
<!-- Node23&#45;&gt;Node14 -->
<g id="edge54" class="edge"><title>Node23&#45;&gt;Node14</title>
<path fill="none" stroke="midnightblue" d="M757.308,-841.4C789.362,-842.422 826.646,-843.61 858.6,-844.629"/>
<polygon fill="midnightblue" stroke="midnightblue" points="858.667,-848.133 868.774,-844.953 858.89,-841.136 858.667,-848.133"/>
</g>
<!-- Node24 -->
<g id="node50" class="node"><title>Node24</title>
<a xlink:href="class_power_state_graph.html#a6de44e31afe85bf0ee18dc09a7be329c" target="_top" xlink:title="Check if edge list a and edge list b are equal.">
<polygon fill="white" stroke="black" points="842,-614.5 842,-635.5 1024,-635.5 1024,-614.5 842,-614.5"/>
<text text-anchor="middle" x="933" y="-622.5" font-family="Helvetica,sans-Serif" font-size="10.00">PowerStateGraph::edgeListsAreEqual</text>
</a>
</g>
<!-- Node23&#45;&gt;Node24 -->
<g id="edge52" class="edge"><title>Node23&#45;&gt;Node24</title>
<path fill="none" stroke="midnightblue" d="M701.141,-828.275C727.718,-812.563 775.914,-780.991 806,-743 829.954,-712.751 814.409,-690.972 842,-664 853.085,-653.164 867.654,-645.122 881.876,-639.251"/>
<polygon fill="midnightblue" stroke="midnightblue" points="883.529,-642.366 891.62,-635.526 881.029,-635.828 883.529,-642.366"/>
</g>
<!-- Node27 -->
<g id="node58" class="node"><title>Node27</title>
<a xlink:href="class_aggregate_data.html#aa0acfe59de5992e604497eb2a8942997" target="_top" xlink:title="AggregateData::getSamplePeriod">
<polygon fill="white" stroke="black" points="601,-78.5 601,-99.5 763,-99.5 763,-78.5 601,-78.5"/>
<text text-anchor="middle" x="682" y="-86.5" font-family="Helvetica,sans-Serif" font-size="10.00">AggregateData::getSamplePeriod</text>
</a>
</g>
<!-- Node26&#45;&gt;Node27 -->
<g id="edge62" class="edge"><title>Node26&#45;&gt;Node27</title>
<path fill="none" stroke="midnightblue" d="M464.773,-73.9368C501.12,-76.4573 549.101,-79.7844 590.722,-82.6705"/>
<polygon fill="midnightblue" stroke="midnightblue" points="590.659,-86.1744 600.877,-83.3747 591.143,-79.1912 590.659,-86.1744"/>
</g>
<!-- Node28 -->
<g id="node60" class="node"><title>Node28</title>
<a xlink:href="class_array.html#ae16b42080e87a53fe2b76af98995111b" target="_top" xlink:title="Array::getSize">
<polygon fill="white" stroke="black" points="893.5,-178.5 893.5,-199.5 972.5,-199.5 972.5,-178.5 893.5,-178.5"/>
<text text-anchor="middle" x="933" y="-186.5" font-family="Helvetica,sans-Serif" font-size="10.00">Array::getSize</text>
</a>
</g>
<!-- Node26&#45;&gt;Node28 -->
<g id="edge64" class="edge"><title>Node26&#45;&gt;Node28</title>
<path fill="none" stroke="midnightblue" d="M452.683,-59.4768C528.491,-43.853 685.774,-21.1848 806,-69 857.377,-89.4333 899.976,-141.604 920.251,-169.958"/>
<polygon fill="midnightblue" stroke="midnightblue" points="917.444,-172.052 926.032,-178.257 923.187,-168.051 917.444,-172.052"/>
</g>
<!-- Node29 -->
<g id="node62" class="node"><title>Node29</title>
<a xlink:href="class_device.html#ac99af11562629b3f90001e5415f5399a" target="_top" xlink:title="Least mean difference.">
<polygon fill="white" stroke="black" points="645,-0.5 645,-21.5 719,-21.5 719,-0.5 645,-0.5"/>
<text text-anchor="middle" x="682" y="-8.5" font-family="Helvetica,sans-Serif" font-size="10.00">Device::LMS</text>
</a>
</g>
<!-- Node26&#45;&gt;Node29 -->
<g id="edge66" class="edge"><title>Node26&#45;&gt;Node29</title>
<path fill="none" stroke="midnightblue" d="M453.229,-59.4513C482.965,-52.5895 522.751,-43.5471 558,-36 583.347,-30.5731 611.681,-24.8359 634.859,-20.2283"/>
<polygon fill="midnightblue" stroke="midnightblue" points="635.655,-23.6387 644.784,-18.2616 634.294,-16.7722 635.655,-23.6387"/>
</g>
<!-- Node29&#45;&gt;Node28 -->
<g id="edge68" class="edge"><title>Node29&#45;&gt;Node28</title>
<path fill="none" stroke="midnightblue" d="M719.049,-12.0355C744.995,-14.2345 779.605,-20.2331 806,-36 861.596,-69.21 903.908,-135.906 922.551,-169.179"/>
<polygon fill="midnightblue" stroke="midnightblue" points="919.699,-171.26 927.565,-178.357 925.843,-167.904 919.699,-171.26"/>
</g>
<!-- Node32 -->
<g id="node69" class="node"><title>Node32</title>
<a xlink:href="class_device.html#a0fc31c44ec09adabef3b109917048b0e" target="_top" xlink:title="Extract the power states from last signature and add them to this device&#39;s powerStates.">
<polygon fill="white" stroke="black" points="338.5,-634.5 338.5,-655.5 477.5,-655.5 477.5,-634.5 338.5,-634.5"/>
<text text-anchor="middle" x="408" y="-642.5" font-family="Helvetica,sans-Serif" font-size="10.00">Device::updatePowerStates</text>
</a>
</g>
<!-- Node31&#45;&gt;Node32 -->
<g id="edge74" class="edge"><title>Node31&#45;&gt;Node32</title>
<path fill="none" stroke="midnightblue" d="M231.17,-616.503C262.507,-621.553 300.242,-627.634 332.791,-632.88"/>
<polygon fill="midnightblue" stroke="midnightblue" points="332.284,-636.343 342.714,-634.479 333.398,-629.432 332.284,-636.343"/>
</g>
<!-- Node33 -->
<g id="node71" class="node"><title>Node33</title>
<a xlink:href="class_device.html#a255c62bedb8b90aaf4a60d2bed7d6017" target="_top" xlink:title="Extract the power state sequence from last signature and add them to this device&#39;s powerStates...">
<polygon fill="white" stroke="black" points="319.5,-594.5 319.5,-615.5 496.5,-615.5 496.5,-594.5 319.5,-594.5"/>
<text text-anchor="middle" x="408" y="-602.5" font-family="Helvetica,sans-Serif" font-size="10.00">Device::updatePowerStateSequence</text>
</a>
</g>
<!-- Node31&#45;&gt;Node33 -->
<g id="edge76" class="edge"><title>Node31&#45;&gt;Node33</title>
<path fill="none" stroke="midnightblue" d="M258.18,-605.619C274.772,-605.551 292.132,-605.479 308.911,-605.409"/>
<polygon fill="midnightblue" stroke="midnightblue" points="309.285,-608.908 319.27,-605.367 309.256,-601.908 309.285,-608.908"/>
</g>
<!-- Node34&#45;&gt;Node7 -->
<g id="edge86" class="edge"><title>Node34&#45;&gt;Node7</title>
<path fill="none" stroke="midnightblue" d="M498.029,-675.105C506.397,-672.453 514.529,-669.138 522,-665 542.922,-653.411 536.998,-636.445 558,-625 580.35,-612.821 608.099,-607.59 631.676,-605.503"/>
<polygon fill="midnightblue" stroke="midnightblue" points="632.115,-608.981 641.838,-604.771 631.612,-601.999 632.115,-608.981"/>
</g>
<!-- Node34&#45;&gt;Node8 -->
<g id="edge82" class="edge"><title>Node34&#45;&gt;Node8</title>
<path fill="none" stroke="midnightblue" d="M498.251,-684.828C608.798,-684.618 792.317,-684.268 881.366,-684.098"/>
<polygon fill="midnightblue" stroke="midnightblue" points="881.496,-687.598 891.489,-684.079 881.482,-680.598 881.496,-687.598"/>
</g>
<!-- Node34&#45;&gt;Node10 -->
<g id="edge84" class="edge"><title>Node34&#45;&gt;Node10</title>
<path fill="none" stroke="midnightblue" d="M429.195,-695.689C457.663,-709.457 510.21,-732.824 558,-743 671.336,-767.132 808.083,-766.912 881.085,-764.523"/>
<polygon fill="midnightblue" stroke="midnightblue" points="881.513,-768.01 891.383,-764.157 881.265,-761.015 881.513,-768.01"/>
</g>
<!-- Node35 -->
<g id="node75" class="node"><title>Node35</title>
<a xlink:href="namespace_utils.html#a491439d9860daf48c14c800d8ab35ec0" target="_top" xlink:title="Find the number of numeric data points in file.">
<polygon fill="white" stroke="black" points="624,-634.5 624,-655.5 740,-655.5 740,-634.5 624,-634.5"/>
<text text-anchor="middle" x="682" y="-642.5" font-family="Helvetica,sans-Serif" font-size="10.00">Utils::countDataPoints</text>
</a>
</g>
<!-- Node34&#45;&gt;Node35 -->
<g id="edge80" class="edge"><title>Node34&#45;&gt;Node35</title>
<path fill="none" stroke="midnightblue" d="M479.99,-674.49C521.356,-668.452 573.017,-660.91 613.74,-654.965"/>
<polygon fill="midnightblue" stroke="midnightblue" points="614.455,-658.398 623.845,-653.49 613.444,-651.471 614.455,-658.398"/>
</g>
<!-- Node36&#45;&gt;Node8 -->
<g id="edge90" class="edge"><title>Node36&#45;&gt;Node8</title>
<path fill="none" stroke="midnightblue" d="M741.166,-713.807C783.788,-707.184 840.735,-698.336 881.49,-692.004"/>
<polygon fill="midnightblue" stroke="midnightblue" points="882.14,-695.445 891.484,-690.451 881.065,-688.528 882.14,-695.445"/>
</g>
<!-- Node36&#45;&gt;Node10 -->
<g id="edge92" class="edge"><title>Node36&#45;&gt;Node10</title>
<path fill="none" stroke="midnightblue" d="M741.166,-732.193C783.788,-738.816 840.735,-747.664 881.49,-753.996"/>
<polygon fill="midnightblue" stroke="midnightblue" points="881.065,-757.472 891.484,-755.549 882.14,-750.555 881.065,-757.472"/>
</g>
<!-- Node37&#45;&gt;Node7 -->
<g id="edge98" class="edge"><title>Node37&#45;&gt;Node7</title>
<path fill="none" stroke="midnightblue" d="M188.838,-377.534C271.335,-415.585 554.098,-546.006 649.937,-590.211"/>
<polygon fill="midnightblue" stroke="midnightblue" points="648.588,-593.443 659.134,-594.453 651.519,-587.087 648.588,-593.443"/>
</g>
<!-- Node38 -->
<g id="node86" class="node"><title>Node38</title>
<a xlink:href="class_power_state_graph.html#a1aff2c646dc8187249534520f8f7a4a1" target="_top" xlink:title="PowerStateGraph::getEnergyConsumption">
<polygon fill="white" stroke="black" points="307,-276.5 307,-297.5 509,-297.5 509,-276.5 307,-276.5"/>
<text text-anchor="middle" x="408" y="-284.5" font-family="Helvetica,sans-Serif" font-size="10.00">PowerStateGraph::getEnergyConsumption</text>
</a>
</g>
<!-- Node37&#45;&gt;Node38 -->
<g id="edge96" class="edge"><title>Node37&#45;&gt;Node38</title>
<path fill="none" stroke="midnightblue" d="M184.452,-356.435C208.781,-342.96 253.28,-319.865 294,-307 302.888,-304.192 312.298,-301.745 321.749,-299.62"/>
<polygon fill="midnightblue" stroke="midnightblue" points="322.542,-303.03 331.592,-297.521 321.082,-296.184 322.542,-303.03"/>
</g>
<!-- Node39 -->
<g id="node89" class="node"><title>Node39</title>
<a xlink:href="class_power_state_graph.html#a90ebffe4864640182b342a814af0f0a7" target="_top" xlink:title="Update or initialise Power State Graph.">
<polygon fill="white" stroke="black" points="343.5,-356.5 343.5,-377.5 472.5,-377.5 472.5,-356.5 343.5,-356.5"/>
<text text-anchor="middle" x="408" y="-364.5" font-family="Helvetica,sans-Serif" font-size="10.00">PowerStateGraph::update</text>
</a>
</g>
<!-- Node37&#45;&gt;Node39 -->
<g id="edge100" class="edge"><title>Node37&#45;&gt;Node39</title>
<path fill="none" stroke="midnightblue" d="M240.583,-367C270.025,-367 303.79,-367 333.249,-367"/>
<polygon fill="midnightblue" stroke="midnightblue" points="333.475,-370.5 343.475,-367 333.475,-363.5 333.475,-370.5"/>
</g>
<!-- Node50 -->
<g id="node115" class="node"><title>Node50</title>
<a xlink:href="class_power_state_graph.html#a52095959446302223b8c436e1aa49e50" target="_top" xlink:title="Information about an entire device &#39;fingerprint&#39; found in the aggregate data.">
<polygon fill="white" stroke="black" points="327.5,-316.5 327.5,-337.5 488.5,-337.5 488.5,-316.5 327.5,-316.5"/>
<text text-anchor="middle" x="408" y="-324.5" font-family="Helvetica,sans-Serif" font-size="10.00">PowerStateGraph::writeGraphViz</text>
</a>
</g>
<!-- Node37&#45;&gt;Node50 -->
<g id="edge130" class="edge"><title>Node37&#45;&gt;Node50</title>
<path fill="none" stroke="midnightblue" d="M229.583,-356.49C261.691,-351.183 300.822,-344.715 334.246,-339.191"/>
<polygon fill="midnightblue" stroke="midnightblue" points="335.127,-342.593 344.422,-337.509 333.985,-335.686 335.127,-342.593"/>
</g>
<!-- Node39&#45;&gt;Node28 -->
<g id="edge110" class="edge"><title>Node39&#45;&gt;Node28</title>
<path fill="none" stroke="midnightblue" d="M472.671,-358.082C583.484,-342.733 798.547,-312.609 806,-309 855.305,-285.129 898.245,-235.223 919.266,-207.891"/>
<polygon fill="midnightblue" stroke="midnightblue" points="922.32,-209.654 925.532,-199.558 916.725,-205.447 922.32,-209.654"/>
</g>
<!-- Node40 -->
<g id="node91" class="node"><title>Node40</title>
<a xlink:href="struct_signature_1_1_spike.html#ad5c457fd1b72cd723bdf89f715f34abd" target="_top" xlink:title="Signature::Spike::compareIndexAsc">
<polygon fill="white" stroke="black" points="595.5,-238.5 595.5,-259.5 768.5,-259.5 768.5,-238.5 595.5,-238.5"/>
<text text-anchor="middle" x="682" y="-246.5" font-family="Helvetica,sans-Serif" font-size="10.00">Signature::Spike::compareIndexAsc</text>
</a>
</g>
<!-- Node39&#45;&gt;Node40 -->
<g id="edge102" class="edge"><title>Node39&#45;&gt;Node40</title>
<path fill="none" stroke="midnightblue" d="M472.745,-366.401C490.138,-363.52 507.988,-357.786 522,-347 552.255,-323.711 527.585,-292.081 558,-269 566.293,-262.707 575.806,-258.065 585.794,-254.678"/>
<polygon fill="midnightblue" stroke="midnightblue" points="586.901,-258.001 595.493,-251.802 584.91,-251.29 586.901,-258.001"/>
</g>
<!-- Node41 -->
<g id="node93" class="node"><title>Node41</title>
<a xlink:href="class_signature.html#a02acc8e9f1ceb1af2908807eb1526fcd" target="_top" xlink:title="Takes the gradient of this Signature, then merges gradient values with the same sign, then removes transient spikes, then sorts by value.">
<polygon fill="white" stroke="red" points="616.5,-198.5 616.5,-219.5 747.5,-219.5 747.5,-198.5 616.5,-198.5"/>
<text text-anchor="middle" x="682" y="-206.5" font-family="Helvetica,sans-Serif" font-size="10.00">Signature::getDeltaSpikes</text>
</a>
</g>
<!-- Node39&#45;&gt;Node41 -->
<g id="edge104" class="edge"><title>Node39&#45;&gt;Node41</title>
<path fill="none" stroke="midnightblue" d="M472.55,-367.791C490.342,-365.01 508.454,-358.981 522,-347 563.071,-310.674 516.68,-265.043 558,-229 571.325,-217.377 588.649,-211.11 606.102,-207.973"/>
<polygon fill="midnightblue" stroke="midnightblue" points="606.976,-211.383 616.364,-206.471 605.962,-204.456 606.976,-211.383"/>
</g>
<!-- Node42 -->
<g id="node95" class="node"><title>Node42</title>
<a xlink:href="class_signature.html#a8ab11925aa916b1d225dd72baba50a2c" target="_top" xlink:title="Determine how many Joules of energy have been consumed.">
<polygon fill="white" stroke="black" points="599,-158.5 599,-179.5 765,-179.5 765,-158.5 599,-158.5"/>
<text text-anchor="middle" x="682" y="-166.5" font-family="Helvetica,sans-Serif" font-size="10.00">Signature::getEnergyConsumption</text>
</a>
</g>
<!-- Node39&#45;&gt;Node42 -->
<g id="edge106" class="edge"><title>Node39&#45;&gt;Node42</title>
<path fill="none" stroke="midnightblue" d="M472.512,-368.488C490.514,-365.77 508.749,-359.6 522,-347 574.193,-297.371 505.467,-238.269 558,-189 566.76,-180.784 577.491,-175.177 588.939,-171.438"/>
<polygon fill="midnightblue" stroke="midnightblue" points="590.002,-174.775 598.696,-168.72 588.123,-168.032 590.002,-174.775"/>
</g>
<!-- Node43 -->
<g id="node97" class="node"><title>Node43</title>
<a xlink:href="class_signature.html#a901e57da453530200cd9c177295a2cd3" target="_top" xlink:title="Signature::getID">
<polygon fill="white" stroke="black" points="638,-118.5 638,-139.5 726,-139.5 726,-118.5 638,-118.5"/>
<text text-anchor="middle" x="682" y="-126.5" font-family="Helvetica,sans-Serif" font-size="10.00">Signature::getID</text>
</a>
</g>
<!-- Node39&#45;&gt;Node43 -->
<g id="edge108" class="edge"><title>Node39&#45;&gt;Node43</title>
<path fill="none" stroke="midnightblue" d="M472.566,-368.893C490.677,-366.211 508.959,-359.961 522,-347 585.441,-283.95 494.127,-211.612 558,-149 576.122,-131.236 603.393,-125.489 627.749,-124.505"/>
<polygon fill="midnightblue" stroke="midnightblue" points="628.027,-128.002 637.974,-124.354 627.924,-121.003 628.027,-128.002"/>
</g>
<!-- Node44 -->
<g id="node100" class="node"><title>Node44</title>
<a xlink:href="class_power_state_graph.html#aae4db4000f6485559f06ab4de4d54619" target="_top" xlink:title="Determine the index of the next spike after spike.">
<polygon fill="white" stroke="black" points="592.5,-476.5 592.5,-497.5 771.5,-497.5 771.5,-476.5 592.5,-476.5"/>
<text text-anchor="middle" x="682" y="-484.5" font-family="Helvetica,sans-Serif" font-size="10.00">PowerStateGraph::indexOfNextSpike</text>
</a>
</g>
<!-- Node39&#45;&gt;Node44 -->
<g id="edge112" class="edge"><title>Node39&#45;&gt;Node44</title>
<path fill="none" stroke="midnightblue" d="M419.814,-377.53C443.892,-398.354 501.186,-444.705 558,-467 565.806,-470.063 574.064,-472.657 582.463,-474.854"/>
<polygon fill="midnightblue" stroke="midnightblue" points="581.826,-478.301 592.369,-477.255 583.475,-471.498 581.826,-478.301"/>
</g>
<!-- Node45 -->
<g id="node103" class="node"><title>Node45</title>
<a xlink:href="class_power_state_graph.html#a6ca3bd89b0334bdaa87c703366ffce11" target="_top" xlink:title="Useful for diagnostics.">
<polygon fill="white" stroke="black" points="602,-436.5 602,-457.5 762,-457.5 762,-436.5 602,-436.5"/>
<text text-anchor="middle" x="682" y="-444.5" font-family="Helvetica,sans-Serif" font-size="10.00">PowerStateGraph::printSpikeInfo</text>
</a>
</g>
<!-- Node39&#45;&gt;Node45 -->
<g id="edge116" class="edge"><title>Node39&#45;&gt;Node45</title>
<path fill="none" stroke="midnightblue" d="M429.834,-377.515C458.574,-390.936 510.968,-413.973 558,-427 568.809,-429.994 580.279,-432.592 591.71,-434.833"/>
<polygon fill="midnightblue" stroke="midnightblue" points="591.253,-438.308 601.727,-436.711 592.543,-431.428 591.253,-438.308"/>
</g>
<!-- Node46 -->
<g id="node105" class="node"><title>Node46</title>
<a xlink:href="class_power_state_graph.html#a84bbbefd53f67b2945ac17eb11e28fdf" target="_top" xlink:title="Decides whether or not to reject this spike based on the before and after statistics.">
<polygon fill="white" stroke="red" points="607.5,-396.5 607.5,-417.5 756.5,-417.5 756.5,-396.5 607.5,-396.5"/>
<text text-anchor="middle" x="682" y="-404.5" font-family="Helvetica,sans-Serif" font-size="10.00">PowerStateGraph::rejectSpike</text>
</a>
</g>
<!-- Node39&#45;&gt;Node46 -->
<g id="edge118" class="edge"><title>Node39&#45;&gt;Node46</title>
<path fill="none" stroke="midnightblue" d="M472.587,-376.429C510.59,-381.977 559.025,-389.047 599.739,-394.991"/>
<polygon fill="midnightblue" stroke="midnightblue" points="599.242,-398.456 609.643,-396.437 600.253,-391.529 599.242,-398.456"/>
</g>
<!-- Node47 -->
<g id="node107" class="node"><title>Node47</title>
<a xlink:href="struct_statistic.html#acabbdf2b6cc229a10a8d3d6658a0c366" target="_top" xlink:title="Update an existing Statistic with new data points.">
<polygon fill="white" stroke="black" points="638,-356.5 638,-377.5 726,-377.5 726,-356.5 638,-356.5"/>
<text text-anchor="middle" x="682" y="-364.5" font-family="Helvetica,sans-Serif" font-size="10.00">Statistic::update</text>
</a>
</g>
<!-- Node39&#45;&gt;Node47 -->
<g id="edge120" class="edge"><title>Node39&#45;&gt;Node47</title>
<path fill="none" stroke="midnightblue" d="M472.587,-367C519.851,-367 583.251,-367 627.868,-367"/>
<polygon fill="midnightblue" stroke="midnightblue" points="627.936,-370.5 637.936,-367 627.936,-363.5 627.936,-370.5"/>
</g>
<!-- Node48 -->
<g id="node109" class="node"><title>Node48</title>
<a xlink:href="class_power_state_graph.html#a0e3e05ae1b952132621425c042d84ec1" target="_top" xlink:title="Update or Insert a new edge into powerStateGraph.">
<polygon fill="white" stroke="red" points="588.5,-516.5 588.5,-537.5 775.5,-537.5 775.5,-516.5 588.5,-516.5"/>
<text text-anchor="middle" x="682" y="-524.5" font-family="Helvetica,sans-Serif" font-size="10.00">PowerStateGraph::updateOrInsertEdge</text>
</a>
</g>
<!-- Node39&#45;&gt;Node48 -->
<g id="edge122" class="edge"><title>Node39&#45;&gt;Node48</title>
<path fill="none" stroke="midnightblue" d="M425.669,-377.648C449.404,-392.514 492.059,-421.26 522,-453 541.793,-473.982 533.737,-491.402 558,-507 564.513,-511.187 571.605,-514.597 578.99,-517.366"/>
<polygon fill="midnightblue" stroke="midnightblue" points="577.885,-520.687 588.479,-520.54 580.105,-514.048 577.885,-520.687"/>
</g>
<!-- Node49 -->
<g id="node113" class="node"><title>Node49</title>
<a xlink:href="class_power_state_graph.html#ac36cccb3fb0281f9b68e39ba28737770" target="_top" xlink:title="Attempts to find an existing vertex which is statistically similar to stat. If an existing similar ve...">
<polygon fill="white" stroke="red" points="585.5,-278.5 585.5,-299.5 778.5,-299.5 778.5,-278.5 585.5,-278.5"/>
<text text-anchor="middle" x="682" y="-286.5" font-family="Helvetica,sans-Serif" font-size="10.00">PowerStateGraph::updateOrInsertVertex</text>
</a>
</g>
<!-- Node39&#45;&gt;Node49 -->
<g id="edge128" class="edge"><title>Node39&#45;&gt;Node49</title>
<path fill="none" stroke="midnightblue" d="M472.729,-362.15C489.381,-359.178 506.859,-354.46 522,-347 541.47,-337.407 538.653,-323.839 558,-314 567.442,-309.198 577.728,-305.319 588.205,-302.184"/>
<polygon fill="midnightblue" stroke="midnightblue" points="589.158,-305.552 597.861,-299.51 587.29,-298.806 589.158,-305.552"/>
</g>
<!-- Node44&#45;&gt;Node28 -->
<g id="edge114" class="edge"><title>Node44&#45;&gt;Node28</title>
<path fill="none" stroke="midnightblue" d="M771.735,-483.371C784.073,-479.884 795.94,-474.665 806,-467 892.507,-401.088 921.902,-262.518 930.184,-209.885"/>
<polygon fill="midnightblue" stroke="midnightblue" points="933.682,-210.153 931.681,-199.749 926.757,-209.131 933.682,-210.153"/>
</g>
<!-- Node48&#45;&gt;Node18 -->
<g id="edge126" class="edge"><title>Node48&#45;&gt;Node18</title>
<path fill="none" stroke="midnightblue" d="M742.789,-537.528C811.851,-550.254 927.492,-573.892 1024,-605 1050.89,-613.669 1080.51,-625.815 1102.39,-635.303"/>
<polygon fill="midnightblue" stroke="midnightblue" points="1100.99,-638.512 1111.55,-639.321 1103.8,-632.101 1100.99,-638.512"/>
</g>
<!-- Node48&#45;&gt;Node24 -->
<g id="edge124" class="edge"><title>Node48&#45;&gt;Node24</title>
<path fill="none" stroke="midnightblue" d="M754.579,-537.555C771.741,-541.161 789.765,-545.883 806,-552 844.576,-566.534 885.217,-591.93 909.843,-608.605"/>
<polygon fill="midnightblue" stroke="midnightblue" points="907.933,-611.54 918.157,-614.318 911.897,-605.77 907.933,-611.54"/>
</g>
</g>
</svg>
