<?xml version="1.0" encoding="UTF-8" standalone="no"?>
<!DOCTYPE svg PUBLIC "-//W3C//DTD SVG 1.1//EN"
 "http://www.w3.org/Graphics/SVG/1.1/DTD/svg11.dtd">
<!-- Generated by graphviz version 2.26.3 (20100126.1600)
 -->
<!-- Title: G Pages: 1 -->
<svg width="312pt" height="30pt"
 viewBox="0.00 0.00 312.00 30.00" xmlns="http://www.w3.org/2000/svg" xmlns:xlink="http://www.w3.org/1999/xlink">
<g id="graph1" class="graph" transform="scale(1 1) rotate(0) translate(4 26)">
<title>G</title>
<polygon fill="white" stroke="white" points="-4,5 -4,-26 309,-26 309,5 -4,5"/>
<!-- Node1 -->
<g id="node1" class="node"><title>Node1</title>
<polygon fill="#bfbfbf" stroke="black" points="0,-0.5 0,-21.5 68,-21.5 68,-0.5 0,-0.5"/>
<text text-anchor="middle" x="34" y="-8.5" font-family="Helvetica,sans-Serif" font-size="10.00">printVersion</text>
</g>
<!-- Node2 -->
<g id="node3" class="node"><title>Node2</title>
<a xlink:href="_main_8cpp.html#aae7210087afa6b37666d72185a4ba7b3" target="_top" xlink:title="declareAndParseOptions">
<polygon fill="white" stroke="black" points="104.5,-0.5 104.5,-21.5 229.5,-21.5 229.5,-0.5 104.5,-0.5"/>
<text text-anchor="middle" x="167" y="-8.5" font-family="Helvetica,sans-Serif" font-size="10.00">declareAndParseOptions</text>
</a>
</g>
<!-- Node1&#45;&gt;Node2 -->
<g id="edge2" class="edge"><title>Node1&#45;&gt;Node2</title>
<path fill="none" stroke="midnightblue" d="M78.4926,-11C86.8345,-11 95.6971,-11 104.467,-11"/>
<polygon fill="midnightblue" stroke="midnightblue" points="78.2508,-7.5001 68.2508,-11 78.2508,-14.5001 78.2508,-7.5001"/>
</g>
<!-- Node3 -->
<g id="node5" class="node"><title>Node3</title>
<a xlink:href="_main_8cpp.html#a0ddf1224851353fc92bfbff6f499fa97" target="_top" xlink:title="main">
<polygon fill="white" stroke="black" points="266,-0.5 266,-21.5 304,-21.5 304,-0.5 266,-0.5"/>
<text text-anchor="middle" x="285" y="-8.5" font-family="Helvetica,sans-Serif" font-size="10.00">main</text>
</a>
</g>
<!-- Node2&#45;&gt;Node3 -->
<g id="edge4" class="edge"><title>Node2&#45;&gt;Node3</title>
<path fill="none" stroke="midnightblue" d="M239.837,-11C249.336,-11 258.327,-11 265.749,-11"/>
<polygon fill="midnightblue" stroke="midnightblue" points="239.8,-7.5001 229.8,-11 239.8,-14.5001 239.8,-7.5001"/>
</g>
</g>
</svg>
