<?xml version="1.0" encoding="UTF-8" standalone="no"?>
<!DOCTYPE svg PUBLIC "-//W3C//DTD SVG 1.1//EN"
 "http://www.w3.org/Graphics/SVG/1.1/DTD/svg11.dtd">
<!-- Generated by graphviz version 2.26.3 (20100126.1600)
 -->
<!-- Title: G Pages: 1 -->
<svg width="238pt" height="70pt"
 viewBox="0.00 0.00 238.00 70.00" xmlns="http://www.w3.org/2000/svg" xmlns:xlink="http://www.w3.org/1999/xlink">
<g id="graph1" class="graph" transform="scale(1 1) rotate(0) translate(4 66)">
<title>G</title>
<polygon fill="white" stroke="white" points="-4,5 -4,-66 235,-66 235,5 -4,5"/>
<!-- Node1 -->
<g id="node1" class="node"><title>Node1</title>
<polygon fill="#bfbfbf" stroke="black" points="0.5,-20.5 0.5,-41.5 125.5,-41.5 125.5,-20.5 0.5,-20.5"/>
<text text-anchor="middle" x="63" y="-28.5" font-family="Helvetica,sans-Serif" font-size="10.00">declareAndParseOptions</text>
</g>
<!-- Node2 -->
<g id="node3" class="node"><title>Node2</title>
<a xlink:href="_main_8cpp.html#a68dfdf58811df04ddcd52f1f9f7816f1" target="_top" xlink:title="printHelp">
<polygon fill="white" stroke="black" points="168,-40.5 168,-61.5 224,-61.5 224,-40.5 168,-40.5"/>
<text text-anchor="middle" x="196" y="-48.5" font-family="Helvetica,sans-Serif" font-size="10.00">printHelp</text>
</a>
</g>
<!-- Node1&#45;&gt;Node2 -->
<g id="edge2" class="edge"><title>Node1&#45;&gt;Node2</title>
<path fill="none" stroke="midnightblue" d="M125.605,-40.4144C136.607,-42.0687 147.75,-43.7444 157.827,-45.2597"/>
<polygon fill="midnightblue" stroke="midnightblue" points="157.481,-48.747 167.891,-46.773 158.522,-41.8248 157.481,-48.747"/>
</g>
<!-- Node3 -->
<g id="node5" class="node"><title>Node3</title>
<a xlink:href="_main_8cpp.html#a9c4b081f1e1ad60def15811c71a936f2" target="_top" xlink:title="printVersion">
<polygon fill="white" stroke="black" points="162,-0.5 162,-21.5 230,-21.5 230,-0.5 162,-0.5"/>
<text text-anchor="middle" x="196" y="-8.5" font-family="Helvetica,sans-Serif" font-size="10.00">printVersion</text>
</a>
</g>
<!-- Node1&#45;&gt;Node3 -->
<g id="edge4" class="edge"><title>Node1&#45;&gt;Node3</title>
<path fill="none" stroke="midnightblue" d="M125.605,-21.5856C134.515,-20.2459 143.518,-18.8921 151.971,-17.6208"/>
<polygon fill="midnightblue" stroke="midnightblue" points="152.599,-21.0658 161.968,-16.1176 151.558,-14.1437 152.599,-21.0658"/>
</g>
</g>
</svg>
