<?xml version="1.0" encoding="UTF-8" standalone="no"?>
<!DOCTYPE svg PUBLIC "-//W3C//DTD SVG 1.1//EN"
 "http://www.w3.org/Graphics/SVG/1.1/DTD/svg11.dtd">
<!-- Generated by graphviz version 2.26.3 (20100126.1600)
 -->
<!-- Title: G Pages: 1 -->
<svg width="1248pt" height="262pt"
 viewBox="0.00 0.00 1248.00 262.00" xmlns="http://www.w3.org/2000/svg" xmlns:xlink="http://www.w3.org/1999/xlink">
<g id="graph1" class="graph" transform="scale(1 1) rotate(0) translate(4 258)">
<title>G</title>
<polygon fill="white" stroke="white" points="-4,5 -4,-258 1245,-258 1245,5 -4,5"/>
<!-- Node1 -->
<g id="node1" class="node"><title>Node1</title>
<polygon fill="#bfbfbf" stroke="black" points="272.5,-232.5 272.5,-253.5 701.5,-253.5 701.5,-232.5 272.5,-232.5"/>
<text text-anchor="middle" x="487" y="-240.5" font-family="Helvetica,sans-Serif" font-size="10.00">/mnt/sshfs/imperialroot/homes/dk3810/workingcopies/disaggregate/src/PowerStateSequence.h</text>
</g>
<!-- Node2 -->
<g id="node3" class="node"><title>Node2</title>
<a xlink:href="_signature_8h.html" target="_top" xlink:title="/mnt/sshfs/imperialroot/homes/dk3810/workingcopies/disaggregate/src/Signature.h">
<polygon fill="white" stroke="black" points="299,-174.5 299,-195.5 675,-195.5 675,-174.5 299,-174.5"/>
<text text-anchor="middle" x="487" y="-182.5" font-family="Helvetica,sans-Serif" font-size="10.00">/mnt/sshfs/imperialroot/homes/dk3810/workingcopies/disaggregate/src/Signature.h</text>
</a>
</g>
<!-- Node1&#45;&gt;Node2 -->
<g id="edge2" class="edge"><title>Node1&#45;&gt;Node2</title>
<path fill="none" stroke="midnightblue" d="M487,-222.191C487,-213.168 487,-202.994 487,-195.571"/>
<polygon fill="midnightblue" stroke="midnightblue" points="483.5,-222.362 487,-232.362 490.5,-222.362 483.5,-222.362"/>
</g>
<!-- Node3 -->
<g id="node5" class="node"><title>Node3</title>
<a xlink:href="_device_8h.html" target="_top" xlink:title="/mnt/sshfs/imperialroot/homes/dk3810/workingcopies/disaggregate/src/Device.h">
<polygon fill="white" stroke="black" points="199.5,-58.5 199.5,-79.5 564.5,-79.5 564.5,-58.5 199.5,-58.5"/>
<text text-anchor="middle" x="382" y="-66.5" font-family="Helvetica,sans-Serif" font-size="10.00">/mnt/sshfs/imperialroot/homes/dk3810/workingcopies/disaggregate/src/Device.h</text>
</a>
</g>
<!-- Node1&#45;&gt;Node3 -->
<g id="edge26" class="edge"><title>Node1&#45;&gt;Node3</title>
<path fill="none" stroke="midnightblue" d="M387.227,-230.778C345.07,-223.37 302.758,-212.16 290,-196 256.849,-154.01 328.794,-101.656 364.028,-79.5876"/>
<polygon fill="midnightblue" stroke="midnightblue" points="386.905,-234.273 397.348,-232.487 388.07,-227.371 386.905,-234.273"/>
</g>
<!-- Node9 -->
<g id="node23" class="node"><title>Node9</title>
<a xlink:href="_power_state_sequence_8cpp.html" target="_top" xlink:title="/mnt/sshfs/imperialroot/homes/dk3810/workingcopies/disaggregate/src/PowerStateSequence.cpp">
<polygon fill="white" stroke="black" points="693,-174.5 693,-195.5 1133,-195.5 1133,-174.5 693,-174.5"/>
<text text-anchor="middle" x="913" y="-182.5" font-family="Helvetica,sans-Serif" font-size="10.00">/mnt/sshfs/imperialroot/homes/dk3810/workingcopies/disaggregate/src/PowerStateSequence.cpp</text>
</a>
</g>
<!-- Node1&#45;&gt;Node9 -->
<g id="edge28" class="edge"><title>Node1&#45;&gt;Node9</title>
<path fill="none" stroke="midnightblue" d="M574.285,-231.116C651.141,-220.652 762.003,-205.558 835.71,-195.523"/>
<polygon fill="midnightblue" stroke="midnightblue" points="573.582,-227.679 564.145,-232.497 574.526,-234.616 573.582,-227.679"/>
</g>
<!-- Node2&#45;&gt;Node3 -->
<g id="edge4" class="edge"><title>Node2&#45;&gt;Node3</title>
<path fill="none" stroke="midnightblue" d="M433.135,-170.639C416.415,-163.524 399.608,-153.102 389,-138 376.819,-120.659 378.078,-94.5486 380.055,-79.9231"/>
<polygon fill="midnightblue" stroke="midnightblue" points="432.334,-174.084 442.923,-174.456 434.878,-167.562 432.334,-174.084"/>
</g>
<!-- Node4 -->
<g id="node7" class="node"><title>Node4</title>
<a xlink:href="_device_8cpp.html" target="_top" xlink:title="/mnt/sshfs/imperialroot/homes/dk3810/workingcopies/disaggregate/src/Device.cpp">
<polygon fill="white" stroke="black" points="0,-0.5 0,-21.5 376,-21.5 376,-0.5 0,-0.5"/>
<text text-anchor="middle" x="188" y="-8.5" font-family="Helvetica,sans-Serif" font-size="10.00">/mnt/sshfs/imperialroot/homes/dk3810/workingcopies/disaggregate/src/Device.cpp</text>
</a>
</g>
<!-- Node2&#45;&gt;Node4 -->
<g id="edge20" class="edge"><title>Node2&#45;&gt;Node4</title>
<path fill="none" stroke="midnightblue" d="M427.464,-172.127C349.577,-153.971 219.62,-118.707 191,-80 178.311,-62.8386 181.817,-36.1836 185.132,-21.5338"/>
<polygon fill="midnightblue" stroke="midnightblue" points="427.096,-175.634 437.626,-174.468 428.667,-168.813 427.096,-175.634"/>
</g>
<!-- Node5 -->
<g id="node9" class="node"><title>Node5</title>
<a xlink:href="_main_8cpp.html" target="_top" xlink:title="/mnt/sshfs/imperialroot/homes/dk3810/workingcopies/disaggregate/src/Main.cpp">
<polygon fill="white" stroke="black" points="409,-0.5 409,-21.5 775,-21.5 775,-0.5 409,-0.5"/>
<text text-anchor="middle" x="592" y="-8.5" font-family="Helvetica,sans-Serif" font-size="10.00">/mnt/sshfs/imperialroot/homes/dk3810/workingcopies/disaggregate/src/Main.cpp</text>
</a>
</g>
<!-- Node2&#45;&gt;Node5 -->
<g id="edge22" class="edge"><title>Node2&#45;&gt;Node5</title>
<path fill="none" stroke="midnightblue" d="M589.461,-173.275C744.266,-154.489 1022.83,-116.08 1051,-80 1057.02,-72.2931 1057.55,-65.2575 1051,-58 1032.08,-37.0414 894.757,-24.912 775.202,-18.244"/>
<polygon fill="midnightblue" stroke="midnightblue" points="588.956,-169.811 579.448,-174.484 589.795,-176.76 588.956,-169.811"/>
</g>
<!-- Node6 -->
<g id="node11" class="node"><title>Node6</title>
<a xlink:href="_signature_8cpp.html" target="_top" xlink:title="/mnt/sshfs/imperialroot/homes/dk3810/workingcopies/disaggregate/src/Signature.cpp">
<polygon fill="white" stroke="black" points="854,-0.5 854,-21.5 1240,-21.5 1240,-0.5 854,-0.5"/>
<text text-anchor="middle" x="1047" y="-8.5" font-family="Helvetica,sans-Serif" font-size="10.00">/mnt/sshfs/imperialroot/homes/dk3810/workingcopies/disaggregate/src/Signature.cpp</text>
</a>
</g>
<!-- Node2&#45;&gt;Node6 -->
<g id="edge24" class="edge"><title>Node2&#45;&gt;Node6</title>
<path fill="none" stroke="midnightblue" d="M682.982,-173.546C755.603,-166.636 838.207,-155.598 912,-138 983.548,-120.938 1025.08,-140.441 1067,-80 1079.51,-61.9622 1065.37,-36.1131 1055.3,-21.7189"/>
<polygon fill="midnightblue" stroke="midnightblue" points="682.436,-170.082 672.803,-174.494 683.085,-177.052 682.436,-170.082"/>
</g>
<!-- Node7 -->
<g id="node13" class="node"><title>Node7</title>
<a xlink:href="_power_state_graph_8h.html" target="_top" xlink:title="/mnt/sshfs/imperialroot/homes/dk3810/workingcopies/disaggregate/src/PowerStateGraph.h">
<polygon fill="white" stroke="black" points="398,-116.5 398,-137.5 810,-137.5 810,-116.5 398,-116.5"/>
<text text-anchor="middle" x="604" y="-124.5" font-family="Helvetica,sans-Serif" font-size="10.00">/mnt/sshfs/imperialroot/homes/dk3810/workingcopies/disaggregate/src/PowerStateGraph.h</text>
</a>
</g>
<!-- Node2&#45;&gt;Node7 -->
<g id="edge12" class="edge"><title>Node2&#45;&gt;Node7</title>
<path fill="none" stroke="midnightblue" d="M517.396,-169.932C537.848,-159.793 564.311,-146.675 582.574,-137.621"/>
<polygon fill="midnightblue" stroke="midnightblue" points="515.593,-166.919 508.188,-174.497 518.702,-173.191 515.593,-166.919"/>
</g>
<!-- Node3&#45;&gt;Node4 -->
<g id="edge6" class="edge"><title>Node3&#45;&gt;Node4</title>
<path fill="none" stroke="midnightblue" d="M337,-55.5464C302.345,-45.1857 255.12,-31.0668 223.198,-21.5231"/>
<polygon fill="midnightblue" stroke="midnightblue" points="336.285,-58.9855 346.868,-58.4966 338.29,-52.2788 336.285,-58.9855"/>
</g>
<!-- Node3&#45;&gt;Node5 -->
<g id="edge8" class="edge"><title>Node3&#45;&gt;Node5</title>
<path fill="none" stroke="midnightblue" d="M429.749,-55.8123C467.345,-45.4285 519.048,-31.1487 553.899,-21.5231"/>
<polygon fill="midnightblue" stroke="midnightblue" points="428.737,-52.4606 420.029,-58.4966 430.6,-59.208 428.737,-52.4606"/>
</g>
<!-- Node3&#45;&gt;Node6 -->
<g id="edge10" class="edge"><title>Node3&#45;&gt;Node6</title>
<path fill="none" stroke="midnightblue" d="M512.422,-57.6249C632.563,-47.1464 809.41,-31.7222 926.348,-21.5231"/>
<polygon fill="midnightblue" stroke="midnightblue" points="512.085,-54.1409 502.426,-58.4966 512.693,-61.1144 512.085,-54.1409"/>
</g>
<!-- Node7&#45;&gt;Node3 -->
<g id="edge14" class="edge"><title>Node7&#45;&gt;Node3</title>
<path fill="none" stroke="midnightblue" d="M554.03,-113.945C514.243,-103.55 459.278,-89.1897 422.278,-79.5231"/>
<polygon fill="midnightblue" stroke="midnightblue" points="553.237,-117.355 563.797,-116.497 555.007,-110.582 553.237,-117.355"/>
</g>
<!-- Node7&#45;&gt;Node5 -->
<g id="edge16" class="edge"><title>Node7&#45;&gt;Node5</title>
<path fill="none" stroke="midnightblue" d="M601.84,-106.123C599.272,-81.2984 595.085,-40.8235 593.105,-21.6792"/>
<polygon fill="midnightblue" stroke="midnightblue" points="598.382,-106.708 602.893,-116.295 605.345,-105.988 598.382,-106.708"/>
</g>
<!-- Node8 -->
<g id="node17" class="node"><title>Node8</title>
<a xlink:href="_power_state_graph_8cpp.html" target="_top" xlink:title="/mnt/sshfs/imperialroot/homes/dk3810/workingcopies/disaggregate/src/PowerStateGraph.cpp">
<polygon fill="white" stroke="black" points="620,-58.5 620,-79.5 1042,-79.5 1042,-58.5 620,-58.5"/>
<text text-anchor="middle" x="831" y="-66.5" font-family="Helvetica,sans-Serif" font-size="10.00">/mnt/sshfs/imperialroot/homes/dk3810/workingcopies/disaggregate/src/PowerStateGraph.cpp</text>
</a>
</g>
<!-- Node7&#45;&gt;Node8 -->
<g id="edge18" class="edge"><title>Node7&#45;&gt;Node8</title>
<path fill="none" stroke="midnightblue" d="M654.838,-114.011C695.54,-103.611 751.902,-89.2102 789.815,-79.5231"/>
<polygon fill="midnightblue" stroke="midnightblue" points="653.93,-110.63 645.108,-116.497 655.663,-117.412 653.93,-110.63"/>
</g>
</g>
</svg>
