<?xml version="1.0" encoding="UTF-8" standalone="no"?>
<!DOCTYPE svg PUBLIC "-//W3C//DTD SVG 1.1//EN"
 "http://www.w3.org/Graphics/SVG/1.1/DTD/svg11.dtd">
<!-- Generated by graphviz version 2.26.3 (20100126.1600)
 -->
<!-- Title: G Pages: 1 -->
<svg width="1510pt" height="552pt"
 viewBox="0.00 0.00 1510.00 552.00" xmlns="http://www.w3.org/2000/svg" xmlns:xlink="http://www.w3.org/1999/xlink">
<g id="graph1" class="graph" transform="scale(1 1) rotate(0) translate(4 548)">
<title>G</title>
<polygon fill="white" stroke="white" points="-4,5 -4,-548 1507,-548 1507,5 -4,5"/>
<!-- Node1 -->
<g id="node1" class="node"><title>Node1</title>
<polygon fill="#bfbfbf" stroke="black" points="1039,-522.5 1039,-543.5 1461,-543.5 1461,-522.5 1039,-522.5"/>
<text text-anchor="middle" x="1250" y="-530.5" font-family="Helvetica,sans-Serif" font-size="10.00">/mnt/sshfs/imperialroot/homes/dk3810/workingcopies/disaggregate/src/PowerStateGraph.cpp</text>
</g>
<!-- Node2 -->
<g id="node3" class="node"><title>Node2</title>
<a xlink:href="_power_state_graph_8h.html" target="_top" xlink:title="PowerStateGraph.h">
<polygon fill="white" stroke="black" points="423,-464.5 423,-485.5 525,-485.5 525,-464.5 423,-464.5"/>
<text text-anchor="middle" x="474" y="-472.5" font-family="Helvetica,sans-Serif" font-size="10.00">PowerStateGraph.h</text>
</a>
</g>
<!-- Node1&#45;&gt;Node2 -->
<g id="edge2" class="edge"><title>Node1&#45;&gt;Node2</title>
<path fill="none" stroke="midnightblue" d="M1109.47,-522.497C938.695,-509.732 658.14,-488.763 535.079,-479.565"/>
<polygon fill="midnightblue" stroke="midnightblue" points="535.313,-476.073 525.08,-478.818 534.791,-483.054 535.313,-476.073"/>
</g>
<!-- Node5 -->
<g id="node9" class="node"><title>Node5</title>
<polygon fill="white" stroke="#bfbfbf" points="137.5,-0.5 137.5,-21.5 166.5,-21.5 166.5,-0.5 137.5,-0.5"/>
<text text-anchor="middle" x="152" y="-8.5" font-family="Helvetica,sans-Serif" font-size="10.00">list</text>
</g>
<!-- Node1&#45;&gt;Node5 -->
<g id="edge112" class="edge"><title>Node1&#45;&gt;Node5</title>
<path fill="none" stroke="midnightblue" d="M1038.64,-527.093C869.331,-520.924 625.92,-508.827 414,-486 228.535,-466.023 0,-603.538 0,-417 0,-417 0,-417 0,-127 0,-63.5192 84.8177,-30.1496 127.735,-17.328"/>
<polygon fill="midnightblue" stroke="midnightblue" points="128.766,-20.6738 137.426,-14.5702 126.849,-13.9412 128.766,-20.6738"/>
</g>
<!-- Node12 -->
<g id="node23" class="node"><title>Node12</title>
<polygon fill="white" stroke="#bfbfbf" points="1090,-116.5 1090,-137.5 1144,-137.5 1144,-116.5 1090,-116.5"/>
<text text-anchor="middle" x="1117" y="-124.5" font-family="Helvetica,sans-Serif" font-size="10.00">iostream</text>
</g>
<!-- Node1&#45;&gt;Node12 -->
<g id="edge110" class="edge"><title>Node1&#45;&gt;Node12</title>
<path fill="none" stroke="midnightblue" d="M1256.11,-522.191C1266.85,-502.127 1288,-457.477 1288,-417 1288,-417 1288,-417 1288,-359 1288,-261.258 1188.44,-177.598 1141.25,-143.441"/>
<polygon fill="midnightblue" stroke="midnightblue" points="1143.27,-140.579 1133.09,-137.646 1139.22,-146.288 1143.27,-140.579"/>
</g>
<!-- Node26 -->
<g id="node74" class="node"><title>Node26</title>
<a xlink:href="_aggregate_data_8h.html" target="_top" xlink:title="AggregateData.h">
<polygon fill="white" stroke="black" points="1129,-348.5 1129,-369.5 1219,-369.5 1219,-348.5 1129,-348.5"/>
<text text-anchor="middle" x="1174" y="-356.5" font-family="Helvetica,sans-Serif" font-size="10.00">AggregateData.h</text>
</a>
</g>
<!-- Node1&#45;&gt;Node26 -->
<g id="edge108" class="edge"><title>Node1&#45;&gt;Node26</title>
<path fill="none" stroke="midnightblue" d="M1245.36,-522.377C1232.99,-494.051 1199.05,-416.349 1182.84,-379.242"/>
<polygon fill="midnightblue" stroke="midnightblue" points="1185.98,-377.691 1178.77,-369.928 1179.57,-380.493 1185.98,-377.691"/>
</g>
<!-- Node27 -->
<g id="node84" class="node"><title>Node27</title>
<polygon fill="white" stroke="#bfbfbf" points="1316,-464.5 1316,-485.5 1442,-485.5 1442,-464.5 1316,-464.5"/>
<text text-anchor="middle" x="1379" y="-472.5" font-family="Helvetica,sans-Serif" font-size="10.00">boost/graph/graphviz.hpp</text>
</g>
<!-- Node1&#45;&gt;Node27 -->
<g id="edge114" class="edge"><title>Node1&#45;&gt;Node27</title>
<path fill="none" stroke="midnightblue" d="M1273.36,-522.497C1293.69,-513.356 1323.38,-500.008 1346.11,-489.788"/>
<polygon fill="midnightblue" stroke="midnightblue" points="1347.69,-492.914 1355.38,-485.621 1344.82,-486.53 1347.69,-492.914"/>
</g>
<!-- Node28 -->
<g id="node86" class="node"><title>Node28</title>
<polygon fill="white" stroke="#bfbfbf" points="1459.5,-464.5 1459.5,-485.5 1502.5,-485.5 1502.5,-464.5 1459.5,-464.5"/>
<text text-anchor="middle" x="1481" y="-472.5" font-family="Helvetica,sans-Serif" font-size="10.00">cstdio</text>
</g>
<!-- Node1&#45;&gt;Node28 -->
<g id="edge116" class="edge"><title>Node1&#45;&gt;Node28</title>
<path fill="none" stroke="midnightblue" d="M1302.94,-522.462C1341.43,-514.384 1394.91,-502.302 1449.61,-486.193"/>
<polygon fill="midnightblue" stroke="midnightblue" points="1450.89,-489.463 1459.48,-483.248 1448.89,-482.756 1450.89,-489.463"/>
</g>
<!-- Node3 -->
<g id="node5" class="node"><title>Node3</title>
<polygon fill="white" stroke="#bfbfbf" points="116,-406.5 116,-427.5 268,-427.5 268,-406.5 116,-406.5"/>
<text text-anchor="middle" x="192" y="-414.5" font-family="Helvetica,sans-Serif" font-size="10.00">boost/graph/adjacency_list.hpp</text>
</g>
<!-- Node2&#45;&gt;Node3 -->
<g id="edge4" class="edge"><title>Node2&#45;&gt;Node3</title>
<path fill="none" stroke="midnightblue" d="M422.932,-464.497C375.167,-454.673 303.771,-439.988 253.025,-429.551"/>
<polygon fill="midnightblue" stroke="midnightblue" points="253.664,-426.109 243.164,-427.523 252.254,-432.966 253.664,-426.109"/>
</g>
<!-- Node4 -->
<g id="node7" class="node"><title>Node4</title>
<polygon fill="white" stroke="#bfbfbf" points="286,-406.5 286,-427.5 330,-427.5 330,-406.5 286,-406.5"/>
<text text-anchor="middle" x="308" y="-414.5" font-family="Helvetica,sans-Serif" font-size="10.00">vector</text>
</g>
<!-- Node2&#45;&gt;Node4 -->
<g id="edge6" class="edge"><title>Node2&#45;&gt;Node4</title>
<path fill="none" stroke="midnightblue" d="M443.421,-464.412C418.025,-455.606 380.708,-442.637 339.665,-428.222"/>
<polygon fill="midnightblue" stroke="midnightblue" points="340.605,-424.842 330.01,-424.828 338.283,-431.446 340.605,-424.842"/>
</g>
<!-- Node2&#45;&gt;Node5 -->
<g id="edge8" class="edge"><title>Node2&#45;&gt;Node5</title>
<path fill="none" stroke="midnightblue" d="M422.832,-474.214C329.852,-471.925 137.635,-462.976 82,-428 51.2081,-408.642 38,-395.371 38,-359 38,-359 38,-359 38,-127 38,-76.1152 94.492,-39.3879 127.941,-22.1014"/>
<polygon fill="midnightblue" stroke="midnightblue" points="129.696,-25.1377 137.096,-17.5556 126.583,-18.868 129.696,-25.1377"/>
</g>
<!-- Node6 -->
<g id="node11" class="node"><title>Node6</title>
<polygon fill="white" stroke="#bfbfbf" points="594,-406.5 594,-427.5 646,-427.5 646,-406.5 594,-406.5"/>
<text text-anchor="middle" x="620" y="-414.5" font-family="Helvetica,sans-Serif" font-size="10.00">ostream</text>
</g>
<!-- Node2&#45;&gt;Node6 -->
<g id="edge10" class="edge"><title>Node2&#45;&gt;Node6</title>
<path fill="none" stroke="midnightblue" d="M500.439,-464.497C523.902,-455.176 558.378,-441.48 584.287,-431.187"/>
<polygon fill="midnightblue" stroke="midnightblue" points="585.756,-434.37 593.757,-427.425 583.171,-427.864 585.756,-434.37"/>
</g>
<!-- Node7 -->
<g id="node13" class="node"><title>Node7</title>
<polygon fill="white" stroke="#bfbfbf" points="702,-406.5 702,-427.5 746,-427.5 746,-406.5 702,-406.5"/>
<text text-anchor="middle" x="724" y="-414.5" font-family="Helvetica,sans-Serif" font-size="10.00">time.h</text>
</g>
<!-- Node2&#45;&gt;Node7 -->
<g id="edge12" class="edge"><title>Node2&#45;&gt;Node7</title>
<path fill="none" stroke="midnightblue" d="M525.298,-464.94C568.823,-456.118 632.807,-442.468 688,-428 689.422,-427.627 690.873,-427.235 692.335,-426.829"/>
<polygon fill="midnightblue" stroke="midnightblue" points="693.365,-430.175 701.995,-424.03 691.416,-423.452 693.365,-430.175"/>
</g>
<!-- Node8 -->
<g id="node15" class="node"><title>Node8</title>
<a xlink:href="_statistic_8h.html" target="_top" xlink:title="Statistic.h">
<polygon fill="white" stroke="black" points="540.5,-290.5 540.5,-311.5 601.5,-311.5 601.5,-290.5 540.5,-290.5"/>
<text text-anchor="middle" x="571" y="-298.5" font-family="Helvetica,sans-Serif" font-size="10.00">Statistic.h</text>
</a>
</g>
<!-- Node2&#45;&gt;Node8 -->
<g id="edge14" class="edge"><title>Node2&#45;&gt;Node8</title>
<path fill="none" stroke="midnightblue" d="M482.944,-464.291C497.89,-445.969 528.155,-406.994 547,-370 554.982,-354.33 561.358,-335.393 565.526,-321.325"/>
<polygon fill="midnightblue" stroke="midnightblue" points="568.909,-322.226 568.273,-311.65 562.175,-320.314 568.909,-322.226"/>
</g>
<!-- Node17 -->
<g id="node33" class="node"><title>Node17</title>
<a xlink:href="_common_8h.html" target="_top" xlink:title="Common.h">
<polygon fill="white" stroke="black" points="252.5,-58.5 252.5,-79.5 317.5,-79.5 317.5,-58.5 252.5,-58.5"/>
<text text-anchor="middle" x="285" y="-66.5" font-family="Helvetica,sans-Serif" font-size="10.00">Common.h</text>
</a>
</g>
<!-- Node2&#45;&gt;Node17 -->
<g id="edge72" class="edge"><title>Node2&#45;&gt;Node17</title>
<path fill="none" stroke="midnightblue" d="M422.784,-471.215C327.848,-463.799 131.898,-446.459 107,-428 79.993,-407.978 76,-392.62 76,-359 76,-359 76,-359 76,-185 76,-109.68 181.056,-82.8527 242.201,-73.6176"/>
<polygon fill="midnightblue" stroke="midnightblue" points="242.931,-77.0493 252.344,-72.1854 241.953,-70.1181 242.931,-77.0493"/>
</g>
<!-- Node24 -->
<g id="node61" class="node"><title>Node24</title>
<a xlink:href="_signature_8h.html" target="_top" xlink:title="Signature.h">
<polygon fill="white" stroke="black" points="348,-406.5 348,-427.5 414,-427.5 414,-406.5 348,-406.5"/>
<text text-anchor="middle" x="381" y="-414.5" font-family="Helvetica,sans-Serif" font-size="10.00">Signature.h</text>
</a>
</g>
<!-- Node2&#45;&gt;Node24 -->
<g id="edge74" class="edge"><title>Node2&#45;&gt;Node24</title>
<path fill="none" stroke="midnightblue" d="M456.942,-464.362C442.915,-455.614 422.816,-443.079 406.818,-433.101"/>
<polygon fill="midnightblue" stroke="midnightblue" points="408.287,-429.893 397.949,-427.571 404.582,-435.832 408.287,-429.893"/>
</g>
<!-- Node2&#45;&gt;Node26 -->
<g id="edge96" class="edge"><title>Node2&#45;&gt;Node26</title>
<path fill="none" stroke="midnightblue" d="M525.122,-465.589C562.044,-457.872 612.651,-445.379 655,-428 673.054,-420.591 674.422,-411.974 693,-406 770.961,-380.932 1009.7,-366.766 1118.69,-361.452"/>
<polygon fill="midnightblue" stroke="midnightblue" points="1119,-364.941 1128.82,-360.965 1118.67,-357.949 1119,-364.941"/>
</g>
<!-- Node9 -->
<g id="node17" class="node"><title>Node9</title>
<polygon fill="white" stroke="#bfbfbf" points="930.5,-0.5 930.5,-21.5 971.5,-21.5 971.5,-0.5 930.5,-0.5"/>
<text text-anchor="middle" x="951" y="-8.5" font-family="Helvetica,sans-Serif" font-size="10.00">string</text>
</g>
<!-- Node8&#45;&gt;Node9 -->
<g id="edge16" class="edge"><title>Node8&#45;&gt;Node9</title>
<path fill="none" stroke="midnightblue" d="M601.746,-299.918C700.851,-296.159 1007.43,-282.326 1041,-254 1065.31,-233.487 1060,-216.808 1060,-185 1060,-185 1060,-185 1060,-127 1060,-80.469 1012.85,-44.965 980.567,-26.1122"/>
<polygon fill="midnightblue" stroke="midnightblue" points="981.935,-22.8666 971.502,-21.0214 978.507,-28.9699 981.935,-22.8666"/>
</g>
<!-- Node10 -->
<g id="node19" class="node"><title>Node10</title>
<polygon fill="white" stroke="#bfbfbf" points="651.5,-116.5 651.5,-137.5 700.5,-137.5 700.5,-116.5 651.5,-116.5"/>
<text text-anchor="middle" x="676" y="-124.5" font-family="Helvetica,sans-Serif" font-size="10.00">cassert</text>
</g>
<!-- Node8&#45;&gt;Node10 -->
<g id="edge18" class="edge"><title>Node8&#45;&gt;Node10</title>
<path fill="none" stroke="midnightblue" d="M580.088,-290.151C587.69,-280.846 598.607,-266.933 607,-254 630.757,-217.394 654.08,-171.912 666.595,-146.508"/>
<polygon fill="midnightblue" stroke="midnightblue" points="669.74,-148.042 670.982,-137.52 663.45,-144.971 669.74,-148.042"/>
</g>
<!-- Node11 -->
<g id="node21" class="node"><title>Node11</title>
<polygon fill="white" stroke="#bfbfbf" points="554,-232.5 554,-253.5 598,-253.5 598,-232.5 554,-232.5"/>
<text text-anchor="middle" x="576" y="-240.5" font-family="Helvetica,sans-Serif" font-size="10.00">cmath</text>
</g>
<!-- Node8&#45;&gt;Node11 -->
<g id="edge20" class="edge"><title>Node8&#45;&gt;Node11</title>
<path fill="none" stroke="midnightblue" d="M571.917,-290.362C572.558,-282.922 573.436,-272.743 574.213,-263.728"/>
<polygon fill="midnightblue" stroke="midnightblue" points="577.717,-263.834 575.089,-253.571 570.743,-263.233 577.717,-263.834"/>
</g>
<!-- Node8&#45;&gt;Node12 -->
<g id="edge22" class="edge"><title>Node8&#45;&gt;Node12</title>
<path fill="none" stroke="midnightblue" d="M601.64,-300.055C705.064,-296.606 1036.88,-283.33 1074,-254 1106.57,-228.263 1114.63,-176.756 1116.52,-147.871"/>
<polygon fill="midnightblue" stroke="midnightblue" points="1120.03,-147.828 1116.99,-137.677 1113.03,-147.505 1120.03,-147.828"/>
</g>
<!-- Node13 -->
<g id="node25" class="node"><title>Node13</title>
<polygon fill="white" stroke="#bfbfbf" points="654,-232.5 654,-253.5 842,-253.5 842,-232.5 654,-232.5"/>
<text text-anchor="middle" x="748" y="-240.5" font-family="Helvetica,sans-Serif" font-size="10.00">boost/math/distributions/students_t.hpp</text>
</g>
<!-- Node8&#45;&gt;Node13 -->
<g id="edge24" class="edge"><title>Node8&#45;&gt;Node13</title>
<path fill="none" stroke="midnightblue" d="M601.831,-290.897C630.734,-281.426 674.172,-267.192 706.188,-256.701"/>
<polygon fill="midnightblue" stroke="midnightblue" points="707.316,-260.015 715.728,-253.575 705.136,-253.363 707.316,-260.015"/>
</g>
<!-- Node14 -->
<g id="node27" class="node"><title>Node14</title>
<polygon fill="white" stroke="#bfbfbf" points="860,-232.5 860,-253.5 1032,-253.5 1032,-232.5 860,-232.5"/>
<text text-anchor="middle" x="946" y="-240.5" font-family="Helvetica,sans-Serif" font-size="10.00">boost/math/distributions/normal.hpp</text>
</g>
<!-- Node8&#45;&gt;Node14 -->
<g id="edge26" class="edge"><title>Node8&#45;&gt;Node14</title>
<path fill="none" stroke="midnightblue" d="M601.688,-296.254C659.284,-287.345 785.2,-267.87 867.742,-255.104"/>
<polygon fill="midnightblue" stroke="midnightblue" points="868.488,-258.53 877.836,-253.543 867.418,-251.612 868.488,-258.53"/>
</g>
<!-- Node15 -->
<g id="node29" class="node"><title>Node15</title>
<polygon fill="white" stroke="#bfbfbf" points="496,-232.5 496,-253.5 536,-253.5 536,-232.5 496,-232.5"/>
<text text-anchor="middle" x="516" y="-240.5" font-family="Helvetica,sans-Serif" font-size="10.00">limits</text>
</g>
<!-- Node8&#45;&gt;Node15 -->
<g id="edge28" class="edge"><title>Node8&#45;&gt;Node15</title>
<path fill="none" stroke="midnightblue" d="M560.912,-290.362C553.159,-282.186 542.27,-270.702 533.155,-261.091"/>
<polygon fill="midnightblue" stroke="midnightblue" points="535.445,-258.419 526.024,-253.571 530.365,-263.235 535.445,-258.419"/>
</g>
<!-- Node16 -->
<g id="node31" class="node"><title>Node16</title>
<a xlink:href="_array_8h.html" target="_top" xlink:title="Array.h">
<polygon fill="white" stroke="black" points="410,-174.5 410,-195.5 458,-195.5 458,-174.5 410,-174.5"/>
<text text-anchor="middle" x="434" y="-182.5" font-family="Helvetica,sans-Serif" font-size="10.00">Array.h</text>
</a>
</g>
<!-- Node8&#45;&gt;Node16 -->
<g id="edge30" class="edge"><title>Node8&#45;&gt;Node16</title>
<path fill="none" stroke="midnightblue" d="M546.166,-290.398C528.495,-282.104 504.823,-269.412 487,-254 470.347,-239.6 455.476,-219.231 445.757,-204.357"/>
<polygon fill="midnightblue" stroke="midnightblue" points="448.711,-202.481 440.401,-195.909 442.799,-206.229 448.711,-202.481"/>
</g>
<!-- Node8&#45;&gt;Node17 -->
<g id="edge64" class="edge"><title>Node8&#45;&gt;Node17</title>
<path fill="none" stroke="midnightblue" d="M540.424,-290.572C518.087,-282.282 487.542,-269.519 463,-254 396.706,-212.081 381.467,-197.188 330,-138 316.733,-122.743 304.395,-103.294 296.007,-88.9356"/>
<polygon fill="midnightblue" stroke="midnightblue" points="298.861,-86.876 290.867,-79.923 292.781,-90.3436 298.861,-86.876"/>
</g>
<!-- Node23 -->
<g id="node56" class="node"><title>Node23</title>
<a xlink:href="_histogram_8h.html" target="_top" xlink:title="Histogram.h">
<polygon fill="white" stroke="black" points="256,-232.5 256,-253.5 326,-253.5 326,-232.5 256,-232.5"/>
<text text-anchor="middle" x="291" y="-240.5" font-family="Helvetica,sans-Serif" font-size="10.00">Histogram.h</text>
</a>
</g>
<!-- Node8&#45;&gt;Node23 -->
<g id="edge66" class="edge"><title>Node8&#45;&gt;Node23</title>
<path fill="none" stroke="midnightblue" d="M540.234,-294.627C490.782,-284.383 393.367,-264.205 336.066,-252.335"/>
<polygon fill="midnightblue" stroke="midnightblue" points="336.7,-248.892 326.198,-250.291 335.28,-255.747 336.7,-248.892"/>
</g>
<!-- Node16&#45;&gt;Node5 -->
<g id="edge62" class="edge"><title>Node16&#45;&gt;Node5</title>
<path fill="none" stroke="midnightblue" d="M409.897,-175.47C388.451,-166.673 356.474,-152.77 330,-138 269.44,-104.213 204.672,-53.9776 172.539,-27.9725"/>
<polygon fill="midnightblue" stroke="midnightblue" points="174.695,-25.2149 164.732,-21.6105 170.273,-30.6411 174.695,-25.2149"/>
</g>
<!-- Node16&#45;&gt;Node10 -->
<g id="edge60" class="edge"><title>Node16&#45;&gt;Node10</title>
<path fill="none" stroke="midnightblue" d="M458.016,-180.417C495.332,-173.122 569.644,-157.899 641.149,-138.346"/>
<polygon fill="midnightblue" stroke="midnightblue" points="642.513,-141.6 651.216,-135.558 640.645,-134.854 642.513,-141.6"/>
</g>
<!-- Node16&#45;&gt;Node12 -->
<g id="edge54" class="edge"><title>Node16&#45;&gt;Node12</title>
<path fill="none" stroke="midnightblue" d="M458.308,-182.936C560.484,-174.259 955.58,-140.708 1079.56,-130.179"/>
<polygon fill="midnightblue" stroke="midnightblue" points="1080.03,-133.652 1089.7,-129.319 1079.44,-126.677 1080.03,-133.652"/>
</g>
<!-- Node16&#45;&gt;Node17 -->
<g id="edge32" class="edge"><title>Node16&#45;&gt;Node17</title>
<path fill="none" stroke="midnightblue" d="M415.739,-174.398C400.623,-165.352 378.817,-151.674 361,-138 340.244,-122.071 318.3,-101.719 303.356,-87.2556"/>
<polygon fill="midnightblue" stroke="midnightblue" points="305.423,-84.3813 295.826,-79.8919 300.528,-89.386 305.423,-84.3813"/>
</g>
<!-- Node19 -->
<g id="node39" class="node"><title>Node19</title>
<a xlink:href="_utils_8h.html" target="_top" xlink:title="Utils.h">
<polygon fill="white" stroke="black" points="589.5,-116.5 589.5,-137.5 634.5,-137.5 634.5,-116.5 589.5,-116.5"/>
<text text-anchor="middle" x="612" y="-124.5" font-family="Helvetica,sans-Serif" font-size="10.00">Utils.h</text>
</a>
</g>
<!-- Node16&#45;&gt;Node19 -->
<g id="edge40" class="edge"><title>Node16&#45;&gt;Node19</title>
<path fill="none" stroke="midnightblue" d="M458.006,-177.178C489.444,-166.934 544.674,-148.938 579.742,-137.511"/>
<polygon fill="midnightblue" stroke="midnightblue" points="581.072,-140.759 589.496,-134.333 578.903,-134.103 581.072,-140.759"/>
</g>
<!-- Node20 -->
<g id="node42" class="node"><title>Node20</title>
<polygon fill="white" stroke="#bfbfbf" points="562,-58.5 562,-79.5 612,-79.5 612,-58.5 562,-58.5"/>
<text text-anchor="middle" x="587" y="-66.5" font-family="Helvetica,sans-Serif" font-size="10.00">fstream</text>
</g>
<!-- Node16&#45;&gt;Node20 -->
<g id="edge56" class="edge"><title>Node16&#45;&gt;Node20</title>
<path fill="none" stroke="midnightblue" d="M458.341,-179.017C482.043,-172.224 518.047,-159.237 543,-138 558.798,-124.555 570.889,-103.999 578.362,-88.8192"/>
<polygon fill="midnightblue" stroke="midnightblue" points="581.538,-90.2901 582.599,-79.7485 575.196,-87.3278 581.538,-90.2901"/>
</g>
<!-- Node21 -->
<g id="node44" class="node"><title>Node21</title>
<a xlink:href="_g_n_uplot_8h.html" target="_top" xlink:title="GNUplot.h">
<polygon fill="white" stroke="black" points="369.5,-116.5 369.5,-137.5 432.5,-137.5 432.5,-116.5 369.5,-116.5"/>
<text text-anchor="middle" x="401" y="-124.5" font-family="Helvetica,sans-Serif" font-size="10.00">GNUplot.h</text>
</a>
</g>
<!-- Node16&#45;&gt;Node21 -->
<g id="edge46" class="edge"><title>Node16&#45;&gt;Node21</title>
<path fill="none" stroke="midnightblue" d="M427.947,-174.362C423.528,-166.595 417.41,-155.843 412.121,-146.546"/>
<polygon fill="midnightblue" stroke="midnightblue" points="415.002,-144.531 407.014,-137.571 408.918,-147.993 415.002,-144.531"/>
</g>
<!-- Node22 -->
<g id="node51" class="node"><title>Node22</title>
<polygon fill="white" stroke="#bfbfbf" points="488,-116.5 488,-137.5 534,-137.5 534,-116.5 488,-116.5"/>
<text text-anchor="middle" x="511" y="-124.5" font-family="Helvetica,sans-Serif" font-size="10.00">cstdint</text>
</g>
<!-- Node16&#45;&gt;Node22 -->
<g id="edge58" class="edge"><title>Node16&#45;&gt;Node22</title>
<path fill="none" stroke="midnightblue" d="M448.123,-174.362C459.52,-165.777 475.758,-153.546 488.878,-143.664"/>
<polygon fill="midnightblue" stroke="midnightblue" points="491.085,-146.383 496.967,-137.571 486.873,-140.792 491.085,-146.383"/>
</g>
<!-- Node17&#45;&gt;Node5 -->
<g id="edge38" class="edge"><title>Node17&#45;&gt;Node5</title>
<path fill="none" stroke="midnightblue" d="M260.915,-58.4966C236.942,-48.0422 200.347,-32.0837 176.299,-21.5966"/>
<polygon fill="midnightblue" stroke="midnightblue" points="177.4,-18.2584 166.835,-17.4692 174.602,-24.6748 177.4,-18.2584"/>
</g>
<!-- Node17&#45;&gt;Node9 -->
<g id="edge36" class="edge"><title>Node17&#45;&gt;Node9</title>
<path fill="none" stroke="midnightblue" d="M317.573,-66.1633C431.181,-56.2696 808.998,-23.3665 920.049,-13.6954"/>
<polygon fill="midnightblue" stroke="midnightblue" points="920.577,-17.1628 930.236,-12.8083 919.97,-10.1892 920.577,-17.1628"/>
</g>
<!-- Node18 -->
<g id="node35" class="node"><title>Node18</title>
<polygon fill="white" stroke="#bfbfbf" points="260.5,-0.5 260.5,-21.5 309.5,-21.5 309.5,-0.5 260.5,-0.5"/>
<text text-anchor="middle" x="285" y="-8.5" font-family="Helvetica,sans-Serif" font-size="10.00">cstddef</text>
</g>
<!-- Node17&#45;&gt;Node18 -->
<g id="edge34" class="edge"><title>Node17&#45;&gt;Node18</title>
<path fill="none" stroke="midnightblue" d="M285,-58.3619C285,-50.9219 285,-40.7427 285,-31.7276"/>
<polygon fill="midnightblue" stroke="midnightblue" points="288.5,-31.5706 285,-21.5707 281.5,-31.5707 288.5,-31.5706"/>
</g>
<!-- Node19&#45;&gt;Node9 -->
<g id="edge42" class="edge"><title>Node19&#45;&gt;Node9</title>
<path fill="none" stroke="midnightblue" d="M634.675,-118.917C637.477,-117.929 640.303,-116.938 643,-116 744.719,-80.6162 865.739,-39.7052 920.909,-21.1201"/>
<polygon fill="midnightblue" stroke="midnightblue" points="922.064,-24.4243 930.424,-17.9161 919.83,-17.7903 922.064,-24.4243"/>
</g>
<!-- Node19&#45;&gt;Node20 -->
<g id="edge44" class="edge"><title>Node19&#45;&gt;Node20</title>
<path fill="none" stroke="midnightblue" d="M607.415,-116.362C604.102,-108.677 599.53,-98.0686 595.552,-88.8399"/>
<polygon fill="midnightblue" stroke="midnightblue" points="598.729,-87.3685 591.556,-79.5707 592.301,-90.1393 598.729,-87.3685"/>
</g>
<!-- Node21&#45;&gt;Node5 -->
<g id="edge50" class="edge"><title>Node21&#45;&gt;Node5</title>
<path fill="none" stroke="midnightblue" d="M392.469,-116.432C379.639,-101.241 353.891,-73.3742 326,-58 277.287,-31.1481 212.328,-18.9253 177.173,-13.9624"/>
<polygon fill="midnightblue" stroke="midnightblue" points="177.237,-10.4404 166.864,-12.5968 176.318,-17.3798 177.237,-10.4404"/>
</g>
<!-- Node21&#45;&gt;Node9 -->
<g id="edge48" class="edge"><title>Node21&#45;&gt;Node9</title>
<path fill="none" stroke="midnightblue" d="M419.484,-116.33C447.41,-100.745 502.471,-72.0843 553,-58 622.274,-38.6907 839.186,-19.9194 920.133,-13.4079"/>
<polygon fill="midnightblue" stroke="midnightblue" points="920.498,-16.89 930.188,-12.606 919.941,-9.91216 920.498,-16.89"/>
</g>
<!-- Node21&#45;&gt;Node17 -->
<g id="edge52" class="edge"><title>Node21&#45;&gt;Node17</title>
<path fill="none" stroke="midnightblue" d="M379.993,-116.497C361.957,-107.479 335.73,-94.3649 315.401,-84.2006"/>
<polygon fill="midnightblue" stroke="midnightblue" points="316.752,-80.9629 306.242,-79.6212 313.621,-87.2239 316.752,-80.9629"/>
</g>
<!-- Node23&#45;&gt;Node16 -->
<g id="edge68" class="edge"><title>Node23&#45;&gt;Node16</title>
<path fill="none" stroke="midnightblue" d="M316.896,-232.497C340.305,-223.002 374.907,-208.968 400.431,-198.615"/>
<polygon fill="midnightblue" stroke="midnightblue" points="401.776,-201.847 409.727,-194.845 399.145,-195.36 401.776,-201.847"/>
</g>
<!-- Node23&#45;&gt;Node17 -->
<g id="edge70" class="edge"><title>Node23&#45;&gt;Node17</title>
<path fill="none" stroke="midnightblue" d="M290.634,-232.377C289.665,-204.293 287.023,-127.673 285.731,-90.2027"/>
<polygon fill="midnightblue" stroke="midnightblue" points="289.219,-89.8011 285.377,-79.9277 282.224,-90.0424 289.219,-89.8011"/>
</g>
<!-- Node24&#45;&gt;Node5 -->
<g id="edge92" class="edge"><title>Node24&#45;&gt;Node5</title>
<path fill="none" stroke="midnightblue" d="M347.991,-408.329C344.952,-407.538 341.92,-406.752 339,-406 232.139,-378.461 114,-411.353 114,-301 114,-301 114,-301 114,-127 114,-91.7411 130.051,-53.3154 141.289,-30.7323"/>
<polygon fill="midnightblue" stroke="midnightblue" points="144.418,-32.3005 145.895,-21.809 138.198,-29.0901 144.418,-32.3005"/>
</g>
<!-- Node24&#45;&gt;Node8 -->
<g id="edge80" class="edge"><title>Node24&#45;&gt;Node8</title>
<path fill="none" stroke="midnightblue" d="M382.702,-406.481C385.702,-391.351 393.373,-363.56 411,-348 428.708,-332.369 488.845,-317.569 530.129,-308.892"/>
<polygon fill="midnightblue" stroke="midnightblue" points="531.093,-312.267 540.181,-306.821 529.681,-305.411 531.093,-312.267"/>
</g>
<!-- Node24&#45;&gt;Node16 -->
<g id="edge76" class="edge"><title>Node24&#45;&gt;Node16</title>
<path fill="none" stroke="midnightblue" d="M382.181,-406.178C383.759,-392.536 386.845,-368.401 391,-348 401.56,-296.151 418.652,-236.238 427.782,-205.511"/>
<polygon fill="midnightblue" stroke="midnightblue" points="431.24,-206.165 430.759,-195.581 424.535,-204.155 431.24,-206.165"/>
</g>
<!-- Node24&#45;&gt;Node17 -->
<g id="edge78" class="edge"><title>Node24&#45;&gt;Node17</title>
<path fill="none" stroke="midnightblue" d="M347.724,-408.173C299.603,-395.334 216.069,-372.731 214,-370 146.721,-281.173 235.192,-138.543 271.098,-87.7258"/>
<polygon fill="midnightblue" stroke="midnightblue" points="273.948,-89.7571 276.952,-79.5969 268.268,-85.6664 273.948,-89.7571"/>
</g>
<!-- Node24&#45;&gt;Node20 -->
<g id="edge94" class="edge"><title>Node24&#45;&gt;Node20</title>
<path fill="none" stroke="midnightblue" d="M362.362,-406.305C316.273,-378.456 203.723,-301.058 247,-232 297.877,-150.814 356.373,-182.922 441,-138 458.237,-128.85 461.58,-124.797 479,-116 503.06,-103.85 530.976,-91.7515 552.398,-82.8726"/>
<polygon fill="midnightblue" stroke="midnightblue" points="553.827,-86.0693 561.746,-79.0311 551.167,-79.5947 553.827,-86.0693"/>
</g>
<!-- Node24&#45;&gt;Node23 -->
<g id="edge90" class="edge"><title>Node24&#45;&gt;Node23</title>
<path fill="none" stroke="midnightblue" d="M369.685,-406.29C360.687,-397.287 348.277,-383.722 340,-370 318.959,-335.118 304.037,-289.631 296.534,-263.635"/>
<polygon fill="midnightblue" stroke="midnightblue" points="299.841,-262.463 293.777,-253.775 293.099,-264.349 299.841,-262.463"/>
</g>
<!-- Node25 -->
<g id="node66" class="node"><title>Node25</title>
<a xlink:href="_power_state_sequence_8h.html" target="_top" xlink:title="PowerStateSequence.h">
<polygon fill="white" stroke="black" points="419.5,-348.5 419.5,-369.5 538.5,-369.5 538.5,-348.5 419.5,-348.5"/>
<text text-anchor="middle" x="479" y="-356.5" font-family="Helvetica,sans-Serif" font-size="10.00">PowerStateSequence.h</text>
</a>
</g>
<!-- Node24&#45;&gt;Node25 -->
<g id="edge82" class="edge"><title>Node24&#45;&gt;Node25</title>
<path fill="none" stroke="midnightblue" d="M398.975,-406.362C413.894,-397.532 435.333,-384.844 452.266,-374.822"/>
<polygon fill="midnightblue" stroke="midnightblue" points="454.316,-377.676 461.139,-369.571 450.751,-371.652 454.316,-377.676"/>
</g>
<!-- Node25&#45;&gt;Node5 -->
<g id="edge84" class="edge"><title>Node25&#45;&gt;Node5</title>
<path fill="none" stroke="midnightblue" d="M419.403,-353.962C325.085,-342.367 152,-304.773 152,-185 152,-185 152,-185 152,-127 152,-93.5978 152,-54.7853 152,-31.5939"/>
<polygon fill="midnightblue" stroke="midnightblue" points="155.5,-31.5561 152,-21.5561 148.5,-31.5561 155.5,-31.5561"/>
</g>
<!-- Node25&#45;&gt;Node8 -->
<g id="edge88" class="edge"><title>Node25&#45;&gt;Node8</title>
<path fill="none" stroke="midnightblue" d="M495.874,-348.362C509.751,-339.614 529.634,-327.079 545.46,-317.101"/>
<polygon fill="midnightblue" stroke="midnightblue" points="547.64,-319.864 554.233,-311.571 543.907,-313.943 547.64,-319.864"/>
</g>
<!-- Node25&#45;&gt;Node9 -->
<g id="edge86" class="edge"><title>Node25&#45;&gt;Node9</title>
<path fill="none" stroke="midnightblue" d="M538.674,-355.74C675.983,-347.174 1009.25,-319.971 1097,-254 1149.91,-214.224 1186.75,-172.94 1153,-116 1116,-53.5711 1028.16,-26.6797 981.443,-16.4635"/>
<polygon fill="midnightblue" stroke="midnightblue" points="982.091,-13.0235 971.589,-14.4235 980.671,-19.8782 982.091,-13.0235"/>
</g>
<!-- Node26&#45;&gt;Node8 -->
<g id="edge100" class="edge"><title>Node26&#45;&gt;Node8</title>
<path fill="none" stroke="midnightblue" d="M1128.68,-354.641C1015.23,-343.728 720.352,-315.365 611.847,-304.929"/>
<polygon fill="midnightblue" stroke="midnightblue" points="611.93,-301.421 601.641,-303.947 611.26,-308.389 611.93,-301.421"/>
</g>
<!-- Node26&#45;&gt;Node9 -->
<g id="edge102" class="edge"><title>Node26&#45;&gt;Node9</title>
<path fill="none" stroke="midnightblue" d="M1187.52,-348.408C1217.72,-323.457 1288,-257.59 1288,-185 1288,-185 1288,-185 1288,-127 1288,-94.5312 1288.99,-78.7315 1264,-58 1221.45,-22.698 1052.39,-13.8541 982.003,-11.6858"/>
<polygon fill="midnightblue" stroke="midnightblue" points="981.683,-8.17545 971.588,-11.3921 981.485,-15.1727 981.683,-8.17545"/>
</g>
<!-- Node26&#45;&gt;Node12 -->
<g id="edge104" class="edge"><title>Node26&#45;&gt;Node12</title>
<path fill="none" stroke="midnightblue" d="M1171.4,-348.429C1162.59,-312.573 1133.75,-195.169 1122.02,-147.446"/>
<polygon fill="midnightblue" stroke="midnightblue" points="1125.4,-146.51 1119.61,-137.634 1118.6,-148.18 1125.4,-146.51"/>
</g>
<!-- Node26&#45;&gt;Node16 -->
<g id="edge98" class="edge"><title>Node26&#45;&gt;Node16</title>
<path fill="none" stroke="midnightblue" d="M1128.97,-357.307C992.094,-351.94 586.937,-334.328 532,-312 494.887,-296.916 486.758,-286.256 463,-254 452.192,-239.326 444.522,-220.021 439.796,-205.563"/>
<polygon fill="midnightblue" stroke="midnightblue" points="443.024,-204.148 436.753,-195.609 436.33,-206.195 443.024,-204.148"/>
</g>
<!-- Node26&#45;&gt;Node20 -->
<g id="edge106" class="edge"><title>Node26&#45;&gt;Node20</title>
<path fill="none" stroke="midnightblue" d="M1177.28,-348.251C1188.2,-310.082 1218.99,-179.94 1153,-116 1114.89,-79.073 740.616,-71.0153 622.514,-69.3863"/>
<polygon fill="midnightblue" stroke="midnightblue" points="622.264,-65.8828 612.22,-69.2518 622.173,-72.8822 622.264,-65.8828"/>
</g>
</g>
</svg>
