<?xml version="1.0" encoding="UTF-8" standalone="no"?>
<!DOCTYPE svg PUBLIC "-//W3C//DTD SVG 1.1//EN"
 "http://www.w3.org/Graphics/SVG/1.1/DTD/svg11.dtd">
<!-- Generated by graphviz version 2.26.3 (20100126.1600)
 -->
<!-- Title: G Pages: 1 -->
<svg width="842pt" height="378pt"
 viewBox="0.00 0.00 842.00 378.00" xmlns="http://www.w3.org/2000/svg" xmlns:xlink="http://www.w3.org/1999/xlink">
<g id="graph1" class="graph" transform="scale(1 1) rotate(0) translate(4 374)">
<title>G</title>
<polygon fill="white" stroke="white" points="-4,5 -4,-374 839,-374 839,5 -4,5"/>
<!-- Node1 -->
<g id="node1" class="node"><title>Node1</title>
<polygon fill="#bfbfbf" stroke="black" points="371.5,-348.5 371.5,-369.5 800.5,-369.5 800.5,-348.5 371.5,-348.5"/>
<text text-anchor="middle" x="586" y="-356.5" font-family="Helvetica,sans-Serif" font-size="10.00">/mnt/sshfs/imperialroot/homes/dk3810/workingcopies/disaggregate/src/PowerStateSequence.h</text>
</g>
<!-- Node2 -->
<g id="node3" class="node"><title>Node2</title>
<polygon fill="white" stroke="#bfbfbf" points="241.5,-0.5 241.5,-21.5 270.5,-21.5 270.5,-0.5 241.5,-0.5"/>
<text text-anchor="middle" x="256" y="-8.5" font-family="Helvetica,sans-Serif" font-size="10.00">list</text>
</g>
<!-- Node1&#45;&gt;Node2 -->
<g id="edge2" class="edge"><title>Node1&#45;&gt;Node2</title>
<path fill="none" stroke="midnightblue" d="M477.836,-348.469C308.514,-330.503 0,-291.16 0,-243 0,-243 0,-243 0,-127 0,-76.6075 166.653,-32.0175 231.035,-16.6716"/>
<polygon fill="midnightblue" stroke="midnightblue" points="232.192,-19.9954 241.13,-14.3065 230.595,-13.18 232.192,-19.9954"/>
</g>
<!-- Node3 -->
<g id="node5" class="node"><title>Node3</title>
<polygon fill="white" stroke="#bfbfbf" points="540.5,-0.5 540.5,-21.5 581.5,-21.5 581.5,-0.5 540.5,-0.5"/>
<text text-anchor="middle" x="561" y="-8.5" font-family="Helvetica,sans-Serif" font-size="10.00">string</text>
</g>
<!-- Node1&#45;&gt;Node3 -->
<g id="edge4" class="edge"><title>Node1&#45;&gt;Node3</title>
<path fill="none" stroke="midnightblue" d="M628.351,-348.478C699.183,-329.628 834,-287.859 834,-243 834,-243 834,-243 834,-127 834,-74.8337 663.014,-32.5834 591.681,-17.2269"/>
<polygon fill="midnightblue" stroke="midnightblue" points="592.027,-13.7228 581.519,-15.0768 590.578,-20.5712 592.027,-13.7228"/>
</g>
<!-- Node4 -->
<g id="node7" class="node"><title>Node4</title>
<a xlink:href="_statistic_8h.html" target="_top" xlink:title="Statistic.h">
<polygon fill="white" stroke="black" points="555.5,-290.5 555.5,-311.5 616.5,-311.5 616.5,-290.5 555.5,-290.5"/>
<text text-anchor="middle" x="586" y="-298.5" font-family="Helvetica,sans-Serif" font-size="10.00">Statistic.h</text>
</a>
</g>
<!-- Node1&#45;&gt;Node4 -->
<g id="edge6" class="edge"><title>Node1&#45;&gt;Node4</title>
<path fill="none" stroke="midnightblue" d="M586,-348.362C586,-340.922 586,-330.743 586,-321.728"/>
<polygon fill="midnightblue" stroke="midnightblue" points="589.5,-321.571 586,-311.571 582.5,-321.571 589.5,-321.571"/>
</g>
<!-- Node4&#45;&gt;Node3 -->
<g id="edge8" class="edge"><title>Node4&#45;&gt;Node3</title>
<path fill="none" stroke="midnightblue" d="M605.66,-290.334C653.053,-263.158 766.839,-188.339 727,-116 698.096,-63.516 630.67,-33.6139 591.217,-20.0194"/>
<polygon fill="midnightblue" stroke="midnightblue" points="592.187,-16.6538 581.594,-16.8358 589.989,-23.2996 592.187,-16.6538"/>
</g>
<!-- Node5 -->
<g id="node10" class="node"><title>Node5</title>
<polygon fill="white" stroke="#bfbfbf" points="597.5,-116.5 597.5,-137.5 646.5,-137.5 646.5,-116.5 597.5,-116.5"/>
<text text-anchor="middle" x="622" y="-124.5" font-family="Helvetica,sans-Serif" font-size="10.00">cassert</text>
</g>
<!-- Node4&#45;&gt;Node5 -->
<g id="edge10" class="edge"><title>Node4&#45;&gt;Node5</title>
<path fill="none" stroke="midnightblue" d="M594.862,-290.192C601.724,-281.133 610.753,-267.54 615,-254 626.341,-217.843 625.623,-173.093 623.917,-147.518"/>
<polygon fill="midnightblue" stroke="midnightblue" points="627.404,-147.209 623.131,-137.514 620.425,-147.757 627.404,-147.209"/>
</g>
<!-- Node6 -->
<g id="node12" class="node"><title>Node6</title>
<polygon fill="white" stroke="#bfbfbf" points="762,-232.5 762,-253.5 806,-253.5 806,-232.5 762,-232.5"/>
<text text-anchor="middle" x="784" y="-240.5" font-family="Helvetica,sans-Serif" font-size="10.00">cmath</text>
</g>
<!-- Node4&#45;&gt;Node6 -->
<g id="edge12" class="edge"><title>Node4&#45;&gt;Node6</title>
<path fill="none" stroke="midnightblue" d="M616.793,-292.207C649.411,-282.86 702.392,-267.583 748,-254 749.409,-253.58 750.849,-253.149 752.303,-252.712"/>
<polygon fill="midnightblue" stroke="midnightblue" points="753.374,-256.045 761.93,-249.798 751.345,-249.346 753.374,-256.045"/>
</g>
<!-- Node7 -->
<g id="node14" class="node"><title>Node7</title>
<polygon fill="white" stroke="#bfbfbf" points="664,-116.5 664,-137.5 718,-137.5 718,-116.5 664,-116.5"/>
<text text-anchor="middle" x="691" y="-124.5" font-family="Helvetica,sans-Serif" font-size="10.00">iostream</text>
</g>
<!-- Node4&#45;&gt;Node7 -->
<g id="edge14" class="edge"><title>Node4&#45;&gt;Node7</title>
<path fill="none" stroke="midnightblue" d="M598.21,-290.318C607.965,-281.332 621.525,-267.775 631,-254 654.928,-219.213 673.935,-173.387 683.732,-147.367"/>
<polygon fill="midnightblue" stroke="midnightblue" points="687.076,-148.414 687.246,-137.821 680.507,-145.996 687.076,-148.414"/>
</g>
<!-- Node8 -->
<g id="node16" class="node"><title>Node8</title>
<polygon fill="white" stroke="#bfbfbf" points="66,-232.5 66,-253.5 254,-253.5 254,-232.5 66,-232.5"/>
<text text-anchor="middle" x="160" y="-240.5" font-family="Helvetica,sans-Serif" font-size="10.00">boost/math/distributions/students_t.hpp</text>
</g>
<!-- Node4&#45;&gt;Node8 -->
<g id="edge16" class="edge"><title>Node4&#45;&gt;Node8</title>
<path fill="none" stroke="midnightblue" d="M555.363,-296.829C491.702,-288.161 343.086,-267.927 247.292,-254.885"/>
<polygon fill="midnightblue" stroke="midnightblue" points="247.708,-251.409 237.327,-253.528 246.763,-258.345 247.708,-251.409"/>
</g>
<!-- Node9 -->
<g id="node18" class="node"><title>Node9</title>
<polygon fill="white" stroke="#bfbfbf" points="272,-232.5 272,-253.5 444,-253.5 444,-232.5 272,-232.5"/>
<text text-anchor="middle" x="358" y="-240.5" font-family="Helvetica,sans-Serif" font-size="10.00">boost/math/distributions/normal.hpp</text>
</g>
<!-- Node4&#45;&gt;Node9 -->
<g id="edge18" class="edge"><title>Node4&#45;&gt;Node9</title>
<path fill="none" stroke="midnightblue" d="M555.251,-293.178C517.846,-283.663 454.15,-267.459 409.278,-256.044"/>
<polygon fill="midnightblue" stroke="midnightblue" points="409.994,-252.615 399.44,-253.542 408.268,-259.399 409.994,-252.615"/>
</g>
<!-- Node10 -->
<g id="node20" class="node"><title>Node10</title>
<polygon fill="white" stroke="#bfbfbf" points="462,-232.5 462,-253.5 502,-253.5 502,-232.5 462,-232.5"/>
<text text-anchor="middle" x="482" y="-240.5" font-family="Helvetica,sans-Serif" font-size="10.00">limits</text>
</g>
<!-- Node4&#45;&gt;Node10 -->
<g id="edge20" class="edge"><title>Node4&#45;&gt;Node10</title>
<path fill="none" stroke="midnightblue" d="M566.925,-290.362C550.945,-281.45 527.919,-268.609 509.873,-258.545"/>
<polygon fill="midnightblue" stroke="midnightblue" points="511.393,-255.385 500.954,-253.571 507.983,-261.498 511.393,-255.385"/>
</g>
<!-- Node11 -->
<g id="node22" class="node"><title>Node11</title>
<a xlink:href="_array_8h.html" target="_top" xlink:title="Array.h">
<polygon fill="white" stroke="black" points="507,-174.5 507,-195.5 555,-195.5 555,-174.5 507,-174.5"/>
<text text-anchor="middle" x="531" y="-182.5" font-family="Helvetica,sans-Serif" font-size="10.00">Array.h</text>
</a>
</g>
<!-- Node4&#45;&gt;Node11 -->
<g id="edge22" class="edge"><title>Node4&#45;&gt;Node11</title>
<path fill="none" stroke="midnightblue" d="M592.179,-290.079C599.305,-275.91 608.851,-250.784 599,-232 591.527,-217.75 577.555,-206.966 564.211,-199.346"/>
<polygon fill="midnightblue" stroke="midnightblue" points="565.639,-196.142 555.161,-194.573 562.373,-202.334 565.639,-196.142"/>
</g>
<!-- Node12 -->
<g id="node24" class="node"><title>Node12</title>
<a xlink:href="_common_8h.html" target="_top" xlink:title="Common.h">
<polygon fill="white" stroke="black" points="285.5,-58.5 285.5,-79.5 350.5,-79.5 350.5,-58.5 285.5,-58.5"/>
<text text-anchor="middle" x="318" y="-66.5" font-family="Helvetica,sans-Serif" font-size="10.00">Common.h</text>
</a>
</g>
<!-- Node4&#45;&gt;Node12 -->
<g id="edge56" class="edge"><title>Node4&#45;&gt;Node12</title>
<path fill="none" stroke="midnightblue" d="M555.26,-300.629C447.386,-299.014 90.7679,-290.901 57,-254 -18.0818,-171.952 183.984,-105.07 275.565,-79.8283"/>
<polygon fill="midnightblue" stroke="midnightblue" points="276.644,-83.1624 285.379,-77.1665 274.811,-76.4065 276.644,-83.1624"/>
</g>
<!-- Node18 -->
<g id="node47" class="node"><title>Node18</title>
<a xlink:href="_histogram_8h.html" target="_top" xlink:title="Histogram.h">
<polygon fill="white" stroke="black" points="520,-232.5 520,-253.5 590,-253.5 590,-232.5 520,-232.5"/>
<text text-anchor="middle" x="555" y="-240.5" font-family="Helvetica,sans-Serif" font-size="10.00">Histogram.h</text>
</a>
</g>
<!-- Node4&#45;&gt;Node18 -->
<g id="edge58" class="edge"><title>Node4&#45;&gt;Node18</title>
<path fill="none" stroke="midnightblue" d="M580.314,-290.362C576.163,-282.595 570.416,-271.843 565.447,-262.546"/>
<polygon fill="midnightblue" stroke="midnightblue" points="568.45,-260.74 560.65,-253.571 562.277,-264.04 568.45,-260.74"/>
</g>
<!-- Node11&#45;&gt;Node2 -->
<g id="edge54" class="edge"><title>Node11&#45;&gt;Node2</title>
<path fill="none" stroke="midnightblue" d="M506.807,-181.422C459.432,-174.1 356.4,-156.527 326,-138 297.184,-120.438 293.133,-109.639 277,-80 268.781,-64.9 263.338,-46.15 260.057,-32.0083"/>
<polygon fill="midnightblue" stroke="midnightblue" points="263.39,-30.8602 257.877,-21.8127 256.545,-32.3235 263.39,-30.8602"/>
</g>
<!-- Node11&#45;&gt;Node5 -->
<g id="edge52" class="edge"><title>Node11&#45;&gt;Node5</title>
<path fill="none" stroke="midnightblue" d="M547.691,-174.362C561.416,-165.614 581.084,-153.079 596.737,-143.101"/>
<polygon fill="midnightblue" stroke="midnightblue" points="598.863,-145.897 605.415,-137.571 595.101,-139.994 598.863,-145.897"/>
</g>
<!-- Node11&#45;&gt;Node7 -->
<g id="edge46" class="edge"><title>Node11&#45;&gt;Node7</title>
<path fill="none" stroke="midnightblue" d="M555.301,-176.191C581.648,-166.64 623.996,-151.289 654.379,-140.275"/>
<polygon fill="midnightblue" stroke="midnightblue" points="655.579,-143.563 663.787,-136.865 653.193,-136.982 655.579,-143.563"/>
</g>
<!-- Node11&#45;&gt;Node12 -->
<g id="edge24" class="edge"><title>Node11&#45;&gt;Node12</title>
<path fill="none" stroke="midnightblue" d="M506.783,-181.673C462.099,-175.094 369.045,-159.202 345,-138 331.025,-125.677 324.221,-105.21 320.946,-89.7596"/>
<polygon fill="midnightblue" stroke="midnightblue" points="324.333,-88.8154 319.134,-79.584 317.442,-90.0429 324.333,-88.8154"/>
</g>
<!-- Node14 -->
<g id="node30" class="node"><title>Node14</title>
<a xlink:href="_utils_8h.html" target="_top" xlink:title="Utils.h">
<polygon fill="white" stroke="black" points="535.5,-116.5 535.5,-137.5 580.5,-137.5 580.5,-116.5 535.5,-116.5"/>
<text text-anchor="middle" x="558" y="-124.5" font-family="Helvetica,sans-Serif" font-size="10.00">Utils.h</text>
</a>
</g>
<!-- Node11&#45;&gt;Node14 -->
<g id="edge32" class="edge"><title>Node11&#45;&gt;Node14</title>
<path fill="none" stroke="midnightblue" d="M535.952,-174.362C539.53,-166.677 544.468,-156.069 548.764,-146.84"/>
<polygon fill="midnightblue" stroke="midnightblue" points="552.032,-148.114 553.079,-137.571 545.686,-145.159 552.032,-148.114"/>
</g>
<!-- Node15 -->
<g id="node33" class="node"><title>Node15</title>
<polygon fill="white" stroke="#bfbfbf" points="483,-58.5 483,-79.5 533,-79.5 533,-58.5 483,-58.5"/>
<text text-anchor="middle" x="508" y="-66.5" font-family="Helvetica,sans-Serif" font-size="10.00">fstream</text>
</g>
<!-- Node11&#45;&gt;Node15 -->
<g id="edge48" class="edge"><title>Node11&#45;&gt;Node15</title>
<path fill="none" stroke="midnightblue" d="M528.877,-174.295C525.061,-155.045 516.98,-114.289 512.066,-89.5091"/>
<polygon fill="midnightblue" stroke="midnightblue" points="515.496,-88.8075 510.117,-79.6792 508.629,-90.169 515.496,-88.8075"/>
</g>
<!-- Node16 -->
<g id="node35" class="node"><title>Node16</title>
<a xlink:href="_g_n_uplot_8h.html" target="_top" xlink:title="GNUplot.h">
<polygon fill="white" stroke="black" points="417.5,-116.5 417.5,-137.5 480.5,-137.5 480.5,-116.5 417.5,-116.5"/>
<text text-anchor="middle" x="449" y="-124.5" font-family="Helvetica,sans-Serif" font-size="10.00">GNUplot.h</text>
</a>
</g>
<!-- Node11&#45;&gt;Node16 -->
<g id="edge38" class="edge"><title>Node11&#45;&gt;Node16</title>
<path fill="none" stroke="midnightblue" d="M515.96,-174.362C503.707,-165.696 486.201,-153.313 472.161,-143.382"/>
<polygon fill="midnightblue" stroke="midnightblue" points="474.13,-140.488 463.945,-137.571 470.088,-146.203 474.13,-140.488"/>
</g>
<!-- Node17 -->
<g id="node42" class="node"><title>Node17</title>
<polygon fill="white" stroke="#bfbfbf" points="354,-116.5 354,-137.5 400,-137.5 400,-116.5 354,-116.5"/>
<text text-anchor="middle" x="377" y="-124.5" font-family="Helvetica,sans-Serif" font-size="10.00">cstdint</text>
</g>
<!-- Node11&#45;&gt;Node17 -->
<g id="edge50" class="edge"><title>Node11&#45;&gt;Node17</title>
<path fill="none" stroke="midnightblue" d="M506.938,-175.938C480.906,-166.133 439.23,-150.437 410.117,-139.473"/>
<polygon fill="midnightblue" stroke="midnightblue" points="410.981,-136.058 400.389,-135.809 408.514,-142.609 410.981,-136.058"/>
</g>
<!-- Node12&#45;&gt;Node2 -->
<g id="edge30" class="edge"><title>Node12&#45;&gt;Node2</title>
<path fill="none" stroke="midnightblue" d="M306.628,-58.3619C297.714,-50.0226 285.121,-38.2418 274.724,-28.5162"/>
<polygon fill="midnightblue" stroke="midnightblue" points="276.993,-25.8463 267.3,-21.5707 272.211,-30.9582 276.993,-25.8463"/>
</g>
<!-- Node12&#45;&gt;Node3 -->
<g id="edge28" class="edge"><title>Node12&#45;&gt;Node3</title>
<path fill="none" stroke="midnightblue" d="M350.52,-61.238C397.672,-49.9835 484.404,-29.2823 530.434,-18.2956"/>
<polygon fill="midnightblue" stroke="midnightblue" points="531.498,-21.6401 540.412,-15.9141 529.872,-14.8314 531.498,-21.6401"/>
</g>
<!-- Node13 -->
<g id="node26" class="node"><title>Node13</title>
<polygon fill="white" stroke="#bfbfbf" points="293.5,-0.5 293.5,-21.5 342.5,-21.5 342.5,-0.5 293.5,-0.5"/>
<text text-anchor="middle" x="318" y="-8.5" font-family="Helvetica,sans-Serif" font-size="10.00">cstddef</text>
</g>
<!-- Node12&#45;&gt;Node13 -->
<g id="edge26" class="edge"><title>Node12&#45;&gt;Node13</title>
<path fill="none" stroke="midnightblue" d="M318,-58.3619C318,-50.9219 318,-40.7427 318,-31.7276"/>
<polygon fill="midnightblue" stroke="midnightblue" points="321.5,-31.5706 318,-21.5707 314.5,-31.5707 321.5,-31.5706"/>
</g>
<!-- Node14&#45;&gt;Node3 -->
<g id="edge34" class="edge"><title>Node14&#45;&gt;Node3</title>
<path fill="none" stroke="midnightblue" d="M558.277,-116.295C558.772,-97.1314 559.819,-56.654 560.461,-31.8434"/>
<polygon fill="midnightblue" stroke="midnightblue" points="563.964,-31.7664 560.724,-21.6792 556.966,-31.5853 563.964,-31.7664"/>
</g>
<!-- Node14&#45;&gt;Node15 -->
<g id="edge36" class="edge"><title>Node14&#45;&gt;Node15</title>
<path fill="none" stroke="midnightblue" d="M548.829,-116.362C541.852,-108.268 532.079,-96.9318 523.844,-87.3796"/>
<polygon fill="midnightblue" stroke="midnightblue" points="526.293,-84.8595 517.113,-79.5707 520.991,-89.4301 526.293,-84.8595"/>
</g>
<!-- Node16&#45;&gt;Node2 -->
<g id="edge42" class="edge"><title>Node16&#45;&gt;Node2</title>
<path fill="none" stroke="midnightblue" d="M437.111,-116.471C420.46,-102.063 388.871,-75.9495 359,-58 333.228,-42.5135 301.48,-28.7532 280.099,-20.1856"/>
<polygon fill="midnightblue" stroke="midnightblue" points="281.094,-16.8162 270.507,-16.412 278.531,-23.3302 281.094,-16.8162"/>
</g>
<!-- Node16&#45;&gt;Node3 -->
<g id="edge40" class="edge"><title>Node16&#45;&gt;Node3</title>
<path fill="none" stroke="midnightblue" d="M450.424,-116.47C452.889,-101.826 459.19,-75.1763 474,-58 489.014,-40.5868 512.13,-28.5296 530.762,-20.9903"/>
<polygon fill="midnightblue" stroke="midnightblue" points="532.2,-24.1879 540.3,-17.3582 529.709,-17.6461 532.2,-24.1879"/>
</g>
<!-- Node16&#45;&gt;Node12 -->
<g id="edge44" class="edge"><title>Node16&#45;&gt;Node12</title>
<path fill="none" stroke="midnightblue" d="M425.277,-116.497C404.632,-107.356 374.484,-94.0082 351.401,-83.7883"/>
<polygon fill="midnightblue" stroke="midnightblue" points="352.55,-80.4694 341.989,-79.6212 349.716,-86.8701 352.55,-80.4694"/>
</g>
<!-- Node18&#45;&gt;Node11 -->
<g id="edge60" class="edge"><title>Node18&#45;&gt;Node11</title>
<path fill="none" stroke="midnightblue" d="M550.598,-232.362C547.418,-224.677 543.028,-214.069 539.21,-204.84"/>
<polygon fill="midnightblue" stroke="midnightblue" points="542.432,-203.473 535.374,-195.571 535.964,-206.149 542.432,-203.473"/>
</g>
<!-- Node18&#45;&gt;Node12 -->
<g id="edge62" class="edge"><title>Node18&#45;&gt;Node12</title>
<path fill="none" stroke="midnightblue" d="M522.054,-232.365C464.733,-213.173 350.417,-171.619 326,-138 316.061,-124.315 314.611,-104.915 315.332,-90.1694"/>
<polygon fill="midnightblue" stroke="midnightblue" points="318.839,-90.2335 316.201,-79.9722 311.864,-89.6386 318.839,-90.2335"/>
</g>
</g>
</svg>
