<?xml version="1.0" encoding="UTF-8" standalone="no"?>
<!DOCTYPE svg PUBLIC "-//W3C//DTD SVG 1.1//EN"
 "http://www.w3.org/Graphics/SVG/1.1/DTD/svg11.dtd">
<!-- Generated by graphviz version 2.26.3 (20100126.1600)
 -->
<!-- Title: G Pages: 1 -->
<svg width="954pt" height="436pt"
 viewBox="0.00 0.00 954.00 436.00" xmlns="http://www.w3.org/2000/svg" xmlns:xlink="http://www.w3.org/1999/xlink">
<g id="graph1" class="graph" transform="scale(1 1) rotate(0) translate(4 432)">
<title>G</title>
<polygon fill="white" stroke="white" points="-4,5 -4,-432 951,-432 951,5 -4,5"/>
<!-- Node1 -->
<g id="node1" class="node"><title>Node1</title>
<polygon fill="#bfbfbf" stroke="black" points="10,-406.5 10,-427.5 450,-427.5 450,-406.5 10,-406.5"/>
<text text-anchor="middle" x="230" y="-414.5" font-family="Helvetica,sans-Serif" font-size="10.00">/mnt/sshfs/imperialroot/homes/dk3810/workingcopies/disaggregate/src/PowerStateSequence.cpp</text>
</g>
<!-- Node2 -->
<g id="node3" class="node"><title>Node2</title>
<a xlink:href="_power_state_sequence_8h.html" target="_top" xlink:title="PowerStateSequence.h">
<polygon fill="white" stroke="black" points="325.5,-348.5 325.5,-369.5 444.5,-369.5 444.5,-348.5 325.5,-348.5"/>
<text text-anchor="middle" x="385" y="-356.5" font-family="Helvetica,sans-Serif" font-size="10.00">PowerStateSequence.h</text>
</a>
</g>
<!-- Node1&#45;&gt;Node2 -->
<g id="edge2" class="edge"><title>Node1&#45;&gt;Node2</title>
<path fill="none" stroke="midnightblue" d="M258.069,-406.497C283.01,-397.164 319.674,-383.445 347.192,-373.147"/>
<polygon fill="midnightblue" stroke="midnightblue" points="348.739,-376.306 356.878,-369.523 346.286,-369.75 348.739,-376.306"/>
</g>
<!-- Node4 -->
<g id="node7" class="node"><title>Node4</title>
<polygon fill="white" stroke="#bfbfbf" points="145.5,-0.5 145.5,-21.5 186.5,-21.5 186.5,-0.5 145.5,-0.5"/>
<text text-anchor="middle" x="166" y="-8.5" font-family="Helvetica,sans-Serif" font-size="10.00">string</text>
</g>
<!-- Node1&#45;&gt;Node4 -->
<g id="edge68" class="edge"><title>Node1&#45;&gt;Node4</title>
<path fill="none" stroke="midnightblue" d="M134.79,-406.462C71.5155,-393.552 0,-364.84 0,-301 0,-301 0,-301 0,-127 0,-61.6532 87.5006,-30.0482 135.447,-17.6353"/>
<polygon fill="midnightblue" stroke="midnightblue" points="136.438,-20.9958 145.312,-15.2072 134.765,-14.1987 136.438,-20.9958"/>
</g>
<!-- Node8 -->
<g id="node16" class="node"><title>Node8</title>
<polygon fill="white" stroke="#bfbfbf" points="813,-116.5 813,-137.5 867,-137.5 867,-116.5 813,-116.5"/>
<text text-anchor="middle" x="840" y="-124.5" font-family="Helvetica,sans-Serif" font-size="10.00">iostream</text>
</g>
<!-- Node1&#45;&gt;Node8 -->
<g id="edge70" class="edge"><title>Node1&#45;&gt;Node8</title>
<path fill="none" stroke="midnightblue" d="M358.744,-406.475C545.634,-389.435 870,-352.45 870,-301 870,-301 870,-301 870,-243 870,-208.366 857.31,-169.714 848.437,-146.921"/>
<polygon fill="midnightblue" stroke="midnightblue" points="851.677,-145.599 844.688,-137.636 845.186,-148.22 851.677,-145.599"/>
</g>
<!-- Node15 -->
<g id="node32" class="node"><title>Node15</title>
<a xlink:href="_utils_8h.html" target="_top" xlink:title="Utils.h">
<polygon fill="white" stroke="black" points="261.5,-116.5 261.5,-137.5 306.5,-137.5 306.5,-116.5 261.5,-116.5"/>
<text text-anchor="middle" x="284" y="-124.5" font-family="Helvetica,sans-Serif" font-size="10.00">Utils.h</text>
</a>
</g>
<!-- Node1&#45;&gt;Node15 -->
<g id="edge66" class="edge"><title>Node1&#45;&gt;Node15</title>
<path fill="none" stroke="midnightblue" d="M191.537,-406.456C145.923,-391.335 76,-358.74 76,-301 76,-301 76,-301 76,-243 76,-163.789 192.484,-138.17 251.112,-130.292"/>
<polygon fill="midnightblue" stroke="midnightblue" points="251.853,-133.727 261.344,-129.019 250.989,-126.78 251.853,-133.727"/>
</g>
<!-- Node3 -->
<g id="node5" class="node"><title>Node3</title>
<polygon fill="white" stroke="#bfbfbf" points="766.5,-0.5 766.5,-21.5 795.5,-21.5 795.5,-0.5 766.5,-0.5"/>
<text text-anchor="middle" x="781" y="-8.5" font-family="Helvetica,sans-Serif" font-size="10.00">list</text>
</g>
<!-- Node2&#45;&gt;Node3 -->
<g id="edge4" class="edge"><title>Node2&#45;&gt;Node3</title>
<path fill="none" stroke="midnightblue" d="M444.506,-352.922C588.886,-337.374 946,-293.785 946,-243 946,-243 946,-243 946,-127 946,-59.1041 851.345,-27.5127 805.42,-16.1807"/>
<polygon fill="midnightblue" stroke="midnightblue" points="806.177,-12.7634 795.643,-13.8938 804.583,-19.5794 806.177,-12.7634"/>
</g>
<!-- Node2&#45;&gt;Node4 -->
<g id="edge6" class="edge"><title>Node2&#45;&gt;Node4</title>
<path fill="none" stroke="midnightblue" d="M325.349,-351.545C226.136,-337.464 38,-302.868 38,-243 38,-243 38,-243 38,-127 38,-74.4179 98.0416,-39.449 135.881,-22.6321"/>
<polygon fill="midnightblue" stroke="midnightblue" points="137.608,-25.7005 145.435,-18.559 134.863,-19.2613 137.608,-25.7005"/>
</g>
<!-- Node5 -->
<g id="node9" class="node"><title>Node5</title>
<a xlink:href="_statistic_8h.html" target="_top" xlink:title="Statistic.h">
<polygon fill="white" stroke="black" points="575.5,-290.5 575.5,-311.5 636.5,-311.5 636.5,-290.5 575.5,-290.5"/>
<text text-anchor="middle" x="606" y="-298.5" font-family="Helvetica,sans-Serif" font-size="10.00">Statistic.h</text>
</a>
</g>
<!-- Node2&#45;&gt;Node5 -->
<g id="edge8" class="edge"><title>Node2&#45;&gt;Node5</title>
<path fill="none" stroke="midnightblue" d="M425.021,-348.497C464.812,-338.054 525.528,-322.119 565.489,-311.632"/>
<polygon fill="midnightblue" stroke="midnightblue" points="566.392,-315.014 575.176,-309.09 564.615,-308.243 566.392,-315.014"/>
</g>
<!-- Node5&#45;&gt;Node4 -->
<g id="edge10" class="edge"><title>Node5&#45;&gt;Node4</title>
<path fill="none" stroke="midnightblue" d="M575.407,-299.944C476.043,-296.246 166.83,-282.528 133,-254 108.683,-233.495 114,-216.808 114,-185 114,-185 114,-185 114,-127 114,-90.1452 136.127,-52.0127 151.513,-29.9516"/>
<polygon fill="midnightblue" stroke="midnightblue" points="154.389,-31.9476 157.413,-21.7936 148.717,-27.8453 154.389,-31.9476"/>
</g>
<!-- Node6 -->
<g id="node12" class="node"><title>Node6</title>
<polygon fill="white" stroke="#bfbfbf" points="450.5,-116.5 450.5,-137.5 499.5,-137.5 499.5,-116.5 450.5,-116.5"/>
<text text-anchor="middle" x="475" y="-124.5" font-family="Helvetica,sans-Serif" font-size="10.00">cassert</text>
</g>
<!-- Node5&#45;&gt;Node6 -->
<g id="edge12" class="edge"><title>Node5&#45;&gt;Node6</title>
<path fill="none" stroke="midnightblue" d="M604.905,-290.481C603.045,-276.314 598.303,-250.721 587,-232 564.449,-194.649 524.942,-162.132 499.385,-143.54"/>
<polygon fill="midnightblue" stroke="midnightblue" points="501.155,-140.503 490.978,-137.559 497.098,-146.207 501.155,-140.503"/>
</g>
<!-- Node7 -->
<g id="node14" class="node"><title>Node7</title>
<polygon fill="white" stroke="#bfbfbf" points="760,-232.5 760,-253.5 804,-253.5 804,-232.5 760,-232.5"/>
<text text-anchor="middle" x="782" y="-240.5" font-family="Helvetica,sans-Serif" font-size="10.00">cmath</text>
</g>
<!-- Node5&#45;&gt;Node7 -->
<g id="edge14" class="edge"><title>Node5&#45;&gt;Node7</title>
<path fill="none" stroke="midnightblue" d="M636.632,-291.341C664.082,-282.625 705.67,-269.276 750.144,-254.238"/>
<polygon fill="midnightblue" stroke="midnightblue" points="751.329,-257.532 759.675,-251.005 749.08,-250.903 751.329,-257.532"/>
</g>
<!-- Node5&#45;&gt;Node8 -->
<g id="edge16" class="edge"><title>Node5&#45;&gt;Node8</title>
<path fill="none" stroke="midnightblue" d="M636.908,-298.034C688.441,-292.45 788.675,-278.663 813,-254 840.963,-225.648 843.191,-175.948 841.885,-147.865"/>
<polygon fill="midnightblue" stroke="midnightblue" points="845.358,-147.346 841.202,-137.6 838.374,-147.811 845.358,-147.346"/>
</g>
<!-- Node9 -->
<g id="node18" class="node"><title>Node9</title>
<polygon fill="white" stroke="#bfbfbf" points="142,-232.5 142,-253.5 330,-253.5 330,-232.5 142,-232.5"/>
<text text-anchor="middle" x="236" y="-240.5" font-family="Helvetica,sans-Serif" font-size="10.00">boost/math/distributions/students_t.hpp</text>
</g>
<!-- Node5&#45;&gt;Node9 -->
<g id="edge18" class="edge"><title>Node5&#45;&gt;Node9</title>
<path fill="none" stroke="midnightblue" d="M575.407,-296.204C518.456,-287.277 394.595,-267.861 313.302,-255.118"/>
<polygon fill="midnightblue" stroke="midnightblue" points="313.535,-251.612 303.114,-253.521 312.451,-258.527 313.535,-251.612"/>
</g>
<!-- Node10 -->
<g id="node20" class="node"><title>Node10</title>
<polygon fill="white" stroke="#bfbfbf" points="348,-232.5 348,-253.5 520,-253.5 520,-232.5 348,-232.5"/>
<text text-anchor="middle" x="434" y="-240.5" font-family="Helvetica,sans-Serif" font-size="10.00">boost/math/distributions/normal.hpp</text>
</g>
<!-- Node5&#45;&gt;Node10 -->
<g id="edge20" class="edge"><title>Node5&#45;&gt;Node10</title>
<path fill="none" stroke="midnightblue" d="M575.25,-290.631C547.261,-281.193 505.734,-267.189 474.944,-256.807"/>
<polygon fill="midnightblue" stroke="midnightblue" points="475.949,-253.452 465.355,-253.573 473.713,-260.085 475.949,-253.452"/>
</g>
<!-- Node11 -->
<g id="node22" class="node"><title>Node11</title>
<polygon fill="white" stroke="#bfbfbf" points="538,-232.5 538,-253.5 578,-253.5 578,-232.5 538,-232.5"/>
<text text-anchor="middle" x="558" y="-240.5" font-family="Helvetica,sans-Serif" font-size="10.00">limits</text>
</g>
<!-- Node5&#45;&gt;Node11 -->
<g id="edge22" class="edge"><title>Node5&#45;&gt;Node11</title>
<path fill="none" stroke="midnightblue" d="M597.196,-290.362C590.498,-282.268 581.116,-270.932 573.211,-261.38"/>
<polygon fill="midnightblue" stroke="midnightblue" points="575.82,-259.043 566.748,-253.571 570.427,-263.506 575.82,-259.043"/>
</g>
<!-- Node12 -->
<g id="node24" class="node"><title>Node12</title>
<a xlink:href="_array_8h.html" target="_top" xlink:title="Array.h">
<polygon fill="white" stroke="black" points="634,-174.5 634,-195.5 682,-195.5 682,-174.5 634,-174.5"/>
<text text-anchor="middle" x="658" y="-182.5" font-family="Helvetica,sans-Serif" font-size="10.00">Array.h</text>
</a>
</g>
<!-- Node5&#45;&gt;Node12 -->
<g id="edge24" class="edge"><title>Node5&#45;&gt;Node12</title>
<path fill="none" stroke="midnightblue" d="M610.799,-290.295C619.505,-270.872 638.027,-229.556 649.103,-204.846"/>
<polygon fill="midnightblue" stroke="midnightblue" points="652.316,-206.236 653.213,-195.679 645.928,-203.373 652.316,-206.236"/>
</g>
<!-- Node13 -->
<g id="node26" class="node"><title>Node13</title>
<a xlink:href="_common_8h.html" target="_top" xlink:title="Common.h">
<polygon fill="white" stroke="black" points="688.5,-58.5 688.5,-79.5 753.5,-79.5 753.5,-58.5 688.5,-58.5"/>
<text text-anchor="middle" x="721" y="-66.5" font-family="Helvetica,sans-Serif" font-size="10.00">Common.h</text>
</a>
</g>
<!-- Node5&#45;&gt;Node13 -->
<g id="edge58" class="edge"><title>Node5&#45;&gt;Node13</title>
<path fill="none" stroke="midnightblue" d="M636.555,-298.375C691.672,-293.06 804.738,-279.323 834,-254 882.479,-212.048 914.194,-167.492 876,-116 862.526,-97.8341 804.781,-83.9397 763.724,-76.1217"/>
<polygon fill="midnightblue" stroke="midnightblue" points="764.152,-72.6416 753.682,-74.2661 762.88,-79.5251 764.152,-72.6416"/>
</g>
<!-- Node19 -->
<g id="node49" class="node"><title>Node19</title>
<a xlink:href="_histogram_8h.html" target="_top" xlink:title="Histogram.h">
<polygon fill="white" stroke="black" points="672,-232.5 672,-253.5 742,-253.5 742,-232.5 672,-232.5"/>
<text text-anchor="middle" x="707" y="-240.5" font-family="Helvetica,sans-Serif" font-size="10.00">Histogram.h</text>
</a>
</g>
<!-- Node5&#45;&gt;Node19 -->
<g id="edge60" class="edge"><title>Node5&#45;&gt;Node19</title>
<path fill="none" stroke="midnightblue" d="M624.525,-290.362C639.901,-281.532 661.996,-268.844 679.447,-258.822"/>
<polygon fill="midnightblue" stroke="midnightblue" points="681.664,-261.586 688.592,-253.571 678.178,-255.515 681.664,-261.586"/>
</g>
<!-- Node12&#45;&gt;Node3 -->
<g id="edge56" class="edge"><title>Node12&#45;&gt;Node3</title>
<path fill="none" stroke="midnightblue" d="M673.01,-174.282C695.911,-157.096 739.302,-121.103 762,-80 770.247,-65.0665 775.113,-46.3043 777.852,-32.1157"/>
<polygon fill="midnightblue" stroke="midnightblue" points="781.367,-32.327 779.617,-21.8777 774.469,-31.1375 781.367,-32.327"/>
</g>
<!-- Node12&#45;&gt;Node6 -->
<g id="edge54" class="edge"><title>Node12&#45;&gt;Node6</title>
<path fill="none" stroke="midnightblue" d="M633.699,-177.298C601.795,-167.186 545.597,-149.375 509.352,-137.887"/>
<polygon fill="midnightblue" stroke="midnightblue" points="510.284,-134.512 499.694,-134.827 508.17,-141.184 510.284,-134.512"/>
</g>
<!-- Node12&#45;&gt;Node8 -->
<g id="edge48" class="edge"><title>Node12&#45;&gt;Node8</title>
<path fill="none" stroke="midnightblue" d="M682.168,-177.298C713.103,-167.44 767.002,-150.263 803.088,-138.763"/>
<polygon fill="midnightblue" stroke="midnightblue" points="804.295,-142.052 812.76,-135.681 802.17,-135.382 804.295,-142.052"/>
</g>
<!-- Node12&#45;&gt;Node13 -->
<g id="edge26" class="edge"><title>Node12&#45;&gt;Node13</title>
<path fill="none" stroke="midnightblue" d="M666.198,-174.146C673.028,-164.838 682.771,-150.923 690,-138 698.889,-122.108 707.243,-103.189 713.034,-89.1847"/>
<polygon fill="midnightblue" stroke="midnightblue" points="716.421,-90.1472 716.929,-79.5646 709.932,-87.5201 716.421,-90.1472"/>
</g>
<!-- Node12&#45;&gt;Node15 -->
<g id="edge34" class="edge"><title>Node12&#45;&gt;Node15</title>
<path fill="none" stroke="midnightblue" d="M633.749,-181.239C568.797,-171.166 390.831,-143.567 316.889,-132.1"/>
<polygon fill="midnightblue" stroke="midnightblue" points="317.178,-128.603 306.76,-130.53 316.105,-135.521 317.178,-128.603"/>
</g>
<!-- Node16 -->
<g id="node35" class="node"><title>Node16</title>
<polygon fill="white" stroke="#bfbfbf" points="381,-58.5 381,-79.5 431,-79.5 431,-58.5 381,-58.5"/>
<text text-anchor="middle" x="406" y="-66.5" font-family="Helvetica,sans-Serif" font-size="10.00">fstream</text>
</g>
<!-- Node12&#45;&gt;Node16 -->
<g id="edge50" class="edge"><title>Node12&#45;&gt;Node16</title>
<path fill="none" stroke="midnightblue" d="M633.568,-175.787C610.606,-166.887 575.461,-152.635 546,-138 528.523,-129.318 525.325,-124.982 508,-116 485.687,-104.432 459.982,-92.5967 439.959,-83.6967"/>
<polygon fill="midnightblue" stroke="midnightblue" points="441.188,-80.4133 430.626,-79.5774 438.362,-86.8173 441.188,-80.4133"/>
</g>
<!-- Node17 -->
<g id="node37" class="node"><title>Node17</title>
<a xlink:href="_g_n_uplot_8h.html" target="_top" xlink:title="GNUplot.h">
<polygon fill="white" stroke="black" points="618.5,-116.5 618.5,-137.5 681.5,-137.5 681.5,-116.5 618.5,-116.5"/>
<text text-anchor="middle" x="650" y="-124.5" font-family="Helvetica,sans-Serif" font-size="10.00">GNUplot.h</text>
</a>
</g>
<!-- Node12&#45;&gt;Node17 -->
<g id="edge40" class="edge"><title>Node12&#45;&gt;Node17</title>
<path fill="none" stroke="midnightblue" d="M656.533,-174.362C655.506,-166.922 654.102,-156.743 652.859,-147.728"/>
<polygon fill="midnightblue" stroke="midnightblue" points="656.292,-146.999 651.458,-137.571 649.357,-147.955 656.292,-146.999"/>
</g>
<!-- Node18 -->
<g id="node44" class="node"><title>Node18</title>
<polygon fill="white" stroke="#bfbfbf" points="555,-116.5 555,-137.5 601,-137.5 601,-116.5 555,-116.5"/>
<text text-anchor="middle" x="578" y="-124.5" font-family="Helvetica,sans-Serif" font-size="10.00">cstdint</text>
</g>
<!-- Node12&#45;&gt;Node18 -->
<g id="edge52" class="edge"><title>Node12&#45;&gt;Node18</title>
<path fill="none" stroke="midnightblue" d="M643.327,-174.362C631.486,-165.777 614.615,-153.546 600.984,-143.664"/>
<polygon fill="midnightblue" stroke="midnightblue" points="602.731,-140.607 592.58,-137.571 598.622,-146.274 602.731,-140.607"/>
</g>
<!-- Node13&#45;&gt;Node3 -->
<g id="edge32" class="edge"><title>Node13&#45;&gt;Node3</title>
<path fill="none" stroke="midnightblue" d="M732.005,-58.3619C740.547,-50.1043 752.58,-38.4725 762.583,-28.8029"/>
<polygon fill="midnightblue" stroke="midnightblue" points="765.308,-31.0374 770.065,-21.5707 760.442,-26.0044 765.308,-31.0374"/>
</g>
<!-- Node13&#45;&gt;Node4 -->
<g id="edge30" class="edge"><title>Node13&#45;&gt;Node4</title>
<path fill="none" stroke="midnightblue" d="M688.354,-65.5884C589.251,-55.2316 292.778,-24.2489 196.536,-14.1912"/>
<polygon fill="midnightblue" stroke="midnightblue" points="196.888,-10.7089 186.578,-13.1505 196.16,-17.671 196.888,-10.7089"/>
</g>
<!-- Node14 -->
<g id="node28" class="node"><title>Node14</title>
<polygon fill="white" stroke="#bfbfbf" points="696.5,-0.5 696.5,-21.5 745.5,-21.5 745.5,-0.5 696.5,-0.5"/>
<text text-anchor="middle" x="721" y="-8.5" font-family="Helvetica,sans-Serif" font-size="10.00">cstddef</text>
</g>
<!-- Node13&#45;&gt;Node14 -->
<g id="edge28" class="edge"><title>Node13&#45;&gt;Node14</title>
<path fill="none" stroke="midnightblue" d="M721,-58.3619C721,-50.9219 721,-40.7427 721,-31.7276"/>
<polygon fill="midnightblue" stroke="midnightblue" points="724.5,-31.5706 721,-21.5707 717.5,-31.5707 724.5,-31.5706"/>
</g>
<!-- Node15&#45;&gt;Node4 -->
<g id="edge36" class="edge"><title>Node15&#45;&gt;Node4</title>
<path fill="none" stroke="midnightblue" d="M273.11,-116.295C252.826,-96.3545 209.067,-53.337 184.214,-28.9056"/>
<polygon fill="midnightblue" stroke="midnightblue" points="186.448,-26.1937 176.863,-21.6792 181.541,-31.1856 186.448,-26.1937"/>
</g>
<!-- Node15&#45;&gt;Node16 -->
<g id="edge38" class="edge"><title>Node15&#45;&gt;Node16</title>
<path fill="none" stroke="midnightblue" d="M306.093,-116.497C325.234,-107.397 353.146,-94.1273 374.605,-83.9253"/>
<polygon fill="midnightblue" stroke="midnightblue" points="376.13,-87.0758 383.659,-79.6212 373.125,-80.7539 376.13,-87.0758"/>
</g>
<!-- Node17&#45;&gt;Node3 -->
<g id="edge44" class="edge"><title>Node17&#45;&gt;Node3</title>
<path fill="none" stroke="midnightblue" d="M652.138,-116.323C655.606,-101.504 663.769,-74.6486 680,-58 685.772,-52.0798 728.897,-33.0981 756.899,-21.1457"/>
<polygon fill="midnightblue" stroke="midnightblue" points="758.597,-24.2272 766.434,-17.0974 755.861,-17.7839 758.597,-24.2272"/>
</g>
<!-- Node17&#45;&gt;Node4 -->
<g id="edge42" class="edge"><title>Node17&#45;&gt;Node4</title>
<path fill="none" stroke="midnightblue" d="M622.192,-116.402C582.348,-101.553 506.477,-74.5269 440,-58 352.981,-36.3663 247.957,-21.3791 196.891,-14.7852"/>
<polygon fill="midnightblue" stroke="midnightblue" points="197.201,-11.2965 186.84,-13.5062 196.318,-18.2405 197.201,-11.2965"/>
</g>
<!-- Node17&#45;&gt;Node13 -->
<g id="edge46" class="edge"><title>Node17&#45;&gt;Node13</title>
<path fill="none" stroke="midnightblue" d="M663.022,-116.362C673.431,-107.859 688.219,-95.7785 700.255,-85.9466"/>
<polygon fill="midnightblue" stroke="midnightblue" points="702.53,-88.6077 708.06,-79.5707 698.101,-83.1866 702.53,-88.6077"/>
</g>
<!-- Node19&#45;&gt;Node12 -->
<g id="edge62" class="edge"><title>Node19&#45;&gt;Node12</title>
<path fill="none" stroke="midnightblue" d="M698.013,-232.362C691.175,-224.268 681.598,-212.932 673.528,-203.38"/>
<polygon fill="midnightblue" stroke="midnightblue" points="676.058,-200.951 666.93,-195.571 670.71,-205.468 676.058,-200.951"/>
</g>
<!-- Node19&#45;&gt;Node13 -->
<g id="edge64" class="edge"><title>Node19&#45;&gt;Node13</title>
<path fill="none" stroke="midnightblue" d="M707.855,-232.377C710.114,-204.293 716.279,-127.673 719.294,-90.2027"/>
<polygon fill="midnightblue" stroke="midnightblue" points="722.807,-90.1762 720.121,-79.9277 715.83,-89.6148 722.807,-90.1762"/>
</g>
</g>
</svg>
