<?xml version="1.0" encoding="UTF-8" standalone="no"?>
<!DOCTYPE svg PUBLIC "-//W3C//DTD SVG 1.1//EN"
 "http://www.w3.org/Graphics/SVG/1.1/DTD/svg11.dtd">
<!-- Generated by graphviz version 2.26.3 (20100126.1600)
 -->
<!-- Title: G Pages: 1 -->
<svg width="1393pt" height="146pt"
 viewBox="0.00 0.00 1393.00 146.00" xmlns="http://www.w3.org/2000/svg" xmlns:xlink="http://www.w3.org/1999/xlink">
<g id="graph1" class="graph" transform="scale(1 1) rotate(0) translate(4 142)">
<title>G</title>
<polygon fill="white" stroke="white" points="-4,5 -4,-142 1390,-142 1390,5 -4,5"/>
<!-- Node1 -->
<g id="node1" class="node"><title>Node1</title>
<polygon fill="#bfbfbf" stroke="black" points="729,-116.5 729,-137.5 1141,-137.5 1141,-116.5 729,-116.5"/>
<text text-anchor="middle" x="935" y="-124.5" font-family="Helvetica,sans-Serif" font-size="10.00">/mnt/sshfs/imperialroot/homes/dk3810/workingcopies/disaggregate/src/PowerStateGraph.h</text>
</g>
<!-- Node2 -->
<g id="node3" class="node"><title>Node2</title>
<a xlink:href="_device_8h.html" target="_top" xlink:title="/mnt/sshfs/imperialroot/homes/dk3810/workingcopies/disaggregate/src/Device.h">
<polygon fill="white" stroke="black" points="450.5,-58.5 450.5,-79.5 815.5,-79.5 815.5,-58.5 450.5,-58.5"/>
<text text-anchor="middle" x="633" y="-66.5" font-family="Helvetica,sans-Serif" font-size="10.00">/mnt/sshfs/imperialroot/homes/dk3810/workingcopies/disaggregate/src/Device.h</text>
</a>
</g>
<!-- Node1&#45;&gt;Node2 -->
<g id="edge2" class="edge"><title>Node1&#45;&gt;Node2</title>
<path fill="none" stroke="midnightblue" d="M870.434,-114.6C816.078,-104.161 739.192,-89.3945 687.792,-79.5231"/>
<polygon fill="midnightblue" stroke="midnightblue" points="869.829,-118.048 880.31,-116.497 871.15,-111.173 869.829,-118.048"/>
</g>
<!-- Node4 -->
<g id="node7" class="node"><title>Node4</title>
<a xlink:href="_main_8cpp.html" target="_top" xlink:title="/mnt/sshfs/imperialroot/homes/dk3810/workingcopies/disaggregate/src/Main.cpp">
<polygon fill="white" stroke="black" points="798,-0.5 798,-21.5 1164,-21.5 1164,-0.5 798,-0.5"/>
<text text-anchor="middle" x="981" y="-8.5" font-family="Helvetica,sans-Serif" font-size="10.00">/mnt/sshfs/imperialroot/homes/dk3810/workingcopies/disaggregate/src/Main.cpp</text>
</a>
</g>
<!-- Node1&#45;&gt;Node4 -->
<g id="edge10" class="edge"><title>Node1&#45;&gt;Node4</title>
<path fill="none" stroke="midnightblue" d="M939.232,-106.408C942.446,-92.4483 947.434,-73.7451 954,-58 959.433,-44.9719 967.769,-31.0749 973.74,-21.8001"/>
<polygon fill="midnightblue" stroke="midnightblue" points="935.756,-105.922 937.038,-116.439 942.594,-107.418 935.756,-105.922"/>
</g>
<!-- Node6 -->
<g id="node12" class="node"><title>Node6</title>
<a xlink:href="_power_state_graph_8cpp.html" target="_top" xlink:title="/mnt/sshfs/imperialroot/homes/dk3810/workingcopies/disaggregate/src/PowerStateGraph.cpp">
<polygon fill="white" stroke="black" points="963,-58.5 963,-79.5 1385,-79.5 1385,-58.5 963,-58.5"/>
<text text-anchor="middle" x="1174" y="-66.5" font-family="Helvetica,sans-Serif" font-size="10.00">/mnt/sshfs/imperialroot/homes/dk3810/workingcopies/disaggregate/src/PowerStateGraph.cpp</text>
</a>
</g>
<!-- Node1&#45;&gt;Node6 -->
<g id="edge12" class="edge"><title>Node1&#45;&gt;Node6</title>
<path fill="none" stroke="midnightblue" d="M988.253,-114.077C1031.13,-103.672 1090.64,-89.2306 1130.64,-79.5231"/>
<polygon fill="midnightblue" stroke="midnightblue" points="987.174,-110.737 978.281,-116.497 988.824,-117.54 987.174,-110.737"/>
</g>
<!-- Node3 -->
<g id="node5" class="node"><title>Node3</title>
<a xlink:href="_device_8cpp.html" target="_top" xlink:title="/mnt/sshfs/imperialroot/homes/dk3810/workingcopies/disaggregate/src/Device.cpp">
<polygon fill="white" stroke="black" points="0,-0.5 0,-21.5 376,-21.5 376,-0.5 0,-0.5"/>
<text text-anchor="middle" x="188" y="-8.5" font-family="Helvetica,sans-Serif" font-size="10.00">/mnt/sshfs/imperialroot/homes/dk3810/workingcopies/disaggregate/src/Device.cpp</text>
</a>
</g>
<!-- Node2&#45;&gt;Node3 -->
<g id="edge4" class="edge"><title>Node2&#45;&gt;Node3</title>
<path fill="none" stroke="midnightblue" d="M542.313,-57.1801C462.011,-46.7138 345.889,-31.5788 268.737,-21.5231"/>
<polygon fill="midnightblue" stroke="midnightblue" points="542.045,-60.6748 552.414,-58.4966 542.95,-53.7335 542.045,-60.6748"/>
</g>
<!-- Node2&#45;&gt;Node4 -->
<g id="edge6" class="edge"><title>Node2&#45;&gt;Node4</title>
<path fill="none" stroke="midnightblue" d="M706.234,-56.7943C768.932,-46.3447 858.264,-31.4559 917.862,-21.5231"/>
<polygon fill="midnightblue" stroke="midnightblue" points="705.309,-53.4002 696.02,-58.4966 706.46,-60.3049 705.309,-53.4002"/>
</g>
<!-- Node5 -->
<g id="node9" class="node"><title>Node5</title>
<a xlink:href="_signature_8cpp.html" target="_top" xlink:title="/mnt/sshfs/imperialroot/homes/dk3810/workingcopies/disaggregate/src/Signature.cpp">
<polygon fill="white" stroke="black" points="394,-0.5 394,-21.5 780,-21.5 780,-0.5 394,-0.5"/>
<text text-anchor="middle" x="587" y="-8.5" font-family="Helvetica,sans-Serif" font-size="10.00">/mnt/sshfs/imperialroot/homes/dk3810/workingcopies/disaggregate/src/Signature.cpp</text>
</a>
</g>
<!-- Node2&#45;&gt;Node5 -->
<g id="edge8" class="edge"><title>Node2&#45;&gt;Node5</title>
<path fill="none" stroke="midnightblue" d="M618.13,-50.2504C610.595,-40.75 601.724,-29.5651 595.384,-21.5707"/>
<polygon fill="midnightblue" stroke="midnightblue" points="615.607,-52.7018 624.563,-58.3619 621.091,-48.352 615.607,-52.7018"/>
</g>
</g>
</svg>
