<?xml version="1.0" encoding="UTF-8" standalone="no"?>
<!DOCTYPE svg PUBLIC "-//W3C//DTD SVG 1.1//EN"
 "http://www.w3.org/Graphics/SVG/1.1/DTD/svg11.dtd">
<!-- Generated by graphviz version 2.26.3 (20100126.1600)
 -->
<!-- Title: G Pages: 1 -->
<svg width="1462pt" height="494pt"
 viewBox="0.00 0.00 1462.00 494.00" xmlns="http://www.w3.org/2000/svg" xmlns:xlink="http://www.w3.org/1999/xlink">
<g id="graph1" class="graph" transform="scale(1 1) rotate(0) translate(4 490)">
<title>G</title>
<polygon fill="white" stroke="white" points="-4,5 -4,-490 1459,-490 1459,5 -4,5"/>
<!-- Node1 -->
<g id="node1" class="node"><title>Node1</title>
<polygon fill="#bfbfbf" stroke="black" points="156,-464.5 156,-485.5 568,-485.5 568,-464.5 156,-464.5"/>
<text text-anchor="middle" x="362" y="-472.5" font-family="Helvetica,sans-Serif" font-size="10.00">/mnt/sshfs/imperialroot/homes/dk3810/workingcopies/disaggregate/src/PowerStateGraph.h</text>
</g>
<!-- Node2 -->
<g id="node3" class="node"><title>Node2</title>
<polygon fill="white" stroke="#bfbfbf" points="0,-406.5 0,-427.5 152,-427.5 152,-406.5 0,-406.5"/>
<text text-anchor="middle" x="76" y="-414.5" font-family="Helvetica,sans-Serif" font-size="10.00">boost/graph/adjacency_list.hpp</text>
</g>
<!-- Node1&#45;&gt;Node2 -->
<g id="edge2" class="edge"><title>Node1&#45;&gt;Node2</title>
<path fill="none" stroke="midnightblue" d="M310.208,-464.497C261.765,-454.673 189.357,-439.988 137.89,-429.551"/>
<polygon fill="midnightblue" stroke="midnightblue" points="138.386,-426.08 127.89,-427.523 136.994,-432.941 138.386,-426.08"/>
</g>
<!-- Node3 -->
<g id="node5" class="node"><title>Node3</title>
<polygon fill="white" stroke="#bfbfbf" points="170,-406.5 170,-427.5 214,-427.5 214,-406.5 170,-406.5"/>
<text text-anchor="middle" x="192" y="-414.5" font-family="Helvetica,sans-Serif" font-size="10.00">vector</text>
</g>
<!-- Node1&#45;&gt;Node3 -->
<g id="edge4" class="edge"><title>Node1&#45;&gt;Node3</title>
<path fill="none" stroke="midnightblue" d="M331.214,-464.497C300.869,-454.143 254.701,-438.392 223.957,-427.903"/>
<polygon fill="midnightblue" stroke="midnightblue" points="224.761,-424.479 214.167,-424.563 222.501,-431.104 224.761,-424.479"/>
</g>
<!-- Node4 -->
<g id="node7" class="node"><title>Node4</title>
<polygon fill="white" stroke="#bfbfbf" points="353.5,-0.5 353.5,-21.5 382.5,-21.5 382.5,-0.5 353.5,-0.5"/>
<text text-anchor="middle" x="368" y="-8.5" font-family="Helvetica,sans-Serif" font-size="10.00">list</text>
</g>
<!-- Node1&#45;&gt;Node4 -->
<g id="edge6" class="edge"><title>Node1&#45;&gt;Node4</title>
<path fill="none" stroke="midnightblue" d="M319.968,-464.482C299.501,-457.346 276.111,-445.869 261,-428 240.461,-403.712 242,-390.808 242,-359 242,-359 242,-359 242,-127 242,-72.3714 306.898,-36.4069 343.543,-20.4541"/>
<polygon fill="midnightblue" stroke="midnightblue" points="345.17,-23.5674 353.051,-16.4864 342.475,-17.1073 345.17,-23.5674"/>
</g>
<!-- Node5 -->
<g id="node9" class="node"><title>Node5</title>
<polygon fill="white" stroke="#bfbfbf" points="270,-406.5 270,-427.5 322,-427.5 322,-406.5 270,-406.5"/>
<text text-anchor="middle" x="296" y="-414.5" font-family="Helvetica,sans-Serif" font-size="10.00">ostream</text>
</g>
<!-- Node1&#45;&gt;Node5 -->
<g id="edge8" class="edge"><title>Node1&#45;&gt;Node5</title>
<path fill="none" stroke="midnightblue" d="M349.895,-464.362C340.312,-455.941 326.736,-444.011 315.607,-434.231"/>
<polygon fill="midnightblue" stroke="midnightblue" points="317.851,-431.543 308.029,-427.571 313.23,-436.801 317.851,-431.543"/>
</g>
<!-- Node6 -->
<g id="node11" class="node"><title>Node6</title>
<polygon fill="white" stroke="#bfbfbf" points="340,-406.5 340,-427.5 384,-427.5 384,-406.5 340,-406.5"/>
<text text-anchor="middle" x="362" y="-414.5" font-family="Helvetica,sans-Serif" font-size="10.00">time.h</text>
</g>
<!-- Node1&#45;&gt;Node6 -->
<g id="edge10" class="edge"><title>Node1&#45;&gt;Node6</title>
<path fill="none" stroke="midnightblue" d="M362,-464.362C362,-456.922 362,-446.743 362,-437.728"/>
<polygon fill="midnightblue" stroke="midnightblue" points="365.5,-437.571 362,-427.571 358.5,-437.571 365.5,-437.571"/>
</g>
<!-- Node7 -->
<g id="node13" class="node"><title>Node7</title>
<a xlink:href="_statistic_8h.html" target="_top" xlink:title="Statistic.h">
<polygon fill="white" stroke="black" points="824.5,-290.5 824.5,-311.5 885.5,-311.5 885.5,-290.5 824.5,-290.5"/>
<text text-anchor="middle" x="855" y="-298.5" font-family="Helvetica,sans-Serif" font-size="10.00">Statistic.h</text>
</a>
</g>
<!-- Node1&#45;&gt;Node7 -->
<g id="edge12" class="edge"><title>Node1&#45;&gt;Node7</title>
<path fill="none" stroke="midnightblue" d="M408.554,-464.499C445.369,-455.816 497.898,-442.579 543,-428 610.618,-406.143 626.162,-396.743 692,-370 736.895,-351.764 788.327,-329.814 821.209,-315.644"/>
<polygon fill="midnightblue" stroke="midnightblue" points="822.996,-318.685 830.79,-311.509 820.222,-312.258 822.996,-318.685"/>
</g>
<!-- Node16 -->
<g id="node31" class="node"><title>Node16</title>
<a xlink:href="_common_8h.html" target="_top" xlink:title="Common.h">
<polygon fill="white" stroke="black" points="468.5,-58.5 468.5,-79.5 533.5,-79.5 533.5,-58.5 468.5,-58.5"/>
<text text-anchor="middle" x="501" y="-66.5" font-family="Helvetica,sans-Serif" font-size="10.00">Common.h</text>
</a>
</g>
<!-- Node1&#45;&gt;Node16 -->
<g id="edge70" class="edge"><title>Node1&#45;&gt;Node16</title>
<path fill="none" stroke="midnightblue" d="M373.035,-464.38C386.026,-450.538 404.469,-425.764 393,-406 376.813,-378.107 354,-391.54 330,-370 301.815,-344.704 280,-338.872 280,-301 280,-301 280,-301 280,-243 280,-153.075 394.353,-102.488 458.544,-81.1749"/>
<polygon fill="midnightblue" stroke="midnightblue" points="459.945,-84.401 468.391,-78.0042 457.799,-77.7379 459.945,-84.401"/>
</g>
<!-- Node23 -->
<g id="node59" class="node"><title>Node23</title>
<a xlink:href="_signature_8h.html" target="_top" xlink:title="Signature.h">
<polygon fill="white" stroke="black" points="468,-406.5 468,-427.5 534,-427.5 534,-406.5 468,-406.5"/>
<text text-anchor="middle" x="501" y="-414.5" font-family="Helvetica,sans-Serif" font-size="10.00">Signature.h</text>
</a>
</g>
<!-- Node1&#45;&gt;Node23 -->
<g id="edge72" class="edge"><title>Node1&#45;&gt;Node23</title>
<path fill="none" stroke="midnightblue" d="M387.172,-464.497C409.273,-455.275 441.639,-441.769 466.213,-431.515"/>
<polygon fill="midnightblue" stroke="midnightblue" points="467.665,-434.702 475.546,-427.621 464.969,-428.242 467.665,-434.702"/>
</g>
<!-- Node25 -->
<g id="node72" class="node"><title>Node25</title>
<a xlink:href="_aggregate_data_8h.html" target="_top" xlink:title="AggregateData.h">
<polygon fill="white" stroke="black" points="1237,-348.5 1237,-369.5 1327,-369.5 1327,-348.5 1237,-348.5"/>
<text text-anchor="middle" x="1282" y="-356.5" font-family="Helvetica,sans-Serif" font-size="10.00">AggregateData.h</text>
</a>
</g>
<!-- Node1&#45;&gt;Node25 -->
<g id="edge94" class="edge"><title>Node1&#45;&gt;Node25</title>
<path fill="none" stroke="midnightblue" d="M469.426,-464.497C557.959,-455.589 686.753,-442.05 799,-428 954.387,-408.551 1137.24,-381.207 1226.85,-367.515"/>
<polygon fill="midnightblue" stroke="midnightblue" points="1227.43,-370.967 1236.79,-365.994 1226.37,-364.047 1227.43,-370.967"/>
</g>
<!-- Node8 -->
<g id="node15" class="node"><title>Node8</title>
<polygon fill="white" stroke="#bfbfbf" points="702.5,-0.5 702.5,-21.5 743.5,-21.5 743.5,-0.5 702.5,-0.5"/>
<text text-anchor="middle" x="723" y="-8.5" font-family="Helvetica,sans-Serif" font-size="10.00">string</text>
</g>
<!-- Node7&#45;&gt;Node8 -->
<g id="edge14" class="edge"><title>Node7&#45;&gt;Node8</title>
<path fill="none" stroke="midnightblue" d="M885.542,-299.969C961.475,-296.939 1156.66,-286.152 1212,-254 1274.9,-217.456 1346.61,-171.852 1300,-116 1229.13,-31.0749 862.955,-14.6711 753.765,-11.6513"/>
<polygon fill="midnightblue" stroke="midnightblue" points="753.819,-8.15167 743.732,-11.3922 753.639,-15.1493 753.819,-8.15167"/>
</g>
<!-- Node9 -->
<g id="node17" class="node"><title>Node9</title>
<polygon fill="white" stroke="#bfbfbf" points="1019.5,-116.5 1019.5,-137.5 1068.5,-137.5 1068.5,-116.5 1019.5,-116.5"/>
<text text-anchor="middle" x="1044" y="-124.5" font-family="Helvetica,sans-Serif" font-size="10.00">cassert</text>
</g>
<!-- Node7&#45;&gt;Node9 -->
<g id="edge16" class="edge"><title>Node7&#45;&gt;Node9</title>
<path fill="none" stroke="midnightblue" d="M885.501,-298.673C960.765,-292.624 1150.58,-275.377 1169,-254 1205.91,-211.151 1126.36,-164.735 1077.86,-141.698"/>
<polygon fill="midnightblue" stroke="midnightblue" points="1079.16,-138.444 1068.62,-137.411 1076.21,-144.794 1079.16,-138.444"/>
</g>
<!-- Node10 -->
<g id="node19" class="node"><title>Node10</title>
<polygon fill="white" stroke="#bfbfbf" points="1116,-232.5 1116,-253.5 1160,-253.5 1160,-232.5 1116,-232.5"/>
<text text-anchor="middle" x="1138" y="-240.5" font-family="Helvetica,sans-Serif" font-size="10.00">cmath</text>
</g>
<!-- Node7&#45;&gt;Node10 -->
<g id="edge18" class="edge"><title>Node7&#45;&gt;Node10</title>
<path fill="none" stroke="midnightblue" d="M885.601,-296.873C931.6,-290.331 1021.37,-276.245 1106.02,-253.966"/>
<polygon fill="midnightblue" stroke="midnightblue" points="1107.03,-257.32 1115.78,-251.354 1105.22,-250.558 1107.03,-257.32"/>
</g>
<!-- Node11 -->
<g id="node21" class="node"><title>Node11</title>
<polygon fill="white" stroke="#bfbfbf" points="1237,-116.5 1237,-137.5 1291,-137.5 1291,-116.5 1237,-116.5"/>
<text text-anchor="middle" x="1264" y="-124.5" font-family="Helvetica,sans-Serif" font-size="10.00">iostream</text>
</g>
<!-- Node7&#45;&gt;Node11 -->
<g id="edge20" class="edge"><title>Node7&#45;&gt;Node11</title>
<path fill="none" stroke="midnightblue" d="M885.724,-299.964C958.26,-297.001 1137.74,-286.499 1187,-254 1225.55,-228.566 1247.85,-176.551 1257.77,-147.602"/>
<polygon fill="midnightblue" stroke="midnightblue" points="1261.21,-148.332 1260.97,-137.74 1254.55,-146.17 1261.21,-148.332"/>
</g>
<!-- Node12 -->
<g id="node23" class="node"><title>Node12</title>
<polygon fill="white" stroke="#bfbfbf" points="662,-232.5 662,-253.5 850,-253.5 850,-232.5 662,-232.5"/>
<text text-anchor="middle" x="756" y="-240.5" font-family="Helvetica,sans-Serif" font-size="10.00">boost/math/distributions/students_t.hpp</text>
</g>
<!-- Node7&#45;&gt;Node12 -->
<g id="edge22" class="edge"><title>Node7&#45;&gt;Node12</title>
<path fill="none" stroke="midnightblue" d="M836.842,-290.362C821.77,-281.532 800.113,-268.844 783.007,-258.822"/>
<polygon fill="midnightblue" stroke="midnightblue" points="784.441,-255.606 774.043,-253.571 780.902,-261.646 784.441,-255.606"/>
</g>
<!-- Node13 -->
<g id="node25" class="node"><title>Node13</title>
<polygon fill="white" stroke="#bfbfbf" points="868,-232.5 868,-253.5 1040,-253.5 1040,-232.5 868,-232.5"/>
<text text-anchor="middle" x="954" y="-240.5" font-family="Helvetica,sans-Serif" font-size="10.00">boost/math/distributions/normal.hpp</text>
</g>
<!-- Node7&#45;&gt;Node13 -->
<g id="edge24" class="edge"><title>Node7&#45;&gt;Node13</title>
<path fill="none" stroke="midnightblue" d="M873.158,-290.362C888.23,-281.532 909.887,-268.844 926.993,-258.822"/>
<polygon fill="midnightblue" stroke="midnightblue" points="929.098,-261.646 935.957,-253.571 925.559,-255.606 929.098,-261.646"/>
</g>
<!-- Node14 -->
<g id="node27" class="node"><title>Node14</title>
<polygon fill="white" stroke="#bfbfbf" points="1058,-232.5 1058,-253.5 1098,-253.5 1098,-232.5 1058,-232.5"/>
<text text-anchor="middle" x="1078" y="-240.5" font-family="Helvetica,sans-Serif" font-size="10.00">limits</text>
</g>
<!-- Node7&#45;&gt;Node14 -->
<g id="edge26" class="edge"><title>Node7&#45;&gt;Node14</title>
<path fill="none" stroke="midnightblue" d="M885.562,-294.832C922.177,-287.174 985.488,-273.085 1048.18,-253.998"/>
<polygon fill="midnightblue" stroke="midnightblue" points="1049.31,-257.314 1057.83,-251.019 1047.24,-250.625 1049.31,-257.314"/>
</g>
<!-- Node15 -->
<g id="node29" class="node"><title>Node15</title>
<a xlink:href="_array_8h.html" target="_top" xlink:title="Array.h">
<polygon fill="white" stroke="black" points="656,-174.5 656,-195.5 704,-195.5 704,-174.5 656,-174.5"/>
<text text-anchor="middle" x="680" y="-182.5" font-family="Helvetica,sans-Serif" font-size="10.00">Array.h</text>
</a>
</g>
<!-- Node7&#45;&gt;Node15 -->
<g id="edge28" class="edge"><title>Node7&#45;&gt;Node15</title>
<path fill="none" stroke="midnightblue" d="M824.269,-298.424C773.121,-293.429 674.047,-280.506 653,-254 641.231,-239.179 651.907,-218.603 663.117,-203.783"/>
<polygon fill="midnightblue" stroke="midnightblue" points="666.011,-205.773 669.613,-195.809 660.584,-201.351 666.011,-205.773"/>
</g>
<!-- Node7&#45;&gt;Node16 -->
<g id="edge62" class="edge"><title>Node7&#45;&gt;Node16</title>
<path fill="none" stroke="midnightblue" d="M824.482,-296.71C773.419,-289.128 673.28,-272.41 643,-254 575.672,-213.066 528.648,-127.457 509.966,-88.7521"/>
<polygon fill="midnightblue" stroke="midnightblue" points="513.068,-87.1226 505.643,-79.5648 506.734,-90.1033 513.068,-87.1226"/>
</g>
<!-- Node22 -->
<g id="node54" class="node"><title>Node22</title>
<a xlink:href="_histogram_8h.html" target="_top" xlink:title="Histogram.h">
<polygon fill="white" stroke="black" points="460,-232.5 460,-253.5 530,-253.5 530,-232.5 460,-232.5"/>
<text text-anchor="middle" x="495" y="-240.5" font-family="Helvetica,sans-Serif" font-size="10.00">Histogram.h</text>
</a>
</g>
<!-- Node7&#45;&gt;Node22 -->
<g id="edge64" class="edge"><title>Node7&#45;&gt;Node22</title>
<path fill="none" stroke="midnightblue" d="M824.42,-297.11C768.534,-289.839 646.242,-273.177 544,-254 542.723,-253.76 541.428,-253.511 540.122,-253.255"/>
<polygon fill="midnightblue" stroke="midnightblue" points="540.502,-249.76 530.001,-251.174 539.092,-256.616 540.502,-249.76"/>
</g>
<!-- Node15&#45;&gt;Node4 -->
<g id="edge60" class="edge"><title>Node15&#45;&gt;Node4</title>
<path fill="none" stroke="midnightblue" d="M655.52,-178.467C628.059,-170.674 582.573,-156.364 546,-138 504.8,-117.312 497.564,-106.728 460,-80 435.564,-62.6132 408.13,-41.8743 389.629,-27.7031"/>
<polygon fill="midnightblue" stroke="midnightblue" points="391.621,-24.8198 381.558,-21.5038 387.357,-30.3711 391.621,-24.8198"/>
</g>
<!-- Node15&#45;&gt;Node9 -->
<g id="edge58" class="edge"><title>Node15&#45;&gt;Node9</title>
<path fill="none" stroke="midnightblue" d="M704.165,-181.15C766.972,-171.142 935.562,-144.279 1009,-132.576"/>
<polygon fill="midnightblue" stroke="midnightblue" points="1009.8,-135.994 1019.12,-130.964 1008.7,-129.081 1009.8,-135.994"/>
</g>
<!-- Node15&#45;&gt;Node11 -->
<g id="edge52" class="edge"><title>Node15&#45;&gt;Node11</title>
<path fill="none" stroke="midnightblue" d="M704.35,-182.582C795.437,-173.535 1116.49,-141.65 1226.61,-130.714"/>
<polygon fill="midnightblue" stroke="midnightblue" points="1227.28,-134.164 1236.89,-129.693 1226.59,-127.198 1227.28,-134.164"/>
</g>
<!-- Node15&#45;&gt;Node16 -->
<g id="edge30" class="edge"><title>Node15&#45;&gt;Node16</title>
<path fill="none" stroke="midnightblue" d="M655.591,-176.333C633.998,-168.103 602.112,-154.547 577,-138 554.902,-123.439 532.868,-102.553 518.259,-87.5799"/>
<polygon fill="midnightblue" stroke="midnightblue" points="520.397,-84.7517 510.954,-79.9474 515.34,-89.5918 520.397,-84.7517"/>
</g>
<!-- Node18 -->
<g id="node37" class="node"><title>Node18</title>
<a xlink:href="_utils_8h.html" target="_top" xlink:title="Utils.h">
<polygon fill="white" stroke="black" points="767.5,-116.5 767.5,-137.5 812.5,-137.5 812.5,-116.5 767.5,-116.5"/>
<text text-anchor="middle" x="790" y="-124.5" font-family="Helvetica,sans-Serif" font-size="10.00">Utils.h</text>
</a>
</g>
<!-- Node15&#45;&gt;Node18 -->
<g id="edge38" class="edge"><title>Node15&#45;&gt;Node18</title>
<path fill="none" stroke="midnightblue" d="M699.92,-174.497C716.946,-165.519 741.669,-152.484 760.909,-142.339"/>
<polygon fill="midnightblue" stroke="midnightblue" points="762.643,-145.381 769.856,-137.621 759.378,-139.189 762.643,-145.381"/>
</g>
<!-- Node19 -->
<g id="node40" class="node"><title>Node19</title>
<polygon fill="white" stroke="#bfbfbf" points="835,-58.5 835,-79.5 885,-79.5 885,-58.5 835,-58.5"/>
<text text-anchor="middle" x="860" y="-66.5" font-family="Helvetica,sans-Serif" font-size="10.00">fstream</text>
</g>
<!-- Node15&#45;&gt;Node19 -->
<g id="edge54" class="edge"><title>Node15&#45;&gt;Node19</title>
<path fill="none" stroke="midnightblue" d="M704.251,-182.294C734.568,-177.801 786.644,-166.3 821,-138 836.447,-125.276 846.93,-104.739 853.104,-89.3737"/>
<polygon fill="midnightblue" stroke="midnightblue" points="856.488,-90.3144 856.697,-79.7216 849.928,-87.8718 856.488,-90.3144"/>
</g>
<!-- Node20 -->
<g id="node42" class="node"><title>Node20</title>
<a xlink:href="_g_n_uplot_8h.html" target="_top" xlink:title="GNUplot.h">
<polygon fill="white" stroke="black" points="585.5,-116.5 585.5,-137.5 648.5,-137.5 648.5,-116.5 585.5,-116.5"/>
<text text-anchor="middle" x="617" y="-124.5" font-family="Helvetica,sans-Serif" font-size="10.00">GNUplot.h</text>
</a>
</g>
<!-- Node15&#45;&gt;Node20 -->
<g id="edge44" class="edge"><title>Node15&#45;&gt;Node20</title>
<path fill="none" stroke="midnightblue" d="M668.445,-174.362C659.387,-166.023 646.59,-154.242 636.026,-144.516"/>
<polygon fill="midnightblue" stroke="midnightblue" points="638.21,-141.769 628.482,-137.571 633.468,-146.919 638.21,-141.769"/>
</g>
<!-- Node21 -->
<g id="node49" class="node"><title>Node21</title>
<polygon fill="white" stroke="#bfbfbf" points="704,-116.5 704,-137.5 750,-137.5 750,-116.5 704,-116.5"/>
<text text-anchor="middle" x="727" y="-124.5" font-family="Helvetica,sans-Serif" font-size="10.00">cstdint</text>
</g>
<!-- Node15&#45;&gt;Node21 -->
<g id="edge56" class="edge"><title>Node15&#45;&gt;Node21</title>
<path fill="none" stroke="midnightblue" d="M688.621,-174.362C695.18,-166.268 704.366,-154.932 712.106,-145.38"/>
<polygon fill="midnightblue" stroke="midnightblue" points="714.858,-147.544 718.434,-137.571 709.419,-143.136 714.858,-147.544"/>
</g>
<!-- Node16&#45;&gt;Node4 -->
<g id="edge36" class="edge"><title>Node16&#45;&gt;Node4</title>
<path fill="none" stroke="midnightblue" d="M476.915,-58.4966C452.942,-48.0422 416.347,-32.0837 392.299,-21.5966"/>
<polygon fill="midnightblue" stroke="midnightblue" points="393.4,-18.2584 382.835,-17.4692 390.602,-24.6748 393.4,-18.2584"/>
</g>
<!-- Node16&#45;&gt;Node8 -->
<g id="edge34" class="edge"><title>Node16&#45;&gt;Node8</title>
<path fill="none" stroke="midnightblue" d="M533.757,-60.4419C576.564,-49.2579 650.961,-29.821 692.581,-18.9474"/>
<polygon fill="midnightblue" stroke="midnightblue" points="693.626,-22.2918 702.417,-16.3776 691.857,-15.5191 693.626,-22.2918"/>
</g>
<!-- Node17 -->
<g id="node33" class="node"><title>Node17</title>
<polygon fill="white" stroke="#bfbfbf" points="476.5,-0.5 476.5,-21.5 525.5,-21.5 525.5,-0.5 476.5,-0.5"/>
<text text-anchor="middle" x="501" y="-8.5" font-family="Helvetica,sans-Serif" font-size="10.00">cstddef</text>
</g>
<!-- Node16&#45;&gt;Node17 -->
<g id="edge32" class="edge"><title>Node16&#45;&gt;Node17</title>
<path fill="none" stroke="midnightblue" d="M501,-58.3619C501,-50.9219 501,-40.7427 501,-31.7276"/>
<polygon fill="midnightblue" stroke="midnightblue" points="504.5,-31.5706 501,-21.5707 497.5,-31.5707 504.5,-31.5706"/>
</g>
<!-- Node18&#45;&gt;Node8 -->
<g id="edge40" class="edge"><title>Node18&#45;&gt;Node8</title>
<path fill="none" stroke="midnightblue" d="M783.817,-116.295C772.549,-96.7861 748.523,-55.1884 734.273,-30.5177"/>
<polygon fill="midnightblue" stroke="midnightblue" points="737.201,-28.588 729.168,-21.6792 731.139,-32.0891 737.201,-28.588"/>
</g>
<!-- Node18&#45;&gt;Node19 -->
<g id="edge42" class="edge"><title>Node18&#45;&gt;Node19</title>
<path fill="none" stroke="midnightblue" d="M802.839,-116.362C813.002,-107.941 827.401,-96.0105 839.204,-86.2308"/>
<polygon fill="midnightblue" stroke="midnightblue" points="841.775,-88.6459 847.242,-79.5707 837.309,-83.2558 841.775,-88.6459"/>
</g>
<!-- Node20&#45;&gt;Node4 -->
<g id="edge48" class="edge"><title>Node20&#45;&gt;Node4</title>
<path fill="none" stroke="midnightblue" d="M608.469,-116.432C595.639,-101.241 569.891,-73.3742 542,-58 493.287,-31.1481 428.328,-18.9253 393.173,-13.9624"/>
<polygon fill="midnightblue" stroke="midnightblue" points="393.237,-10.4404 382.864,-12.5968 392.318,-17.3798 393.237,-10.4404"/>
</g>
<!-- Node20&#45;&gt;Node8 -->
<g id="edge46" class="edge"><title>Node20&#45;&gt;Node8</title>
<path fill="none" stroke="midnightblue" d="M622.431,-116.412C630.052,-102.166 644.914,-76.4839 662,-58 672.558,-46.578 686.118,-35.8304 697.772,-27.5034"/>
<polygon fill="midnightblue" stroke="midnightblue" points="700.008,-30.2118 706.23,-21.6364 696.018,-24.4601 700.008,-30.2118"/>
</g>
<!-- Node20&#45;&gt;Node16 -->
<g id="edge50" class="edge"><title>Node20&#45;&gt;Node16</title>
<path fill="none" stroke="midnightblue" d="M595.993,-116.497C577.957,-107.479 551.73,-94.3649 531.401,-84.2006"/>
<polygon fill="midnightblue" stroke="midnightblue" points="532.752,-80.9629 522.242,-79.6212 529.621,-87.2239 532.752,-80.9629"/>
</g>
<!-- Node22&#45;&gt;Node15 -->
<g id="edge66" class="edge"><title>Node22&#45;&gt;Node15</title>
<path fill="none" stroke="midnightblue" d="M528.502,-232.497C561.812,-222.053 612.641,-206.118 646.093,-195.63"/>
<polygon fill="midnightblue" stroke="midnightblue" points="647.383,-198.894 655.878,-192.563 645.288,-192.215 647.383,-198.894"/>
</g>
<!-- Node22&#45;&gt;Node16 -->
<g id="edge68" class="edge"><title>Node22&#45;&gt;Node16</title>
<path fill="none" stroke="midnightblue" d="M495.366,-232.377C496.335,-204.293 498.977,-127.673 500.269,-90.2027"/>
<polygon fill="midnightblue" stroke="midnightblue" points="503.776,-90.0424 500.623,-79.9277 496.781,-89.8011 503.776,-90.0424"/>
</g>
<!-- Node23&#45;&gt;Node4 -->
<g id="edge90" class="edge"><title>Node23&#45;&gt;Node4</title>
<path fill="none" stroke="midnightblue" d="M467.985,-413.181C436.47,-408.053 389.154,-396.317 357,-370 329.741,-347.688 318,-336.226 318,-301 318,-301 318,-301 318,-243 318,-163.194 346.623,-71.3423 360.556,-31.3578"/>
<polygon fill="midnightblue" stroke="midnightblue" points="363.857,-32.5214 363.908,-21.9267 357.261,-30.1768 363.857,-32.5214"/>
</g>
<!-- Node23&#45;&gt;Node7 -->
<g id="edge78" class="edge"><title>Node23&#45;&gt;Node7</title>
<path fill="none" stroke="midnightblue" d="M533.354,-406.398C598.101,-385.182 743.47,-337.547 814.452,-314.287"/>
<polygon fill="midnightblue" stroke="midnightblue" points="815.954,-317.478 824.367,-311.038 813.774,-310.826 815.954,-317.478"/>
</g>
<!-- Node23&#45;&gt;Node15 -->
<g id="edge74" class="edge"><title>Node23&#45;&gt;Node15</title>
<path fill="none" stroke="midnightblue" d="M509.276,-406.121C531.056,-377.514 591.811,-297.851 643,-232 650.266,-222.653 658.398,-212.311 665.184,-203.713"/>
<polygon fill="midnightblue" stroke="midnightblue" points="667.984,-205.814 671.439,-195.798 662.492,-201.473 667.984,-205.814"/>
</g>
<!-- Node23&#45;&gt;Node16 -->
<g id="edge76" class="edge"><title>Node23&#45;&gt;Node16</title>
<path fill="none" stroke="midnightblue" d="M467.936,-413.094C439.415,-407.991 399.119,-396.349 375,-370 353.523,-346.537 356,-332.808 356,-301 356,-301 356,-301 356,-243 356,-170.281 431.667,-111.824 473.679,-84.9714"/>
<polygon fill="midnightblue" stroke="midnightblue" points="475.702,-87.835 482.341,-79.5778 472.002,-81.8929 475.702,-87.835"/>
</g>
<!-- Node23&#45;&gt;Node19 -->
<g id="edge92" class="edge"><title>Node23&#45;&gt;Node19</title>
<path fill="none" stroke="midnightblue" d="M534.39,-412.425C659,-394.889 1095.65,-329.163 1212,-254 1266.36,-218.884 1279.37,-199.335 1300,-138 1303.12,-128.733 1306.54,-123.272 1300,-116 1273.09,-86.0598 995.258,-73.6393 895.454,-70.1212"/>
<polygon fill="midnightblue" stroke="midnightblue" points="895.389,-66.6169 885.275,-69.7716 895.149,-73.6128 895.389,-66.6169"/>
</g>
<!-- Node23&#45;&gt;Node22 -->
<g id="edge88" class="edge"><title>Node23&#45;&gt;Node22</title>
<path fill="none" stroke="midnightblue" d="M503.953,-406.276C506.397,-396.816 509.673,-382.611 511,-370 514.97,-332.266 506.528,-288.375 500.464,-263.323"/>
<polygon fill="midnightblue" stroke="midnightblue" points="503.828,-262.352 497.976,-253.52 497.043,-264.074 503.828,-262.352"/>
</g>
<!-- Node24 -->
<g id="node64" class="node"><title>Node24</title>
<a xlink:href="_power_state_sequence_8h.html" target="_top" xlink:title="PowerStateSequence.h">
<polygon fill="white" stroke="black" points="383.5,-348.5 383.5,-369.5 502.5,-369.5 502.5,-348.5 383.5,-348.5"/>
<text text-anchor="middle" x="443" y="-356.5" font-family="Helvetica,sans-Serif" font-size="10.00">PowerStateSequence.h</text>
</a>
</g>
<!-- Node23&#45;&gt;Node24 -->
<g id="edge80" class="edge"><title>Node23&#45;&gt;Node24</title>
<path fill="none" stroke="midnightblue" d="M490.362,-406.362C482.104,-398.104 470.472,-386.472 460.803,-376.803"/>
<polygon fill="midnightblue" stroke="midnightblue" points="463.117,-374.167 453.571,-369.571 458.167,-379.117 463.117,-374.167"/>
</g>
<!-- Node24&#45;&gt;Node4 -->
<g id="edge82" class="edge"><title>Node24&#45;&gt;Node4</title>
<path fill="none" stroke="midnightblue" d="M435.979,-348.252C430.268,-339.009 422.449,-325.13 418,-312 383.615,-210.532 372.353,-81.5229 369.14,-31.8189"/>
<polygon fill="midnightblue" stroke="midnightblue" points="372.625,-31.4686 368.528,-21.6979 365.638,-31.8908 372.625,-31.4686"/>
</g>
<!-- Node24&#45;&gt;Node7 -->
<g id="edge86" class="edge"><title>Node24&#45;&gt;Node7</title>
<path fill="none" stroke="midnightblue" d="M502.908,-350.566C587.889,-338.603 741.207,-317.019 814.216,-306.741"/>
<polygon fill="midnightblue" stroke="midnightblue" points="814.973,-310.169 824.387,-305.31 813.997,-303.238 814.973,-310.169"/>
</g>
<!-- Node24&#45;&gt;Node8 -->
<g id="edge84" class="edge"><title>Node24&#45;&gt;Node8</title>
<path fill="none" stroke="midnightblue" d="M440.306,-348.302C435.066,-324.868 426.074,-268.215 451,-232 508.057,-149.101 584.041,-207.317 657,-138 688.806,-107.781 708.134,-58.8345 717.067,-31.3675"/>
<polygon fill="midnightblue" stroke="midnightblue" points="720.458,-32.2469 720.079,-21.6588 713.773,-30.1723 720.458,-32.2469"/>
</g>
<!-- Node25&#45;&gt;Node7 -->
<g id="edge98" class="edge"><title>Node25&#45;&gt;Node7</title>
<path fill="none" stroke="midnightblue" d="M1236.71,-352.848C1153.1,-341.492 975.788,-317.407 895.732,-306.533"/>
<polygon fill="midnightblue" stroke="midnightblue" points="895.934,-303.028 885.554,-305.15 894.992,-309.964 895.934,-303.028"/>
</g>
<!-- Node25&#45;&gt;Node8 -->
<g id="edge100" class="edge"><title>Node25&#45;&gt;Node8</title>
<path fill="none" stroke="midnightblue" d="M1327.19,-349.252C1378.15,-335.292 1454,-304.23 1454,-243 1454,-243 1454,-243 1454,-127 1454,-54.9838 893.434,-20.1422 754.076,-12.5932"/>
<polygon fill="midnightblue" stroke="midnightblue" points="753.872,-9.07744 743.7,-12.0397 753.499,-16.0675 753.872,-9.07744"/>
</g>
<!-- Node25&#45;&gt;Node11 -->
<g id="edge102" class="edge"><title>Node25&#45;&gt;Node11</title>
<path fill="none" stroke="midnightblue" d="M1281.18,-348.429C1278.4,-312.648 1269.33,-195.663 1265.61,-147.748"/>
<polygon fill="midnightblue" stroke="midnightblue" points="1269.09,-147.333 1264.83,-137.634 1262.11,-147.874 1269.09,-147.333"/>
</g>
<!-- Node25&#45;&gt;Node15 -->
<g id="edge96" class="edge"><title>Node25&#45;&gt;Node15</title>
<path fill="none" stroke="midnightblue" d="M1276.34,-348.411C1262.17,-323.087 1222.42,-259.119 1169,-232 1128.61,-211.495 818.47,-192.654 714.128,-186.837"/>
<polygon fill="midnightblue" stroke="midnightblue" points="714.303,-183.342 704.125,-186.285 713.916,-190.331 714.303,-183.342"/>
</g>
<!-- Node25&#45;&gt;Node19 -->
<g id="edge104" class="edge"><title>Node25&#45;&gt;Node19</title>
<path fill="none" stroke="midnightblue" d="M1300.39,-348.284C1326.52,-331.851 1373.31,-297.69 1392,-254 1411.69,-207.974 1409.56,-160.433 1354,-116 1318.3,-87.4549 1002.33,-73.9382 895.282,-70.1494"/>
<polygon fill="midnightblue" stroke="midnightblue" points="895.127,-66.642 885.012,-69.7932 894.884,-73.6378 895.127,-66.642"/>
</g>
</g>
</svg>
