<?xml version="1.0" encoding="UTF-8" standalone="no"?>
<!DOCTYPE svg PUBLIC "-//W3C//DTD SVG 1.1//EN"
 "http://www.w3.org/Graphics/SVG/1.1/DTD/svg11.dtd">
<!-- Generated by graphviz version 2.26.3 (20100126.1600)
 -->
<!-- Title: G Pages: 1 -->
<svg width="922pt" height="436pt"
 viewBox="0.00 0.00 922.36 436.00" xmlns="http://www.w3.org/2000/svg" xmlns:xlink="http://www.w3.org/1999/xlink">
<g id="graph1" class="graph" transform="scale(1 1) rotate(0) translate(4 432)">
<title>G</title>
<polygon fill="white" stroke="white" points="-4,5 -4,-432 919.363,-432 919.363,5 -4,5"/>
<!-- Node1 -->
<g id="node1" class="node"><title>Node1</title>
<polygon fill="#bfbfbf" stroke="black" points="0,-406.5 0,-427.5 376,-427.5 376,-406.5 0,-406.5"/>
<text text-anchor="middle" x="188" y="-414.5" font-family="Helvetica,sans-Serif" font-size="10.00">/mnt/sshfs/imperialroot/homes/dk3810/workingcopies/disaggregate/src/Signature.h</text>
</g>
<!-- Node2 -->
<g id="node3" class="node"><title>Node2</title>
<a xlink:href="_array_8h.html" target="_top" xlink:title="Array.h">
<polygon fill="white" stroke="black" points="230,-174.5 230,-195.5 278,-195.5 278,-174.5 230,-174.5"/>
<text text-anchor="middle" x="254" y="-182.5" font-family="Helvetica,sans-Serif" font-size="10.00">Array.h</text>
</a>
</g>
<!-- Node1&#45;&gt;Node2 -->
<g id="edge2" class="edge"><title>Node1&#45;&gt;Node2</title>
<path fill="none" stroke="midnightblue" d="M180.251,-406.405C159.368,-376.45 105.985,-289.583 144,-232 160.693,-206.714 194.088,-194.984 219.724,-189.571"/>
<polygon fill="midnightblue" stroke="midnightblue" points="220.634,-192.962 229.815,-187.675 219.341,-186.082 220.634,-192.962"/>
</g>
<!-- Node3 -->
<g id="node5" class="node"><title>Node3</title>
<a xlink:href="_common_8h.html" target="_top" xlink:title="Common.h">
<polygon fill="white" stroke="black" points="543.5,-58.5 543.5,-79.5 608.5,-79.5 608.5,-58.5 543.5,-58.5"/>
<text text-anchor="middle" x="576" y="-66.5" font-family="Helvetica,sans-Serif" font-size="10.00">Common.h</text>
</a>
</g>
<!-- Node1&#45;&gt;Node3 -->
<g id="edge36" class="edge"><title>Node1&#45;&gt;Node3</title>
<path fill="none" stroke="midnightblue" d="M315.599,-406.485C497.381,-388.456 816.255,-344.491 882,-254 890.089,-242.866 895.849,-203.089 879,-174 855.149,-132.822 832.926,-134.304 789,-116 732.692,-92.5365 662.91,-79.992 618.906,-73.9154"/>
<polygon fill="midnightblue" stroke="midnightblue" points="619.214,-70.4256 608.84,-72.5763 618.291,-77.3645 619.214,-70.4256"/>
</g>
<!-- Node6 -->
<g id="node11" class="node"><title>Node6</title>
<polygon fill="white" stroke="#bfbfbf" points="72.5,-0.5 72.5,-21.5 101.5,-21.5 101.5,-0.5 72.5,-0.5"/>
<text text-anchor="middle" x="87" y="-8.5" font-family="Helvetica,sans-Serif" font-size="10.00">list</text>
</g>
<!-- Node1&#45;&gt;Node6 -->
<g id="edge74" class="edge"><title>Node1&#45;&gt;Node6</title>
<path fill="none" stroke="midnightblue" d="M136.804,-406.428C84.5294,-392.287 11,-361.622 11,-301 11,-301 11,-301 11,-127 11,-86.5104 43.7975,-49.1585 66.3017,-28.2949"/>
<polygon fill="midnightblue" stroke="midnightblue" points="68.6399,-30.8993 73.7618,-21.6247 63.9742,-25.681 68.6399,-30.8993"/>
</g>
<!-- Node8 -->
<g id="node16" class="node"><title>Node8</title>
<polygon fill="white" stroke="#bfbfbf" points="229,-58.5 229,-79.5 279,-79.5 279,-58.5 229,-58.5"/>
<text text-anchor="middle" x="254" y="-66.5" font-family="Helvetica,sans-Serif" font-size="10.00">fstream</text>
</g>
<!-- Node1&#45;&gt;Node8 -->
<g id="edge76" class="edge"><title>Node1&#45;&gt;Node8</title>
<path fill="none" stroke="midnightblue" d="M175.029,-406.31C165.167,-397.521 151.978,-384.236 144,-370 113.883,-316.259 119.252,-292.474 131,-232 141.399,-178.466 136.127,-157.927 171,-116 183.747,-100.675 202.858,-89.3699 219.529,-81.6932"/>
<polygon fill="midnightblue" stroke="midnightblue" points="221.214,-84.7778 228.997,-77.5895 218.43,-78.3552 221.214,-84.7778"/>
</g>
<!-- Node13 -->
<g id="node32" class="node"><title>Node13</title>
<a xlink:href="_statistic_8h.html" target="_top" xlink:title="Statistic.h">
<polygon fill="white" stroke="black" points="482.5,-290.5 482.5,-311.5 543.5,-311.5 543.5,-290.5 482.5,-290.5"/>
<text text-anchor="middle" x="513" y="-298.5" font-family="Helvetica,sans-Serif" font-size="10.00">Statistic.h</text>
</a>
</g>
<!-- Node1&#45;&gt;Node13 -->
<g id="edge38" class="edge"><title>Node1&#45;&gt;Node13</title>
<path fill="none" stroke="midnightblue" d="M217.703,-406.398C276.577,-385.385 408.058,-338.456 473.884,-314.961"/>
<polygon fill="midnightblue" stroke="midnightblue" points="475.242,-318.193 483.483,-311.535 472.889,-311.6 475.242,-318.193"/>
</g>
<!-- Node18 -->
<g id="node47" class="node"><title>Node18</title>
<a xlink:href="_histogram_8h.html" target="_top" xlink:title="Histogram.h">
<polygon fill="white" stroke="black" points="153,-232.5 153,-253.5 223,-253.5 223,-232.5 153,-232.5"/>
<text text-anchor="middle" x="188" y="-240.5" font-family="Helvetica,sans-Serif" font-size="10.00">Histogram.h</text>
</a>
</g>
<!-- Node1&#45;&gt;Node18 -->
<g id="edge72" class="edge"><title>Node1&#45;&gt;Node18</title>
<path fill="none" stroke="midnightblue" d="M188,-406.377C188,-378.293 188,-301.673 188,-264.203"/>
<polygon fill="midnightblue" stroke="midnightblue" points="191.5,-263.928 188,-253.928 184.5,-263.928 191.5,-263.928"/>
</g>
<!-- Node19 -->
<g id="node51" class="node"><title>Node19</title>
<a xlink:href="_power_state_sequence_8h.html" target="_top" xlink:title="PowerStateSequence.h">
<polygon fill="white" stroke="black" points="397.5,-348.5 397.5,-369.5 516.5,-369.5 516.5,-348.5 397.5,-348.5"/>
<text text-anchor="middle" x="457" y="-356.5" font-family="Helvetica,sans-Serif" font-size="10.00">PowerStateSequence.h</text>
</a>
</g>
<!-- Node1&#45;&gt;Node19 -->
<g id="edge64" class="edge"><title>Node1&#45;&gt;Node19</title>
<path fill="none" stroke="midnightblue" d="M236.714,-406.497C282.087,-396.714 349.814,-382.111 398.182,-371.682"/>
<polygon fill="midnightblue" stroke="midnightblue" points="399.157,-375.052 408.195,-369.523 397.682,-368.209 399.157,-375.052"/>
</g>
<!-- Node2&#45;&gt;Node3 -->
<g id="edge4" class="edge"><title>Node2&#45;&gt;Node3</title>
<path fill="none" stroke="midnightblue" d="M278.203,-179.827C310.401,-172.532 368.757,-157.862 416,-138 434.346,-130.287 437.012,-124.513 455,-116 481.407,-103.502 512.099,-91.6091 535.963,-82.9136"/>
<polygon fill="midnightblue" stroke="midnightblue" points="537.189,-86.1923 545.409,-79.5083 534.815,-79.6071 537.189,-86.1923"/>
</g>
<!-- Node2&#45;&gt;Node6 -->
<g id="edge34" class="edge"><title>Node2&#45;&gt;Node6</title>
<path fill="none" stroke="midnightblue" d="M229.881,-175.055C212.182,-166.928 188.313,-154.156 171,-138 136.896,-106.175 109.897,-57.8836 96.4118,-30.9463"/>
<polygon fill="midnightblue" stroke="midnightblue" points="99.4522,-29.1961 91.9185,-21.7467 93.1624,-32.2683 99.4522,-29.1961"/>
</g>
<!-- Node7 -->
<g id="node13" class="node"><title>Node7</title>
<a xlink:href="_utils_8h.html" target="_top" xlink:title="Utils.h">
<polygon fill="white" stroke="black" points="281.5,-116.5 281.5,-137.5 326.5,-137.5 326.5,-116.5 281.5,-116.5"/>
<text text-anchor="middle" x="304" y="-124.5" font-family="Helvetica,sans-Serif" font-size="10.00">Utils.h</text>
</a>
</g>
<!-- Node2&#45;&gt;Node7 -->
<g id="edge12" class="edge"><title>Node2&#45;&gt;Node7</title>
<path fill="none" stroke="midnightblue" d="M263.171,-174.362C270.148,-166.268 279.921,-154.932 288.156,-145.38"/>
<polygon fill="midnightblue" stroke="midnightblue" points="291.009,-147.43 294.887,-137.571 285.707,-142.859 291.009,-147.43"/>
</g>
<!-- Node2&#45;&gt;Node8 -->
<g id="edge28" class="edge"><title>Node2&#45;&gt;Node8</title>
<path fill="none" stroke="midnightblue" d="M254,-174.295C254,-155.131 254,-114.654 254,-89.8434"/>
<polygon fill="midnightblue" stroke="midnightblue" points="257.5,-89.6792 254,-79.6792 250.5,-89.6792 257.5,-89.6792"/>
</g>
<!-- Node9 -->
<g id="node18" class="node"><title>Node9</title>
<a xlink:href="_g_n_uplot_8h.html" target="_top" xlink:title="GNUplot.h">
<polygon fill="white" stroke="black" points="344.5,-116.5 344.5,-137.5 407.5,-137.5 407.5,-116.5 344.5,-116.5"/>
<text text-anchor="middle" x="376" y="-124.5" font-family="Helvetica,sans-Serif" font-size="10.00">GNUplot.h</text>
</a>
</g>
<!-- Node2&#45;&gt;Node9 -->
<g id="edge18" class="edge"><title>Node2&#45;&gt;Node9</title>
<path fill="none" stroke="midnightblue" d="M276.093,-174.497C295.234,-165.397 323.146,-152.127 344.605,-141.925"/>
<polygon fill="midnightblue" stroke="midnightblue" points="346.13,-145.076 353.659,-137.621 343.125,-138.754 346.13,-145.076"/>
</g>
<!-- Node10 -->
<g id="node23" class="node"><title>Node10</title>
<polygon fill="white" stroke="#bfbfbf" points="464,-116.5 464,-137.5 518,-137.5 518,-116.5 464,-116.5"/>
<text text-anchor="middle" x="491" y="-124.5" font-family="Helvetica,sans-Serif" font-size="10.00">iostream</text>
</g>
<!-- Node2&#45;&gt;Node10 -->
<g id="edge26" class="edge"><title>Node2&#45;&gt;Node10</title>
<path fill="none" stroke="midnightblue" d="M278.053,-179.363C314.906,-170.69 387.534,-153.455 449,-138 450.658,-137.583 452.353,-137.154 454.064,-136.717"/>
<polygon fill="midnightblue" stroke="midnightblue" points="455.099,-140.065 463.908,-134.179 453.351,-133.286 455.099,-140.065"/>
</g>
<!-- Node11 -->
<g id="node26" class="node"><title>Node11</title>
<polygon fill="white" stroke="#bfbfbf" points="180,-116.5 180,-137.5 226,-137.5 226,-116.5 180,-116.5"/>
<text text-anchor="middle" x="203" y="-124.5" font-family="Helvetica,sans-Serif" font-size="10.00">cstdint</text>
</g>
<!-- Node2&#45;&gt;Node11 -->
<g id="edge30" class="edge"><title>Node2&#45;&gt;Node11</title>
<path fill="none" stroke="midnightblue" d="M244.646,-174.362C237.457,-166.186 227.359,-154.702 218.907,-145.091"/>
<polygon fill="midnightblue" stroke="midnightblue" points="221.527,-142.769 212.295,-137.571 216.27,-147.392 221.527,-142.769"/>
</g>
<!-- Node12 -->
<g id="node28" class="node"><title>Node12</title>
<polygon fill="white" stroke="#bfbfbf" points="536.5,-116.5 536.5,-137.5 585.5,-137.5 585.5,-116.5 536.5,-116.5"/>
<text text-anchor="middle" x="561" y="-124.5" font-family="Helvetica,sans-Serif" font-size="10.00">cassert</text>
</g>
<!-- Node2&#45;&gt;Node12 -->
<g id="edge32" class="edge"><title>Node2&#45;&gt;Node12</title>
<path fill="none" stroke="midnightblue" d="M278.342,-181.995C324.749,-176.013 429.17,-161.349 526.26,-137.909"/>
<polygon fill="midnightblue" stroke="midnightblue" points="527.356,-141.244 536.235,-135.463 525.689,-134.445 527.356,-141.244"/>
</g>
<!-- Node4 -->
<g id="node7" class="node"><title>Node4</title>
<polygon fill="white" stroke="#bfbfbf" points="552.5,-0.5 552.5,-21.5 601.5,-21.5 601.5,-0.5 552.5,-0.5"/>
<text text-anchor="middle" x="577" y="-8.5" font-family="Helvetica,sans-Serif" font-size="10.00">cstddef</text>
</g>
<!-- Node3&#45;&gt;Node4 -->
<g id="edge6" class="edge"><title>Node3&#45;&gt;Node4</title>
<path fill="none" stroke="midnightblue" d="M576.183,-58.3619C576.312,-50.9219 576.487,-40.7427 576.643,-31.7276"/>
<polygon fill="midnightblue" stroke="midnightblue" points="580.145,-31.6295 576.818,-21.5707 573.146,-31.5088 580.145,-31.6295"/>
</g>
<!-- Node5 -->
<g id="node9" class="node"><title>Node5</title>
<polygon fill="white" stroke="#bfbfbf" points="494.5,-0.5 494.5,-21.5 535.5,-21.5 535.5,-0.5 494.5,-0.5"/>
<text text-anchor="middle" x="515" y="-8.5" font-family="Helvetica,sans-Serif" font-size="10.00">string</text>
</g>
<!-- Node3&#45;&gt;Node5 -->
<g id="edge8" class="edge"><title>Node3&#45;&gt;Node5</title>
<path fill="none" stroke="midnightblue" d="M564.812,-58.3619C556.041,-50.0226 543.651,-38.2418 533.422,-28.5162"/>
<polygon fill="midnightblue" stroke="midnightblue" points="535.776,-25.9248 526.117,-21.5707 530.953,-30.9978 535.776,-25.9248"/>
</g>
<!-- Node3&#45;&gt;Node6 -->
<g id="edge10" class="edge"><title>Node3&#45;&gt;Node6</title>
<path fill="none" stroke="midnightblue" d="M543.156,-65.1044C451.326,-54.2125 193.327,-23.6113 111.93,-13.9569"/>
<polygon fill="midnightblue" stroke="midnightblue" points="111.995,-10.4402 101.652,-12.7379 111.171,-17.3915 111.995,-10.4402"/>
</g>
<!-- Node7&#45;&gt;Node5 -->
<g id="edge14" class="edge"><title>Node7&#45;&gt;Node5</title>
<path fill="none" stroke="midnightblue" d="M323.472,-116.295C361.016,-95.6548 443.533,-50.2898 486.98,-26.4043"/>
<polygon fill="midnightblue" stroke="midnightblue" points="488.803,-29.3964 495.88,-21.5117 485.43,-23.2622 488.803,-29.3964"/>
</g>
<!-- Node7&#45;&gt;Node8 -->
<g id="edge16" class="edge"><title>Node7&#45;&gt;Node8</title>
<path fill="none" stroke="midnightblue" d="M294.829,-116.362C287.852,-108.268 278.079,-96.9318 269.844,-87.3796"/>
<polygon fill="midnightblue" stroke="midnightblue" points="272.293,-84.8595 263.113,-79.5707 266.991,-89.4301 272.293,-84.8595"/>
</g>
<!-- Node9&#45;&gt;Node3 -->
<g id="edge24" class="edge"><title>Node9&#45;&gt;Node3</title>
<path fill="none" stroke="midnightblue" d="M407.691,-117.81C441.765,-107.928 496.108,-92.1688 533.787,-81.2418"/>
<polygon fill="midnightblue" stroke="midnightblue" points="534.833,-84.5827 543.462,-78.4359 532.883,-77.8597 534.833,-84.5827"/>
</g>
<!-- Node9&#45;&gt;Node5 -->
<g id="edge20" class="edge"><title>Node9&#45;&gt;Node5</title>
<path fill="none" stroke="midnightblue" d="M388.828,-116.295C412.929,-96.1819 465.163,-52.5904 494.3,-28.2752"/>
<polygon fill="midnightblue" stroke="midnightblue" points="496.768,-30.7737 502.203,-21.6792 492.283,-25.3993 496.768,-30.7737"/>
</g>
<!-- Node9&#45;&gt;Node6 -->
<g id="edge22" class="edge"><title>Node9&#45;&gt;Node6</title>
<path fill="none" stroke="midnightblue" d="M365.668,-116.364C350.213,-101.088 319.507,-73.1162 288,-58 228.616,-29.5092 150.899,-17.7023 111.78,-13.3084"/>
<polygon fill="midnightblue" stroke="midnightblue" points="111.91,-9.80273 101.598,-12.2364 111.177,-16.7643 111.91,-9.80273"/>
</g>
<!-- Node13&#45;&gt;Node2 -->
<g id="edge54" class="edge"><title>Node13&#45;&gt;Node2</title>
<path fill="none" stroke="midnightblue" d="M482.425,-299.155C424.086,-295.002 300.01,-282.925 270,-254 257.176,-241.639 253.741,-221.177 253.177,-205.738"/>
<polygon fill="midnightblue" stroke="midnightblue" points="256.677,-205.573 253.179,-195.572 249.677,-205.571 256.677,-205.573"/>
</g>
<!-- Node13&#45;&gt;Node3 -->
<g id="edge56" class="edge"><title>Node13&#45;&gt;Node3</title>
<path fill="none" stroke="midnightblue" d="M543.585,-299.149C624.802,-293.925 841.124,-277.876 862,-254 940.854,-163.815 715.814,-100.515 618.463,-78.0237"/>
<polygon fill="midnightblue" stroke="midnightblue" points="619.153,-74.5914 608.626,-75.7898 617.603,-81.4176 619.153,-74.5914"/>
</g>
<!-- Node13&#45;&gt;Node5 -->
<g id="edge40" class="edge"><title>Node13&#45;&gt;Node5</title>
<path fill="none" stroke="midnightblue" d="M543.795,-299.373C628.42,-294.588 859.725,-279.292 882,-254 890.77,-244.042 897.647,-206.192 879,-174 855.149,-132.822 831.444,-137.518 789,-116 783.248,-113.084 615.088,-49.0577 545.105,-22.4433"/>
<polygon fill="midnightblue" stroke="midnightblue" points="546.114,-19.0826 535.523,-18.7998 543.626,-25.6255 546.114,-19.0826"/>
</g>
<!-- Node13&#45;&gt;Node10 -->
<g id="edge46" class="edge"><title>Node13&#45;&gt;Node10</title>
<path fill="none" stroke="midnightblue" d="M514.478,-290.199C515.701,-280.689 517.339,-266.455 518,-254 518.518,-244.236 519.227,-241.7 518,-232 514.198,-201.946 504.505,-168.18 497.83,-147.248"/>
<polygon fill="midnightblue" stroke="midnightblue" points="501.097,-145.977 494.663,-137.56 494.444,-148.152 501.097,-145.977"/>
</g>
<!-- Node13&#45;&gt;Node12 -->
<g id="edge42" class="edge"><title>Node13&#45;&gt;Node12</title>
<path fill="none" stroke="midnightblue" d="M518.187,-290.388C522.612,-281 528.892,-266.838 533,-254 544.747,-217.285 553.28,-173.053 557.66,-147.662"/>
<polygon fill="midnightblue" stroke="midnightblue" points="561.126,-148.154 559.329,-137.713 554.223,-146.996 561.126,-148.154"/>
</g>
<!-- Node14 -->
<g id="node36" class="node"><title>Node14</title>
<polygon fill="white" stroke="#bfbfbf" points="603,-232.5 603,-253.5 647,-253.5 647,-232.5 603,-232.5"/>
<text text-anchor="middle" x="625" y="-240.5" font-family="Helvetica,sans-Serif" font-size="10.00">cmath</text>
</g>
<!-- Node13&#45;&gt;Node14 -->
<g id="edge44" class="edge"><title>Node13&#45;&gt;Node14</title>
<path fill="none" stroke="midnightblue" d="M533.282,-290.497C550.618,-281.519 575.79,-268.484 595.38,-258.339"/>
<polygon fill="midnightblue" stroke="midnightblue" points="597.22,-261.328 604.49,-253.621 594.001,-255.112 597.22,-261.328"/>
</g>
<!-- Node15 -->
<g id="node39" class="node"><title>Node15</title>
<polygon fill="white" stroke="#bfbfbf" points="665,-232.5 665,-253.5 853,-253.5 853,-232.5 665,-232.5"/>
<text text-anchor="middle" x="759" y="-240.5" font-family="Helvetica,sans-Serif" font-size="10.00">boost/math/distributions/students_t.hpp</text>
</g>
<!-- Node13&#45;&gt;Node15 -->
<g id="edge48" class="edge"><title>Node13&#45;&gt;Node15</title>
<path fill="none" stroke="midnightblue" d="M543.659,-293.772C583.784,-284.311 654.806,-267.566 704.27,-255.904"/>
<polygon fill="midnightblue" stroke="midnightblue" points="705.239,-259.271 714.169,-253.57 703.633,-252.458 705.239,-259.271"/>
</g>
<!-- Node16 -->
<g id="node41" class="node"><title>Node16</title>
<polygon fill="white" stroke="#bfbfbf" points="279,-232.5 279,-253.5 451,-253.5 451,-232.5 279,-232.5"/>
<text text-anchor="middle" x="365" y="-240.5" font-family="Helvetica,sans-Serif" font-size="10.00">boost/math/distributions/normal.hpp</text>
</g>
<!-- Node13&#45;&gt;Node16 -->
<g id="edge50" class="edge"><title>Node13&#45;&gt;Node16</title>
<path fill="none" stroke="midnightblue" d="M486.198,-290.497C462.562,-281.234 427.9,-267.65 401.692,-257.379"/>
<polygon fill="midnightblue" stroke="midnightblue" points="402.69,-254.011 392.102,-253.621 400.136,-260.529 402.69,-254.011"/>
</g>
<!-- Node17 -->
<g id="node43" class="node"><title>Node17</title>
<polygon fill="white" stroke="#bfbfbf" points="469,-232.5 469,-253.5 509,-253.5 509,-232.5 469,-232.5"/>
<text text-anchor="middle" x="489" y="-240.5" font-family="Helvetica,sans-Serif" font-size="10.00">limits</text>
</g>
<!-- Node13&#45;&gt;Node17 -->
<g id="edge52" class="edge"><title>Node13&#45;&gt;Node17</title>
<path fill="none" stroke="midnightblue" d="M508.598,-290.362C505.418,-282.677 501.028,-272.069 497.21,-262.84"/>
<polygon fill="midnightblue" stroke="midnightblue" points="500.432,-261.473 493.374,-253.571 493.964,-264.149 500.432,-261.473"/>
</g>
<!-- Node13&#45;&gt;Node18 -->
<g id="edge58" class="edge"><title>Node13&#45;&gt;Node18</title>
<path fill="none" stroke="midnightblue" d="M482.273,-296.304C431.206,-288.379 325.699,-271.496 237,-254 235.725,-253.748 234.432,-253.489 233.128,-253.223"/>
<polygon fill="midnightblue" stroke="midnightblue" points="233.524,-249.73 223.017,-251.094 232.081,-256.58 233.524,-249.73"/>
</g>
<!-- Node18&#45;&gt;Node2 -->
<g id="edge60" class="edge"><title>Node18&#45;&gt;Node2</title>
<path fill="none" stroke="midnightblue" d="M200.105,-232.362C209.688,-223.941 223.264,-212.011 234.393,-202.231"/>
<polygon fill="midnightblue" stroke="midnightblue" points="236.77,-204.801 241.971,-195.571 232.149,-199.543 236.77,-204.801"/>
</g>
<!-- Node18&#45;&gt;Node3 -->
<g id="edge62" class="edge"><title>Node18&#45;&gt;Node3</title>
<path fill="none" stroke="midnightblue" d="M223.023,-236.467C317.285,-218.542 570.822,-167.935 594,-138 604.943,-123.867 597.818,-103.73 589.524,-88.8548"/>
<polygon fill="midnightblue" stroke="midnightblue" points="592.285,-86.6619 584.083,-79.9561 586.313,-90.3135 592.285,-86.6619"/>
</g>
<!-- Node19&#45;&gt;Node5 -->
<g id="edge68" class="edge"><title>Node19&#45;&gt;Node5</title>
<path fill="none" stroke="midnightblue" d="M516.832,-353.775C626.315,-342.842 851.992,-313.483 899,-254 941.641,-200.042 887.951,-151.418 829,-116 717.46,-48.9876 673.238,-61.8501 545.559,-22.2732"/>
<polygon fill="midnightblue" stroke="midnightblue" points="546.404,-18.8698 535.815,-19.2013 544.3,-25.546 546.404,-18.8698"/>
</g>
<!-- Node19&#45;&gt;Node6 -->
<g id="edge66" class="edge"><title>Node19&#45;&gt;Node6</title>
<path fill="none" stroke="midnightblue" d="M397.236,-354.493C283.91,-344.293 49,-314.523 49,-243 49,-243 49,-243 49,-127 49,-91.7411 65.0509,-53.3154 76.2892,-30.7323"/>
<polygon fill="midnightblue" stroke="midnightblue" points="79.4185,-32.3005 80.8946,-21.809 73.1981,-29.0901 79.4185,-32.3005"/>
</g>
<!-- Node19&#45;&gt;Node13 -->
<g id="edge70" class="edge"><title>Node19&#45;&gt;Node13</title>
<path fill="none" stroke="midnightblue" d="M467.271,-348.362C475.244,-340.104 486.475,-328.472 495.811,-318.803"/>
<polygon fill="midnightblue" stroke="midnightblue" points="498.366,-321.196 502.794,-311.571 493.33,-316.334 498.366,-321.196"/>
</g>
</g>
</svg>
