<?xml version="1.0" encoding="UTF-8" standalone="no"?>
<!DOCTYPE svg PUBLIC "-//W3C//DTD SVG 1.1//EN"
 "http://www.w3.org/Graphics/SVG/1.1/DTD/svg11.dtd">
<!-- Generated by graphviz version 2.26.3 (20100126.1600)
 -->
<!-- Title: G Pages: 1 -->
<svg width="1660pt" height="610pt"
 viewBox="0.00 0.00 1660.00 610.00" xmlns="http://www.w3.org/2000/svg" xmlns:xlink="http://www.w3.org/1999/xlink">
<g id="graph1" class="graph" transform="scale(1 1) rotate(0) translate(4 606)">
<title>G</title>
<polygon fill="white" stroke="white" points="-4,5 -4,-606 1657,-606 1657,5 -4,5"/>
<!-- Node1 -->
<g id="node1" class="node"><title>Node1</title>
<polygon fill="#bfbfbf" stroke="black" points="1051,-580.5 1051,-601.5 1437,-601.5 1437,-580.5 1051,-580.5"/>
<text text-anchor="middle" x="1244" y="-588.5" font-family="Helvetica,sans-Serif" font-size="10.00">/mnt/sshfs/imperialroot/homes/dk3810/workingcopies/disaggregate/src/Signature.cpp</text>
</g>
<!-- Node2 -->
<g id="node3" class="node"><title>Node2</title>
<a xlink:href="_signature_8h.html" target="_top" xlink:title="Signature.h">
<polygon fill="white" stroke="black" points="995,-406.5 995,-427.5 1061,-427.5 1061,-406.5 995,-406.5"/>
<text text-anchor="middle" x="1028" y="-414.5" font-family="Helvetica,sans-Serif" font-size="10.00">Signature.h</text>
</a>
</g>
<!-- Node1&#45;&gt;Node2 -->
<g id="edge2" class="edge"><title>Node1&#45;&gt;Node2</title>
<path fill="none" stroke="midnightblue" d="M1230.81,-580.377C1194.59,-551.195 1093.3,-469.607 1049.09,-433.992"/>
<polygon fill="midnightblue" stroke="midnightblue" points="1051.27,-431.252 1041.29,-427.705 1046.88,-436.704 1051.27,-431.252"/>
</g>
<!-- Node4 -->
<g id="node7" class="node"><title>Node4</title>
<a xlink:href="_common_8h.html" target="_top" xlink:title="Common.h">
<polygon fill="white" stroke="black" points="307.5,-58.5 307.5,-79.5 372.5,-79.5 372.5,-58.5 307.5,-58.5"/>
<text text-anchor="middle" x="340" y="-66.5" font-family="Helvetica,sans-Serif" font-size="10.00">Common.h</text>
</a>
</g>
<!-- Node1&#45;&gt;Node4 -->
<g id="edge80" class="edge"><title>Node1&#45;&gt;Node4</title>
<path fill="none" stroke="midnightblue" d="M1050.91,-587.233C727.186,-580.366 105.84,-564.6 62,-544 24.6859,-526.467 0,-516.228 0,-475 0,-475 0,-475 0,-301 0,-158.566 206.107,-97.2888 297.377,-77.1361"/>
<polygon fill="midnightblue" stroke="midnightblue" points="298.355,-80.506 307.399,-74.9871 296.888,-73.6615 298.355,-80.506"/>
</g>
<!-- Node7 -->
<g id="node13" class="node"><title>Node7</title>
<polygon fill="white" stroke="#bfbfbf" points="1320.5,-0.5 1320.5,-21.5 1349.5,-21.5 1349.5,-0.5 1320.5,-0.5"/>
<text text-anchor="middle" x="1335" y="-8.5" font-family="Helvetica,sans-Serif" font-size="10.00">list</text>
</g>
<!-- Node1&#45;&gt;Node7 -->
<g id="edge144" class="edge"><title>Node1&#45;&gt;Node7</title>
<path fill="none" stroke="midnightblue" d="M1311.56,-580.492C1337.53,-573.656 1365.96,-562.423 1387,-544 1449.44,-489.31 1478,-371.175 1478,-243 1478,-243 1478,-243 1478,-127 1478,-66.7143 1400.4,-32.2994 1359.53,-18.3544"/>
<polygon fill="midnightblue" stroke="midnightblue" points="1360.36,-14.9436 1349.76,-15.1744 1358.19,-21.5994 1360.36,-14.9436"/>
</g>
<!-- Node8 -->
<g id="node15" class="node"><title>Node8</title>
<a xlink:href="_utils_8h.html" target="_top" xlink:title="Utils.h">
<polygon fill="white" stroke="black" points="1101.5,-116.5 1101.5,-137.5 1146.5,-137.5 1146.5,-116.5 1101.5,-116.5"/>
<text text-anchor="middle" x="1124" y="-124.5" font-family="Helvetica,sans-Serif" font-size="10.00">Utils.h</text>
</a>
</g>
<!-- Node1&#45;&gt;Node8 -->
<g id="edge82" class="edge"><title>Node1&#45;&gt;Node8</title>
<path fill="none" stroke="midnightblue" d="M1268.86,-580.469C1304.01,-563.718 1364,-527.446 1364,-475 1364,-475 1364,-475 1364,-359 1364,-244.622 1221.35,-168.708 1156,-139.935"/>
<polygon fill="midnightblue" stroke="midnightblue" points="1157.15,-136.618 1146.58,-135.878 1154.38,-143.047 1157.15,-136.618"/>
</g>
<!-- Node9 -->
<g id="node18" class="node"><title>Node9</title>
<polygon fill="white" stroke="#bfbfbf" points="1149,-58.5 1149,-79.5 1199,-79.5 1199,-58.5 1149,-58.5"/>
<text text-anchor="middle" x="1174" y="-66.5" font-family="Helvetica,sans-Serif" font-size="10.00">fstream</text>
</g>
<!-- Node1&#45;&gt;Node9 -->
<g id="edge134" class="edge"><title>Node1&#45;&gt;Node9</title>
<path fill="none" stroke="midnightblue" d="M1284.69,-580.373C1331.5,-565.399 1402,-533.191 1402,-475 1402,-475 1402,-475 1402,-359 1402,-229.856 1260.54,-124.231 1200.47,-85.2015"/>
<polygon fill="midnightblue" stroke="midnightblue" points="1202.2,-82.1563 1191.89,-79.7231 1198.43,-88.0557 1202.2,-82.1563"/>
</g>
<!-- Node13 -->
<g id="node30" class="node"><title>Node13</title>
<polygon fill="white" stroke="#bfbfbf" points="391.5,-116.5 391.5,-137.5 440.5,-137.5 440.5,-116.5 391.5,-116.5"/>
<text text-anchor="middle" x="416" y="-124.5" font-family="Helvetica,sans-Serif" font-size="10.00">cassert</text>
</g>
<!-- Node1&#45;&gt;Node13 -->
<g id="edge140" class="edge"><title>Node1&#45;&gt;Node13</title>
<path fill="none" stroke="midnightblue" d="M1050.95,-589.248C754.148,-585.596 211.075,-574.763 127,-544 79.9968,-526.802 38,-525.051 38,-475 38,-475 38,-475 38,-301 38,-225.709 288.587,-157.673 381.703,-134.99"/>
<polygon fill="midnightblue" stroke="midnightblue" points="382.588,-138.377 391.49,-132.633 380.948,-131.572 382.588,-138.377"/>
</g>
<!-- Node14 -->
<g id="node34" class="node"><title>Node14</title>
<a xlink:href="_statistic_8h.html" target="_top" xlink:title="Statistic.h">
<polygon fill="white" stroke="black" points="509.5,-290.5 509.5,-311.5 570.5,-311.5 570.5,-290.5 509.5,-290.5"/>
<text text-anchor="middle" x="540" y="-298.5" font-family="Helvetica,sans-Serif" font-size="10.00">Statistic.h</text>
</a>
</g>
<!-- Node1&#45;&gt;Node14 -->
<g id="edge84" class="edge"><title>Node1&#45;&gt;Node14</title>
<path fill="none" stroke="midnightblue" d="M1050.82,-585.255C784.473,-574.705 337,-546.362 337,-475 337,-475 337,-475 337,-417 337,-343.096 439.68,-315.64 498.987,-305.945"/>
<polygon fill="midnightblue" stroke="midnightblue" points="499.814,-309.359 509.169,-304.384 498.754,-302.44 499.814,-309.359"/>
</g>
<!-- Node15 -->
<g id="node38" class="node"><title>Node15</title>
<polygon fill="white" stroke="#bfbfbf" points="306,-232.5 306,-253.5 350,-253.5 350,-232.5 306,-232.5"/>
<text text-anchor="middle" x="328" y="-240.5" font-family="Helvetica,sans-Serif" font-size="10.00">cmath</text>
</g>
<!-- Node1&#45;&gt;Node15 -->
<g id="edge142" class="edge"><title>Node1&#45;&gt;Node15</title>
<path fill="none" stroke="midnightblue" d="M1050.97,-584.295C828.324,-575.869 485.268,-560.499 427,-544 364.817,-526.392 299,-539.628 299,-475 299,-475 299,-475 299,-417 299,-360.87 313.865,-295.924 322.309,-263.556"/>
<polygon fill="midnightblue" stroke="midnightblue" points="325.693,-264.453 324.896,-253.888 318.93,-262.643 325.693,-264.453"/>
</g>
<!-- Node19 -->
<g id="node49" class="node"><title>Node19</title>
<a xlink:href="_histogram_8h.html" target="_top" xlink:title="Histogram.h">
<polygon fill="white" stroke="black" points="180,-232.5 180,-253.5 250,-253.5 250,-232.5 180,-232.5"/>
<text text-anchor="middle" x="215" y="-240.5" font-family="Helvetica,sans-Serif" font-size="10.00">Histogram.h</text>
</a>
</g>
<!-- Node1&#45;&gt;Node19 -->
<g id="edge132" class="edge"><title>Node1&#45;&gt;Node19</title>
<path fill="none" stroke="midnightblue" d="M1050.86,-587.255C822.55,-581.756 456.634,-569.282 322,-544 226.275,-526.025 114,-572.398 114,-475 114,-475 114,-475 114,-359 114,-314.473 156.852,-278.736 186.732,-259.231"/>
<polygon fill="midnightblue" stroke="midnightblue" points="188.92,-261.989 195.526,-253.706 185.196,-256.062 188.92,-261.989"/>
</g>
<!-- Node21 -->
<g id="node64" class="node"><title>Node21</title>
<a xlink:href="_device_8h.html" target="_top" xlink:title="Device.h">
<polygon fill="white" stroke="black" points="691,-522.5 691,-543.5 747,-543.5 747,-522.5 691,-522.5"/>
<text text-anchor="middle" x="719" y="-530.5" font-family="Helvetica,sans-Serif" font-size="10.00">Device.h</text>
</a>
</g>
<!-- Node1&#45;&gt;Node21 -->
<g id="edge86" class="edge"><title>Node1&#45;&gt;Node21</title>
<path fill="none" stroke="midnightblue" d="M1148.93,-580.497C1031.99,-567.578 838.981,-546.255 757.352,-537.237"/>
<polygon fill="midnightblue" stroke="midnightblue" points="757.371,-533.718 747.047,-536.099 756.602,-540.676 757.371,-533.718"/>
</g>
<!-- Node28 -->
<g id="node96" class="node"><title>Node28</title>
<polygon fill="white" stroke="#bfbfbf" points="1469.5,-522.5 1469.5,-543.5 1514.5,-543.5 1514.5,-522.5 1469.5,-522.5"/>
<text text-anchor="middle" x="1492" y="-530.5" font-family="Helvetica,sans-Serif" font-size="10.00">cstdlib</text>
</g>
<!-- Node1&#45;&gt;Node28 -->
<g id="edge136" class="edge"><title>Node1&#45;&gt;Node28</title>
<path fill="none" stroke="midnightblue" d="M1296.99,-580.456C1340.04,-571.6 1402.23,-558.153 1456,-544 1457.07,-543.717 1458.16,-543.423 1459.26,-543.122"/>
<polygon fill="midnightblue" stroke="midnightblue" points="1460.58,-546.384 1469.22,-540.254 1458.65,-539.658 1460.58,-546.384"/>
</g>
<!-- Node29 -->
<g id="node98" class="node"><title>Node29</title>
<polygon fill="white" stroke="#bfbfbf" points="1532,-522.5 1532,-543.5 1578,-543.5 1578,-522.5 1532,-522.5"/>
<text text-anchor="middle" x="1555" y="-530.5" font-family="Helvetica,sans-Serif" font-size="10.00">cstring</text>
</g>
<!-- Node1&#45;&gt;Node29 -->
<g id="edge138" class="edge"><title>Node1&#45;&gt;Node29</title>
<path fill="none" stroke="midnightblue" d="M1328.38,-580.465C1381.61,-572.961 1451.85,-561.49 1521.84,-544.006"/>
<polygon fill="midnightblue" stroke="midnightblue" points="1522.88,-547.353 1531.72,-541.499 1521.16,-540.568 1522.88,-547.353"/>
</g>
<!-- Node30 -->
<g id="node103" class="node"><title>Node30</title>
<polygon fill="white" stroke="#bfbfbf" points="1596,-522.5 1596,-543.5 1652,-543.5 1652,-522.5 1596,-522.5"/>
<text text-anchor="middle" x="1624" y="-530.5" font-family="Helvetica,sans-Serif" font-size="10.00">algorithm</text>
</g>
<!-- Node1&#45;&gt;Node30 -->
<g id="edge146" class="edge"><title>Node1&#45;&gt;Node30</title>
<path fill="none" stroke="midnightblue" d="M1352.11,-580.47C1417.42,-573.094 1502.39,-561.71 1585.92,-543.992"/>
<polygon fill="midnightblue" stroke="midnightblue" points="1586.79,-547.384 1595.83,-541.857 1585.32,-540.54 1586.79,-547.384"/>
</g>
<!-- Node3 -->
<g id="node5" class="node"><title>Node3</title>
<a xlink:href="_array_8h.html" target="_top" xlink:title="Array.h">
<polygon fill="white" stroke="black" points="680,-174.5 680,-195.5 728,-195.5 728,-174.5 680,-174.5"/>
<text text-anchor="middle" x="704" y="-182.5" font-family="Helvetica,sans-Serif" font-size="10.00">Array.h</text>
</a>
</g>
<!-- Node2&#45;&gt;Node3 -->
<g id="edge4" class="edge"><title>Node2&#45;&gt;Node3</title>
<path fill="none" stroke="midnightblue" d="M1027.88,-406.188C1026.88,-374.09 1019.27,-278.685 965,-232 931.509,-203.192 801.571,-191.164 738.598,-186.946"/>
<polygon fill="midnightblue" stroke="midnightblue" points="738.577,-183.438 728.373,-186.291 738.129,-190.423 738.577,-183.438"/>
</g>
<!-- Node2&#45;&gt;Node4 -->
<g id="edge38" class="edge"><title>Node2&#45;&gt;Node4</title>
<path fill="none" stroke="midnightblue" d="M994.649,-407.673C991.738,-407.039 988.826,-406.468 986,-406 766.192,-369.622 698.098,-438.215 486,-370 392.174,-339.823 345.128,-340.009 297,-254 266.386,-199.291 304.962,-123.804 326.842,-88.5775"/>
<polygon fill="midnightblue" stroke="midnightblue" points="330.045,-90.0668 332.499,-79.7601 324.153,-86.2867 330.045,-90.0668"/>
</g>
<!-- Node2&#45;&gt;Node7 -->
<g id="edge76" class="edge"><title>Node2&#45;&gt;Node7</title>
<path fill="none" stroke="midnightblue" d="M1061.36,-413.323C1112.44,-407.045 1206.65,-392.692 1231,-370 1331.1,-276.701 1336.85,-93.5155 1335.78,-31.8344"/>
<polygon fill="midnightblue" stroke="midnightblue" points="1339.27,-31.6863 1335.52,-21.7802 1332.27,-31.8673 1339.27,-31.6863"/>
</g>
<!-- Node2&#45;&gt;Node9 -->
<g id="edge78" class="edge"><title>Node2&#45;&gt;Node9</title>
<path fill="none" stroke="midnightblue" d="M1036.26,-406.115C1062.86,-370.266 1146.13,-251.686 1173,-138 1176.7,-122.333 1176.79,-104.102 1176.05,-90.3158"/>
<polygon fill="midnightblue" stroke="midnightblue" points="1179.51,-89.6495 1175.28,-79.9343 1172.52,-90.1649 1179.51,-89.6495"/>
</g>
<!-- Node2&#45;&gt;Node14 -->
<g id="edge40" class="edge"><title>Node2&#45;&gt;Node14</title>
<path fill="none" stroke="midnightblue" d="M994.549,-408.159C991.66,-407.419 988.78,-406.691 986,-406 836.947,-368.942 659.024,-328.054 580.569,-310.195"/>
<polygon fill="midnightblue" stroke="midnightblue" points="581.142,-306.736 570.615,-307.931 579.59,-313.561 581.142,-306.736"/>
</g>
<!-- Node2&#45;&gt;Node19 -->
<g id="edge74" class="edge"><title>Node2&#45;&gt;Node19</title>
<path fill="none" stroke="midnightblue" d="M994.654,-407.64C991.742,-407.013 988.828,-406.453 986,-406 727.906,-364.693 652.769,-432.611 399,-370 337.968,-354.942 319.653,-350.55 270,-312 252.163,-298.152 236.632,-277.374 226.665,-262.239"/>
<polygon fill="midnightblue" stroke="midnightblue" points="229.527,-260.216 221.208,-253.656 223.62,-263.973 229.527,-260.216"/>
</g>
<!-- Node20 -->
<g id="node53" class="node"><title>Node20</title>
<a xlink:href="_power_state_sequence_8h.html" target="_top" xlink:title="PowerStateSequence.h">
<polygon fill="white" stroke="black" points="1103.5,-348.5 1103.5,-369.5 1222.5,-369.5 1222.5,-348.5 1103.5,-348.5"/>
<text text-anchor="middle" x="1163" y="-356.5" font-family="Helvetica,sans-Serif" font-size="10.00">PowerStateSequence.h</text>
</a>
</g>
<!-- Node2&#45;&gt;Node20 -->
<g id="edge66" class="edge"><title>Node2&#45;&gt;Node20</title>
<path fill="none" stroke="midnightblue" d="M1052.45,-406.497C1073.82,-397.315 1105.07,-383.889 1128.9,-373.652"/>
<polygon fill="midnightblue" stroke="midnightblue" points="1130.47,-376.784 1138.28,-369.621 1127.71,-370.353 1130.47,-376.784"/>
</g>
<!-- Node3&#45;&gt;Node4 -->
<g id="edge6" class="edge"><title>Node3&#45;&gt;Node4</title>
<path fill="none" stroke="midnightblue" d="M679.835,-177.299C619.05,-157.928 459.184,-106.982 382.379,-82.5054"/>
<polygon fill="midnightblue" stroke="midnightblue" points="383.143,-79.0756 372.553,-79.3739 381.018,-85.7451 383.143,-79.0756"/>
</g>
<!-- Node3&#45;&gt;Node7 -->
<g id="edge36" class="edge"><title>Node3&#45;&gt;Node7</title>
<path fill="none" stroke="midnightblue" d="M728.471,-177.434C794.557,-157.095 982.285,-99.9519 1140,-58 1200.95,-41.7865 1273.27,-24.9888 1310.35,-16.5494"/>
<polygon fill="midnightblue" stroke="midnightblue" points="1311.28,-19.9275 1320.26,-14.3032 1309.74,-13.1007 1311.28,-19.9275"/>
</g>
<!-- Node3&#45;&gt;Node8 -->
<g id="edge14" class="edge"><title>Node3&#45;&gt;Node8</title>
<path fill="none" stroke="midnightblue" d="M728.285,-181.96C785.351,-174.771 932.426,-155.974 1055,-138 1066.85,-136.262 1079.83,-134.227 1091.3,-132.384"/>
<polygon fill="midnightblue" stroke="midnightblue" points="1092.02,-135.813 1101.34,-130.759 1090.9,-128.903 1092.02,-135.813"/>
</g>
<!-- Node3&#45;&gt;Node9 -->
<g id="edge30" class="edge"><title>Node3&#45;&gt;Node9</title>
<path fill="none" stroke="midnightblue" d="M728.255,-178.991C776.677,-166.998 888.775,-139.244 983,-116 1037.4,-102.58 1100.52,-87.056 1138.85,-77.6374"/>
<polygon fill="midnightblue" stroke="midnightblue" points="1140.09,-80.9351 1148.97,-75.1496 1138.42,-74.1374 1140.09,-80.9351"/>
</g>
<!-- Node10 -->
<g id="node20" class="node"><title>Node10</title>
<a xlink:href="_g_n_uplot_8h.html" target="_top" xlink:title="GNUplot.h">
<polygon fill="white" stroke="black" points="708.5,-116.5 708.5,-137.5 771.5,-137.5 771.5,-116.5 708.5,-116.5"/>
<text text-anchor="middle" x="740" y="-124.5" font-family="Helvetica,sans-Serif" font-size="10.00">GNUplot.h</text>
</a>
</g>
<!-- Node3&#45;&gt;Node10 -->
<g id="edge20" class="edge"><title>Node3&#45;&gt;Node10</title>
<path fill="none" stroke="midnightblue" d="M710.603,-174.362C715.475,-166.513 722.238,-155.616 728.05,-146.253"/>
<polygon fill="midnightblue" stroke="midnightblue" points="731.139,-147.913 733.439,-137.571 725.191,-144.221 731.139,-147.913"/>
</g>
<!-- Node11 -->
<g id="node25" class="node"><title>Node11</title>
<polygon fill="white" stroke="#bfbfbf" points="992,-116.5 992,-137.5 1046,-137.5 1046,-116.5 992,-116.5"/>
<text text-anchor="middle" x="1019" y="-124.5" font-family="Helvetica,sans-Serif" font-size="10.00">iostream</text>
</g>
<!-- Node3&#45;&gt;Node11 -->
<g id="edge28" class="edge"><title>Node3&#45;&gt;Node11</title>
<path fill="none" stroke="midnightblue" d="M728.337,-181.596C776.348,-174.711 886.543,-158.068 978,-138 979.255,-137.725 980.53,-137.436 981.815,-137.136"/>
<polygon fill="midnightblue" stroke="midnightblue" points="982.867,-140.482 991.739,-134.69 981.192,-133.685 982.867,-140.482"/>
</g>
<!-- Node12 -->
<g id="node28" class="node"><title>Node12</title>
<polygon fill="white" stroke="#bfbfbf" points="645,-116.5 645,-137.5 691,-137.5 691,-116.5 645,-116.5"/>
<text text-anchor="middle" x="668" y="-124.5" font-family="Helvetica,sans-Serif" font-size="10.00">cstdint</text>
</g>
<!-- Node3&#45;&gt;Node12 -->
<g id="edge32" class="edge"><title>Node3&#45;&gt;Node12</title>
<path fill="none" stroke="midnightblue" d="M697.397,-174.362C692.525,-166.513 685.762,-155.616 679.95,-146.253"/>
<polygon fill="midnightblue" stroke="midnightblue" points="682.809,-144.221 674.561,-137.571 676.861,-147.913 682.809,-144.221"/>
</g>
<!-- Node3&#45;&gt;Node13 -->
<g id="edge34" class="edge"><title>Node3&#45;&gt;Node13</title>
<path fill="none" stroke="midnightblue" d="M679.941,-180.155C628.927,-169.881 509.743,-145.879 450.581,-133.964"/>
<polygon fill="midnightblue" stroke="midnightblue" points="451.096,-130.498 440.601,-131.954 449.714,-137.36 451.096,-130.498"/>
</g>
<!-- Node5 -->
<g id="node9" class="node"><title>Node5</title>
<polygon fill="white" stroke="#bfbfbf" points="315.5,-0.5 315.5,-21.5 364.5,-21.5 364.5,-0.5 315.5,-0.5"/>
<text text-anchor="middle" x="340" y="-8.5" font-family="Helvetica,sans-Serif" font-size="10.00">cstddef</text>
</g>
<!-- Node4&#45;&gt;Node5 -->
<g id="edge8" class="edge"><title>Node4&#45;&gt;Node5</title>
<path fill="none" stroke="midnightblue" d="M340,-58.3619C340,-50.9219 340,-40.7427 340,-31.7276"/>
<polygon fill="midnightblue" stroke="midnightblue" points="343.5,-31.5706 340,-21.5707 336.5,-31.5707 343.5,-31.5706"/>
</g>
<!-- Node6 -->
<g id="node11" class="node"><title>Node6</title>
<polygon fill="white" stroke="#bfbfbf" points="719.5,-0.5 719.5,-21.5 760.5,-21.5 760.5,-0.5 719.5,-0.5"/>
<text text-anchor="middle" x="740" y="-8.5" font-family="Helvetica,sans-Serif" font-size="10.00">string</text>
</g>
<!-- Node4&#45;&gt;Node6 -->
<g id="edge10" class="edge"><title>Node4&#45;&gt;Node6</title>
<path fill="none" stroke="midnightblue" d="M372.734,-64.2536C448.493,-53.2685 635.066,-26.2154 709.051,-15.4876"/>
<polygon fill="midnightblue" stroke="midnightblue" points="709.729,-18.926 719.123,-14.0272 708.724,-11.9985 709.729,-18.926"/>
</g>
<!-- Node4&#45;&gt;Node7 -->
<g id="edge12" class="edge"><title>Node4&#45;&gt;Node7</title>
<path fill="none" stroke="midnightblue" d="M372.54,-67.1032C525.813,-58.1687 1174.01,-20.3844 1309.93,-12.4611"/>
<polygon fill="midnightblue" stroke="midnightblue" points="1310.38,-15.9411 1320.16,-11.865 1309.97,-8.95292 1310.38,-15.9411"/>
</g>
<!-- Node8&#45;&gt;Node6 -->
<g id="edge16" class="edge"><title>Node8&#45;&gt;Node6</title>
<path fill="none" stroke="midnightblue" d="M1108.74,-116.314C1086.1,-100.975 1041.76,-72.9269 1000,-58 920.323,-29.5181 820.475,-17.6793 770.895,-13.2869"/>
<polygon fill="midnightblue" stroke="midnightblue" points="771.079,-9.79011 760.821,-12.4366 770.491,-16.7653 771.079,-9.79011"/>
</g>
<!-- Node8&#45;&gt;Node9 -->
<g id="edge18" class="edge"><title>Node8&#45;&gt;Node9</title>
<path fill="none" stroke="midnightblue" d="M1133.17,-116.362C1140.15,-108.268 1149.92,-96.9318 1158.16,-87.3796"/>
<polygon fill="midnightblue" stroke="midnightblue" points="1161.01,-89.4301 1164.89,-79.5707 1155.71,-84.8595 1161.01,-89.4301"/>
</g>
<!-- Node10&#45;&gt;Node4 -->
<g id="edge26" class="edge"><title>Node10&#45;&gt;Node4</title>
<path fill="none" stroke="midnightblue" d="M708.219,-117.833C705.45,-117.164 702.683,-116.541 700,-116 586.517,-93.1028 450.559,-78.8677 382.794,-72.6519"/>
<polygon fill="midnightblue" stroke="midnightblue" points="382.792,-69.1375 372.518,-71.723 382.162,-76.1091 382.792,-69.1375"/>
</g>
<!-- Node10&#45;&gt;Node6 -->
<g id="edge22" class="edge"><title>Node10&#45;&gt;Node6</title>
<path fill="none" stroke="midnightblue" d="M740,-116.295C740,-97.1314 740,-56.654 740,-31.8434"/>
<polygon fill="midnightblue" stroke="midnightblue" points="743.5,-31.6792 740,-21.6792 736.5,-31.6792 743.5,-31.6792"/>
</g>
<!-- Node10&#45;&gt;Node7 -->
<g id="edge24" class="edge"><title>Node10&#45;&gt;Node7</title>
<path fill="none" stroke="midnightblue" d="M771.939,-120.517C832.937,-108.16 970.249,-80.4653 1086,-58 1168.19,-42.0487 1265.79,-23.8398 1310.46,-15.5451"/>
<polygon fill="midnightblue" stroke="midnightblue" points="1311.2,-18.9677 1320.4,-13.7024 1309.93,-12.0851 1311.2,-18.9677"/>
</g>
<!-- Node14&#45;&gt;Node3 -->
<g id="edge56" class="edge"><title>Node14&#45;&gt;Node3</title>
<path fill="none" stroke="midnightblue" d="M529.134,-290.265C515.876,-275.853 496.871,-249.983 511,-232 530.394,-207.316 619.807,-193.971 669.846,-188.321"/>
<polygon fill="midnightblue" stroke="midnightblue" points="670.323,-191.79 679.886,-187.23 669.567,-184.83 670.323,-191.79"/>
</g>
<!-- Node14&#45;&gt;Node4 -->
<g id="edge58" class="edge"><title>Node14&#45;&gt;Node4</title>
<path fill="none" stroke="midnightblue" d="M525.563,-290.479C513.441,-281.374 495.921,-267.57 482,-254 433.467,-206.687 423.035,-192.691 383,-138 371.213,-121.898 359.331,-102.537 351.053,-88.4277"/>
<polygon fill="midnightblue" stroke="midnightblue" points="353.983,-86.5035 345.944,-79.6031 347.926,-90.011 353.983,-86.5035"/>
</g>
<!-- Node14&#45;&gt;Node6 -->
<g id="edge42" class="edge"><title>Node14&#45;&gt;Node6</title>
<path fill="none" stroke="midnightblue" d="M570.693,-299.922C663.869,-296.338 938.722,-283.344 965,-254 1044.45,-165.279 848.017,-61.0389 770.142,-24.4807"/>
<polygon fill="midnightblue" stroke="midnightblue" points="771.376,-21.1952 760.831,-20.1679 768.434,-27.5469 771.376,-21.1952"/>
</g>
<!-- Node14&#45;&gt;Node11 -->
<g id="edge48" class="edge"><title>Node14&#45;&gt;Node11</title>
<path fill="none" stroke="midnightblue" d="M570.6,-300.439C673.835,-298.234 1004.61,-288.511 1036,-254 1062.66,-224.69 1043.99,-174.682 1030.16,-146.97"/>
<polygon fill="midnightblue" stroke="midnightblue" points="1033.13,-145.08 1025.38,-137.848 1026.93,-148.33 1033.13,-145.08"/>
</g>
<!-- Node14&#45;&gt;Node13 -->
<g id="edge44" class="edge"><title>Node14&#45;&gt;Node13</title>
<path fill="none" stroke="midnightblue" d="M530.982,-290.377C523.11,-280.982 511.494,-266.816 502,-254 474.453,-216.813 444.672,-171.584 428.386,-146.372"/>
<polygon fill="midnightblue" stroke="midnightblue" points="431.192,-144.264 422.838,-137.748 425.305,-148.051 431.192,-144.264"/>
</g>
<!-- Node14&#45;&gt;Node15 -->
<g id="edge46" class="edge"><title>Node14&#45;&gt;Node15</title>
<path fill="none" stroke="midnightblue" d="M509.386,-293.177C474.203,-284.106 414.777,-268.533 364,-254 362.586,-253.595 361.143,-253.177 359.686,-252.75"/>
<polygon fill="midnightblue" stroke="midnightblue" points="360.631,-249.38 350.048,-249.873 358.629,-256.087 360.631,-249.38"/>
</g>
<!-- Node16 -->
<g id="node41" class="node"><title>Node16</title>
<polygon fill="white" stroke="#bfbfbf" points="578,-232.5 578,-253.5 766,-253.5 766,-232.5 578,-232.5"/>
<text text-anchor="middle" x="672" y="-240.5" font-family="Helvetica,sans-Serif" font-size="10.00">boost/math/distributions/students_t.hpp</text>
</g>
<!-- Node14&#45;&gt;Node16 -->
<g id="edge50" class="edge"><title>Node14&#45;&gt;Node16</title>
<path fill="none" stroke="midnightblue" d="M563.904,-290.497C584.8,-281.315 615.356,-267.889 638.655,-257.652"/>
<polygon fill="midnightblue" stroke="midnightblue" points="640.08,-260.848 647.828,-253.621 637.264,-254.44 640.08,-260.848"/>
</g>
<!-- Node17 -->
<g id="node43" class="node"><title>Node17</title>
<polygon fill="white" stroke="#bfbfbf" points="784,-232.5 784,-253.5 956,-253.5 956,-232.5 784,-232.5"/>
<text text-anchor="middle" x="870" y="-240.5" font-family="Helvetica,sans-Serif" font-size="10.00">boost/math/distributions/normal.hpp</text>
</g>
<!-- Node14&#45;&gt;Node17 -->
<g id="edge52" class="edge"><title>Node14&#45;&gt;Node17</title>
<path fill="none" stroke="midnightblue" d="M570.749,-295.596C622.677,-286.469 729.009,-267.78 799.911,-255.319"/>
<polygon fill="midnightblue" stroke="midnightblue" points="800.861,-258.705 810.105,-253.527 799.65,-251.811 800.861,-258.705"/>
</g>
<!-- Node18 -->
<g id="node45" class="node"><title>Node18</title>
<polygon fill="white" stroke="#bfbfbf" points="520,-232.5 520,-253.5 560,-253.5 560,-232.5 520,-232.5"/>
<text text-anchor="middle" x="540" y="-240.5" font-family="Helvetica,sans-Serif" font-size="10.00">limits</text>
</g>
<!-- Node14&#45;&gt;Node18 -->
<g id="edge54" class="edge"><title>Node14&#45;&gt;Node18</title>
<path fill="none" stroke="midnightblue" d="M540,-290.362C540,-282.922 540,-272.743 540,-263.728"/>
<polygon fill="midnightblue" stroke="midnightblue" points="543.5,-263.571 540,-253.571 536.5,-263.571 543.5,-263.571"/>
</g>
<!-- Node14&#45;&gt;Node19 -->
<g id="edge60" class="edge"><title>Node14&#45;&gt;Node19</title>
<path fill="none" stroke="midnightblue" d="M509.425,-295.544C451.86,-285.27 327.156,-263.016 259.998,-251.03"/>
<polygon fill="midnightblue" stroke="midnightblue" points="260.586,-247.58 250.127,-249.269 259.356,-254.471 260.586,-247.58"/>
</g>
<!-- Node19&#45;&gt;Node3 -->
<g id="edge62" class="edge"><title>Node19&#45;&gt;Node3</title>
<path fill="none" stroke="midnightblue" d="M250.097,-238.148C264.607,-236.179 281.607,-233.921 297,-232 434.963,-214.782 599.523,-196.457 669.633,-188.753"/>
<polygon fill="midnightblue" stroke="midnightblue" points="670.109,-192.222 679.668,-187.652 669.346,-185.264 670.109,-192.222"/>
</g>
<!-- Node19&#45;&gt;Node4 -->
<g id="edge64" class="edge"><title>Node19&#45;&gt;Node4</title>
<path fill="none" stroke="midnightblue" d="M216.74,-232.298C221.019,-208.859 233.97,-152.194 264,-116 275.051,-102.68 290.904,-92.0438 305.274,-84.2815"/>
<polygon fill="midnightblue" stroke="midnightblue" points="307.128,-87.2649 314.438,-79.5963 303.941,-81.0322 307.128,-87.2649"/>
</g>
<!-- Node20&#45;&gt;Node6 -->
<g id="edge70" class="edge"><title>Node20&#45;&gt;Node6</title>
<path fill="none" stroke="midnightblue" d="M1161.41,-348.488C1155.2,-311.119 1129.17,-183.341 1055,-116 1011.97,-76.9318 841.285,-34.2631 770.748,-17.9061"/>
<polygon fill="midnightblue" stroke="midnightblue" points="771.238,-14.4274 760.708,-15.5991 769.67,-21.2497 771.238,-14.4274"/>
</g>
<!-- Node20&#45;&gt;Node7 -->
<g id="edge68" class="edge"><title>Node20&#45;&gt;Node7</title>
<path fill="none" stroke="midnightblue" d="M1168.34,-348.203C1192.66,-298.981 1293.25,-95.4648 1325.21,-30.8101"/>
<polygon fill="midnightblue" stroke="midnightblue" points="1328.43,-32.1863 1329.73,-21.6706 1322.16,-29.0846 1328.43,-32.1863"/>
</g>
<!-- Node20&#45;&gt;Node14 -->
<g id="edge72" class="edge"><title>Node20&#45;&gt;Node14</title>
<path fill="none" stroke="midnightblue" d="M1103.26,-353.439C977.41,-341.722 687.788,-314.759 580.74,-304.793"/>
<polygon fill="midnightblue" stroke="midnightblue" points="580.947,-301.297 570.666,-303.855 580.298,-308.267 580.947,-301.297"/>
</g>
<!-- Node21&#45;&gt;Node2 -->
<g id="edge94" class="edge"><title>Node21&#45;&gt;Node2</title>
<path fill="none" stroke="midnightblue" d="M747.241,-522.398C803.101,-501.428 927.712,-454.649 990.423,-431.107"/>
<polygon fill="midnightblue" stroke="midnightblue" points="991.805,-434.326 999.937,-427.535 989.344,-427.773 991.805,-434.326"/>
</g>
<!-- Node21&#45;&gt;Node6 -->
<g id="edge92" class="edge"><title>Node21&#45;&gt;Node6</title>
<path fill="none" stroke="midnightblue" d="M690.724,-528.954C649.216,-522.533 569.703,-508.395 505,-486 274.603,-406.256 -25.5374,-325.003 100,-116 128.256,-68.9578 156.394,-73.6205 209,-58 303.813,-29.8466 610.454,-15.9417 709.115,-12.118"/>
<polygon fill="midnightblue" stroke="midnightblue" points="709.452,-15.6078 719.312,-11.7303 709.186,-8.61286 709.452,-15.6078"/>
</g>
<!-- Node21&#45;&gt;Node7 -->
<g id="edge88" class="edge"><title>Node21&#45;&gt;Node7</title>
<path fill="none" stroke="midnightblue" d="M747.353,-529.208C793.932,-522.631 889.333,-507.703 968,-486 1195.45,-423.25 1440,-478.946 1440,-243 1440,-243 1440,-243 1440,-127 1440,-78.7501 1389.45,-41.6111 1358.5,-23.3932"/>
<polygon fill="midnightblue" stroke="midnightblue" points="1360.03,-20.2361 1349.6,-18.3554 1356.58,-26.3277 1360.03,-20.2361"/>
</g>
<!-- Node21&#45;&gt;Node14 -->
<g id="edge96" class="edge"><title>Node21&#45;&gt;Node14</title>
<path fill="none" stroke="midnightblue" d="M690.772,-528.481C645.593,-520.811 559.613,-504.286 535,-486 482.755,-447.186 459.028,-407.233 486,-348 491.593,-335.717 502.158,-325.397 512.47,-317.586"/>
<polygon fill="midnightblue" stroke="midnightblue" points="514.785,-320.237 520.958,-311.626 510.763,-314.508 514.785,-320.237"/>
</g>
<!-- Node21&#45;&gt;Node20 -->
<g id="edge98" class="edge"><title>Node21&#45;&gt;Node20</title>
<path fill="none" stroke="midnightblue" d="M747.154,-528.187C808.468,-516.948 957.583,-485.475 1070,-428 1097.54,-413.922 1125.56,-391.849 1143.54,-376.472"/>
<polygon fill="midnightblue" stroke="midnightblue" points="1146.27,-378.733 1151.52,-369.526 1141.68,-373.454 1146.27,-378.733"/>
</g>
<!-- Node22 -->
<g id="node67" class="node"><title>Node22</title>
<polygon fill="white" stroke="#bfbfbf" points="517,-406.5 517,-427.5 561,-427.5 561,-406.5 517,-406.5"/>
<text text-anchor="middle" x="539" y="-414.5" font-family="Helvetica,sans-Serif" font-size="10.00">vector</text>
</g>
<!-- Node21&#45;&gt;Node22 -->
<g id="edge90" class="edge"><title>Node21&#45;&gt;Node22</title>
<path fill="none" stroke="midnightblue" d="M702.389,-522.295C670.697,-501.871 601.438,-457.238 564.08,-433.162"/>
<polygon fill="midnightblue" stroke="midnightblue" points="565.613,-429.987 555.311,-427.512 561.821,-435.871 565.613,-429.987"/>
</g>
<!-- Node23 -->
<g id="node73" class="node"><title>Node23</title>
<a xlink:href="_aggregate_data_8h.html" target="_top" xlink:title="AggregateData.h">
<polygon fill="white" stroke="black" points="495,-348.5 495,-369.5 585,-369.5 585,-348.5 495,-348.5"/>
<text text-anchor="middle" x="540" y="-356.5" font-family="Helvetica,sans-Serif" font-size="10.00">AggregateData.h</text>
</a>
</g>
<!-- Node21&#45;&gt;Node23 -->
<g id="edge100" class="edge"><title>Node21&#45;&gt;Node23</title>
<path fill="none" stroke="midnightblue" d="M690.757,-528.889C642.701,-520.173 546.498,-494.834 508,-428 498.413,-411.357 510.051,-391.351 521.889,-377.177"/>
<polygon fill="midnightblue" stroke="midnightblue" points="524.641,-379.351 528.724,-369.575 519.435,-374.671 524.641,-379.351"/>
</g>
<!-- Node24 -->
<g id="node80" class="node"><title>Node24</title>
<a xlink:href="_power_state_graph_8h.html" target="_top" xlink:title="PowerStateGraph.h">
<polygon fill="white" stroke="black" points="668,-464.5 668,-485.5 770,-485.5 770,-464.5 668,-464.5"/>
<text text-anchor="middle" x="719" y="-472.5" font-family="Helvetica,sans-Serif" font-size="10.00">PowerStateGraph.h</text>
</a>
</g>
<!-- Node21&#45;&gt;Node24 -->
<g id="edge112" class="edge"><title>Node21&#45;&gt;Node24</title>
<path fill="none" stroke="midnightblue" d="M719,-522.362C719,-514.922 719,-504.743 719,-495.728"/>
<polygon fill="midnightblue" stroke="midnightblue" points="722.5,-495.571 719,-485.571 715.5,-495.571 722.5,-495.571"/>
</g>
<!-- Node23&#45;&gt;Node3 -->
<g id="edge102" class="edge"><title>Node23&#45;&gt;Node3</title>
<path fill="none" stroke="midnightblue" d="M527.497,-348.49C518.201,-339.801 506.255,-326.561 501,-312 495.316,-296.25 488.515,-248.685 502,-232 522.803,-206.26 617.895,-193.251 669.854,-187.962"/>
<polygon fill="midnightblue" stroke="midnightblue" points="670.327,-191.433 679.94,-186.978 669.647,-184.466 670.327,-191.433"/>
</g>
<!-- Node23&#45;&gt;Node6 -->
<g id="edge106" class="edge"><title>Node23&#45;&gt;Node6</title>
<path fill="none" stroke="midnightblue" d="M494.991,-354.873C421.714,-346.356 274.43,-321.585 171,-254 137.701,-232.242 114,-224.777 114,-185 114,-185 114,-185 114,-127 114,-117.717 84.0574,-107.416 299,-58 450.314,-23.2126 636.872,-14.0672 709.267,-11.7519"/>
<polygon fill="midnightblue" stroke="midnightblue" points="709.603,-15.2435 719.494,-11.4468 709.394,-8.24665 709.603,-15.2435"/>
</g>
<!-- Node23&#45;&gt;Node9 -->
<g id="edge110" class="edge"><title>Node23&#45;&gt;Node9</title>
<path fill="none" stroke="midnightblue" d="M585.105,-356.618C681.762,-351.115 905.928,-336.116 978,-312 1082.61,-276.996 1108.39,-237.982 1155,-138 1162.21,-122.538 1167.15,-103.815 1170.18,-89.775"/>
<polygon fill="midnightblue" stroke="midnightblue" points="1173.67,-90.1652 1172.21,-79.6716 1166.81,-88.7862 1173.67,-90.1652"/>
</g>
<!-- Node23&#45;&gt;Node11 -->
<g id="edge108" class="edge"><title>Node23&#45;&gt;Node11</title>
<path fill="none" stroke="midnightblue" d="M585.075,-356.65C699.012,-349.696 993.837,-325.062 1055,-254 1078.21,-227.033 1070.08,-207.468 1058,-174 1054.06,-163.079 1046.35,-152.902 1038.83,-144.83"/>
<polygon fill="midnightblue" stroke="midnightblue" points="1041.05,-142.104 1031.5,-137.51 1036.1,-147.055 1041.05,-142.104"/>
</g>
<!-- Node23&#45;&gt;Node14 -->
<g id="edge104" class="edge"><title>Node23&#45;&gt;Node14</title>
<path fill="none" stroke="midnightblue" d="M540,-348.362C540,-340.922 540,-330.743 540,-321.728"/>
<polygon fill="midnightblue" stroke="midnightblue" points="543.5,-321.571 540,-311.571 536.5,-321.571 543.5,-321.571"/>
</g>
<!-- Node24&#45;&gt;Node2 -->
<g id="edge128" class="edge"><title>Node24&#45;&gt;Node2</title>
<path fill="none" stroke="midnightblue" d="M770.43,-467.229C822.163,-459.125 904.419,-445.461 984.349,-428.243"/>
<polygon fill="midnightblue" stroke="midnightblue" points="985.562,-431.561 994.589,-426.014 984.073,-424.721 985.562,-431.561"/>
</g>
<!-- Node24&#45;&gt;Node4 -->
<g id="edge126" class="edge"><title>Node24&#45;&gt;Node4</title>
<path fill="none" stroke="midnightblue" d="M691.955,-464.412C669.457,-455.375 636.745,-441.701 609,-428 591.156,-419.188 588.833,-412.433 570,-406 465.018,-370.139 425.774,-411.768 323,-370 244.273,-338.004 207.683,-330.656 171,-254 144.434,-198.487 182.776,-171.818 245,-116 260.487,-102.107 280.824,-91.3186 298.707,-83.6018"/>
<polygon fill="midnightblue" stroke="midnightblue" points="300.431,-86.6769 308.343,-79.6305 297.764,-80.205 300.431,-86.6769"/>
</g>
<!-- Node24&#45;&gt;Node7 -->
<g id="edge118" class="edge"><title>Node24&#45;&gt;Node7</title>
<path fill="none" stroke="midnightblue" d="M770.385,-470.146C888.678,-458.157 1176.14,-424.135 1255,-370 1341.58,-310.565 1402,-290.019 1402,-185 1402,-185 1402,-185 1402,-127 1402,-88.024 1373.29,-50.3657 1353.45,-29.0036"/>
<polygon fill="midnightblue" stroke="midnightblue" points="1355.82,-26.4194 1346.37,-21.6454 1350.78,-31.2757 1355.82,-26.4194"/>
</g>
<!-- Node24&#45;&gt;Node14 -->
<g id="edge124" class="edge"><title>Node24&#45;&gt;Node14</title>
<path fill="none" stroke="midnightblue" d="M708.898,-464.187C687.977,-441.918 638.169,-389.543 594,-348 583.142,-337.787 570.605,-326.827 560.346,-318.062"/>
<polygon fill="midnightblue" stroke="midnightblue" points="562.571,-315.361 552.682,-311.56 558.042,-320.698 562.571,-315.361"/>
</g>
<!-- Node24&#45;&gt;Node22 -->
<g id="edge116" class="edge"><title>Node24&#45;&gt;Node22</title>
<path fill="none" stroke="midnightblue" d="M686.403,-464.497C653.676,-453.951 603.568,-437.805 571.04,-427.324"/>
<polygon fill="midnightblue" stroke="midnightblue" points="571.732,-423.87 561.141,-424.134 569.585,-430.533 571.732,-423.87"/>
</g>
<!-- Node24&#45;&gt;Node23 -->
<g id="edge130" class="edge"><title>Node24&#45;&gt;Node23</title>
<path fill="none" stroke="midnightblue" d="M702.481,-464.295C670.965,-443.871 602.092,-399.238 564.94,-375.162"/>
<polygon fill="midnightblue" stroke="midnightblue" points="566.516,-372.013 556.221,-369.512 562.709,-377.887 566.516,-372.013"/>
</g>
<!-- Node25 -->
<g id="node82" class="node"><title>Node25</title>
<polygon fill="white" stroke="#bfbfbf" points="825,-406.5 825,-427.5 977,-427.5 977,-406.5 825,-406.5"/>
<text text-anchor="middle" x="901" y="-414.5" font-family="Helvetica,sans-Serif" font-size="10.00">boost/graph/adjacency_list.hpp</text>
</g>
<!-- Node24&#45;&gt;Node25 -->
<g id="edge114" class="edge"><title>Node24&#45;&gt;Node25</title>
<path fill="none" stroke="midnightblue" d="M751.959,-464.497C781.758,-455 825.809,-440.962 858.297,-430.609"/>
<polygon fill="midnightblue" stroke="midnightblue" points="859.514,-433.894 867.979,-427.523 857.389,-427.225 859.514,-433.894"/>
</g>
<!-- Node26 -->
<g id="node86" class="node"><title>Node26</title>
<polygon fill="white" stroke="#bfbfbf" points="693,-406.5 693,-427.5 745,-427.5 745,-406.5 693,-406.5"/>
<text text-anchor="middle" x="719" y="-414.5" font-family="Helvetica,sans-Serif" font-size="10.00">ostream</text>
</g>
<!-- Node24&#45;&gt;Node26 -->
<g id="edge120" class="edge"><title>Node24&#45;&gt;Node26</title>
<path fill="none" stroke="midnightblue" d="M719,-464.362C719,-456.922 719,-446.743 719,-437.728"/>
<polygon fill="midnightblue" stroke="midnightblue" points="722.5,-437.571 719,-427.571 715.5,-437.571 722.5,-437.571"/>
</g>
<!-- Node27 -->
<g id="node88" class="node"><title>Node27</title>
<polygon fill="white" stroke="#bfbfbf" points="763,-406.5 763,-427.5 807,-427.5 807,-406.5 763,-406.5"/>
<text text-anchor="middle" x="785" y="-414.5" font-family="Helvetica,sans-Serif" font-size="10.00">time.h</text>
</g>
<!-- Node24&#45;&gt;Node27 -->
<g id="edge122" class="edge"><title>Node24&#45;&gt;Node27</title>
<path fill="none" stroke="midnightblue" d="M731.105,-464.362C740.688,-455.941 754.264,-444.011 765.393,-434.231"/>
<polygon fill="midnightblue" stroke="midnightblue" points="767.77,-436.801 772.971,-427.571 763.149,-431.543 767.77,-436.801"/>
</g>
</g>
</svg>
