<?xml version="1.0" encoding="UTF-8" standalone="no"?>
<!DOCTYPE svg PUBLIC "-//W3C//DTD SVG 1.1//EN"
 "http://www.w3.org/Graphics/SVG/1.1/DTD/svg11.dtd">
<!-- Generated by graphviz version 2.26.3 (20100126.1600)
 -->
<!-- Title: G Pages: 1 -->
<svg width="1248pt" height="204pt"
 viewBox="0.00 0.00 1248.00 204.00" xmlns="http://www.w3.org/2000/svg" xmlns:xlink="http://www.w3.org/1999/xlink">
<g id="graph1" class="graph" transform="scale(1 1) rotate(0) translate(4 200)">
<title>G</title>
<polygon fill="white" stroke="white" points="-4,5 -4,-200 1245,-200 1245,5 -4,5"/>
<!-- Node1 -->
<g id="node1" class="node"><title>Node1</title>
<polygon fill="#bfbfbf" stroke="black" points="224,-174.5 224,-195.5 600,-195.5 600,-174.5 224,-174.5"/>
<text text-anchor="middle" x="412" y="-182.5" font-family="Helvetica,sans-Serif" font-size="10.00">/mnt/sshfs/imperialroot/homes/dk3810/workingcopies/disaggregate/src/Signature.h</text>
</g>
<!-- Node2 -->
<g id="node3" class="node"><title>Node2</title>
<a xlink:href="_device_8h.html" target="_top" xlink:title="/mnt/sshfs/imperialroot/homes/dk3810/workingcopies/disaggregate/src/Device.h">
<polygon fill="white" stroke="black" points="253.5,-58.5 253.5,-79.5 618.5,-79.5 618.5,-58.5 253.5,-58.5"/>
<text text-anchor="middle" x="436" y="-66.5" font-family="Helvetica,sans-Serif" font-size="10.00">/mnt/sshfs/imperialroot/homes/dk3810/workingcopies/disaggregate/src/Device.h</text>
</a>
</g>
<!-- Node1&#45;&gt;Node2 -->
<g id="edge2" class="edge"><title>Node1&#45;&gt;Node2</title>
<path fill="none" stroke="midnightblue" d="M416.25,-164.458C421.38,-139.663 429.812,-98.9098 433.791,-79.6792"/>
<polygon fill="midnightblue" stroke="midnightblue" points="412.814,-163.793 414.215,-174.295 419.668,-165.211 412.814,-163.793"/>
</g>
<!-- Node3 -->
<g id="node5" class="node"><title>Node3</title>
<a xlink:href="_device_8cpp.html" target="_top" xlink:title="/mnt/sshfs/imperialroot/homes/dk3810/workingcopies/disaggregate/src/Device.cpp">
<polygon fill="white" stroke="black" points="0,-0.5 0,-21.5 376,-21.5 376,-0.5 0,-0.5"/>
<text text-anchor="middle" x="188" y="-8.5" font-family="Helvetica,sans-Serif" font-size="10.00">/mnt/sshfs/imperialroot/homes/dk3810/workingcopies/disaggregate/src/Device.cpp</text>
</a>
</g>
<!-- Node1&#45;&gt;Node3 -->
<g id="edge18" class="edge"><title>Node1&#45;&gt;Node3</title>
<path fill="none" stroke="midnightblue" d="M349.313,-172.143C310.878,-163.241 266.216,-150.743 251,-138 213.072,-106.237 195.865,-46.0602 190.222,-21.669"/>
<polygon fill="midnightblue" stroke="midnightblue" points="348.915,-175.641 359.442,-174.44 350.464,-168.815 348.915,-175.641"/>
</g>
<!-- Node4 -->
<g id="node7" class="node"><title>Node4</title>
<a xlink:href="_main_8cpp.html" target="_top" xlink:title="/mnt/sshfs/imperialroot/homes/dk3810/workingcopies/disaggregate/src/Main.cpp">
<polygon fill="white" stroke="black" points="394,-0.5 394,-21.5 760,-21.5 760,-0.5 394,-0.5"/>
<text text-anchor="middle" x="577" y="-8.5" font-family="Helvetica,sans-Serif" font-size="10.00">/mnt/sshfs/imperialroot/homes/dk3810/workingcopies/disaggregate/src/Main.cpp</text>
</a>
</g>
<!-- Node1&#45;&gt;Node4 -->
<g id="edge20" class="edge"><title>Node1&#45;&gt;Node4</title>
<path fill="none" stroke="midnightblue" d="M365.587,-171.278C302.429,-150.346 201.927,-107.6 245,-58 258.479,-42.4789 358.156,-29.7771 444.808,-21.5086"/>
<polygon fill="midnightblue" stroke="midnightblue" points="364.783,-174.697 375.375,-174.448 366.94,-168.037 364.783,-174.697"/>
</g>
<!-- Node5 -->
<g id="node9" class="node"><title>Node5</title>
<a xlink:href="_signature_8cpp.html" target="_top" xlink:title="/mnt/sshfs/imperialroot/homes/dk3810/workingcopies/disaggregate/src/Signature.cpp">
<polygon fill="white" stroke="black" points="854,-0.5 854,-21.5 1240,-21.5 1240,-0.5 854,-0.5"/>
<text text-anchor="middle" x="1047" y="-8.5" font-family="Helvetica,sans-Serif" font-size="10.00">/mnt/sshfs/imperialroot/homes/dk3810/workingcopies/disaggregate/src/Signature.cpp</text>
</a>
</g>
<!-- Node1&#45;&gt;Node5 -->
<g id="edge22" class="edge"><title>Node1&#45;&gt;Node5</title>
<path fill="none" stroke="midnightblue" d="M555.842,-173.583C748.829,-156.726 1071.39,-122.532 1105,-80 1121.69,-58.8808 1089.77,-34.9928 1067.03,-21.5901"/>
<polygon fill="midnightblue" stroke="midnightblue" points="555.27,-170.119 545.61,-174.471 555.875,-177.093 555.27,-170.119"/>
</g>
<!-- Node6 -->
<g id="node11" class="node"><title>Node6</title>
<a xlink:href="_power_state_graph_8h.html" target="_top" xlink:title="/mnt/sshfs/imperialroot/homes/dk3810/workingcopies/disaggregate/src/PowerStateGraph.h">
<polygon fill="white" stroke="black" points="440,-116.5 440,-137.5 852,-137.5 852,-116.5 440,-116.5"/>
<text text-anchor="middle" x="646" y="-124.5" font-family="Helvetica,sans-Serif" font-size="10.00">/mnt/sshfs/imperialroot/homes/dk3810/workingcopies/disaggregate/src/PowerStateGraph.h</text>
</a>
</g>
<!-- Node1&#45;&gt;Node6 -->
<g id="edge10" class="edge"><title>Node1&#45;&gt;Node6</title>
<path fill="none" stroke="midnightblue" d="M464.139,-172.077C506.117,-161.672 564.38,-147.231 603.545,-137.523"/>
<polygon fill="midnightblue" stroke="midnightblue" points="463.24,-168.694 454.376,-174.497 464.924,-175.488 463.24,-168.694"/>
</g>
<!-- Node2&#45;&gt;Node3 -->
<g id="edge4" class="edge"><title>Node2&#45;&gt;Node3</title>
<path fill="none" stroke="midnightblue" d="M381.303,-56.2081C336.773,-45.7938 274.679,-31.2716 232.995,-21.5231"/>
<polygon fill="midnightblue" stroke="midnightblue" points="380.555,-59.6273 391.089,-58.4966 382.149,-52.8113 380.555,-59.6273"/>
</g>
<!-- Node2&#45;&gt;Node4 -->
<g id="edge6" class="edge"><title>Node2&#45;&gt;Node4</title>
<path fill="none" stroke="midnightblue" d="M470.97,-54.6153C495.83,-44.3889 528.672,-30.8796 551.179,-21.6212"/>
<polygon fill="midnightblue" stroke="midnightblue" points="469.451,-51.4555 461.534,-58.4966 472.114,-57.9292 469.451,-51.4555"/>
</g>
<!-- Node2&#45;&gt;Node5 -->
<g id="edge8" class="edge"><title>Node2&#45;&gt;Node5</title>
<path fill="none" stroke="midnightblue" d="M556.83,-57.53C667.195,-47.0535 829.026,-31.6914 936.145,-21.5231"/>
<polygon fill="midnightblue" stroke="midnightblue" points="556.272,-54.0672 546.647,-58.4966 556.934,-61.0359 556.272,-54.0672"/>
</g>
<!-- Node6&#45;&gt;Node2 -->
<g id="edge12" class="edge"><title>Node6&#45;&gt;Node2</title>
<path fill="none" stroke="midnightblue" d="M598.251,-113.812C560.655,-103.428 508.952,-89.1487 474.101,-79.5231"/>
<polygon fill="midnightblue" stroke="midnightblue" points="597.4,-117.208 607.971,-116.497 599.263,-110.461 597.4,-117.208"/>
</g>
<!-- Node6&#45;&gt;Node4 -->
<g id="edge14" class="edge"><title>Node6&#45;&gt;Node4</title>
<path fill="none" stroke="midnightblue" d="M643.378,-106.591C640.839,-92.2055 635.997,-72.924 627,-58 618.143,-43.3077 603.43,-30.2732 592.251,-21.6801"/>
<polygon fill="midnightblue" stroke="midnightblue" points="639.92,-107.133 644.901,-116.483 646.838,-106.067 639.92,-107.133"/>
</g>
<!-- Node7 -->
<g id="node15" class="node"><title>Node7</title>
<a xlink:href="_power_state_graph_8cpp.html" target="_top" xlink:title="/mnt/sshfs/imperialroot/homes/dk3810/workingcopies/disaggregate/src/PowerStateGraph.cpp">
<polygon fill="white" stroke="black" points="674,-58.5 674,-79.5 1096,-79.5 1096,-58.5 674,-58.5"/>
<text text-anchor="middle" x="885" y="-66.5" font-family="Helvetica,sans-Serif" font-size="10.00">/mnt/sshfs/imperialroot/homes/dk3810/workingcopies/disaggregate/src/PowerStateGraph.cpp</text>
</a>
</g>
<!-- Node6&#45;&gt;Node7 -->
<g id="edge16" class="edge"><title>Node6&#45;&gt;Node7</title>
<path fill="none" stroke="midnightblue" d="M699.253,-114.077C742.128,-103.672 801.636,-89.2306 841.638,-79.5231"/>
<polygon fill="midnightblue" stroke="midnightblue" points="698.174,-110.737 689.281,-116.497 699.824,-117.54 698.174,-110.737"/>
</g>
</g>
</svg>
