<?xml version="1.0" encoding="UTF-8" standalone="no"?>
<!DOCTYPE svg PUBLIC "-//W3C//DTD SVG 1.1//EN"
 "http://www.w3.org/Graphics/SVG/1.1/DTD/svg11.dtd">
<!-- Generated by graphviz version 2.26.3 (20100126.1600)
 -->
<!-- Title: G Pages: 1 -->
<svg width="1890pt" height="320pt"
 viewBox="0.00 0.00 1890.00 320.00" xmlns="http://www.w3.org/2000/svg" xmlns:xlink="http://www.w3.org/1999/xlink">
<g id="graph1" class="graph" transform="scale(1 1) rotate(0) translate(4 316)">
<title>G</title>
<polygon fill="white" stroke="white" points="-4,5 -4,-316 1887,-316 1887,5 -4,5"/>
<!-- Node1 -->
<g id="node1" class="node"><title>Node1</title>
<polygon fill="#bfbfbf" stroke="black" points="768.5,-290.5 768.5,-311.5 1139.5,-311.5 1139.5,-290.5 768.5,-290.5"/>
<text text-anchor="middle" x="954" y="-298.5" font-family="Helvetica,sans-Serif" font-size="10.00">/mnt/sshfs/imperialroot/homes/dk3810/workingcopies/disaggregate/src/Statistic.h</text>
</g>
<!-- Node2 -->
<g id="node3" class="node"><title>Node2</title>
<a xlink:href="_aggregate_data_8h.html" target="_top" xlink:title="/mnt/sshfs/imperialroot/homes/dk3810/workingcopies/disaggregate/src/AggregateData.h">
<polygon fill="white" stroke="black" points="304,-174.5 304,-195.5 704,-195.5 704,-174.5 304,-174.5"/>
<text text-anchor="middle" x="504" y="-182.5" font-family="Helvetica,sans-Serif" font-size="10.00">/mnt/sshfs/imperialroot/homes/dk3810/workingcopies/disaggregate/src/AggregateData.h</text>
</a>
</g>
<!-- Node1&#45;&gt;Node2 -->
<g id="edge2" class="edge"><title>Node1&#45;&gt;Node2</title>
<path fill="none" stroke="midnightblue" d="M892.768,-288.408C850.525,-279.465 793.158,-266.814 743,-254 669.564,-235.24 584.492,-209.773 538.251,-195.612"/>
<polygon fill="midnightblue" stroke="midnightblue" points="892.118,-291.847 902.625,-290.485 893.562,-284.998 892.118,-291.847"/>
</g>
<!-- Node4 -->
<g id="node7" class="node"><title>Node4</title>
<a xlink:href="_device_8h.html" target="_top" xlink:title="/mnt/sshfs/imperialroot/homes/dk3810/workingcopies/disaggregate/src/Device.h">
<polygon fill="white" stroke="black" points="808.5,-58.5 808.5,-79.5 1173.5,-79.5 1173.5,-58.5 808.5,-58.5"/>
<text text-anchor="middle" x="991" y="-66.5" font-family="Helvetica,sans-Serif" font-size="10.00">/mnt/sshfs/imperialroot/homes/dk3810/workingcopies/disaggregate/src/Device.h</text>
</a>
</g>
<!-- Node1&#45;&gt;Node4 -->
<g id="edge44" class="edge"><title>Node1&#45;&gt;Node4</title>
<path fill="none" stroke="midnightblue" d="M957.296,-280.335C964.925,-232.5 983.583,-115.508 989.304,-79.6335"/>
<polygon fill="midnightblue" stroke="midnightblue" points="953.805,-280.002 955.686,-290.429 960.717,-281.105 953.805,-280.002"/>
</g>
<!-- Node6 -->
<g id="node11" class="node"><title>Node6</title>
<a xlink:href="_main_8cpp.html" target="_top" xlink:title="/mnt/sshfs/imperialroot/homes/dk3810/workingcopies/disaggregate/src/Main.cpp">
<polygon fill="white" stroke="black" points="593,-0.5 593,-21.5 959,-21.5 959,-0.5 593,-0.5"/>
<text text-anchor="middle" x="776" y="-8.5" font-family="Helvetica,sans-Serif" font-size="10.00">/mnt/sshfs/imperialroot/homes/dk3810/workingcopies/disaggregate/src/Main.cpp</text>
</a>
</g>
<!-- Node1&#45;&gt;Node6 -->
<g id="edge48" class="edge"><title>Node1&#45;&gt;Node6</title>
<path fill="none" stroke="midnightblue" d="M758.104,-296.463C478.921,-287.337 0,-260.657 0,-185 0,-185 0,-185 0,-127 0,-45.4581 90.6331,-76.7076 170,-58 247.546,-39.7217 444.449,-26.654 592.925,-19.0094"/>
<polygon fill="midnightblue" stroke="midnightblue" points="758.254,-299.969 768.362,-296.793 758.479,-292.973 758.254,-299.969"/>
</g>
<!-- Node7 -->
<g id="node13" class="node"><title>Node7</title>
<a xlink:href="_signature_8cpp.html" target="_top" xlink:title="/mnt/sshfs/imperialroot/homes/dk3810/workingcopies/disaggregate/src/Signature.cpp">
<polygon fill="white" stroke="black" points="1473,-0.5 1473,-21.5 1859,-21.5 1859,-0.5 1473,-0.5"/>
<text text-anchor="middle" x="1666" y="-8.5" font-family="Helvetica,sans-Serif" font-size="10.00">/mnt/sshfs/imperialroot/homes/dk3810/workingcopies/disaggregate/src/Signature.cpp</text>
</a>
</g>
<!-- Node1&#45;&gt;Node7 -->
<g id="edge50" class="edge"><title>Node1&#45;&gt;Node7</title>
<path fill="none" stroke="midnightblue" d="M1149.57,-295.763C1421.82,-285.814 1882,-258.175 1882,-185 1882,-185 1882,-185 1882,-127 1882,-63.4709 1808.58,-34.5896 1747.35,-21.5496"/>
<polygon fill="midnightblue" stroke="midnightblue" points="1149.43,-292.266 1139.56,-296.124 1149.68,-299.261 1149.43,-292.266"/>
</g>
<!-- Node8 -->
<g id="node15" class="node"><title>Node8</title>
<a xlink:href="_power_state_graph_8h.html" target="_top" xlink:title="/mnt/sshfs/imperialroot/homes/dk3810/workingcopies/disaggregate/src/PowerStateGraph.h">
<polygon fill="white" stroke="black" points="532,-116.5 532,-137.5 944,-137.5 944,-116.5 532,-116.5"/>
<text text-anchor="middle" x="738" y="-124.5" font-family="Helvetica,sans-Serif" font-size="10.00">/mnt/sshfs/imperialroot/homes/dk3810/workingcopies/disaggregate/src/PowerStateGraph.h</text>
</a>
</g>
<!-- Node1&#45;&gt;Node8 -->
<g id="edge46" class="edge"><title>Node1&#45;&gt;Node8</title>
<path fill="none" stroke="midnightblue" d="M932.755,-283.886C888.505,-248.24 787.561,-166.924 751.288,-137.705"/>
<polygon fill="midnightblue" stroke="midnightblue" points="930.83,-286.83 940.813,-290.377 935.221,-281.378 930.83,-286.83"/>
</g>
<!-- Node10 -->
<g id="node22" class="node"><title>Node10</title>
<a xlink:href="_signature_8h.html" target="_top" xlink:title="/mnt/sshfs/imperialroot/homes/dk3810/workingcopies/disaggregate/src/Signature.h">
<polygon fill="white" stroke="black" points="1478,-174.5 1478,-195.5 1854,-195.5 1854,-174.5 1478,-174.5"/>
<text text-anchor="middle" x="1666" y="-182.5" font-family="Helvetica,sans-Serif" font-size="10.00">/mnt/sshfs/imperialroot/homes/dk3810/workingcopies/disaggregate/src/Signature.h</text>
</a>
</g>
<!-- Node1&#45;&gt;Node10 -->
<g id="edge24" class="edge"><title>Node1&#45;&gt;Node10</title>
<path fill="none" stroke="midnightblue" d="M1149.69,-291.14C1239.12,-284.33 1346.06,-272.938 1441,-254 1513.52,-239.534 1595.97,-211.031 1638.05,-195.572"/>
<polygon fill="midnightblue" stroke="midnightblue" points="1149.42,-287.651 1139.71,-291.887 1149.94,-294.631 1149.42,-287.651"/>
</g>
<!-- Node11 -->
<g id="node29" class="node"><title>Node11</title>
<a xlink:href="_power_state_sequence_8h.html" target="_top" xlink:title="/mnt/sshfs/imperialroot/homes/dk3810/workingcopies/disaggregate/src/PowerStateSequence.h">
<polygon fill="white" stroke="black" points="1003.5,-232.5 1003.5,-253.5 1432.5,-253.5 1432.5,-232.5 1003.5,-232.5"/>
<text text-anchor="middle" x="1218" y="-240.5" font-family="Helvetica,sans-Serif" font-size="10.00">/mnt/sshfs/imperialroot/homes/dk3810/workingcopies/disaggregate/src/PowerStateSequence.h</text>
</a>
</g>
<!-- Node1&#45;&gt;Node11 -->
<g id="edge36" class="edge"><title>Node1&#45;&gt;Node11</title>
<path fill="none" stroke="midnightblue" d="M1011.63,-288.339C1059.07,-277.916 1125.54,-263.313 1170.1,-253.523"/>
<polygon fill="midnightblue" stroke="midnightblue" points="1010.82,-284.932 1001.81,-290.497 1012.33,-291.769 1010.82,-284.932"/>
</g>
<!-- Node3 -->
<g id="node5" class="node"><title>Node3</title>
<a xlink:href="_aggregate_data_8cpp.html" target="_top" xlink:title="/mnt/sshfs/imperialroot/homes/dk3810/workingcopies/disaggregate/src/AggregateData.cpp">
<polygon fill="white" stroke="black" points="66,-116.5 66,-137.5 476,-137.5 476,-116.5 66,-116.5"/>
<text text-anchor="middle" x="271" y="-124.5" font-family="Helvetica,sans-Serif" font-size="10.00">/mnt/sshfs/imperialroot/homes/dk3810/workingcopies/disaggregate/src/AggregateData.cpp</text>
</a>
</g>
<!-- Node2&#45;&gt;Node3 -->
<g id="edge4" class="edge"><title>Node2&#45;&gt;Node3</title>
<path fill="none" stroke="midnightblue" d="M452.084,-172.077C410.285,-161.672 352.271,-147.231 313.274,-137.523"/>
<polygon fill="midnightblue" stroke="midnightblue" points="451.256,-175.477 461.805,-174.497 452.947,-168.685 451.256,-175.477"/>
</g>
<!-- Node2&#45;&gt;Node4 -->
<g id="edge6" class="edge"><title>Node2&#45;&gt;Node4</title>
<path fill="none" stroke="midnightblue" d="M503.839,-164.097C504.928,-148.399 509.172,-127.673 523,-116 545.151,-97.3007 686.722,-84.885 808.416,-77.5355"/>
<polygon fill="midnightblue" stroke="midnightblue" points="500.33,-164.333 503.512,-174.439 507.327,-164.554 500.33,-164.333"/>
</g>
<!-- Node2&#45;&gt;Node8 -->
<g id="edge14" class="edge"><title>Node2&#45;&gt;Node8</title>
<path fill="none" stroke="midnightblue" d="M556.139,-172.077C598.117,-161.672 656.38,-147.231 695.545,-137.523"/>
<polygon fill="midnightblue" stroke="midnightblue" points="555.24,-168.694 546.376,-174.497 556.924,-175.488 555.24,-168.694"/>
</g>
<!-- Node9 -->
<g id="node19" class="node"><title>Node9</title>
<a xlink:href="_power_state_graph_8cpp.html" target="_top" xlink:title="/mnt/sshfs/imperialroot/homes/dk3810/workingcopies/disaggregate/src/PowerStateGraph.cpp">
<polygon fill="white" stroke="black" points="179,-58.5 179,-79.5 601,-79.5 601,-58.5 179,-58.5"/>
<text text-anchor="middle" x="390" y="-66.5" font-family="Helvetica,sans-Serif" font-size="10.00">/mnt/sshfs/imperialroot/homes/dk3810/workingcopies/disaggregate/src/PowerStateGraph.cpp</text>
</a>
</g>
<!-- Node2&#45;&gt;Node9 -->
<g id="edge22" class="edge"><title>Node2&#45;&gt;Node9</title>
<path fill="none" stroke="midnightblue" d="M293.652,-175.459C185.888,-168.352 73.7401,-156.593 57,-138 50.4575,-130.734 50.5874,-123.381 57,-116 70.4977,-100.463 170.146,-87.7834 256.949,-79.5265"/>
<polygon fill="midnightblue" stroke="midnightblue" points="293.524,-178.958 303.729,-176.111 293.976,-171.972 293.524,-178.958"/>
</g>
<!-- Node5 -->
<g id="node9" class="node"><title>Node5</title>
<a xlink:href="_device_8cpp.html" target="_top" xlink:title="/mnt/sshfs/imperialroot/homes/dk3810/workingcopies/disaggregate/src/Device.cpp">
<polygon fill="white" stroke="black" points="1045,-0.5 1045,-21.5 1421,-21.5 1421,-0.5 1045,-0.5"/>
<text text-anchor="middle" x="1233" y="-8.5" font-family="Helvetica,sans-Serif" font-size="10.00">/mnt/sshfs/imperialroot/homes/dk3810/workingcopies/disaggregate/src/Device.cpp</text>
</a>
</g>
<!-- Node4&#45;&gt;Node5 -->
<g id="edge8" class="edge"><title>Node4&#45;&gt;Node5</title>
<path fill="none" stroke="midnightblue" d="M1044.65,-56.1424C1088.08,-45.7328 1148.5,-31.2511 1189.09,-21.5231"/>
<polygon fill="midnightblue" stroke="midnightblue" points="1043.73,-52.7623 1034.82,-58.4966 1045.36,-59.5695 1043.73,-52.7623"/>
</g>
<!-- Node4&#45;&gt;Node6 -->
<g id="edge10" class="edge"><title>Node4&#45;&gt;Node6</title>
<path fill="none" stroke="midnightblue" d="M942.115,-55.8123C903.623,-45.4285 850.689,-31.1487 815.008,-21.5231"/>
<polygon fill="midnightblue" stroke="midnightblue" points="941.499,-59.2712 952.065,-58.4966 943.322,-52.5128 941.499,-59.2712"/>
</g>
<!-- Node4&#45;&gt;Node7 -->
<g id="edge12" class="edge"><title>Node4&#45;&gt;Node7</title>
<path fill="none" stroke="midnightblue" d="M1123.38,-57.6249C1245.33,-47.1464 1424.84,-31.7222 1543.53,-21.5231"/>
<polygon fill="midnightblue" stroke="midnightblue" points="1122.9,-54.1533 1113.24,-58.4966 1123.5,-61.1276 1122.9,-54.1533"/>
</g>
<!-- Node8&#45;&gt;Node4 -->
<g id="edge16" class="edge"><title>Node8&#45;&gt;Node4</title>
<path fill="none" stroke="midnightblue" d="M793.799,-114.208C839.227,-103.794 902.574,-89.2716 945.098,-79.5231"/>
<polygon fill="midnightblue" stroke="midnightblue" points="792.781,-110.851 783.816,-116.497 794.346,-117.674 792.781,-110.851"/>
</g>
<!-- Node8&#45;&gt;Node6 -->
<g id="edge18" class="edge"><title>Node8&#45;&gt;Node6</title>
<path fill="none" stroke="midnightblue" d="M744.62,-106.79C752.732,-82.0294 766.174,-40.996 772.502,-21.6792"/>
<polygon fill="midnightblue" stroke="midnightblue" points="741.294,-105.702 741.507,-116.295 747.946,-107.881 741.294,-105.702"/>
</g>
<!-- Node8&#45;&gt;Node9 -->
<g id="edge20" class="edge"><title>Node8&#45;&gt;Node9</title>
<path fill="none" stroke="midnightblue" d="M664.766,-114.794C602.068,-104.345 512.736,-89.4559 453.138,-79.5231"/>
<polygon fill="midnightblue" stroke="midnightblue" points="664.54,-118.305 674.98,-116.497 665.691,-111.4 664.54,-118.305"/>
</g>
<!-- Node10&#45;&gt;Node4 -->
<g id="edge26" class="edge"><title>Node10&#45;&gt;Node4</title>
<path fill="none" stroke="midnightblue" d="M1510.95,-173.538C1430.8,-166.15 1331.67,-154.732 1244,-138 1163.5,-122.637 1071.13,-94.7656 1023.37,-79.5711"/>
<polygon fill="midnightblue" stroke="midnightblue" points="1510.85,-177.043 1521.12,-174.464 1511.48,-170.072 1510.85,-177.043"/>
</g>
<!-- Node10&#45;&gt;Node5 -->
<g id="edge30" class="edge"><title>Node10&#45;&gt;Node5</title>
<path fill="none" stroke="midnightblue" d="M1630.09,-170.572C1545.21,-136.461 1333.72,-51.4745 1259.36,-21.5938"/>
<polygon fill="midnightblue" stroke="midnightblue" points="1628.98,-173.896 1639.57,-174.377 1631.59,-167.401 1628.98,-173.896"/>
</g>
<!-- Node10&#45;&gt;Node6 -->
<g id="edge32" class="edge"><title>Node10&#45;&gt;Node6</title>
<path fill="none" stroke="midnightblue" d="M1616.57,-171.827C1497.64,-140.164 1203.75,-62.0913 1182,-58 1091.17,-40.9148 987.669,-29.0485 907.901,-21.5131"/>
<polygon fill="midnightblue" stroke="midnightblue" points="1615.94,-175.283 1626.51,-174.474 1617.74,-168.519 1615.94,-175.283"/>
</g>
<!-- Node10&#45;&gt;Node7 -->
<g id="edge34" class="edge"><title>Node10&#45;&gt;Node7</title>
<path fill="none" stroke="midnightblue" d="M1666,-164.2C1666,-127.013 1666,-50.3605 1666,-21.9277"/>
<polygon fill="midnightblue" stroke="midnightblue" points="1662.5,-164.377 1666,-174.377 1669.5,-164.377 1662.5,-164.377"/>
</g>
<!-- Node10&#45;&gt;Node8 -->
<g id="edge28" class="edge"><title>Node10&#45;&gt;Node8</title>
<path fill="none" stroke="midnightblue" d="M1487.77,-173.861C1320.06,-163.379 1070.78,-147.799 906.369,-137.523"/>
<polygon fill="midnightblue" stroke="midnightblue" points="1487.75,-177.366 1497.95,-174.497 1488.18,-170.38 1487.75,-177.366"/>
</g>
<!-- Node11&#45;&gt;Node4 -->
<g id="edge40" class="edge"><title>Node11&#45;&gt;Node4</title>
<path fill="none" stroke="midnightblue" d="M1116.73,-230.83C1071.94,-223.342 1026.01,-212.047 1011,-196 980.358,-163.231 985.504,-103.628 989.13,-79.5296"/>
<polygon fill="midnightblue" stroke="midnightblue" points="1116.43,-234.327 1126.86,-232.464 1117.55,-227.416 1116.43,-234.327"/>
</g>
<!-- Node11&#45;&gt;Node10 -->
<g id="edge38" class="edge"><title>Node11&#45;&gt;Node10</title>
<path fill="none" stroke="midnightblue" d="M1309.3,-231.18C1390.14,-220.714 1507.05,-205.579 1584.72,-195.523"/>
<polygon fill="midnightblue" stroke="midnightblue" points="1308.6,-227.742 1299.13,-232.497 1309.5,-234.684 1308.6,-227.742"/>
</g>
<!-- Node12 -->
<g id="node33" class="node"><title>Node12</title>
<a xlink:href="_power_state_sequence_8cpp.html" target="_top" xlink:title="/mnt/sshfs/imperialroot/homes/dk3810/workingcopies/disaggregate/src/PowerStateSequence.cpp">
<polygon fill="white" stroke="black" points="1020,-174.5 1020,-195.5 1460,-195.5 1460,-174.5 1020,-174.5"/>
<text text-anchor="middle" x="1240" y="-182.5" font-family="Helvetica,sans-Serif" font-size="10.00">/mnt/sshfs/imperialroot/homes/dk3810/workingcopies/disaggregate/src/PowerStateSequence.cpp</text>
</a>
</g>
<!-- Node11&#45;&gt;Node12 -->
<g id="edge42" class="edge"><title>Node11&#45;&gt;Node12</title>
<path fill="none" stroke="midnightblue" d="M1225.67,-222.784C1229.15,-213.617 1233.11,-203.157 1235.99,-195.571"/>
<polygon fill="midnightblue" stroke="midnightblue" points="1222.31,-221.771 1222.04,-232.362 1228.85,-224.253 1222.31,-221.771"/>
</g>
</g>
</svg>
