<?xml version="1.0" encoding="UTF-8" standalone="no"?>
<!DOCTYPE svg PUBLIC "-//W3C//DTD SVG 1.1//EN"
 "http://www.w3.org/Graphics/SVG/1.1/DTD/svg11.dtd">
<!-- Generated by graphviz version 2.26.3 (20100126.1600)
 -->
<!-- Title: G Pages: 1 -->
<svg width="1029pt" height="320pt"
 viewBox="0.00 0.00 1029.00 320.00" xmlns="http://www.w3.org/2000/svg" xmlns:xlink="http://www.w3.org/1999/xlink">
<g id="graph1" class="graph" transform="scale(1 1) rotate(0) translate(4 316)">
<title>G</title>
<polygon fill="white" stroke="white" points="-4,5 -4,-316 1026,-316 1026,5 -4,5"/>
<!-- Node1 -->
<g id="node1" class="node"><title>Node1</title>
<polygon fill="#bfbfbf" stroke="black" points="290.5,-290.5 290.5,-311.5 661.5,-311.5 661.5,-290.5 290.5,-290.5"/>
<text text-anchor="middle" x="476" y="-298.5" font-family="Helvetica,sans-Serif" font-size="10.00">/mnt/sshfs/imperialroot/homes/dk3810/workingcopies/disaggregate/src/Statistic.h</text>
</g>
<!-- Node2 -->
<g id="node3" class="node"><title>Node2</title>
<polygon fill="white" stroke="#bfbfbf" points="199.5,-0.5 199.5,-21.5 240.5,-21.5 240.5,-0.5 199.5,-0.5"/>
<text text-anchor="middle" x="220" y="-8.5" font-family="Helvetica,sans-Serif" font-size="10.00">string</text>
</g>
<!-- Node1&#45;&gt;Node2 -->
<g id="edge2" class="edge"><title>Node1&#45;&gt;Node2</title>
<path fill="none" stroke="midnightblue" d="M481.35,-290.214C495.618,-259.754 530.987,-171.687 493,-116 464.605,-74.375 316.177,-34.1869 250.88,-18.2221"/>
<polygon fill="midnightblue" stroke="midnightblue" points="251.324,-14.729 240.782,-15.785 249.682,-21.5336 251.324,-14.729"/>
</g>
<!-- Node3 -->
<g id="node5" class="node"><title>Node3</title>
<polygon fill="white" stroke="#bfbfbf" points="363.5,-116.5 363.5,-137.5 412.5,-137.5 412.5,-116.5 363.5,-116.5"/>
<text text-anchor="middle" x="388" y="-124.5" font-family="Helvetica,sans-Serif" font-size="10.00">cassert</text>
</g>
<!-- Node1&#45;&gt;Node3 -->
<g id="edge4" class="edge"><title>Node1&#45;&gt;Node3</title>
<path fill="none" stroke="midnightblue" d="M470.628,-290.377C456.302,-262.051 417.004,-184.349 398.238,-147.242"/>
<polygon fill="midnightblue" stroke="midnightblue" points="401.163,-145.272 393.527,-137.928 394.917,-148.431 401.163,-145.272"/>
</g>
<!-- Node4 -->
<g id="node7" class="node"><title>Node4</title>
<polygon fill="white" stroke="#bfbfbf" points="523,-232.5 523,-253.5 567,-253.5 567,-232.5 523,-232.5"/>
<text text-anchor="middle" x="545" y="-240.5" font-family="Helvetica,sans-Serif" font-size="10.00">cmath</text>
</g>
<!-- Node1&#45;&gt;Node4 -->
<g id="edge6" class="edge"><title>Node1&#45;&gt;Node4</title>
<path fill="none" stroke="midnightblue" d="M488.656,-290.362C498.674,-281.941 512.867,-270.011 524.501,-260.231"/>
<polygon fill="midnightblue" stroke="midnightblue" points="527.022,-262.684 532.425,-253.571 522.518,-257.326 527.022,-262.684"/>
</g>
<!-- Node5 -->
<g id="node9" class="node"><title>Node5</title>
<polygon fill="white" stroke="#bfbfbf" points="430,-116.5 430,-137.5 484,-137.5 484,-116.5 430,-116.5"/>
<text text-anchor="middle" x="457" y="-124.5" font-family="Helvetica,sans-Serif" font-size="10.00">iostream</text>
</g>
<!-- Node1&#45;&gt;Node5 -->
<g id="edge8" class="edge"><title>Node1&#45;&gt;Node5</title>
<path fill="none" stroke="midnightblue" d="M474.84,-290.377C471.773,-262.293 463.407,-185.673 459.315,-148.203"/>
<polygon fill="midnightblue" stroke="midnightblue" points="462.758,-147.489 458.193,-137.928 455.8,-148.249 462.758,-147.489"/>
</g>
<!-- Node6 -->
<g id="node11" class="node"><title>Node6</title>
<polygon fill="white" stroke="#bfbfbf" points="585,-232.5 585,-253.5 773,-253.5 773,-232.5 585,-232.5"/>
<text text-anchor="middle" x="679" y="-240.5" font-family="Helvetica,sans-Serif" font-size="10.00">boost/math/distributions/students_t.hpp</text>
</g>
<!-- Node1&#45;&gt;Node6 -->
<g id="edge10" class="edge"><title>Node1&#45;&gt;Node6</title>
<path fill="none" stroke="midnightblue" d="M512.762,-290.497C546.286,-280.918 595.982,-266.72 632.304,-256.342"/>
<polygon fill="midnightblue" stroke="midnightblue" points="633.516,-259.636 642.169,-253.523 631.592,-252.905 633.516,-259.636"/>
</g>
<!-- Node7 -->
<g id="node13" class="node"><title>Node7</title>
<polygon fill="white" stroke="#bfbfbf" points="791,-232.5 791,-253.5 963,-253.5 963,-232.5 791,-232.5"/>
<text text-anchor="middle" x="877" y="-240.5" font-family="Helvetica,sans-Serif" font-size="10.00">boost/math/distributions/normal.hpp</text>
</g>
<!-- Node1&#45;&gt;Node7 -->
<g id="edge12" class="edge"><title>Node1&#45;&gt;Node7</title>
<path fill="none" stroke="midnightblue" d="M548.618,-290.497C617.812,-280.488 721.882,-265.436 794.251,-254.969"/>
<polygon fill="midnightblue" stroke="midnightblue" points="794.85,-258.419 804.246,-253.523 793.848,-251.491 794.85,-258.419"/>
</g>
<!-- Node8 -->
<g id="node15" class="node"><title>Node8</title>
<polygon fill="white" stroke="#bfbfbf" points="981,-232.5 981,-253.5 1021,-253.5 1021,-232.5 981,-232.5"/>
<text text-anchor="middle" x="1001" y="-240.5" font-family="Helvetica,sans-Serif" font-size="10.00">limits</text>
</g>
<!-- Node1&#45;&gt;Node8 -->
<g id="edge14" class="edge"><title>Node1&#45;&gt;Node8</title>
<path fill="none" stroke="midnightblue" d="M636.123,-290.482C750.853,-282.109 896.421,-269.566 970.906,-253.666"/>
<polygon fill="midnightblue" stroke="midnightblue" points="971.951,-257.018 980.934,-251.4 970.408,-250.19 971.951,-257.018"/>
</g>
<!-- Node9 -->
<g id="node17" class="node"><title>Node9</title>
<a xlink:href="_array_8h.html" target="_top" xlink:title="Array.h">
<polygon fill="white" stroke="black" points="262,-174.5 262,-195.5 310,-195.5 310,-174.5 262,-174.5"/>
<text text-anchor="middle" x="286" y="-182.5" font-family="Helvetica,sans-Serif" font-size="10.00">Array.h</text>
</a>
</g>
<!-- Node1&#45;&gt;Node9 -->
<g id="edge16" class="edge"><title>Node1&#45;&gt;Node9</title>
<path fill="none" stroke="midnightblue" d="M454.946,-290.34C437.129,-281.151 411.05,-267.301 389,-254 360.905,-237.053 329.747,-215.822 309.136,-201.419"/>
<polygon fill="midnightblue" stroke="midnightblue" points="310.918,-198.393 300.723,-195.509 306.894,-204.121 310.918,-198.393"/>
</g>
<!-- Node10 -->
<g id="node19" class="node"><title>Node10</title>
<a xlink:href="_common_8h.html" target="_top" xlink:title="Common.h">
<polygon fill="white" stroke="black" points="-0.5,-58.5 -0.5,-79.5 64.5,-79.5 64.5,-58.5 -0.5,-58.5"/>
<text text-anchor="middle" x="32" y="-66.5" font-family="Helvetica,sans-Serif" font-size="10.00">Common.h</text>
</a>
</g>
<!-- Node1&#45;&gt;Node10 -->
<g id="edge50" class="edge"><title>Node1&#45;&gt;Node10</title>
<path fill="none" stroke="midnightblue" d="M373.268,-290.497C291.739,-278.201 177.773,-251.863 93,-196 62.8209,-176.113 50.6484,-171.041 36,-138 29.3229,-122.939 28.6573,-104.186 29.4757,-90.0335"/>
<polygon fill="midnightblue" stroke="midnightblue" points="32.9836,-90.0938 30.3636,-79.828 26.0099,-89.4869 32.9836,-90.0938"/>
</g>
<!-- Node17 -->
<g id="node43" class="node"><title>Node17</title>
<a xlink:href="_histogram_8h.html" target="_top" xlink:title="Histogram.h">
<polygon fill="white" stroke="black" points="251,-232.5 251,-253.5 321,-253.5 321,-232.5 251,-232.5"/>
<text text-anchor="middle" x="286" y="-240.5" font-family="Helvetica,sans-Serif" font-size="10.00">Histogram.h</text>
</a>
</g>
<!-- Node1&#45;&gt;Node17 -->
<g id="edge52" class="edge"><title>Node1&#45;&gt;Node17</title>
<path fill="none" stroke="midnightblue" d="M441.592,-290.497C410.349,-280.959 364.099,-266.841 330.142,-256.475"/>
<polygon fill="midnightblue" stroke="midnightblue" points="331.058,-253.095 320.472,-253.523 329.015,-259.79 331.058,-253.095"/>
</g>
<!-- Node9&#45;&gt;Node3 -->
<g id="edge46" class="edge"><title>Node9&#45;&gt;Node3</title>
<path fill="none" stroke="midnightblue" d="M304.708,-174.362C320.381,-165.45 342.964,-152.609 360.663,-142.545"/>
<polygon fill="midnightblue" stroke="midnightblue" points="362.447,-145.556 369.41,-137.571 358.987,-139.471 362.447,-145.556"/>
</g>
<!-- Node9&#45;&gt;Node5 -->
<g id="edge40" class="edge"><title>Node9&#45;&gt;Node5</title>
<path fill="none" stroke="midnightblue" d="M310.137,-176.813C338.755,-167.107 386.756,-150.825 420.057,-139.53"/>
<polygon fill="midnightblue" stroke="midnightblue" points="421.536,-142.725 429.882,-136.198 419.287,-136.096 421.536,-142.725"/>
</g>
<!-- Node9&#45;&gt;Node10 -->
<g id="edge18" class="edge"><title>Node9&#45;&gt;Node10</title>
<path fill="none" stroke="midnightblue" d="M261.636,-181.802C213.397,-175.104 107.816,-158.509 78,-138 60.485,-125.953 47.8715,-104.848 40.3321,-89.142"/>
<polygon fill="midnightblue" stroke="midnightblue" points="43.4025,-87.4356 36.1099,-79.75 37.018,-90.3059 43.4025,-87.4356"/>
</g>
<!-- Node12 -->
<g id="node24" class="node"><title>Node12</title>
<polygon fill="white" stroke="#bfbfbf" points="77.5,-0.5 77.5,-21.5 106.5,-21.5 106.5,-0.5 77.5,-0.5"/>
<text text-anchor="middle" x="92" y="-8.5" font-family="Helvetica,sans-Serif" font-size="10.00">list</text>
</g>
<!-- Node9&#45;&gt;Node12 -->
<g id="edge48" class="edge"><title>Node9&#45;&gt;Node12</title>
<path fill="none" stroke="midnightblue" d="M261.751,-181.784C218.571,-175.547 131,-160.418 111,-138 84.9113,-108.757 85.6918,-59.7952 88.7426,-31.9815"/>
<polygon fill="midnightblue" stroke="midnightblue" points="92.2483,-32.1646 90.0686,-21.7964 85.3068,-31.2609 92.2483,-32.1646"/>
</g>
<!-- Node13 -->
<g id="node26" class="node"><title>Node13</title>
<a xlink:href="_utils_8h.html" target="_top" xlink:title="Utils.h">
<polygon fill="white" stroke="black" points="263.5,-116.5 263.5,-137.5 308.5,-137.5 308.5,-116.5 263.5,-116.5"/>
<text text-anchor="middle" x="286" y="-124.5" font-family="Helvetica,sans-Serif" font-size="10.00">Utils.h</text>
</a>
</g>
<!-- Node9&#45;&gt;Node13 -->
<g id="edge26" class="edge"><title>Node9&#45;&gt;Node13</title>
<path fill="none" stroke="midnightblue" d="M286,-174.362C286,-166.922 286,-156.743 286,-147.728"/>
<polygon fill="midnightblue" stroke="midnightblue" points="289.5,-147.571 286,-137.571 282.5,-147.571 289.5,-147.571"/>
</g>
<!-- Node14 -->
<g id="node29" class="node"><title>Node14</title>
<polygon fill="white" stroke="#bfbfbf" points="286,-58.5 286,-79.5 336,-79.5 336,-58.5 286,-58.5"/>
<text text-anchor="middle" x="311" y="-66.5" font-family="Helvetica,sans-Serif" font-size="10.00">fstream</text>
</g>
<!-- Node9&#45;&gt;Node14 -->
<g id="edge42" class="edge"><title>Node9&#45;&gt;Node14</title>
<path fill="none" stroke="midnightblue" d="M295.677,-174.361C303.131,-165.4 312.842,-151.856 317,-138 321.745,-122.188 319.675,-103.489 316.734,-89.5487"/>
<polygon fill="midnightblue" stroke="midnightblue" points="320.064,-88.4269 314.303,-79.5348 313.261,-90.0783 320.064,-88.4269"/>
</g>
<!-- Node15 -->
<g id="node31" class="node"><title>Node15</title>
<a xlink:href="_g_n_uplot_8h.html" target="_top" xlink:title="GNUplot.h">
<polygon fill="white" stroke="black" points="119.5,-116.5 119.5,-137.5 182.5,-137.5 182.5,-116.5 119.5,-116.5"/>
<text text-anchor="middle" x="151" y="-124.5" font-family="Helvetica,sans-Serif" font-size="10.00">GNUplot.h</text>
</a>
</g>
<!-- Node9&#45;&gt;Node15 -->
<g id="edge32" class="edge"><title>Node9&#45;&gt;Node15</title>
<path fill="none" stroke="midnightblue" d="M261.865,-174.631C240.534,-165.467 209.185,-151.998 185.26,-141.719"/>
<polygon fill="midnightblue" stroke="midnightblue" points="186.409,-138.404 175.84,-137.672 183.646,-144.835 186.409,-138.404"/>
</g>
<!-- Node16 -->
<g id="node38" class="node"><title>Node16</title>
<polygon fill="white" stroke="#bfbfbf" points="200,-116.5 200,-137.5 246,-137.5 246,-116.5 200,-116.5"/>
<text text-anchor="middle" x="223" y="-124.5" font-family="Helvetica,sans-Serif" font-size="10.00">cstdint</text>
</g>
<!-- Node9&#45;&gt;Node16 -->
<g id="edge44" class="edge"><title>Node9&#45;&gt;Node16</title>
<path fill="none" stroke="midnightblue" d="M274.445,-174.362C265.387,-166.023 252.59,-154.242 242.026,-144.516"/>
<polygon fill="midnightblue" stroke="midnightblue" points="244.21,-141.769 234.482,-137.571 239.468,-146.919 244.21,-141.769"/>
</g>
<!-- Node10&#45;&gt;Node2 -->
<g id="edge22" class="edge"><title>Node10&#45;&gt;Node2</title>
<path fill="none" stroke="midnightblue" d="M64.7471,-58.8972C99.8319,-48.0732 155.081,-31.0282 189.34,-20.4589"/>
<polygon fill="midnightblue" stroke="midnightblue" points="190.729,-23.6933 199.253,-17.4007 188.665,-17.0044 190.729,-23.6933"/>
</g>
<!-- Node11 -->
<g id="node21" class="node"><title>Node11</title>
<polygon fill="white" stroke="#bfbfbf" points="7.5,-0.5 7.5,-21.5 56.5,-21.5 56.5,-0.5 7.5,-0.5"/>
<text text-anchor="middle" x="32" y="-8.5" font-family="Helvetica,sans-Serif" font-size="10.00">cstddef</text>
</g>
<!-- Node10&#45;&gt;Node11 -->
<g id="edge20" class="edge"><title>Node10&#45;&gt;Node11</title>
<path fill="none" stroke="midnightblue" d="M32,-58.3619C32,-50.9219 32,-40.7427 32,-31.7276"/>
<polygon fill="midnightblue" stroke="midnightblue" points="35.5001,-31.5706 32,-21.5707 28.5001,-31.5707 35.5001,-31.5706"/>
</g>
<!-- Node10&#45;&gt;Node12 -->
<g id="edge24" class="edge"><title>Node10&#45;&gt;Node12</title>
<path fill="none" stroke="midnightblue" d="M43.0049,-58.3619C51.5473,-50.1043 63.5802,-38.4725 73.5832,-28.8029"/>
<polygon fill="midnightblue" stroke="midnightblue" points="76.3075,-31.0374 81.0648,-21.5707 71.4423,-26.0044 76.3075,-31.0374"/>
</g>
<!-- Node13&#45;&gt;Node2 -->
<g id="edge28" class="edge"><title>Node13&#45;&gt;Node2</title>
<path fill="none" stroke="midnightblue" d="M279.909,-116.295C268.809,-96.7861 245.142,-55.1884 231.105,-30.5177"/>
<polygon fill="midnightblue" stroke="midnightblue" points="234.063,-28.64 226.076,-21.6792 227.979,-32.1017 234.063,-28.64"/>
</g>
<!-- Node13&#45;&gt;Node14 -->
<g id="edge30" class="edge"><title>Node13&#45;&gt;Node14</title>
<path fill="none" stroke="midnightblue" d="M290.585,-116.362C293.898,-108.677 298.47,-98.0686 302.448,-88.8399"/>
<polygon fill="midnightblue" stroke="midnightblue" points="305.699,-90.1393 306.444,-79.5707 299.271,-87.3685 305.699,-90.1393"/>
</g>
<!-- Node15&#45;&gt;Node2 -->
<g id="edge34" class="edge"><title>Node15&#45;&gt;Node2</title>
<path fill="none" stroke="midnightblue" d="M157.368,-116.295C168.972,-96.7861 193.716,-55.1884 208.39,-30.5177"/>
<polygon fill="midnightblue" stroke="midnightblue" points="211.544,-32.063 213.648,-21.6792 205.527,-28.4844 211.544,-32.063"/>
</g>
<!-- Node15&#45;&gt;Node10 -->
<g id="edge38" class="edge"><title>Node15&#45;&gt;Node10</title>
<path fill="none" stroke="midnightblue" d="M129.45,-116.497C110.864,-107.438 83.7982,-94.2462 62.9046,-84.0628"/>
<polygon fill="midnightblue" stroke="midnightblue" points="64.3144,-80.8563 53.7918,-79.6212 61.2475,-87.1487 64.3144,-80.8563"/>
</g>
<!-- Node15&#45;&gt;Node12 -->
<g id="edge36" class="edge"><title>Node15&#45;&gt;Node12</title>
<path fill="none" stroke="midnightblue" d="M145.555,-116.295C135.676,-96.8724 114.662,-55.5561 102.094,-30.8462"/>
<polygon fill="midnightblue" stroke="midnightblue" points="105.085,-29.0058 97.4317,-21.6792 98.8456,-32.1793 105.085,-29.0058"/>
</g>
<!-- Node17&#45;&gt;Node9 -->
<g id="edge54" class="edge"><title>Node17&#45;&gt;Node9</title>
<path fill="none" stroke="midnightblue" d="M286,-232.362C286,-224.922 286,-214.743 286,-205.728"/>
<polygon fill="midnightblue" stroke="midnightblue" points="289.5,-205.571 286,-195.571 282.5,-205.571 289.5,-205.571"/>
</g>
<!-- Node17&#45;&gt;Node10 -->
<g id="edge56" class="edge"><title>Node17&#45;&gt;Node10</title>
<path fill="none" stroke="midnightblue" d="M250.957,-236.68C200.031,-225.669 105.893,-198.134 53,-138 41.2695,-124.664 36.0912,-104.923 33.8055,-89.9692"/>
<polygon fill="midnightblue" stroke="midnightblue" points="37.2335,-89.1611 32.5608,-79.6524 30.2839,-89.9996 37.2335,-89.1611"/>
</g>
</g>
</svg>
