<?xml version="1.0" encoding="UTF-8" standalone="no"?>
<!DOCTYPE svg PUBLIC "-//W3C//DTD SVG 1.1//EN"
 "http://www.w3.org/Graphics/SVG/1.1/DTD/svg11.dtd">
<!-- Generated by graphviz version 2.26.3 (20100126.1600)
 -->
<!-- Title: G Pages: 1 -->
<svg width="385pt" height="146pt"
 viewBox="0.00 0.00 385.00 146.00" xmlns="http://www.w3.org/2000/svg" xmlns:xlink="http://www.w3.org/1999/xlink">
<g id="graph1" class="graph" transform="scale(1 1) rotate(0) translate(4 142)">
<title>G</title>
<polygon fill="white" stroke="white" points="-4,5 -4,-142 382,-142 382,5 -4,5"/>
<!-- Node1 -->
<g id="node1" class="node"><title>Node1</title>
<polygon fill="#bfbfbf" stroke="black" points="2.5,-116.5 2.5,-137.5 367.5,-137.5 367.5,-116.5 2.5,-116.5"/>
<text text-anchor="middle" x="185" y="-124.5" font-family="Helvetica,sans-Serif" font-size="10.00">/mnt/sshfs/imperialroot/homes/dk3810/workingcopies/disaggregate/src/Utils.cpp</text>
</g>
<!-- Node2 -->
<g id="node3" class="node"><title>Node2</title>
<a xlink:href="_utils_8h.html" target="_top" xlink:title="Utils.h">
<polygon fill="white" stroke="black" points="54.5,-58.5 54.5,-79.5 99.5,-79.5 99.5,-58.5 54.5,-58.5"/>
<text text-anchor="middle" x="77" y="-66.5" font-family="Helvetica,sans-Serif" font-size="10.00">Utils.h</text>
</a>
</g>
<!-- Node1&#45;&gt;Node2 -->
<g id="edge2" class="edge"><title>Node1&#45;&gt;Node2</title>
<path fill="none" stroke="midnightblue" d="M165.442,-116.497C148.802,-107.56 124.673,-94.602 105.82,-84.4772"/>
<polygon fill="midnightblue" stroke="midnightblue" points="107.243,-81.2691 96.7774,-79.6212 103.931,-87.436 107.243,-81.2691"/>
</g>
<!-- Node4 -->
<g id="node7" class="node"><title>Node4</title>
<polygon fill="white" stroke="#bfbfbf" points="0,-0.5 0,-21.5 50,-21.5 50,-0.5 0,-0.5"/>
<text text-anchor="middle" x="25" y="-8.5" font-family="Helvetica,sans-Serif" font-size="10.00">fstream</text>
</g>
<!-- Node1&#45;&gt;Node4 -->
<g id="edge20" class="edge"><title>Node1&#45;&gt;Node4</title>
<path fill="none" stroke="midnightblue" d="M113.536,-116.487C89.3268,-109.681 63.9124,-98.4695 46,-80 33.4433,-67.0528 28.3686,-46.8313 26.3315,-31.62"/>
<polygon fill="midnightblue" stroke="midnightblue" points="29.8073,-31.2034 25.3215,-21.6051 22.8427,-31.9058 29.8073,-31.2034"/>
</g>
<!-- Node5 -->
<g id="node9" class="node"><title>Node5</title>
<a xlink:href="_common_8h.html" target="_top" xlink:title="Common.h">
<polygon fill="white" stroke="black" points="116.5,-58.5 116.5,-79.5 181.5,-79.5 181.5,-58.5 116.5,-58.5"/>
<text text-anchor="middle" x="149" y="-66.5" font-family="Helvetica,sans-Serif" font-size="10.00">Common.h</text>
</a>
</g>
<!-- Node1&#45;&gt;Node5 -->
<g id="edge8" class="edge"><title>Node1&#45;&gt;Node5</title>
<path fill="none" stroke="midnightblue" d="M178.397,-116.362C173.525,-108.513 166.762,-97.6159 160.95,-88.2527"/>
<polygon fill="midnightblue" stroke="midnightblue" points="163.809,-86.2213 155.561,-79.5707 157.861,-89.9129 163.809,-86.2213"/>
</g>
<!-- Node8 -->
<g id="node16" class="node"><title>Node8</title>
<polygon fill="white" stroke="#bfbfbf" points="199,-58.5 199,-79.5 243,-79.5 243,-58.5 199,-58.5"/>
<text text-anchor="middle" x="221" y="-66.5" font-family="Helvetica,sans-Serif" font-size="10.00">cmath</text>
</g>
<!-- Node1&#45;&gt;Node8 -->
<g id="edge16" class="edge"><title>Node1&#45;&gt;Node8</title>
<path fill="none" stroke="midnightblue" d="M191.603,-116.362C196.475,-108.513 203.238,-97.6159 209.05,-88.2527"/>
<polygon fill="midnightblue" stroke="midnightblue" points="212.139,-89.9129 214.439,-79.5707 206.191,-86.2213 212.139,-89.9129"/>
</g>
<!-- Node9 -->
<g id="node18" class="node"><title>Node9</title>
<polygon fill="white" stroke="#bfbfbf" points="261,-58.5 261,-79.5 305,-79.5 305,-58.5 261,-58.5"/>
<text text-anchor="middle" x="283" y="-66.5" font-family="Helvetica,sans-Serif" font-size="10.00">time.h</text>
</g>
<!-- Node1&#45;&gt;Node9 -->
<g id="edge18" class="edge"><title>Node1&#45;&gt;Node9</title>
<path fill="none" stroke="midnightblue" d="M202.975,-116.362C217.894,-107.532 239.333,-94.844 256.266,-84.8224"/>
<polygon fill="midnightblue" stroke="midnightblue" points="258.316,-87.6759 265.139,-79.5707 254.751,-81.6519 258.316,-87.6759"/>
</g>
<!-- Node10 -->
<g id="node21" class="node"><title>Node10</title>
<polygon fill="white" stroke="#bfbfbf" points="323,-58.5 323,-79.5 377,-79.5 377,-58.5 323,-58.5"/>
<text text-anchor="middle" x="350" y="-66.5" font-family="Helvetica,sans-Serif" font-size="10.00">iostream</text>
</g>
<!-- Node1&#45;&gt;Node10 -->
<g id="edge22" class="edge"><title>Node1&#45;&gt;Node10</title>
<path fill="none" stroke="midnightblue" d="M214.88,-116.497C242.498,-106.789 283.617,-92.3346 313.237,-81.9228"/>
<polygon fill="midnightblue" stroke="midnightblue" points="314.531,-85.1777 322.805,-78.5595 312.21,-78.5738 314.531,-85.1777"/>
</g>
<!-- Node3 -->
<g id="node5" class="node"><title>Node3</title>
<polygon fill="white" stroke="#bfbfbf" points="67.5,-0.5 67.5,-21.5 108.5,-21.5 108.5,-0.5 67.5,-0.5"/>
<text text-anchor="middle" x="88" y="-8.5" font-family="Helvetica,sans-Serif" font-size="10.00">string</text>
</g>
<!-- Node2&#45;&gt;Node3 -->
<g id="edge4" class="edge"><title>Node2&#45;&gt;Node3</title>
<path fill="none" stroke="midnightblue" d="M79.0176,-58.3619C80.4441,-50.8401 82.4016,-40.5187 84.1252,-31.4308"/>
<polygon fill="midnightblue" stroke="midnightblue" points="87.5705,-32.0477 85.9952,-21.5707 80.6931,-30.7433 87.5705,-32.0477"/>
</g>
<!-- Node2&#45;&gt;Node4 -->
<g id="edge6" class="edge"><title>Node2&#45;&gt;Node4</title>
<path fill="none" stroke="midnightblue" d="M67.4624,-58.3619C60.1323,-50.1861 49.8367,-38.7025 41.2192,-29.0907"/>
<polygon fill="midnightblue" stroke="midnightblue" points="43.7586,-26.68 34.4771,-21.5707 38.5466,-31.3528 43.7586,-26.68"/>
</g>
<!-- Node5&#45;&gt;Node3 -->
<g id="edge12" class="edge"><title>Node5&#45;&gt;Node3</title>
<path fill="none" stroke="midnightblue" d="M137.812,-58.3619C129.041,-50.0226 116.651,-38.2418 106.422,-28.5162"/>
<polygon fill="midnightblue" stroke="midnightblue" points="108.776,-25.9248 99.1174,-21.5707 103.953,-30.9978 108.776,-25.9248"/>
</g>
<!-- Node6 -->
<g id="node11" class="node"><title>Node6</title>
<polygon fill="white" stroke="#bfbfbf" points="125.5,-0.5 125.5,-21.5 174.5,-21.5 174.5,-0.5 125.5,-0.5"/>
<text text-anchor="middle" x="150" y="-8.5" font-family="Helvetica,sans-Serif" font-size="10.00">cstddef</text>
</g>
<!-- Node5&#45;&gt;Node6 -->
<g id="edge10" class="edge"><title>Node5&#45;&gt;Node6</title>
<path fill="none" stroke="midnightblue" d="M149.183,-58.3619C149.312,-50.9219 149.487,-40.7427 149.643,-31.7276"/>
<polygon fill="midnightblue" stroke="midnightblue" points="153.145,-31.6295 149.818,-21.5707 146.146,-31.5088 153.145,-31.6295"/>
</g>
<!-- Node7 -->
<g id="node14" class="node"><title>Node7</title>
<polygon fill="white" stroke="#bfbfbf" points="191.5,-0.5 191.5,-21.5 220.5,-21.5 220.5,-0.5 191.5,-0.5"/>
<text text-anchor="middle" x="206" y="-8.5" font-family="Helvetica,sans-Serif" font-size="10.00">list</text>
</g>
<!-- Node5&#45;&gt;Node7 -->
<g id="edge14" class="edge"><title>Node5&#45;&gt;Node7</title>
<path fill="none" stroke="midnightblue" d="M159.455,-58.3619C167.57,-50.1043 179.001,-38.4725 188.504,-28.8029"/>
<polygon fill="midnightblue" stroke="midnightblue" points="191.099,-31.1562 195.612,-21.5707 186.106,-26.2497 191.099,-31.1562"/>
</g>
</g>
</svg>
