<?xml version="1.0" encoding="UTF-8" standalone="no"?>
<!DOCTYPE svg PUBLIC "-//W3C//DTD SVG 1.1//EN"
 "http://www.w3.org/Graphics/SVG/1.1/DTD/svg11.dtd">
<!-- Generated by graphviz version 2.26.3 (20100126.1600)
 -->
<!-- Title: G Pages: 1 -->
<svg width="2808pt" height="494pt"
 viewBox="0.00 0.00 2808.00 494.00" xmlns="http://www.w3.org/2000/svg" xmlns:xlink="http://www.w3.org/1999/xlink">
<g id="graph1" class="graph" transform="scale(1 1) rotate(0) translate(4 490)">
<title>G</title>
<polygon fill="white" stroke="white" points="-4,5 -4,-490 2805,-490 2805,5 -4,5"/>
<!-- Node1 -->
<g id="node1" class="node"><title>Node1</title>
<polygon fill="#bfbfbf" stroke="black" points="1830.5,-464.5 1830.5,-485.5 2185.5,-485.5 2185.5,-464.5 1830.5,-464.5"/>
<text text-anchor="middle" x="2008" y="-472.5" font-family="Helvetica,sans-Serif" font-size="10.00">/mnt/sshfs/imperialroot/homes/dk3810/workingcopies/disaggregate/src/Utils.h</text>
</g>
<!-- Node2 -->
<g id="node3" class="node"><title>Node2</title>
<a xlink:href="_array_8h.html" target="_top" xlink:title="/mnt/sshfs/imperialroot/homes/dk3810/workingcopies/disaggregate/src/Array.h">
<polygon fill="white" stroke="black" points="880,-406.5 880,-427.5 1238,-427.5 1238,-406.5 880,-406.5"/>
<text text-anchor="middle" x="1059" y="-414.5" font-family="Helvetica,sans-Serif" font-size="10.00">/mnt/sshfs/imperialroot/homes/dk3810/workingcopies/disaggregate/src/Array.h</text>
</a>
</g>
<!-- Node1&#45;&gt;Node2 -->
<g id="edge2" class="edge"><title>Node1&#45;&gt;Node2</title>
<path fill="none" stroke="midnightblue" d="M1825.99,-463.876C1654.49,-453.394 1399.4,-437.804 1231.18,-427.523"/>
<polygon fill="midnightblue" stroke="midnightblue" points="1825.95,-467.38 1836.14,-464.497 1826.38,-460.393 1825.95,-467.38"/>
</g>
<!-- Node8 -->
<g id="node15" class="node"><title>Node8</title>
<a xlink:href="_signature_8cpp.html" target="_top" xlink:title="/mnt/sshfs/imperialroot/homes/dk3810/workingcopies/disaggregate/src/Signature.cpp">
<polygon fill="white" stroke="black" points="1294,-0.5 1294,-21.5 1680,-21.5 1680,-0.5 1294,-0.5"/>
<text text-anchor="middle" x="1487" y="-8.5" font-family="Helvetica,sans-Serif" font-size="10.00">/mnt/sshfs/imperialroot/homes/dk3810/workingcopies/disaggregate/src/Signature.cpp</text>
</a>
</g>
<!-- Node1&#45;&gt;Node8 -->
<g id="edge76" class="edge"><title>Node1&#45;&gt;Node8</title>
<path fill="none" stroke="midnightblue" d="M2008,-454.406C2008,-431.215 2008,-392.402 2008,-359 2008,-359 2008,-359 2008,-127 2008,-69.6649 1953.07,-77.0648 1899,-58 1852.7,-41.6771 1738.81,-29.4072 1642.48,-21.5043"/>
<polygon fill="midnightblue" stroke="midnightblue" points="2004.5,-454.444 2008,-464.444 2011.5,-454.444 2004.5,-454.444"/>
</g>
<!-- Node14 -->
<g id="node38" class="node"><title>Node14</title>
<a xlink:href="_power_state_sequence_8cpp.html" target="_top" xlink:title="/mnt/sshfs/imperialroot/homes/dk3810/workingcopies/disaggregate/src/PowerStateSequence.cpp">
<polygon fill="white" stroke="black" points="1502,-174.5 1502,-195.5 1942,-195.5 1942,-174.5 1502,-174.5"/>
<text text-anchor="middle" x="1722" y="-182.5" font-family="Helvetica,sans-Serif" font-size="10.00">/mnt/sshfs/imperialroot/homes/dk3810/workingcopies/disaggregate/src/PowerStateSequence.cpp</text>
</a>
</g>
<!-- Node1&#45;&gt;Node14 -->
<g id="edge74" class="edge"><title>Node1&#45;&gt;Node14</title>
<path fill="none" stroke="midnightblue" d="M1997.29,-455.268C1986.05,-432.685 1970,-394.259 1970,-359 1970,-359 1970,-359 1970,-301 1970,-256.141 1835.18,-214.372 1764.35,-195.522"/>
<polygon fill="midnightblue" stroke="midnightblue" points="1994.2,-456.91 2001.89,-464.191 2000.42,-453.699 1994.2,-456.91"/>
</g>
<!-- Node17 -->
<g id="node53" class="node"><title>Node17</title>
<a xlink:href="_g_n_uplot_8cpp.html" target="_top" xlink:title="/mnt/sshfs/imperialroot/homes/dk3810/workingcopies/disaggregate/src/GNUplot.cpp">
<polygon fill="white" stroke="black" points="2035.5,-406.5 2035.5,-427.5 2418.5,-427.5 2418.5,-406.5 2035.5,-406.5"/>
<text text-anchor="middle" x="2227" y="-414.5" font-family="Helvetica,sans-Serif" font-size="10.00">/mnt/sshfs/imperialroot/homes/dk3810/workingcopies/disaggregate/src/GNUplot.cpp</text>
</a>
</g>
<!-- Node1&#45;&gt;Node17 -->
<g id="edge72" class="edge"><title>Node1&#45;&gt;Node17</title>
<path fill="none" stroke="midnightblue" d="M2057.54,-461.879C2096.77,-451.489 2150.84,-437.169 2187.27,-427.523"/>
<polygon fill="midnightblue" stroke="midnightblue" points="2056.43,-458.553 2047.66,-464.497 2058.22,-465.32 2056.43,-458.553"/>
</g>
<!-- Node18 -->
<g id="node57" class="node"><title>Node18</title>
<a xlink:href="_utils_8cpp.html" target="_top" xlink:title="/mnt/sshfs/imperialroot/homes/dk3810/workingcopies/disaggregate/src/Utils.cpp">
<polygon fill="white" stroke="black" points="2435.5,-406.5 2435.5,-427.5 2800.5,-427.5 2800.5,-406.5 2435.5,-406.5"/>
<text text-anchor="middle" x="2618" y="-414.5" font-family="Helvetica,sans-Serif" font-size="10.00">/mnt/sshfs/imperialroot/homes/dk3810/workingcopies/disaggregate/src/Utils.cpp</text>
</a>
</g>
<!-- Node1&#45;&gt;Node18 -->
<g id="edge78" class="edge"><title>Node1&#45;&gt;Node18</title>
<path fill="none" stroke="midnightblue" d="M2128.63,-463.53C2238.82,-453.054 2400.38,-437.691 2507.33,-427.523"/>
<polygon fill="midnightblue" stroke="midnightblue" points="2128.09,-460.066 2118.47,-464.497 2128.75,-467.034 2128.09,-460.066"/>
</g>
<!-- Node3 -->
<g id="node5" class="node"><title>Node3</title>
<a xlink:href="_aggregate_data_8h.html" target="_top" xlink:title="/mnt/sshfs/imperialroot/homes/dk3810/workingcopies/disaggregate/src/AggregateData.h">
<polygon fill="white" stroke="black" points="226,-174.5 226,-195.5 626,-195.5 626,-174.5 226,-174.5"/>
<text text-anchor="middle" x="426" y="-182.5" font-family="Helvetica,sans-Serif" font-size="10.00">/mnt/sshfs/imperialroot/homes/dk3810/workingcopies/disaggregate/src/AggregateData.h</text>
</a>
</g>
<!-- Node2&#45;&gt;Node3 -->
<g id="edge4" class="edge"><title>Node2&#45;&gt;Node3</title>
<path fill="none" stroke="midnightblue" d="M970.535,-404.898C880.01,-390.444 736.623,-361.743 621,-312 546.404,-279.908 468.735,-219.919 438.805,-195.623"/>
<polygon fill="midnightblue" stroke="midnightblue" points="970.066,-408.368 980.488,-406.464 971.154,-401.453 970.066,-408.368"/>
</g>
<!-- Node7 -->
<g id="node13" class="node"><title>Node7</title>
<a xlink:href="_main_8cpp.html" target="_top" xlink:title="/mnt/sshfs/imperialroot/homes/dk3810/workingcopies/disaggregate/src/Main.cpp">
<polygon fill="white" stroke="black" points="516,-0.5 516,-21.5 882,-21.5 882,-0.5 516,-0.5"/>
<text text-anchor="middle" x="699" y="-8.5" font-family="Helvetica,sans-Serif" font-size="10.00">/mnt/sshfs/imperialroot/homes/dk3810/workingcopies/disaggregate/src/Main.cpp</text>
</a>
</g>
<!-- Node2&#45;&gt;Node7 -->
<g id="edge70" class="edge"><title>Node2&#45;&gt;Node7</title>
<path fill="none" stroke="midnightblue" d="M872.088,-405.838C568.064,-386.423 0,-344.348 0,-301 0,-301 0,-301 0,-127 0,-71.159 52.1751,-76.1039 105,-58 178.456,-32.8255 370.033,-21.0139 515.931,-15.5499"/>
<polygon fill="midnightblue" stroke="midnightblue" points="872.141,-409.349 882.343,-406.491 872.586,-402.363 872.141,-409.349"/>
</g>
<!-- Node11 -->
<g id="node24" class="node"><title>Node11</title>
<a xlink:href="_statistic_8h.html" target="_top" xlink:title="/mnt/sshfs/imperialroot/homes/dk3810/workingcopies/disaggregate/src/Statistic.h">
<polygon fill="white" stroke="black" points="629.5,-290.5 629.5,-311.5 1000.5,-311.5 1000.5,-290.5 629.5,-290.5"/>
<text text-anchor="middle" x="815" y="-298.5" font-family="Helvetica,sans-Serif" font-size="10.00">/mnt/sshfs/imperialroot/homes/dk3810/workingcopies/disaggregate/src/Statistic.h</text>
</a>
</g>
<!-- Node2&#45;&gt;Node11 -->
<g id="edge26" class="edge"><title>Node2&#45;&gt;Node11</title>
<path fill="none" stroke="midnightblue" d="M1027.39,-401.97C977.203,-378.113 880.56,-332.168 837.111,-311.512"/>
<polygon fill="midnightblue" stroke="midnightblue" points="1025.95,-405.162 1036.48,-406.295 1028.95,-398.84 1025.95,-405.162"/>
</g>
<!-- Node12 -->
<g id="node27" class="node"><title>Node12</title>
<a xlink:href="_signature_8h.html" target="_top" xlink:title="/mnt/sshfs/imperialroot/homes/dk3810/workingcopies/disaggregate/src/Signature.h">
<polygon fill="white" stroke="black" points="1070,-174.5 1070,-195.5 1446,-195.5 1446,-174.5 1070,-174.5"/>
<text text-anchor="middle" x="1258" y="-182.5" font-family="Helvetica,sans-Serif" font-size="10.00">/mnt/sshfs/imperialroot/homes/dk3810/workingcopies/disaggregate/src/Signature.h</text>
</a>
</g>
<!-- Node2&#45;&gt;Node12 -->
<g id="edge68" class="edge"><title>Node2&#45;&gt;Node12</title>
<path fill="none" stroke="midnightblue" d="M1196.35,-405.542C1288.05,-396.733 1394.9,-383.772 1412,-370 1459.8,-331.51 1460,-275.792 1417,-232 1402.43,-217.161 1353.65,-204.099 1313.92,-195.536"/>
<polygon fill="midnightblue" stroke="midnightblue" points="1196.01,-402.058 1186.39,-406.489 1196.67,-409.027 1196.01,-402.058"/>
</g>
<!-- Node15 -->
<g id="node44" class="node"><title>Node15</title>
<a xlink:href="_histogram_8h.html" target="_top" xlink:title="/mnt/sshfs/imperialroot/homes/dk3810/workingcopies/disaggregate/src/Histogram.h">
<polygon fill="white" stroke="black" points="1023,-348.5 1023,-369.5 1403,-369.5 1403,-348.5 1023,-348.5"/>
<text text-anchor="middle" x="1213" y="-356.5" font-family="Helvetica,sans-Serif" font-size="10.00">/mnt/sshfs/imperialroot/homes/dk3810/workingcopies/disaggregate/src/Histogram.h</text>
</a>
</g>
<!-- Node2&#45;&gt;Node15 -->
<g id="edge58" class="edge"><title>Node2&#45;&gt;Node15</title>
<path fill="none" stroke="midnightblue" d="M1096.51,-402.874C1123.83,-392.582 1160.26,-378.862 1185.06,-369.523"/>
<polygon fill="midnightblue" stroke="midnightblue" points="1095.01,-399.697 1086.89,-406.497 1097.48,-406.247 1095.01,-399.697"/>
</g>
<!-- Node4 -->
<g id="node7" class="node"><title>Node4</title>
<a xlink:href="_aggregate_data_8cpp.html" target="_top" xlink:title="/mnt/sshfs/imperialroot/homes/dk3810/workingcopies/disaggregate/src/AggregateData.cpp">
<polygon fill="white" stroke="black" points="104,-116.5 104,-137.5 514,-137.5 514,-116.5 104,-116.5"/>
<text text-anchor="middle" x="309" y="-124.5" font-family="Helvetica,sans-Serif" font-size="10.00">/mnt/sshfs/imperialroot/homes/dk3810/workingcopies/disaggregate/src/AggregateData.cpp</text>
</a>
</g>
<!-- Node3&#45;&gt;Node4 -->
<g id="edge6" class="edge"><title>Node3&#45;&gt;Node4</title>
<path fill="none" stroke="midnightblue" d="M395.604,-169.932C375.152,-159.793 348.689,-146.675 330.426,-137.621"/>
<polygon fill="midnightblue" stroke="midnightblue" points="394.298,-173.191 404.812,-174.497 397.407,-166.919 394.298,-173.191"/>
</g>
<!-- Node5 -->
<g id="node9" class="node"><title>Node5</title>
<a xlink:href="_device_8h.html" target="_top" xlink:title="/mnt/sshfs/imperialroot/homes/dk3810/workingcopies/disaggregate/src/Device.h">
<polygon fill="white" stroke="black" points="827.5,-58.5 827.5,-79.5 1192.5,-79.5 1192.5,-58.5 827.5,-58.5"/>
<text text-anchor="middle" x="1010" y="-66.5" font-family="Helvetica,sans-Serif" font-size="10.00">/mnt/sshfs/imperialroot/homes/dk3810/workingcopies/disaggregate/src/Device.h</text>
</a>
</g>
<!-- Node3&#45;&gt;Node5 -->
<g id="edge8" class="edge"><title>Node3&#45;&gt;Node5</title>
<path fill="none" stroke="midnightblue" d="M636.097,-173.955C770.425,-165.564 924.628,-152.939 953,-138 978.022,-124.825 996.276,-95.5083 1004.74,-79.6605"/>
<polygon fill="midnightblue" stroke="midnightblue" points="635.816,-170.465 626.052,-174.577 636.249,-177.452 635.816,-170.465"/>
</g>
<!-- Node9 -->
<g id="node17" class="node"><title>Node9</title>
<a xlink:href="_power_state_graph_8h.html" target="_top" xlink:title="/mnt/sshfs/imperialroot/homes/dk3810/workingcopies/disaggregate/src/PowerStateGraph.h">
<polygon fill="white" stroke="black" points="532,-116.5 532,-137.5 944,-137.5 944,-116.5 532,-116.5"/>
<text text-anchor="middle" x="738" y="-124.5" font-family="Helvetica,sans-Serif" font-size="10.00">/mnt/sshfs/imperialroot/homes/dk3810/workingcopies/disaggregate/src/PowerStateGraph.h</text>
</a>
</g>
<!-- Node3&#45;&gt;Node9 -->
<g id="edge16" class="edge"><title>Node3&#45;&gt;Node9</title>
<path fill="none" stroke="midnightblue" d="M492.355,-172.665C548.53,-162.222 628.182,-147.415 681.393,-137.523"/>
<polygon fill="midnightblue" stroke="midnightblue" points="491.693,-169.228 482.501,-174.497 492.972,-176.11 491.693,-169.228"/>
</g>
<!-- Node10 -->
<g id="node21" class="node"><title>Node10</title>
<a xlink:href="_power_state_graph_8cpp.html" target="_top" xlink:title="/mnt/sshfs/imperialroot/homes/dk3810/workingcopies/disaggregate/src/PowerStateGraph.cpp">
<polygon fill="white" stroke="black" points="164,-58.5 164,-79.5 586,-79.5 586,-58.5 164,-58.5"/>
<text text-anchor="middle" x="375" y="-66.5" font-family="Helvetica,sans-Serif" font-size="10.00">/mnt/sshfs/imperialroot/homes/dk3810/workingcopies/disaggregate/src/PowerStateGraph.cpp</text>
</a>
</g>
<!-- Node3&#45;&gt;Node10 -->
<g id="edge24" class="edge"><title>Node3&#45;&gt;Node10</title>
<path fill="none" stroke="midnightblue" d="M284.027,-173.475C200.181,-165.187 107.911,-152.873 95,-138 88.5905,-130.616 88.6842,-123.464 95,-116 106.82,-102.03 199.144,-88.4526 274.598,-79.5128"/>
<polygon fill="midnightblue" stroke="midnightblue" points="283.912,-176.98 294.204,-174.466 284.591,-170.013 283.912,-176.98"/>
</g>
<!-- Node6 -->
<g id="node11" class="node"><title>Node6</title>
<a xlink:href="_device_8cpp.html" target="_top" xlink:title="/mnt/sshfs/imperialroot/homes/dk3810/workingcopies/disaggregate/src/Device.cpp">
<polygon fill="white" stroke="black" points="900,-0.5 900,-21.5 1276,-21.5 1276,-0.5 900,-0.5"/>
<text text-anchor="middle" x="1088" y="-8.5" font-family="Helvetica,sans-Serif" font-size="10.00">/mnt/sshfs/imperialroot/homes/dk3810/workingcopies/disaggregate/src/Device.cpp</text>
</a>
</g>
<!-- Node5&#45;&gt;Node6 -->
<g id="edge10" class="edge"><title>Node5&#45;&gt;Node6</title>
<path fill="none" stroke="midnightblue" d="M1032.51,-52.2587C1045.82,-42.3641 1062.27,-30.1361 1073.78,-21.5707"/>
<polygon fill="midnightblue" stroke="midnightblue" points="1030.24,-49.5862 1024.31,-58.3619 1034.42,-55.2035 1030.24,-49.5862"/>
</g>
<!-- Node5&#45;&gt;Node7 -->
<g id="edge12" class="edge"><title>Node5&#45;&gt;Node7</title>
<path fill="none" stroke="midnightblue" d="M943.51,-56.5999C887.534,-46.1607 808.357,-31.3945 755.425,-21.5231"/>
<polygon fill="midnightblue" stroke="midnightblue" points="943.208,-60.1039 953.68,-58.4966 944.491,-53.2225 943.208,-60.1039"/>
</g>
<!-- Node5&#45;&gt;Node8 -->
<g id="edge14" class="edge"><title>Node5&#45;&gt;Node8</title>
<path fill="none" stroke="midnightblue" d="M1106.42,-57.2759C1192.52,-46.8063 1317.5,-31.6095 1400.46,-21.5231"/>
<polygon fill="midnightblue" stroke="midnightblue" points="1105.89,-53.8151 1096.38,-58.4966 1106.73,-60.7639 1105.89,-53.8151"/>
</g>
<!-- Node9&#45;&gt;Node5 -->
<g id="edge18" class="edge"><title>Node9&#45;&gt;Node5</title>
<path fill="none" stroke="midnightblue" d="M797.069,-114.404C845.97,-103.977 914.645,-89.333 960.65,-79.5231"/>
<polygon fill="midnightblue" stroke="midnightblue" points="796.307,-110.988 787.257,-116.497 797.767,-117.834 796.307,-110.988"/>
</g>
<!-- Node9&#45;&gt;Node7 -->
<g id="edge20" class="edge"><title>Node9&#45;&gt;Node7</title>
<path fill="none" stroke="midnightblue" d="M731.205,-106.79C722.881,-82.0294 709.085,-40.996 702.59,-21.6792"/>
<polygon fill="midnightblue" stroke="midnightblue" points="727.897,-107.932 734.401,-116.295 734.532,-105.701 727.897,-107.932"/>
</g>
<!-- Node9&#45;&gt;Node10 -->
<g id="edge22" class="edge"><title>Node9&#45;&gt;Node10</title>
<path fill="none" stroke="midnightblue" d="M662.014,-114.859C596.593,-104.406 503.154,-89.4764 440.86,-79.5231"/>
<polygon fill="midnightblue" stroke="midnightblue" points="661.836,-118.375 672.263,-116.497 662.941,-111.463 661.836,-118.375"/>
</g>
<!-- Node11&#45;&gt;Node3 -->
<g id="edge28" class="edge"><title>Node11&#45;&gt;Node3</title>
<path fill="none" stroke="midnightblue" d="M769.86,-287.539C691.568,-264.192 532.19,-216.666 461.329,-195.535"/>
<polygon fill="midnightblue" stroke="midnightblue" points="768.864,-290.895 779.448,-290.398 770.865,-284.186 768.864,-290.895"/>
</g>
<!-- Node11&#45;&gt;Node5 -->
<g id="edge50" class="edge"><title>Node11&#45;&gt;Node5</title>
<path fill="none" stroke="midnightblue" d="M837.414,-283.921C872.172,-256.457 939.395,-199.314 981,-138 993.695,-119.291 1002.53,-94.1382 1006.89,-79.9443"/>
<polygon fill="midnightblue" stroke="midnightblue" points="835.039,-281.334 829.312,-290.248 839.347,-286.851 835.039,-281.334"/>
</g>
<!-- Node11&#45;&gt;Node7 -->
<g id="edge54" class="edge"><title>Node11&#45;&gt;Node7</title>
<path fill="none" stroke="midnightblue" d="M645.859,-289.605C450.193,-272.19 147.112,-230.643 87,-138 57.1145,-91.9415 131.695,-67.7486 155,-58 218.294,-31.5234 383.934,-19.9617 515.945,-14.9131"/>
<polygon fill="midnightblue" stroke="midnightblue" points="645.698,-293.105 655.966,-290.492 646.31,-286.131 645.698,-293.105"/>
</g>
<!-- Node11&#45;&gt;Node8 -->
<g id="edge56" class="edge"><title>Node11&#45;&gt;Node8</title>
<path fill="none" stroke="midnightblue" d="M986.395,-289.785C1150.91,-278.612 1377.2,-262.002 1396,-254 1438.59,-235.87 1474,-231.284 1474,-185 1474,-185 1474,-185 1474,-127 1474,-87.8886 1481.39,-41.8184 1485.03,-21.5119"/>
<polygon fill="midnightblue" stroke="midnightblue" points="985.886,-286.311 976.145,-290.479 986.359,-293.295 985.886,-286.311"/>
</g>
<!-- Node11&#45;&gt;Node9 -->
<g id="edge52" class="edge"><title>Node11&#45;&gt;Node9</title>
<path fill="none" stroke="midnightblue" d="M806.217,-281.153C789.925,-244.338 755.527,-166.606 742.836,-137.928"/>
<polygon fill="midnightblue" stroke="midnightblue" points="803.052,-282.649 810.299,-290.377 809.453,-279.816 803.052,-282.649"/>
</g>
<!-- Node11&#45;&gt;Node12 -->
<g id="edge30" class="edge"><title>Node11&#45;&gt;Node12</title>
<path fill="none" stroke="midnightblue" d="M982.016,-289.781C1145.87,-278.373 1372.23,-261.359 1379,-254 1404.63,-226.15 1353.7,-206.564 1310.24,-195.546"/>
<polygon fill="midnightblue" stroke="midnightblue" points="981.543,-286.306 971.809,-290.49 982.028,-293.289 981.543,-286.306"/>
</g>
<!-- Node13 -->
<g id="node34" class="node"><title>Node13</title>
<a xlink:href="_power_state_sequence_8h.html" target="_top" xlink:title="/mnt/sshfs/imperialroot/homes/dk3810/workingcopies/disaggregate/src/PowerStateSequence.h">
<polygon fill="white" stroke="black" points="941.5,-232.5 941.5,-253.5 1370.5,-253.5 1370.5,-232.5 941.5,-232.5"/>
<text text-anchor="middle" x="1156" y="-240.5" font-family="Helvetica,sans-Serif" font-size="10.00">/mnt/sshfs/imperialroot/homes/dk3810/workingcopies/disaggregate/src/PowerStateSequence.h</text>
</a>
</g>
<!-- Node11&#45;&gt;Node13 -->
<g id="edge42" class="edge"><title>Node11&#45;&gt;Node13</title>
<path fill="none" stroke="midnightblue" d="M886.761,-288.794C948.198,-278.345 1035.73,-263.456 1094.13,-253.523"/>
<polygon fill="midnightblue" stroke="midnightblue" points="886.024,-285.369 876.753,-290.497 887.198,-292.27 886.024,-285.369"/>
</g>
<!-- Node12&#45;&gt;Node5 -->
<g id="edge32" class="edge"><title>Node12&#45;&gt;Node5</title>
<path fill="none" stroke="midnightblue" d="M1225.87,-169.97C1174.86,-146.113 1076.64,-100.168 1032.47,-79.5117"/>
<polygon fill="midnightblue" stroke="midnightblue" points="1224.57,-173.228 1235.11,-174.295 1227.54,-166.888 1224.57,-173.228"/>
</g>
<!-- Node12&#45;&gt;Node6 -->
<g id="edge36" class="edge"><title>Node12&#45;&gt;Node6</title>
<path fill="none" stroke="midnightblue" d="M1260.1,-164.116C1261.67,-136.412 1260.1,-87.5739 1234,-58 1221.14,-43.4253 1175.46,-30.1878 1138.58,-21.5028"/>
<polygon fill="midnightblue" stroke="midnightblue" points="1256.59,-164.02 1259.32,-174.258 1263.57,-164.554 1256.59,-164.02"/>
</g>
<!-- Node12&#45;&gt;Node7 -->
<g id="edge38" class="edge"><title>Node12&#45;&gt;Node7</title>
<path fill="none" stroke="midnightblue" d="M1255.19,-164.333C1250.05,-135.304 1236.2,-83.1921 1201,-58 1186.74,-47.7958 993.627,-31.95 851.163,-21.5241"/>
<polygon fill="midnightblue" stroke="midnightblue" points="1251.74,-164.897 1256.76,-174.224 1258.65,-163.799 1251.74,-164.897"/>
</g>
<!-- Node12&#45;&gt;Node8 -->
<g id="edge40" class="edge"><title>Node12&#45;&gt;Node8</title>
<path fill="none" stroke="midnightblue" d="M1280.23,-168.108C1326.99,-132.579 1434.38,-50.9853 1472.91,-21.7046"/>
<polygon fill="midnightblue" stroke="midnightblue" points="1277.83,-165.541 1271.98,-174.377 1282.06,-171.114 1277.83,-165.541"/>
</g>
<!-- Node12&#45;&gt;Node9 -->
<g id="edge34" class="edge"><title>Node12&#45;&gt;Node9</title>
<path fill="none" stroke="midnightblue" d="M1153.74,-173.371C1059.85,-162.899 923.05,-147.64 832.345,-137.523"/>
<polygon fill="midnightblue" stroke="midnightblue" points="1153.51,-176.866 1163.83,-174.497 1154.28,-169.91 1153.51,-176.866"/>
</g>
<!-- Node13&#45;&gt;Node5 -->
<g id="edge46" class="edge"><title>Node13&#45;&gt;Node5</title>
<path fill="none" stroke="midnightblue" d="M1110.99,-228.663C1093.51,-221.231 1074.5,-210.587 1061,-196 1044.38,-178.037 1021.48,-106.748 1013.17,-79.5859"/>
<polygon fill="midnightblue" stroke="midnightblue" points="1109.91,-232.001 1120.5,-232.466 1112.51,-225.502 1109.91,-232.001"/>
</g>
<!-- Node13&#45;&gt;Node12 -->
<g id="edge44" class="edge"><title>Node13&#45;&gt;Node12</title>
<path fill="none" stroke="midnightblue" d="M1183.47,-227.379C1201.19,-217.301 1223.77,-204.462 1239.41,-195.571"/>
<polygon fill="midnightblue" stroke="midnightblue" points="1181.67,-224.376 1174.71,-232.362 1185.13,-230.461 1181.67,-224.376"/>
</g>
<!-- Node13&#45;&gt;Node14 -->
<g id="edge48" class="edge"><title>Node13&#45;&gt;Node14</title>
<path fill="none" stroke="midnightblue" d="M1268.55,-231.467C1370.77,-220.992 1520.28,-205.671 1619.31,-195.523"/>
<polygon fill="midnightblue" stroke="midnightblue" points="1268.09,-227.995 1258.5,-232.497 1268.8,-234.959 1268.09,-227.995"/>
</g>
<!-- Node15&#45;&gt;Node8 -->
<g id="edge66" class="edge"><title>Node15&#45;&gt;Node8</title>
<path fill="none" stroke="midnightblue" d="M1363.62,-347.543C1557.73,-329.284 1878.9,-286.035 1951,-196 2041.6,-82.8708 1816.15,-38.6052 1648.7,-21.505"/>
<polygon fill="midnightblue" stroke="midnightblue" points="1363.25,-344.063 1353.62,-348.473 1363.9,-351.033 1363.25,-344.063"/>
</g>
<!-- Node15&#45;&gt;Node11 -->
<g id="edge60" class="edge"><title>Node15&#45;&gt;Node11</title>
<path fill="none" stroke="midnightblue" d="M1131.01,-347.052C1059.23,-336.591 955.932,-321.538 887.21,-311.523"/>
<polygon fill="midnightblue" stroke="midnightblue" points="1130.52,-350.518 1140.93,-348.497 1131.53,-343.591 1130.52,-350.518"/>
</g>
<!-- Node15&#45;&gt;Node12 -->
<g id="edge62" class="edge"><title>Node15&#45;&gt;Node12</title>
<path fill="none" stroke="midnightblue" d="M1318.6,-346.821C1361.47,-339.505 1403.98,-328.358 1417,-312 1433.47,-291.306 1410.85,-246.565 1396,-232 1377.21,-213.566 1350.91,-202.353 1326.31,-195.536"/>
<polygon fill="midnightblue" stroke="midnightblue" points="1317.89,-343.391 1308.59,-348.462 1319.02,-350.299 1317.89,-343.391"/>
</g>
<!-- Node16 -->
<g id="node48" class="node"><title>Node16</title>
<a xlink:href="_histogram_8cpp.html" target="_top" xlink:title="/mnt/sshfs/imperialroot/homes/dk3810/workingcopies/disaggregate/src/Histogram.cpp">
<polygon fill="white" stroke="black" points="1018,-290.5 1018,-311.5 1408,-311.5 1408,-290.5 1018,-290.5"/>
<text text-anchor="middle" x="1213" y="-298.5" font-family="Helvetica,sans-Serif" font-size="10.00">/mnt/sshfs/imperialroot/homes/dk3810/workingcopies/disaggregate/src/Histogram.cpp</text>
</a>
</g>
<!-- Node15&#45;&gt;Node16 -->
<g id="edge64" class="edge"><title>Node15&#45;&gt;Node16</title>
<path fill="none" stroke="midnightblue" d="M1213,-338.191C1213,-329.168 1213,-318.994 1213,-311.571"/>
<polygon fill="midnightblue" stroke="midnightblue" points="1209.5,-338.362 1213,-348.362 1216.5,-338.362 1209.5,-338.362"/>
</g>
</g>
</svg>
