<?xml version="1.0" encoding="UTF-8" standalone="no"?>
<!DOCTYPE svg PUBLIC "-//W3C//DTD SVG 1.1//EN"
 "http://www.w3.org/Graphics/SVG/1.1/DTD/svg11.dtd">
<!-- Generated by graphviz version 2.26.3 (20100126.1600)
 -->
<!-- Title: G Pages: 1 -->
<svg width="730pt" height="259pt"
 viewBox="0.00 0.00 730.00 258.73" xmlns="http://www.w3.org/2000/svg" xmlns:xlink="http://www.w3.org/1999/xlink">
<g id="graph1" class="graph" transform="scale(1 1) rotate(0) translate(4 254.73)">
<title>G</title>
<polygon fill="white" stroke="white" points="-4,5 -4,-254.73 727,-254.73 727,5 -4,5"/>
<!-- Node1 -->
<g id="node1" class="node"><title>Node1</title>
<polygon fill="#bfbfbf" stroke="black" points="0.5,-118.5 0.5,-139.5 79.5,-139.5 79.5,-118.5 0.5,-118.5"/>
<text text-anchor="middle" x="40" y="-126.5" font-family="Helvetica,sans-Serif" font-size="10.00">Array::getSize</text>
</g>
<!-- Node2 -->
<g id="node3" class="node"><title>Node2</title>
<a xlink:href="class_device.html#a821d5fa106be895802fff97c673ba633" target="_top" xlink:title="Device::findAlignment">
<polygon fill="white" stroke="black" points="340.5,-158.5 340.5,-179.5 453.5,-179.5 453.5,-158.5 340.5,-158.5"/>
<text text-anchor="middle" x="397" y="-166.5" font-family="Helvetica,sans-Serif" font-size="10.00">Device::findAlignment</text>
</a>
</g>
<!-- Node1&#45;&gt;Node2 -->
<g id="edge2" class="edge"><title>Node1&#45;&gt;Node2</title>
<path fill="none" stroke="midnightblue" d="M48.4243,-149.061C59.7748,-173.15 82.4978,-212.382 116,-229 187.668,-264.549 218.856,-250.186 296,-229 331.008,-219.386 366.162,-194.134 384.335,-179.638"/>
<polygon fill="midnightblue" stroke="midnightblue" points="51.5447,-147.466 44.2578,-139.775 45.158,-150.331 51.5447,-147.466"/>
</g>
<!-- Node4 -->
<g id="node7" class="node"><title>Node4</title>
<a xlink:href="class_device.html#a47fcd7e3c739ede14fdb27407d1b4481" target="_top" xlink:title="Device::getStartTimes">
<polygon fill="white" stroke="black" points="148.5,-198.5 148.5,-219.5 263.5,-219.5 263.5,-198.5 148.5,-198.5"/>
<text text-anchor="middle" x="206" y="-206.5" font-family="Helvetica,sans-Serif" font-size="10.00">Device::getStartTimes</text>
</a>
</g>
<!-- Node1&#45;&gt;Node4 -->
<g id="edge6" class="edge"><title>Node1&#45;&gt;Node4</title>
<path fill="none" stroke="midnightblue" d="M57.5168,-146.654C71.9883,-160.233 93.7072,-178.41 116,-189 125.976,-193.739 137.112,-197.376 148.059,-200.161"/>
<polygon fill="midnightblue" stroke="midnightblue" points="59.8928,-144.083 50.2651,-139.661 55.0336,-149.122 59.8928,-144.083"/>
</g>
<!-- Node5 -->
<g id="node9" class="node"><title>Node5</title>
<a xlink:href="class_power_state_graph.html#aae4db4000f6485559f06ab4de4d54619" target="_top" xlink:title="Determine the index of the next spike after spike.">
<polygon fill="white" stroke="black" points="116.5,-118.5 116.5,-139.5 295.5,-139.5 295.5,-118.5 116.5,-118.5"/>
<text text-anchor="middle" x="206" y="-126.5" font-family="Helvetica,sans-Serif" font-size="10.00">PowerStateGraph::indexOfNextSpike</text>
</a>
</g>
<!-- Node1&#45;&gt;Node5 -->
<g id="edge8" class="edge"><title>Node1&#45;&gt;Node5</title>
<path fill="none" stroke="midnightblue" d="M90.0189,-129C98.3668,-129 107.246,-129 116.232,-129"/>
<polygon fill="midnightblue" stroke="midnightblue" points="89.7612,-125.5 79.7611,-129 89.7611,-132.5 89.7612,-125.5"/>
</g>
<!-- Node6 -->
<g id="node11" class="node"><title>Node6</title>
<a xlink:href="class_power_state_graph.html#a90ebffe4864640182b342a814af0f0a7" target="_top" xlink:title="Update or initialise Power State Graph.">
<polygon fill="white" stroke="black" points="332.5,-118.5 332.5,-139.5 461.5,-139.5 461.5,-118.5 332.5,-118.5"/>
<text text-anchor="middle" x="397" y="-126.5" font-family="Helvetica,sans-Serif" font-size="10.00">PowerStateGraph::update</text>
</a>
</g>
<!-- Node1&#45;&gt;Node6 -->
<g id="edge24" class="edge"><title>Node1&#45;&gt;Node6</title>
<path fill="none" stroke="midnightblue" d="M82.2564,-115.823C93.1421,-112.998 104.915,-110.434 116,-109 195.339,-98.7354 216.382,-101.193 296,-109 315.035,-110.867 335.803,-114.667 353.529,-118.458"/>
<polygon fill="midnightblue" stroke="midnightblue" points="81.283,-112.46 72.5539,-118.465 83.1222,-119.214 81.283,-112.46"/>
</g>
<!-- Node8 -->
<g id="node16" class="node"><title>Node8</title>
<a xlink:href="class_device.html#ac99af11562629b3f90001e5415f5399a" target="_top" xlink:title="Least mean difference.">
<polygon fill="white" stroke="black" points="169,-158.5 169,-179.5 243,-179.5 243,-158.5 169,-158.5"/>
<text text-anchor="middle" x="206" y="-166.5" font-family="Helvetica,sans-Serif" font-size="10.00">Device::LMS</text>
</a>
</g>
<!-- Node1&#45;&gt;Node8 -->
<g id="edge16" class="edge"><title>Node1&#45;&gt;Node8</title>
<path fill="none" stroke="midnightblue" d="M88.9411,-142.177C97.9257,-144.511 107.233,-146.873 116,-149 133.266,-153.189 152.479,-157.505 168.706,-161.051"/>
<polygon fill="midnightblue" stroke="midnightblue" points="89.5411,-138.716 78.9805,-139.567 87.767,-145.487 89.5411,-138.716"/>
</g>
<!-- Node9 -->
<g id="node19" class="node"><title>Node9</title>
<a xlink:href="struct_statistic.html#af65b6ce15fbfb16859606e61cf29ba4c" target="_top" xlink:title="Constructor from histogram data.">
<polygon fill="white" stroke="black" points="129,-40.5 129,-61.5 283,-61.5 283,-40.5 129,-40.5"/>
<text text-anchor="middle" x="206" y="-48.5" font-family="Helvetica,sans-Serif" font-size="10.00">Statistic&lt; Sample_t &gt;::Statistic</text>
</a>
</g>
<!-- Node1&#45;&gt;Node9 -->
<g id="edge20" class="edge"><title>Node1&#45;&gt;Node9</title>
<path fill="none" stroke="midnightblue" d="M60.2466,-112.025C74.9234,-100.458 95.6822,-85.564 116,-76 128.618,-70.0603 142.915,-65.29 156.34,-61.5737"/>
<polygon fill="midnightblue" stroke="midnightblue" points="57.9456,-109.384 52.3572,-118.385 62.3391,-114.833 57.9456,-109.384"/>
</g>
<!-- Node10 -->
<g id="node21" class="node"><title>Node10</title>
<a xlink:href="struct_statistic.html#acabbdf2b6cc229a10a8d3d6658a0c366" target="_top" xlink:title="Update an existing Statistic with new data points.">
<polygon fill="white" stroke="black" points="132.5,-0.5 132.5,-21.5 279.5,-21.5 279.5,-0.5 132.5,-0.5"/>
<text text-anchor="middle" x="206" y="-8.5" font-family="Helvetica,sans-Serif" font-size="10.00">Statistic&lt; Sample_t &gt;::update</text>
</a>
</g>
<!-- Node1&#45;&gt;Node10 -->
<g id="edge22" class="edge"><title>Node1&#45;&gt;Node10</title>
<path fill="none" stroke="midnightblue" d="M49.7198,-109.484C61.9918,-86.9456 85.2681,-50.4786 116,-31 122.084,-27.144 128.81,-24.0257 135.764,-21.5048"/>
<polygon fill="midnightblue" stroke="midnightblue" points="46.5498,-107.993 45.0061,-118.475 52.7494,-111.243 46.5498,-107.993"/>
</g>
<!-- Node3 -->
<g id="node5" class="node"><title>Node3</title>
<a xlink:href="_main_8cpp.html#a0ddf1224851353fc92bfbff6f499fa97" target="_top" xlink:title="main">
<polygon fill="white" stroke="black" points="684,-137.5 684,-158.5 722,-158.5 722,-137.5 684,-137.5"/>
<text text-anchor="middle" x="703" y="-145.5" font-family="Helvetica,sans-Serif" font-size="10.00">main</text>
</a>
</g>
<!-- Node2&#45;&gt;Node3 -->
<g id="edge4" class="edge"><title>Node2&#45;&gt;Node3</title>
<path fill="none" stroke="midnightblue" d="M463.943,-164.406C534.272,-159.579 640.553,-152.286 683.739,-149.322"/>
<polygon fill="midnightblue" stroke="midnightblue" points="463.576,-160.923 453.839,-165.099 464.055,-167.906 463.576,-160.923"/>
</g>
<!-- Node5&#45;&gt;Node6 -->
<g id="edge10" class="edge"><title>Node5&#45;&gt;Node6</title>
<path fill="none" stroke="midnightblue" d="M305.817,-129C314.838,-129 323.808,-129 332.403,-129"/>
<polygon fill="midnightblue" stroke="midnightblue" points="305.628,-125.5 295.628,-129 305.628,-132.5 305.628,-125.5"/>
</g>
<!-- Node7 -->
<g id="node13" class="node"><title>Node7</title>
<a xlink:href="class_device.html#ad3d9721aca89723e22cf723149a39583" target="_top" xlink:title="Trains the powerStateGraph using signatures declared with loadSignatures(). To be called once signatu...">
<polygon fill="white" stroke="black" points="498.5,-118.5 498.5,-139.5 647.5,-139.5 647.5,-118.5 498.5,-118.5"/>
<text text-anchor="middle" x="573" y="-126.5" font-family="Helvetica,sans-Serif" font-size="10.00">Device::trainPowerStateGraph</text>
</a>
</g>
<!-- Node6&#45;&gt;Node7 -->
<g id="edge12" class="edge"><title>Node6&#45;&gt;Node7</title>
<path fill="none" stroke="midnightblue" d="M471.762,-129C480.562,-129 489.542,-129 498.34,-129"/>
<polygon fill="midnightblue" stroke="midnightblue" points="471.537,-125.5 461.537,-129 471.536,-132.5 471.537,-125.5"/>
</g>
<!-- Node7&#45;&gt;Node3 -->
<g id="edge14" class="edge"><title>Node7&#45;&gt;Node3</title>
<path fill="none" stroke="midnightblue" d="M654.889,-140.968C665.663,-142.543 675.772,-144.021 683.916,-145.211"/>
<polygon fill="midnightblue" stroke="midnightblue" points="655.245,-137.483 644.844,-139.5 654.233,-144.41 655.245,-137.483"/>
</g>
<!-- Node8&#45;&gt;Node2 -->
<g id="edge18" class="edge"><title>Node8&#45;&gt;Node2</title>
<path fill="none" stroke="midnightblue" d="M253.378,-169C279.681,-169 312.575,-169 340.245,-169"/>
<polygon fill="midnightblue" stroke="midnightblue" points="253.28,-165.5 243.28,-169 253.28,-172.5 253.28,-165.5"/>
</g>
</g>
</svg>
