<?xml version="1.0" encoding="UTF-8" standalone="no"?>
<!DOCTYPE svg PUBLIC "-//W3C//DTD SVG 1.1//EN"
 "http://www.w3.org/Graphics/SVG/1.1/DTD/svg11.dtd">
<!-- Generated by graphviz version 2.26.3 (20100126.1600)
 -->
<!-- Title: G Pages: 1 -->
<svg width="720pt" height="328pt"
 viewBox="0.00 0.00 720.00 328.00" xmlns="http://www.w3.org/2000/svg" xmlns:xlink="http://www.w3.org/1999/xlink">
<g id="graph1" class="graph" transform="scale(1 1) rotate(0) translate(4 324)">
<title>G</title>
<polygon fill="white" stroke="white" points="-4,5 -4,-324 717,-324 717,5 -4,5"/>
<!-- Node1 -->
<g id="node1" class="node"><title>Node1</title>
<polygon fill="#bfbfbf" stroke="black" points="0.5,-160.5 0.5,-181.5 167.5,-181.5 167.5,-160.5 0.5,-160.5"/>
<text text-anchor="middle" x="84" y="-168.5" font-family="Helvetica,sans-Serif" font-size="10.00">Signature::drawHistWithStateBars</text>
</g>
<!-- Node2 -->
<g id="node3" class="node"><title>Node2</title>
<a xlink:href="class_array.html#a6ef27596ae6f5cd98001ca8ba7b13038" target="_top" xlink:title="Array::dumpToFile">
<polygon fill="white" stroke="black" points="252.5,-298.5 252.5,-319.5 349.5,-319.5 349.5,-298.5 252.5,-298.5"/>
<text text-anchor="middle" x="301" y="-306.5" font-family="Helvetica,sans-Serif" font-size="10.00">Array::dumpToFile</text>
</a>
</g>
<!-- Node1&#45;&gt;Node2 -->
<g id="edge2" class="edge"><title>Node1&#45;&gt;Node2</title>
<path fill="none" stroke="midnightblue" d="M91.3133,-181.52C108.202,-204.943 152.444,-261.49 204,-289 215.726,-295.257 229.214,-299.559 242.331,-302.516"/>
<polygon fill="midnightblue" stroke="midnightblue" points="241.759,-305.971 252.254,-304.525 243.148,-299.11 241.759,-305.971"/>
</g>
<!-- Node3 -->
<g id="node5" class="node"><title>Node3</title>
<a xlink:href="class_histogram.html#ac542b993b1f5a0ab1b94d4ee7b0bb70d" target="_top" xlink:title="Histogram::getBaseFilename">
<polygon fill="white" stroke="black" points="229.5,-258.5 229.5,-279.5 372.5,-279.5 372.5,-258.5 229.5,-258.5"/>
<text text-anchor="middle" x="301" y="-266.5" font-family="Helvetica,sans-Serif" font-size="10.00">Histogram::getBaseFilename</text>
</a>
</g>
<!-- Node1&#45;&gt;Node3 -->
<g id="edge4" class="edge"><title>Node1&#45;&gt;Node3</title>
<path fill="none" stroke="midnightblue" d="M98.3934,-181.706C120.186,-197.451 163.336,-226.837 204,-244 214.953,-248.623 226.972,-252.559 238.708,-255.846"/>
<polygon fill="midnightblue" stroke="midnightblue" points="237.906,-259.255 248.47,-258.456 239.713,-252.492 237.906,-259.255"/>
</g>
<!-- Node4 -->
<g id="node7" class="node"><title>Node4</title>
<a xlink:href="namespace_utils.html#a48dfa27103961c7cc6082f7e68857748" target="_top" xlink:title="Utils::size_t_to_s">
<polygon fill="white" stroke="black" points="460.5,-238.5 460.5,-259.5 553.5,-259.5 553.5,-238.5 460.5,-238.5"/>
<text text-anchor="middle" x="507" y="-246.5" font-family="Helvetica,sans-Serif" font-size="10.00">Utils::size_t_to_s</text>
</a>
</g>
<!-- Node1&#45;&gt;Node4 -->
<g id="edge26" class="edge"><title>Node1&#45;&gt;Node4</title>
<path fill="none" stroke="midnightblue" d="M110.733,-181.602C134.771,-190.726 171.235,-203.561 204,-211 288.55,-230.196 388.728,-240.374 450.063,-245.222"/>
<polygon fill="midnightblue" stroke="midnightblue" points="450.068,-248.733 460.307,-246.011 450.605,-241.753 450.068,-248.733"/>
</g>
<!-- Node5 -->
<g id="node9" class="node"><title>Node5</title>
<a xlink:href="class_array.html#a142bd1adb0eb622a1d89e6ca514509c0" target="_top" xlink:title="Array::getSmoothedGradOfHistFilename">
<polygon fill="white" stroke="black" points="204.5,-180.5 204.5,-201.5 397.5,-201.5 397.5,-180.5 204.5,-180.5"/>
<text text-anchor="middle" x="301" y="-188.5" font-family="Helvetica,sans-Serif" font-size="10.00">Array::getSmoothedGradOfHistFilename</text>
</a>
</g>
<!-- Node1&#45;&gt;Node5 -->
<g id="edge8" class="edge"><title>Node1&#45;&gt;Node5</title>
<path fill="none" stroke="midnightblue" d="M167.587,-178.704C176.349,-179.511 185.34,-180.34 194.314,-181.167"/>
<polygon fill="midnightblue" stroke="midnightblue" points="194.146,-184.666 204.425,-182.099 194.789,-177.696 194.146,-184.666"/>
</g>
<!-- Node6 -->
<g id="node11" class="node"><title>Node6</title>
<a xlink:href="class_array.html#ae80fff561b788262683b42941f2ebda5" target="_top" xlink:title="Array::getSmoothing">
<polygon fill="white" stroke="black" points="248,-140.5 248,-161.5 354,-161.5 354,-140.5 248,-140.5"/>
<text text-anchor="middle" x="301" y="-148.5" font-family="Helvetica,sans-Serif" font-size="10.00">Array::getSmoothing</text>
</a>
</g>
<!-- Node1&#45;&gt;Node6 -->
<g id="edge10" class="edge"><title>Node1&#45;&gt;Node6</title>
<path fill="none" stroke="midnightblue" d="M167.587,-163.296C190.881,-161.149 215.795,-158.853 237.711,-156.833"/>
<polygon fill="midnightblue" stroke="midnightblue" points="238.243,-160.299 247.88,-155.896 237.601,-153.328 238.243,-160.299"/>
</g>
<!-- Node7 -->
<g id="node13" class="node"><title>Node7</title>
<a xlink:href="class_signature.html#a6e3fba4e40182e955f5d475553f401c5" target="_top" xlink:title="Signature::getStateBarsBaseFilename">
<polygon fill="white" stroke="black" points="209.5,-100.5 209.5,-121.5 392.5,-121.5 392.5,-100.5 209.5,-100.5"/>
<text text-anchor="middle" x="301" y="-108.5" font-family="Helvetica,sans-Serif" font-size="10.00">Signature::getStateBarsBaseFilename</text>
</a>
</g>
<!-- Node1&#45;&gt;Node7 -->
<g id="edge12" class="edge"><title>Node1&#45;&gt;Node7</title>
<path fill="none" stroke="midnightblue" d="M112.806,-160.328C136.934,-151.649 172.4,-139.492 204,-131 213.714,-128.389 224.054,-125.927 234.226,-123.683"/>
<polygon fill="midnightblue" stroke="midnightblue" points="235.273,-127.038 244.313,-121.513 233.8,-120.194 235.273,-127.038"/>
</g>
<!-- Node8 -->
<g id="node15" class="node"><title>Node8</title>
<a xlink:href="class_array.html#a7ba19720014d5acbdc165dee31686bd3" target="_top" xlink:title="Array::getUpstreamSmoothing">
<polygon fill="white" stroke="black" points="226.5,-60.5 226.5,-81.5 375.5,-81.5 375.5,-60.5 226.5,-60.5"/>
<text text-anchor="middle" x="301" y="-68.5" font-family="Helvetica,sans-Serif" font-size="10.00">Array::getUpstreamSmoothing</text>
</a>
</g>
<!-- Node1&#45;&gt;Node8 -->
<g id="edge14" class="edge"><title>Node1&#45;&gt;Node8</title>
<path fill="none" stroke="midnightblue" d="M96.3707,-160.353C117.152,-143.048 161.026,-108.95 204,-91 210.129,-88.4397 216.618,-86.1967 223.218,-84.2335"/>
<polygon fill="midnightblue" stroke="midnightblue" points="224.228,-87.5857 232.938,-81.5531 222.367,-80.8376 224.228,-87.5857"/>
</g>
<!-- Node9 -->
<g id="node17" class="node"><title>Node9</title>
<a xlink:href="namespace_g_n_uplot.html#ab276a6d946560395f9d6caa8cb6cb640" target="_top" xlink:title="Plot a graph using GNUplot.">
<polygon fill="white" stroke="black" points="262.5,-20.5 262.5,-41.5 339.5,-41.5 339.5,-20.5 262.5,-20.5"/>
<text text-anchor="middle" x="301" y="-28.5" font-family="Helvetica,sans-Serif" font-size="10.00">GNUplot::plot</text>
</a>
</g>
<!-- Node1&#45;&gt;Node9 -->
<g id="edge16" class="edge"><title>Node1&#45;&gt;Node9</title>
<path fill="none" stroke="midnightblue" d="M91.2681,-160.299C108.065,-136.474 152.13,-78.9587 204,-51 218.651,-43.103 236.091,-38.3185 252.115,-35.4218"/>
<polygon fill="midnightblue" stroke="midnightblue" points="253.076,-38.8127 262.398,-33.7771 251.971,-31.9005 253.076,-38.8127"/>
</g>
<!-- Node3&#45;&gt;Node4 -->
<g id="edge6" class="edge"><title>Node3&#45;&gt;Node4</title>
<path fill="none" stroke="midnightblue" d="M372.76,-262.033C398.16,-259.567 426.36,-256.829 450.331,-254.502"/>
<polygon fill="midnightblue" stroke="midnightblue" points="450.71,-257.982 460.325,-253.532 450.033,-251.014 450.71,-257.982"/>
</g>
<!-- Node10 -->
<g id="node19" class="node"><title>Node10</title>
<a xlink:href="namespace_utils.html#ae7741f30cf104d6660673d7c336ef5cc" target="_top" xlink:title="Utils::fileExists">
<polygon fill="white" stroke="black" points="465.5,-60.5 465.5,-81.5 548.5,-81.5 548.5,-60.5 465.5,-60.5"/>
<text text-anchor="middle" x="507" y="-68.5" font-family="Helvetica,sans-Serif" font-size="10.00">Utils::fileExists</text>
</a>
</g>
<!-- Node9&#45;&gt;Node10 -->
<g id="edge18" class="edge"><title>Node9&#45;&gt;Node10</title>
<path fill="none" stroke="midnightblue" d="M339.747,-38.5237C372.313,-44.8472 419.147,-53.9412 454.977,-60.8984"/>
<polygon fill="midnightblue" stroke="midnightblue" points="454.757,-64.4211 465.241,-62.8915 456.092,-57.5494 454.757,-64.4211"/>
</g>
<!-- Node11 -->
<g id="node21" class="node"><title>Node11</title>
<a xlink:href="namespace_g_n_uplot.html#a1a232691d61b3e55fdcc406a3a2e9c1f" target="_top" xlink:title="Replaces all the tokens in the template file &#39;config/plotVars.inFilename&#39; with variables from...">
<polygon fill="white" stroke="black" points="434,-20.5 434,-41.5 580,-41.5 580,-20.5 434,-20.5"/>
<text text-anchor="middle" x="507" y="-28.5" font-family="Helvetica,sans-Serif" font-size="10.00">GNUplot::instantiateTemplate</text>
</a>
</g>
<!-- Node9&#45;&gt;Node11 -->
<g id="edge20" class="edge"><title>Node9&#45;&gt;Node11</title>
<path fill="none" stroke="midnightblue" d="M339.747,-31C363.413,-31 394.615,-31 423.652,-31"/>
<polygon fill="midnightblue" stroke="midnightblue" points="423.817,-34.5001 433.817,-31 423.817,-27.5001 423.817,-34.5001"/>
</g>
<!-- Node12 -->
<g id="node23" class="node"><title>Node12</title>
<a xlink:href="namespace_g_n_uplot.html#a60ecface5bf85a5e3e2e1743bd266737" target="_top" xlink:title="Replace all characters which might confuse &#39;sed&#39;.">
<polygon fill="white" stroke="black" points="616.5,-0.5 616.5,-21.5 711.5,-21.5 711.5,-0.5 616.5,-0.5"/>
<text text-anchor="middle" x="664" y="-8.5" font-family="Helvetica,sans-Serif" font-size="10.00">GNUplot::sanitise</text>
</a>
</g>
<!-- Node9&#45;&gt;Node12 -->
<g id="edge24" class="edge"><title>Node9&#45;&gt;Node12</title>
<path fill="none" stroke="midnightblue" d="M339.53,-23.65C365.991,-18.9859 401.983,-13.3938 434,-11 492.491,-6.62677 559.583,-7.27218 606.149,-8.61676"/>
<polygon fill="midnightblue" stroke="midnightblue" points="606.246,-12.1213 616.349,-8.93196 606.462,-5.12467 606.246,-12.1213"/>
</g>
<!-- Node11&#45;&gt;Node12 -->
<g id="edge22" class="edge"><title>Node11&#45;&gt;Node12</title>
<path fill="none" stroke="midnightblue" d="M580.444,-21.6441C589.068,-20.5455 597.773,-19.4365 606.142,-18.3704"/>
<polygon fill="midnightblue" stroke="midnightblue" points="606.678,-21.8306 616.155,-17.0949 605.793,-14.8867 606.678,-21.8306"/>
</g>
</g>
</svg>
