<?xml version="1.0" encoding="UTF-8" standalone="no"?>
<!DOCTYPE svg PUBLIC "-//W3C//DTD SVG 1.1//EN"
 "http://www.w3.org/Graphics/SVG/1.1/DTD/svg11.dtd">
<!-- Generated by graphviz version 2.26.3 (20100126.1600)
 -->
<!-- Title: G Pages: 1 -->
<svg width="882pt" height="70pt"
 viewBox="0.00 0.00 882.00 70.00" xmlns="http://www.w3.org/2000/svg" xmlns:xlink="http://www.w3.org/1999/xlink">
<g id="graph1" class="graph" transform="scale(1 1) rotate(0) translate(4 66)">
<title>G</title>
<polygon fill="white" stroke="white" points="-4,5 -4,-66 879,-66 879,5 -4,5"/>
<!-- Node1 -->
<g id="node1" class="node"><title>Node1</title>
<polygon fill="#bfbfbf" stroke="black" points="0,-20.5 0,-41.5 182,-41.5 182,-20.5 0,-20.5"/>
<text text-anchor="middle" x="91" y="-28.5" font-family="Helvetica,sans-Serif" font-size="10.00">PowerStateGraph::edgeListsAreEqual</text>
</g>
<!-- Node2 -->
<g id="node3" class="node"><title>Node2</title>
<a xlink:href="class_power_state_graph.html#a0df76ca216d2d48aeb44d2bb08046e2f" target="_top" xlink:title="PowerStateGraph::traceToEnd">
<polygon fill="white" stroke="black" points="237,-40.5 237,-61.5 387,-61.5 387,-40.5 237,-40.5"/>
<text text-anchor="middle" x="312" y="-48.5" font-family="Helvetica,sans-Serif" font-size="10.00">PowerStateGraph::traceToEnd</text>
</a>
</g>
<!-- Node1&#45;&gt;Node2 -->
<g id="edge2" class="edge"><title>Node1&#45;&gt;Node2</title>
<path fill="none" stroke="midnightblue" d="M192.461,-40.1819C207.402,-41.5342 222.566,-42.9065 236.849,-44.199"/>
<polygon fill="midnightblue" stroke="midnightblue" points="192.44,-36.6659 182.165,-39.2502 191.809,-43.6374 192.44,-36.6659"/>
</g>
<!-- Node6 -->
<g id="node11" class="node"><title>Node6</title>
<a xlink:href="class_power_state_graph.html#a0e3e05ae1b952132621425c042d84ec1" target="_top" xlink:title="Update or Insert a new edge into powerStateGraph.">
<polygon fill="white" stroke="black" points="218.5,-0.5 218.5,-21.5 405.5,-21.5 405.5,-0.5 218.5,-0.5"/>
<text text-anchor="middle" x="312" y="-8.5" font-family="Helvetica,sans-Serif" font-size="10.00">PowerStateGraph::updateOrInsertEdge</text>
</a>
</g>
<!-- Node1&#45;&gt;Node6 -->
<g id="edge10" class="edge"><title>Node1&#45;&gt;Node6</title>
<path fill="none" stroke="midnightblue" d="M192.258,-21.8364C200.896,-21.0547 209.609,-20.2661 218.186,-19.49"/>
<polygon fill="midnightblue" stroke="midnightblue" points="191.809,-18.3626 182.165,-22.7498 192.44,-25.3341 191.809,-18.3626"/>
</g>
<!-- Node3 -->
<g id="node5" class="node"><title>Node3</title>
<a xlink:href="class_power_state_graph.html#a0478f171d51d21613746640c7415fb0b" target="_top" xlink:title="PowerStateGraph::initTraceToEnd">
<polygon fill="white" stroke="black" points="442,-40.5 442,-61.5 608,-61.5 608,-40.5 442,-40.5"/>
<text text-anchor="middle" x="525" y="-48.5" font-family="Helvetica,sans-Serif" font-size="10.00">PowerStateGraph::initTraceToEnd</text>
</a>
</g>
<!-- Node2&#45;&gt;Node3 -->
<g id="edge4" class="edge"><title>Node2&#45;&gt;Node3</title>
<path fill="none" stroke="midnightblue" d="M397.187,-51C411.915,-51 427.209,-51 441.881,-51"/>
<polygon fill="midnightblue" stroke="midnightblue" points="397.096,-47.5001 387.096,-51 397.096,-54.5001 397.096,-47.5001"/>
</g>
<!-- Node4 -->
<g id="node7" class="node"><title>Node4</title>
<a xlink:href="class_power_state_graph.html#a3823f720987e5e13eb7f1cfae7cdf4be" target="_top" xlink:title="This is the main public interface to the disaggregation algorithm.">
<polygon fill="white" stroke="black" points="644.5,-40.5 644.5,-61.5 799.5,-61.5 799.5,-40.5 644.5,-40.5"/>
<text text-anchor="middle" x="722" y="-48.5" font-family="Helvetica,sans-Serif" font-size="10.00">PowerStateGraph::disaggregate</text>
</a>
</g>
<!-- Node3&#45;&gt;Node4 -->
<g id="edge6" class="edge"><title>Node3&#45;&gt;Node4</title>
<path fill="none" stroke="midnightblue" d="M618.418,-51C627.105,-51 635.845,-51 644.367,-51"/>
<polygon fill="midnightblue" stroke="midnightblue" points="618.26,-47.5001 608.26,-51 618.26,-54.5001 618.26,-47.5001"/>
</g>
<!-- Node5 -->
<g id="node9" class="node"><title>Node5</title>
<a xlink:href="_main_8cpp.html#a0ddf1224851353fc92bfbff6f499fa97" target="_top" xlink:title="main">
<polygon fill="white" stroke="black" points="836,-20.5 836,-41.5 874,-41.5 874,-20.5 836,-20.5"/>
<text text-anchor="middle" x="855" y="-28.5" font-family="Helvetica,sans-Serif" font-size="10.00">main</text>
</a>
</g>
<!-- Node4&#45;&gt;Node5 -->
<g id="edge8" class="edge"><title>Node4&#45;&gt;Node5</title>
<path fill="none" stroke="midnightblue" d="M802.15,-38.9474C814.664,-37.0656 826.504,-35.2851 835.793,-33.8883"/>
<polygon fill="midnightblue" stroke="midnightblue" points="801.374,-35.5247 792.005,-40.4729 802.415,-42.4468 801.374,-35.5247"/>
</g>
<!-- Node7 -->
<g id="node13" class="node"><title>Node7</title>
<a xlink:href="class_power_state_graph.html#a90ebffe4864640182b342a814af0f0a7" target="_top" xlink:title="Update or initialise Power State Graph.">
<polygon fill="white" stroke="black" points="460.5,-0.5 460.5,-21.5 589.5,-21.5 589.5,-0.5 460.5,-0.5"/>
<text text-anchor="middle" x="525" y="-8.5" font-family="Helvetica,sans-Serif" font-size="10.00">PowerStateGraph::update</text>
</a>
</g>
<!-- Node6&#45;&gt;Node7 -->
<g id="edge12" class="edge"><title>Node6&#45;&gt;Node7</title>
<path fill="none" stroke="midnightblue" d="M416.134,-11C431.19,-11 446.309,-11 460.287,-11"/>
<polygon fill="midnightblue" stroke="midnightblue" points="415.735,-7.5001 405.735,-11 415.735,-14.5001 415.735,-7.5001"/>
</g>
<!-- Node8 -->
<g id="node15" class="node"><title>Node8</title>
<a xlink:href="class_device.html#ad3d9721aca89723e22cf723149a39583" target="_top" xlink:title="Trains the powerStateGraph using signatures declared with loadSignatures(). To be called once signatu...">
<polygon fill="white" stroke="black" points="647.5,-0.5 647.5,-21.5 796.5,-21.5 796.5,-0.5 647.5,-0.5"/>
<text text-anchor="middle" x="722" y="-8.5" font-family="Helvetica,sans-Serif" font-size="10.00">Device::trainPowerStateGraph</text>
</a>
</g>
<!-- Node7&#45;&gt;Node8 -->
<g id="edge14" class="edge"><title>Node7&#45;&gt;Node8</title>
<path fill="none" stroke="midnightblue" d="M599.645,-11C615.29,-11 631.789,-11 647.431,-11"/>
<polygon fill="midnightblue" stroke="midnightblue" points="599.505,-7.5001 589.505,-11 599.505,-14.5001 599.505,-7.5001"/>
</g>
<!-- Node8&#45;&gt;Node5 -->
<g id="edge16" class="edge"><title>Node8&#45;&gt;Node5</title>
<path fill="none" stroke="midnightblue" d="M802.15,-23.0526C814.664,-24.9344 826.504,-26.7149 835.793,-28.1117"/>
<polygon fill="midnightblue" stroke="midnightblue" points="802.415,-19.5532 792.005,-21.5271 801.374,-26.4753 802.415,-19.5532"/>
</g>
</g>
</svg>
