<?xml version="1.0" encoding="UTF-8" standalone="no"?>
<!DOCTYPE svg PUBLIC "-//W3C//DTD SVG 1.1//EN"
 "http://www.w3.org/Graphics/SVG/1.1/DTD/svg11.dtd">
<!-- Generated by graphviz version 2.26.3 (20100126.1600)
 -->
<!-- Title: G Pages: 1 -->
<svg width="762pt" height="70pt"
 viewBox="0.00 0.00 762.00 70.00" xmlns="http://www.w3.org/2000/svg" xmlns:xlink="http://www.w3.org/1999/xlink">
<g id="graph1" class="graph" transform="scale(1 1) rotate(0) translate(4 66)">
<title>G</title>
<polygon fill="white" stroke="white" points="-4,5 -4,-66 759,-66 759,5 -4,5"/>
<!-- Node1 -->
<g id="node1" class="node"><title>Node1</title>
<polygon fill="#bfbfbf" stroke="black" points="0.5,-20.5 0.5,-41.5 193.5,-41.5 193.5,-20.5 0.5,-20.5"/>
<text text-anchor="middle" x="97" y="-28.5" font-family="Helvetica,sans-Serif" font-size="10.00">Array::getSmoothedGradOfHistFilename</text>
</g>
<!-- Node2 -->
<g id="node3" class="node"><title>Node2</title>
<a xlink:href="class_signature.html#a80ab9f3c989f356fd8fd61282de3a994" target="_top" xlink:title="Signature::drawHistWithStateBars">
<polygon fill="white" stroke="black" points="230.5,-40.5 230.5,-61.5 397.5,-61.5 397.5,-40.5 230.5,-40.5"/>
<text text-anchor="middle" x="314" y="-48.5" font-family="Helvetica,sans-Serif" font-size="10.00">Signature::drawHistWithStateBars</text>
</a>
</g>
<!-- Node1&#45;&gt;Node2 -->
<g id="edge2" class="edge"><title>Node1&#45;&gt;Node2</title>
<path fill="none" stroke="midnightblue" d="M203.804,-40.8437C212.719,-41.6653 221.648,-42.4883 230.352,-43.2905"/>
<polygon fill="midnightblue" stroke="midnightblue" points="204.038,-37.3505 193.759,-39.9179 203.396,-44.321 204.038,-37.3505"/>
</g>
<!-- Node5 -->
<g id="node9" class="node"><title>Node5</title>
<a xlink:href="class_array.html#ad09653725c36dbb022a04309465ec277" target="_top" xlink:title="Attempts to automatically find the peaks.">
<polygon fill="white" stroke="black" points="239.5,-0.5 239.5,-21.5 388.5,-21.5 388.5,-0.5 239.5,-0.5"/>
<text text-anchor="middle" x="314" y="-8.5" font-family="Helvetica,sans-Serif" font-size="10.00">Array&lt; Sample_t &gt;::findPeaks</text>
</a>
</g>
<!-- Node1&#45;&gt;Node5 -->
<g id="edge8" class="edge"><title>Node1&#45;&gt;Node5</title>
<path fill="none" stroke="midnightblue" d="M203.804,-21.1563C215.786,-20.052 227.795,-18.9452 239.247,-17.8897"/>
<polygon fill="midnightblue" stroke="midnightblue" points="203.396,-17.679 193.759,-22.0821 204.038,-24.6495 203.396,-17.679"/>
</g>
<!-- Node3 -->
<g id="node5" class="node"><title>Node3</title>
<a xlink:href="class_signature.html#afebb6e34dcba3d828093eba1ffc7fad6" target="_top" xlink:title="Runs through signature data to find power states and stores the resulting power states in powerStates...">
<polygon fill="white" stroke="black" points="434.5,-40.5 434.5,-61.5 583.5,-61.5 583.5,-40.5 434.5,-40.5"/>
<text text-anchor="middle" x="509" y="-48.5" font-family="Helvetica,sans-Serif" font-size="10.00">Signature::updatePowerStates</text>
</a>
</g>
<!-- Node2&#45;&gt;Node3 -->
<g id="edge4" class="edge"><title>Node2&#45;&gt;Node3</title>
<path fill="none" stroke="midnightblue" d="M407.603,-51C416.541,-51 425.523,-51 434.247,-51"/>
<polygon fill="midnightblue" stroke="midnightblue" points="407.546,-47.5001 397.546,-51 407.546,-54.5001 407.546,-47.5001"/>
</g>
<!-- Node4 -->
<g id="node7" class="node"><title>Node4</title>
<a xlink:href="class_signature.html#ada861d4b0e402605478abc4217f35979" target="_top" xlink:title="Signature::getPowerStates">
<polygon fill="white" stroke="black" points="620,-40.5 620,-61.5 754,-61.5 754,-40.5 620,-40.5"/>
<text text-anchor="middle" x="687" y="-48.5" font-family="Helvetica,sans-Serif" font-size="10.00">Signature::getPowerStates</text>
</a>
</g>
<!-- Node3&#45;&gt;Node4 -->
<g id="edge6" class="edge"><title>Node3&#45;&gt;Node4</title>
<path fill="none" stroke="midnightblue" d="M593.893,-51C602.602,-51 611.363,-51 619.842,-51"/>
<polygon fill="midnightblue" stroke="midnightblue" points="593.714,-47.5001 583.714,-51 593.714,-54.5001 593.714,-47.5001"/>
</g>
</g>
</svg>
