<?xml version="1.0" encoding="UTF-8" standalone="no"?>
<!DOCTYPE svg PUBLIC "-//W3C//DTD SVG 1.1//EN"
 "http://www.w3.org/Graphics/SVG/1.1/DTD/svg11.dtd">
<!-- Generated by graphviz version 2.26.3 (20100126.1600)
 -->
<!-- Title: G Pages: 1 -->
<svg width="680pt" height="131pt"
 viewBox="0.00 0.00 680.00 130.94" xmlns="http://www.w3.org/2000/svg" xmlns:xlink="http://www.w3.org/1999/xlink">
<g id="graph1" class="graph" transform="scale(1 1) rotate(0) translate(4 126.937)">
<title>G</title>
<polygon fill="white" stroke="white" points="-4,5 -4,-126.937 677,-126.937 677,5 -4,5"/>
<!-- Node1 -->
<g id="node1" class="node"><title>Node1</title>
<polygon fill="#bfbfbf" stroke="black" points="0.5,-41.4368 0.5,-62.4368 227.5,-62.4368 227.5,-41.4368 0.5,-41.4368"/>
<text text-anchor="middle" x="114" y="-49.4368" font-family="Helvetica,sans-Serif" font-size="10.00">PowerStateGraph::displayAndPlotFingerprintList</text>
</g>
<!-- Node2 -->
<g id="node3" class="node"><title>Node2</title>
<a xlink:href="namespace_utils.html#afb991f08a33e9d7f3298e60f3bf76960" target="_top" xlink:title="Utils::openFile">
<polygon fill="white" stroke="black" points="271,-91.4368 271,-112.437 351,-112.437 351,-91.4368 271,-91.4368"/>
<text text-anchor="middle" x="311" y="-99.4368" font-family="Helvetica,sans-Serif" font-size="10.00">Utils::openFile</text>
</a>
</g>
<!-- Node1&#45;&gt;Node2 -->
<g id="edge2" class="edge"><title>Node1&#45;&gt;Node2</title>
<path fill="none" stroke="midnightblue" d="M155.779,-62.5405C186.588,-70.3601 228.628,-81.0302 261.186,-89.2938"/>
<polygon fill="midnightblue" stroke="midnightblue" points="260.41,-92.7076 270.963,-91.7753 262.132,-85.9227 260.41,-92.7076"/>
</g>
<!-- Node4 -->
<g id="node7" class="node"><title>Node4</title>
<a xlink:href="namespace_g_n_uplot.html#ab276a6d946560395f9d6caa8cb6cb640" target="_top" xlink:title="Plot a graph using GNUplot.">
<polygon fill="white" stroke="black" points="272.5,-41.4368 272.5,-62.4368 349.5,-62.4368 349.5,-41.4368 272.5,-41.4368"/>
<text text-anchor="middle" x="311" y="-49.4368" font-family="Helvetica,sans-Serif" font-size="10.00">GNUplot::plot</text>
</a>
</g>
<!-- Node1&#45;&gt;Node4 -->
<g id="edge6" class="edge"><title>Node1&#45;&gt;Node4</title>
<path fill="none" stroke="midnightblue" d="M227.74,-51.9368C239.769,-51.9368 251.487,-51.9368 262.153,-51.9368"/>
<polygon fill="midnightblue" stroke="midnightblue" points="262.441,-55.4369 272.441,-51.9368 262.441,-48.4369 262.441,-55.4369"/>
</g>
<!-- Node8 -->
<g id="node16" class="node"><title>Node8</title>
<a xlink:href="namespace_utils.html#a48dfa27103961c7cc6082f7e68857748" target="_top" xlink:title="Utils::size_t_to_s">
<polygon fill="white" stroke="black" points="264.5,-1.43684 264.5,-22.4368 357.5,-22.4368 357.5,-1.43684 264.5,-1.43684"/>
<text text-anchor="middle" x="311" y="-9.43684" font-family="Helvetica,sans-Serif" font-size="10.00">Utils::size_t_to_s</text>
</a>
</g>
<!-- Node1&#45;&gt;Node8 -->
<g id="edge16" class="edge"><title>Node1&#45;&gt;Node8</title>
<path fill="none" stroke="midnightblue" d="M165.759,-41.4273C192.97,-35.9024 226.375,-29.1196 254.286,-23.4525"/>
<polygon fill="midnightblue" stroke="midnightblue" points="255.195,-26.8394 264.298,-21.4194 253.802,-19.9794 255.195,-26.8394"/>
</g>
<!-- Node3 -->
<g id="node5" class="node"><title>Node3</title>
<a xlink:href="namespace_utils.html#a5f35365dae06a93f4bbf0f406a78b90b" target="_top" xlink:title="Utils::fatalError">
<polygon fill="white" stroke="black" points="425.5,-101.437 425.5,-122.437 508.5,-122.437 508.5,-101.437 425.5,-101.437"/>
<text text-anchor="middle" x="467" y="-109.437" font-family="Helvetica,sans-Serif" font-size="10.00">Utils::fatalError</text>
</a>
</g>
<!-- Node2&#45;&gt;Node3 -->
<g id="edge4" class="edge"><title>Node2&#45;&gt;Node3</title>
<path fill="none" stroke="midnightblue" d="M351.174,-104.512C370.724,-105.765 394.458,-107.287 415.339,-108.625"/>
<polygon fill="midnightblue" stroke="midnightblue" points="415.126,-112.119 425.329,-109.266 415.574,-105.133 415.126,-112.119"/>
</g>
<!-- Node5 -->
<g id="node9" class="node"><title>Node5</title>
<a xlink:href="namespace_utils.html#ae7741f30cf104d6660673d7c336ef5cc" target="_top" xlink:title="Utils::fileExists">
<polygon fill="white" stroke="black" points="425.5,-61.4368 425.5,-82.4368 508.5,-82.4368 508.5,-61.4368 425.5,-61.4368"/>
<text text-anchor="middle" x="467" y="-69.4368" font-family="Helvetica,sans-Serif" font-size="10.00">Utils::fileExists</text>
</a>
</g>
<!-- Node4&#45;&gt;Node5 -->
<g id="edge8" class="edge"><title>Node4&#45;&gt;Node5</title>
<path fill="none" stroke="midnightblue" d="M349.562,-56.8807C369.424,-59.4271 393.916,-62.5671 415.385,-65.3196"/>
<polygon fill="midnightblue" stroke="midnightblue" points="414.964,-68.7941 425.328,-66.5942 415.854,-61.8509 414.964,-68.7941"/>
</g>
<!-- Node6 -->
<g id="node11" class="node"><title>Node6</title>
<a xlink:href="namespace_g_n_uplot.html#a1a232691d61b3e55fdcc406a3a2e9c1f" target="_top" xlink:title="Replaces all the tokens in the template file &#39;config/plotVars.inFilename&#39; with variables from...">
<polygon fill="white" stroke="black" points="394,-21.4368 394,-42.4368 540,-42.4368 540,-21.4368 394,-21.4368"/>
<text text-anchor="middle" x="467" y="-29.4368" font-family="Helvetica,sans-Serif" font-size="10.00">GNUplot::instantiateTemplate</text>
</a>
</g>
<!-- Node4&#45;&gt;Node6 -->
<g id="edge10" class="edge"><title>Node4&#45;&gt;Node6</title>
<path fill="none" stroke="midnightblue" d="M349.562,-46.993C360.065,-45.6465 371.862,-44.134 383.823,-42.6006"/>
<polygon fill="midnightblue" stroke="midnightblue" points="384.41,-46.0541 393.883,-41.3107 383.52,-39.1109 384.41,-46.0541"/>
</g>
<!-- Node7 -->
<g id="node13" class="node"><title>Node7</title>
<a xlink:href="namespace_g_n_uplot.html#a60ecface5bf85a5e3e2e1743bd266737" target="_top" xlink:title="Replace all characters which might confuse &#39;sed&#39;.">
<polygon fill="white" stroke="black" points="576.5,-1.43684 576.5,-22.4368 671.5,-22.4368 671.5,-1.43684 576.5,-1.43684"/>
<text text-anchor="middle" x="624" y="-9.43684" font-family="Helvetica,sans-Serif" font-size="10.00">GNUplot::sanitise</text>
</a>
</g>
<!-- Node4&#45;&gt;Node7 -->
<g id="edge14" class="edge"><title>Node4&#45;&gt;Node7</title>
<path fill="none" stroke="midnightblue" d="M337.077,-41.4142C343.947,-38.4863 351.308,-35.2084 358,-31.9368 374.444,-23.898 376.282,-16.5281 394,-11.9368 451.258,2.9003 519.262,0.566826 566.404,-4.03395"/>
<polygon fill="midnightblue" stroke="midnightblue" points="566.123,-7.52354 576.432,-5.07743 566.848,-0.561138 566.123,-7.52354"/>
</g>
<!-- Node6&#45;&gt;Node7 -->
<g id="edge12" class="edge"><title>Node6&#45;&gt;Node7</title>
<path fill="none" stroke="midnightblue" d="M540.444,-22.581C549.068,-21.4824 557.773,-20.3733 566.142,-19.3072"/>
<polygon fill="midnightblue" stroke="midnightblue" points="566.678,-22.7674 576.155,-18.0317 565.793,-15.8235 566.678,-22.7674"/>
</g>
</g>
</svg>
