<?xml version="1.0" encoding="UTF-8" standalone="no"?>
<!DOCTYPE svg PUBLIC "-//W3C//DTD SVG 1.1//EN"
 "http://www.w3.org/Graphics/SVG/1.1/DTD/svg11.dtd">
<!-- Generated by graphviz version 2.26.3 (20100126.1600)
 -->
<!-- Title: G Pages: 1 -->
<svg width="342pt" height="190pt"
 viewBox="0.00 0.00 342.00 190.00" xmlns="http://www.w3.org/2000/svg" xmlns:xlink="http://www.w3.org/1999/xlink">
<g id="graph1" class="graph" transform="scale(1 1) rotate(0) translate(4 186)">
<title>G</title>
<polygon fill="white" stroke="white" points="-4,5 -4,-186 339,-186 339,5 -4,5"/>
<!-- Node1 -->
<g id="node1" class="node"><title>Node1</title>
<polygon fill="#bfbfbf" stroke="black" points="0.5,-80.5 0.5,-101.5 113.5,-101.5 113.5,-80.5 0.5,-80.5"/>
<text text-anchor="middle" x="57" y="-88.5" font-family="Helvetica,sans-Serif" font-size="10.00">Histogram::Histogram</text>
</g>
<!-- Node2 -->
<g id="node3" class="node"><title>Node2</title>
<a xlink:href="class_array.html#a5bd92841f0c7aa600f361c0bfd0a0fbb" target="_top" xlink:title="Array::getDeviceName">
<polygon fill="white" stroke="black" points="184,-160.5 184,-181.5 300,-181.5 300,-160.5 184,-160.5"/>
<text text-anchor="middle" x="242" y="-168.5" font-family="Helvetica,sans-Serif" font-size="10.00">Array::getDeviceName</text>
</a>
</g>
<!-- Node1&#45;&gt;Node2 -->
<g id="edge2" class="edge"><title>Node1&#45;&gt;Node2</title>
<path fill="none" stroke="midnightblue" d="M70.0085,-101.578C87.2553,-115.069 119.122,-138.181 150,-151 157.513,-154.119 165.581,-156.781 173.705,-159.046"/>
<polygon fill="midnightblue" stroke="midnightblue" points="173.051,-162.492 183.609,-161.616 174.809,-155.717 173.051,-162.492"/>
</g>
<!-- Node3 -->
<g id="node5" class="node"><title>Node3</title>
<a xlink:href="class_array.html#ae80fff561b788262683b42941f2ebda5" target="_top" xlink:title="Array::getSmoothing">
<polygon fill="white" stroke="black" points="189,-120.5 189,-141.5 295,-141.5 295,-120.5 189,-120.5"/>
<text text-anchor="middle" x="242" y="-128.5" font-family="Helvetica,sans-Serif" font-size="10.00">Array::getSmoothing</text>
</a>
</g>
<!-- Node1&#45;&gt;Node3 -->
<g id="edge4" class="edge"><title>Node1&#45;&gt;Node3</title>
<path fill="none" stroke="midnightblue" d="M105.607,-101.51C129.412,-106.657 158.266,-112.895 183.294,-118.307"/>
<polygon fill="midnightblue" stroke="midnightblue" points="182.883,-121.799 193.397,-120.491 184.363,-114.957 182.883,-121.799"/>
</g>
<!-- Node4 -->
<g id="node7" class="node"><title>Node4</title>
<a xlink:href="namespace_utils.html#a17211384a3579f952022415556bcda62" target="_top" xlink:title="Utils::roundToNearestInt">
<polygon fill="white" stroke="black" points="180,-80.5 180,-101.5 304,-101.5 304,-80.5 180,-80.5"/>
<text text-anchor="middle" x="242" y="-88.5" font-family="Helvetica,sans-Serif" font-size="10.00">Utils::roundToNearestInt</text>
</a>
</g>
<!-- Node1&#45;&gt;Node4 -->
<g id="edge6" class="edge"><title>Node1&#45;&gt;Node4</title>
<path fill="none" stroke="midnightblue" d="M113.511,-91C131.174,-91 150.91,-91 169.512,-91"/>
<polygon fill="midnightblue" stroke="midnightblue" points="169.71,-94.5001 179.71,-91 169.71,-87.5001 169.71,-94.5001"/>
</g>
<!-- Node5 -->
<g id="node9" class="node"><title>Node5</title>
<a xlink:href="class_array.html#a30450c12b20e9d12cd264c67127ef4ea" target="_top" xlink:title="Initialise all array entries to a single value. Does not reset &#39;deviceName&#39; or &#39;smoothing...">
<polygon fill="white" stroke="black" points="150,-40.5 150,-61.5 334,-61.5 334,-40.5 150,-40.5"/>
<text text-anchor="middle" x="242" y="-48.5" font-family="Helvetica,sans-Serif" font-size="10.00">Array&lt; Histogram_t &gt;::setAllEntriesTo</text>
</a>
</g>
<!-- Node1&#45;&gt;Node5 -->
<g id="edge8" class="edge"><title>Node1&#45;&gt;Node5</title>
<path fill="none" stroke="midnightblue" d="M105.607,-80.4905C129.412,-75.3434 158.266,-69.1046 183.294,-63.6933"/>
<polygon fill="midnightblue" stroke="midnightblue" points="184.363,-67.0431 193.397,-61.5087 182.883,-60.2012 184.363,-67.0431"/>
</g>
<!-- Node6 -->
<g id="node11" class="node"><title>Node6</title>
<a xlink:href="class_array.html#a5b752093b1b3ab4d82707115d1f41adc" target="_top" xlink:title="Array\&lt; Histogram_t \&gt;::setSize">
<polygon fill="white" stroke="black" points="167,-0.5 167,-21.5 317,-21.5 317,-0.5 167,-0.5"/>
<text text-anchor="middle" x="242" y="-8.5" font-family="Helvetica,sans-Serif" font-size="10.00">Array&lt; Histogram_t &gt;::setSize</text>
</a>
</g>
<!-- Node1&#45;&gt;Node6 -->
<g id="edge10" class="edge"><title>Node1&#45;&gt;Node6</title>
<path fill="none" stroke="midnightblue" d="M70.0085,-80.4215C87.2553,-66.931 119.122,-43.8195 150,-31 156.086,-28.4735 162.536,-26.2467 169.085,-24.288"/>
<polygon fill="midnightblue" stroke="midnightblue" points="170.025,-27.6595 178.72,-21.6062 168.148,-20.9158 170.025,-27.6595"/>
</g>
</g>
</svg>
