<?xml version="1.0" encoding="UTF-8" standalone="no"?>
<!DOCTYPE svg PUBLIC "-//W3C//DTD SVG 1.1//EN"
 "http://www.w3.org/Graphics/SVG/1.1/DTD/svg11.dtd">
<!-- Generated by graphviz version 2.26.3 (20100126.1600)
 -->
<!-- Title: G Pages: 1 -->
<svg width="436pt" height="108pt"
 viewBox="0.00 0.00 436.00 108.00" xmlns="http://www.w3.org/2000/svg" xmlns:xlink="http://www.w3.org/1999/xlink">
<g id="graph1" class="graph" transform="scale(1 1) rotate(0) translate(4 104)">
<title>G</title>
<polygon fill="white" stroke="white" points="-4,5 -4,-104 433,-104 433,5 -4,5"/>
<!-- Node1 -->
<g id="node1" class="node"><title>Node1</title>
<polygon fill="#bfbfbf" stroke="black" points="0.5,-39.5 0.5,-60.5 113.5,-60.5 113.5,-39.5 0.5,-39.5"/>
<text text-anchor="middle" x="57" y="-47.5" font-family="Helvetica,sans-Serif" font-size="10.00">Device::findAlignment</text>
</g>
<!-- Node2 -->
<g id="node3" class="node"><title>Node2</title>
<a xlink:href="class_aggregate_data.html#aa0acfe59de5992e604497eb2a8942997" target="_top" xlink:title="AggregateData::getSamplePeriod">
<polygon fill="white" stroke="black" points="150,-78.5 150,-99.5 312,-99.5 312,-78.5 150,-78.5"/>
<text text-anchor="middle" x="231" y="-86.5" font-family="Helvetica,sans-Serif" font-size="10.00">AggregateData::getSamplePeriod</text>
</a>
</g>
<!-- Node1&#45;&gt;Node2 -->
<g id="edge2" class="edge"><title>Node1&#45;&gt;Node2</title>
<path fill="none" stroke="midnightblue" d="M104.087,-60.554C125.654,-65.388 151.4,-71.1586 174.048,-76.2349"/>
<polygon fill="midnightblue" stroke="midnightblue" points="173.352,-79.6657 183.875,-78.4376 174.883,-72.8351 173.352,-79.6657"/>
</g>
<!-- Node3 -->
<g id="node5" class="node"><title>Node3</title>
<a xlink:href="class_array.html#ae16b42080e87a53fe2b76af98995111b" target="_top" xlink:title="Array::getSize">
<polygon fill="white" stroke="black" points="348.5,-19.5 348.5,-40.5 427.5,-40.5 427.5,-19.5 348.5,-19.5"/>
<text text-anchor="middle" x="388" y="-27.5" font-family="Helvetica,sans-Serif" font-size="10.00">Array::getSize</text>
</a>
</g>
<!-- Node1&#45;&gt;Node3 -->
<g id="edge4" class="edge"><title>Node1&#45;&gt;Node3</title>
<path fill="none" stroke="midnightblue" d="M113.525,-46.5846C176.71,-42.7667 278.045,-36.6438 338.308,-33.0025"/>
<polygon fill="midnightblue" stroke="midnightblue" points="338.569,-36.4933 348.34,-32.3964 338.147,-29.506 338.569,-36.4933"/>
</g>
<!-- Node4 -->
<g id="node7" class="node"><title>Node4</title>
<a xlink:href="class_device.html#ac99af11562629b3f90001e5415f5399a" target="_top" xlink:title="Least mean difference.">
<polygon fill="white" stroke="black" points="194,-0.5 194,-21.5 268,-21.5 268,-0.5 194,-0.5"/>
<text text-anchor="middle" x="231" y="-8.5" font-family="Helvetica,sans-Serif" font-size="10.00">Device::LMS</text>
</a>
</g>
<!-- Node1&#45;&gt;Node4 -->
<g id="edge6" class="edge"><title>Node1&#45;&gt;Node4</title>
<path fill="none" stroke="midnightblue" d="M104.087,-39.446C128.855,-33.8945 159.134,-27.1079 183.904,-21.5561"/>
<polygon fill="midnightblue" stroke="midnightblue" points="184.807,-24.9405 193.799,-19.3381 183.276,-18.11 184.807,-24.9405"/>
</g>
<!-- Node4&#45;&gt;Node3 -->
<g id="edge8" class="edge"><title>Node4&#45;&gt;Node3</title>
<path fill="none" stroke="midnightblue" d="M268.207,-15.5027C289.124,-18.0341 315.508,-21.2271 338.189,-23.9719"/>
<polygon fill="midnightblue" stroke="midnightblue" points="337.968,-27.4706 348.316,-25.1974 338.809,-20.5213 337.968,-27.4706"/>
</g>
</g>
</svg>
