<?xml version="1.0" encoding="UTF-8" standalone="no"?>
<!DOCTYPE svg PUBLIC "-//W3C//DTD SVG 1.1//EN"
 "http://www.w3.org/Graphics/SVG/1.1/DTD/svg11.dtd">
<!-- Generated by graphviz version 2.26.3 (20100126.1600)
 -->
<!-- Title: G Pages: 1 -->
<svg width="906pt" height="508pt"
 viewBox="0.00 0.00 906.00 508.00" xmlns="http://www.w3.org/2000/svg" xmlns:xlink="http://www.w3.org/1999/xlink">
<g id="graph1" class="graph" transform="scale(1 1) rotate(0) translate(4 504)">
<title>G</title>
<polygon fill="white" stroke="white" points="-4,5 -4,-504 903,-504 903,5 -4,5"/>
<!-- Node1 -->
<g id="node1" class="node"><title>Node1</title>
<polygon fill="#bfbfbf" stroke="black" points="0.5,-240.5 0.5,-261.5 149.5,-261.5 149.5,-240.5 0.5,-240.5"/>
<text text-anchor="middle" x="75" y="-248.5" font-family="Helvetica,sans-Serif" font-size="10.00">Signature::updatePowerStates</text>
</g>
<!-- Node2 -->
<g id="node3" class="node"><title>Node2</title>
<a xlink:href="class_histogram.html#ad4a2b931c86c4a7f2ce465d0c737050f" target="_top" xlink:title="Histogram::drawGraph">
<polygon fill="white" stroke="black" points="212.5,-418.5 212.5,-439.5 327.5,-439.5 327.5,-418.5 212.5,-418.5"/>
<text text-anchor="middle" x="270" y="-426.5" font-family="Helvetica,sans-Serif" font-size="10.00">Histogram::drawGraph</text>
</a>
</g>
<!-- Node1&#45;&gt;Node2 -->
<g id="edge2" class="edge"><title>Node1&#45;&gt;Node2</title>
<path fill="none" stroke="midnightblue" d="M86.6142,-261.602C118.985,-291.15 210.473,-374.662 250.661,-411.347"/>
<polygon fill="midnightblue" stroke="midnightblue" points="248.455,-414.072 258.2,-418.229 253.174,-408.902 248.455,-414.072"/>
</g>
<!-- Node10 -->
<g id="node20" class="node"><title>Node10</title>
<a xlink:href="class_array.html#acc8d9358f9cc9fa7d10d5010099cbc10" target="_top" xlink:title="Array::drawGraph">
<polygon fill="white" stroke="black" points="223.5,-240.5 223.5,-261.5 316.5,-261.5 316.5,-240.5 223.5,-240.5"/>
<text text-anchor="middle" x="270" y="-248.5" font-family="Helvetica,sans-Serif" font-size="10.00">Array::drawGraph</text>
</a>
</g>
<!-- Node1&#45;&gt;Node10 -->
<g id="edge20" class="edge"><title>Node1&#45;&gt;Node10</title>
<path fill="none" stroke="midnightblue" d="M149.556,-251C170.706,-251 193.383,-251 213.292,-251"/>
<polygon fill="midnightblue" stroke="midnightblue" points="213.428,-254.5 223.428,-251 213.428,-247.5 213.428,-254.5"/>
</g>
<!-- Node11 -->
<g id="node22" class="node"><title>Node11</title>
<a xlink:href="class_signature.html#a80ab9f3c989f356fd8fd61282de3a994" target="_top" xlink:title="Signature::drawHistWithStateBars">
<polygon fill="white" stroke="black" points="186.5,-318.5 186.5,-339.5 353.5,-339.5 353.5,-318.5 186.5,-318.5"/>
<text text-anchor="middle" x="270" y="-326.5" font-family="Helvetica,sans-Serif" font-size="10.00">Signature::drawHistWithStateBars</text>
</a>
</g>
<!-- Node1&#45;&gt;Node11 -->
<g id="edge22" class="edge"><title>Node1&#45;&gt;Node11</title>
<path fill="none" stroke="midnightblue" d="M94.6402,-261.533C116.51,-272.986 153.116,-291.345 186,-304 196.873,-308.184 208.757,-312.102 220.074,-315.539"/>
<polygon fill="midnightblue" stroke="midnightblue" points="219.251,-318.945 229.833,-318.429 221.239,-312.233 219.251,-318.945"/>
</g>
<!-- Node14 -->
<g id="node30" class="node"><title>Node14</title>
<a xlink:href="class_signature.html#a6e3fba4e40182e955f5d475553f401c5" target="_top" xlink:title="Signature::getStateBarsBaseFilename">
<polygon fill="white" stroke="black" points="395.5,-200.5 395.5,-221.5 578.5,-221.5 578.5,-200.5 395.5,-200.5"/>
<text text-anchor="middle" x="487" y="-208.5" font-family="Helvetica,sans-Serif" font-size="10.00">Signature::getStateBarsBaseFilename</text>
</a>
</g>
<!-- Node1&#45;&gt;Node14 -->
<g id="edge42" class="edge"><title>Node1&#45;&gt;Node14</title>
<path fill="none" stroke="midnightblue" d="M103.439,-261.512C155.666,-279.029 269.27,-308.736 354,-271 375.849,-261.269 369.252,-242.898 390,-231 393.881,-228.775 397.974,-226.795 402.197,-225.035"/>
<polygon fill="midnightblue" stroke="midnightblue" points="403.472,-228.295 411.618,-221.519 401.025,-221.736 403.472,-228.295"/>
</g>
<!-- Node16 -->
<g id="node36" class="node"><title>Node16</title>
<a xlink:href="class_array.html#ad09653725c36dbb022a04309465ec277" target="_top" xlink:title="Attempts to automatically find the peaks.">
<polygon fill="white" stroke="black" points="225.5,-200.5 225.5,-221.5 314.5,-221.5 314.5,-200.5 225.5,-200.5"/>
<text text-anchor="middle" x="270" y="-208.5" font-family="Helvetica,sans-Serif" font-size="10.00">Array::findPeaks</text>
</a>
</g>
<!-- Node1&#45;&gt;Node16 -->
<g id="edge40" class="edge"><title>Node1&#45;&gt;Node16</title>
<path fill="none" stroke="midnightblue" d="M126.234,-240.49C153.67,-234.862 187.47,-227.929 215.402,-222.2"/>
<polygon fill="midnightblue" stroke="midnightblue" points="216.312,-225.586 225.404,-220.148 214.905,-218.729 216.312,-225.586"/>
</g>
<!-- Node17 -->
<g id="node39" class="node"><title>Node17</title>
<a xlink:href="namespace_utils.html#afb991f08a33e9d7f3298e60f3bf76960" target="_top" xlink:title="Utils::openFile">
<polygon fill="white" stroke="black" points="230,-160.5 230,-181.5 310,-181.5 310,-160.5 230,-160.5"/>
<text text-anchor="middle" x="270" y="-168.5" font-family="Helvetica,sans-Serif" font-size="10.00">Utils::openFile</text>
</a>
</g>
<!-- Node1&#45;&gt;Node17 -->
<g id="edge44" class="edge"><title>Node1&#45;&gt;Node17</title>
<path fill="none" stroke="midnightblue" d="M91.2729,-240.431C112.35,-227.164 150.594,-204.515 186,-191 196.724,-186.906 208.548,-183.472 219.854,-180.67"/>
<polygon fill="midnightblue" stroke="midnightblue" points="220.685,-184.07 229.616,-178.368 219.079,-177.256 220.685,-184.07"/>
</g>
<!-- Node19 -->
<g id="node43" class="node"><title>Node19</title>
<a xlink:href="class_array.html#a6603ebeb68bb0c1b493f0808d5694498" target="_top" xlink:title="Returns a rolling average of same length as the original array.">
<polygon fill="white" stroke="black" points="198.5,-80.5 198.5,-101.5 341.5,-101.5 341.5,-80.5 198.5,-80.5"/>
<text text-anchor="middle" x="270" y="-88.5" font-family="Helvetica,sans-Serif" font-size="10.00">Array&lt; Sample_t &gt;::rollingAv</text>
</a>
</g>
<!-- Node1&#45;&gt;Node19 -->
<g id="edge48" class="edge"><title>Node1&#45;&gt;Node19</title>
<path fill="none" stroke="midnightblue" d="M85.9763,-240.345C105.494,-221.577 147.782,-181.702 186,-151 205.512,-135.325 228.734,-118.896 245.811,-107.201"/>
<polygon fill="midnightblue" stroke="midnightblue" points="247.827,-110.062 254.129,-101.546 243.892,-104.274 247.827,-110.062"/>
</g>
<!-- Node3 -->
<g id="node5" class="node"><title>Node3</title>
<a xlink:href="class_array.html#a6ef27596ae6f5cd98001ca8ba7b13038" target="_top" xlink:title="Array\&lt; Histogram_t \&gt;::dumpToFile">
<polygon fill="white" stroke="black" points="403,-478.5 403,-499.5 571,-499.5 571,-478.5 403,-478.5"/>
<text text-anchor="middle" x="487" y="-486.5" font-family="Helvetica,sans-Serif" font-size="10.00">Array&lt; Histogram_t &gt;::dumpToFile</text>
</a>
</g>
<!-- Node2&#45;&gt;Node3 -->
<g id="edge4" class="edge"><title>Node2&#45;&gt;Node3</title>
<path fill="none" stroke="midnightblue" d="M298.806,-439.672C322.934,-448.351 358.4,-460.508 390,-469 399.714,-471.611 410.054,-474.073 420.226,-476.317"/>
<polygon fill="midnightblue" stroke="midnightblue" points="419.8,-479.806 430.313,-478.487 421.273,-472.962 419.8,-479.806"/>
</g>
<!-- Node4 -->
<g id="node7" class="node"><title>Node4</title>
<a xlink:href="class_histogram.html#ac542b993b1f5a0ab1b94d4ee7b0bb70d" target="_top" xlink:title="Histogram::getBaseFilename">
<polygon fill="white" stroke="black" points="415.5,-398.5 415.5,-419.5 558.5,-419.5 558.5,-398.5 415.5,-398.5"/>
<text text-anchor="middle" x="487" y="-406.5" font-family="Helvetica,sans-Serif" font-size="10.00">Histogram::getBaseFilename</text>
</a>
</g>
<!-- Node2&#45;&gt;Node4 -->
<g id="edge6" class="edge"><title>Node2&#45;&gt;Node4</title>
<path fill="none" stroke="midnightblue" d="M327.582,-423.693C351.304,-421.507 379.224,-418.933 405.015,-416.556"/>
<polygon fill="midnightblue" stroke="midnightblue" points="405.522,-420.024 415.159,-415.621 404.88,-413.054 405.522,-420.024"/>
</g>
<!-- Node6 -->
<g id="node11" class="node"><title>Node6</title>
<a xlink:href="namespace_g_n_uplot.html#ab276a6d946560395f9d6caa8cb6cb640" target="_top" xlink:title="Plot a graph using GNUplot.">
<polygon fill="white" stroke="black" points="448.5,-438.5 448.5,-459.5 525.5,-459.5 525.5,-438.5 448.5,-438.5"/>
<text text-anchor="middle" x="487" y="-446.5" font-family="Helvetica,sans-Serif" font-size="10.00">GNUplot::plot</text>
</a>
</g>
<!-- Node2&#45;&gt;Node6 -->
<g id="edge10" class="edge"><title>Node2&#45;&gt;Node6</title>
<path fill="none" stroke="midnightblue" d="M327.582,-434.307C362.025,-437.482 405.322,-441.472 438.098,-444.493"/>
<polygon fill="midnightblue" stroke="midnightblue" points="438.066,-448.005 448.345,-445.437 438.709,-441.034 438.066,-448.005"/>
</g>
<!-- Node5 -->
<g id="node9" class="node"><title>Node5</title>
<a xlink:href="namespace_utils.html#a48dfa27103961c7cc6082f7e68857748" target="_top" xlink:title="Utils::size_t_to_s">
<polygon fill="white" stroke="black" points="646.5,-319.5 646.5,-340.5 739.5,-340.5 739.5,-319.5 646.5,-319.5"/>
<text text-anchor="middle" x="693" y="-327.5" font-family="Helvetica,sans-Serif" font-size="10.00">Utils::size_t_to_s</text>
</a>
</g>
<!-- Node4&#45;&gt;Node5 -->
<g id="edge8" class="edge"><title>Node4&#45;&gt;Node5</title>
<path fill="none" stroke="midnightblue" d="M551.398,-398.488C562.43,-395.906 573.662,-392.771 584,-389 614.601,-377.839 647.124,-359.248 668.597,-345.916"/>
<polygon fill="midnightblue" stroke="midnightblue" points="670.495,-348.858 677.085,-340.562 666.76,-342.937 670.495,-348.858"/>
</g>
<!-- Node7 -->
<g id="node13" class="node"><title>Node7</title>
<a xlink:href="namespace_utils.html#ae7741f30cf104d6660673d7c336ef5cc" target="_top" xlink:title="Utils::fileExists">
<polygon fill="white" stroke="black" points="651.5,-398.5 651.5,-419.5 734.5,-419.5 734.5,-398.5 651.5,-398.5"/>
<text text-anchor="middle" x="693" y="-406.5" font-family="Helvetica,sans-Serif" font-size="10.00">Utils::fileExists</text>
</a>
</g>
<!-- Node6&#45;&gt;Node7 -->
<g id="edge12" class="edge"><title>Node6&#45;&gt;Node7</title>
<path fill="none" stroke="midnightblue" d="M525.747,-441.476C558.313,-435.153 605.147,-426.059 640.977,-419.102"/>
<polygon fill="midnightblue" stroke="midnightblue" points="642.092,-422.451 651.241,-417.109 640.757,-415.579 642.092,-422.451"/>
</g>
<!-- Node8 -->
<g id="node15" class="node"><title>Node8</title>
<a xlink:href="namespace_g_n_uplot.html#a1a232691d61b3e55fdcc406a3a2e9c1f" target="_top" xlink:title="Replaces all the tokens in the template file &#39;config/plotVars.inFilename&#39; with variables from...">
<polygon fill="white" stroke="black" points="620,-438.5 620,-459.5 766,-459.5 766,-438.5 620,-438.5"/>
<text text-anchor="middle" x="693" y="-446.5" font-family="Helvetica,sans-Serif" font-size="10.00">GNUplot::instantiateTemplate</text>
</a>
</g>
<!-- Node6&#45;&gt;Node8 -->
<g id="edge14" class="edge"><title>Node6&#45;&gt;Node8</title>
<path fill="none" stroke="midnightblue" d="M525.747,-449C549.413,-449 580.615,-449 609.652,-449"/>
<polygon fill="midnightblue" stroke="midnightblue" points="609.817,-452.5 619.817,-449 609.817,-445.5 609.817,-452.5"/>
</g>
<!-- Node9 -->
<g id="node17" class="node"><title>Node9</title>
<a xlink:href="namespace_g_n_uplot.html#a60ecface5bf85a5e3e2e1743bd266737" target="_top" xlink:title="Replace all characters which might confuse &#39;sed&#39;.">
<polygon fill="white" stroke="black" points="802.5,-457.5 802.5,-478.5 897.5,-478.5 897.5,-457.5 802.5,-457.5"/>
<text text-anchor="middle" x="850" y="-465.5" font-family="Helvetica,sans-Serif" font-size="10.00">GNUplot::sanitise</text>
</a>
</g>
<!-- Node6&#45;&gt;Node9 -->
<g id="edge18" class="edge"><title>Node6&#45;&gt;Node9</title>
<path fill="none" stroke="midnightblue" d="M525.53,-456.35C551.991,-461.014 587.983,-466.606 620,-469 684.708,-473.838 701.112,-469.386 766,-469 774.491,-468.949 783.464,-468.87 792.261,-468.778"/>
<polygon fill="midnightblue" stroke="midnightblue" points="792.507,-472.275 802.468,-468.664 792.429,-465.276 792.507,-472.275"/>
</g>
<!-- Node8&#45;&gt;Node9 -->
<g id="edge16" class="edge"><title>Node8&#45;&gt;Node9</title>
<path fill="none" stroke="midnightblue" d="M766.444,-457.888C775.068,-458.932 783.773,-459.985 792.142,-460.998"/>
<polygon fill="midnightblue" stroke="midnightblue" points="791.807,-464.483 802.155,-462.21 792.648,-457.534 791.807,-464.483"/>
</g>
<!-- Node11&#45;&gt;Node3 -->
<g id="edge24" class="edge"><title>Node11&#45;&gt;Node3</title>
<path fill="none" stroke="midnightblue" d="M283.292,-339.696C300.808,-354.206 331.974,-381.488 354,-409 373.436,-433.277 364.633,-451.01 390,-469 392.582,-470.831 395.293,-472.502 398.103,-474.026"/>
<polygon fill="midnightblue" stroke="midnightblue" points="396.836,-477.299 407.372,-478.414 399.831,-470.972 396.836,-477.299"/>
</g>
<!-- Node11&#45;&gt;Node4 -->
<g id="edge26" class="edge"><title>Node11&#45;&gt;Node4</title>
<path fill="none" stroke="midnightblue" d="M287.656,-339.672C310.509,-353.046 351.924,-375.809 390,-389 397.623,-391.641 405.711,-393.986 413.836,-396.054"/>
<polygon fill="midnightblue" stroke="midnightblue" points="413.196,-399.5 423.738,-398.441 414.837,-392.695 413.196,-399.5"/>
</g>
<!-- Node11&#45;&gt;Node5 -->
<g id="edge38" class="edge"><title>Node11&#45;&gt;Node5</title>
<path fill="none" stroke="midnightblue" d="M321.744,-318.455C342.819,-314.664 367.478,-310.864 390,-309 475.928,-301.888 498.168,-300.807 584,-309 601.961,-310.714 621.364,-313.984 638.751,-317.441"/>
<polygon fill="midnightblue" stroke="midnightblue" points="638.231,-320.907 648.73,-319.488 639.637,-314.05 638.231,-320.907"/>
</g>
<!-- Node11&#45;&gt;Node6 -->
<g id="edge36" class="edge"><title>Node11&#45;&gt;Node6</title>
<path fill="none" stroke="midnightblue" d="M279.367,-339.737C298.129,-360.51 342.605,-406.162 390,-429 404.867,-436.164 422.22,-440.767 438.106,-443.723"/>
<polygon fill="midnightblue" stroke="midnightblue" points="437.85,-447.229 448.292,-445.438 439.012,-440.326 437.85,-447.229"/>
</g>
<!-- Node12 -->
<g id="node26" class="node"><title>Node12</title>
<a xlink:href="class_array.html#a142bd1adb0eb622a1d89e6ca514509c0" target="_top" xlink:title="Array::getSmoothedGradOfHistFilename">
<polygon fill="white" stroke="black" points="390.5,-358.5 390.5,-379.5 583.5,-379.5 583.5,-358.5 390.5,-358.5"/>
<text text-anchor="middle" x="487" y="-366.5" font-family="Helvetica,sans-Serif" font-size="10.00">Array::getSmoothedGradOfHistFilename</text>
</a>
</g>
<!-- Node11&#45;&gt;Node12 -->
<g id="edge28" class="edge"><title>Node11&#45;&gt;Node12</title>
<path fill="none" stroke="midnightblue" d="M327.014,-339.51C355.558,-344.771 390.289,-351.173 420.089,-356.666"/>
<polygon fill="midnightblue" stroke="midnightblue" points="419.521,-360.12 429.99,-358.491 420.79,-353.236 419.521,-360.12"/>
</g>
<!-- Node13 -->
<g id="node28" class="node"><title>Node13</title>
<a xlink:href="class_array.html#ae80fff561b788262683b42941f2ebda5" target="_top" xlink:title="Array::getSmoothing">
<polygon fill="white" stroke="black" points="434,-318.5 434,-339.5 540,-339.5 540,-318.5 434,-318.5"/>
<text text-anchor="middle" x="487" y="-326.5" font-family="Helvetica,sans-Serif" font-size="10.00">Array::getSmoothing</text>
</a>
</g>
<!-- Node11&#45;&gt;Node13 -->
<g id="edge30" class="edge"><title>Node11&#45;&gt;Node13</title>
<path fill="none" stroke="midnightblue" d="M353.587,-329C376.881,-329 401.795,-329 423.711,-329"/>
<polygon fill="midnightblue" stroke="midnightblue" points="423.88,-332.5 433.88,-329 423.88,-325.5 423.88,-332.5"/>
</g>
<!-- Node11&#45;&gt;Node14 -->
<g id="edge32" class="edge"><title>Node11&#45;&gt;Node14</title>
<path fill="none" stroke="midnightblue" d="M328.751,-318.339C337.867,-314.836 346.674,-310.182 354,-304 381.646,-280.669 361.377,-253.122 390,-231 392.219,-229.285 394.55,-227.707 396.968,-226.256"/>
<polygon fill="midnightblue" stroke="midnightblue" points="398.8,-229.248 406.066,-221.538 395.578,-223.034 398.8,-229.248"/>
</g>
<!-- Node15 -->
<g id="node32" class="node"><title>Node15</title>
<a xlink:href="class_array.html#a7ba19720014d5acbdc165dee31686bd3" target="_top" xlink:title="Array::getUpstreamSmoothing">
<polygon fill="white" stroke="black" points="412.5,-240.5 412.5,-261.5 561.5,-261.5 561.5,-240.5 412.5,-240.5"/>
<text text-anchor="middle" x="487" y="-248.5" font-family="Helvetica,sans-Serif" font-size="10.00">Array::getUpstreamSmoothing</text>
</a>
</g>
<!-- Node11&#45;&gt;Node15 -->
<g id="edge34" class="edge"><title>Node11&#45;&gt;Node15</title>
<path fill="none" stroke="midnightblue" d="M316.537,-318.488C329.067,-314.772 342.364,-309.986 354,-304 372.024,-294.727 371.807,-284.938 390,-276 399.463,-271.351 409.884,-267.502 420.278,-264.335"/>
<polygon fill="midnightblue" stroke="midnightblue" points="421.548,-267.612 430.204,-261.503 419.627,-260.881 421.548,-267.612"/>
</g>
<!-- Node18 -->
<g id="node41" class="node"><title>Node18</title>
<a xlink:href="namespace_utils.html#a5f35365dae06a93f4bbf0f406a78b90b" target="_top" xlink:title="Utils::fatalError">
<polygon fill="white" stroke="black" points="445.5,-160.5 445.5,-181.5 528.5,-181.5 528.5,-160.5 445.5,-160.5"/>
<text text-anchor="middle" x="487" y="-168.5" font-family="Helvetica,sans-Serif" font-size="10.00">Utils::fatalError</text>
</a>
</g>
<!-- Node17&#45;&gt;Node18 -->
<g id="edge46" class="edge"><title>Node17&#45;&gt;Node18</title>
<path fill="none" stroke="midnightblue" d="M310.054,-171C345.203,-171 396.549,-171 434.888,-171"/>
<polygon fill="midnightblue" stroke="midnightblue" points="435.332,-174.5 445.332,-171 435.332,-167.5 435.332,-174.5"/>
</g>
<!-- Node19&#45;&gt;Node19 -->
<g id="edge50" class="edge"><title>Node19&#45;&gt;Node19</title>
<path fill="none" stroke="midnightblue" d="M239.175,-101.708C226.002,-110.653 236.277,-120 270,-120 292.657,-120 304.73,-115.781 306.218,-110.299"/>
<polygon fill="midnightblue" stroke="midnightblue" points="309.106,-108.316 300.825,-101.708 303.178,-112.038 309.106,-108.316"/>
</g>
<!-- Node20 -->
<g id="node46" class="node"><title>Node20</title>
<a xlink:href="class_array.html#a94bb8954df95b259c7fadf175f531b6b" target="_top" xlink:title="Array::setDeviceName">
<polygon fill="white" stroke="black" points="429,-0.5 429,-21.5 545,-21.5 545,-0.5 429,-0.5"/>
<text text-anchor="middle" x="487" y="-8.5" font-family="Helvetica,sans-Serif" font-size="10.00">Array::setDeviceName</text>
</a>
</g>
<!-- Node19&#45;&gt;Node20 -->
<g id="edge52" class="edge"><title>Node19&#45;&gt;Node20</title>
<path fill="none" stroke="midnightblue" d="M287.656,-80.3282C310.509,-66.9541 351.924,-44.1906 390,-31 399.261,-27.7917 409.207,-25.0206 419.073,-22.6511"/>
<polygon fill="midnightblue" stroke="midnightblue" points="419.913,-26.0495 428.885,-20.4141 418.357,-19.2246 419.913,-26.0495"/>
</g>
<!-- Node21 -->
<g id="node48" class="node"><title>Node21</title>
<a xlink:href="class_array.html#a5b752093b1b3ab4d82707115d1f41adc" target="_top" xlink:title="Array::setSize">
<polygon fill="white" stroke="black" points="447.5,-120.5 447.5,-141.5 526.5,-141.5 526.5,-120.5 447.5,-120.5"/>
<text text-anchor="middle" x="487" y="-128.5" font-family="Helvetica,sans-Serif" font-size="10.00">Array::setSize</text>
</a>
</g>
<!-- Node19&#45;&gt;Node21 -->
<g id="edge54" class="edge"><title>Node19&#45;&gt;Node21</title>
<path fill="none" stroke="midnightblue" d="M327.014,-101.51C361.382,-107.845 404.722,-115.833 437.621,-121.898"/>
<polygon fill="midnightblue" stroke="midnightblue" points="437.006,-125.343 447.475,-123.714 438.275,-118.459 437.006,-125.343"/>
</g>
<!-- Node22 -->
<g id="node50" class="node"><title>Node22</title>
<a xlink:href="class_array.html#af4cbe83b9a05e769dd54007402b9b3e1" target="_top" xlink:title="Used simply to keep tracking of smoothing parameters throughout the workflow.">
<polygon fill="white" stroke="black" points="434,-80.5 434,-101.5 540,-101.5 540,-80.5 434,-80.5"/>
<text text-anchor="middle" x="487" y="-88.5" font-family="Helvetica,sans-Serif" font-size="10.00">Array::setSmoothing</text>
</a>
</g>
<!-- Node19&#45;&gt;Node22 -->
<g id="edge56" class="edge"><title>Node19&#45;&gt;Node22</title>
<path fill="none" stroke="midnightblue" d="M341.655,-91C368.248,-91 398.191,-91 423.958,-91"/>
<polygon fill="midnightblue" stroke="midnightblue" points="423.981,-94.5001 433.981,-91 423.981,-87.5001 423.981,-94.5001"/>
</g>
<!-- Node23 -->
<g id="node52" class="node"><title>Node23</title>
<a xlink:href="class_array.html#a0af1f966c6f45c8ff7949ca8b290e01a" target="_top" xlink:title="Array::setUpstreamSmoothing">
<polygon fill="white" stroke="black" points="412.5,-40.5 412.5,-61.5 561.5,-61.5 561.5,-40.5 412.5,-40.5"/>
<text text-anchor="middle" x="487" y="-48.5" font-family="Helvetica,sans-Serif" font-size="10.00">Array::setUpstreamSmoothing</text>
</a>
</g>
<!-- Node19&#45;&gt;Node23 -->
<g id="edge58" class="edge"><title>Node19&#45;&gt;Node23</title>
<path fill="none" stroke="midnightblue" d="M327.014,-80.4905C355.558,-75.229 390.289,-68.8268 420.089,-63.3338"/>
<polygon fill="midnightblue" stroke="midnightblue" points="420.79,-66.7636 429.99,-61.5087 419.521,-59.8796 420.79,-66.7636"/>
</g>
</g>
</svg>
