<?xml version="1.0" encoding="UTF-8" standalone="no"?>
<!DOCTYPE svg PUBLIC "-//W3C//DTD SVG 1.1//EN"
 "http://www.w3.org/Graphics/SVG/1.1/DTD/svg11.dtd">
<!-- Generated by graphviz version 2.26.3 (20100126.1600)
 -->
<!-- Title: G Pages: 1 -->
<svg width="291pt" height="1184pt"
 viewBox="0.00 0.00 291.00 1184.00" xmlns="http://www.w3.org/2000/svg" xmlns:xlink="http://www.w3.org/1999/xlink">
<g id="graph1" class="graph" transform="scale(1 1) rotate(0) translate(4 1180)">
<title>G</title>
<polygon fill="white" stroke="white" points="-4,5 -4,-1180 288,-1180 288,5 -4,5"/>
<!-- Node1 -->
<g id="node1" class="node"><title>Node1</title>
<polygon fill="#bfbfbf" stroke="black" points="101.5,-0.5 101.5,-921.5 280.5,-921.5 280.5,-0.5 101.5,-0.5"/>
<text text-anchor="middle" x="191" y="-908.5" font-family="Helvetica,sans-Serif" font-size="10.00">Array&lt; T &gt;</text>
<polyline fill="none" stroke="black" points="101.5,-900.5 280.5,-900.5 "/>
<text text-anchor="start" x="109.5" y="-887.5" font-family="Helvetica,sans-Serif" font-size="10.00"># data</text>
<text text-anchor="start" x="109.5" y="-874.5" font-family="Helvetica,sans-Serif" font-size="10.00"># size</text>
<text text-anchor="start" x="109.5" y="-861.5" font-family="Helvetica,sans-Serif" font-size="10.00"># smoothing</text>
<text text-anchor="start" x="109.5" y="-848.5" font-family="Helvetica,sans-Serif" font-size="10.00"># upstreamSmoothing</text>
<text text-anchor="start" x="109.5" y="-835.5" font-family="Helvetica,sans-Serif" font-size="10.00"># deviceName</text>
<polyline fill="none" stroke="black" points="101.5,-827.5 280.5,-827.5 "/>
<text text-anchor="start" x="109.5" y="-814.5" font-family="Helvetica,sans-Serif" font-size="10.00">+ Array()</text>
<text text-anchor="start" x="109.5" y="-801.5" font-family="Helvetica,sans-Serif" font-size="10.00">+ Array()</text>
<text text-anchor="start" x="109.5" y="-788.5" font-family="Helvetica,sans-Serif" font-size="10.00">+ Array()</text>
<text text-anchor="start" x="109.5" y="-775.5" font-family="Helvetica,sans-Serif" font-size="10.00">+ Array()</text>
<text text-anchor="start" x="109.5" y="-762.5" font-family="Helvetica,sans-Serif" font-size="10.00">+ ~Array()</text>
<text text-anchor="start" x="109.5" y="-749.5" font-family="Helvetica,sans-Serif" font-size="10.00">+ operator=()</text>
<text text-anchor="start" x="109.5" y="-736.5" font-family="Helvetica,sans-Serif" font-size="10.00">+ operator==()</text>
<text text-anchor="start" x="109.5" y="-723.5" font-family="Helvetica,sans-Serif" font-size="10.00">+ operator[]()</text>
<text text-anchor="start" x="109.5" y="-710.5" font-family="Helvetica,sans-Serif" font-size="10.00">+ operator[]()</text>
<text text-anchor="start" x="109.5" y="-697.5" font-family="Helvetica,sans-Serif" font-size="10.00">+ setSize()</text>
<text text-anchor="start" x="109.5" y="-684.5" font-family="Helvetica,sans-Serif" font-size="10.00">+ getSize()</text>
<text text-anchor="start" x="109.5" y="-671.5" font-family="Helvetica,sans-Serif" font-size="10.00">+ getSmoothing()</text>
<text text-anchor="start" x="109.5" y="-658.5" font-family="Helvetica,sans-Serif" font-size="10.00">+ setSmoothing()</text>
<text text-anchor="start" x="109.5" y="-645.5" font-family="Helvetica,sans-Serif" font-size="10.00">+ getUpstreamSmoothing()</text>
<text text-anchor="start" x="109.5" y="-632.5" font-family="Helvetica,sans-Serif" font-size="10.00">+ setUpstreamSmoothing()</text>
<text text-anchor="start" x="109.5" y="-619.5" font-family="Helvetica,sans-Serif" font-size="10.00">+ setDeviceName()</text>
<text text-anchor="start" x="109.5" y="-606.5" font-family="Helvetica,sans-Serif" font-size="10.00">+ getDeviceName()</text>
<text text-anchor="start" x="109.5" y="-593.5" font-family="Helvetica,sans-Serif" font-size="10.00">+ setAllEntriesTo()</text>
<text text-anchor="start" x="109.5" y="-580.5" font-family="Helvetica,sans-Serif" font-size="10.00">+ dumpToFile()</text>
<text text-anchor="start" x="109.5" y="-567.5" font-family="Helvetica,sans-Serif" font-size="10.00">+ getSmoothedGradOfHistFilename()</text>
<text text-anchor="start" x="109.5" y="-554.5" font-family="Helvetica,sans-Serif" font-size="10.00">+ getBaseFilename()</text>
<text text-anchor="start" x="109.5" y="-541.5" font-family="Helvetica,sans-Serif" font-size="10.00">+ drawGraph()</text>
<text text-anchor="start" x="109.5" y="-528.5" font-family="Helvetica,sans-Serif" font-size="10.00">+ loadData()</text>
<text text-anchor="start" x="109.5" y="-515.5" font-family="Helvetica,sans-Serif" font-size="10.00">+ rollingAv()</text>
<text text-anchor="start" x="109.5" y="-502.5" font-family="Helvetica,sans-Serif" font-size="10.00">+ rollingAv()</text>
<text text-anchor="start" x="109.5" y="-489.5" font-family="Helvetica,sans-Serif" font-size="10.00">+ copyCrop()</text>
<text text-anchor="start" x="109.5" y="-476.5" font-family="Helvetica,sans-Serif" font-size="10.00">+ getNumLeadingZeros()</text>
<text text-anchor="start" x="109.5" y="-463.5" font-family="Helvetica,sans-Serif" font-size="10.00">+ getNumTrailingZeros()</text>
<text text-anchor="start" x="109.5" y="-450.5" font-family="Helvetica,sans-Serif" font-size="10.00">* HIST_GRADIENT_RA_LENGTH</text>
<text text-anchor="start" x="109.5" y="-437.5" font-family="Helvetica,sans-Serif" font-size="10.00">* max()</text>
<text text-anchor="start" x="109.5" y="-424.5" font-family="Helvetica,sans-Serif" font-size="10.00">* max()</text>
<text text-anchor="start" x="109.5" y="-411.5" font-family="Helvetica,sans-Serif" font-size="10.00">* descendPeak()</text>
<text text-anchor="start" x="109.5" y="-398.5" font-family="Helvetica,sans-Serif" font-size="10.00">* getDelta()</text>
<text text-anchor="start" x="109.5" y="-385.5" font-family="Helvetica,sans-Serif" font-size="10.00">* getDelta()</text>
<text text-anchor="start" x="109.5" y="-372.5" font-family="Helvetica,sans-Serif" font-size="10.00">* findPeaks()</text>
<text text-anchor="start" x="109.5" y="-359.5" font-family="Helvetica,sans-Serif" font-size="10.00">* Array()</text>
<text text-anchor="start" x="109.5" y="-346.5" font-family="Helvetica,sans-Serif" font-size="10.00">* Array()</text>
<text text-anchor="start" x="109.5" y="-333.5" font-family="Helvetica,sans-Serif" font-size="10.00">* Array()</text>
<text text-anchor="start" x="109.5" y="-320.5" font-family="Helvetica,sans-Serif" font-size="10.00">* Array()</text>
<text text-anchor="start" x="109.5" y="-307.5" font-family="Helvetica,sans-Serif" font-size="10.00">* ~Array()</text>
<text text-anchor="start" x="109.5" y="-294.5" font-family="Helvetica,sans-Serif" font-size="10.00">* operator=()</text>
<text text-anchor="start" x="109.5" y="-281.5" font-family="Helvetica,sans-Serif" font-size="10.00">* operator==()</text>
<text text-anchor="start" x="109.5" y="-268.5" font-family="Helvetica,sans-Serif" font-size="10.00">* operator[]()</text>
<text text-anchor="start" x="109.5" y="-255.5" font-family="Helvetica,sans-Serif" font-size="10.00">* operator[]()</text>
<text text-anchor="start" x="109.5" y="-242.5" font-family="Helvetica,sans-Serif" font-size="10.00">* setSize()</text>
<text text-anchor="start" x="109.5" y="-229.5" font-family="Helvetica,sans-Serif" font-size="10.00">* getSize()</text>
<text text-anchor="start" x="109.5" y="-216.5" font-family="Helvetica,sans-Serif" font-size="10.00">* getSmoothing()</text>
<text text-anchor="start" x="109.5" y="-203.5" font-family="Helvetica,sans-Serif" font-size="10.00">* setSmoothing()</text>
<text text-anchor="start" x="109.5" y="-190.5" font-family="Helvetica,sans-Serif" font-size="10.00">* getUpstreamSmoothing()</text>
<text text-anchor="start" x="109.5" y="-177.5" font-family="Helvetica,sans-Serif" font-size="10.00">* setUpstreamSmoothing()</text>
<text text-anchor="start" x="109.5" y="-164.5" font-family="Helvetica,sans-Serif" font-size="10.00">* setDeviceName()</text>
<text text-anchor="start" x="109.5" y="-151.5" font-family="Helvetica,sans-Serif" font-size="10.00">* getDeviceName()</text>
<text text-anchor="start" x="109.5" y="-138.5" font-family="Helvetica,sans-Serif" font-size="10.00">* setAllEntriesTo()</text>
<text text-anchor="start" x="109.5" y="-125.5" font-family="Helvetica,sans-Serif" font-size="10.00">* dumpToFile()</text>
<text text-anchor="start" x="109.5" y="-112.5" font-family="Helvetica,sans-Serif" font-size="10.00">* getSmoothedGradOfHistFilename()</text>
<text text-anchor="start" x="109.5" y="-99.5" font-family="Helvetica,sans-Serif" font-size="10.00">* getBaseFilename()</text>
<text text-anchor="start" x="109.5" y="-86.5" font-family="Helvetica,sans-Serif" font-size="10.00">* drawGraph()</text>
<text text-anchor="start" x="109.5" y="-73.5" font-family="Helvetica,sans-Serif" font-size="10.00">* loadData()</text>
<text text-anchor="start" x="109.5" y="-60.5" font-family="Helvetica,sans-Serif" font-size="10.00">* rollingAv()</text>
<text text-anchor="start" x="109.5" y="-47.5" font-family="Helvetica,sans-Serif" font-size="10.00">* rollingAv()</text>
<text text-anchor="start" x="109.5" y="-34.5" font-family="Helvetica,sans-Serif" font-size="10.00">* copyCrop()</text>
<text text-anchor="start" x="109.5" y="-21.5" font-family="Helvetica,sans-Serif" font-size="10.00">* getNumLeadingZeros()</text>
<text text-anchor="start" x="109.5" y="-8.5" font-family="Helvetica,sans-Serif" font-size="10.00">* getNumTrailingZeros()</text>
</g>
<!-- Node2 -->
<g id="node2" class="node"><title>Node2</title>
<a xlink:href="classsize__t.html" target="_top" xlink:title="{size_t\n||}">
<polygon fill="white" stroke="black" points="-0.5,-1010.5 -0.5,-1073.5 42.5,-1073.5 42.5,-1010.5 -0.5,-1010.5"/>
<text text-anchor="middle" x="21" y="-1060.5" font-family="Helvetica,sans-Serif" font-size="10.00">size_t</text>
<polyline fill="none" stroke="black" points="-0.5,-1052.5 42.5,-1052.5 "/>
<text text-anchor="middle" x="21" y="-1039.5" font-family="Helvetica,sans-Serif" font-size="10.00"> </text>
<polyline fill="none" stroke="black" points="-0.5,-1031.5 42.5,-1031.5 "/>
<text text-anchor="middle" x="21" y="-1018.5" font-family="Helvetica,sans-Serif" font-size="10.00"> </text>
</a>
</g>
<!-- Node2&#45;&gt;Node1 -->
<g id="edge2" class="edge"><title>Node2&#45;&gt;Node1</title>
<path fill="none" stroke="#9a32cd" stroke-dasharray="5,2" d="M27.6123,-1000.17C30.8466,-981.629 35.1015,-959.611 40,-940 57.5644,-869.68 79.6429,-794.524 101.452,-725.086"/>
<polygon fill="#9a32cd" stroke="#9a32cd" points="25.9229,-1010.08 23.1677,-999.47 26.7633,-1005.15 27.6037,-1000.23 27.6037,-1000.23 27.6037,-1000.23 26.7633,-1005.15 32.0397,-1000.98 25.9229,-1010.08 25.9229,-1010.08"/>
<text text-anchor="middle" x="113.5" y="-983" font-family="Helvetica,sans-Serif" font-size="10.00">size</text>
<text text-anchor="middle" x="113.5" y="-970" font-family="Helvetica,sans-Serif" font-size="10.00">upstreamSmoothing</text>
<text text-anchor="middle" x="113.5" y="-957" font-family="Helvetica,sans-Serif" font-size="10.00">HIST_GRADIENT_RA_LENGTH</text>
<text text-anchor="middle" x="113.5" y="-944" font-family="Helvetica,sans-Serif" font-size="10.00">smoothing</text>
</g>
<!-- Node3 -->
<g id="node4" class="node"><title>Node3</title>
<a xlink:title="STL class.">
<polygon fill="white" stroke="#bfbfbf" points="161,-1010.5 161,-1073.5 221,-1073.5 221,-1010.5 161,-1010.5"/>
<text text-anchor="middle" x="191" y="-1060.5" font-family="Helvetica,sans-Serif" font-size="10.00">std::string</text>
<polyline fill="none" stroke="#bfbfbf" points="161,-1052.5 221,-1052.5 "/>
<text text-anchor="middle" x="191" y="-1039.5" font-family="Helvetica,sans-Serif" font-size="10.00"> </text>
<polyline fill="none" stroke="#bfbfbf" points="161,-1031.5 221,-1031.5 "/>
<text text-anchor="middle" x="191" y="-1018.5" font-family="Helvetica,sans-Serif" font-size="10.00"> </text>
</a>
</g>
<!-- Node3&#45;&gt;Node1 -->
<g id="edge4" class="edge"><title>Node3&#45;&gt;Node1</title>
<path fill="none" stroke="#9a32cd" stroke-dasharray="5,2" d="M191,-1000.22C191,-979.683 191,-952.668 191,-921.658"/>
<polygon fill="#9a32cd" stroke="#9a32cd" points="191,-1010.35 186.5,-1000.35 191,-1005.35 191,-1000.35 191,-1000.35 191,-1000.35 191,-1005.35 195.5,-1000.35 191,-1010.35 191,-1010.35"/>
<text text-anchor="middle" x="218.5" y="-963.5" font-family="Helvetica,sans-Serif" font-size="10.00">deviceName</text>
</g>
<!-- Node4 -->
<g id="node6" class="node"><title>Node4</title>
<a xlink:title="STL class.">
<polygon fill="white" stroke="#bfbfbf" points="128.5,-1112.5 128.5,-1175.5 253.5,-1175.5 253.5,-1112.5 128.5,-1112.5"/>
<text text-anchor="middle" x="191" y="-1162.5" font-family="Helvetica,sans-Serif" font-size="10.00">std::basic_string&lt; char &gt;</text>
<polyline fill="none" stroke="#bfbfbf" points="128.5,-1154.5 253.5,-1154.5 "/>
<text text-anchor="middle" x="191" y="-1141.5" font-family="Helvetica,sans-Serif" font-size="10.00"> </text>
<polyline fill="none" stroke="#bfbfbf" points="128.5,-1133.5 253.5,-1133.5 "/>
<text text-anchor="middle" x="191" y="-1120.5" font-family="Helvetica,sans-Serif" font-size="10.00"> </text>
</a>
</g>
<!-- Node4&#45;&gt;Node3 -->
<g id="edge6" class="edge"><title>Node4&#45;&gt;Node3</title>
<path fill="none" stroke="midnightblue" d="M191,-1102.19C191,-1092.67 191,-1082.71 191,-1073.69"/>
<polygon fill="none" stroke="midnightblue" points="187.5,-1102.29 191,-1112.29 194.5,-1102.29 187.5,-1102.29"/>
</g>
<!-- Node5 -->
<g id="node8" class="node"><title>Node5</title>
<polygon fill="white" stroke="#bfbfbf" points="254.5,-1010.5 254.5,-1073.5 283.5,-1073.5 283.5,-1010.5 254.5,-1010.5"/>
<text text-anchor="middle" x="269" y="-1060.5" font-family="Helvetica,sans-Serif" font-size="10.00">T</text>
<polyline fill="none" stroke="#bfbfbf" points="254.5,-1052.5 283.5,-1052.5 "/>
<text text-anchor="middle" x="269" y="-1039.5" font-family="Helvetica,sans-Serif" font-size="10.00"> </text>
<polyline fill="none" stroke="#bfbfbf" points="254.5,-1031.5 283.5,-1031.5 "/>
<text text-anchor="middle" x="269" y="-1018.5" font-family="Helvetica,sans-Serif" font-size="10.00"> </text>
</g>
<!-- Node5&#45;&gt;Node1 -->
<g id="edge8" class="edge"><title>Node5&#45;&gt;Node1</title>
<path fill="none" stroke="#9a32cd" stroke-dasharray="5,2" d="M263.39,-1000.22C260.634,-979.683 257.007,-952.668 252.844,-921.658"/>
<polygon fill="#9a32cd" stroke="#9a32cd" points="264.751,-1010.35 258.96,-1001.04 264.086,-1005.39 263.42,-1000.44 263.42,-1000.44 263.42,-1000.44 264.086,-1005.39 267.88,-999.84 264.751,-1010.35 264.751,-1010.35"/>
<text text-anchor="middle" x="269.5" y="-963.5" font-family="Helvetica,sans-Serif" font-size="10.00">data</text>
</g>
</g>
</svg>
