<?xml version="1.0" encoding="UTF-8" standalone="no"?>
<!DOCTYPE svg PUBLIC "-//W3C//DTD SVG 1.1//EN"
 "http://www.w3.org/Graphics/SVG/1.1/DTD/svg11.dtd">
<!-- Generated by graphviz version 2.26.3 (20100126.1600)
 -->
<!-- Title: G Pages: 1 -->
<svg width="278pt" height="48pt"
 viewBox="0.00 0.00 278.00 48.00" xmlns="http://www.w3.org/2000/svg" xmlns:xlink="http://www.w3.org/1999/xlink">
<g id="graph1" class="graph" transform="scale(1 1) rotate(0) translate(4 44)">
<title>G</title>
<polygon fill="white" stroke="white" points="-4,5 -4,-44 275,-44 275,5 -4,5"/>
<!-- Node1 -->
<g id="node1" class="node"><title>Node1</title>
<polygon fill="#bfbfbf" stroke="black" points="0.5,-0.5 0.5,-21.5 83.5,-21.5 83.5,-0.5 0.5,-0.5"/>
<text text-anchor="middle" x="42" y="-8.5" font-family="Helvetica,sans-Serif" font-size="10.00">Array::rollingAv</text>
</g>
<!-- Node1&#45;&gt;Node1 -->
<g id="edge4" class="edge"><title>Node1&#45;&gt;Node1</title>
<path fill="none" stroke="midnightblue" d="M13.8394,-31.0551C15.6866,-36.164 25.0735,-40 42,-40 68.4219,-40 76.4723,-30.6531 66.1512,-21.7079"/>
<polygon fill="midnightblue" stroke="midnightblue" points="17.1233,-32.2778 17.8488,-21.7079 10.6901,-29.5184 17.1233,-32.2778"/>
</g>
<!-- Node2 -->
<g id="node3" class="node"><title>Node2</title>
<a xlink:href="class_array.html#ad09653725c36dbb022a04309465ec277" target="_top" xlink:title="Attempts to automatically find the peaks.">
<polygon fill="white" stroke="black" points="120.5,-0.5 120.5,-21.5 269.5,-21.5 269.5,-0.5 120.5,-0.5"/>
<text text-anchor="middle" x="195" y="-8.5" font-family="Helvetica,sans-Serif" font-size="10.00">Array&lt; Sample_t &gt;::findPeaks</text>
</a>
</g>
<!-- Node1&#45;&gt;Node2 -->
<g id="edge2" class="edge"><title>Node1&#45;&gt;Node2</title>
<path fill="none" stroke="midnightblue" d="M93.9189,-11C102.419,-11 111.372,-11 120.293,-11"/>
<polygon fill="midnightblue" stroke="midnightblue" points="93.808,-7.5001 83.8079,-11 93.8079,-14.5001 93.808,-7.5001"/>
</g>
</g>
</svg>
