<?xml version="1.0" encoding="UTF-8" standalone="no"?>
<!DOCTYPE svg PUBLIC "-//W3C//DTD SVG 1.1//EN"
 "http://www.w3.org/Graphics/SVG/1.1/DTD/svg11.dtd">
<!-- Generated by graphviz version 2.26.3 (20100126.1600)
 -->
<!-- Title: G Pages: 1 -->
<svg width="1226pt" height="566pt"
 viewBox="0.00 0.00 1226.00 566.00" xmlns="http://www.w3.org/2000/svg" xmlns:xlink="http://www.w3.org/1999/xlink">
<g id="graph1" class="graph" transform="scale(1 1) rotate(0) translate(4 562)">
<title>G</title>
<polygon fill="white" stroke="white" points="-4,5 -4,-562 1223,-562 1223,5 -4,5"/>
<!-- Node1 -->
<g id="node1" class="node"><title>Node1</title>
<polygon fill="#bfbfbf" stroke="black" points="0.5,-276.5 0.5,-297.5 149.5,-297.5 149.5,-276.5 0.5,-276.5"/>
<text text-anchor="middle" x="75" y="-284.5" font-family="Helvetica,sans-Serif" font-size="10.00">Device::trainPowerStateGraph</text>
</g>
<!-- Node2 -->
<g id="node3" class="node"><title>Node2</title>
<a xlink:href="class_power_state_graph.html#a1aff2c646dc8187249534520f8f7a4a1" target="_top" xlink:title="PowerStateGraph::getEnergyConsumption">
<polygon fill="white" stroke="black" points="186,-336.5 186,-357.5 388,-357.5 388,-336.5 186,-336.5"/>
<text text-anchor="middle" x="287" y="-344.5" font-family="Helvetica,sans-Serif" font-size="10.00">PowerStateGraph::getEnergyConsumption</text>
</a>
</g>
<!-- Node1&#45;&gt;Node2 -->
<g id="edge2" class="edge"><title>Node1&#45;&gt;Node2</title>
<path fill="none" stroke="midnightblue" d="M101.104,-297.669C123.373,-306.463 156.393,-318.784 186,-327 195.624,-329.671 205.859,-332.128 215.978,-334.339"/>
<polygon fill="midnightblue" stroke="midnightblue" points="215.525,-337.82 226.033,-336.465 216.974,-330.972 215.525,-337.82"/>
</g>
<!-- Node3 -->
<g id="node5" class="node"><title>Node3</title>
<a xlink:href="namespace_utils.html#afb991f08a33e9d7f3298e60f3bf76960" target="_top" xlink:title="Utils::openFile">
<polygon fill="white" stroke="black" points="247,-296.5 247,-317.5 327,-317.5 327,-296.5 247,-296.5"/>
<text text-anchor="middle" x="287" y="-304.5" font-family="Helvetica,sans-Serif" font-size="10.00">Utils::openFile</text>
</a>
</g>
<!-- Node1&#45;&gt;Node3 -->
<g id="edge4" class="edge"><title>Node1&#45;&gt;Node3</title>
<path fill="none" stroke="midnightblue" d="M149.743,-294.051C178.579,-296.772 210.805,-299.812 236.78,-302.262"/>
<polygon fill="midnightblue" stroke="midnightblue" points="236.487,-305.75 246.772,-303.205 237.145,-298.781 236.487,-305.75"/>
</g>
<!-- Node5 -->
<g id="node9" class="node"><title>Node5</title>
<a xlink:href="class_power_state_graph.html#a90ebffe4864640182b342a814af0f0a7" target="_top" xlink:title="Update or initialise Power State Graph.">
<polygon fill="white" stroke="black" points="222.5,-256.5 222.5,-277.5 351.5,-277.5 351.5,-256.5 222.5,-256.5"/>
<text text-anchor="middle" x="287" y="-264.5" font-family="Helvetica,sans-Serif" font-size="10.00">PowerStateGraph::update</text>
</a>
</g>
<!-- Node1&#45;&gt;Node5 -->
<g id="edge8" class="edge"><title>Node1&#45;&gt;Node5</title>
<path fill="none" stroke="midnightblue" d="M149.743,-279.949C170.038,-278.034 192.011,-275.961 212.302,-274.047"/>
<polygon fill="midnightblue" stroke="midnightblue" points="212.8,-277.516 222.427,-273.092 212.142,-270.547 212.8,-277.516"/>
</g>
<!-- Node33 -->
<g id="node70" class="node"><title>Node33</title>
<a xlink:href="class_power_state_graph.html#a52095959446302223b8c436e1aa49e50" target="_top" xlink:title="Information about an entire device &#39;fingerprint&#39; found in the aggregate data.">
<polygon fill="white" stroke="black" points="206.5,-216.5 206.5,-237.5 367.5,-237.5 367.5,-216.5 206.5,-216.5"/>
<text text-anchor="middle" x="287" y="-224.5" font-family="Helvetica,sans-Serif" font-size="10.00">PowerStateGraph::writeGraphViz</text>
</a>
</g>
<!-- Node1&#45;&gt;Node33 -->
<g id="edge74" class="edge"><title>Node1&#45;&gt;Node33</title>
<path fill="none" stroke="midnightblue" d="M101.104,-276.331C123.373,-267.537 156.393,-255.216 186,-247 195.624,-244.329 205.859,-241.872 215.978,-239.661"/>
<polygon fill="midnightblue" stroke="midnightblue" points="216.974,-243.028 226.033,-237.535 215.525,-236.18 216.974,-243.028"/>
</g>
<!-- Node4 -->
<g id="node7" class="node"><title>Node4</title>
<a xlink:href="namespace_utils.html#a5f35365dae06a93f4bbf0f406a78b90b" target="_top" xlink:title="Utils::fatalError">
<polygon fill="white" stroke="black" points="479.5,-476.5 479.5,-497.5 562.5,-497.5 562.5,-476.5 479.5,-476.5"/>
<text text-anchor="middle" x="521" y="-484.5" font-family="Helvetica,sans-Serif" font-size="10.00">Utils::fatalError</text>
</a>
</g>
<!-- Node3&#45;&gt;Node4 -->
<g id="edge6" class="edge"><title>Node3&#45;&gt;Node4</title>
<path fill="none" stroke="midnightblue" d="M327.019,-305.324C347.693,-306.605 371.893,-311.773 388,-327 434.688,-371.135 377.486,-422.682 424,-467 436.062,-478.492 452.888,-484.15 469.145,-486.744"/>
<polygon fill="midnightblue" stroke="midnightblue" points="468.79,-490.227 479.145,-487.988 469.654,-483.28 468.79,-490.227"/>
</g>
<!-- Node6 -->
<g id="node11" class="node"><title>Node6</title>
<a xlink:href="struct_signature_1_1_spike.html#ad5c457fd1b72cd723bdf89f715f34abd" target="_top" xlink:title="Signature::Spike::compareIndexAsc">
<polygon fill="white" stroke="black" points="434.5,-396.5 434.5,-417.5 607.5,-417.5 607.5,-396.5 434.5,-396.5"/>
<text text-anchor="middle" x="521" y="-404.5" font-family="Helvetica,sans-Serif" font-size="10.00">Signature::Spike::compareIndexAsc</text>
</a>
</g>
<!-- Node5&#45;&gt;Node6 -->
<g id="edge10" class="edge"><title>Node5&#45;&gt;Node6</title>
<path fill="none" stroke="midnightblue" d="M351.568,-269.682C364.787,-272.85 377.769,-278.199 388,-287 423.811,-317.804 388.31,-356.056 424,-387 425.742,-388.51 427.567,-389.917 429.462,-391.227"/>
<polygon fill="midnightblue" stroke="midnightblue" points="427.789,-394.303 438.179,-396.373 431.347,-388.275 427.789,-394.303"/>
</g>
<!-- Node7 -->
<g id="node13" class="node"><title>Node7</title>
<a xlink:href="class_signature.html#a02acc8e9f1ceb1af2908807eb1526fcd" target="_top" xlink:title="Takes the gradient of this Signature, then merges gradient values with the same sign, then removes transient spikes, then sorts by value.">
<polygon fill="white" stroke="black" points="455.5,-436.5 455.5,-457.5 586.5,-457.5 586.5,-436.5 455.5,-436.5"/>
<text text-anchor="middle" x="521" y="-444.5" font-family="Helvetica,sans-Serif" font-size="10.00">Signature::getDeltaSpikes</text>
</a>
</g>
<!-- Node5&#45;&gt;Node7 -->
<g id="edge12" class="edge"><title>Node5&#45;&gt;Node7</title>
<path fill="none" stroke="midnightblue" d="M351.676,-268.854C365.046,-272.041 378.063,-277.606 388,-287 434.688,-331.135 377.486,-382.682 424,-427 430.219,-432.925 437.704,-437.299 445.724,-440.502"/>
<polygon fill="midnightblue" stroke="midnightblue" points="444.747,-443.866 455.342,-443.747 446.985,-437.234 444.747,-443.866"/>
</g>
<!-- Node16 -->
<g id="node32" class="node"><title>Node16</title>
<a xlink:href="class_signature.html#a8ab11925aa916b1d225dd72baba50a2c" target="_top" xlink:title="Determine how many Joules of energy have been consumed.">
<polygon fill="white" stroke="black" points="438,-316.5 438,-337.5 604,-337.5 604,-316.5 438,-316.5"/>
<text text-anchor="middle" x="521" y="-324.5" font-family="Helvetica,sans-Serif" font-size="10.00">Signature::getEnergyConsumption</text>
</a>
</g>
<!-- Node5&#45;&gt;Node16 -->
<g id="edge32" class="edge"><title>Node5&#45;&gt;Node16</title>
<path fill="none" stroke="midnightblue" d="M351.674,-276.69C363.928,-279.396 376.503,-282.786 388,-287 405.186,-293.298 406.839,-300.634 424,-307 431.062,-309.62 438.547,-311.928 446.104,-313.956"/>
<polygon fill="midnightblue" stroke="midnightblue" points="445.498,-317.412 456.05,-316.462 447.208,-310.625 445.498,-317.412"/>
</g>
<!-- Node17 -->
<g id="node34" class="node"><title>Node17</title>
<a xlink:href="class_signature.html#a901e57da453530200cd9c177295a2cd3" target="_top" xlink:title="Signature::getID">
<polygon fill="white" stroke="black" points="477,-276.5 477,-297.5 565,-297.5 565,-276.5 477,-276.5"/>
<text text-anchor="middle" x="521" y="-284.5" font-family="Helvetica,sans-Serif" font-size="10.00">Signature::getID</text>
</a>
</g>
<!-- Node5&#45;&gt;Node17 -->
<g id="edge34" class="edge"><title>Node5&#45;&gt;Node17</title>
<path fill="none" stroke="midnightblue" d="M351.561,-272.518C387.727,-275.609 432.321,-279.421 466.682,-282.357"/>
<polygon fill="midnightblue" stroke="midnightblue" points="466.734,-285.875 476.996,-283.239 467.33,-278.9 466.734,-285.875"/>
</g>
<!-- Node18 -->
<g id="node36" class="node"><title>Node18</title>
<a xlink:href="class_array.html#ae16b42080e87a53fe2b76af98995111b" target="_top" xlink:title="Array::getSize">
<polygon fill="white" stroke="black" points="714.5,-198.5 714.5,-219.5 793.5,-219.5 793.5,-198.5 714.5,-198.5"/>
<text text-anchor="middle" x="754" y="-206.5" font-family="Helvetica,sans-Serif" font-size="10.00">Array::getSize</text>
</a>
</g>
<!-- Node5&#45;&gt;Node18 -->
<g id="edge36" class="edge"><title>Node5&#45;&gt;Node18</title>
<path fill="none" stroke="midnightblue" d="M351.768,-260.178C418.549,-253.001 525.661,-241.087 618,-229 646.724,-225.24 678.785,-220.549 704.561,-216.655"/>
<polygon fill="midnightblue" stroke="midnightblue" points="705.11,-220.112 714.471,-215.151 704.059,-213.192 705.11,-220.112"/>
</g>
<!-- Node19 -->
<g id="node38" class="node"><title>Node19</title>
<a xlink:href="class_power_state_graph.html#aae4db4000f6485559f06ab4de4d54619" target="_top" xlink:title="Determine the index of the next spike after spike.">
<polygon fill="white" stroke="black" points="431.5,-198.5 431.5,-219.5 610.5,-219.5 610.5,-198.5 431.5,-198.5"/>
<text text-anchor="middle" x="521" y="-206.5" font-family="Helvetica,sans-Serif" font-size="10.00">PowerStateGraph::indexOfNextSpike</text>
</a>
</g>
<!-- Node5&#45;&gt;Node19 -->
<g id="edge38" class="edge"><title>Node5&#45;&gt;Node19</title>
<path fill="none" stroke="midnightblue" d="M347.969,-256.472C361.252,-253.749 375.169,-250.565 388,-247 404.39,-242.446 407.745,-239.017 424,-234 437.639,-229.79 452.503,-225.71 466.405,-222.109"/>
<polygon fill="midnightblue" stroke="midnightblue" points="467.503,-225.441 476.327,-219.576 465.772,-218.658 467.503,-225.441"/>
</g>
<!-- Node20 -->
<g id="node41" class="node"><title>Node20</title>
<a xlink:href="class_power_state_graph.html#a6ca3bd89b0334bdaa87c703366ffce11" target="_top" xlink:title="Useful for diagnostics.">
<polygon fill="white" stroke="black" points="441,-158.5 441,-179.5 601,-179.5 601,-158.5 441,-158.5"/>
<text text-anchor="middle" x="521" y="-166.5" font-family="Helvetica,sans-Serif" font-size="10.00">PowerStateGraph::printSpikeInfo</text>
</a>
</g>
<!-- Node5&#45;&gt;Node20 -->
<g id="edge42" class="edge"><title>Node5&#45;&gt;Node20</title>
<path fill="none" stroke="midnightblue" d="M351.597,-262.335C364.447,-259.243 377.27,-254.426 388,-247 412.948,-229.734 399.12,-206.364 424,-189 426.595,-187.189 429.319,-185.535 432.139,-184.024"/>
<polygon fill="midnightblue" stroke="midnightblue" points="433.86,-187.083 441.434,-179.674 430.893,-180.743 433.86,-187.083"/>
</g>
<!-- Node21 -->
<g id="node43" class="node"><title>Node21</title>
<a xlink:href="class_power_state_graph.html#a84bbbefd53f67b2945ac17eb11e28fdf" target="_top" xlink:title="Decides whether or not to reject this spike based on the before and after statistics.">
<polygon fill="white" stroke="black" points="679.5,-158.5 679.5,-179.5 828.5,-179.5 828.5,-158.5 679.5,-158.5"/>
<text text-anchor="middle" x="754" y="-166.5" font-family="Helvetica,sans-Serif" font-size="10.00">PowerStateGraph::rejectSpike</text>
</a>
</g>
<!-- Node5&#45;&gt;Node21 -->
<g id="edge44" class="edge"><title>Node5&#45;&gt;Node21</title>
<path fill="none" stroke="midnightblue" d="M351.525,-264.269C364.747,-261.103 377.74,-255.768 388,-247 423.276,-216.855 385.951,-175.558 424,-149 466.061,-119.642 610.251,-141.027 693.457,-156.611"/>
<polygon fill="midnightblue" stroke="midnightblue" points="692.813,-160.051 703.291,-158.479 694.12,-153.174 692.813,-160.051"/>
</g>
<!-- Node25 -->
<g id="node51" class="node"><title>Node25</title>
<a xlink:href="struct_statistic.html#acabbdf2b6cc229a10a8d3d6658a0c366" target="_top" xlink:title="Update an existing Statistic with new data points.">
<polygon fill="white" stroke="black" points="477,-80.5 477,-101.5 565,-101.5 565,-80.5 477,-80.5"/>
<text text-anchor="middle" x="521" y="-88.5" font-family="Helvetica,sans-Serif" font-size="10.00">Statistic::update</text>
</a>
</g>
<!-- Node5&#45;&gt;Node25 -->
<g id="edge52" class="edge"><title>Node5&#45;&gt;Node25</title>
<path fill="none" stroke="midnightblue" d="M351.563,-265.024C364.937,-261.844 377.986,-256.312 388,-247 432.219,-205.884 380.965,-158.354 424,-116 435.388,-104.793 451.095,-98.4095 466.555,-94.8316"/>
<polygon fill="midnightblue" stroke="midnightblue" points="467.487,-98.2157 476.631,-92.8629 466.145,-91.3456 467.487,-98.2157"/>
</g>
<!-- Node26 -->
<g id="node53" class="node"><title>Node26</title>
<a xlink:href="class_power_state_graph.html#a0e3e05ae1b952132621425c042d84ec1" target="_top" xlink:title="Update or Insert a new edge into powerStateGraph.">
<polygon fill="white" stroke="black" points="427.5,-40.5 427.5,-61.5 614.5,-61.5 614.5,-40.5 427.5,-40.5"/>
<text text-anchor="middle" x="521" y="-48.5" font-family="Helvetica,sans-Serif" font-size="10.00">PowerStateGraph::updateOrInsertEdge</text>
</a>
</g>
<!-- Node5&#45;&gt;Node26 -->
<g id="edge54" class="edge"><title>Node5&#45;&gt;Node26</title>
<path fill="none" stroke="midnightblue" d="M351.503,-265.632C365.04,-262.451 378.174,-256.765 388,-247 444.633,-190.721 367.588,-127.501 424,-71 425.253,-69.7452 426.562,-68.559 427.921,-67.438"/>
<polygon fill="midnightblue" stroke="midnightblue" points="429.974,-70.274 436.205,-61.7056 425.991,-64.5177 429.974,-70.274"/>
</g>
<!-- Node30 -->
<g id="node62" class="node"><title>Node30</title>
<a xlink:href="class_power_state_graph.html#ac36cccb3fb0281f9b68e39ba28737770" target="_top" xlink:title="Attempts to find an existing vertex which is statistically similar to stat. If an existing similar ve...">
<polygon fill="white" stroke="black" points="424.5,-356.5 424.5,-377.5 617.5,-377.5 617.5,-356.5 424.5,-356.5"/>
<text text-anchor="middle" x="521" y="-364.5" font-family="Helvetica,sans-Serif" font-size="10.00">PowerStateGraph::updateOrInsertVertex</text>
</a>
</g>
<!-- Node5&#45;&gt;Node30 -->
<g id="edge64" class="edge"><title>Node5&#45;&gt;Node30</title>
<path fill="none" stroke="midnightblue" d="M351.683,-271.541C364.527,-274.642 377.326,-279.493 388,-287 413.437,-304.89 398.633,-329.01 424,-347 426.582,-348.831 429.293,-350.502 432.103,-352.026"/>
<polygon fill="midnightblue" stroke="midnightblue" points="430.836,-355.299 441.372,-356.414 433.831,-348.972 430.836,-355.299"/>
</g>
<!-- Node8 -->
<g id="node15" class="node"><title>Node8</title>
<a xlink:href="struct_signature_1_1_spike.html#a0345ed985cbc94883286755c47ab0d63" target="_top" xlink:title="Comparison function. Useful for sorting lists of spikes into descending order of absolute magnitude...">
<polygon fill="white" stroke="black" points="655.5,-436.5 655.5,-457.5 852.5,-457.5 852.5,-436.5 655.5,-436.5"/>
<text text-anchor="middle" x="754" y="-444.5" font-family="Helvetica,sans-Serif" font-size="10.00">Signature::Spike::compareAbsValueDesc</text>
</a>
</g>
<!-- Node7&#45;&gt;Node8 -->
<g id="edge14" class="edge"><title>Node7&#45;&gt;Node8</title>
<path fill="none" stroke="midnightblue" d="M586.524,-447C604.832,-447 625.232,-447 645.322,-447"/>
<polygon fill="midnightblue" stroke="midnightblue" points="645.465,-450.5 655.465,-447 645.465,-443.5 645.465,-450.5"/>
</g>
<!-- Node9 -->
<g id="node17" class="node"><title>Node9</title>
<a xlink:href="class_signature.html#a6bf289b7aa40eb2791d13d8669089953" target="_top" xlink:title="Merge consecutive spikes of the same sign and then remove any spikes under 10 Watts.">
<polygon fill="white" stroke="black" points="684,-476.5 684,-497.5 824,-497.5 824,-476.5 684,-476.5"/>
<text text-anchor="middle" x="754" y="-484.5" font-family="Helvetica,sans-Serif" font-size="10.00">Signature::getMergedSpikes</text>
</a>
</g>
<!-- Node7&#45;&gt;Node9 -->
<g id="edge16" class="edge"><title>Node7&#45;&gt;Node9</title>
<path fill="none" stroke="midnightblue" d="M582.218,-457.51C612.999,-462.794 650.483,-469.229 682.573,-474.738"/>
<polygon fill="midnightblue" stroke="midnightblue" points="682.339,-478.249 692.787,-476.491 683.523,-471.35 682.339,-478.249"/>
</g>
<!-- Node15 -->
<g id="node30" class="node"><title>Node15</title>
<a xlink:href="namespace_utils.html#a64df1cf745416e01ed1b1d0618d4cdfa" target="_top" xlink:title="Compares 2 doubles. Are they within (a * tolerance) of each other?">
<polygon fill="white" stroke="black" points="704.5,-396.5 704.5,-417.5 803.5,-417.5 803.5,-396.5 704.5,-396.5"/>
<text text-anchor="middle" x="754" y="-404.5" font-family="Helvetica,sans-Serif" font-size="10.00">Utils::roughlyEqual</text>
</a>
</g>
<!-- Node7&#45;&gt;Node15 -->
<g id="edge30" class="edge"><title>Node7&#45;&gt;Node15</title>
<path fill="none" stroke="midnightblue" d="M582.218,-436.49C616.824,-430.549 659.903,-423.154 694.264,-417.255"/>
<polygon fill="midnightblue" stroke="midnightblue" points="694.904,-420.697 704.168,-415.555 693.72,-413.797 694.904,-420.697"/>
</g>
<!-- Node10 -->
<g id="node19" class="node"><title>Node10</title>
<a xlink:href="class_array.html#adeb6ee31eaa806644ce52552b8fc8bc1" target="_top" xlink:title="Array\&lt; Sample_t \&gt;::getDelta">
<polygon fill="white" stroke="black" points="890,-476.5 890,-497.5 1032,-497.5 1032,-476.5 890,-476.5"/>
<text text-anchor="middle" x="961" y="-484.5" font-family="Helvetica,sans-Serif" font-size="10.00">Array&lt; Sample_t &gt;::getDelta</text>
</a>
</g>
<!-- Node9&#45;&gt;Node10 -->
<g id="edge18" class="edge"><title>Node9&#45;&gt;Node10</title>
<path fill="none" stroke="midnightblue" d="M824.081,-487C841.993,-487 861.401,-487 879.82,-487"/>
<polygon fill="midnightblue" stroke="midnightblue" points="879.934,-490.5 889.934,-487 879.934,-483.5 879.934,-490.5"/>
</g>
<!-- Node10&#45;&gt;Node10 -->
<g id="edge20" class="edge"><title>Node10&#45;&gt;Node10</title>
<path fill="none" stroke="midnightblue" d="M932.082,-497.708C919.724,-506.653 929.363,-516 961,-516 981.762,-516 993.05,-511.975 994.864,-506.679"/>
<polygon fill="midnightblue" stroke="midnightblue" points="997.811,-504.775 989.918,-497.708 991.681,-508.155 997.811,-504.775"/>
</g>
<!-- Node11 -->
<g id="node22" class="node"><title>Node11</title>
<a xlink:href="class_array.html#a94bb8954df95b259c7fadf175f531b6b" target="_top" xlink:title="Array::setDeviceName">
<polygon fill="white" stroke="black" points="1085,-496.5 1085,-517.5 1201,-517.5 1201,-496.5 1085,-496.5"/>
<text text-anchor="middle" x="1143" y="-504.5" font-family="Helvetica,sans-Serif" font-size="10.00">Array::setDeviceName</text>
</a>
</g>
<!-- Node10&#45;&gt;Node11 -->
<g id="edge22" class="edge"><title>Node10&#45;&gt;Node11</title>
<path fill="none" stroke="midnightblue" d="M1032.15,-494.818C1046.19,-496.361 1060.89,-497.977 1074.83,-499.509"/>
<polygon fill="midnightblue" stroke="midnightblue" points="1074.5,-502.993 1084.82,-500.607 1075.26,-496.035 1074.5,-502.993"/>
</g>
<!-- Node12 -->
<g id="node24" class="node"><title>Node12</title>
<a xlink:href="class_array.html#a5b752093b1b3ab4d82707115d1f41adc" target="_top" xlink:title="Array::setSize">
<polygon fill="white" stroke="black" points="1103.5,-456.5 1103.5,-477.5 1182.5,-477.5 1182.5,-456.5 1103.5,-456.5"/>
<text text-anchor="middle" x="1143" y="-464.5" font-family="Helvetica,sans-Serif" font-size="10.00">Array::setSize</text>
</a>
</g>
<!-- Node10&#45;&gt;Node12 -->
<g id="edge24" class="edge"><title>Node10&#45;&gt;Node12</title>
<path fill="none" stroke="midnightblue" d="M1032.15,-479.182C1052.59,-476.935 1074.44,-474.535 1093.28,-472.463"/>
<polygon fill="midnightblue" stroke="midnightblue" points="1093.86,-475.921 1103.42,-471.35 1093.1,-468.963 1093.86,-475.921"/>
</g>
<!-- Node13 -->
<g id="node26" class="node"><title>Node13</title>
<a xlink:href="class_array.html#af4cbe83b9a05e769dd54007402b9b3e1" target="_top" xlink:title="Used simply to keep tracking of smoothing parameters throughout the workflow.">
<polygon fill="white" stroke="black" points="1090,-416.5 1090,-437.5 1196,-437.5 1196,-416.5 1090,-416.5"/>
<text text-anchor="middle" x="1143" y="-424.5" font-family="Helvetica,sans-Serif" font-size="10.00">Array::setSmoothing</text>
</a>
</g>
<!-- Node10&#45;&gt;Node13 -->
<g id="edge26" class="edge"><title>Node10&#45;&gt;Node13</title>
<path fill="none" stroke="midnightblue" d="M987.134,-476.418C1008.65,-467.904 1040.04,-455.931 1068,-447 1075.23,-444.691 1082.91,-442.429 1090.49,-440.307"/>
<polygon fill="midnightblue" stroke="midnightblue" points="1091.63,-443.623 1100.35,-437.604 1089.78,-436.872 1091.63,-443.623"/>
</g>
<!-- Node14 -->
<g id="node28" class="node"><title>Node14</title>
<a xlink:href="class_array.html#a0af1f966c6f45c8ff7949ca8b290e01a" target="_top" xlink:title="Array::setUpstreamSmoothing">
<polygon fill="white" stroke="black" points="1068.5,-536.5 1068.5,-557.5 1217.5,-557.5 1217.5,-536.5 1068.5,-536.5"/>
<text text-anchor="middle" x="1143" y="-544.5" font-family="Helvetica,sans-Serif" font-size="10.00">Array::setUpstreamSmoothing</text>
</a>
</g>
<!-- Node10&#45;&gt;Node14 -->
<g id="edge28" class="edge"><title>Node10&#45;&gt;Node14</title>
<path fill="none" stroke="midnightblue" d="M987.134,-497.582C1008.65,-506.096 1040.04,-518.069 1068,-527 1075.23,-529.309 1082.91,-531.571 1090.49,-533.693"/>
<polygon fill="midnightblue" stroke="midnightblue" points="1089.78,-537.128 1100.35,-536.396 1091.63,-530.377 1089.78,-537.128"/>
</g>
<!-- Node19&#45;&gt;Node18 -->
<g id="edge40" class="edge"><title>Node19&#45;&gt;Node18</title>
<path fill="none" stroke="midnightblue" d="M610.751,-209C642.466,-209 676.977,-209 704.178,-209"/>
<polygon fill="midnightblue" stroke="midnightblue" points="704.224,-212.5 714.224,-209 704.223,-205.5 704.224,-212.5"/>
</g>
<!-- Node22 -->
<g id="node45" class="node"><title>Node22</title>
<a xlink:href="namespace_utils.html#a6c1d66956e07544cec585bc664b93c4d" target="_top" xlink:title="Utils::highest">
<polygon fill="white" stroke="black" points="924,-198.5 924,-219.5 998,-219.5 998,-198.5 924,-198.5"/>
<text text-anchor="middle" x="961" y="-206.5" font-family="Helvetica,sans-Serif" font-size="10.00">Utils::highest</text>
</a>
</g>
<!-- Node21&#45;&gt;Node22 -->
<g id="edge46" class="edge"><title>Node21&#45;&gt;Node22</title>
<path fill="none" stroke="midnightblue" d="M808.387,-179.51C841.246,-185.859 882.702,-193.87 914.112,-199.939"/>
<polygon fill="midnightblue" stroke="midnightblue" points="913.45,-203.376 923.933,-201.837 914.779,-196.503 913.45,-203.376"/>
</g>
<!-- Node23 -->
<g id="node47" class="node"><title>Node23</title>
<a xlink:href="namespace_utils.html#a0f28dbdddde3ce309eba6afb7d1f2785" target="_top" xlink:title="Utils::within">
<polygon fill="white" stroke="black" points="927,-158.5 927,-179.5 995,-179.5 995,-158.5 927,-158.5"/>
<text text-anchor="middle" x="961" y="-166.5" font-family="Helvetica,sans-Serif" font-size="10.00">Utils::within</text>
</a>
</g>
<!-- Node21&#45;&gt;Node23 -->
<g id="edge48" class="edge"><title>Node21&#45;&gt;Node23</title>
<path fill="none" stroke="midnightblue" d="M828.732,-169C858.249,-169 891.157,-169 916.764,-169"/>
<polygon fill="midnightblue" stroke="midnightblue" points="916.905,-172.5 926.905,-169 916.905,-165.5 916.905,-172.5"/>
</g>
<!-- Node24 -->
<g id="node49" class="node"><title>Node24</title>
<a xlink:href="namespace_utils.html#a30128571ef453645d7731302607a16de" target="_top" xlink:title="Utils::between">
<polygon fill="white" stroke="black" points="1103,-158.5 1103,-179.5 1183,-179.5 1183,-158.5 1103,-158.5"/>
<text text-anchor="middle" x="1143" y="-166.5" font-family="Helvetica,sans-Serif" font-size="10.00">Utils::between</text>
</a>
</g>
<!-- Node23&#45;&gt;Node24 -->
<g id="edge50" class="edge"><title>Node23&#45;&gt;Node24</title>
<path fill="none" stroke="midnightblue" d="M995.233,-169C1022.71,-169 1061.68,-169 1092.7,-169"/>
<polygon fill="midnightblue" stroke="midnightblue" points="1092.89,-172.5 1102.89,-169 1092.89,-165.5 1092.89,-172.5"/>
</g>
<!-- Node26&#45;&gt;Node23 -->
<g id="edge62" class="edge"><title>Node26&#45;&gt;Node23</title>
<path fill="none" stroke="midnightblue" d="M588.811,-61.5545C678.865,-75.7645 829.465,-100.273 854,-109 884.414,-119.819 916.322,-138.859 937.294,-152.594"/>
<polygon fill="midnightblue" stroke="midnightblue" points="935.584,-155.66 945.845,-158.298 939.469,-149.837 935.584,-155.66"/>
</g>
<!-- Node27 -->
<g id="node55" class="node"><title>Node27</title>
<a xlink:href="class_power_state_graph.html#ae3eaaaca0f80786469b8674991db9476" target="_top" xlink:title="PowerStateGraph::addItemToEdgeHistory">
<polygon fill="white" stroke="black" points="654,-40.5 654,-61.5 854,-61.5 854,-40.5 654,-40.5"/>
<text text-anchor="middle" x="754" y="-48.5" font-family="Helvetica,sans-Serif" font-size="10.00">PowerStateGraph::addItemToEdgeHistory</text>
</a>
</g>
<!-- Node26&#45;&gt;Node27 -->
<g id="edge56" class="edge"><title>Node26&#45;&gt;Node27</title>
<path fill="none" stroke="midnightblue" d="M614.763,-51C624.336,-51 634.122,-51 643.849,-51"/>
<polygon fill="midnightblue" stroke="midnightblue" points="643.952,-54.5001 653.952,-51 643.952,-47.5001 643.952,-54.5001"/>
</g>
<!-- Node28 -->
<g id="node57" class="node"><title>Node28</title>
<a xlink:href="class_power_state_graph.html#a6de44e31afe85bf0ee18dc09a7be329c" target="_top" xlink:title="Check if edge list a and edge list b are equal.">
<polygon fill="white" stroke="black" points="663,-0.5 663,-21.5 845,-21.5 845,-0.5 663,-0.5"/>
<text text-anchor="middle" x="754" y="-8.5" font-family="Helvetica,sans-Serif" font-size="10.00">PowerStateGraph::edgeListsAreEqual</text>
</a>
</g>
<!-- Node26&#45;&gt;Node28 -->
<g id="edge58" class="edge"><title>Node26&#45;&gt;Node28</title>
<path fill="none" stroke="midnightblue" d="M582.218,-40.4905C612.999,-35.2062 650.483,-28.7711 682.573,-23.2622"/>
<polygon fill="midnightblue" stroke="midnightblue" points="683.523,-26.6503 692.787,-21.5087 682.339,-19.7512 683.523,-26.6503"/>
</g>
<!-- Node29 -->
<g id="node59" class="node"><title>Node29</title>
<a xlink:href="namespace_utils.html#a297beaecb52c2c24b05b9666d080bb7e" target="_top" xlink:title="Returns true if a and b are the same sign. Zero is assumed to be positive.">
<polygon fill="white" stroke="black" points="711,-118.5 711,-139.5 797,-139.5 797,-118.5 711,-118.5"/>
<text text-anchor="middle" x="754" y="-126.5" font-family="Helvetica,sans-Serif" font-size="10.00">Utils::sameSign</text>
</a>
</g>
<!-- Node26&#45;&gt;Node29 -->
<g id="edge60" class="edge"><title>Node26&#45;&gt;Node29</title>
<path fill="none" stroke="midnightblue" d="M593.985,-61.559C602.315,-64.0645 610.498,-67.1645 618,-71 637.326,-80.881 634.884,-93.7188 654,-104 668.351,-111.718 685.144,-117.109 700.826,-120.851"/>
<polygon fill="midnightblue" stroke="midnightblue" points="700.416,-124.345 710.935,-123.08 701.923,-117.509 700.416,-124.345"/>
</g>
<!-- Node31 -->
<g id="node64" class="node"><title>Node31</title>
<a xlink:href="class_power_state_graph.html#a7420e492ce4608c1a4dbba027af116c0" target="_top" xlink:title="Find the vertex statistically most similarto stat.">
<polygon fill="white" stroke="black" points="664,-238.5 664,-259.5 844,-259.5 844,-238.5 664,-238.5"/>
<text text-anchor="middle" x="754" y="-246.5" font-family="Helvetica,sans-Serif" font-size="10.00">PowerStateGraph::mostSimilarVertex</text>
</a>
</g>
<!-- Node30&#45;&gt;Node31 -->
<g id="edge66" class="edge"><title>Node30&#45;&gt;Node31</title>
<path fill="none" stroke="midnightblue" d="M590.221,-356.475C599.755,-353.952 609.263,-350.838 618,-347 664.203,-326.706 710.211,-288.943 735.091,-266.686"/>
<polygon fill="midnightblue" stroke="midnightblue" points="737.642,-269.096 742.688,-259.78 732.934,-263.916 737.642,-269.096"/>
</g>
<!-- Node31&#45;&gt;Node22 -->
<g id="edge68" class="edge"><title>Node31&#45;&gt;Node22</title>
<path fill="none" stroke="midnightblue" d="M808.387,-238.49C841.246,-232.141 882.702,-224.13 914.112,-218.061"/>
<polygon fill="midnightblue" stroke="midnightblue" points="914.779,-221.497 923.933,-216.163 913.45,-214.624 914.779,-221.497"/>
</g>
<!-- Node31&#45;&gt;Node23 -->
<g id="edge72" class="edge"><title>Node31&#45;&gt;Node23</title>
<path fill="none" stroke="midnightblue" d="M832.485,-238.415C840.002,-235.905 847.308,-232.811 854,-229 874.784,-217.164 869.689,-201.629 890,-189 898.233,-183.881 907.805,-180.041 917.205,-177.17"/>
<polygon fill="midnightblue" stroke="midnightblue" points="918.157,-180.538 926.875,-174.517 916.305,-173.788 918.157,-180.538"/>
</g>
<!-- Node32 -->
<g id="node67" class="node"><title>Node32</title>
<a xlink:href="struct_statistic.html#a2809624bf38cbe0817c3c5e3c2639c71" target="_top" xlink:title="A two&#45;sided Student T&#45;Test.">
<polygon fill="white" stroke="black" points="920.5,-238.5 920.5,-259.5 1001.5,-259.5 1001.5,-238.5 920.5,-238.5"/>
<text text-anchor="middle" x="961" y="-246.5" font-family="Helvetica,sans-Serif" font-size="10.00">Statistic::tTest</text>
</a>
</g>
<!-- Node31&#45;&gt;Node32 -->
<g id="edge70" class="edge"><title>Node31&#45;&gt;Node32</title>
<path fill="none" stroke="midnightblue" d="M844.191,-249C866.829,-249 890.33,-249 910.266,-249"/>
<polygon fill="midnightblue" stroke="midnightblue" points="910.343,-252.5 920.343,-249 910.343,-245.5 910.343,-252.5"/>
</g>
</g>
</svg>
