<?xml version="1.0" encoding="UTF-8" standalone="no"?>
<!DOCTYPE svg PUBLIC "-//W3C//DTD SVG 1.1//EN"
 "http://www.w3.org/Graphics/SVG/1.1/DTD/svg11.dtd">
<!-- Generated by graphviz version 2.26.3 (20100126.1600)
 -->
<!-- Title: G Pages: 1 -->
<svg width="980pt" height="250pt"
 viewBox="0.00 0.00 980.00 250.00" xmlns="http://www.w3.org/2000/svg" xmlns:xlink="http://www.w3.org/1999/xlink">
<g id="graph1" class="graph" transform="scale(1 1) rotate(0) translate(4 246)">
<title>G</title>
<polygon fill="white" stroke="white" points="-4,5 -4,-246 977,-246 977,5 -4,5"/>
<!-- Node1 -->
<g id="node1" class="node"><title>Node1</title>
<polygon fill="#bfbfbf" stroke="black" points="0.5,-130.5 0.5,-151.5 157.5,-151.5 157.5,-130.5 0.5,-130.5"/>
<text text-anchor="middle" x="79" y="-138.5" font-family="Helvetica,sans-Serif" font-size="10.00">PowerStateGraph::updateEdges</text>
</g>
<!-- Node2 -->
<g id="node3" class="node"><title>Node2</title>
<a xlink:href="struct_signature_1_1_spike.html#ad5c457fd1b72cd723bdf89f715f34abd" target="_top" xlink:title="Signature::Spike::compareIndexAsc">
<polygon fill="white" stroke="black" points="197.5,-170.5 197.5,-191.5 370.5,-191.5 370.5,-170.5 197.5,-170.5"/>
<text text-anchor="middle" x="284" y="-178.5" font-family="Helvetica,sans-Serif" font-size="10.00">Signature::Spike::compareIndexAsc</text>
</a>
</g>
<!-- Node1&#45;&gt;Node2 -->
<g id="edge2" class="edge"><title>Node1&#45;&gt;Node2</title>
<path fill="none" stroke="midnightblue" d="M132.861,-151.51C159.592,-156.725 192.067,-163.062 220.054,-168.523"/>
<polygon fill="midnightblue" stroke="midnightblue" points="219.658,-172.011 230.143,-170.491 220.998,-165.141 219.658,-172.011"/>
</g>
<!-- Node3 -->
<g id="node5" class="node"><title>Node3</title>
<a xlink:href="class_signature.html#a02acc8e9f1ceb1af2908807eb1526fcd" target="_top" xlink:title="Takes the gradient of this Signature, then merges gradient values with the same sign, then removes transient spikes, then sorts by value.">
<polygon fill="white" stroke="black" points="218.5,-130.5 218.5,-151.5 349.5,-151.5 349.5,-130.5 218.5,-130.5"/>
<text text-anchor="middle" x="284" y="-138.5" font-family="Helvetica,sans-Serif" font-size="10.00">Signature::getDeltaSpikes</text>
</a>
</g>
<!-- Node1&#45;&gt;Node3 -->
<g id="edge4" class="edge"><title>Node1&#45;&gt;Node3</title>
<path fill="none" stroke="midnightblue" d="M157.672,-141C174.223,-141 191.65,-141 208.097,-141"/>
<polygon fill="midnightblue" stroke="midnightblue" points="208.194,-144.5 218.194,-141 208.194,-137.5 208.194,-144.5"/>
</g>
<!-- Node12 -->
<g id="node24" class="node"><title>Node12</title>
<a xlink:href="class_power_state_graph.html#a7420e492ce4608c1a4dbba027af116c0" target="_top" xlink:title="Find the vertex statistically most similarto stat.">
<polygon fill="white" stroke="black" points="194,-70.5 194,-91.5 374,-91.5 374,-70.5 194,-70.5"/>
<text text-anchor="middle" x="284" y="-78.5" font-family="Helvetica,sans-Serif" font-size="10.00">PowerStateGraph::mostSimilarVertex</text>
</a>
</g>
<!-- Node1&#45;&gt;Node12 -->
<g id="edge24" class="edge"><title>Node1&#45;&gt;Node12</title>
<path fill="none" stroke="midnightblue" d="M115.178,-130.411C149.325,-120.417 200.68,-105.386 237.78,-94.5279"/>
<polygon fill="midnightblue" stroke="midnightblue" points="239.225,-97.7517 247.839,-91.5836 237.259,-91.0335 239.225,-97.7517"/>
</g>
<!-- Node4 -->
<g id="node7" class="node"><title>Node4</title>
<a xlink:href="struct_signature_1_1_spike.html#a0345ed985cbc94883286755c47ab0d63" target="_top" xlink:title="Comparison function. Useful for sorting lists of spikes into descending order of absolute magnitude...">
<polygon fill="white" stroke="black" points="410.5,-200.5 410.5,-221.5 607.5,-221.5 607.5,-200.5 410.5,-200.5"/>
<text text-anchor="middle" x="509" y="-208.5" font-family="Helvetica,sans-Serif" font-size="10.00">Signature::Spike::compareAbsValueDesc</text>
</a>
</g>
<!-- Node3&#45;&gt;Node4 -->
<g id="edge6" class="edge"><title>Node3&#45;&gt;Node4</title>
<path fill="none" stroke="midnightblue" d="M349.186,-151.586C357.753,-154.095 366.243,-157.188 374,-161 392.693,-170.185 391.219,-181.996 410,-191 414.991,-193.392 420.255,-195.499 425.651,-197.354"/>
<polygon fill="midnightblue" stroke="midnightblue" points="424.884,-200.781 435.473,-200.428 426.975,-194.101 424.884,-200.781"/>
</g>
<!-- Node5 -->
<g id="node9" class="node"><title>Node5</title>
<a xlink:href="class_signature.html#a6bf289b7aa40eb2791d13d8669089953" target="_top" xlink:title="Merge consecutive spikes of the same sign and then remove any spikes under 10 Watts.">
<polygon fill="white" stroke="black" points="439,-160.5 439,-181.5 579,-181.5 579,-160.5 439,-160.5"/>
<text text-anchor="middle" x="509" y="-168.5" font-family="Helvetica,sans-Serif" font-size="10.00">Signature::getMergedSpikes</text>
</a>
</g>
<!-- Node3&#45;&gt;Node5 -->
<g id="edge8" class="edge"><title>Node3&#45;&gt;Node5</title>
<path fill="none" stroke="midnightblue" d="M349.684,-149.758C374.418,-153.056 402.827,-156.844 428.743,-160.299"/>
<polygon fill="midnightblue" stroke="midnightblue" points="428.542,-163.803 438.917,-161.656 429.467,-156.865 428.542,-163.803"/>
</g>
<!-- Node11 -->
<g id="node22" class="node"><title>Node11</title>
<a xlink:href="namespace_utils.html#a64df1cf745416e01ed1b1d0618d4cdfa" target="_top" xlink:title="Compares 2 doubles. Are they within (a * tolerance) of each other?">
<polygon fill="white" stroke="black" points="459.5,-120.5 459.5,-141.5 558.5,-141.5 558.5,-120.5 459.5,-120.5"/>
<text text-anchor="middle" x="509" y="-128.5" font-family="Helvetica,sans-Serif" font-size="10.00">Utils::roughlyEqual</text>
</a>
</g>
<!-- Node3&#45;&gt;Node11 -->
<g id="edge22" class="edge"><title>Node3&#45;&gt;Node11</title>
<path fill="none" stroke="midnightblue" d="M349.684,-138.081C381.149,-136.682 418.561,-135.02 449.221,-133.657"/>
<polygon fill="midnightblue" stroke="midnightblue" points="449.507,-137.148 459.342,-133.207 449.197,-130.155 449.507,-137.148"/>
</g>
<!-- Node6 -->
<g id="node11" class="node"><title>Node6</title>
<a xlink:href="class_array.html#adeb6ee31eaa806644ce52552b8fc8bc1" target="_top" xlink:title="Array\&lt; Sample_t \&gt;::getDelta">
<polygon fill="white" stroke="black" points="644,-160.5 644,-181.5 786,-181.5 786,-160.5 644,-160.5"/>
<text text-anchor="middle" x="715" y="-168.5" font-family="Helvetica,sans-Serif" font-size="10.00">Array&lt; Sample_t &gt;::getDelta</text>
</a>
</g>
<!-- Node5&#45;&gt;Node6 -->
<g id="edge10" class="edge"><title>Node5&#45;&gt;Node6</title>
<path fill="none" stroke="midnightblue" d="M579.03,-171C596.564,-171 615.524,-171 633.561,-171"/>
<polygon fill="midnightblue" stroke="midnightblue" points="633.762,-174.5 643.762,-171 633.762,-167.5 633.762,-174.5"/>
</g>
<!-- Node6&#45;&gt;Node6 -->
<g id="edge12" class="edge"><title>Node6&#45;&gt;Node6</title>
<path fill="none" stroke="midnightblue" d="M686.082,-181.708C673.724,-190.653 683.363,-200 715,-200 735.762,-200 747.05,-195.975 748.864,-190.679"/>
<polygon fill="midnightblue" stroke="midnightblue" points="751.811,-188.775 743.918,-181.708 745.681,-192.155 751.811,-188.775"/>
</g>
<!-- Node7 -->
<g id="node14" class="node"><title>Node7</title>
<a xlink:href="class_array.html#a94bb8954df95b259c7fadf175f531b6b" target="_top" xlink:title="Array::setDeviceName">
<polygon fill="white" stroke="black" points="839,-220.5 839,-241.5 955,-241.5 955,-220.5 839,-220.5"/>
<text text-anchor="middle" x="897" y="-228.5" font-family="Helvetica,sans-Serif" font-size="10.00">Array::setDeviceName</text>
</a>
</g>
<!-- Node6&#45;&gt;Node7 -->
<g id="edge14" class="edge"><title>Node6&#45;&gt;Node7</title>
<path fill="none" stroke="midnightblue" d="M741.134,-181.582C762.647,-190.096 794.04,-202.069 822,-211 829.23,-213.309 836.908,-215.571 844.489,-217.693"/>
<polygon fill="midnightblue" stroke="midnightblue" points="843.781,-221.128 854.351,-220.396 845.631,-214.377 843.781,-221.128"/>
</g>
<!-- Node8 -->
<g id="node16" class="node"><title>Node8</title>
<a xlink:href="class_array.html#a5b752093b1b3ab4d82707115d1f41adc" target="_top" xlink:title="Array::setSize">
<polygon fill="white" stroke="black" points="857.5,-180.5 857.5,-201.5 936.5,-201.5 936.5,-180.5 857.5,-180.5"/>
<text text-anchor="middle" x="897" y="-188.5" font-family="Helvetica,sans-Serif" font-size="10.00">Array::setSize</text>
</a>
</g>
<!-- Node6&#45;&gt;Node8 -->
<g id="edge16" class="edge"><title>Node6&#45;&gt;Node8</title>
<path fill="none" stroke="midnightblue" d="M786.148,-178.818C806.589,-181.065 828.435,-183.465 847.283,-185.537"/>
<polygon fill="midnightblue" stroke="midnightblue" points="847.095,-189.037 857.418,-186.65 847.86,-182.079 847.095,-189.037"/>
</g>
<!-- Node9 -->
<g id="node18" class="node"><title>Node9</title>
<a xlink:href="class_array.html#af4cbe83b9a05e769dd54007402b9b3e1" target="_top" xlink:title="Used simply to keep tracking of smoothing parameters throughout the workflow.">
<polygon fill="white" stroke="black" points="844,-140.5 844,-161.5 950,-161.5 950,-140.5 844,-140.5"/>
<text text-anchor="middle" x="897" y="-148.5" font-family="Helvetica,sans-Serif" font-size="10.00">Array::setSmoothing</text>
</a>
</g>
<!-- Node6&#45;&gt;Node9 -->
<g id="edge18" class="edge"><title>Node6&#45;&gt;Node9</title>
<path fill="none" stroke="midnightblue" d="M786.148,-163.182C801.932,-161.447 818.554,-159.62 833.987,-157.925"/>
<polygon fill="midnightblue" stroke="midnightblue" points="834.377,-161.403 843.935,-156.831 833.613,-154.445 834.377,-161.403"/>
</g>
<!-- Node10 -->
<g id="node20" class="node"><title>Node10</title>
<a xlink:href="class_array.html#a0af1f966c6f45c8ff7949ca8b290e01a" target="_top" xlink:title="Array::setUpstreamSmoothing">
<polygon fill="white" stroke="black" points="822.5,-100.5 822.5,-121.5 971.5,-121.5 971.5,-100.5 822.5,-100.5"/>
<text text-anchor="middle" x="897" y="-108.5" font-family="Helvetica,sans-Serif" font-size="10.00">Array::setUpstreamSmoothing</text>
</a>
</g>
<!-- Node6&#45;&gt;Node10 -->
<g id="edge20" class="edge"><title>Node6&#45;&gt;Node10</title>
<path fill="none" stroke="midnightblue" d="M741.134,-160.418C762.647,-151.904 794.04,-139.931 822,-131 829.23,-128.691 836.908,-126.429 844.489,-124.307"/>
<polygon fill="midnightblue" stroke="midnightblue" points="845.631,-127.623 854.351,-121.604 843.781,-120.872 845.631,-127.623"/>
</g>
<!-- Node13 -->
<g id="node26" class="node"><title>Node13</title>
<a xlink:href="namespace_utils.html#a6c1d66956e07544cec585bc664b93c4d" target="_top" xlink:title="Utils::highest">
<polygon fill="white" stroke="black" points="472,-80.5 472,-101.5 546,-101.5 546,-80.5 472,-80.5"/>
<text text-anchor="middle" x="509" y="-88.5" font-family="Helvetica,sans-Serif" font-size="10.00">Utils::highest</text>
</a>
</g>
<!-- Node12&#45;&gt;Node13 -->
<g id="edge26" class="edge"><title>Node12&#45;&gt;Node13</title>
<path fill="none" stroke="midnightblue" d="M374.22,-85.0098C404.199,-86.3422 436.378,-87.7724 461.773,-88.901"/>
<polygon fill="midnightblue" stroke="midnightblue" points="461.714,-92.4018 471.86,-89.3493 462.025,-85.4087 461.714,-92.4018"/>
</g>
<!-- Node14 -->
<g id="node28" class="node"><title>Node14</title>
<a xlink:href="struct_statistic.html#a2809624bf38cbe0817c3c5e3c2639c71" target="_top" xlink:title="A two&#45;sided Student T&#45;Test.">
<polygon fill="white" stroke="black" points="468.5,-40.5 468.5,-61.5 549.5,-61.5 549.5,-40.5 468.5,-40.5"/>
<text text-anchor="middle" x="509" y="-48.5" font-family="Helvetica,sans-Serif" font-size="10.00">Statistic::tTest</text>
</a>
</g>
<!-- Node12&#45;&gt;Node14 -->
<g id="edge28" class="edge"><title>Node12&#45;&gt;Node14</title>
<path fill="none" stroke="midnightblue" d="M363.01,-70.4653C394.7,-66.24 430.29,-61.4946 458.397,-57.7471"/>
<polygon fill="midnightblue" stroke="midnightblue" points="458.942,-61.2054 468.392,-56.4144 458.017,-54.2668 458.942,-61.2054"/>
</g>
<!-- Node15 -->
<g id="node30" class="node"><title>Node15</title>
<a xlink:href="namespace_utils.html#a0f28dbdddde3ce309eba6afb7d1f2785" target="_top" xlink:title="Utils::within">
<polygon fill="white" stroke="black" points="475,-0.5 475,-21.5 543,-21.5 543,-0.5 475,-0.5"/>
<text text-anchor="middle" x="509" y="-8.5" font-family="Helvetica,sans-Serif" font-size="10.00">Utils::within</text>
</a>
</g>
<!-- Node12&#45;&gt;Node15 -->
<g id="edge30" class="edge"><title>Node12&#45;&gt;Node15</title>
<path fill="none" stroke="midnightblue" d="M307.244,-70.3203C332.199,-59.2018 373.225,-41.9162 410,-31 427.705,-25.7444 447.6,-21.4279 464.886,-18.1674"/>
<polygon fill="midnightblue" stroke="midnightblue" points="465.517,-21.6101 474.725,-16.3705 464.259,-14.724 465.517,-21.6101"/>
</g>
<!-- Node16 -->
<g id="node32" class="node"><title>Node16</title>
<a xlink:href="namespace_utils.html#a30128571ef453645d7731302607a16de" target="_top" xlink:title="Utils::between">
<polygon fill="white" stroke="black" points="675,-0.5 675,-21.5 755,-21.5 755,-0.5 675,-0.5"/>
<text text-anchor="middle" x="715" y="-8.5" font-family="Helvetica,sans-Serif" font-size="10.00">Utils::between</text>
</a>
</g>
<!-- Node15&#45;&gt;Node16 -->
<g id="edge32" class="edge"><title>Node15&#45;&gt;Node16</title>
<path fill="none" stroke="midnightblue" d="M543.017,-11C576.129,-11 626.846,-11 664.636,-11"/>
<polygon fill="midnightblue" stroke="midnightblue" points="664.926,-14.5001 674.926,-11 664.926,-7.5001 664.926,-14.5001"/>
</g>
</g>
</svg>
