<?xml version="1.0" encoding="UTF-8" standalone="no"?>
<!DOCTYPE svg PUBLIC "-//W3C//DTD SVG 1.1//EN"
 "http://www.w3.org/Graphics/SVG/1.1/DTD/svg11.dtd">
<!-- Generated by graphviz version 2.26.3 (20100126.1600)
 -->
<!-- Title: G Pages: 1 -->
<svg width="298pt" height="340pt"
 viewBox="0.00 0.00 298.00 340.00" xmlns="http://www.w3.org/2000/svg" xmlns:xlink="http://www.w3.org/1999/xlink">
<g id="graph1" class="graph" transform="scale(1 1) rotate(0) translate(4 336)">
<title>G</title>
<polygon fill="white" stroke="white" points="-4,5 -4,-336 295,-336 295,5 -4,5"/>
<!-- Node1 -->
<g id="node1" class="node"><title>Node1</title>
<polygon fill="#bfbfbf" stroke="black" points="115.5,-1 115.5,-103 226.5,-103 226.5,-1 115.5,-1"/>
<text text-anchor="middle" x="171" y="-90" font-family="Helvetica,sans-Serif" font-size="10.00">PowerStateSequence</text>
<polyline fill="none" stroke="black" points="115.5,-82 226.5,-82 "/>
<text text-anchor="start" x="123.5" y="-69" font-family="Helvetica,sans-Serif" font-size="10.00">&#45; deviceName</text>
<polyline fill="none" stroke="black" points="115.5,-61 226.5,-61 "/>
<text text-anchor="start" x="123.5" y="-48" font-family="Helvetica,sans-Serif" font-size="10.00">+ dumpToFile()</text>
<text text-anchor="start" x="123.5" y="-35" font-family="Helvetica,sans-Serif" font-size="10.00">+ setDeviceName()</text>
<text text-anchor="start" x="123.5" y="-22" font-family="Helvetica,sans-Serif" font-size="10.00">+ plotGraph()</text>
<text text-anchor="start" x="123.5" y="-9" font-family="Helvetica,sans-Serif" font-size="10.00">+ getBaseFilename()</text>
</g>
<!-- Node2 -->
<g id="node2" class="node"><title>Node2</title>
<a xlink:title="STL class.">
<polygon fill="white" stroke="#bfbfbf" points="-0.5,-154.5 -0.5,-217.5 180.5,-217.5 180.5,-154.5 -0.5,-154.5"/>
<text text-anchor="middle" x="90" y="-204.5" font-family="Helvetica,sans-Serif" font-size="10.00">std::list&lt; PowerStateSequenceItem &gt;</text>
<polyline fill="none" stroke="#bfbfbf" points="-0.5,-196.5 180.5,-196.5 "/>
<text text-anchor="start" x="7.5" y="-183.5" font-family="Helvetica,sans-Serif" font-size="10.00">&#45; elements</text>
<polyline fill="none" stroke="#bfbfbf" points="-0.5,-175.5 180.5,-175.5 "/>
<text text-anchor="middle" x="90" y="-162.5" font-family="Helvetica,sans-Serif" font-size="10.00"> </text>
</a>
</g>
<!-- Node2&#45;&gt;Node1 -->
<g id="edge2" class="edge"><title>Node2&#45;&gt;Node1</title>
<path fill="none" stroke="midnightblue" d="M114.578,-145.341C122.608,-132.055 131.633,-117.126 140.07,-103.169"/>
<polygon fill="none" stroke="midnightblue" points="111.374,-143.875 109.196,-154.244 117.364,-147.496 111.374,-143.875"/>
</g>
<!-- Node3 -->
<g id="node4" class="node"><title>Node3</title>
<polygon fill="white" stroke="#bfbfbf" points="75.5,-268.5 75.5,-331.5 104.5,-331.5 104.5,-268.5 75.5,-268.5"/>
<text text-anchor="middle" x="90" y="-318.5" font-family="Helvetica,sans-Serif" font-size="10.00">T</text>
<polyline fill="none" stroke="#bfbfbf" points="75.5,-310.5 104.5,-310.5 "/>
<text text-anchor="middle" x="90" y="-297.5" font-family="Helvetica,sans-Serif" font-size="10.00"> </text>
<polyline fill="none" stroke="#bfbfbf" points="75.5,-289.5 104.5,-289.5 "/>
<text text-anchor="middle" x="90" y="-276.5" font-family="Helvetica,sans-Serif" font-size="10.00"> </text>
</g>
<!-- Node3&#45;&gt;Node2 -->
<g id="edge4" class="edge"><title>Node3&#45;&gt;Node2</title>
<path fill="none" stroke="#9a32cd" stroke-dasharray="5,2" d="M90,-257.866C90,-244.538 90,-230.043 90,-217.585"/>
<polygon fill="#9a32cd" stroke="#9a32cd" points="90,-268.245 85.5001,-258.245 90,-263.245 90.0001,-258.245 90.0001,-258.245 90.0001,-258.245 90,-263.245 94.5001,-258.245 90,-268.245 90,-268.245"/>
<text text-anchor="middle" x="110" y="-240.5" font-family="Helvetica,sans-Serif" font-size="10.00">elements</text>
</g>
<!-- Node4 -->
<g id="node6" class="node"><title>Node4</title>
<a xlink:title="STL class.">
<polygon fill="white" stroke="#bfbfbf" points="198,-154.5 198,-217.5 258,-217.5 258,-154.5 198,-154.5"/>
<text text-anchor="middle" x="228" y="-204.5" font-family="Helvetica,sans-Serif" font-size="10.00">std::string</text>
<polyline fill="none" stroke="#bfbfbf" points="198,-196.5 258,-196.5 "/>
<text text-anchor="middle" x="228" y="-183.5" font-family="Helvetica,sans-Serif" font-size="10.00"> </text>
<polyline fill="none" stroke="#bfbfbf" points="198,-175.5 258,-175.5 "/>
<text text-anchor="middle" x="228" y="-162.5" font-family="Helvetica,sans-Serif" font-size="10.00"> </text>
</a>
</g>
<!-- Node4&#45;&gt;Node1 -->
<g id="edge6" class="edge"><title>Node4&#45;&gt;Node1</title>
<path fill="none" stroke="#9a32cd" stroke-dasharray="5,2" d="M210.541,-144.957C204.931,-131.768 198.646,-116.992 192.766,-103.169"/>
<polygon fill="#9a32cd" stroke="#9a32cd" points="214.492,-154.244 206.436,-146.803 212.535,-149.643 210.577,-145.042 210.577,-145.042 210.577,-145.042 212.535,-149.643 214.718,-143.28 214.492,-154.244 214.492,-154.244"/>
<text text-anchor="middle" x="233.5" y="-126.5" font-family="Helvetica,sans-Serif" font-size="10.00">deviceName</text>
</g>
<!-- Node5 -->
<g id="node8" class="node"><title>Node5</title>
<a xlink:title="STL class.">
<polygon fill="white" stroke="#bfbfbf" points="165.5,-268.5 165.5,-331.5 290.5,-331.5 290.5,-268.5 165.5,-268.5"/>
<text text-anchor="middle" x="228" y="-318.5" font-family="Helvetica,sans-Serif" font-size="10.00">std::basic_string&lt; char &gt;</text>
<polyline fill="none" stroke="#bfbfbf" points="165.5,-310.5 290.5,-310.5 "/>
<text text-anchor="middle" x="228" y="-297.5" font-family="Helvetica,sans-Serif" font-size="10.00"> </text>
<polyline fill="none" stroke="#bfbfbf" points="165.5,-289.5 290.5,-289.5 "/>
<text text-anchor="middle" x="228" y="-276.5" font-family="Helvetica,sans-Serif" font-size="10.00"> </text>
</a>
</g>
<!-- Node5&#45;&gt;Node4 -->
<g id="edge8" class="edge"><title>Node5&#45;&gt;Node4</title>
<path fill="none" stroke="midnightblue" d="M228,-257.866C228,-244.538 228,-230.043 228,-217.585"/>
<polygon fill="none" stroke="midnightblue" points="224.5,-258.245 228,-268.245 231.5,-258.245 224.5,-258.245"/>
</g>
</g>
</svg>
