<?xml version="1.0" encoding="UTF-8" standalone="no"?>
<!DOCTYPE svg PUBLIC "-//W3C//DTD SVG 1.1//EN"
 "http://www.w3.org/Graphics/SVG/1.1/DTD/svg11.dtd">
<!-- Generated by graphviz version 2.26.3 (20100126.1600)
 -->
<!-- Title: G Pages: 1 -->
<svg width="1190pt" height="170pt"
 viewBox="0.00 0.00 1190.00 170.00" xmlns="http://www.w3.org/2000/svg" xmlns:xlink="http://www.w3.org/1999/xlink">
<g id="graph1" class="graph" transform="scale(1 1) rotate(0) translate(4 166)">
<title>G</title>
<polygon fill="white" stroke="white" points="-4,5 -4,-166 1187,-166 1187,5 -4,5"/>
<!-- Node1 -->
<g id="node1" class="node"><title>Node1</title>
<polygon fill="#bfbfbf" stroke="black" points="0,-60.5 0,-81.5 116,-81.5 116,-60.5 0,-60.5"/>
<text text-anchor="middle" x="58" y="-68.5" font-family="Helvetica,sans-Serif" font-size="10.00">Array::setDeviceName</text>
</g>
<!-- Node2 -->
<g id="node3" class="node"><title>Node2</title>
<a xlink:href="class_array.html#adeb6ee31eaa806644ce52552b8fc8bc1" target="_top" xlink:title="Array\&lt; Sample_t \&gt;::getDelta">
<polygon fill="white" stroke="black" points="153,-80.5 153,-101.5 295,-101.5 295,-80.5 153,-80.5"/>
<text text-anchor="middle" x="224" y="-88.5" font-family="Helvetica,sans-Serif" font-size="10.00">Array&lt; Sample_t &gt;::getDelta</text>
</a>
</g>
<!-- Node1&#45;&gt;Node2 -->
<g id="edge2" class="edge"><title>Node1&#45;&gt;Node2</title>
<path fill="none" stroke="midnightblue" d="M126.231,-79.2206C135.006,-80.2779 144.009,-81.3625 152.83,-82.4253"/>
<polygon fill="midnightblue" stroke="midnightblue" points="126.406,-75.7164 116.059,-77.995 125.568,-82.6662 126.406,-75.7164"/>
</g>
<!-- Node10 -->
<g id="node19" class="node"><title>Node10</title>
<a xlink:href="class_array.html#a6603ebeb68bb0c1b493f0808d5694498" target="_top" xlink:title="Returns a rolling average of same length as the original array.">
<polygon fill="white" stroke="black" points="152.5,-40.5 152.5,-61.5 295.5,-61.5 295.5,-40.5 152.5,-40.5"/>
<text text-anchor="middle" x="224" y="-48.5" font-family="Helvetica,sans-Serif" font-size="10.00">Array&lt; Sample_t &gt;::rollingAv</text>
</a>
</g>
<!-- Node1&#45;&gt;Node10 -->
<g id="edge18" class="edge"><title>Node1&#45;&gt;Node10</title>
<path fill="none" stroke="midnightblue" d="M126.069,-62.7989C134.703,-61.7587 143.56,-60.6916 152.25,-59.6446"/>
<polygon fill="midnightblue" stroke="midnightblue" points="125.568,-59.3338 116.059,-64.005 126.406,-66.2836 125.568,-59.3338"/>
</g>
<!-- Node3 -->
<g id="node5" class="node"><title>Node3</title>
<a xlink:href="class_signature.html#a6bf289b7aa40eb2791d13d8669089953" target="_top" xlink:title="Merge consecutive spikes of the same sign and then remove any spikes under 10 Watts.">
<polygon fill="white" stroke="black" points="356,-120.5 356,-141.5 496,-141.5 496,-120.5 356,-120.5"/>
<text text-anchor="middle" x="426" y="-128.5" font-family="Helvetica,sans-Serif" font-size="10.00">Signature::getMergedSpikes</text>
</a>
</g>
<!-- Node2&#45;&gt;Node3 -->
<g id="edge4" class="edge"><title>Node2&#45;&gt;Node3</title>
<path fill="none" stroke="midnightblue" d="M287.015,-103.478C314.592,-108.939 346.592,-115.276 372.931,-120.491"/>
<polygon fill="midnightblue" stroke="midnightblue" points="287.563,-100.019 277.073,-101.51 286.203,-106.885 287.563,-100.019"/>
</g>
<!-- Node9 -->
<g id="node17" class="node"><title>Node9</title>
<a xlink:href="class_signature.html#a3ddd7b321b4eda212b310c8462febf3f" target="_top" xlink:title="Constructor for opening a CSV file.">
<polygon fill="white" stroke="black" points="373.5,-80.5 373.5,-101.5 478.5,-101.5 478.5,-80.5 373.5,-80.5"/>
<text text-anchor="middle" x="426" y="-88.5" font-family="Helvetica,sans-Serif" font-size="10.00">Signature::Signature</text>
</a>
</g>
<!-- Node2&#45;&gt;Node9 -->
<g id="edge16" class="edge"><title>Node2&#45;&gt;Node9</title>
<path fill="none" stroke="midnightblue" d="M305.27,-91C328.156,-91 352.449,-91 373.197,-91"/>
<polygon fill="midnightblue" stroke="midnightblue" points="305.218,-87.5001 295.218,-91 305.218,-94.5001 305.218,-87.5001"/>
</g>
<!-- Node4 -->
<g id="node7" class="node"><title>Node4</title>
<a xlink:href="class_signature.html#a02acc8e9f1ceb1af2908807eb1526fcd" target="_top" xlink:title="Takes the gradient of this Signature, then merges gradient values with the same sign, then removes transient spikes, then sorts by value.">
<polygon fill="white" stroke="black" points="576.5,-120.5 576.5,-141.5 707.5,-141.5 707.5,-120.5 576.5,-120.5"/>
<text text-anchor="middle" x="642" y="-128.5" font-family="Helvetica,sans-Serif" font-size="10.00">Signature::getDeltaSpikes</text>
</a>
</g>
<!-- Node3&#45;&gt;Node4 -->
<g id="edge6" class="edge"><title>Node3&#45;&gt;Node4</title>
<path fill="none" stroke="midnightblue" d="M506.234,-131C529.298,-131 554.175,-131 576.255,-131"/>
<polygon fill="midnightblue" stroke="midnightblue" points="506.129,-127.5 496.129,-131 506.129,-134.5 506.129,-127.5"/>
</g>
<!-- Node5 -->
<g id="node9" class="node"><title>Node5</title>
<a xlink:href="class_power_state_graph.html#a90ebffe4864640182b342a814af0f0a7" target="_top" xlink:title="Update or initialise Power State Graph.">
<polygon fill="white" stroke="black" points="778.5,-140.5 778.5,-161.5 907.5,-161.5 907.5,-140.5 778.5,-140.5"/>
<text text-anchor="middle" x="843" y="-148.5" font-family="Helvetica,sans-Serif" font-size="10.00">PowerStateGraph::update</text>
</a>
</g>
<!-- Node4&#45;&gt;Node5 -->
<g id="edge8" class="edge"><title>Node4&#45;&gt;Node5</title>
<path fill="none" stroke="midnightblue" d="M717.526,-138.515C737.504,-140.503 758.887,-142.631 778.239,-144.556"/>
<polygon fill="midnightblue" stroke="midnightblue" points="717.834,-135.028 707.537,-137.521 717.141,-141.994 717.834,-135.028"/>
</g>
<!-- Node8 -->
<g id="node15" class="node"><title>Node8</title>
<a xlink:href="class_power_state_graph.html#a26384a0a6d9867d336814b70b7a22cd3" target="_top" xlink:title="Update (or create) directional edges between power states (vertices) so the edges are consistent with...">
<polygon fill="white" stroke="black" points="764.5,-100.5 764.5,-121.5 921.5,-121.5 921.5,-100.5 764.5,-100.5"/>
<text text-anchor="middle" x="843" y="-108.5" font-family="Helvetica,sans-Serif" font-size="10.00">PowerStateGraph::updateEdges</text>
</a>
</g>
<!-- Node4&#45;&gt;Node8 -->
<g id="edge14" class="edge"><title>Node4&#45;&gt;Node8</title>
<path fill="none" stroke="midnightblue" d="M717.882,-123.45C733.036,-121.942 748.986,-120.355 764.234,-118.837"/>
<polygon fill="midnightblue" stroke="midnightblue" points="717.141,-120.006 707.537,-124.479 717.834,-126.972 717.141,-120.006"/>
</g>
<!-- Node6 -->
<g id="node11" class="node"><title>Node6</title>
<a xlink:href="class_device.html#ad3d9721aca89723e22cf723149a39583" target="_top" xlink:title="Trains the powerStateGraph using signatures declared with loadSignatures(). To be called once signatu...">
<polygon fill="white" stroke="black" points="958.5,-140.5 958.5,-161.5 1107.5,-161.5 1107.5,-140.5 958.5,-140.5"/>
<text text-anchor="middle" x="1033" y="-148.5" font-family="Helvetica,sans-Serif" font-size="10.00">Device::trainPowerStateGraph</text>
</a>
</g>
<!-- Node5&#45;&gt;Node6 -->
<g id="edge10" class="edge"><title>Node5&#45;&gt;Node6</title>
<path fill="none" stroke="midnightblue" d="M917.703,-151C931.095,-151 945.051,-151 958.44,-151"/>
<polygon fill="midnightblue" stroke="midnightblue" points="917.59,-147.5 907.59,-151 917.59,-154.5 917.59,-147.5"/>
</g>
<!-- Node7 -->
<g id="node13" class="node"><title>Node7</title>
<a xlink:href="_main_8cpp.html#a0ddf1224851353fc92bfbff6f499fa97" target="_top" xlink:title="main">
<polygon fill="white" stroke="black" points="1144,-140.5 1144,-161.5 1182,-161.5 1182,-140.5 1144,-140.5"/>
<text text-anchor="middle" x="1163" y="-148.5" font-family="Helvetica,sans-Serif" font-size="10.00">main</text>
</a>
</g>
<!-- Node6&#45;&gt;Node7 -->
<g id="edge12" class="edge"><title>Node6&#45;&gt;Node7</title>
<path fill="none" stroke="midnightblue" d="M1118.02,-151C1127.57,-151 1136.49,-151 1143.82,-151"/>
<polygon fill="midnightblue" stroke="midnightblue" points="1117.87,-147.5 1107.87,-151 1117.87,-154.5 1117.87,-147.5"/>
</g>
<!-- Node11 -->
<g id="node21" class="node"><title>Node11</title>
<a xlink:href="class_signature.html#afebb6e34dcba3d828093eba1ffc7fad6" target="_top" xlink:title="Runs through signature data to find power states and stores the resulting power states in powerStates...">
<polygon fill="white" stroke="black" points="351.5,-40.5 351.5,-61.5 500.5,-61.5 500.5,-40.5 351.5,-40.5"/>
<text text-anchor="middle" x="426" y="-48.5" font-family="Helvetica,sans-Serif" font-size="10.00">Signature::updatePowerStates</text>
</a>
</g>
<!-- Node10&#45;&gt;Node11 -->
<g id="edge20" class="edge"><title>Node10&#45;&gt;Node11</title>
<path fill="none" stroke="midnightblue" d="M305.781,-51C320.788,-51 336.384,-51 351.175,-51"/>
<polygon fill="midnightblue" stroke="midnightblue" points="305.502,-47.5001 295.502,-51 305.502,-54.5001 305.502,-47.5001"/>
</g>
<!-- Node13 -->
<g id="node25" class="node"><title>Node13</title>
<a xlink:href="class_signature.html#af94cd3aa816030f1560410e4ad6f2dcc" target="_top" xlink:title="Finding out where each &#39;powerState&#39; starts and ends.">
<polygon fill="white" stroke="black" points="332,-0.5 332,-21.5 520,-21.5 520,-0.5 332,-0.5"/>
<text text-anchor="middle" x="426" y="-8.5" font-family="Helvetica,sans-Serif" font-size="10.00">Signature::updatePowerStateSequence</text>
</a>
</g>
<!-- Node10&#45;&gt;Node13 -->
<g id="edge24" class="edge"><title>Node10&#45;&gt;Node13</title>
<path fill="none" stroke="midnightblue" d="M287.015,-38.5219C314.592,-33.061 346.592,-26.7243 372.931,-21.5087"/>
<polygon fill="midnightblue" stroke="midnightblue" points="286.203,-35.1146 277.073,-40.4905 287.563,-41.9812 286.203,-35.1146"/>
</g>
<!-- Node12 -->
<g id="node23" class="node"><title>Node12</title>
<a xlink:href="class_signature.html#ada861d4b0e402605478abc4217f35979" target="_top" xlink:title="Signature::getPowerStates">
<polygon fill="white" stroke="black" points="575,-40.5 575,-61.5 709,-61.5 709,-40.5 575,-40.5"/>
<text text-anchor="middle" x="642" y="-48.5" font-family="Helvetica,sans-Serif" font-size="10.00">Signature::getPowerStates</text>
</a>
</g>
<!-- Node11&#45;&gt;Node12 -->
<g id="edge22" class="edge"><title>Node11&#45;&gt;Node12</title>
<path fill="none" stroke="midnightblue" d="M510.665,-51C532.001,-51 554.614,-51 574.952,-51"/>
<polygon fill="midnightblue" stroke="midnightblue" points="510.637,-47.5001 500.637,-51 510.637,-54.5001 510.637,-47.5001"/>
</g>
<!-- Node14 -->
<g id="node27" class="node"><title>Node14</title>
<a xlink:href="class_signature.html#abf3dc6265e852ecb66a928c682e3eb5f" target="_top" xlink:title="Signature::getPowerStateSequence">
<polygon fill="white" stroke="black" points="556,-0.5 556,-21.5 728,-21.5 728,-0.5 556,-0.5"/>
<text text-anchor="middle" x="642" y="-8.5" font-family="Helvetica,sans-Serif" font-size="10.00">Signature::getPowerStateSequence</text>
</a>
</g>
<!-- Node13&#45;&gt;Node14 -->
<g id="edge26" class="edge"><title>Node13&#45;&gt;Node14</title>
<path fill="none" stroke="midnightblue" d="M530.129,-11C538.685,-11 547.274,-11 555.68,-11"/>
<polygon fill="midnightblue" stroke="midnightblue" points="530.112,-7.5001 520.112,-11 530.112,-14.5001 530.112,-7.5001"/>
</g>
</g>
</svg>
