<?xml version="1.0" encoding="UTF-8" standalone="no"?>
<!DOCTYPE svg PUBLIC "-//W3C//DTD SVG 1.1//EN"
 "http://www.w3.org/Graphics/SVG/1.1/DTD/svg11.dtd">
<!-- Generated by graphviz version 2.26.3 (20100126.1600)
 -->
<!-- Title: G Pages: 1 -->
<svg width="1156pt" height="345pt"
 viewBox="0.00 0.00 1156.00 345.00" xmlns="http://www.w3.org/2000/svg" xmlns:xlink="http://www.w3.org/1999/xlink">
<g id="graph1" class="graph" transform="scale(1 1) rotate(0) translate(4 341)">
<title>G</title>
<polygon fill="white" stroke="white" points="-4,5 -4,-341 1153,-341 1153,5 -4,5"/>
<!-- Node1 -->
<g id="node1" class="node"><title>Node1</title>
<polygon fill="#bfbfbf" stroke="black" points="0.5,-99.5 0.5,-120.5 155.5,-120.5 155.5,-99.5 0.5,-99.5"/>
<text text-anchor="middle" x="78" y="-107.5" font-family="Helvetica,sans-Serif" font-size="10.00">PowerStateGraph::disaggregate</text>
</g>
<!-- Node2 -->
<g id="node3" class="node"><title>Node2</title>
<a xlink:href="class_power_state_graph.html#a8c7b40b543c04d5f5b498a537093ae46" target="_top" xlink:title="PowerStateGraph::displayAndPlotFingerprintList">
<polygon fill="white" stroke="black" points="192.5,-216.5 192.5,-237.5 419.5,-237.5 419.5,-216.5 192.5,-216.5"/>
<text text-anchor="middle" x="306" y="-224.5" font-family="Helvetica,sans-Serif" font-size="10.00">PowerStateGraph::displayAndPlotFingerprintList</text>
</a>
</g>
<!-- Node1&#45;&gt;Node2 -->
<g id="edge2" class="edge"><title>Node1&#45;&gt;Node2</title>
<path fill="none" stroke="midnightblue" d="M92.9522,-120.727C114.244,-135.7 154.844,-163.143 192,-182 215.635,-193.995 243.261,-204.972 265.397,-213.08"/>
<polygon fill="midnightblue" stroke="midnightblue" points="264.239,-216.383 274.833,-216.486 266.615,-209.799 264.239,-216.383"/>
</g>
<!-- Node4 -->
<g id="node7" class="node"><title>Node4</title>
<a xlink:href="namespace_utils.html#a5f35365dae06a93f4bbf0f406a78b90b" target="_top" xlink:title="Utils::fatalError">
<polygon fill="white" stroke="black" points="809.5,-178.5 809.5,-199.5 892.5,-199.5 892.5,-178.5 809.5,-178.5"/>
<text text-anchor="middle" x="851" y="-186.5" font-family="Helvetica,sans-Serif" font-size="10.00">Utils::fatalError</text>
</a>
</g>
<!-- Node1&#45;&gt;Node4 -->
<g id="edge20" class="edge"><title>Node1&#45;&gt;Node4</title>
<path fill="none" stroke="midnightblue" d="M135.871,-120.502C153.819,-123.528 173.691,-126.644 192,-129 417.181,-157.975 687.42,-177.971 798.956,-185.583"/>
<polygon fill="midnightblue" stroke="midnightblue" points="799.033,-189.096 809.247,-186.281 799.507,-182.113 799.033,-189.096"/>
</g>
<!-- Node10 -->
<g id="node21" class="node"><title>Node10</title>
<a xlink:href="class_aggregate_data.html#ada468d155767d721c755405582d108ee" target="_top" xlink:title="Find all spikes in aggregate data which fit spikeStats.">
<polygon fill="white" stroke="black" points="787,-119.5 787,-140.5 915,-140.5 915,-119.5 787,-119.5"/>
<text text-anchor="middle" x="851" y="-127.5" font-family="Helvetica,sans-Serif" font-size="10.00">AggregateData::findSpike</text>
</a>
</g>
<!-- Node1&#45;&gt;Node10 -->
<g id="edge22" class="edge"><title>Node1&#45;&gt;Node10</title>
<path fill="none" stroke="midnightblue" d="M155.657,-112.009C304.93,-115.871 630.084,-124.284 776.686,-128.077"/>
<polygon fill="midnightblue" stroke="midnightblue" points="776.841,-131.582 786.928,-128.342 777.022,-124.585 776.841,-131.582"/>
</g>
<!-- Node15 -->
<g id="node31" class="node"><title>Node15</title>
<a xlink:href="class_aggregate_data.html#aacf47acf1ff8001aebdcdf078c551358" target="_top" xlink:title="AggregateData::getFilename">
<polygon fill="white" stroke="black" points="235.5,-80.5 235.5,-101.5 376.5,-101.5 376.5,-80.5 235.5,-80.5"/>
<text text-anchor="middle" x="306" y="-88.5" font-family="Helvetica,sans-Serif" font-size="10.00">AggregateData::getFilename</text>
</a>
</g>
<!-- Node1&#45;&gt;Node15 -->
<g id="edge32" class="edge"><title>Node1&#45;&gt;Node15</title>
<path fill="none" stroke="midnightblue" d="M155.509,-103.541C177.899,-101.675 202.388,-99.6343 224.986,-97.7512"/>
<polygon fill="midnightblue" stroke="midnightblue" points="225.546,-101.217 235.221,-96.8982 224.965,-94.2409 225.546,-101.217"/>
</g>
<!-- Node16 -->
<g id="node33" class="node"><title>Node16</title>
<a xlink:href="class_power_state_graph.html#a0478f171d51d21613746640c7415fb0b" target="_top" xlink:title="PowerStateGraph::initTraceToEnd">
<polygon fill="white" stroke="black" points="223,-40.5 223,-61.5 389,-61.5 389,-40.5 223,-40.5"/>
<text text-anchor="middle" x="306" y="-48.5" font-family="Helvetica,sans-Serif" font-size="10.00">PowerStateGraph::initTraceToEnd</text>
</a>
</g>
<!-- Node1&#45;&gt;Node16 -->
<g id="edge34" class="edge"><title>Node1&#45;&gt;Node16</title>
<path fill="none" stroke="midnightblue" d="M104.819,-99.4963C127.696,-90.8596 161.612,-78.8128 192,-71 202.913,-68.1944 214.514,-65.6583 225.979,-63.4082"/>
<polygon fill="midnightblue" stroke="midnightblue" points="226.828,-66.8097 235.999,-61.505 225.521,-59.9327 226.828,-66.8097"/>
</g>
<!-- Node22 -->
<g id="node47" class="node"><title>Node22</title>
<a xlink:href="class_power_state_graph.html#a5ef8ee81761b13f9f16b564aca228994" target="_top" xlink:title="PowerStateGraph::removeOverlapping">
<polygon fill="white" stroke="black" points="214,-0.5 214,-21.5 398,-21.5 398,-0.5 214,-0.5"/>
<text text-anchor="middle" x="306" y="-8.5" font-family="Helvetica,sans-Serif" font-size="10.00">PowerStateGraph::removeOverlapping</text>
</a>
</g>
<!-- Node1&#45;&gt;Node22 -->
<g id="edge50" class="edge"><title>Node1&#45;&gt;Node22</title>
<path fill="none" stroke="midnightblue" d="M89.617,-99.3281C109.165,-82.0119 150.573,-48.021 192,-31 198.306,-28.409 204.943,-26.1535 211.713,-24.19"/>
<polygon fill="midnightblue" stroke="midnightblue" points="212.947,-27.483 221.703,-21.5172 211.138,-20.7208 212.947,-27.483"/>
</g>
<!-- Node3 -->
<g id="node5" class="node"><title>Node3</title>
<a xlink:href="namespace_utils.html#afb991f08a33e9d7f3298e60f3bf76960" target="_top" xlink:title="Utils::openFile">
<polygon fill="white" stroke="black" points="540,-196.5 540,-217.5 620,-217.5 620,-196.5 540,-196.5"/>
<text text-anchor="middle" x="580" y="-204.5" font-family="Helvetica,sans-Serif" font-size="10.00">Utils::openFile</text>
</a>
</g>
<!-- Node2&#45;&gt;Node3 -->
<g id="edge4" class="edge"><title>Node2&#45;&gt;Node3</title>
<path fill="none" stroke="midnightblue" d="M419.82,-218.692C458.129,-215.896 498.929,-212.918 529.764,-210.667"/>
<polygon fill="midnightblue" stroke="midnightblue" points="530.102,-214.152 539.821,-209.933 529.593,-207.17 530.102,-214.152"/>
</g>
<!-- Node5 -->
<g id="node9" class="node"><title>Node5</title>
<a xlink:href="namespace_g_n_uplot.html#ab276a6d946560395f9d6caa8cb6cb640" target="_top" xlink:title="Plot a graph using GNUplot.">
<polygon fill="white" stroke="black" points="541.5,-276.5 541.5,-297.5 618.5,-297.5 618.5,-276.5 541.5,-276.5"/>
<text text-anchor="middle" x="580" y="-284.5" font-family="Helvetica,sans-Serif" font-size="10.00">GNUplot::plot</text>
</a>
</g>
<!-- Node2&#45;&gt;Node5 -->
<g id="edge8" class="edge"><title>Node2&#45;&gt;Node5</title>
<path fill="none" stroke="midnightblue" d="M341.519,-237.555C371.76,-246.28 416.463,-258.562 456,-267 480.596,-272.249 508.199,-276.828 531.107,-280.275"/>
<polygon fill="midnightblue" stroke="midnightblue" points="530.87,-283.778 541.274,-281.778 531.893,-276.853 530.87,-283.778"/>
</g>
<!-- Node9 -->
<g id="node18" class="node"><title>Node9</title>
<a xlink:href="namespace_utils.html#a48dfa27103961c7cc6082f7e68857748" target="_top" xlink:title="Utils::size_t_to_s">
<polygon fill="white" stroke="black" points="533.5,-236.5 533.5,-257.5 626.5,-257.5 626.5,-236.5 533.5,-236.5"/>
<text text-anchor="middle" x="580" y="-244.5" font-family="Helvetica,sans-Serif" font-size="10.00">Utils::size_t_to_s</text>
</a>
</g>
<!-- Node2&#45;&gt;Node9 -->
<g id="edge18" class="edge"><title>Node2&#45;&gt;Node9</title>
<path fill="none" stroke="midnightblue" d="M419.82,-235.308C455.464,-237.91 493.263,-240.669 523.187,-242.853"/>
<polygon fill="midnightblue" stroke="midnightblue" points="523.198,-246.363 533.426,-243.6 523.708,-239.382 523.198,-246.363"/>
</g>
<!-- Node3&#45;&gt;Node4 -->
<g id="edge6" class="edge"><title>Node3&#45;&gt;Node4</title>
<path fill="none" stroke="midnightblue" d="M620.279,-204.325C667.83,-201.166 747.017,-195.907 799.12,-192.446"/>
<polygon fill="midnightblue" stroke="midnightblue" points="799.416,-195.934 809.162,-191.779 798.952,-188.949 799.416,-195.934"/>
</g>
<!-- Node6 -->
<g id="node11" class="node"><title>Node6</title>
<a xlink:href="namespace_utils.html#ae7741f30cf104d6660673d7c336ef5cc" target="_top" xlink:title="Utils::fileExists">
<polygon fill="white" stroke="black" points="809.5,-237.5 809.5,-258.5 892.5,-258.5 892.5,-237.5 809.5,-237.5"/>
<text text-anchor="middle" x="851" y="-245.5" font-family="Helvetica,sans-Serif" font-size="10.00">Utils::fileExists</text>
</a>
</g>
<!-- Node5&#45;&gt;Node6 -->
<g id="edge10" class="edge"><title>Node5&#45;&gt;Node6</title>
<path fill="none" stroke="midnightblue" d="M618.54,-281.454C665.941,-274.632 746.585,-263.027 799.325,-255.437"/>
<polygon fill="midnightblue" stroke="midnightblue" points="800.083,-258.864 809.482,-253.975 799.086,-251.935 800.083,-258.864"/>
</g>
<!-- Node7 -->
<g id="node13" class="node"><title>Node7</title>
<a xlink:href="namespace_g_n_uplot.html#a1a232691d61b3e55fdcc406a3a2e9c1f" target="_top" xlink:title="Replaces all the tokens in the template file &#39;config/plotVars.inFilename&#39; with variables from...">
<polygon fill="white" stroke="black" points="778,-315.5 778,-336.5 924,-336.5 924,-315.5 778,-315.5"/>
<text text-anchor="middle" x="851" y="-323.5" font-family="Helvetica,sans-Serif" font-size="10.00">GNUplot::instantiateTemplate</text>
</a>
</g>
<!-- Node5&#45;&gt;Node7 -->
<g id="edge12" class="edge"><title>Node5&#45;&gt;Node7</title>
<path fill="none" stroke="midnightblue" d="M618.54,-292.546C657.229,-298.114 718.065,-306.869 767.798,-314.026"/>
<polygon fill="midnightblue" stroke="midnightblue" points="767.512,-317.521 777.908,-315.481 768.509,-310.592 767.512,-317.521"/>
</g>
<!-- Node8 -->
<g id="node15" class="node"><title>Node8</title>
<a xlink:href="namespace_g_n_uplot.html#a60ecface5bf85a5e3e2e1743bd266737" target="_top" xlink:title="Replace all characters which might confuse &#39;sed&#39;.">
<polygon fill="white" stroke="black" points="1025.5,-295.5 1025.5,-316.5 1120.5,-316.5 1120.5,-295.5 1025.5,-295.5"/>
<text text-anchor="middle" x="1073" y="-303.5" font-family="Helvetica,sans-Serif" font-size="10.00">GNUplot::sanitise</text>
</a>
</g>
<!-- Node5&#45;&gt;Node8 -->
<g id="edge16" class="edge"><title>Node5&#45;&gt;Node8</title>
<path fill="none" stroke="midnightblue" d="M618.685,-288.491C704.931,-291.815 913.364,-299.848 1015.14,-303.77"/>
<polygon fill="midnightblue" stroke="midnightblue" points="1015.11,-307.272 1025.24,-304.159 1015.38,-300.277 1015.11,-307.272"/>
</g>
<!-- Node7&#45;&gt;Node8 -->
<g id="edge14" class="edge"><title>Node7&#45;&gt;Node8</title>
<path fill="none" stroke="midnightblue" d="M924.306,-319.396C953.76,-316.742 987.231,-313.727 1014.95,-311.23"/>
<polygon fill="midnightblue" stroke="midnightblue" points="1015.62,-314.683 1025.27,-310.3 1015,-307.711 1015.62,-314.683"/>
</g>
<!-- Node11 -->
<g id="node23" class="node"><title>Node11</title>
<a xlink:href="namespace_utils.html#a30128571ef453645d7731302607a16de" target="_top" xlink:title="Utils::between">
<polygon fill="white" stroke="black" points="1033,-79.5 1033,-100.5 1113,-100.5 1113,-79.5 1033,-79.5"/>
<text text-anchor="middle" x="1073" y="-87.5" font-family="Helvetica,sans-Serif" font-size="10.00">Utils::between</text>
</a>
</g>
<!-- Node10&#45;&gt;Node11 -->
<g id="edge24" class="edge"><title>Node10&#45;&gt;Node11</title>
<path fill="none" stroke="midnightblue" d="M909.328,-119.49C944.604,-113.134 989.12,-105.114 1022.82,-99.0419"/>
<polygon fill="midnightblue" stroke="midnightblue" points="1023.69,-102.442 1032.91,-97.2242 1022.44,-95.5529 1023.69,-102.442"/>
</g>
<!-- Node12 -->
<g id="node25" class="node"><title>Node12</title>
<a xlink:href="struct_statistic.html#aa487c5c0322d9d1fa96affa11939b393" target="_top" xlink:title="Returns stdev if stdev &gt; mean/10, else returns mean/10.">
<polygon fill="white" stroke="black" points="1013.5,-159.5 1013.5,-180.5 1132.5,-180.5 1132.5,-159.5 1013.5,-159.5"/>
<text text-anchor="middle" x="1073" y="-167.5" font-family="Helvetica,sans-Serif" font-size="10.00">Statistic::nonZeroStdev</text>
</a>
</g>
<!-- Node10&#45;&gt;Node12 -->
<g id="edge26" class="edge"><title>Node10&#45;&gt;Node12</title>
<path fill="none" stroke="midnightblue" d="M909.328,-140.51C938.529,-145.771 974.061,-152.173 1004.55,-157.666"/>
<polygon fill="midnightblue" stroke="midnightblue" points="1004.21,-161.162 1014.68,-159.491 1005.46,-154.273 1004.21,-161.162"/>
</g>
<!-- Node13 -->
<g id="node27" class="node"><title>Node13</title>
<a xlink:href="struct_statistic.html#a16764e35873ab9b1cfbffe5668515b47" target="_top" xlink:title="The likelihood is normalised by dividing the raw likelihood by the likelihood of the distribution&amp;#39...">
<polygon fill="white" stroke="black" points="998.5,-20.5 998.5,-41.5 1147.5,-41.5 1147.5,-20.5 998.5,-20.5"/>
<text text-anchor="middle" x="1073" y="-28.5" font-family="Helvetica,sans-Serif" font-size="10.00">Statistic::normalisedLikelihood</text>
</a>
</g>
<!-- Node10&#45;&gt;Node13 -->
<g id="edge28" class="edge"><title>Node10&#45;&gt;Node13</title>
<path fill="none" stroke="midnightblue" d="M915.109,-125.777C931.141,-122.79 947.801,-117.907 962,-110 982.896,-98.3632 979.087,-84.6406 998,-70 1010.14,-60.6023 1024.88,-52.3728 1038.07,-45.926"/>
<polygon fill="midnightblue" stroke="midnightblue" points="1039.79,-48.9855 1047.34,-41.5555 1036.81,-42.6538 1039.79,-48.9855"/>
</g>
<!-- Node14 -->
<g id="node29" class="node"><title>Node14</title>
<a xlink:href="namespace_utils.html#a297beaecb52c2c24b05b9666d080bb7e" target="_top" xlink:title="Returns true if a and b are the same sign. Zero is assumed to be positive.">
<polygon fill="white" stroke="black" points="1030,-119.5 1030,-140.5 1116,-140.5 1116,-119.5 1030,-119.5"/>
<text text-anchor="middle" x="1073" y="-127.5" font-family="Helvetica,sans-Serif" font-size="10.00">Utils::sameSign</text>
</a>
</g>
<!-- Node10&#45;&gt;Node14 -->
<g id="edge30" class="edge"><title>Node10&#45;&gt;Node14</title>
<path fill="none" stroke="midnightblue" d="M915.212,-130C948.346,-130 988.289,-130 1019.7,-130"/>
<polygon fill="midnightblue" stroke="midnightblue" points="1020,-133.5 1030,-130 1020,-126.5 1020,-133.5"/>
</g>
<!-- Node17 -->
<g id="node35" class="node"><title>Node17</title>
<a xlink:href="class_power_state_graph.html#a222bc37f6c90142887eb36b4e31ab568" target="_top" xlink:title="Iterates through each path in listOfPaths to find the one with the highest likelihood.">
<polygon fill="white" stroke="black" points="502,-0.5 502,-21.5 658,-21.5 658,-0.5 502,-0.5"/>
<text text-anchor="middle" x="580" y="-8.5" font-family="Helvetica,sans-Serif" font-size="10.00">PowerStateGraph::findBestPath</text>
</a>
</g>
<!-- Node16&#45;&gt;Node17 -->
<g id="edge36" class="edge"><title>Node16&#45;&gt;Node17</title>
<path fill="none" stroke="midnightblue" d="M377.99,-40.4905C414.815,-35.1146 459.797,-28.5479 497.959,-22.9768"/>
<polygon fill="midnightblue" stroke="midnightblue" points="498.626,-26.4166 508.015,-21.5087 497.615,-19.49 498.626,-26.4166"/>
</g>
<!-- Node18 -->
<g id="node38" class="node"><title>Node18</title>
<a xlink:href="class_power_state_graph.html#a492bc7278329e94573559ec0cfdd2c7b" target="_top" xlink:title="Trace the tree downwards from vertex recursively finding every path which successfully completes (i...">
<polygon fill="white" stroke="black" points="456,-80.5 456,-101.5 704,-101.5 704,-80.5 456,-80.5"/>
<text text-anchor="middle" x="580" y="-88.5" font-family="Helvetica,sans-Serif" font-size="10.00">PowerStateGraph::findListOfPathsThroughDisagTree</text>
</a>
</g>
<!-- Node16&#45;&gt;Node18 -->
<g id="edge40" class="edge"><title>Node16&#45;&gt;Node18</title>
<path fill="none" stroke="midnightblue" d="M377.99,-61.5095C414.815,-66.8854 459.797,-73.4521 497.959,-79.0232"/>
<polygon fill="midnightblue" stroke="midnightblue" points="497.615,-82.51 508.015,-80.4913 498.626,-75.5834 497.615,-82.51"/>
</g>
<!-- Node19 -->
<g id="node40" class="node"><title>Node19</title>
<a xlink:href="class_power_state_graph.html#a0df76ca216d2d48aeb44d2bb08046e2f" target="_top" xlink:title="PowerStateGraph::traceToEnd">
<polygon fill="white" stroke="black" points="505,-40.5 505,-61.5 655,-61.5 655,-40.5 505,-40.5"/>
<text text-anchor="middle" x="580" y="-48.5" font-family="Helvetica,sans-Serif" font-size="10.00">PowerStateGraph::traceToEnd</text>
</a>
</g>
<!-- Node16&#45;&gt;Node19 -->
<g id="edge42" class="edge"><title>Node16&#45;&gt;Node19</title>
<path fill="none" stroke="midnightblue" d="M389.325,-51C422.713,-51 461.154,-51 494.734,-51"/>
<polygon fill="midnightblue" stroke="midnightblue" points="494.988,-54.5001 504.988,-51 494.988,-47.5001 494.988,-54.5001"/>
</g>
<!-- Node17&#45;&gt;Node13 -->
<g id="edge38" class="edge"><title>Node17&#45;&gt;Node13</title>
<path fill="none" stroke="midnightblue" d="M658.117,-14.1691C748.142,-17.8212 895.562,-23.8017 988.284,-27.5632"/>
<polygon fill="midnightblue" stroke="midnightblue" points="988.342,-31.0684 998.475,-27.9767 988.625,-24.0741 988.342,-31.0684"/>
</g>
<!-- Node19&#45;&gt;Node10 -->
<g id="edge46" class="edge"><title>Node19&#45;&gt;Node10</title>
<path fill="none" stroke="midnightblue" d="M655.07,-54.9531C671.871,-58.0208 689.11,-63.0072 704,-71 724.784,-82.1566 719.319,-98.6531 740,-110 751.354,-116.23 764.251,-120.576 777.135,-123.595"/>
<polygon fill="midnightblue" stroke="midnightblue" points="776.454,-127.028 786.959,-125.654 777.89,-120.177 776.454,-127.028"/>
</g>
<!-- Node20 -->
<g id="node42" class="node"><title>Node20</title>
<a xlink:href="class_power_state_graph.html#a6de44e31afe85bf0ee18dc09a7be329c" target="_top" xlink:title="Check if edge list a and edge list b are equal.">
<polygon fill="white" stroke="black" points="760,-79.5 760,-100.5 942,-100.5 942,-79.5 760,-79.5"/>
<text text-anchor="middle" x="851" y="-87.5" font-family="Helvetica,sans-Serif" font-size="10.00">PowerStateGraph::edgeListsAreEqual</text>
</a>
</g>
<!-- Node19&#45;&gt;Node20 -->
<g id="edge44" class="edge"><title>Node19&#45;&gt;Node20</title>
<path fill="none" stroke="midnightblue" d="M652.98,-61.5026C688.374,-66.5963 731.058,-72.739 767.72,-78.0151"/>
<polygon fill="midnightblue" stroke="midnightblue" points="767.494,-81.5184 777.89,-79.4787 768.491,-74.5898 767.494,-81.5184"/>
</g>
<!-- Node21 -->
<g id="node45" class="node"><title>Node21</title>
<a xlink:href="class_aggregate_data.html#a81a921c732483c6d97cbed3ac1b00366" target="_top" xlink:title="Run through the raw aggregate data from startTime to endTime to make sure that no agg data sample has...">
<polygon fill="white" stroke="black" points="740.5,-39.5 740.5,-60.5 961.5,-60.5 961.5,-39.5 740.5,-39.5"/>
<text text-anchor="middle" x="851" y="-47.5" font-family="Helvetica,sans-Serif" font-size="10.00">AggregateData::readingGoesBelowPowerState</text>
</a>
</g>
<!-- Node19&#45;&gt;Node21 -->
<g id="edge48" class="edge"><title>Node19&#45;&gt;Node21</title>
<path fill="none" stroke="midnightblue" d="M655.129,-50.7228C678.43,-50.6368 704.725,-50.5398 730.308,-50.4454"/>
<polygon fill="midnightblue" stroke="midnightblue" points="730.462,-53.9449 740.449,-50.4079 730.436,-46.945 730.462,-53.9449"/>
</g>
</g>
</svg>
