<?xml version="1.0" encoding="UTF-8" standalone="no"?>
<!DOCTYPE svg PUBLIC "-//W3C//DTD SVG 1.1//EN"
 "http://www.w3.org/Graphics/SVG/1.1/DTD/svg11.dtd">
<!-- Generated by graphviz version 2.26.3 (20100126.1600)
 -->
<!-- Title: G Pages: 1 -->
<svg width="480pt" height="30pt"
 viewBox="0.00 0.00 480.00 30.00" xmlns="http://www.w3.org/2000/svg" xmlns:xlink="http://www.w3.org/1999/xlink">
<g id="graph1" class="graph" transform="scale(1 1) rotate(0) translate(4 26)">
<title>G</title>
<polygon fill="white" stroke="white" points="-4,5 -4,-26 477,-26 477,5 -4,5"/>
<!-- Node1 -->
<g id="node1" class="node"><title>Node1</title>
<polygon fill="#bfbfbf" stroke="black" points="0.5,-0.5 0.5,-21.5 177.5,-21.5 177.5,-0.5 0.5,-0.5"/>
<text text-anchor="middle" x="89" y="-8.5" font-family="Helvetica,sans-Serif" font-size="10.00">Device::updatePowerStateSequence</text>
</g>
<!-- Node2 -->
<g id="node3" class="node"><title>Node2</title>
<a xlink:href="class_device.html#a8899e5602a83445001c75fa885e29eb5" target="_top" xlink:title="Device::getPowerStatesAndSequence">
<polygon fill="white" stroke="black" points="214,-0.5 214,-21.5 398,-21.5 398,-0.5 214,-0.5"/>
<text text-anchor="middle" x="306" y="-8.5" font-family="Helvetica,sans-Serif" font-size="10.00">Device::getPowerStatesAndSequence</text>
</a>
</g>
<!-- Node1&#45;&gt;Node2 -->
<g id="edge2" class="edge"><title>Node1&#45;&gt;Node2</title>
<path fill="none" stroke="midnightblue" d="M187.727,-11C196.419,-11 205.196,-11 213.831,-11"/>
<polygon fill="midnightblue" stroke="midnightblue" points="187.575,-7.5001 177.575,-11 187.575,-14.5001 187.575,-7.5001"/>
</g>
<!-- Node3 -->
<g id="node5" class="node"><title>Node3</title>
<a xlink:href="_main_8cpp.html#a0ddf1224851353fc92bfbff6f499fa97" target="_top" xlink:title="main">
<polygon fill="white" stroke="black" points="434,-0.5 434,-21.5 472,-21.5 472,-0.5 434,-0.5"/>
<text text-anchor="middle" x="453" y="-8.5" font-family="Helvetica,sans-Serif" font-size="10.00">main</text>
</a>
</g>
<!-- Node2&#45;&gt;Node3 -->
<g id="edge4" class="edge"><title>Node2&#45;&gt;Node3</title>
<path fill="none" stroke="midnightblue" d="M408.403,-11C417.899,-11 426.63,-11 433.801,-11"/>
<polygon fill="midnightblue" stroke="midnightblue" points="408.263,-7.5001 398.263,-11 408.263,-14.5001 408.263,-7.5001"/>
</g>
</g>
</svg>
