<?xml version="1.0" encoding="UTF-8" standalone="no"?>
<!DOCTYPE svg PUBLIC "-//W3C//DTD SVG 1.1//EN"
 "http://www.w3.org/Graphics/SVG/1.1/DTD/svg11.dtd">
<!-- Generated by graphviz version 2.26.3 (20100126.1600)
 -->
<!-- Title: G Pages: 1 -->
<svg width="718pt" height="110pt"
 viewBox="0.00 0.00 718.00 110.00" xmlns="http://www.w3.org/2000/svg" xmlns:xlink="http://www.w3.org/1999/xlink">
<g id="graph1" class="graph" transform="scale(1 1) rotate(0) translate(4 106)">
<title>G</title>
<polygon fill="white" stroke="white" points="-4,5 -4,-106 715,-106 715,5 -4,5"/>
<!-- Node1 -->
<g id="node1" class="node"><title>Node1</title>
<polygon fill="#bfbfbf" stroke="black" points="0.5,-40.5 0.5,-61.5 149.5,-61.5 149.5,-40.5 0.5,-40.5"/>
<text text-anchor="middle" x="75" y="-48.5" font-family="Helvetica,sans-Serif" font-size="10.00">Array::getUpstreamSmoothing</text>
</g>
<!-- Node2 -->
<g id="node3" class="node"><title>Node2</title>
<a xlink:href="class_array.html#ae68b00a51265644510bc23945960561e" target="_top" xlink:title="Copy from source to this object, starting at cropFront index and ignoring the last cropBack items fro...">
<polygon fill="white" stroke="black" points="196.5,-80.5 196.5,-101.5 343.5,-101.5 343.5,-80.5 196.5,-80.5"/>
<text text-anchor="middle" x="270" y="-88.5" font-family="Helvetica,sans-Serif" font-size="10.00">Array&lt; Sample_t &gt;::copyCrop</text>
</a>
</g>
<!-- Node1&#45;&gt;Node2 -->
<g id="edge2" class="edge"><title>Node1&#45;&gt;Node2</title>
<path fill="none" stroke="midnightblue" d="M136.181,-63.55C162.724,-68.9946 193.456,-75.2986 218.77,-80.4913"/>
<polygon fill="midnightblue" stroke="midnightblue" points="136.733,-60.0904 126.234,-61.5095 135.327,-66.9477 136.733,-60.0904"/>
</g>
<!-- Node4 -->
<g id="node7" class="node"><title>Node4</title>
<a xlink:href="class_signature.html#a80ab9f3c989f356fd8fd61282de3a994" target="_top" xlink:title="Signature::drawHistWithStateBars">
<polygon fill="white" stroke="black" points="186.5,-40.5 186.5,-61.5 353.5,-61.5 353.5,-40.5 186.5,-40.5"/>
<text text-anchor="middle" x="270" y="-48.5" font-family="Helvetica,sans-Serif" font-size="10.00">Signature::drawHistWithStateBars</text>
</a>
</g>
<!-- Node1&#45;&gt;Node4 -->
<g id="edge6" class="edge"><title>Node1&#45;&gt;Node4</title>
<path fill="none" stroke="midnightblue" d="M159.816,-51C168.626,-51 177.577,-51 186.374,-51"/>
<polygon fill="midnightblue" stroke="midnightblue" points="159.556,-47.5001 149.556,-51 159.556,-54.5001 159.556,-47.5001"/>
</g>
<!-- Node7 -->
<g id="node13" class="node"><title>Node7</title>
<a xlink:href="class_array.html#a72349c801957e25b2d797e31aea10164" target="_top" xlink:title="Array\&lt; Sample_t \&gt;::operator=">
<polygon fill="white" stroke="black" points="197,-0.5 197,-21.5 343,-21.5 343,-0.5 197,-0.5"/>
<text text-anchor="middle" x="270" y="-8.5" font-family="Helvetica,sans-Serif" font-size="10.00">Array&lt; Sample_t &gt;::operator=</text>
</a>
</g>
<!-- Node1&#45;&gt;Node7 -->
<g id="edge12" class="edge"><title>Node1&#45;&gt;Node7</title>
<path fill="none" stroke="midnightblue" d="M136.181,-38.45C162.724,-33.0054 193.456,-26.7014 218.77,-21.5087"/>
<polygon fill="midnightblue" stroke="midnightblue" points="135.327,-35.0523 126.234,-40.4905 136.733,-41.9096 135.327,-35.0523"/>
</g>
<!-- Node3 -->
<g id="node5" class="node"><title>Node3</title>
<a xlink:href="class_signature.html#a3ddd7b321b4eda212b310c8462febf3f" target="_top" xlink:title="Constructor for opening a CSV file.">
<polygon fill="white" stroke="black" points="412.5,-80.5 412.5,-101.5 517.5,-101.5 517.5,-80.5 412.5,-80.5"/>
<text text-anchor="middle" x="465" y="-88.5" font-family="Helvetica,sans-Serif" font-size="10.00">Signature::Signature</text>
</a>
</g>
<!-- Node2&#45;&gt;Node3 -->
<g id="edge4" class="edge"><title>Node2&#45;&gt;Node3</title>
<path fill="none" stroke="midnightblue" d="M353.735,-91C373.657,-91 394.362,-91 412.431,-91"/>
<polygon fill="midnightblue" stroke="midnightblue" points="353.721,-87.5001 343.721,-91 353.721,-94.5001 353.721,-87.5001"/>
</g>
<!-- Node5 -->
<g id="node9" class="node"><title>Node5</title>
<a xlink:href="class_signature.html#afebb6e34dcba3d828093eba1ffc7fad6" target="_top" xlink:title="Runs through signature data to find power states and stores the resulting power states in powerStates...">
<polygon fill="white" stroke="black" points="390.5,-40.5 390.5,-61.5 539.5,-61.5 539.5,-40.5 390.5,-40.5"/>
<text text-anchor="middle" x="465" y="-48.5" font-family="Helvetica,sans-Serif" font-size="10.00">Signature::updatePowerStates</text>
</a>
</g>
<!-- Node4&#45;&gt;Node5 -->
<g id="edge8" class="edge"><title>Node4&#45;&gt;Node5</title>
<path fill="none" stroke="midnightblue" d="M363.603,-51C372.541,-51 381.523,-51 390.247,-51"/>
<polygon fill="midnightblue" stroke="midnightblue" points="363.546,-47.5001 353.546,-51 363.546,-54.5001 363.546,-47.5001"/>
</g>
<!-- Node6 -->
<g id="node11" class="node"><title>Node6</title>
<a xlink:href="class_signature.html#ada861d4b0e402605478abc4217f35979" target="_top" xlink:title="Signature::getPowerStates">
<polygon fill="white" stroke="black" points="576,-40.5 576,-61.5 710,-61.5 710,-40.5 576,-40.5"/>
<text text-anchor="middle" x="643" y="-48.5" font-family="Helvetica,sans-Serif" font-size="10.00">Signature::getPowerStates</text>
</a>
</g>
<!-- Node5&#45;&gt;Node6 -->
<g id="edge10" class="edge"><title>Node5&#45;&gt;Node6</title>
<path fill="none" stroke="midnightblue" d="M549.893,-51C558.602,-51 567.363,-51 575.842,-51"/>
<polygon fill="midnightblue" stroke="midnightblue" points="549.714,-47.5001 539.714,-51 549.714,-54.5001 549.714,-47.5001"/>
</g>
</g>
</svg>
