<?xml version="1.0" encoding="UTF-8" standalone="no"?>
<!DOCTYPE svg PUBLIC "-//W3C//DTD SVG 1.1//EN"
 "http://www.w3.org/Graphics/SVG/1.1/DTD/svg11.dtd">
<!-- Generated by graphviz version 2.26.3 (20100126.1600)
 -->
<!-- Title: G Pages: 1 -->
<svg width="422pt" height="110pt"
 viewBox="0.00 0.00 422.00 110.00" xmlns="http://www.w3.org/2000/svg" xmlns:xlink="http://www.w3.org/1999/xlink">
<g id="graph1" class="graph" transform="scale(1 1) rotate(0) translate(4 106)">
<title>G</title>
<polygon fill="white" stroke="white" points="-4,5 -4,-106 419,-106 419,5 -4,5"/>
<!-- Node1 -->
<g id="node1" class="node"><title>Node1</title>
<polygon fill="#bfbfbf" stroke="black" points="0,-40.5 0,-61.5 180,-61.5 180,-40.5 0,-40.5"/>
<text text-anchor="middle" x="90" y="-48.5" font-family="Helvetica,sans-Serif" font-size="10.00">PowerStateGraph::mostSimilarVertex</text>
</g>
<!-- Node2 -->
<g id="node3" class="node"><title>Node2</title>
<a xlink:href="namespace_utils.html#a6c1d66956e07544cec585bc664b93c4d" target="_top" xlink:title="Utils::highest">
<polygon fill="white" stroke="black" points="220,-80.5 220,-101.5 294,-101.5 294,-80.5 220,-80.5"/>
<text text-anchor="middle" x="257" y="-88.5" font-family="Helvetica,sans-Serif" font-size="10.00">Utils::highest</text>
</a>
</g>
<!-- Node1&#45;&gt;Node2 -->
<g id="edge2" class="edge"><title>Node1&#45;&gt;Node2</title>
<path fill="none" stroke="midnightblue" d="M133.877,-61.5095C157.3,-67.1198 186.138,-74.0271 210.015,-79.7462"/>
<polygon fill="midnightblue" stroke="midnightblue" points="209.374,-83.1916 219.915,-82.1173 211.005,-76.3841 209.374,-83.1916"/>
</g>
<!-- Node3 -->
<g id="node5" class="node"><title>Node3</title>
<a xlink:href="struct_statistic.html#a2809624bf38cbe0817c3c5e3c2639c71" target="_top" xlink:title="A two&#45;sided Student T&#45;Test.">
<polygon fill="white" stroke="black" points="216.5,-40.5 216.5,-61.5 297.5,-61.5 297.5,-40.5 216.5,-40.5"/>
<text text-anchor="middle" x="257" y="-48.5" font-family="Helvetica,sans-Serif" font-size="10.00">Statistic::tTest</text>
</a>
</g>
<!-- Node1&#45;&gt;Node3 -->
<g id="edge4" class="edge"><title>Node1&#45;&gt;Node3</title>
<path fill="none" stroke="midnightblue" d="M180.343,-51C189.205,-51 197.964,-51 206.216,-51"/>
<polygon fill="midnightblue" stroke="midnightblue" points="206.367,-54.5001 216.367,-51 206.367,-47.5001 206.367,-54.5001"/>
</g>
<!-- Node4 -->
<g id="node7" class="node"><title>Node4</title>
<a xlink:href="namespace_utils.html#a0f28dbdddde3ce309eba6afb7d1f2785" target="_top" xlink:title="Utils::within">
<polygon fill="white" stroke="black" points="223,-0.5 223,-21.5 291,-21.5 291,-0.5 223,-0.5"/>
<text text-anchor="middle" x="257" y="-8.5" font-family="Helvetica,sans-Serif" font-size="10.00">Utils::within</text>
</a>
</g>
<!-- Node1&#45;&gt;Node4 -->
<g id="edge6" class="edge"><title>Node1&#45;&gt;Node4</title>
<path fill="none" stroke="midnightblue" d="M133.877,-40.4905C158.339,-34.6314 188.707,-27.3576 213.162,-21.5"/>
<polygon fill="midnightblue" stroke="midnightblue" points="213.993,-24.9001 222.903,-19.167 212.363,-18.0926 213.993,-24.9001"/>
</g>
<!-- Node5 -->
<g id="node9" class="node"><title>Node5</title>
<a xlink:href="namespace_utils.html#a30128571ef453645d7731302607a16de" target="_top" xlink:title="Utils::between">
<polygon fill="white" stroke="black" points="334,-0.5 334,-21.5 414,-21.5 414,-0.5 334,-0.5"/>
<text text-anchor="middle" x="374" y="-8.5" font-family="Helvetica,sans-Serif" font-size="10.00">Utils::between</text>
</a>
</g>
<!-- Node4&#45;&gt;Node5 -->
<g id="edge8" class="edge"><title>Node4&#45;&gt;Node5</title>
<path fill="none" stroke="midnightblue" d="M291.156,-11C301.276,-11 312.58,-11 323.504,-11"/>
<polygon fill="midnightblue" stroke="midnightblue" points="323.811,-14.5001 333.811,-11 323.811,-7.5001 323.811,-14.5001"/>
</g>
</g>
</svg>
