<?xml version="1.0" encoding="UTF-8" standalone="no"?>
<!DOCTYPE svg PUBLIC "-//W3C//DTD SVG 1.1//EN"
 "http://www.w3.org/Graphics/SVG/1.1/DTD/svg11.dtd">
<!-- Generated by graphviz version 2.26.3 (20100126.1600)
 -->
<!-- Title: G Pages: 1 -->
<svg width="188pt" height="212pt"
 viewBox="0.00 0.00 188.00 212.00" xmlns="http://www.w3.org/2000/svg" xmlns:xlink="http://www.w3.org/1999/xlink">
<g id="graph1" class="graph" transform="scale(1 1) rotate(0) translate(4 208)">
<title>G</title>
<polygon fill="white" stroke="white" points="-4,5 -4,-208 185,-208 185,5 -4,5"/>
<!-- Node1 -->
<g id="node1" class="node"><title>Node1</title>
<polygon fill="#bfbfbf" stroke="black" points="34.5,-1 34.5,-103 145.5,-103 145.5,-1 34.5,-1"/>
<text text-anchor="middle" x="90" y="-90" font-family="Helvetica,sans-Serif" font-size="10.00">PowerStateSequence</text>
<polyline fill="none" stroke="black" points="34.5,-82 145.5,-82 "/>
<text text-anchor="start" x="42.5" y="-69" font-family="Helvetica,sans-Serif" font-size="10.00">&#45; deviceName</text>
<polyline fill="none" stroke="black" points="34.5,-61 145.5,-61 "/>
<text text-anchor="start" x="42.5" y="-48" font-family="Helvetica,sans-Serif" font-size="10.00">+ dumpToFile()</text>
<text text-anchor="start" x="42.5" y="-35" font-family="Helvetica,sans-Serif" font-size="10.00">+ setDeviceName()</text>
<text text-anchor="start" x="42.5" y="-22" font-family="Helvetica,sans-Serif" font-size="10.00">+ plotGraph()</text>
<text text-anchor="start" x="42.5" y="-9" font-family="Helvetica,sans-Serif" font-size="10.00">+ getBaseFilename()</text>
</g>
<!-- Node2 -->
<g id="node2" class="node"><title>Node2</title>
<a xlink:title="STL class.">
<polygon fill="white" stroke="#bfbfbf" points="-0.5,-140.5 -0.5,-203.5 180.5,-203.5 180.5,-140.5 -0.5,-140.5"/>
<text text-anchor="middle" x="90" y="-190.5" font-family="Helvetica,sans-Serif" font-size="10.00">std::list&lt; PowerStateSequenceItem &gt;</text>
<polyline fill="none" stroke="#bfbfbf" points="-0.5,-182.5 180.5,-182.5 "/>
<text text-anchor="start" x="7.5" y="-169.5" font-family="Helvetica,sans-Serif" font-size="10.00">&#45; elements</text>
<polyline fill="none" stroke="#bfbfbf" points="-0.5,-161.5 180.5,-161.5 "/>
<text text-anchor="middle" x="90" y="-148.5" font-family="Helvetica,sans-Serif" font-size="10.00"> </text>
</a>
</g>
<!-- Node2&#45;&gt;Node1 -->
<g id="edge2" class="edge"><title>Node2&#45;&gt;Node1</title>
<path fill="none" stroke="midnightblue" d="M90,-130.205C90,-121.513 90,-112.259 90,-103.272"/>
<polygon fill="none" stroke="midnightblue" points="86.5001,-130.471 90,-140.471 93.5001,-130.471 86.5001,-130.471"/>
</g>
</g>
</svg>
