<?xml version="1.0" encoding="UTF-8" standalone="no"?>
<!DOCTYPE svg PUBLIC "-//W3C//DTD SVG 1.1//EN"
 "http://www.w3.org/Graphics/SVG/1.1/DTD/svg11.dtd">
<!-- Generated by graphviz version 2.26.3 (20100126.1600)
 -->
<!-- Title: G Pages: 1 -->
<svg width="1158pt" height="290pt"
 viewBox="0.00 0.00 1158.00 290.00" xmlns="http://www.w3.org/2000/svg" xmlns:xlink="http://www.w3.org/1999/xlink">
<g id="graph1" class="graph" transform="scale(1 1) rotate(0) translate(4 286)">
<title>G</title>
<polygon fill="white" stroke="white" points="-4,5 -4,-286 1155,-286 1155,5 -4,5"/>
<!-- Node1 -->
<g id="node1" class="node"><title>Node1</title>
<polygon fill="#bfbfbf" stroke="black" points="0.5,-140.5 0.5,-161.5 79.5,-161.5 79.5,-140.5 0.5,-140.5"/>
<text text-anchor="middle" x="40" y="-148.5" font-family="Helvetica,sans-Serif" font-size="10.00">Array::setSize</text>
</g>
<!-- Node2 -->
<g id="node3" class="node"><title>Node2</title>
<a xlink:href="class_array.html#a3cf712c34861f6ffac049a2a423740ef" target="_top" xlink:title="Array\&lt; Sample_t \&gt;::Array">
<polygon fill="white" stroke="black" points="126,-260.5 126,-281.5 254,-281.5 254,-260.5 126,-260.5"/>
<text text-anchor="middle" x="190" y="-268.5" font-family="Helvetica,sans-Serif" font-size="10.00">Array&lt; Sample_t &gt;::Array</text>
</a>
</g>
<!-- Node1&#45;&gt;Node2 -->
<g id="edge2" class="edge"><title>Node1&#45;&gt;Node2</title>
<path fill="none" stroke="midnightblue" d="M49.7758,-170.671C62.1017,-193.436 85.4297,-230.423 116,-251 121.63,-254.79 127.954,-257.864 134.472,-260.356"/>
<polygon fill="midnightblue" stroke="midnightblue" points="52.7697,-168.843 45.0387,-161.599 46.5645,-172.083 52.7697,-168.843"/>
</g>
<!-- Node3 -->
<g id="node5" class="node"><title>Node3</title>
<a xlink:href="class_array.html#ae68b00a51265644510bc23945960561e" target="_top" xlink:title="Copy from source to this object, starting at cropFront index and ignoring the last cropBack items fro...">
<polygon fill="white" stroke="black" points="116.5,-220.5 116.5,-241.5 263.5,-241.5 263.5,-220.5 116.5,-220.5"/>
<text text-anchor="middle" x="190" y="-228.5" font-family="Helvetica,sans-Serif" font-size="10.00">Array&lt; Sample_t &gt;::copyCrop</text>
</a>
</g>
<!-- Node1&#45;&gt;Node3 -->
<g id="edge4" class="edge"><title>Node1&#45;&gt;Node3</title>
<path fill="none" stroke="midnightblue" d="M58.1552,-168.845C72.6979,-182.22 94.2062,-200.035 116,-211 123.49,-214.768 131.775,-217.893 140.01,-220.463"/>
<polygon fill="midnightblue" stroke="midnightblue" points="60.512,-166.257 50.8351,-161.943 55.7098,-171.35 60.512,-166.257"/>
</g>
<!-- Node5 -->
<g id="node9" class="node"><title>Node5</title>
<a xlink:href="class_signature.html#a8af929317f348a75bc834499d355c49f" target="_top" xlink:title="Convert from the Signature data to a different sample period.">
<polygon fill="white" stroke="black" points="130,-180.5 130,-201.5 250,-201.5 250,-180.5 130,-180.5"/>
<text text-anchor="middle" x="190" y="-188.5" font-family="Helvetica,sans-Serif" font-size="10.00">Signature::downSample</text>
</a>
</g>
<!-- Node1&#45;&gt;Node5 -->
<g id="edge8" class="edge"><title>Node1&#45;&gt;Node5</title>
<path fill="none" stroke="midnightblue" d="M89.2329,-164.129C109.141,-169.438 131.806,-175.482 150.592,-180.491"/>
<polygon fill="midnightblue" stroke="midnightblue" points="89.9749,-160.704 79.4107,-161.51 88.1712,-167.468 89.9749,-160.704"/>
</g>
<!-- Node6 -->
<g id="node11" class="node"><title>Node6</title>
<a xlink:href="class_array.html#adeb6ee31eaa806644ce52552b8fc8bc1" target="_top" xlink:title="Array\&lt; Sample_t \&gt;::getDelta">
<polygon fill="white" stroke="black" points="119,-140.5 119,-161.5 261,-161.5 261,-140.5 119,-140.5"/>
<text text-anchor="middle" x="190" y="-148.5" font-family="Helvetica,sans-Serif" font-size="10.00">Array&lt; Sample_t &gt;::getDelta</text>
</a>
</g>
<!-- Node1&#45;&gt;Node6 -->
<g id="edge10" class="edge"><title>Node1&#45;&gt;Node6</title>
<path fill="none" stroke="midnightblue" d="M90.0168,-151C99.3119,-151 109.185,-151 118.968,-151"/>
<polygon fill="midnightblue" stroke="midnightblue" points="89.8035,-147.5 79.8034,-151 89.8034,-154.5 89.8035,-147.5"/>
</g>
<!-- Node13 -->
<g id="node26" class="node"><title>Node13</title>
<a xlink:href="class_array.html#a16b3e6c252265356859eea3843afa84c" target="_top" xlink:title="Load data from a CSV file with a single column.">
<polygon fill="white" stroke="black" points="118,-100.5 118,-121.5 262,-121.5 262,-100.5 118,-100.5"/>
<text text-anchor="middle" x="190" y="-108.5" font-family="Helvetica,sans-Serif" font-size="10.00">Array&lt; Sample_t &gt;::loadData</text>
</a>
</g>
<!-- Node1&#45;&gt;Node13 -->
<g id="edge26" class="edge"><title>Node1&#45;&gt;Node13</title>
<path fill="none" stroke="midnightblue" d="M89.2329,-137.871C109.141,-132.562 131.806,-126.518 150.592,-121.509"/>
<polygon fill="midnightblue" stroke="midnightblue" points="88.1712,-134.532 79.4107,-140.49 89.9749,-141.296 88.1712,-134.532"/>
</g>
<!-- Node14 -->
<g id="node28" class="node"><title>Node14</title>
<a xlink:href="class_array.html#a72349c801957e25b2d797e31aea10164" target="_top" xlink:title="Array\&lt; Sample_t \&gt;::operator=">
<polygon fill="white" stroke="black" points="117,-60.5 117,-81.5 263,-81.5 263,-60.5 117,-60.5"/>
<text text-anchor="middle" x="190" y="-68.5" font-family="Helvetica,sans-Serif" font-size="10.00">Array&lt; Sample_t &gt;::operator=</text>
</a>
</g>
<!-- Node1&#45;&gt;Node14 -->
<g id="edge28" class="edge"><title>Node1&#45;&gt;Node14</title>
<path fill="none" stroke="midnightblue" d="M58.1552,-133.155C72.6979,-119.78 94.2062,-101.965 116,-91 123.49,-87.2319 131.775,-84.1072 140.01,-81.5374"/>
<polygon fill="midnightblue" stroke="midnightblue" points="55.7098,-130.65 50.8351,-140.057 60.512,-135.743 55.7098,-130.65"/>
</g>
<!-- Node15 -->
<g id="node30" class="node"><title>Node15</title>
<a xlink:href="class_array.html#a6603ebeb68bb0c1b493f0808d5694498" target="_top" xlink:title="Returns a rolling average of same length as the original array.">
<polygon fill="white" stroke="black" points="118.5,-20.5 118.5,-41.5 261.5,-41.5 261.5,-20.5 118.5,-20.5"/>
<text text-anchor="middle" x="190" y="-28.5" font-family="Helvetica,sans-Serif" font-size="10.00">Array&lt; Sample_t &gt;::rollingAv</text>
</a>
</g>
<!-- Node1&#45;&gt;Node15 -->
<g id="edge30" class="edge"><title>Node1&#45;&gt;Node15</title>
<path fill="none" stroke="midnightblue" d="M49.7758,-131.329C62.1017,-108.564 85.4297,-71.5769 116,-51 121.63,-47.2101 127.954,-44.1365 134.472,-41.6442"/>
<polygon fill="midnightblue" stroke="midnightblue" points="46.5645,-129.917 45.0387,-140.401 52.7697,-133.157 46.5645,-129.917"/>
</g>
<!-- Node4 -->
<g id="node7" class="node"><title>Node4</title>
<a xlink:href="class_signature.html#a3ddd7b321b4eda212b310c8462febf3f" target="_top" xlink:title="Constructor for opening a CSV file.">
<polygon fill="white" stroke="black" points="341.5,-200.5 341.5,-221.5 446.5,-221.5 446.5,-200.5 341.5,-200.5"/>
<text text-anchor="middle" x="394" y="-208.5" font-family="Helvetica,sans-Serif" font-size="10.00">Signature::Signature</text>
</a>
</g>
<!-- Node3&#45;&gt;Node4 -->
<g id="edge6" class="edge"><title>Node3&#45;&gt;Node4</title>
<path fill="none" stroke="midnightblue" d="M273.693,-222.795C296.542,-220.555 320.657,-218.19 341.249,-216.172"/>
<polygon fill="midnightblue" stroke="midnightblue" points="273.259,-219.32 263.649,-223.78 273.942,-226.287 273.259,-219.32"/>
</g>
<!-- Node6&#45;&gt;Node4 -->
<g id="edge24" class="edge"><title>Node6&#45;&gt;Node4</title>
<path fill="none" stroke="midnightblue" d="M239.766,-164.197C247.879,-166.421 256.183,-168.742 264,-171 297.122,-180.568 334.747,-192.233 360.966,-200.491"/>
<polygon fill="midnightblue" stroke="midnightblue" points="240.579,-160.791 230.011,-161.543 238.741,-167.546 240.579,-160.791"/>
</g>
<!-- Node7 -->
<g id="node13" class="node"><title>Node7</title>
<a xlink:href="class_signature.html#a6bf289b7aa40eb2791d13d8669089953" target="_top" xlink:title="Merge consecutive spikes of the same sign and then remove any spikes under 10 Watts.">
<polygon fill="white" stroke="black" points="324,-140.5 324,-161.5 464,-161.5 464,-140.5 324,-140.5"/>
<text text-anchor="middle" x="394" y="-148.5" font-family="Helvetica,sans-Serif" font-size="10.00">Signature::getMergedSpikes</text>
</a>
</g>
<!-- Node6&#45;&gt;Node7 -->
<g id="edge12" class="edge"><title>Node6&#45;&gt;Node7</title>
<path fill="none" stroke="midnightblue" d="M271.211,-151C288.639,-151 306.914,-151 323.88,-151"/>
<polygon fill="midnightblue" stroke="midnightblue" points="271.063,-147.5 261.063,-151 271.063,-154.5 271.063,-147.5"/>
</g>
<!-- Node8 -->
<g id="node15" class="node"><title>Node8</title>
<a xlink:href="class_signature.html#a02acc8e9f1ceb1af2908807eb1526fcd" target="_top" xlink:title="Takes the gradient of this Signature, then merges gradient values with the same sign, then removes transient spikes, then sorts by value.">
<polygon fill="white" stroke="black" points="544.5,-140.5 544.5,-161.5 675.5,-161.5 675.5,-140.5 544.5,-140.5"/>
<text text-anchor="middle" x="610" y="-148.5" font-family="Helvetica,sans-Serif" font-size="10.00">Signature::getDeltaSpikes</text>
</a>
</g>
<!-- Node7&#45;&gt;Node8 -->
<g id="edge14" class="edge"><title>Node7&#45;&gt;Node8</title>
<path fill="none" stroke="midnightblue" d="M474.234,-151C497.298,-151 522.175,-151 544.255,-151"/>
<polygon fill="midnightblue" stroke="midnightblue" points="474.129,-147.5 464.129,-151 474.129,-154.5 474.129,-147.5"/>
</g>
<!-- Node9 -->
<g id="node17" class="node"><title>Node9</title>
<a xlink:href="class_power_state_graph.html#a90ebffe4864640182b342a814af0f0a7" target="_top" xlink:title="Update or initialise Power State Graph.">
<polygon fill="white" stroke="black" points="746.5,-160.5 746.5,-181.5 875.5,-181.5 875.5,-160.5 746.5,-160.5"/>
<text text-anchor="middle" x="811" y="-168.5" font-family="Helvetica,sans-Serif" font-size="10.00">PowerStateGraph::update</text>
</a>
</g>
<!-- Node8&#45;&gt;Node9 -->
<g id="edge16" class="edge"><title>Node8&#45;&gt;Node9</title>
<path fill="none" stroke="midnightblue" d="M685.526,-158.515C705.504,-160.503 726.887,-162.631 746.239,-164.556"/>
<polygon fill="midnightblue" stroke="midnightblue" points="685.834,-155.028 675.537,-157.521 685.141,-161.994 685.834,-155.028"/>
</g>
<!-- Node12 -->
<g id="node23" class="node"><title>Node12</title>
<a xlink:href="class_power_state_graph.html#a26384a0a6d9867d336814b70b7a22cd3" target="_top" xlink:title="Update (or create) directional edges between power states (vertices) so the edges are consistent with...">
<polygon fill="white" stroke="black" points="732.5,-120.5 732.5,-141.5 889.5,-141.5 889.5,-120.5 732.5,-120.5"/>
<text text-anchor="middle" x="811" y="-128.5" font-family="Helvetica,sans-Serif" font-size="10.00">PowerStateGraph::updateEdges</text>
</a>
</g>
<!-- Node8&#45;&gt;Node12 -->
<g id="edge22" class="edge"><title>Node8&#45;&gt;Node12</title>
<path fill="none" stroke="midnightblue" d="M685.882,-143.45C701.036,-141.942 716.986,-140.355 732.234,-138.837"/>
<polygon fill="midnightblue" stroke="midnightblue" points="685.141,-140.006 675.537,-144.479 685.834,-146.972 685.141,-140.006"/>
</g>
<!-- Node10 -->
<g id="node19" class="node"><title>Node10</title>
<a xlink:href="class_device.html#ad3d9721aca89723e22cf723149a39583" target="_top" xlink:title="Trains the powerStateGraph using signatures declared with loadSignatures(). To be called once signatu...">
<polygon fill="white" stroke="black" points="926.5,-160.5 926.5,-181.5 1075.5,-181.5 1075.5,-160.5 926.5,-160.5"/>
<text text-anchor="middle" x="1001" y="-168.5" font-family="Helvetica,sans-Serif" font-size="10.00">Device::trainPowerStateGraph</text>
</a>
</g>
<!-- Node9&#45;&gt;Node10 -->
<g id="edge18" class="edge"><title>Node9&#45;&gt;Node10</title>
<path fill="none" stroke="midnightblue" d="M885.703,-171C899.095,-171 913.051,-171 926.44,-171"/>
<polygon fill="midnightblue" stroke="midnightblue" points="885.59,-167.5 875.59,-171 885.59,-174.5 885.59,-167.5"/>
</g>
<!-- Node11 -->
<g id="node21" class="node"><title>Node11</title>
<a xlink:href="_main_8cpp.html#a0ddf1224851353fc92bfbff6f499fa97" target="_top" xlink:title="main">
<polygon fill="white" stroke="black" points="1112,-160.5 1112,-181.5 1150,-181.5 1150,-160.5 1112,-160.5"/>
<text text-anchor="middle" x="1131" y="-168.5" font-family="Helvetica,sans-Serif" font-size="10.00">main</text>
</a>
</g>
<!-- Node10&#45;&gt;Node11 -->
<g id="edge20" class="edge"><title>Node10&#45;&gt;Node11</title>
<path fill="none" stroke="midnightblue" d="M1086.02,-171C1095.57,-171 1104.49,-171 1111.82,-171"/>
<polygon fill="midnightblue" stroke="midnightblue" points="1085.87,-167.5 1075.87,-171 1085.87,-174.5 1085.87,-167.5"/>
</g>
<!-- Node16 -->
<g id="node32" class="node"><title>Node16</title>
<a xlink:href="class_signature.html#afebb6e34dcba3d828093eba1ffc7fad6" target="_top" xlink:title="Runs through signature data to find power states and stores the resulting power states in powerStates...">
<polygon fill="white" stroke="black" points="319.5,-40.5 319.5,-61.5 468.5,-61.5 468.5,-40.5 319.5,-40.5"/>
<text text-anchor="middle" x="394" y="-48.5" font-family="Helvetica,sans-Serif" font-size="10.00">Signature::updatePowerStates</text>
</a>
</g>
<!-- Node15&#45;&gt;Node16 -->
<g id="edge32" class="edge"><title>Node15&#45;&gt;Node16</title>
<path fill="none" stroke="midnightblue" d="M271.852,-39.0247C287.57,-40.5657 303.952,-42.1718 319.425,-43.6887"/>
<polygon fill="midnightblue" stroke="midnightblue" points="271.93,-35.5156 261.636,-38.0231 271.247,-42.4822 271.93,-35.5156"/>
</g>
<!-- Node18 -->
<g id="node36" class="node"><title>Node18</title>
<a xlink:href="class_signature.html#af94cd3aa816030f1560410e4ad6f2dcc" target="_top" xlink:title="Finding out where each &#39;powerState&#39; starts and ends.">
<polygon fill="white" stroke="black" points="300,-0.5 300,-21.5 488,-21.5 488,-0.5 300,-0.5"/>
<text text-anchor="middle" x="394" y="-8.5" font-family="Helvetica,sans-Serif" font-size="10.00">Signature::updatePowerStateSequence</text>
</a>
</g>
<!-- Node15&#45;&gt;Node18 -->
<g id="edge36" class="edge"><title>Node15&#45;&gt;Node18</title>
<path fill="none" stroke="midnightblue" d="M271.64,-22.9961C280.96,-22.0824 290.516,-21.1455 299.979,-20.2177"/>
<polygon fill="midnightblue" stroke="midnightblue" points="271.247,-19.5178 261.636,-23.9769 271.93,-26.4844 271.247,-19.5178"/>
</g>
<!-- Node17 -->
<g id="node34" class="node"><title>Node17</title>
<a xlink:href="class_signature.html#ada861d4b0e402605478abc4217f35979" target="_top" xlink:title="Signature::getPowerStates">
<polygon fill="white" stroke="black" points="543,-40.5 543,-61.5 677,-61.5 677,-40.5 543,-40.5"/>
<text text-anchor="middle" x="610" y="-48.5" font-family="Helvetica,sans-Serif" font-size="10.00">Signature::getPowerStates</text>
</a>
</g>
<!-- Node16&#45;&gt;Node17 -->
<g id="edge34" class="edge"><title>Node16&#45;&gt;Node17</title>
<path fill="none" stroke="midnightblue" d="M478.665,-51C500.001,-51 522.614,-51 542.952,-51"/>
<polygon fill="midnightblue" stroke="midnightblue" points="478.637,-47.5001 468.637,-51 478.637,-54.5001 478.637,-47.5001"/>
</g>
<!-- Node19 -->
<g id="node38" class="node"><title>Node19</title>
<a xlink:href="class_signature.html#abf3dc6265e852ecb66a928c682e3eb5f" target="_top" xlink:title="Signature::getPowerStateSequence">
<polygon fill="white" stroke="black" points="524,-0.5 524,-21.5 696,-21.5 696,-0.5 524,-0.5"/>
<text text-anchor="middle" x="610" y="-8.5" font-family="Helvetica,sans-Serif" font-size="10.00">Signature::getPowerStateSequence</text>
</a>
</g>
<!-- Node18&#45;&gt;Node19 -->
<g id="edge38" class="edge"><title>Node18&#45;&gt;Node19</title>
<path fill="none" stroke="midnightblue" d="M498.129,-11C506.685,-11 515.274,-11 523.68,-11"/>
<polygon fill="midnightblue" stroke="midnightblue" points="498.112,-7.5001 488.112,-11 498.112,-14.5001 498.112,-7.5001"/>
</g>
</g>
</svg>
