<?xml version="1.0" encoding="UTF-8" standalone="no"?>
<!DOCTYPE svg PUBLIC "-//W3C//DTD SVG 1.1//EN"
 "http://www.w3.org/Graphics/SVG/1.1/DTD/svg11.dtd">
<!-- Generated by graphviz version 2.26.3 (20100126.1600)
 -->
<!-- Title: G Pages: 1 -->
<svg width="572pt" height="190pt"
 viewBox="0.00 0.00 572.00 190.00" xmlns="http://www.w3.org/2000/svg" xmlns:xlink="http://www.w3.org/1999/xlink">
<g id="graph1" class="graph" transform="scale(1 1) rotate(0) translate(4 186)">
<title>G</title>
<polygon fill="white" stroke="white" points="-4,5 -4,-186 569,-186 569,5 -4,5"/>
<!-- Node1 -->
<g id="node1" class="node"><title>Node1</title>
<polygon fill="#bfbfbf" stroke="black" points="0.5,-80.5 0.5,-101.5 115.5,-101.5 115.5,-80.5 0.5,-80.5"/>
<text text-anchor="middle" x="58" y="-88.5" font-family="Helvetica,sans-Serif" font-size="10.00">Device::getStartTimes</text>
</g>
<!-- Node2 -->
<g id="node3" class="node"><title>Node2</title>
<a xlink:href="class_aggregate_data.html#acdd54bd1cd18c492d43ab89474b0f8bb" target="_top" xlink:title="Calculate the change between data[ i+1 ].reading and data[ i ].reading.">
<polygon fill="white" stroke="black" points="189.5,-160.5 189.5,-181.5 316.5,-181.5 316.5,-160.5 189.5,-160.5"/>
<text text-anchor="middle" x="253" y="-168.5" font-family="Helvetica,sans-Serif" font-size="10.00">AggregateData::aggDelta</text>
</a>
</g>
<!-- Node1&#45;&gt;Node2 -->
<g id="edge2" class="edge"><title>Node1&#45;&gt;Node2</title>
<path fill="none" stroke="midnightblue" d="M71.1324,-101.661C88.5473,-115.241 120.738,-138.448 152,-151 160.741,-154.51 170.163,-157.422 179.615,-159.834"/>
<polygon fill="midnightblue" stroke="midnightblue" points="178.911,-163.264 189.449,-162.17 180.529,-156.453 178.911,-163.264"/>
</g>
<!-- Node3 -->
<g id="node5" class="node"><title>Node3</title>
<a xlink:href="class_aggregate_data.html#a8f70bca861e1169bfecbf45936927506" target="_top" xlink:title="Find &#39;delta&#39;. Start searching &#39;expectedDistance&#39; away from &#39;candidateIndex&#39;. DOESN&#39;T WORK YET.">
<polygon fill="white" stroke="black" points="190.5,-120.5 190.5,-141.5 315.5,-141.5 315.5,-120.5 190.5,-120.5"/>
<text text-anchor="middle" x="253" y="-128.5" font-family="Helvetica,sans-Serif" font-size="10.00">AggregateData::findNear</text>
</a>
</g>
<!-- Node1&#45;&gt;Node3 -->
<g id="edge4" class="edge"><title>Node1&#45;&gt;Node3</title>
<path fill="none" stroke="midnightblue" d="M106.76,-101.512C121.306,-104.61 137.291,-107.979 152,-111 163.901,-113.444 176.602,-116 188.84,-118.437"/>
<polygon fill="midnightblue" stroke="midnightblue" points="188.493,-121.936 198.983,-120.45 189.855,-115.07 188.493,-121.936"/>
</g>
<!-- Node4 -->
<g id="node7" class="node"><title>Node4</title>
<a xlink:href="class_device.html#a54d749a3f88565a707388b3e5e8cf3fe" target="_top" xlink:title="Device::getSalientSpikes">
<polygon fill="white" stroke="black" points="189.5,-80.5 189.5,-101.5 316.5,-101.5 316.5,-80.5 189.5,-80.5"/>
<text text-anchor="middle" x="253" y="-88.5" font-family="Helvetica,sans-Serif" font-size="10.00">Device::getSalientSpikes</text>
</a>
</g>
<!-- Node1&#45;&gt;Node4 -->
<g id="edge6" class="edge"><title>Node1&#45;&gt;Node4</title>
<path fill="none" stroke="midnightblue" d="M115.715,-91C135.597,-91 158.142,-91 179.133,-91"/>
<polygon fill="midnightblue" stroke="midnightblue" points="179.294,-94.5001 189.294,-91 179.294,-87.5001 179.294,-94.5001"/>
</g>
<!-- Node6 -->
<g id="node11" class="node"><title>Node6</title>
<a xlink:href="class_array.html#ae16b42080e87a53fe2b76af98995111b" target="_top" xlink:title="Array::getSize">
<polygon fill="white" stroke="black" points="213.5,-40.5 213.5,-61.5 292.5,-61.5 292.5,-40.5 213.5,-40.5"/>
<text text-anchor="middle" x="253" y="-48.5" font-family="Helvetica,sans-Serif" font-size="10.00">Array::getSize</text>
</a>
</g>
<!-- Node1&#45;&gt;Node6 -->
<g id="edge10" class="edge"><title>Node1&#45;&gt;Node6</title>
<path fill="none" stroke="midnightblue" d="M106.76,-80.4885C121.306,-77.3898 137.291,-74.021 152,-71 168.675,-67.5752 186.921,-63.9307 203.262,-60.7039"/>
<polygon fill="midnightblue" stroke="midnightblue" points="204.024,-64.1212 213.159,-58.7545 202.671,-57.2531 204.024,-64.1212"/>
</g>
<!-- Node7 -->
<g id="node13" class="node"><title>Node7</title>
<a xlink:href="class_aggregate_data.html#a3c1068f43dcb228159ec5c76d355f1e8" target="_top" xlink:title="AggregateData::secondsSinceFirstSample">
<polygon fill="white" stroke="black" points="152,-0.5 152,-21.5 354,-21.5 354,-0.5 152,-0.5"/>
<text text-anchor="middle" x="253" y="-8.5" font-family="Helvetica,sans-Serif" font-size="10.00">AggregateData::secondsSinceFirstSample</text>
</a>
</g>
<!-- Node1&#45;&gt;Node7 -->
<g id="edge12" class="edge"><title>Node1&#45;&gt;Node7</title>
<path fill="none" stroke="midnightblue" d="M71.1324,-80.339C88.5473,-66.7593 120.738,-43.5516 152,-31 158.408,-28.427 165.183,-26.1751 172.067,-24.206"/>
<polygon fill="midnightblue" stroke="midnightblue" points="173.432,-27.465 182.201,-21.5189 171.638,-20.6988 173.432,-27.465"/>
</g>
<!-- Node5 -->
<g id="node9" class="node"><title>Node5</title>
<a xlink:href="struct_signature_1_1_spike.html#ad5c457fd1b72cd723bdf89f715f34abd" target="_top" xlink:title="Signature::Spike::compareIndexAsc">
<polygon fill="white" stroke="black" points="390.5,-80.5 390.5,-101.5 563.5,-101.5 563.5,-80.5 390.5,-80.5"/>
<text text-anchor="middle" x="477" y="-88.5" font-family="Helvetica,sans-Serif" font-size="10.00">Signature::Spike::compareIndexAsc</text>
</a>
</g>
<!-- Node4&#45;&gt;Node5 -->
<g id="edge8" class="edge"><title>Node4&#45;&gt;Node5</title>
<path fill="none" stroke="midnightblue" d="M316.59,-91C336.354,-91 358.608,-91 380.106,-91"/>
<polygon fill="midnightblue" stroke="midnightblue" points="380.251,-94.5001 390.251,-91 380.25,-87.5001 380.251,-94.5001"/>
</g>
</g>
</svg>
