<?xml version="1.0" encoding="UTF-8" standalone="no"?>
<!DOCTYPE svg PUBLIC "-//W3C//DTD SVG 1.1//EN"
 "http://www.w3.org/Graphics/SVG/1.1/DTD/svg11.dtd">
<!-- Generated by graphviz version 2.26.3 (20100126.1600)
 -->
<!-- Title: G Pages: 1 -->
<svg width="742pt" height="2492pt"
 viewBox="0.00 0.00 742.49 2492.00" xmlns="http://www.w3.org/2000/svg" xmlns:xlink="http://www.w3.org/1999/xlink">
<g id="graph1" class="graph" transform="scale(1 1) rotate(0) translate(4 2488)">
<title>G</title>
<polygon fill="white" stroke="white" points="-4,5 -4,-2488 739.494,-2488 739.494,5 -4,5"/>
<!-- Node1 -->
<g id="node1" class="node"><title>Node1</title>
<polygon fill="#bfbfbf" stroke="black" points="242.748,-0.5 242.748,-297.5 406.748,-297.5 406.748,-0.5 242.748,-0.5"/>
<text text-anchor="middle" x="324.748" y="-284.5" font-family="Helvetica,sans-Serif" font-size="10.00">AggregateData</text>
<polyline fill="none" stroke="black" points="242.748,-276.5 406.748,-276.5 "/>
<text text-anchor="start" x="250.748" y="-263.5" font-family="Helvetica,sans-Serif" font-size="10.00">&#45; samplePeriod</text>
<text text-anchor="start" x="250.748" y="-250.5" font-family="Helvetica,sans-Serif" font-size="10.00">&#45; aggDataFilename</text>
<polyline fill="none" stroke="black" points="242.748,-242.5 406.748,-242.5 "/>
<text text-anchor="start" x="250.748" y="-229.5" font-family="Helvetica,sans-Serif" font-size="10.00">+ aggDelta()</text>
<text text-anchor="start" x="250.748" y="-216.5" font-family="Helvetica,sans-Serif" font-size="10.00">+ loadCurrentCostData()</text>
<text text-anchor="start" x="250.748" y="-203.5" font-family="Helvetica,sans-Serif" font-size="10.00">+ secondsSinceFirstSample()</text>
<text text-anchor="start" x="250.748" y="-190.5" font-family="Helvetica,sans-Serif" font-size="10.00">+ getSamplePeriod()</text>
<text text-anchor="start" x="250.748" y="-177.5" font-family="Helvetica,sans-Serif" font-size="10.00">+ getFilename()</text>
<text text-anchor="start" x="250.748" y="-164.5" font-family="Helvetica,sans-Serif" font-size="10.00">+ findSpike()</text>
<text text-anchor="start" x="250.748" y="-151.5" font-family="Helvetica,sans-Serif" font-size="10.00">+ findTime()</text>
<text text-anchor="start" x="250.748" y="-138.5" font-family="Helvetica,sans-Serif" font-size="10.00">+ readingGoesBelowPowerState()</text>
<text text-anchor="start" x="250.748" y="-125.5" font-family="Helvetica,sans-Serif" font-size="10.00">+ findNear()</text>
<text text-anchor="start" x="250.748" y="-112.5" font-family="Helvetica,sans-Serif" font-size="10.00">&#45; checkStartAndEndTimes()</text>
<text text-anchor="start" x="250.748" y="-99.5" font-family="Helvetica,sans-Serif" font-size="10.00">* loadCurrentCostData()</text>
<text text-anchor="start" x="250.748" y="-86.5" font-family="Helvetica,sans-Serif" font-size="10.00">* secondsSinceFirstSample()</text>
<text text-anchor="start" x="250.748" y="-73.5" font-family="Helvetica,sans-Serif" font-size="10.00">* getSamplePeriod()</text>
<text text-anchor="start" x="250.748" y="-60.5" font-family="Helvetica,sans-Serif" font-size="10.00">* getFilename()</text>
<text text-anchor="start" x="250.748" y="-47.5" font-family="Helvetica,sans-Serif" font-size="10.00">* findSpike()</text>
<text text-anchor="start" x="250.748" y="-34.5" font-family="Helvetica,sans-Serif" font-size="10.00">* findTime()</text>
<text text-anchor="start" x="250.748" y="-21.5" font-family="Helvetica,sans-Serif" font-size="10.00">* readingGoesBelowPowerState()</text>
<text text-anchor="start" x="250.748" y="-8.5" font-family="Helvetica,sans-Serif" font-size="10.00">* findNear()</text>
</g>
<!-- Node2 -->
<g id="node2" class="node"><title>Node2</title>
<a xlink:href="class_array.html" target="_top" xlink:title="{Array\&lt; AggregateSample \&gt;\n|# data\l# size\l# smoothing\l# upstreamSmoothing\l# deviceName\l|+ Array()\l+ Array()\l+ Array()\l+ Array()\l+ ~Array()\l+ operator=()\l+ operator==()\l+ operator[]()\l+ operator[]()\l+ setSize()\l+ getSize()\l+ getSmoothing()\l+ setSmoothing()\l+ getUpstreamSmoothing()\l+ setUpstreamSmoothing()\l+ setDeviceName()\l+ getDeviceName()\l+ setAllEntriesTo()\l+ dumpToFile()\l+ getSmoothedGradOfHistFilename()\l+ getBaseFilename()\l+ drawGraph()\l+ loadData()\l+ rollingAv()\l+ rollingAv()\l+ copyCrop()\l+ getNumLeadingZeros()\l+ getNumTrailingZeros()\l* HIST_GRADIENT_RA_LENGTH\l* max()\l* max()\l* descendPeak()\l* getDelta()\l* getDelta()\l* findPeaks()\l* Array()\l* Array()\l* Array()\l* Array()\l* ~Array()\l* operator=()\l* operator==()\l* operator[]()\l* operator[]()\l* setSize()\l* getSize()\l* getSmoothing()\l* setSmoothing()\l* getUpstreamSmoothing()\l* setUpstreamSmoothing()\l* setDeviceName()\l* getDeviceName()\l* setAllEntriesTo()\l* dumpToFile()\l* getSmoothedGradOfHistFilename()\l* getBaseFilename()\l* drawGraph()\l* loadData()\l* rollingAv()\l* rollingAv()\l* copyCrop()\l* getNumLeadingZeros()\l* getNumTrailingZeros()\l}">
<polygon fill="white" stroke="black" points="235.248,-336.5 235.248,-1257.5 414.248,-1257.5 414.248,-336.5 235.248,-336.5"/>
<text text-anchor="middle" x="324.748" y="-1244.5" font-family="Helvetica,sans-Serif" font-size="10.00">Array&lt; AggregateSample &gt;</text>
<polyline fill="none" stroke="black" points="235.248,-1236.5 414.248,-1236.5 "/>
<text text-anchor="start" x="243.248" y="-1223.5" font-family="Helvetica,sans-Serif" font-size="10.00"># data</text>
<text text-anchor="start" x="243.248" y="-1210.5" font-family="Helvetica,sans-Serif" font-size="10.00"># size</text>
<text text-anchor="start" x="243.248" y="-1197.5" font-family="Helvetica,sans-Serif" font-size="10.00"># smoothing</text>
<text text-anchor="start" x="243.248" y="-1184.5" font-family="Helvetica,sans-Serif" font-size="10.00"># upstreamSmoothing</text>
<text text-anchor="start" x="243.248" y="-1171.5" font-family="Helvetica,sans-Serif" font-size="10.00"># deviceName</text>
<polyline fill="none" stroke="black" points="235.248,-1163.5 414.248,-1163.5 "/>
<text text-anchor="start" x="243.248" y="-1150.5" font-family="Helvetica,sans-Serif" font-size="10.00">+ Array()</text>
<text text-anchor="start" x="243.248" y="-1137.5" font-family="Helvetica,sans-Serif" font-size="10.00">+ Array()</text>
<text text-anchor="start" x="243.248" y="-1124.5" font-family="Helvetica,sans-Serif" font-size="10.00">+ Array()</text>
<text text-anchor="start" x="243.248" y="-1111.5" font-family="Helvetica,sans-Serif" font-size="10.00">+ Array()</text>
<text text-anchor="start" x="243.248" y="-1098.5" font-family="Helvetica,sans-Serif" font-size="10.00">+ ~Array()</text>
<text text-anchor="start" x="243.248" y="-1085.5" font-family="Helvetica,sans-Serif" font-size="10.00">+ operator=()</text>
<text text-anchor="start" x="243.248" y="-1072.5" font-family="Helvetica,sans-Serif" font-size="10.00">+ operator==()</text>
<text text-anchor="start" x="243.248" y="-1059.5" font-family="Helvetica,sans-Serif" font-size="10.00">+ operator[]()</text>
<text text-anchor="start" x="243.248" y="-1046.5" font-family="Helvetica,sans-Serif" font-size="10.00">+ operator[]()</text>
<text text-anchor="start" x="243.248" y="-1033.5" font-family="Helvetica,sans-Serif" font-size="10.00">+ setSize()</text>
<text text-anchor="start" x="243.248" y="-1020.5" font-family="Helvetica,sans-Serif" font-size="10.00">+ getSize()</text>
<text text-anchor="start" x="243.248" y="-1007.5" font-family="Helvetica,sans-Serif" font-size="10.00">+ getSmoothing()</text>
<text text-anchor="start" x="243.248" y="-994.5" font-family="Helvetica,sans-Serif" font-size="10.00">+ setSmoothing()</text>
<text text-anchor="start" x="243.248" y="-981.5" font-family="Helvetica,sans-Serif" font-size="10.00">+ getUpstreamSmoothing()</text>
<text text-anchor="start" x="243.248" y="-968.5" font-family="Helvetica,sans-Serif" font-size="10.00">+ setUpstreamSmoothing()</text>
<text text-anchor="start" x="243.248" y="-955.5" font-family="Helvetica,sans-Serif" font-size="10.00">+ setDeviceName()</text>
<text text-anchor="start" x="243.248" y="-942.5" font-family="Helvetica,sans-Serif" font-size="10.00">+ getDeviceName()</text>
<text text-anchor="start" x="243.248" y="-929.5" font-family="Helvetica,sans-Serif" font-size="10.00">+ setAllEntriesTo()</text>
<text text-anchor="start" x="243.248" y="-916.5" font-family="Helvetica,sans-Serif" font-size="10.00">+ dumpToFile()</text>
<text text-anchor="start" x="243.248" y="-903.5" font-family="Helvetica,sans-Serif" font-size="10.00">+ getSmoothedGradOfHistFilename()</text>
<text text-anchor="start" x="243.248" y="-890.5" font-family="Helvetica,sans-Serif" font-size="10.00">+ getBaseFilename()</text>
<text text-anchor="start" x="243.248" y="-877.5" font-family="Helvetica,sans-Serif" font-size="10.00">+ drawGraph()</text>
<text text-anchor="start" x="243.248" y="-864.5" font-family="Helvetica,sans-Serif" font-size="10.00">+ loadData()</text>
<text text-anchor="start" x="243.248" y="-851.5" font-family="Helvetica,sans-Serif" font-size="10.00">+ rollingAv()</text>
<text text-anchor="start" x="243.248" y="-838.5" font-family="Helvetica,sans-Serif" font-size="10.00">+ rollingAv()</text>
<text text-anchor="start" x="243.248" y="-825.5" font-family="Helvetica,sans-Serif" font-size="10.00">+ copyCrop()</text>
<text text-anchor="start" x="243.248" y="-812.5" font-family="Helvetica,sans-Serif" font-size="10.00">+ getNumLeadingZeros()</text>
<text text-anchor="start" x="243.248" y="-799.5" font-family="Helvetica,sans-Serif" font-size="10.00">+ getNumTrailingZeros()</text>
<text text-anchor="start" x="243.248" y="-786.5" font-family="Helvetica,sans-Serif" font-size="10.00">* HIST_GRADIENT_RA_LENGTH</text>
<text text-anchor="start" x="243.248" y="-773.5" font-family="Helvetica,sans-Serif" font-size="10.00">* max()</text>
<text text-anchor="start" x="243.248" y="-760.5" font-family="Helvetica,sans-Serif" font-size="10.00">* max()</text>
<text text-anchor="start" x="243.248" y="-747.5" font-family="Helvetica,sans-Serif" font-size="10.00">* descendPeak()</text>
<text text-anchor="start" x="243.248" y="-734.5" font-family="Helvetica,sans-Serif" font-size="10.00">* getDelta()</text>
<text text-anchor="start" x="243.248" y="-721.5" font-family="Helvetica,sans-Serif" font-size="10.00">* getDelta()</text>
<text text-anchor="start" x="243.248" y="-708.5" font-family="Helvetica,sans-Serif" font-size="10.00">* findPeaks()</text>
<text text-anchor="start" x="243.248" y="-695.5" font-family="Helvetica,sans-Serif" font-size="10.00">* Array()</text>
<text text-anchor="start" x="243.248" y="-682.5" font-family="Helvetica,sans-Serif" font-size="10.00">* Array()</text>
<text text-anchor="start" x="243.248" y="-669.5" font-family="Helvetica,sans-Serif" font-size="10.00">* Array()</text>
<text text-anchor="start" x="243.248" y="-656.5" font-family="Helvetica,sans-Serif" font-size="10.00">* Array()</text>
<text text-anchor="start" x="243.248" y="-643.5" font-family="Helvetica,sans-Serif" font-size="10.00">* ~Array()</text>
<text text-anchor="start" x="243.248" y="-630.5" font-family="Helvetica,sans-Serif" font-size="10.00">* operator=()</text>
<text text-anchor="start" x="243.248" y="-617.5" font-family="Helvetica,sans-Serif" font-size="10.00">* operator==()</text>
<text text-anchor="start" x="243.248" y="-604.5" font-family="Helvetica,sans-Serif" font-size="10.00">* operator[]()</text>
<text text-anchor="start" x="243.248" y="-591.5" font-family="Helvetica,sans-Serif" font-size="10.00">* operator[]()</text>
<text text-anchor="start" x="243.248" y="-578.5" font-family="Helvetica,sans-Serif" font-size="10.00">* setSize()</text>
<text text-anchor="start" x="243.248" y="-565.5" font-family="Helvetica,sans-Serif" font-size="10.00">* getSize()</text>
<text text-anchor="start" x="243.248" y="-552.5" font-family="Helvetica,sans-Serif" font-size="10.00">* getSmoothing()</text>
<text text-anchor="start" x="243.248" y="-539.5" font-family="Helvetica,sans-Serif" font-size="10.00">* setSmoothing()</text>
<text text-anchor="start" x="243.248" y="-526.5" font-family="Helvetica,sans-Serif" font-size="10.00">* getUpstreamSmoothing()</text>
<text text-anchor="start" x="243.248" y="-513.5" font-family="Helvetica,sans-Serif" font-size="10.00">* setUpstreamSmoothing()</text>
<text text-anchor="start" x="243.248" y="-500.5" font-family="Helvetica,sans-Serif" font-size="10.00">* setDeviceName()</text>
<text text-anchor="start" x="243.248" y="-487.5" font-family="Helvetica,sans-Serif" font-size="10.00">* getDeviceName()</text>
<text text-anchor="start" x="243.248" y="-474.5" font-family="Helvetica,sans-Serif" font-size="10.00">* setAllEntriesTo()</text>
<text text-anchor="start" x="243.248" y="-461.5" font-family="Helvetica,sans-Serif" font-size="10.00">* dumpToFile()</text>
<text text-anchor="start" x="243.248" y="-448.5" font-family="Helvetica,sans-Serif" font-size="10.00">* getSmoothedGradOfHistFilename()</text>
<text text-anchor="start" x="243.248" y="-435.5" font-family="Helvetica,sans-Serif" font-size="10.00">* getBaseFilename()</text>
<text text-anchor="start" x="243.248" y="-422.5" font-family="Helvetica,sans-Serif" font-size="10.00">* drawGraph()</text>
<text text-anchor="start" x="243.248" y="-409.5" font-family="Helvetica,sans-Serif" font-size="10.00">* loadData()</text>
<text text-anchor="start" x="243.248" y="-396.5" font-family="Helvetica,sans-Serif" font-size="10.00">* rollingAv()</text>
<text text-anchor="start" x="243.248" y="-383.5" font-family="Helvetica,sans-Serif" font-size="10.00">* rollingAv()</text>
<text text-anchor="start" x="243.248" y="-370.5" font-family="Helvetica,sans-Serif" font-size="10.00">* copyCrop()</text>
<text text-anchor="start" x="243.248" y="-357.5" font-family="Helvetica,sans-Serif" font-size="10.00">* getNumLeadingZeros()</text>
<text text-anchor="start" x="243.248" y="-344.5" font-family="Helvetica,sans-Serif" font-size="10.00">* getNumTrailingZeros()</text>
</a>
</g>
<!-- Node2&#45;&gt;Node1 -->
<g id="edge2" class="edge"><title>Node2&#45;&gt;Node1</title>
<path fill="none" stroke="midnightblue" d="M324.748,-326.221C324.748,-316.502 324.748,-307.006 324.748,-297.782"/>
<polygon fill="none" stroke="midnightblue" points="321.248,-326.428 324.748,-336.428 328.248,-326.428 321.248,-326.428"/>
</g>
<!-- Node3 -->
<g id="node4" class="node"><title>Node3</title>
<a xlink:href="classsize__t.html" target="_top" xlink:title="{size_t\n||}">
<polygon fill="white" stroke="black" points="482.248,-2318.5 482.248,-2381.5 525.248,-2381.5 525.248,-2318.5 482.248,-2318.5"/>
<text text-anchor="middle" x="503.748" y="-2368.5" font-family="Helvetica,sans-Serif" font-size="10.00">size_t</text>
<polyline fill="none" stroke="black" points="482.248,-2360.5 525.248,-2360.5 "/>
<text text-anchor="middle" x="503.748" y="-2347.5" font-family="Helvetica,sans-Serif" font-size="10.00"> </text>
<polyline fill="none" stroke="black" points="482.248,-2339.5 525.248,-2339.5 "/>
<text text-anchor="middle" x="503.748" y="-2326.5" font-family="Helvetica,sans-Serif" font-size="10.00"> </text>
</a>
</g>
<!-- Node3&#45;&gt;Node1 -->
<g id="edge22" class="edge"><title>Node3&#45;&gt;Node1</title>
<path fill="none" stroke="#9a32cd" stroke-dasharray="5,2" d="M534.746,-2336.25C571.271,-2318.03 629.767,-2282.03 651.748,-2230 811.225,-1852.53 699.049,-1715.04 651.748,-1308 600.516,-867.139 577.869,-751.837 422.748,-336 418.008,-323.294 412.591,-310.354 406.792,-297.514"/>
<polygon fill="#9a32cd" stroke="#9a32cd" points="525.522,-2340.7 532.57,-2332.3 530.024,-2338.53 534.527,-2336.35 534.527,-2336.35 534.527,-2336.35 530.024,-2338.53 536.484,-2340.41 525.522,-2340.7 525.522,-2340.7"/>
<text text-anchor="middle" x="678.748" y="-1280.5" font-family="Helvetica,sans-Serif" font-size="10.00">samplePeriod</text>
</g>
<!-- Node3&#45;&gt;Node2 -->
<g id="edge4" class="edge"><title>Node3&#45;&gt;Node2</title>
<path fill="none" stroke="#9a32cd" stroke-dasharray="5,2" d="M474.104,-2322.69C444.272,-2294.43 401.461,-2251.49 392.748,-2230 352.899,-2131.74 375.988,-1381.85 369.748,-1276 369.391,-1269.95 369.019,-1263.87 368.632,-1257.75"/>
<polygon fill="#9a32cd" stroke="#9a32cd" points="481.757,-2329.89 471.389,-2326.31 478.115,-2326.46 474.472,-2323.04 474.472,-2323.04 474.472,-2323.04 478.115,-2326.46 477.556,-2319.76 481.757,-2329.89 481.757,-2329.89"/>
<text text-anchor="middle" x="466.248" y="-1786" font-family="Helvetica,sans-Serif" font-size="10.00">size</text>
<text text-anchor="middle" x="466.248" y="-1773" font-family="Helvetica,sans-Serif" font-size="10.00">upstreamSmoothing</text>
<text text-anchor="middle" x="466.248" y="-1760" font-family="Helvetica,sans-Serif" font-size="10.00">HIST_GRADIENT_RA_LENGTH</text>
<text text-anchor="middle" x="466.248" y="-1747" font-family="Helvetica,sans-Serif" font-size="10.00">smoothing</text>
</g>
<!-- Node6 -->
<g id="node10" class="node"><title>Node6</title>
<a xlink:href="struct_aggregate_sample.html" target="_top" xlink:title="A simple struct for pairing timecode to reading.">
<polygon fill="white" stroke="black" points="548.748,-1731 548.748,-1807 642.748,-1807 642.748,-1731 548.748,-1731"/>
<text text-anchor="middle" x="595.748" y="-1794" font-family="Helvetica,sans-Serif" font-size="10.00">AggregateSample</text>
<polyline fill="none" stroke="black" points="548.748,-1786 642.748,-1786 "/>
<text text-anchor="start" x="556.748" y="-1773" font-family="Helvetica,sans-Serif" font-size="10.00">+ timestamp</text>
<text text-anchor="start" x="556.748" y="-1760" font-family="Helvetica,sans-Serif" font-size="10.00">+ reading</text>
<polyline fill="none" stroke="black" points="548.748,-1752 642.748,-1752 "/>
<text text-anchor="middle" x="595.748" y="-1739" font-family="Helvetica,sans-Serif" font-size="10.00"> </text>
</a>
</g>
<!-- Node3&#45;&gt;Node6 -->
<g id="edge12" class="edge"><title>Node3&#45;&gt;Node6</title>
<path fill="none" stroke="#9a32cd" stroke-dasharray="5,2" d="M515.757,-2308.63C522.099,-2285.63 529.61,-2256.4 534.748,-2230 565.009,-2074.48 584.722,-1886.48 592.275,-1807.2"/>
<polygon fill="#9a32cd" stroke="#9a32cd" points="513.029,-2318.4 511.383,-2307.56 514.373,-2313.59 515.717,-2308.77 515.717,-2308.77 515.717,-2308.77 514.373,-2313.59 520.052,-2309.98 513.029,-2318.4 513.029,-2318.4"/>
<text text-anchor="middle" x="552.748" y="-2278" font-family="Helvetica,sans-Serif" font-size="10.00">reading</text>
<text text-anchor="middle" x="552.748" y="-2265" font-family="Helvetica,sans-Serif" font-size="10.00">timestamp</text>
</g>
<!-- Node7 -->
<g id="node13" class="node"><title>Node7</title>
<a xlink:href="class_array.html" target="_top" xlink:title="Array class. At its core it&#39;s just a wrapper around a C&#45;style array. With lots of added functiona...">
<polygon fill="white" stroke="black" points="169.248,-1308.5 169.248,-2229.5 348.248,-2229.5 348.248,-1308.5 169.248,-1308.5"/>
<text text-anchor="middle" x="258.748" y="-2216.5" font-family="Helvetica,sans-Serif" font-size="10.00">Array&lt; T &gt;</text>
<polyline fill="none" stroke="black" points="169.248,-2208.5 348.248,-2208.5 "/>
<text text-anchor="start" x="177.248" y="-2195.5" font-family="Helvetica,sans-Serif" font-size="10.00"># data</text>
<text text-anchor="start" x="177.248" y="-2182.5" font-family="Helvetica,sans-Serif" font-size="10.00"># size</text>
<text text-anchor="start" x="177.248" y="-2169.5" font-family="Helvetica,sans-Serif" font-size="10.00"># smoothing</text>
<text text-anchor="start" x="177.248" y="-2156.5" font-family="Helvetica,sans-Serif" font-size="10.00"># upstreamSmoothing</text>
<text text-anchor="start" x="177.248" y="-2143.5" font-family="Helvetica,sans-Serif" font-size="10.00"># deviceName</text>
<polyline fill="none" stroke="black" points="169.248,-2135.5 348.248,-2135.5 "/>
<text text-anchor="start" x="177.248" y="-2122.5" font-family="Helvetica,sans-Serif" font-size="10.00">+ Array()</text>
<text text-anchor="start" x="177.248" y="-2109.5" font-family="Helvetica,sans-Serif" font-size="10.00">+ Array()</text>
<text text-anchor="start" x="177.248" y="-2096.5" font-family="Helvetica,sans-Serif" font-size="10.00">+ Array()</text>
<text text-anchor="start" x="177.248" y="-2083.5" font-family="Helvetica,sans-Serif" font-size="10.00">+ Array()</text>
<text text-anchor="start" x="177.248" y="-2070.5" font-family="Helvetica,sans-Serif" font-size="10.00">+ ~Array()</text>
<text text-anchor="start" x="177.248" y="-2057.5" font-family="Helvetica,sans-Serif" font-size="10.00">+ operator=()</text>
<text text-anchor="start" x="177.248" y="-2044.5" font-family="Helvetica,sans-Serif" font-size="10.00">+ operator==()</text>
<text text-anchor="start" x="177.248" y="-2031.5" font-family="Helvetica,sans-Serif" font-size="10.00">+ operator[]()</text>
<text text-anchor="start" x="177.248" y="-2018.5" font-family="Helvetica,sans-Serif" font-size="10.00">+ operator[]()</text>
<text text-anchor="start" x="177.248" y="-2005.5" font-family="Helvetica,sans-Serif" font-size="10.00">+ setSize()</text>
<text text-anchor="start" x="177.248" y="-1992.5" font-family="Helvetica,sans-Serif" font-size="10.00">+ getSize()</text>
<text text-anchor="start" x="177.248" y="-1979.5" font-family="Helvetica,sans-Serif" font-size="10.00">+ getSmoothing()</text>
<text text-anchor="start" x="177.248" y="-1966.5" font-family="Helvetica,sans-Serif" font-size="10.00">+ setSmoothing()</text>
<text text-anchor="start" x="177.248" y="-1953.5" font-family="Helvetica,sans-Serif" font-size="10.00">+ getUpstreamSmoothing()</text>
<text text-anchor="start" x="177.248" y="-1940.5" font-family="Helvetica,sans-Serif" font-size="10.00">+ setUpstreamSmoothing()</text>
<text text-anchor="start" x="177.248" y="-1927.5" font-family="Helvetica,sans-Serif" font-size="10.00">+ setDeviceName()</text>
<text text-anchor="start" x="177.248" y="-1914.5" font-family="Helvetica,sans-Serif" font-size="10.00">+ getDeviceName()</text>
<text text-anchor="start" x="177.248" y="-1901.5" font-family="Helvetica,sans-Serif" font-size="10.00">+ setAllEntriesTo()</text>
<text text-anchor="start" x="177.248" y="-1888.5" font-family="Helvetica,sans-Serif" font-size="10.00">+ dumpToFile()</text>
<text text-anchor="start" x="177.248" y="-1875.5" font-family="Helvetica,sans-Serif" font-size="10.00">+ getSmoothedGradOfHistFilename()</text>
<text text-anchor="start" x="177.248" y="-1862.5" font-family="Helvetica,sans-Serif" font-size="10.00">+ getBaseFilename()</text>
<text text-anchor="start" x="177.248" y="-1849.5" font-family="Helvetica,sans-Serif" font-size="10.00">+ drawGraph()</text>
<text text-anchor="start" x="177.248" y="-1836.5" font-family="Helvetica,sans-Serif" font-size="10.00">+ loadData()</text>
<text text-anchor="start" x="177.248" y="-1823.5" font-family="Helvetica,sans-Serif" font-size="10.00">+ rollingAv()</text>
<text text-anchor="start" x="177.248" y="-1810.5" font-family="Helvetica,sans-Serif" font-size="10.00">+ rollingAv()</text>
<text text-anchor="start" x="177.248" y="-1797.5" font-family="Helvetica,sans-Serif" font-size="10.00">+ copyCrop()</text>
<text text-anchor="start" x="177.248" y="-1784.5" font-family="Helvetica,sans-Serif" font-size="10.00">+ getNumLeadingZeros()</text>
<text text-anchor="start" x="177.248" y="-1771.5" font-family="Helvetica,sans-Serif" font-size="10.00">+ getNumTrailingZeros()</text>
<text text-anchor="start" x="177.248" y="-1758.5" font-family="Helvetica,sans-Serif" font-size="10.00">* HIST_GRADIENT_RA_LENGTH</text>
<text text-anchor="start" x="177.248" y="-1745.5" font-family="Helvetica,sans-Serif" font-size="10.00">* max()</text>
<text text-anchor="start" x="177.248" y="-1732.5" font-family="Helvetica,sans-Serif" font-size="10.00">* max()</text>
<text text-anchor="start" x="177.248" y="-1719.5" font-family="Helvetica,sans-Serif" font-size="10.00">* descendPeak()</text>
<text text-anchor="start" x="177.248" y="-1706.5" font-family="Helvetica,sans-Serif" font-size="10.00">* getDelta()</text>
<text text-anchor="start" x="177.248" y="-1693.5" font-family="Helvetica,sans-Serif" font-size="10.00">* getDelta()</text>
<text text-anchor="start" x="177.248" y="-1680.5" font-family="Helvetica,sans-Serif" font-size="10.00">* findPeaks()</text>
<text text-anchor="start" x="177.248" y="-1667.5" font-family="Helvetica,sans-Serif" font-size="10.00">* Array()</text>
<text text-anchor="start" x="177.248" y="-1654.5" font-family="Helvetica,sans-Serif" font-size="10.00">* Array()</text>
<text text-anchor="start" x="177.248" y="-1641.5" font-family="Helvetica,sans-Serif" font-size="10.00">* Array()</text>
<text text-anchor="start" x="177.248" y="-1628.5" font-family="Helvetica,sans-Serif" font-size="10.00">* Array()</text>
<text text-anchor="start" x="177.248" y="-1615.5" font-family="Helvetica,sans-Serif" font-size="10.00">* ~Array()</text>
<text text-anchor="start" x="177.248" y="-1602.5" font-family="Helvetica,sans-Serif" font-size="10.00">* operator=()</text>
<text text-anchor="start" x="177.248" y="-1589.5" font-family="Helvetica,sans-Serif" font-size="10.00">* operator==()</text>
<text text-anchor="start" x="177.248" y="-1576.5" font-family="Helvetica,sans-Serif" font-size="10.00">* operator[]()</text>
<text text-anchor="start" x="177.248" y="-1563.5" font-family="Helvetica,sans-Serif" font-size="10.00">* operator[]()</text>
<text text-anchor="start" x="177.248" y="-1550.5" font-family="Helvetica,sans-Serif" font-size="10.00">* setSize()</text>
<text text-anchor="start" x="177.248" y="-1537.5" font-family="Helvetica,sans-Serif" font-size="10.00">* getSize()</text>
<text text-anchor="start" x="177.248" y="-1524.5" font-family="Helvetica,sans-Serif" font-size="10.00">* getSmoothing()</text>
<text text-anchor="start" x="177.248" y="-1511.5" font-family="Helvetica,sans-Serif" font-size="10.00">* setSmoothing()</text>
<text text-anchor="start" x="177.248" y="-1498.5" font-family="Helvetica,sans-Serif" font-size="10.00">* getUpstreamSmoothing()</text>
<text text-anchor="start" x="177.248" y="-1485.5" font-family="Helvetica,sans-Serif" font-size="10.00">* setUpstreamSmoothing()</text>
<text text-anchor="start" x="177.248" y="-1472.5" font-family="Helvetica,sans-Serif" font-size="10.00">* setDeviceName()</text>
<text text-anchor="start" x="177.248" y="-1459.5" font-family="Helvetica,sans-Serif" font-size="10.00">* getDeviceName()</text>
<text text-anchor="start" x="177.248" y="-1446.5" font-family="Helvetica,sans-Serif" font-size="10.00">* setAllEntriesTo()</text>
<text text-anchor="start" x="177.248" y="-1433.5" font-family="Helvetica,sans-Serif" font-size="10.00">* dumpToFile()</text>
<text text-anchor="start" x="177.248" y="-1420.5" font-family="Helvetica,sans-Serif" font-size="10.00">* getSmoothedGradOfHistFilename()</text>
<text text-anchor="start" x="177.248" y="-1407.5" font-family="Helvetica,sans-Serif" font-size="10.00">* getBaseFilename()</text>
<text text-anchor="start" x="177.248" y="-1394.5" font-family="Helvetica,sans-Serif" font-size="10.00">* drawGraph()</text>
<text text-anchor="start" x="177.248" y="-1381.5" font-family="Helvetica,sans-Serif" font-size="10.00">* loadData()</text>
<text text-anchor="start" x="177.248" y="-1368.5" font-family="Helvetica,sans-Serif" font-size="10.00">* rollingAv()</text>
<text text-anchor="start" x="177.248" y="-1355.5" font-family="Helvetica,sans-Serif" font-size="10.00">* rollingAv()</text>
<text text-anchor="start" x="177.248" y="-1342.5" font-family="Helvetica,sans-Serif" font-size="10.00">* copyCrop()</text>
<text text-anchor="start" x="177.248" y="-1329.5" font-family="Helvetica,sans-Serif" font-size="10.00">* getNumLeadingZeros()</text>
<text text-anchor="start" x="177.248" y="-1316.5" font-family="Helvetica,sans-Serif" font-size="10.00">* getNumTrailingZeros()</text>
</a>
</g>
<!-- Node3&#45;&gt;Node7 -->
<g id="edge16" class="edge"><title>Node3&#45;&gt;Node7</title>
<path fill="none" stroke="#9a32cd" stroke-dasharray="5,2" d="M471.772,-2348.42C411.055,-2344.67 282.713,-2332.94 255.748,-2300 243.376,-2284.89 235.182,-2260.22 230.122,-2229.59"/>
<polygon fill="#9a32cd" stroke="#9a32cd" points="481.94,-2349.01 471.696,-2352.92 476.949,-2348.72 471.957,-2348.43 471.957,-2348.43 471.957,-2348.43 476.949,-2348.72 472.219,-2343.93 481.94,-2349.01 481.94,-2349.01"/>
<text text-anchor="middle" x="329.248" y="-2291" font-family="Helvetica,sans-Serif" font-size="10.00">size</text>
<text text-anchor="middle" x="329.248" y="-2278" font-family="Helvetica,sans-Serif" font-size="10.00">upstreamSmoothing</text>
<text text-anchor="middle" x="329.248" y="-2265" font-family="Helvetica,sans-Serif" font-size="10.00">HIST_GRADIENT_RA_LENGTH</text>
<text text-anchor="middle" x="329.248" y="-2252" font-family="Helvetica,sans-Serif" font-size="10.00">smoothing</text>
</g>
<!-- Node4 -->
<g id="node6" class="node"><title>Node4</title>
<a xlink:title="STL class.">
<polygon fill="white" stroke="#bfbfbf" points="66.7477,-2318.5 66.7477,-2381.5 126.748,-2381.5 126.748,-2318.5 66.7477,-2318.5"/>
<text text-anchor="middle" x="96.7477" y="-2368.5" font-family="Helvetica,sans-Serif" font-size="10.00">std::string</text>
<polyline fill="none" stroke="#bfbfbf" points="66.7477,-2360.5 126.748,-2360.5 "/>
<text text-anchor="middle" x="96.7477" y="-2347.5" font-family="Helvetica,sans-Serif" font-size="10.00"> </text>
<polyline fill="none" stroke="#bfbfbf" points="66.7477,-2339.5 126.748,-2339.5 "/>
<text text-anchor="middle" x="96.7477" y="-2326.5" font-family="Helvetica,sans-Serif" font-size="10.00"> </text>
</a>
</g>
<!-- Node4&#45;&gt;Node1 -->
<g id="edge24" class="edge"><title>Node4&#45;&gt;Node1</title>
<path fill="none" stroke="#9a32cd" stroke-dasharray="5,2" d="M80.1697,-2308.91C71.7809,-2286.08 62.4084,-2256.91 57.7477,-2230 -14.6304,-1812.05 -12.7729,-1697.93 30.7477,-1276 74.5343,-851.489 82.7636,-737.74 226.748,-336 231.416,-322.975 236.838,-309.725 242.691,-296.599"/>
<polygon fill="#9a32cd" stroke="#9a32cd" points="83.6881,-2318.29 75.9613,-2310.51 81.9312,-2313.61 80.1744,-2308.93 80.1744,-2308.93 80.1744,-2308.93 81.9312,-2313.61 84.3875,-2307.35 83.6881,-2318.29 83.6881,-2318.29"/>
<text text-anchor="middle" x="69.2477" y="-1280.5" font-family="Helvetica,sans-Serif" font-size="10.00">aggDataFilename</text>
</g>
<!-- Node4&#45;&gt;Node2 -->
<g id="edge6" class="edge"><title>Node4&#45;&gt;Node2</title>
<path fill="none" stroke="#9a32cd" stroke-dasharray="5,2" d="M91.3091,-2308.39C73.9837,-2166.49 25.7634,-1689.31 105.748,-1308 131.259,-1186.38 186.503,-1057.84 235.12,-960.104"/>
<polygon fill="#9a32cd" stroke="#9a32cd" points="92.5493,-2318.4 86.8545,-2309.03 91.9348,-2313.44 91.3204,-2308.48 91.3204,-2308.48 91.3204,-2308.48 91.9348,-2313.44 95.7863,-2307.93 92.5493,-2318.4 92.5493,-2318.4"/>
<text text-anchor="middle" x="133.248" y="-1766.5" font-family="Helvetica,sans-Serif" font-size="10.00">deviceName</text>
</g>
<!-- Node4&#45;&gt;Node7 -->
<g id="edge18" class="edge"><title>Node4&#45;&gt;Node7</title>
<path fill="none" stroke="#9a32cd" stroke-dasharray="5,2" d="M119.774,-2309.29C131.866,-2286.53 146.129,-2257.33 155.748,-2230 160.41,-2216.75 164.909,-2203.21 169.246,-2189.48"/>
<polygon fill="#9a32cd" stroke="#9a32cd" points="114.917,-2318.3 115.698,-2307.37 117.288,-2313.9 119.659,-2309.5 119.659,-2309.5 119.659,-2309.5 117.288,-2313.9 123.621,-2311.63 114.917,-2318.3 114.917,-2318.3"/>
<text text-anchor="middle" x="176.248" y="-2271.5" font-family="Helvetica,sans-Serif" font-size="10.00">deviceName</text>
</g>
<!-- Node5 -->
<g id="node8" class="node"><title>Node5</title>
<a xlink:title="STL class.">
<polygon fill="white" stroke="#bfbfbf" points="34.2477,-2420.5 34.2477,-2483.5 159.248,-2483.5 159.248,-2420.5 34.2477,-2420.5"/>
<text text-anchor="middle" x="96.7477" y="-2470.5" font-family="Helvetica,sans-Serif" font-size="10.00">std::basic_string&lt; char &gt;</text>
<polyline fill="none" stroke="#bfbfbf" points="34.2477,-2462.5 159.248,-2462.5 "/>
<text text-anchor="middle" x="96.7477" y="-2449.5" font-family="Helvetica,sans-Serif" font-size="10.00"> </text>
<polyline fill="none" stroke="#bfbfbf" points="34.2477,-2441.5 159.248,-2441.5 "/>
<text text-anchor="middle" x="96.7477" y="-2428.5" font-family="Helvetica,sans-Serif" font-size="10.00"> </text>
</a>
</g>
<!-- Node5&#45;&gt;Node4 -->
<g id="edge8" class="edge"><title>Node5&#45;&gt;Node4</title>
<path fill="none" stroke="midnightblue" d="M96.7477,-2410.19C96.7477,-2400.67 96.7477,-2390.71 96.7477,-2381.69"/>
<polygon fill="none" stroke="midnightblue" points="93.2478,-2410.29 96.7477,-2420.29 100.248,-2410.29 93.2478,-2410.29"/>
</g>
<!-- Node6&#45;&gt;Node2 -->
<g id="edge10" class="edge"><title>Node6&#45;&gt;Node2</title>
<path fill="none" stroke="#9a32cd" stroke-dasharray="5,2" d="M593.454,-1720.6C588.529,-1635.74 574.006,-1455.14 534.748,-1308 505.045,-1196.68 456.979,-1077.31 414.323,-981.967"/>
<polygon fill="#9a32cd" stroke="#9a32cd" points="594.021,-1730.71 588.968,-1720.97 593.741,-1725.71 593.461,-1720.72 593.461,-1720.72 593.461,-1720.72 593.741,-1725.71 597.954,-1720.47 594.021,-1730.71 594.021,-1730.71"/>
<text text-anchor="middle" x="536.248" y="-1280.5" font-family="Helvetica,sans-Serif" font-size="10.00">data</text>
</g>
<!-- Node7&#45;&gt;Node2 -->
<g id="edge14" class="edge"><title>Node7&#45;&gt;Node2</title>
<path fill="none" stroke="orange" stroke-dasharray="5,2" d="M272.292,-1298.2C272.761,-1290.75 273.246,-1283.34 273.748,-1276 274.161,-1269.95 274.592,-1263.86 275.039,-1257.74"/>
<polygon fill="orange" stroke="orange" points="268.786,-1298.2 271.663,-1308.4 275.772,-1298.63 268.786,-1298.2"/>
<text text-anchor="middle" x="321.748" y="-1280.5" font-family="Helvetica,sans-Serif" font-size="10.00">&lt; AggregateSample &gt;</text>
</g>
<!-- Node8 -->
<g id="node17" class="node"><title>Node8</title>
<polygon fill="white" stroke="#bfbfbf" points="198.248,-2318.5 198.248,-2381.5 227.248,-2381.5 227.248,-2318.5 198.248,-2318.5"/>
<text text-anchor="middle" x="212.748" y="-2368.5" font-family="Helvetica,sans-Serif" font-size="10.00">T</text>
<polyline fill="none" stroke="#bfbfbf" points="198.248,-2360.5 227.248,-2360.5 "/>
<text text-anchor="middle" x="212.748" y="-2347.5" font-family="Helvetica,sans-Serif" font-size="10.00"> </text>
<polyline fill="none" stroke="#bfbfbf" points="198.248,-2339.5 227.248,-2339.5 "/>
<text text-anchor="middle" x="212.748" y="-2326.5" font-family="Helvetica,sans-Serif" font-size="10.00"> </text>
</g>
<!-- Node8&#45;&gt;Node7 -->
<g id="edge20" class="edge"><title>Node8&#45;&gt;Node7</title>
<path fill="none" stroke="#9a32cd" stroke-dasharray="5,2" d="M212.368,-2308.14C212.404,-2289.69 212.725,-2267.75 213.748,-2248 214.061,-2241.95 214.392,-2235.86 214.741,-2229.74"/>
<polygon fill="#9a32cd" stroke="#9a32cd" points="212.375,-2318.28 207.868,-2308.28 212.371,-2313.28 212.368,-2308.28 212.368,-2308.28 212.368,-2308.28 212.371,-2313.28 216.868,-2308.27 212.375,-2318.28 212.375,-2318.28"/>
<text text-anchor="middle" x="223.248" y="-2271.5" font-family="Helvetica,sans-Serif" font-size="10.00">data</text>
</g>
</g>
</svg>
