<?xml version="1.0" encoding="UTF-8" standalone="no"?>
<!DOCTYPE svg PUBLIC "-//W3C//DTD SVG 1.1//EN"
 "http://www.w3.org/Graphics/SVG/1.1/DTD/svg11.dtd">
<!-- Generated by graphviz version 2.26.3 (20100126.1600)
 -->
<!-- Title: G Pages: 1 -->
<svg width="524pt" height="403pt"
 viewBox="0.00 0.00 524.00 403.00" xmlns="http://www.w3.org/2000/svg" xmlns:xlink="http://www.w3.org/1999/xlink">
<g id="graph1" class="graph" transform="scale(1 1) rotate(0) translate(4 399)">
<title>G</title>
<polygon fill="white" stroke="white" points="-4,5 -4,-399 521,-399 521,5 -4,5"/>
<!-- Node1 -->
<g id="node1" class="node"><title>Node1</title>
<polygon fill="#bfbfbf" stroke="black" points="0.5,-160.5 0.5,-181.5 105.5,-181.5 105.5,-160.5 0.5,-160.5"/>
<text text-anchor="middle" x="53" y="-168.5" font-family="Helvetica,sans-Serif" font-size="10.00">Signature::Signature</text>
</g>
<!-- Node2 -->
<g id="node3" class="node"><title>Node2</title>
<a xlink:href="class_array.html#ae68b00a51265644510bc23945960561e" target="_top" xlink:title="Copy from source to this object, starting at cropFront index and ignoring the last cropBack items fro...">
<polygon fill="white" stroke="black" points="162.5,-338.5 162.5,-359.5 309.5,-359.5 309.5,-338.5 162.5,-338.5"/>
<text text-anchor="middle" x="236" y="-346.5" font-family="Helvetica,sans-Serif" font-size="10.00">Array&lt; Sample_t &gt;::copyCrop</text>
</a>
</g>
<!-- Node1&#45;&gt;Node2 -->
<g id="edge2" class="edge"><title>Node1&#45;&gt;Node2</title>
<path fill="none" stroke="midnightblue" d="M55.7617,-181.908C63.706,-210.923 89.4843,-290.41 142,-329 145.479,-331.556 149.215,-333.8 153.12,-335.769"/>
<polygon fill="midnightblue" stroke="midnightblue" points="151.936,-339.071 162.5,-339.88 154.746,-332.66 151.936,-339.071"/>
</g>
<!-- Node6 -->
<g id="node11" class="node"><title>Node6</title>
<a xlink:href="class_array.html#acc8d9358f9cc9fa7d10d5010099cbc10" target="_top" xlink:title="Array::drawGraph">
<polygon fill="white" stroke="black" points="189.5,-298.5 189.5,-319.5 282.5,-319.5 282.5,-298.5 189.5,-298.5"/>
<text text-anchor="middle" x="236" y="-306.5" font-family="Helvetica,sans-Serif" font-size="10.00">Array::drawGraph</text>
</a>
</g>
<!-- Node1&#45;&gt;Node6 -->
<g id="edge10" class="edge"><title>Node1&#45;&gt;Node6</title>
<path fill="none" stroke="midnightblue" d="M57.6993,-181.511C68.7412,-204.917 98.7142,-261.431 142,-289 153.102,-296.071 166.289,-300.683 179.22,-303.681"/>
<polygon fill="midnightblue" stroke="midnightblue" points="178.524,-307.111 189.021,-305.672 179.918,-300.251 178.524,-307.111"/>
</g>
<!-- Node7 -->
<g id="node13" class="node"><title>Node7</title>
<a xlink:href="class_signature.html#a3d3b6a270b3f38922568438690096237" target="_top" xlink:title="Signature::drawGraph">
<polygon fill="white" stroke="black" points="180.5,-258.5 180.5,-279.5 291.5,-279.5 291.5,-258.5 180.5,-258.5"/>
<text text-anchor="middle" x="236" y="-266.5" font-family="Helvetica,sans-Serif" font-size="10.00">Signature::drawGraph</text>
</a>
</g>
<!-- Node1&#45;&gt;Node7 -->
<g id="edge12" class="edge"><title>Node1&#45;&gt;Node7</title>
<path fill="none" stroke="midnightblue" d="M61.8991,-181.741C76.6731,-198.819 108.02,-231.968 142,-249 150.838,-253.43 160.62,-256.88 170.436,-259.568"/>
<polygon fill="midnightblue" stroke="midnightblue" points="169.68,-262.986 180.229,-262.009 171.373,-256.194 169.68,-262.986"/>
</g>
<!-- Node8 -->
<g id="node15" class="node"><title>Node8</title>
<a xlink:href="class_array.html#adeb6ee31eaa806644ce52552b8fc8bc1" target="_top" xlink:title="Array\&lt; Sample_t \&gt;::getDelta">
<polygon fill="white" stroke="black" points="165,-200.5 165,-221.5 307,-221.5 307,-200.5 165,-200.5"/>
<text text-anchor="middle" x="236" y="-208.5" font-family="Helvetica,sans-Serif" font-size="10.00">Array&lt; Sample_t &gt;::getDelta</text>
</a>
</g>
<!-- Node1&#45;&gt;Node8 -->
<g id="edge14" class="edge"><title>Node1&#45;&gt;Node8</title>
<path fill="none" stroke="midnightblue" d="M99.6301,-181.584C113.279,-184.653 128.231,-187.988 142,-191 152.968,-193.399 164.664,-195.919 175.948,-198.33"/>
<polygon fill="midnightblue" stroke="midnightblue" points="175.22,-201.753 185.73,-200.415 176.68,-194.907 175.22,-201.753"/>
</g>
<!-- Node12 -->
<g id="node25" class="node"><title>Node12</title>
<a xlink:href="class_array.html#a6a96fa1422cb1353a86173f82f13940e" target="_top" xlink:title="Array::getNumLeadingZeros">
<polygon fill="white" stroke="black" points="166.5,-160.5 166.5,-181.5 305.5,-181.5 305.5,-160.5 166.5,-160.5"/>
<text text-anchor="middle" x="236" y="-168.5" font-family="Helvetica,sans-Serif" font-size="10.00">Array::getNumLeadingZeros</text>
</a>
</g>
<!-- Node1&#45;&gt;Node12 -->
<g id="edge26" class="edge"><title>Node1&#45;&gt;Node12</title>
<path fill="none" stroke="midnightblue" d="M105.931,-171C121.579,-171 139.069,-171 156.022,-171"/>
<polygon fill="midnightblue" stroke="midnightblue" points="156.487,-174.5 166.487,-171 156.487,-167.5 156.487,-174.5"/>
</g>
<!-- Node13 -->
<g id="node27" class="node"><title>Node13</title>
<a xlink:href="class_array.html#a2161aca5d07d156bdf15bc8d098fe054" target="_top" xlink:title="Array::getNumTrailingZeros">
<polygon fill="white" stroke="black" points="167.5,-120.5 167.5,-141.5 304.5,-141.5 304.5,-120.5 167.5,-120.5"/>
<text text-anchor="middle" x="236" y="-128.5" font-family="Helvetica,sans-Serif" font-size="10.00">Array::getNumTrailingZeros</text>
</a>
</g>
<!-- Node1&#45;&gt;Node13 -->
<g id="edge28" class="edge"><title>Node1&#45;&gt;Node13</title>
<path fill="none" stroke="midnightblue" d="M99.6301,-160.416C113.279,-157.347 128.231,-154.012 142,-151 152.968,-148.601 164.664,-146.081 175.948,-143.67"/>
<polygon fill="midnightblue" stroke="midnightblue" points="176.68,-147.093 185.73,-141.585 175.22,-140.247 176.68,-147.093"/>
</g>
<!-- Node14 -->
<g id="node29" class="node"><title>Node14</title>
<a xlink:href="class_array.html#a16b3e6c252265356859eea3843afa84c" target="_top" xlink:title="Load data from a CSV file with a single column.">
<polygon fill="white" stroke="black" points="193.5,-80.5 193.5,-101.5 278.5,-101.5 278.5,-80.5 193.5,-80.5"/>
<text text-anchor="middle" x="236" y="-88.5" font-family="Helvetica,sans-Serif" font-size="10.00">Array::loadData</text>
</a>
</g>
<!-- Node1&#45;&gt;Node14 -->
<g id="edge30" class="edge"><title>Node1&#45;&gt;Node14</title>
<path fill="none" stroke="midnightblue" d="M65.3575,-160.375C81.7634,-146.834 112.153,-123.669 142,-111 154.977,-105.492 169.627,-101.441 183.433,-98.4857"/>
<polygon fill="midnightblue" stroke="midnightblue" points="184.176,-101.907 193.3,-96.522 182.809,-95.0412 184.176,-101.907"/>
</g>
<!-- Node15 -->
<g id="node31" class="node"><title>Node15</title>
<a xlink:href="namespace_utils.html#afb991f08a33e9d7f3298e60f3bf76960" target="_top" xlink:title="Utils::openFile">
<polygon fill="white" stroke="black" points="196,-40.5 196,-61.5 276,-61.5 276,-40.5 196,-40.5"/>
<text text-anchor="middle" x="236" y="-48.5" font-family="Helvetica,sans-Serif" font-size="10.00">Utils::openFile</text>
</a>
</g>
<!-- Node1&#45;&gt;Node15 -->
<g id="edge32" class="edge"><title>Node1&#45;&gt;Node15</title>
<path fill="none" stroke="midnightblue" d="M59.2732,-160.232C72.0083,-139.404 103.02,-93.6605 142,-71 155.126,-63.3692 170.798,-58.6362 185.547,-55.7052"/>
<polygon fill="midnightblue" stroke="midnightblue" points="186.322,-59.1229 195.568,-53.9504 185.115,-52.2278 186.322,-59.1229"/>
</g>
<!-- Node17 -->
<g id="node35" class="node"><title>Node17</title>
<a xlink:href="class_power_state_sequence.html#af6cb14df9881d4dea2256640fe52c26b" target="_top" xlink:title="PowerStateSequence::setDeviceName">
<polygon fill="white" stroke="black" points="142,-0.5 142,-21.5 330,-21.5 330,-0.5 142,-0.5"/>
<text text-anchor="middle" x="236" y="-8.5" font-family="Helvetica,sans-Serif" font-size="10.00">PowerStateSequence::setDeviceName</text>
</a>
</g>
<!-- Node1&#45;&gt;Node17 -->
<g id="edge36" class="edge"><title>Node1&#45;&gt;Node17</title>
<path fill="none" stroke="midnightblue" d="M56.5515,-160.166C65.8802,-133.518 93.7442,-64.5179 142,-31 144.741,-29.0964 147.627,-27.3681 150.619,-25.7994"/>
<polygon fill="midnightblue" stroke="midnightblue" points="152.243,-28.9054 159.874,-21.5563 149.326,-22.5422 152.243,-28.9054"/>
</g>
<!-- Node3 -->
<g id="node5" class="node"><title>Node3</title>
<a xlink:href="class_array.html#ae80fff561b788262683b42941f2ebda5" target="_top" xlink:title="Array::getSmoothing">
<polygon fill="white" stroke="black" points="388,-373.5 388,-394.5 494,-394.5 494,-373.5 388,-373.5"/>
<text text-anchor="middle" x="441" y="-381.5" font-family="Helvetica,sans-Serif" font-size="10.00">Array::getSmoothing</text>
</a>
</g>
<!-- Node2&#45;&gt;Node3 -->
<g id="edge4" class="edge"><title>Node2&#45;&gt;Node3</title>
<path fill="none" stroke="midnightblue" d="M297.507,-359.501C322.911,-363.839 352.338,-368.863 377.906,-373.228"/>
<polygon fill="midnightblue" stroke="midnightblue" points="377.419,-376.695 387.866,-374.928 378.597,-369.795 377.419,-376.695"/>
</g>
<!-- Node4 -->
<g id="node7" class="node"><title>Node4</title>
<a xlink:href="class_array.html#a7ba19720014d5acbdc165dee31686bd3" target="_top" xlink:title="Array::getUpstreamSmoothing">
<polygon fill="white" stroke="black" points="366.5,-333.5 366.5,-354.5 515.5,-354.5 515.5,-333.5 366.5,-333.5"/>
<text text-anchor="middle" x="441" y="-341.5" font-family="Helvetica,sans-Serif" font-size="10.00">Array::getUpstreamSmoothing</text>
</a>
</g>
<!-- Node2&#45;&gt;Node4 -->
<g id="edge6" class="edge"><title>Node2&#45;&gt;Node4</title>
<path fill="none" stroke="midnightblue" d="M309.72,-347.202C324.786,-346.834 340.755,-346.445 356.173,-346.069"/>
<polygon fill="midnightblue" stroke="midnightblue" points="356.299,-349.567 366.211,-345.824 356.128,-342.569 356.299,-349.567"/>
</g>
<!-- Node5 -->
<g id="node9" class="node"><title>Node5</title>
<a xlink:href="class_array.html#a5b752093b1b3ab4d82707115d1f41adc" target="_top" xlink:title="Array::setSize">
<polygon fill="white" stroke="black" points="401.5,-289.5 401.5,-310.5 480.5,-310.5 480.5,-289.5 401.5,-289.5"/>
<text text-anchor="middle" x="441" y="-297.5" font-family="Helvetica,sans-Serif" font-size="10.00">Array::setSize</text>
</a>
</g>
<!-- Node2&#45;&gt;Node5 -->
<g id="edge8" class="edge"><title>Node2&#45;&gt;Node5</title>
<path fill="none" stroke="midnightblue" d="M287.811,-338.422C301.554,-335.494 316.362,-332.231 330,-329 350.631,-324.113 373.296,-318.276 392.736,-313.124"/>
<polygon fill="midnightblue" stroke="midnightblue" points="393.819,-316.458 402.581,-310.501 392.017,-309.694 393.819,-316.458"/>
</g>
<!-- Node8&#45;&gt;Node5 -->
<g id="edge20" class="edge"><title>Node8&#45;&gt;Node5</title>
<path fill="none" stroke="midnightblue" d="M265.765,-221.597C284.534,-228.628 309.089,-238.473 330,-249 346.749,-257.431 349.188,-262.696 366,-271 376.843,-276.355 388.935,-281.407 400.19,-285.747"/>
<polygon fill="midnightblue" stroke="midnightblue" points="399.22,-289.122 409.812,-289.368 401.686,-282.57 399.22,-289.122"/>
</g>
<!-- Node8&#45;&gt;Node8 -->
<g id="edge16" class="edge"><title>Node8&#45;&gt;Node8</title>
<path fill="none" stroke="midnightblue" d="M207.082,-221.708C194.724,-230.653 204.363,-240 236,-240 256.762,-240 268.05,-235.975 269.864,-230.679"/>
<polygon fill="midnightblue" stroke="midnightblue" points="272.811,-228.775 264.918,-221.708 266.681,-232.155 272.811,-228.775"/>
</g>
<!-- Node9 -->
<g id="node18" class="node"><title>Node9</title>
<a xlink:href="class_array.html#a94bb8954df95b259c7fadf175f531b6b" target="_top" xlink:title="Array::setDeviceName">
<polygon fill="white" stroke="black" points="383,-240.5 383,-261.5 499,-261.5 499,-240.5 383,-240.5"/>
<text text-anchor="middle" x="441" y="-248.5" font-family="Helvetica,sans-Serif" font-size="10.00">Array::setDeviceName</text>
</a>
</g>
<!-- Node8&#45;&gt;Node9 -->
<g id="edge18" class="edge"><title>Node8&#45;&gt;Node9</title>
<path fill="none" stroke="midnightblue" d="M289.861,-221.51C316.592,-226.725 349.067,-233.062 377.054,-238.523"/>
<polygon fill="midnightblue" stroke="midnightblue" points="376.658,-242.011 387.143,-240.491 377.998,-235.141 376.658,-242.011"/>
</g>
<!-- Node10 -->
<g id="node21" class="node"><title>Node10</title>
<a xlink:href="class_array.html#af4cbe83b9a05e769dd54007402b9b3e1" target="_top" xlink:title="Used simply to keep tracking of smoothing parameters throughout the workflow.">
<polygon fill="white" stroke="black" points="388,-200.5 388,-221.5 494,-221.5 494,-200.5 388,-200.5"/>
<text text-anchor="middle" x="441" y="-208.5" font-family="Helvetica,sans-Serif" font-size="10.00">Array::setSmoothing</text>
</a>
</g>
<!-- Node8&#45;&gt;Node10 -->
<g id="edge22" class="edge"><title>Node8&#45;&gt;Node10</title>
<path fill="none" stroke="midnightblue" d="M307.124,-211C330.089,-211 355.379,-211 377.736,-211"/>
<polygon fill="midnightblue" stroke="midnightblue" points="377.783,-214.5 387.783,-211 377.783,-207.5 377.783,-214.5"/>
</g>
<!-- Node11 -->
<g id="node23" class="node"><title>Node11</title>
<a xlink:href="class_array.html#a0af1f966c6f45c8ff7949ca8b290e01a" target="_top" xlink:title="Array::setUpstreamSmoothing">
<polygon fill="white" stroke="black" points="366.5,-160.5 366.5,-181.5 515.5,-181.5 515.5,-160.5 366.5,-160.5"/>
<text text-anchor="middle" x="441" y="-168.5" font-family="Helvetica,sans-Serif" font-size="10.00">Array::setUpstreamSmoothing</text>
</a>
</g>
<!-- Node8&#45;&gt;Node11 -->
<g id="edge24" class="edge"><title>Node8&#45;&gt;Node11</title>
<path fill="none" stroke="midnightblue" d="M289.861,-200.49C316.592,-195.275 349.067,-188.938 377.054,-183.477"/>
<polygon fill="midnightblue" stroke="midnightblue" points="377.998,-186.859 387.143,-181.509 376.658,-179.989 377.998,-186.859"/>
</g>
<!-- Node16 -->
<g id="node33" class="node"><title>Node16</title>
<a xlink:href="namespace_utils.html#a5f35365dae06a93f4bbf0f406a78b90b" target="_top" xlink:title="Utils::fatalError">
<polygon fill="white" stroke="black" points="399.5,-40.5 399.5,-61.5 482.5,-61.5 482.5,-40.5 399.5,-40.5"/>
<text text-anchor="middle" x="441" y="-48.5" font-family="Helvetica,sans-Serif" font-size="10.00">Utils::fatalError</text>
</a>
</g>
<!-- Node15&#45;&gt;Node16 -->
<g id="edge34" class="edge"><title>Node15&#45;&gt;Node16</title>
<path fill="none" stroke="midnightblue" d="M276.013,-51C308.359,-51 354.13,-51 389.26,-51"/>
<polygon fill="midnightblue" stroke="midnightblue" points="389.329,-54.5001 399.329,-51 389.329,-47.5001 389.329,-54.5001"/>
</g>
</g>
</svg>
