<?xml version="1.0" encoding="UTF-8" standalone="no"?>
<!DOCTYPE svg PUBLIC "-//W3C//DTD SVG 1.1//EN"
 "http://www.w3.org/Graphics/SVG/1.1/DTD/svg11.dtd">
<!-- Generated by graphviz version 2.26.3 (20100126.1600)
 -->
<!-- Title: G Pages: 1 -->
<svg width="1076pt" height="508pt"
 viewBox="0.00 0.00 1076.00 508.00" xmlns="http://www.w3.org/2000/svg" xmlns:xlink="http://www.w3.org/1999/xlink">
<g id="graph1" class="graph" transform="scale(1 1) rotate(0) translate(4 504)">
<title>G</title>
<polygon fill="white" stroke="white" points="-4,5 -4,-504 1073,-504 1073,5 -4,5"/>
<!-- Node1 -->
<g id="node1" class="node"><title>Node1</title>
<polygon fill="#bfbfbf" stroke="black" points="0,-240.5 0,-261.5 134,-261.5 134,-240.5 0,-240.5"/>
<text text-anchor="middle" x="67" y="-248.5" font-family="Helvetica,sans-Serif" font-size="10.00">Signature::getPowerStates</text>
</g>
<!-- Node2 -->
<g id="node3" class="node"><title>Node2</title>
<a xlink:href="class_signature.html#afebb6e34dcba3d828093eba1ffc7fad6" target="_top" xlink:title="Runs through signature data to find power states and stores the resulting power states in powerStates...">
<polygon fill="white" stroke="black" points="170.5,-240.5 170.5,-261.5 319.5,-261.5 319.5,-240.5 170.5,-240.5"/>
<text text-anchor="middle" x="245" y="-248.5" font-family="Helvetica,sans-Serif" font-size="10.00">Signature::updatePowerStates</text>
</a>
</g>
<!-- Node1&#45;&gt;Node2 -->
<g id="edge2" class="edge"><title>Node1&#45;&gt;Node2</title>
<path fill="none" stroke="midnightblue" d="M134.041,-251C142.54,-251 151.325,-251 160.058,-251"/>
<polygon fill="midnightblue" stroke="midnightblue" points="160.266,-254.5 170.266,-251 160.265,-247.5 160.266,-254.5"/>
</g>
<!-- Node3 -->
<g id="node5" class="node"><title>Node3</title>
<a xlink:href="class_histogram.html#ad4a2b931c86c4a7f2ce465d0c737050f" target="_top" xlink:title="Histogram::drawGraph">
<polygon fill="white" stroke="black" points="382.5,-418.5 382.5,-439.5 497.5,-439.5 497.5,-418.5 382.5,-418.5"/>
<text text-anchor="middle" x="440" y="-426.5" font-family="Helvetica,sans-Serif" font-size="10.00">Histogram::drawGraph</text>
</a>
</g>
<!-- Node2&#45;&gt;Node3 -->
<g id="edge4" class="edge"><title>Node2&#45;&gt;Node3</title>
<path fill="none" stroke="midnightblue" d="M256.614,-261.602C288.985,-291.15 380.473,-374.662 420.661,-411.347"/>
<polygon fill="midnightblue" stroke="midnightblue" points="418.455,-414.072 428.2,-418.229 423.174,-408.902 418.455,-414.072"/>
</g>
<!-- Node11 -->
<g id="node22" class="node"><title>Node11</title>
<a xlink:href="class_array.html#acc8d9358f9cc9fa7d10d5010099cbc10" target="_top" xlink:title="Array::drawGraph">
<polygon fill="white" stroke="black" points="393.5,-240.5 393.5,-261.5 486.5,-261.5 486.5,-240.5 393.5,-240.5"/>
<text text-anchor="middle" x="440" y="-248.5" font-family="Helvetica,sans-Serif" font-size="10.00">Array::drawGraph</text>
</a>
</g>
<!-- Node2&#45;&gt;Node11 -->
<g id="edge22" class="edge"><title>Node2&#45;&gt;Node11</title>
<path fill="none" stroke="midnightblue" d="M319.556,-251C340.706,-251 363.383,-251 383.292,-251"/>
<polygon fill="midnightblue" stroke="midnightblue" points="383.428,-254.5 393.428,-251 383.428,-247.5 383.428,-254.5"/>
</g>
<!-- Node12 -->
<g id="node24" class="node"><title>Node12</title>
<a xlink:href="class_signature.html#a80ab9f3c989f356fd8fd61282de3a994" target="_top" xlink:title="Signature::drawHistWithStateBars">
<polygon fill="white" stroke="black" points="356.5,-318.5 356.5,-339.5 523.5,-339.5 523.5,-318.5 356.5,-318.5"/>
<text text-anchor="middle" x="440" y="-326.5" font-family="Helvetica,sans-Serif" font-size="10.00">Signature::drawHistWithStateBars</text>
</a>
</g>
<!-- Node2&#45;&gt;Node12 -->
<g id="edge24" class="edge"><title>Node2&#45;&gt;Node12</title>
<path fill="none" stroke="midnightblue" d="M264.64,-261.533C286.51,-272.986 323.116,-291.345 356,-304 366.873,-308.184 378.757,-312.102 390.074,-315.539"/>
<polygon fill="midnightblue" stroke="midnightblue" points="389.251,-318.945 399.833,-318.429 391.239,-312.233 389.251,-318.945"/>
</g>
<!-- Node15 -->
<g id="node32" class="node"><title>Node15</title>
<a xlink:href="class_signature.html#a6e3fba4e40182e955f5d475553f401c5" target="_top" xlink:title="Signature::getStateBarsBaseFilename">
<polygon fill="white" stroke="black" points="565.5,-200.5 565.5,-221.5 748.5,-221.5 748.5,-200.5 565.5,-200.5"/>
<text text-anchor="middle" x="657" y="-208.5" font-family="Helvetica,sans-Serif" font-size="10.00">Signature::getStateBarsBaseFilename</text>
</a>
</g>
<!-- Node2&#45;&gt;Node15 -->
<g id="edge44" class="edge"><title>Node2&#45;&gt;Node15</title>
<path fill="none" stroke="midnightblue" d="M273.439,-261.512C325.666,-279.029 439.27,-308.736 524,-271 545.849,-261.269 539.252,-242.898 560,-231 563.881,-228.775 567.974,-226.795 572.197,-225.035"/>
<polygon fill="midnightblue" stroke="midnightblue" points="573.472,-228.295 581.618,-221.519 571.025,-221.736 573.472,-228.295"/>
</g>
<!-- Node17 -->
<g id="node38" class="node"><title>Node17</title>
<a xlink:href="class_array.html#ad09653725c36dbb022a04309465ec277" target="_top" xlink:title="Attempts to automatically find the peaks.">
<polygon fill="white" stroke="black" points="395.5,-200.5 395.5,-221.5 484.5,-221.5 484.5,-200.5 395.5,-200.5"/>
<text text-anchor="middle" x="440" y="-208.5" font-family="Helvetica,sans-Serif" font-size="10.00">Array::findPeaks</text>
</a>
</g>
<!-- Node2&#45;&gt;Node17 -->
<g id="edge42" class="edge"><title>Node2&#45;&gt;Node17</title>
<path fill="none" stroke="midnightblue" d="M296.234,-240.49C323.67,-234.862 357.47,-227.929 385.402,-222.2"/>
<polygon fill="midnightblue" stroke="midnightblue" points="386.312,-225.586 395.404,-220.148 384.905,-218.729 386.312,-225.586"/>
</g>
<!-- Node18 -->
<g id="node41" class="node"><title>Node18</title>
<a xlink:href="namespace_utils.html#afb991f08a33e9d7f3298e60f3bf76960" target="_top" xlink:title="Utils::openFile">
<polygon fill="white" stroke="black" points="400,-160.5 400,-181.5 480,-181.5 480,-160.5 400,-160.5"/>
<text text-anchor="middle" x="440" y="-168.5" font-family="Helvetica,sans-Serif" font-size="10.00">Utils::openFile</text>
</a>
</g>
<!-- Node2&#45;&gt;Node18 -->
<g id="edge46" class="edge"><title>Node2&#45;&gt;Node18</title>
<path fill="none" stroke="midnightblue" d="M261.273,-240.431C282.35,-227.164 320.594,-204.515 356,-191 366.724,-186.906 378.548,-183.472 389.854,-180.67"/>
<polygon fill="midnightblue" stroke="midnightblue" points="390.685,-184.07 399.616,-178.368 389.079,-177.256 390.685,-184.07"/>
</g>
<!-- Node20 -->
<g id="node45" class="node"><title>Node20</title>
<a xlink:href="class_array.html#a6603ebeb68bb0c1b493f0808d5694498" target="_top" xlink:title="Returns a rolling average of same length as the original array.">
<polygon fill="white" stroke="black" points="368.5,-80.5 368.5,-101.5 511.5,-101.5 511.5,-80.5 368.5,-80.5"/>
<text text-anchor="middle" x="440" y="-88.5" font-family="Helvetica,sans-Serif" font-size="10.00">Array&lt; Sample_t &gt;::rollingAv</text>
</a>
</g>
<!-- Node2&#45;&gt;Node20 -->
<g id="edge50" class="edge"><title>Node2&#45;&gt;Node20</title>
<path fill="none" stroke="midnightblue" d="M255.976,-240.345C275.494,-221.577 317.782,-181.702 356,-151 375.512,-135.325 398.734,-118.896 415.811,-107.201"/>
<polygon fill="midnightblue" stroke="midnightblue" points="417.827,-110.062 424.129,-101.546 413.892,-104.274 417.827,-110.062"/>
</g>
<!-- Node4 -->
<g id="node7" class="node"><title>Node4</title>
<a xlink:href="class_array.html#a6ef27596ae6f5cd98001ca8ba7b13038" target="_top" xlink:title="Array\&lt; Histogram_t \&gt;::dumpToFile">
<polygon fill="white" stroke="black" points="573,-478.5 573,-499.5 741,-499.5 741,-478.5 573,-478.5"/>
<text text-anchor="middle" x="657" y="-486.5" font-family="Helvetica,sans-Serif" font-size="10.00">Array&lt; Histogram_t &gt;::dumpToFile</text>
</a>
</g>
<!-- Node3&#45;&gt;Node4 -->
<g id="edge6" class="edge"><title>Node3&#45;&gt;Node4</title>
<path fill="none" stroke="midnightblue" d="M468.806,-439.672C492.934,-448.351 528.4,-460.508 560,-469 569.714,-471.611 580.054,-474.073 590.226,-476.317"/>
<polygon fill="midnightblue" stroke="midnightblue" points="589.8,-479.806 600.313,-478.487 591.273,-472.962 589.8,-479.806"/>
</g>
<!-- Node5 -->
<g id="node9" class="node"><title>Node5</title>
<a xlink:href="class_histogram.html#ac542b993b1f5a0ab1b94d4ee7b0bb70d" target="_top" xlink:title="Histogram::getBaseFilename">
<polygon fill="white" stroke="black" points="585.5,-398.5 585.5,-419.5 728.5,-419.5 728.5,-398.5 585.5,-398.5"/>
<text text-anchor="middle" x="657" y="-406.5" font-family="Helvetica,sans-Serif" font-size="10.00">Histogram::getBaseFilename</text>
</a>
</g>
<!-- Node3&#45;&gt;Node5 -->
<g id="edge8" class="edge"><title>Node3&#45;&gt;Node5</title>
<path fill="none" stroke="midnightblue" d="M497.582,-423.693C521.304,-421.507 549.224,-418.933 575.015,-416.556"/>
<polygon fill="midnightblue" stroke="midnightblue" points="575.522,-420.024 585.159,-415.621 574.88,-413.054 575.522,-420.024"/>
</g>
<!-- Node7 -->
<g id="node13" class="node"><title>Node7</title>
<a xlink:href="namespace_g_n_uplot.html#ab276a6d946560395f9d6caa8cb6cb640" target="_top" xlink:title="Plot a graph using GNUplot.">
<polygon fill="white" stroke="black" points="618.5,-438.5 618.5,-459.5 695.5,-459.5 695.5,-438.5 618.5,-438.5"/>
<text text-anchor="middle" x="657" y="-446.5" font-family="Helvetica,sans-Serif" font-size="10.00">GNUplot::plot</text>
</a>
</g>
<!-- Node3&#45;&gt;Node7 -->
<g id="edge12" class="edge"><title>Node3&#45;&gt;Node7</title>
<path fill="none" stroke="midnightblue" d="M497.582,-434.307C532.025,-437.482 575.322,-441.472 608.098,-444.493"/>
<polygon fill="midnightblue" stroke="midnightblue" points="608.066,-448.005 618.345,-445.437 608.709,-441.034 608.066,-448.005"/>
</g>
<!-- Node6 -->
<g id="node11" class="node"><title>Node6</title>
<a xlink:href="namespace_utils.html#a48dfa27103961c7cc6082f7e68857748" target="_top" xlink:title="Utils::size_t_to_s">
<polygon fill="white" stroke="black" points="816.5,-319.5 816.5,-340.5 909.5,-340.5 909.5,-319.5 816.5,-319.5"/>
<text text-anchor="middle" x="863" y="-327.5" font-family="Helvetica,sans-Serif" font-size="10.00">Utils::size_t_to_s</text>
</a>
</g>
<!-- Node5&#45;&gt;Node6 -->
<g id="edge10" class="edge"><title>Node5&#45;&gt;Node6</title>
<path fill="none" stroke="midnightblue" d="M721.398,-398.488C732.43,-395.906 743.662,-392.771 754,-389 784.601,-377.839 817.124,-359.248 838.597,-345.916"/>
<polygon fill="midnightblue" stroke="midnightblue" points="840.495,-348.858 847.085,-340.562 836.76,-342.937 840.495,-348.858"/>
</g>
<!-- Node8 -->
<g id="node15" class="node"><title>Node8</title>
<a xlink:href="namespace_utils.html#ae7741f30cf104d6660673d7c336ef5cc" target="_top" xlink:title="Utils::fileExists">
<polygon fill="white" stroke="black" points="821.5,-398.5 821.5,-419.5 904.5,-419.5 904.5,-398.5 821.5,-398.5"/>
<text text-anchor="middle" x="863" y="-406.5" font-family="Helvetica,sans-Serif" font-size="10.00">Utils::fileExists</text>
</a>
</g>
<!-- Node7&#45;&gt;Node8 -->
<g id="edge14" class="edge"><title>Node7&#45;&gt;Node8</title>
<path fill="none" stroke="midnightblue" d="M695.747,-441.476C728.313,-435.153 775.147,-426.059 810.977,-419.102"/>
<polygon fill="midnightblue" stroke="midnightblue" points="812.092,-422.451 821.241,-417.109 810.757,-415.579 812.092,-422.451"/>
</g>
<!-- Node9 -->
<g id="node17" class="node"><title>Node9</title>
<a xlink:href="namespace_g_n_uplot.html#a1a232691d61b3e55fdcc406a3a2e9c1f" target="_top" xlink:title="Replaces all the tokens in the template file &#39;config/plotVars.inFilename&#39; with variables from...">
<polygon fill="white" stroke="black" points="790,-438.5 790,-459.5 936,-459.5 936,-438.5 790,-438.5"/>
<text text-anchor="middle" x="863" y="-446.5" font-family="Helvetica,sans-Serif" font-size="10.00">GNUplot::instantiateTemplate</text>
</a>
</g>
<!-- Node7&#45;&gt;Node9 -->
<g id="edge16" class="edge"><title>Node7&#45;&gt;Node9</title>
<path fill="none" stroke="midnightblue" d="M695.747,-449C719.413,-449 750.615,-449 779.652,-449"/>
<polygon fill="midnightblue" stroke="midnightblue" points="779.817,-452.5 789.817,-449 779.817,-445.5 779.817,-452.5"/>
</g>
<!-- Node10 -->
<g id="node19" class="node"><title>Node10</title>
<a xlink:href="namespace_g_n_uplot.html#a60ecface5bf85a5e3e2e1743bd266737" target="_top" xlink:title="Replace all characters which might confuse &#39;sed&#39;.">
<polygon fill="white" stroke="black" points="972.5,-457.5 972.5,-478.5 1067.5,-478.5 1067.5,-457.5 972.5,-457.5"/>
<text text-anchor="middle" x="1020" y="-465.5" font-family="Helvetica,sans-Serif" font-size="10.00">GNUplot::sanitise</text>
</a>
</g>
<!-- Node7&#45;&gt;Node10 -->
<g id="edge20" class="edge"><title>Node7&#45;&gt;Node10</title>
<path fill="none" stroke="midnightblue" d="M695.53,-456.35C721.991,-461.014 757.983,-466.606 790,-469 854.708,-473.838 871.112,-469.386 936,-469 944.491,-468.949 953.464,-468.87 962.261,-468.778"/>
<polygon fill="midnightblue" stroke="midnightblue" points="962.507,-472.275 972.468,-468.664 962.429,-465.276 962.507,-472.275"/>
</g>
<!-- Node9&#45;&gt;Node10 -->
<g id="edge18" class="edge"><title>Node9&#45;&gt;Node10</title>
<path fill="none" stroke="midnightblue" d="M936.444,-457.888C945.068,-458.932 953.773,-459.985 962.142,-460.998"/>
<polygon fill="midnightblue" stroke="midnightblue" points="961.807,-464.483 972.155,-462.21 962.648,-457.534 961.807,-464.483"/>
</g>
<!-- Node12&#45;&gt;Node4 -->
<g id="edge26" class="edge"><title>Node12&#45;&gt;Node4</title>
<path fill="none" stroke="midnightblue" d="M453.292,-339.696C470.808,-354.206 501.974,-381.488 524,-409 543.436,-433.277 534.633,-451.01 560,-469 562.582,-470.831 565.293,-472.502 568.103,-474.026"/>
<polygon fill="midnightblue" stroke="midnightblue" points="566.836,-477.299 577.372,-478.414 569.831,-470.972 566.836,-477.299"/>
</g>
<!-- Node12&#45;&gt;Node5 -->
<g id="edge28" class="edge"><title>Node12&#45;&gt;Node5</title>
<path fill="none" stroke="midnightblue" d="M457.656,-339.672C480.509,-353.046 521.924,-375.809 560,-389 567.623,-391.641 575.711,-393.986 583.836,-396.054"/>
<polygon fill="midnightblue" stroke="midnightblue" points="583.196,-399.5 593.738,-398.441 584.837,-392.695 583.196,-399.5"/>
</g>
<!-- Node12&#45;&gt;Node6 -->
<g id="edge40" class="edge"><title>Node12&#45;&gt;Node6</title>
<path fill="none" stroke="midnightblue" d="M491.744,-318.455C512.819,-314.664 537.478,-310.864 560,-309 645.928,-301.888 668.168,-300.807 754,-309 771.961,-310.714 791.364,-313.984 808.751,-317.441"/>
<polygon fill="midnightblue" stroke="midnightblue" points="808.231,-320.907 818.73,-319.488 809.637,-314.05 808.231,-320.907"/>
</g>
<!-- Node12&#45;&gt;Node7 -->
<g id="edge38" class="edge"><title>Node12&#45;&gt;Node7</title>
<path fill="none" stroke="midnightblue" d="M449.367,-339.737C468.129,-360.51 512.605,-406.162 560,-429 574.867,-436.164 592.22,-440.767 608.106,-443.723"/>
<polygon fill="midnightblue" stroke="midnightblue" points="607.85,-447.229 618.292,-445.438 609.012,-440.326 607.85,-447.229"/>
</g>
<!-- Node13 -->
<g id="node28" class="node"><title>Node13</title>
<a xlink:href="class_array.html#a142bd1adb0eb622a1d89e6ca514509c0" target="_top" xlink:title="Array::getSmoothedGradOfHistFilename">
<polygon fill="white" stroke="black" points="560.5,-358.5 560.5,-379.5 753.5,-379.5 753.5,-358.5 560.5,-358.5"/>
<text text-anchor="middle" x="657" y="-366.5" font-family="Helvetica,sans-Serif" font-size="10.00">Array::getSmoothedGradOfHistFilename</text>
</a>
</g>
<!-- Node12&#45;&gt;Node13 -->
<g id="edge30" class="edge"><title>Node12&#45;&gt;Node13</title>
<path fill="none" stroke="midnightblue" d="M497.014,-339.51C525.558,-344.771 560.289,-351.173 590.089,-356.666"/>
<polygon fill="midnightblue" stroke="midnightblue" points="589.521,-360.12 599.99,-358.491 590.79,-353.236 589.521,-360.12"/>
</g>
<!-- Node14 -->
<g id="node30" class="node"><title>Node14</title>
<a xlink:href="class_array.html#ae80fff561b788262683b42941f2ebda5" target="_top" xlink:title="Array::getSmoothing">
<polygon fill="white" stroke="black" points="604,-318.5 604,-339.5 710,-339.5 710,-318.5 604,-318.5"/>
<text text-anchor="middle" x="657" y="-326.5" font-family="Helvetica,sans-Serif" font-size="10.00">Array::getSmoothing</text>
</a>
</g>
<!-- Node12&#45;&gt;Node14 -->
<g id="edge32" class="edge"><title>Node12&#45;&gt;Node14</title>
<path fill="none" stroke="midnightblue" d="M523.587,-329C546.881,-329 571.795,-329 593.711,-329"/>
<polygon fill="midnightblue" stroke="midnightblue" points="593.88,-332.5 603.88,-329 593.88,-325.5 593.88,-332.5"/>
</g>
<!-- Node12&#45;&gt;Node15 -->
<g id="edge34" class="edge"><title>Node12&#45;&gt;Node15</title>
<path fill="none" stroke="midnightblue" d="M498.751,-318.339C507.867,-314.836 516.674,-310.182 524,-304 551.646,-280.669 531.377,-253.122 560,-231 562.219,-229.285 564.55,-227.707 566.968,-226.256"/>
<polygon fill="midnightblue" stroke="midnightblue" points="568.8,-229.248 576.066,-221.538 565.578,-223.034 568.8,-229.248"/>
</g>
<!-- Node16 -->
<g id="node34" class="node"><title>Node16</title>
<a xlink:href="class_array.html#a7ba19720014d5acbdc165dee31686bd3" target="_top" xlink:title="Array::getUpstreamSmoothing">
<polygon fill="white" stroke="black" points="582.5,-240.5 582.5,-261.5 731.5,-261.5 731.5,-240.5 582.5,-240.5"/>
<text text-anchor="middle" x="657" y="-248.5" font-family="Helvetica,sans-Serif" font-size="10.00">Array::getUpstreamSmoothing</text>
</a>
</g>
<!-- Node12&#45;&gt;Node16 -->
<g id="edge36" class="edge"><title>Node12&#45;&gt;Node16</title>
<path fill="none" stroke="midnightblue" d="M486.537,-318.488C499.067,-314.772 512.364,-309.986 524,-304 542.024,-294.727 541.807,-284.938 560,-276 569.463,-271.351 579.884,-267.502 590.278,-264.335"/>
<polygon fill="midnightblue" stroke="midnightblue" points="591.548,-267.612 600.204,-261.503 589.627,-260.881 591.548,-267.612"/>
</g>
<!-- Node19 -->
<g id="node43" class="node"><title>Node19</title>
<a xlink:href="namespace_utils.html#a5f35365dae06a93f4bbf0f406a78b90b" target="_top" xlink:title="Utils::fatalError">
<polygon fill="white" stroke="black" points="615.5,-160.5 615.5,-181.5 698.5,-181.5 698.5,-160.5 615.5,-160.5"/>
<text text-anchor="middle" x="657" y="-168.5" font-family="Helvetica,sans-Serif" font-size="10.00">Utils::fatalError</text>
</a>
</g>
<!-- Node18&#45;&gt;Node19 -->
<g id="edge48" class="edge"><title>Node18&#45;&gt;Node19</title>
<path fill="none" stroke="midnightblue" d="M480.054,-171C515.203,-171 566.549,-171 604.888,-171"/>
<polygon fill="midnightblue" stroke="midnightblue" points="605.332,-174.5 615.332,-171 605.332,-167.5 605.332,-174.5"/>
</g>
<!-- Node20&#45;&gt;Node20 -->
<g id="edge52" class="edge"><title>Node20&#45;&gt;Node20</title>
<path fill="none" stroke="midnightblue" d="M409.175,-101.708C396.002,-110.653 406.277,-120 440,-120 462.657,-120 474.73,-115.781 476.218,-110.299"/>
<polygon fill="midnightblue" stroke="midnightblue" points="479.106,-108.316 470.825,-101.708 473.178,-112.038 479.106,-108.316"/>
</g>
<!-- Node21 -->
<g id="node48" class="node"><title>Node21</title>
<a xlink:href="class_array.html#a94bb8954df95b259c7fadf175f531b6b" target="_top" xlink:title="Array::setDeviceName">
<polygon fill="white" stroke="black" points="599,-0.5 599,-21.5 715,-21.5 715,-0.5 599,-0.5"/>
<text text-anchor="middle" x="657" y="-8.5" font-family="Helvetica,sans-Serif" font-size="10.00">Array::setDeviceName</text>
</a>
</g>
<!-- Node20&#45;&gt;Node21 -->
<g id="edge54" class="edge"><title>Node20&#45;&gt;Node21</title>
<path fill="none" stroke="midnightblue" d="M457.656,-80.3282C480.509,-66.9541 521.924,-44.1906 560,-31 569.261,-27.7917 579.207,-25.0206 589.073,-22.6511"/>
<polygon fill="midnightblue" stroke="midnightblue" points="589.913,-26.0495 598.885,-20.4141 588.357,-19.2246 589.913,-26.0495"/>
</g>
<!-- Node22 -->
<g id="node50" class="node"><title>Node22</title>
<a xlink:href="class_array.html#a5b752093b1b3ab4d82707115d1f41adc" target="_top" xlink:title="Array::setSize">
<polygon fill="white" stroke="black" points="617.5,-120.5 617.5,-141.5 696.5,-141.5 696.5,-120.5 617.5,-120.5"/>
<text text-anchor="middle" x="657" y="-128.5" font-family="Helvetica,sans-Serif" font-size="10.00">Array::setSize</text>
</a>
</g>
<!-- Node20&#45;&gt;Node22 -->
<g id="edge56" class="edge"><title>Node20&#45;&gt;Node22</title>
<path fill="none" stroke="midnightblue" d="M497.014,-101.51C531.382,-107.845 574.722,-115.833 607.621,-121.898"/>
<polygon fill="midnightblue" stroke="midnightblue" points="607.006,-125.343 617.475,-123.714 608.275,-118.459 607.006,-125.343"/>
</g>
<!-- Node23 -->
<g id="node52" class="node"><title>Node23</title>
<a xlink:href="class_array.html#af4cbe83b9a05e769dd54007402b9b3e1" target="_top" xlink:title="Used simply to keep tracking of smoothing parameters throughout the workflow.">
<polygon fill="white" stroke="black" points="604,-80.5 604,-101.5 710,-101.5 710,-80.5 604,-80.5"/>
<text text-anchor="middle" x="657" y="-88.5" font-family="Helvetica,sans-Serif" font-size="10.00">Array::setSmoothing</text>
</a>
</g>
<!-- Node20&#45;&gt;Node23 -->
<g id="edge58" class="edge"><title>Node20&#45;&gt;Node23</title>
<path fill="none" stroke="midnightblue" d="M511.655,-91C538.248,-91 568.191,-91 593.958,-91"/>
<polygon fill="midnightblue" stroke="midnightblue" points="593.981,-94.5001 603.981,-91 593.981,-87.5001 593.981,-94.5001"/>
</g>
<!-- Node24 -->
<g id="node54" class="node"><title>Node24</title>
<a xlink:href="class_array.html#a0af1f966c6f45c8ff7949ca8b290e01a" target="_top" xlink:title="Array::setUpstreamSmoothing">
<polygon fill="white" stroke="black" points="582.5,-40.5 582.5,-61.5 731.5,-61.5 731.5,-40.5 582.5,-40.5"/>
<text text-anchor="middle" x="657" y="-48.5" font-family="Helvetica,sans-Serif" font-size="10.00">Array::setUpstreamSmoothing</text>
</a>
</g>
<!-- Node20&#45;&gt;Node24 -->
<g id="edge60" class="edge"><title>Node20&#45;&gt;Node24</title>
<path fill="none" stroke="midnightblue" d="M497.014,-80.4905C525.558,-75.229 560.289,-68.8268 590.089,-63.3338"/>
<polygon fill="midnightblue" stroke="midnightblue" points="590.79,-66.7636 599.99,-61.5087 589.521,-59.8796 590.79,-66.7636"/>
</g>
</g>
</svg>
