<?xml version="1.0" encoding="UTF-8" standalone="no"?>
<!DOCTYPE svg PUBLIC "-//W3C//DTD SVG 1.1//EN"
 "http://www.w3.org/Graphics/SVG/1.1/DTD/svg11.dtd">
<!-- Generated by graphviz version 2.26.3 (20100126.1600)
 -->
<!-- Title: G Pages: 1 -->
<svg width="738pt" height="150pt"
 viewBox="0.00 0.00 738.00 150.00" xmlns="http://www.w3.org/2000/svg" xmlns:xlink="http://www.w3.org/1999/xlink">
<g id="graph1" class="graph" transform="scale(1 1) rotate(0) translate(4 146)">
<title>G</title>
<polygon fill="white" stroke="white" points="-4,5 -4,-146 735,-146 735,5 -4,5"/>
<!-- Node1 -->
<g id="node1" class="node"><title>Node1</title>
<polygon fill="#bfbfbf" stroke="black" points="0.5,-60.5 0.5,-81.5 131.5,-81.5 131.5,-60.5 0.5,-60.5"/>
<text text-anchor="middle" x="66" y="-68.5" font-family="Helvetica,sans-Serif" font-size="10.00">Signature::getDeltaSpikes</text>
</g>
<!-- Node2 -->
<g id="node3" class="node"><title>Node2</title>
<a xlink:href="struct_signature_1_1_spike.html#a0345ed985cbc94883286755c47ab0d63" target="_top" xlink:title="Comparison function. Useful for sorting lists of spikes into descending order of absolute magnitude...">
<polygon fill="white" stroke="black" points="168.5,-100.5 168.5,-121.5 365.5,-121.5 365.5,-100.5 168.5,-100.5"/>
<text text-anchor="middle" x="267" y="-108.5" font-family="Helvetica,sans-Serif" font-size="10.00">Signature::Spike::compareAbsValueDesc</text>
</a>
</g>
<!-- Node1&#45;&gt;Node2 -->
<g id="edge2" class="edge"><title>Node1&#45;&gt;Node2</title>
<path fill="none" stroke="midnightblue" d="M118.81,-81.5095C145.019,-86.7252 176.861,-93.0619 204.302,-98.5227"/>
<polygon fill="midnightblue" stroke="midnightblue" points="203.703,-101.972 214.194,-100.491 205.069,-95.1067 203.703,-101.972"/>
</g>
<!-- Node3 -->
<g id="node5" class="node"><title>Node3</title>
<a xlink:href="class_signature.html#a6bf289b7aa40eb2791d13d8669089953" target="_top" xlink:title="Merge consecutive spikes of the same sign and then remove any spikes under 10 Watts.">
<polygon fill="white" stroke="black" points="197,-60.5 197,-81.5 337,-81.5 337,-60.5 197,-60.5"/>
<text text-anchor="middle" x="267" y="-68.5" font-family="Helvetica,sans-Serif" font-size="10.00">Signature::getMergedSpikes</text>
</a>
</g>
<!-- Node1&#45;&gt;Node3 -->
<g id="edge4" class="edge"><title>Node1&#45;&gt;Node3</title>
<path fill="none" stroke="midnightblue" d="M131.537,-71C149.129,-71 168.354,-71 186.651,-71"/>
<polygon fill="midnightblue" stroke="midnightblue" points="186.703,-74.5001 196.703,-71 186.703,-67.5001 186.703,-74.5001"/>
</g>
<!-- Node9 -->
<g id="node18" class="node"><title>Node9</title>
<a xlink:href="namespace_utils.html#a64df1cf745416e01ed1b1d0618d4cdfa" target="_top" xlink:title="Compares 2 doubles. Are they within (a * tolerance) of each other?">
<polygon fill="white" stroke="black" points="217.5,-20.5 217.5,-41.5 316.5,-41.5 316.5,-20.5 217.5,-20.5"/>
<text text-anchor="middle" x="267" y="-28.5" font-family="Helvetica,sans-Serif" font-size="10.00">Utils::roughlyEqual</text>
</a>
</g>
<!-- Node1&#45;&gt;Node9 -->
<g id="edge18" class="edge"><title>Node1&#45;&gt;Node9</title>
<path fill="none" stroke="midnightblue" d="M118.81,-60.4905C145.952,-55.0892 179.134,-48.4858 207.213,-42.8979"/>
<polygon fill="midnightblue" stroke="midnightblue" points="208.182,-46.2738 217.307,-40.8892 206.816,-39.4084 208.182,-46.2738"/>
</g>
<!-- Node4 -->
<g id="node7" class="node"><title>Node4</title>
<a xlink:href="class_array.html#adeb6ee31eaa806644ce52552b8fc8bc1" target="_top" xlink:title="Array\&lt; Sample_t \&gt;::getDelta">
<polygon fill="white" stroke="black" points="402,-60.5 402,-81.5 544,-81.5 544,-60.5 402,-60.5"/>
<text text-anchor="middle" x="473" y="-68.5" font-family="Helvetica,sans-Serif" font-size="10.00">Array&lt; Sample_t &gt;::getDelta</text>
</a>
</g>
<!-- Node3&#45;&gt;Node4 -->
<g id="edge6" class="edge"><title>Node3&#45;&gt;Node4</title>
<path fill="none" stroke="midnightblue" d="M337.03,-71C354.564,-71 373.524,-71 391.561,-71"/>
<polygon fill="midnightblue" stroke="midnightblue" points="391.762,-74.5001 401.762,-71 391.762,-67.5001 391.762,-74.5001"/>
</g>
<!-- Node4&#45;&gt;Node4 -->
<g id="edge8" class="edge"><title>Node4&#45;&gt;Node4</title>
<path fill="none" stroke="midnightblue" d="M444.082,-81.7079C431.724,-90.6531 441.363,-100 473,-100 493.762,-100 505.05,-95.9746 506.864,-90.6791"/>
<polygon fill="midnightblue" stroke="midnightblue" points="509.811,-88.7751 501.918,-81.7079 503.681,-92.1549 509.811,-88.7751"/>
</g>
<!-- Node5 -->
<g id="node10" class="node"><title>Node5</title>
<a xlink:href="class_array.html#a94bb8954df95b259c7fadf175f531b6b" target="_top" xlink:title="Array::setDeviceName">
<polygon fill="white" stroke="black" points="597,-120.5 597,-141.5 713,-141.5 713,-120.5 597,-120.5"/>
<text text-anchor="middle" x="655" y="-128.5" font-family="Helvetica,sans-Serif" font-size="10.00">Array::setDeviceName</text>
</a>
</g>
<!-- Node4&#45;&gt;Node5 -->
<g id="edge10" class="edge"><title>Node4&#45;&gt;Node5</title>
<path fill="none" stroke="midnightblue" d="M499.134,-81.5822C520.647,-90.0955 552.04,-102.069 580,-111 587.23,-113.309 594.908,-115.571 602.489,-117.693"/>
<polygon fill="midnightblue" stroke="midnightblue" points="601.781,-121.128 612.351,-120.396 603.631,-114.377 601.781,-121.128"/>
</g>
<!-- Node6 -->
<g id="node12" class="node"><title>Node6</title>
<a xlink:href="class_array.html#a5b752093b1b3ab4d82707115d1f41adc" target="_top" xlink:title="Array::setSize">
<polygon fill="white" stroke="black" points="615.5,-80.5 615.5,-101.5 694.5,-101.5 694.5,-80.5 615.5,-80.5"/>
<text text-anchor="middle" x="655" y="-88.5" font-family="Helvetica,sans-Serif" font-size="10.00">Array::setSize</text>
</a>
</g>
<!-- Node4&#45;&gt;Node6 -->
<g id="edge12" class="edge"><title>Node4&#45;&gt;Node6</title>
<path fill="none" stroke="midnightblue" d="M544.148,-78.8185C564.589,-81.0648 586.435,-83.4654 605.283,-85.5366"/>
<polygon fill="midnightblue" stroke="midnightblue" points="605.095,-89.037 615.418,-86.6503 605.86,-82.0789 605.095,-89.037"/>
</g>
<!-- Node7 -->
<g id="node14" class="node"><title>Node7</title>
<a xlink:href="class_array.html#af4cbe83b9a05e769dd54007402b9b3e1" target="_top" xlink:title="Used simply to keep tracking of smoothing parameters throughout the workflow.">
<polygon fill="white" stroke="black" points="602,-40.5 602,-61.5 708,-61.5 708,-40.5 602,-40.5"/>
<text text-anchor="middle" x="655" y="-48.5" font-family="Helvetica,sans-Serif" font-size="10.00">Array::setSmoothing</text>
</a>
</g>
<!-- Node4&#45;&gt;Node7 -->
<g id="edge14" class="edge"><title>Node4&#45;&gt;Node7</title>
<path fill="none" stroke="midnightblue" d="M544.148,-63.1815C559.932,-61.447 576.554,-59.6204 591.987,-57.9246"/>
<polygon fill="midnightblue" stroke="midnightblue" points="592.377,-61.4028 601.935,-56.8313 591.613,-54.4446 592.377,-61.4028"/>
</g>
<!-- Node8 -->
<g id="node16" class="node"><title>Node8</title>
<a xlink:href="class_array.html#a0af1f966c6f45c8ff7949ca8b290e01a" target="_top" xlink:title="Array::setUpstreamSmoothing">
<polygon fill="white" stroke="black" points="580.5,-0.5 580.5,-21.5 729.5,-21.5 729.5,-0.5 580.5,-0.5"/>
<text text-anchor="middle" x="655" y="-8.5" font-family="Helvetica,sans-Serif" font-size="10.00">Array::setUpstreamSmoothing</text>
</a>
</g>
<!-- Node4&#45;&gt;Node8 -->
<g id="edge16" class="edge"><title>Node4&#45;&gt;Node8</title>
<path fill="none" stroke="midnightblue" d="M499.134,-60.4178C520.647,-51.9045 552.04,-39.9308 580,-31 587.23,-28.6907 594.908,-26.4295 602.489,-24.3069"/>
<polygon fill="midnightblue" stroke="midnightblue" points="603.631,-27.6229 612.351,-21.6042 601.781,-20.8718 603.631,-27.6229"/>
</g>
</g>
</svg>
