<?xml version="1.0" encoding="UTF-8" standalone="no"?>
<!DOCTYPE svg PUBLIC "-//W3C//DTD SVG 1.1//EN"
 "http://www.w3.org/Graphics/SVG/1.1/DTD/svg11.dtd">
<!-- Generated by graphviz version 2.26.3 (20100126.1600)
 -->
<!-- Title: G Pages: 1 -->
<svg width="458pt" height="70pt"
 viewBox="0.00 0.00 458.00 70.00" xmlns="http://www.w3.org/2000/svg" xmlns:xlink="http://www.w3.org/1999/xlink">
<g id="graph1" class="graph" transform="scale(1 1) rotate(0) translate(4 66)">
<title>G</title>
<polygon fill="white" stroke="white" points="-4,5 -4,-66 455,-66 455,5 -4,5"/>
<!-- Node1 -->
<g id="node1" class="node"><title>Node1</title>
<polygon fill="#bfbfbf" stroke="black" points="0.5,-20.5 0.5,-41.5 93.5,-41.5 93.5,-20.5 0.5,-20.5"/>
<text text-anchor="middle" x="47" y="-28.5" font-family="Helvetica,sans-Serif" font-size="10.00">Array::drawGraph</text>
</g>
<!-- Node2 -->
<g id="node3" class="node"><title>Node2</title>
<a xlink:href="class_signature.html#a3ddd7b321b4eda212b310c8462febf3f" target="_top" xlink:title="Constructor for opening a CSV file.">
<polygon fill="white" stroke="black" points="152.5,-40.5 152.5,-61.5 257.5,-61.5 257.5,-40.5 152.5,-40.5"/>
<text text-anchor="middle" x="205" y="-48.5" font-family="Helvetica,sans-Serif" font-size="10.00">Signature::Signature</text>
</a>
</g>
<!-- Node1&#45;&gt;Node2 -->
<g id="edge2" class="edge"><title>Node1&#45;&gt;Node2</title>
<path fill="none" stroke="midnightblue" d="M103.759,-38.1847C119.626,-40.1931 136.795,-42.3664 152.409,-44.3429"/>
<polygon fill="midnightblue" stroke="midnightblue" points="103.911,-34.6761 93.5506,-36.8925 103.032,-41.6207 103.911,-34.6761"/>
</g>
<!-- Node3 -->
<g id="node5" class="node"><title>Node3</title>
<a xlink:href="class_signature.html#afebb6e34dcba3d828093eba1ffc7fad6" target="_top" xlink:title="Runs through signature data to find power states and stores the resulting power states in powerStates...">
<polygon fill="white" stroke="black" points="130.5,-0.5 130.5,-21.5 279.5,-21.5 279.5,-0.5 130.5,-0.5"/>
<text text-anchor="middle" x="205" y="-8.5" font-family="Helvetica,sans-Serif" font-size="10.00">Signature::updatePowerStates</text>
</a>
</g>
<!-- Node1&#45;&gt;Node3 -->
<g id="edge4" class="edge"><title>Node1&#45;&gt;Node3</title>
<path fill="none" stroke="midnightblue" d="M103.543,-23.8427C112.234,-22.7426 121.32,-21.5924 130.33,-20.4518"/>
<polygon fill="midnightblue" stroke="midnightblue" points="103.032,-20.3793 93.5506,-25.1075 103.911,-27.3239 103.032,-20.3793"/>
</g>
<!-- Node4 -->
<g id="node7" class="node"><title>Node4</title>
<a xlink:href="class_signature.html#ada861d4b0e402605478abc4217f35979" target="_top" xlink:title="Signature::getPowerStates">
<polygon fill="white" stroke="black" points="316,-0.5 316,-21.5 450,-21.5 450,-0.5 316,-0.5"/>
<text text-anchor="middle" x="383" y="-8.5" font-family="Helvetica,sans-Serif" font-size="10.00">Signature::getPowerStates</text>
</a>
</g>
<!-- Node3&#45;&gt;Node4 -->
<g id="edge6" class="edge"><title>Node3&#45;&gt;Node4</title>
<path fill="none" stroke="midnightblue" d="M289.893,-11C298.602,-11 307.363,-11 315.842,-11"/>
<polygon fill="midnightblue" stroke="midnightblue" points="289.714,-7.5001 279.714,-11 289.714,-14.5001 289.714,-7.5001"/>
</g>
</g>
</svg>
