<?xml version="1.0" encoding="UTF-8" standalone="no"?>
<!DOCTYPE svg PUBLIC "-//W3C//DTD SVG 1.1//EN"
 "http://www.w3.org/Graphics/SVG/1.1/DTD/svg11.dtd">
<!-- Generated by graphviz version 2.26.3 (20100126.1600)
 -->
<!-- Title: G Pages: 1 -->
<svg width="892pt" height="230pt"
 viewBox="0.00 0.00 892.00 230.00" xmlns="http://www.w3.org/2000/svg" xmlns:xlink="http://www.w3.org/1999/xlink">
<g id="graph1" class="graph" transform="scale(1 1) rotate(0) translate(4 226)">
<title>G</title>
<polygon fill="white" stroke="white" points="-4,5 -4,-226 889,-226 889,5 -4,5"/>
<!-- Node1 -->
<g id="node1" class="node"><title>Node1</title>
<polygon fill="#bfbfbf" stroke="black" points="0,-160.5 0,-181.5 188,-181.5 188,-160.5 0,-160.5"/>
<text text-anchor="middle" x="94" y="-168.5" font-family="Helvetica,sans-Serif" font-size="10.00">Signature::updatePowerStateSequence</text>
</g>
<!-- Node2 -->
<g id="node3" class="node"><title>Node2</title>
<a xlink:href="class_signature.html#ad298320a4b490ba402d3f5489ce3651a" target="_top" xlink:title="Signature::getPowerState">
<polygon fill="white" stroke="black" points="240,-200.5 240,-221.5 368,-221.5 368,-200.5 240,-200.5"/>
<text text-anchor="middle" x="304" y="-208.5" font-family="Helvetica,sans-Serif" font-size="10.00">Signature::getPowerState</text>
</a>
</g>
<!-- Node1&#45;&gt;Node2 -->
<g id="edge2" class="edge"><title>Node1&#45;&gt;Node2</title>
<path fill="none" stroke="midnightblue" d="M149.175,-181.51C176.678,-186.748 210.117,-193.118 238.871,-198.595"/>
<polygon fill="midnightblue" stroke="midnightblue" points="238.351,-202.058 248.829,-200.491 239.661,-195.182 238.351,-202.058"/>
</g>
<!-- Node4 -->
<g id="node7" class="node"><title>Node4</title>
<a xlink:href="class_power_state_sequence.html#a52cd95f5d505d6e199eb96fb488b4658" target="_top" xlink:title="PowerStateSequence::plotGraph">
<polygon fill="white" stroke="black" points="224.5,-160.5 224.5,-181.5 383.5,-181.5 383.5,-160.5 224.5,-160.5"/>
<text text-anchor="middle" x="304" y="-168.5" font-family="Helvetica,sans-Serif" font-size="10.00">PowerStateSequence::plotGraph</text>
</a>
</g>
<!-- Node1&#45;&gt;Node4 -->
<g id="edge6" class="edge"><title>Node1&#45;&gt;Node4</title>
<path fill="none" stroke="midnightblue" d="M188.25,-171C196.949,-171 205.748,-171 214.404,-171"/>
<polygon fill="midnightblue" stroke="midnightblue" points="214.485,-174.5 224.485,-171 214.485,-167.5 214.485,-174.5"/>
</g>
<!-- Node9 -->
<g id="node18" class="node"><title>Node9</title>
<a xlink:href="class_array.html#a6603ebeb68bb0c1b493f0808d5694498" target="_top" xlink:title="Returns a rolling average of same length as the original array.">
<polygon fill="white" stroke="black" points="232.5,-80.5 232.5,-101.5 375.5,-101.5 375.5,-80.5 232.5,-80.5"/>
<text text-anchor="middle" x="304" y="-88.5" font-family="Helvetica,sans-Serif" font-size="10.00">Array&lt; Sample_t &gt;::rollingAv</text>
</a>
</g>
<!-- Node1&#45;&gt;Node9 -->
<g id="edge18" class="edge"><title>Node1&#45;&gt;Node9</title>
<path fill="none" stroke="midnightblue" d="M121.886,-160.377C159.174,-146.172 225.378,-120.951 266.86,-105.148"/>
<polygon fill="midnightblue" stroke="midnightblue" points="268.234,-108.371 276.333,-101.54 265.742,-101.829 268.234,-108.371"/>
</g>
<!-- Node3 -->
<g id="node5" class="node"><title>Node3</title>
<a xlink:href="namespace_utils.html#a17211384a3579f952022415556bcda62" target="_top" xlink:title="Utils::roundToNearestInt">
<polygon fill="white" stroke="black" points="433,-200.5 433,-221.5 557,-221.5 557,-200.5 433,-200.5"/>
<text text-anchor="middle" x="495" y="-208.5" font-family="Helvetica,sans-Serif" font-size="10.00">Utils::roundToNearestInt</text>
</a>
</g>
<!-- Node2&#45;&gt;Node3 -->
<g id="edge4" class="edge"><title>Node2&#45;&gt;Node3</title>
<path fill="none" stroke="midnightblue" d="M368.132,-211C385.698,-211 404.857,-211 422.84,-211"/>
<polygon fill="midnightblue" stroke="midnightblue" points="422.981,-214.5 432.981,-211 422.981,-207.5 422.981,-214.5"/>
</g>
<!-- Node5 -->
<g id="node9" class="node"><title>Node5</title>
<a xlink:href="namespace_g_n_uplot.html#ab276a6d946560395f9d6caa8cb6cb640" target="_top" xlink:title="Plot a graph using GNUplot.">
<polygon fill="white" stroke="black" points="456.5,-160.5 456.5,-181.5 533.5,-181.5 533.5,-160.5 456.5,-160.5"/>
<text text-anchor="middle" x="495" y="-168.5" font-family="Helvetica,sans-Serif" font-size="10.00">GNUplot::plot</text>
</a>
</g>
<!-- Node4&#45;&gt;Node5 -->
<g id="edge8" class="edge"><title>Node4&#45;&gt;Node5</title>
<path fill="none" stroke="midnightblue" d="M383.618,-171C404.864,-171 427.189,-171 446.227,-171"/>
<polygon fill="midnightblue" stroke="midnightblue" points="446.437,-174.5 456.437,-171 446.437,-167.5 446.437,-174.5"/>
</g>
<!-- Node6 -->
<g id="node11" class="node"><title>Node6</title>
<a xlink:href="namespace_utils.html#ae7741f30cf104d6660673d7c336ef5cc" target="_top" xlink:title="Utils::fileExists">
<polygon fill="white" stroke="black" points="637.5,-200.5 637.5,-221.5 720.5,-221.5 720.5,-200.5 637.5,-200.5"/>
<text text-anchor="middle" x="679" y="-208.5" font-family="Helvetica,sans-Serif" font-size="10.00">Utils::fileExists</text>
</a>
</g>
<!-- Node5&#45;&gt;Node6 -->
<g id="edge10" class="edge"><title>Node5&#45;&gt;Node6</title>
<path fill="none" stroke="midnightblue" d="M533.572,-179.385C560.84,-185.313 597.689,-193.324 627.471,-199.798"/>
<polygon fill="midnightblue" stroke="midnightblue" points="626.761,-203.225 637.276,-201.93 628.248,-196.385 626.761,-203.225"/>
</g>
<!-- Node7 -->
<g id="node13" class="node"><title>Node7</title>
<a xlink:href="namespace_g_n_uplot.html#a1a232691d61b3e55fdcc406a3a2e9c1f" target="_top" xlink:title="Replaces all the tokens in the template file &#39;config/plotVars.inFilename&#39; with variables from...">
<polygon fill="white" stroke="black" points="606,-160.5 606,-181.5 752,-181.5 752,-160.5 606,-160.5"/>
<text text-anchor="middle" x="679" y="-168.5" font-family="Helvetica,sans-Serif" font-size="10.00">GNUplot::instantiateTemplate</text>
</a>
</g>
<!-- Node5&#45;&gt;Node7 -->
<g id="edge12" class="edge"><title>Node5&#45;&gt;Node7</title>
<path fill="none" stroke="midnightblue" d="M533.572,-171C551.676,-171 574.003,-171 595.682,-171"/>
<polygon fill="midnightblue" stroke="midnightblue" points="595.914,-174.5 605.914,-171 595.914,-167.5 595.914,-174.5"/>
</g>
<!-- Node8 -->
<g id="node15" class="node"><title>Node8</title>
<a xlink:href="namespace_g_n_uplot.html#a60ecface5bf85a5e3e2e1743bd266737" target="_top" xlink:title="Replace all characters which might confuse &#39;sed&#39;.">
<polygon fill="white" stroke="black" points="788.5,-140.5 788.5,-161.5 883.5,-161.5 883.5,-140.5 788.5,-140.5"/>
<text text-anchor="middle" x="836" y="-148.5" font-family="Helvetica,sans-Serif" font-size="10.00">GNUplot::sanitise</text>
</a>
</g>
<!-- Node5&#45;&gt;Node8 -->
<g id="edge16" class="edge"><title>Node5&#45;&gt;Node8</title>
<path fill="none" stroke="midnightblue" d="M533.555,-162.308C554.801,-157.96 581.718,-153.17 606,-151 664.421,-145.779 731.524,-146.549 778.111,-148.155"/>
<polygon fill="midnightblue" stroke="midnightblue" points="778.194,-151.66 788.316,-148.531 778.452,-144.665 778.194,-151.66"/>
</g>
<!-- Node7&#45;&gt;Node8 -->
<g id="edge14" class="edge"><title>Node7&#45;&gt;Node8</title>
<path fill="none" stroke="midnightblue" d="M752.444,-161.644C761.068,-160.546 769.773,-159.437 778.142,-158.37"/>
<polygon fill="midnightblue" stroke="midnightblue" points="778.678,-161.831 788.155,-157.095 777.793,-154.887 778.678,-161.831"/>
</g>
<!-- Node9&#45;&gt;Node9 -->
<g id="edge20" class="edge"><title>Node9&#45;&gt;Node9</title>
<path fill="none" stroke="midnightblue" d="M273.811,-101.708C260.91,-110.653 270.973,-120 304,-120 326.19,-120 338.014,-115.781 339.471,-110.299"/>
<polygon fill="midnightblue" stroke="midnightblue" points="342.408,-108.393 334.189,-101.708 336.445,-112.06 342.408,-108.393"/>
</g>
<!-- Node10 -->
<g id="node21" class="node"><title>Node10</title>
<a xlink:href="class_array.html#a94bb8954df95b259c7fadf175f531b6b" target="_top" xlink:title="Array::setDeviceName">
<polygon fill="white" stroke="black" points="437,-120.5 437,-141.5 553,-141.5 553,-120.5 437,-120.5"/>
<text text-anchor="middle" x="495" y="-128.5" font-family="Helvetica,sans-Serif" font-size="10.00">Array::setDeviceName</text>
</a>
</g>
<!-- Node9&#45;&gt;Node10 -->
<g id="edge22" class="edge"><title>Node9&#45;&gt;Node10</title>
<path fill="none" stroke="midnightblue" d="M354.183,-101.51C378.869,-106.679 408.815,-112.951 434.734,-118.379"/>
<polygon fill="midnightblue" stroke="midnightblue" points="434.316,-121.867 444.821,-120.491 435.751,-115.016 434.316,-121.867"/>
</g>
<!-- Node11 -->
<g id="node23" class="node"><title>Node11</title>
<a xlink:href="class_array.html#a5b752093b1b3ab4d82707115d1f41adc" target="_top" xlink:title="Array::setSize">
<polygon fill="white" stroke="black" points="455.5,-80.5 455.5,-101.5 534.5,-101.5 534.5,-80.5 455.5,-80.5"/>
<text text-anchor="middle" x="495" y="-88.5" font-family="Helvetica,sans-Serif" font-size="10.00">Array::setSize</text>
</a>
</g>
<!-- Node9&#45;&gt;Node11 -->
<g id="edge24" class="edge"><title>Node9&#45;&gt;Node11</title>
<path fill="none" stroke="midnightblue" d="M375.665,-91C398.862,-91 424.063,-91 445.303,-91"/>
<polygon fill="midnightblue" stroke="midnightblue" points="445.386,-94.5001 455.386,-91 445.386,-87.5001 445.386,-94.5001"/>
</g>
<!-- Node12 -->
<g id="node25" class="node"><title>Node12</title>
<a xlink:href="class_array.html#af4cbe83b9a05e769dd54007402b9b3e1" target="_top" xlink:title="Used simply to keep tracking of smoothing parameters throughout the workflow.">
<polygon fill="white" stroke="black" points="442,-40.5 442,-61.5 548,-61.5 548,-40.5 442,-40.5"/>
<text text-anchor="middle" x="495" y="-48.5" font-family="Helvetica,sans-Serif" font-size="10.00">Array::setSmoothing</text>
</a>
</g>
<!-- Node9&#45;&gt;Node12 -->
<g id="edge26" class="edge"><title>Node9&#45;&gt;Node12</title>
<path fill="none" stroke="midnightblue" d="M354.183,-80.4905C378.869,-75.3205 408.815,-69.0492 434.734,-63.6212"/>
<polygon fill="midnightblue" stroke="midnightblue" points="435.751,-66.9842 444.821,-61.5087 434.316,-60.1329 435.751,-66.9842"/>
</g>
<!-- Node13 -->
<g id="node27" class="node"><title>Node13</title>
<a xlink:href="class_array.html#a0af1f966c6f45c8ff7949ca8b290e01a" target="_top" xlink:title="Array::setUpstreamSmoothing">
<polygon fill="white" stroke="black" points="420.5,-0.5 420.5,-21.5 569.5,-21.5 569.5,-0.5 420.5,-0.5"/>
<text text-anchor="middle" x="495" y="-8.5" font-family="Helvetica,sans-Serif" font-size="10.00">Array::setUpstreamSmoothing</text>
</a>
</g>
<!-- Node9&#45;&gt;Node13 -->
<g id="edge28" class="edge"><title>Node9&#45;&gt;Node13</title>
<path fill="none" stroke="midnightblue" d="M321.523,-80.4024C343.766,-67.3151 383.626,-45.065 420,-31 426.021,-28.6717 432.415,-26.5144 438.832,-24.5456"/>
<polygon fill="midnightblue" stroke="midnightblue" points="440.266,-27.7732 448.883,-21.6096 438.303,-21.0539 440.266,-27.7732"/>
</g>
</g>
</svg>
