<?xml version="1.0" encoding="UTF-8" standalone="no"?>
<!DOCTYPE svg PUBLIC "-//W3C//DTD SVG 1.1//EN"
 "http://www.w3.org/Graphics/SVG/1.1/DTD/svg11.dtd">
<!-- Generated by graphviz version 2.26.3 (20100126.1600)
 -->
<!-- Title: G Pages: 1 -->
<svg width="464pt" height="70pt"
 viewBox="0.00 0.00 464.00 70.00" xmlns="http://www.w3.org/2000/svg" xmlns:xlink="http://www.w3.org/1999/xlink">
<g id="graph1" class="graph" transform="scale(1 1) rotate(0) translate(4 66)">
<title>G</title>
<polygon fill="white" stroke="white" points="-4,5 -4,-66 461,-66 461,5 -4,5"/>
<!-- Node1 -->
<g id="node1" class="node"><title>Node1</title>
<polygon fill="#bfbfbf" stroke="black" points="0,-20.5 0,-41.5 168,-41.5 168,-20.5 0,-20.5"/>
<text text-anchor="middle" x="84" y="-28.5" font-family="Helvetica,sans-Serif" font-size="10.00">PowerStateSequence::dumpToFile</text>
</g>
<!-- Node2 -->
<g id="node3" class="node"><title>Node2</title>
<a xlink:href="namespace_utils.html#afb991f08a33e9d7f3298e60f3bf76960" target="_top" xlink:title="Utils::openFile">
<polygon fill="white" stroke="black" points="230,-40.5 230,-61.5 310,-61.5 310,-40.5 230,-40.5"/>
<text text-anchor="middle" x="270" y="-48.5" font-family="Helvetica,sans-Serif" font-size="10.00">Utils::openFile</text>
</a>
</g>
<!-- Node1&#45;&gt;Node2 -->
<g id="edge2" class="edge"><title>Node1&#45;&gt;Node2</title>
<path fill="none" stroke="midnightblue" d="M168.021,-40.0345C185.711,-41.9367 203.839,-43.8859 219.811,-45.6033"/>
<polygon fill="midnightblue" stroke="midnightblue" points="219.653,-49.1064 229.97,-46.6957 220.401,-42.1465 219.653,-49.1064"/>
</g>
<!-- Node4 -->
<g id="node7" class="node"><title>Node4</title>
<a xlink:href="namespace_utils.html#ad28fafe838d3cd32b88d34ee6527e0d8" target="_top" xlink:title="Utils::todaysDateAndTime">
<polygon fill="white" stroke="black" points="204,-0.5 204,-21.5 336,-21.5 336,-0.5 204,-0.5"/>
<text text-anchor="middle" x="270" y="-8.5" font-family="Helvetica,sans-Serif" font-size="10.00">Utils::todaysDateAndTime</text>
</a>
</g>
<!-- Node1&#45;&gt;Node4 -->
<g id="edge6" class="edge"><title>Node1&#45;&gt;Node4</title>
<path fill="none" stroke="midnightblue" d="M168.021,-21.9655C176.577,-21.0455 185.234,-20.1146 193.701,-19.2042"/>
<polygon fill="midnightblue" stroke="midnightblue" points="194.346,-22.6551 203.914,-18.106 193.598,-15.6952 194.346,-22.6551"/>
</g>
<!-- Node3 -->
<g id="node5" class="node"><title>Node3</title>
<a xlink:href="namespace_utils.html#a5f35365dae06a93f4bbf0f406a78b90b" target="_top" xlink:title="Utils::fatalError">
<polygon fill="white" stroke="black" points="372.5,-40.5 372.5,-61.5 455.5,-61.5 455.5,-40.5 372.5,-40.5"/>
<text text-anchor="middle" x="414" y="-48.5" font-family="Helvetica,sans-Serif" font-size="10.00">Utils::fatalError</text>
</a>
</g>
<!-- Node2&#45;&gt;Node3 -->
<g id="edge4" class="edge"><title>Node2&#45;&gt;Node3</title>
<path fill="none" stroke="midnightblue" d="M310.112,-51C326.17,-51 344.879,-51 361.96,-51"/>
<polygon fill="midnightblue" stroke="midnightblue" points="362.348,-54.5001 372.348,-51 362.348,-47.5001 362.348,-54.5001"/>
</g>
</g>
</svg>
