<?xml version="1.0" encoding="UTF-8" standalone="no"?>
<!DOCTYPE svg PUBLIC "-//W3C//DTD SVG 1.1//EN"
 "http://www.w3.org/Graphics/SVG/1.1/DTD/svg11.dtd">
<!-- Generated by graphviz version 2.26.3 (20100126.1600)
 -->
<!-- Title: G Pages: 1 -->
<svg width="1180pt" height="170pt"
 viewBox="0.00 0.00 1180.00 170.00" xmlns="http://www.w3.org/2000/svg" xmlns:xlink="http://www.w3.org/1999/xlink">
<g id="graph1" class="graph" transform="scale(1 1) rotate(0) translate(4 166)">
<title>G</title>
<polygon fill="white" stroke="white" points="-4,5 -4,-166 1177,-166 1177,5 -4,5"/>
<!-- Node1 -->
<g id="node1" class="node"><title>Node1</title>
<polygon fill="#bfbfbf" stroke="black" points="0,-60.5 0,-81.5 106,-81.5 106,-60.5 0,-60.5"/>
<text text-anchor="middle" x="53" y="-68.5" font-family="Helvetica,sans-Serif" font-size="10.00">Array::setSmoothing</text>
</g>
<!-- Node2 -->
<g id="node3" class="node"><title>Node2</title>
<a xlink:href="class_array.html#adeb6ee31eaa806644ce52552b8fc8bc1" target="_top" xlink:title="Array\&lt; Sample_t \&gt;::getDelta">
<polygon fill="white" stroke="black" points="143,-80.5 143,-101.5 285,-101.5 285,-80.5 143,-80.5"/>
<text text-anchor="middle" x="214" y="-88.5" font-family="Helvetica,sans-Serif" font-size="10.00">Array&lt; Sample_t &gt;::getDelta</text>
</a>
</g>
<!-- Node1&#45;&gt;Node2 -->
<g id="edge2" class="edge"><title>Node1&#45;&gt;Node2</title>
<path fill="none" stroke="midnightblue" d="M116.238,-78.8556C124.953,-79.9382 133.951,-81.056 142.797,-82.1549"/>
<polygon fill="midnightblue" stroke="midnightblue" points="116.519,-75.3637 106.164,-77.6042 115.656,-82.3103 116.519,-75.3637"/>
</g>
<!-- Node10 -->
<g id="node19" class="node"><title>Node10</title>
<a xlink:href="class_array.html#a6603ebeb68bb0c1b493f0808d5694498" target="_top" xlink:title="Returns a rolling average of same length as the original array.">
<polygon fill="white" stroke="black" points="142.5,-40.5 142.5,-61.5 285.5,-61.5 285.5,-40.5 142.5,-40.5"/>
<text text-anchor="middle" x="214" y="-48.5" font-family="Helvetica,sans-Serif" font-size="10.00">Array&lt; Sample_t &gt;::rollingAv</text>
</a>
</g>
<!-- Node1&#45;&gt;Node10 -->
<g id="edge18" class="edge"><title>Node1&#45;&gt;Node10</title>
<path fill="none" stroke="midnightblue" d="M116.358,-63.1295C124.846,-62.0751 133.6,-60.9875 142.22,-59.9168"/>
<polygon fill="midnightblue" stroke="midnightblue" points="115.656,-59.6897 106.164,-64.3958 116.519,-66.6363 115.656,-59.6897"/>
</g>
<!-- Node3 -->
<g id="node5" class="node"><title>Node3</title>
<a xlink:href="class_signature.html#a6bf289b7aa40eb2791d13d8669089953" target="_top" xlink:title="Merge consecutive spikes of the same sign and then remove any spikes under 10 Watts.">
<polygon fill="white" stroke="black" points="346,-120.5 346,-141.5 486,-141.5 486,-120.5 346,-120.5"/>
<text text-anchor="middle" x="416" y="-128.5" font-family="Helvetica,sans-Serif" font-size="10.00">Signature::getMergedSpikes</text>
</a>
</g>
<!-- Node2&#45;&gt;Node3 -->
<g id="edge4" class="edge"><title>Node2&#45;&gt;Node3</title>
<path fill="none" stroke="midnightblue" d="M277.015,-103.478C304.592,-108.939 336.592,-115.276 362.931,-120.491"/>
<polygon fill="midnightblue" stroke="midnightblue" points="277.563,-100.019 267.073,-101.51 276.203,-106.885 277.563,-100.019"/>
</g>
<!-- Node9 -->
<g id="node17" class="node"><title>Node9</title>
<a xlink:href="class_signature.html#a3ddd7b321b4eda212b310c8462febf3f" target="_top" xlink:title="Constructor for opening a CSV file.">
<polygon fill="white" stroke="black" points="363.5,-80.5 363.5,-101.5 468.5,-101.5 468.5,-80.5 363.5,-80.5"/>
<text text-anchor="middle" x="416" y="-88.5" font-family="Helvetica,sans-Serif" font-size="10.00">Signature::Signature</text>
</a>
</g>
<!-- Node2&#45;&gt;Node9 -->
<g id="edge16" class="edge"><title>Node2&#45;&gt;Node9</title>
<path fill="none" stroke="midnightblue" d="M295.27,-91C318.156,-91 342.449,-91 363.197,-91"/>
<polygon fill="midnightblue" stroke="midnightblue" points="295.218,-87.5001 285.218,-91 295.218,-94.5001 295.218,-87.5001"/>
</g>
<!-- Node4 -->
<g id="node7" class="node"><title>Node4</title>
<a xlink:href="class_signature.html#a02acc8e9f1ceb1af2908807eb1526fcd" target="_top" xlink:title="Takes the gradient of this Signature, then merges gradient values with the same sign, then removes transient spikes, then sorts by value.">
<polygon fill="white" stroke="black" points="566.5,-120.5 566.5,-141.5 697.5,-141.5 697.5,-120.5 566.5,-120.5"/>
<text text-anchor="middle" x="632" y="-128.5" font-family="Helvetica,sans-Serif" font-size="10.00">Signature::getDeltaSpikes</text>
</a>
</g>
<!-- Node3&#45;&gt;Node4 -->
<g id="edge6" class="edge"><title>Node3&#45;&gt;Node4</title>
<path fill="none" stroke="midnightblue" d="M496.234,-131C519.298,-131 544.175,-131 566.255,-131"/>
<polygon fill="midnightblue" stroke="midnightblue" points="496.129,-127.5 486.129,-131 496.129,-134.5 496.129,-127.5"/>
</g>
<!-- Node5 -->
<g id="node9" class="node"><title>Node5</title>
<a xlink:href="class_power_state_graph.html#a90ebffe4864640182b342a814af0f0a7" target="_top" xlink:title="Update or initialise Power State Graph.">
<polygon fill="white" stroke="black" points="768.5,-140.5 768.5,-161.5 897.5,-161.5 897.5,-140.5 768.5,-140.5"/>
<text text-anchor="middle" x="833" y="-148.5" font-family="Helvetica,sans-Serif" font-size="10.00">PowerStateGraph::update</text>
</a>
</g>
<!-- Node4&#45;&gt;Node5 -->
<g id="edge8" class="edge"><title>Node4&#45;&gt;Node5</title>
<path fill="none" stroke="midnightblue" d="M707.526,-138.515C727.504,-140.503 748.887,-142.631 768.239,-144.556"/>
<polygon fill="midnightblue" stroke="midnightblue" points="707.834,-135.028 697.537,-137.521 707.141,-141.994 707.834,-135.028"/>
</g>
<!-- Node8 -->
<g id="node15" class="node"><title>Node8</title>
<a xlink:href="class_power_state_graph.html#a26384a0a6d9867d336814b70b7a22cd3" target="_top" xlink:title="Update (or create) directional edges between power states (vertices) so the edges are consistent with...">
<polygon fill="white" stroke="black" points="754.5,-100.5 754.5,-121.5 911.5,-121.5 911.5,-100.5 754.5,-100.5"/>
<text text-anchor="middle" x="833" y="-108.5" font-family="Helvetica,sans-Serif" font-size="10.00">PowerStateGraph::updateEdges</text>
</a>
</g>
<!-- Node4&#45;&gt;Node8 -->
<g id="edge14" class="edge"><title>Node4&#45;&gt;Node8</title>
<path fill="none" stroke="midnightblue" d="M707.882,-123.45C723.036,-121.942 738.986,-120.355 754.234,-118.837"/>
<polygon fill="midnightblue" stroke="midnightblue" points="707.141,-120.006 697.537,-124.479 707.834,-126.972 707.141,-120.006"/>
</g>
<!-- Node6 -->
<g id="node11" class="node"><title>Node6</title>
<a xlink:href="class_device.html#ad3d9721aca89723e22cf723149a39583" target="_top" xlink:title="Trains the powerStateGraph using signatures declared with loadSignatures(). To be called once signatu...">
<polygon fill="white" stroke="black" points="948.5,-140.5 948.5,-161.5 1097.5,-161.5 1097.5,-140.5 948.5,-140.5"/>
<text text-anchor="middle" x="1023" y="-148.5" font-family="Helvetica,sans-Serif" font-size="10.00">Device::trainPowerStateGraph</text>
</a>
</g>
<!-- Node5&#45;&gt;Node6 -->
<g id="edge10" class="edge"><title>Node5&#45;&gt;Node6</title>
<path fill="none" stroke="midnightblue" d="M907.703,-151C921.095,-151 935.051,-151 948.44,-151"/>
<polygon fill="midnightblue" stroke="midnightblue" points="907.59,-147.5 897.59,-151 907.59,-154.5 907.59,-147.5"/>
</g>
<!-- Node7 -->
<g id="node13" class="node"><title>Node7</title>
<a xlink:href="_main_8cpp.html#a0ddf1224851353fc92bfbff6f499fa97" target="_top" xlink:title="main">
<polygon fill="white" stroke="black" points="1134,-140.5 1134,-161.5 1172,-161.5 1172,-140.5 1134,-140.5"/>
<text text-anchor="middle" x="1153" y="-148.5" font-family="Helvetica,sans-Serif" font-size="10.00">main</text>
</a>
</g>
<!-- Node6&#45;&gt;Node7 -->
<g id="edge12" class="edge"><title>Node6&#45;&gt;Node7</title>
<path fill="none" stroke="midnightblue" d="M1108.02,-151C1117.57,-151 1126.49,-151 1133.82,-151"/>
<polygon fill="midnightblue" stroke="midnightblue" points="1107.87,-147.5 1097.87,-151 1107.87,-154.5 1107.87,-147.5"/>
</g>
<!-- Node11 -->
<g id="node21" class="node"><title>Node11</title>
<a xlink:href="class_signature.html#afebb6e34dcba3d828093eba1ffc7fad6" target="_top" xlink:title="Runs through signature data to find power states and stores the resulting power states in powerStates...">
<polygon fill="white" stroke="black" points="341.5,-40.5 341.5,-61.5 490.5,-61.5 490.5,-40.5 341.5,-40.5"/>
<text text-anchor="middle" x="416" y="-48.5" font-family="Helvetica,sans-Serif" font-size="10.00">Signature::updatePowerStates</text>
</a>
</g>
<!-- Node10&#45;&gt;Node11 -->
<g id="edge20" class="edge"><title>Node10&#45;&gt;Node11</title>
<path fill="none" stroke="midnightblue" d="M295.781,-51C310.788,-51 326.384,-51 341.175,-51"/>
<polygon fill="midnightblue" stroke="midnightblue" points="295.502,-47.5001 285.502,-51 295.502,-54.5001 295.502,-47.5001"/>
</g>
<!-- Node13 -->
<g id="node25" class="node"><title>Node13</title>
<a xlink:href="class_signature.html#af94cd3aa816030f1560410e4ad6f2dcc" target="_top" xlink:title="Finding out where each &#39;powerState&#39; starts and ends.">
<polygon fill="white" stroke="black" points="322,-0.5 322,-21.5 510,-21.5 510,-0.5 322,-0.5"/>
<text text-anchor="middle" x="416" y="-8.5" font-family="Helvetica,sans-Serif" font-size="10.00">Signature::updatePowerStateSequence</text>
</a>
</g>
<!-- Node10&#45;&gt;Node13 -->
<g id="edge24" class="edge"><title>Node10&#45;&gt;Node13</title>
<path fill="none" stroke="midnightblue" d="M277.015,-38.5219C304.592,-33.061 336.592,-26.7243 362.931,-21.5087"/>
<polygon fill="midnightblue" stroke="midnightblue" points="276.203,-35.1146 267.073,-40.4905 277.563,-41.9812 276.203,-35.1146"/>
</g>
<!-- Node12 -->
<g id="node23" class="node"><title>Node12</title>
<a xlink:href="class_signature.html#ada861d4b0e402605478abc4217f35979" target="_top" xlink:title="Signature::getPowerStates">
<polygon fill="white" stroke="black" points="565,-40.5 565,-61.5 699,-61.5 699,-40.5 565,-40.5"/>
<text text-anchor="middle" x="632" y="-48.5" font-family="Helvetica,sans-Serif" font-size="10.00">Signature::getPowerStates</text>
</a>
</g>
<!-- Node11&#45;&gt;Node12 -->
<g id="edge22" class="edge"><title>Node11&#45;&gt;Node12</title>
<path fill="none" stroke="midnightblue" d="M500.665,-51C522.001,-51 544.614,-51 564.952,-51"/>
<polygon fill="midnightblue" stroke="midnightblue" points="500.637,-47.5001 490.637,-51 500.637,-54.5001 500.637,-47.5001"/>
</g>
<!-- Node14 -->
<g id="node27" class="node"><title>Node14</title>
<a xlink:href="class_signature.html#abf3dc6265e852ecb66a928c682e3eb5f" target="_top" xlink:title="Signature::getPowerStateSequence">
<polygon fill="white" stroke="black" points="546,-0.5 546,-21.5 718,-21.5 718,-0.5 546,-0.5"/>
<text text-anchor="middle" x="632" y="-8.5" font-family="Helvetica,sans-Serif" font-size="10.00">Signature::getPowerStateSequence</text>
</a>
</g>
<!-- Node13&#45;&gt;Node14 -->
<g id="edge26" class="edge"><title>Node13&#45;&gt;Node14</title>
<path fill="none" stroke="midnightblue" d="M520.129,-11C528.685,-11 537.274,-11 545.68,-11"/>
<polygon fill="midnightblue" stroke="midnightblue" points="520.112,-7.5001 510.112,-11 520.112,-14.5001 520.112,-7.5001"/>
</g>
</g>
</svg>
