<?xml version="1.0" encoding="UTF-8" standalone="no"?>
<!DOCTYPE svg PUBLIC "-//W3C//DTD SVG 1.1//EN"
 "http://www.w3.org/Graphics/SVG/1.1/DTD/svg11.dtd">
<!-- Generated by graphviz version 2.26.3 (20100126.1600)
 -->
<!-- Title: G Pages: 1 -->
<svg width="968pt" height="468pt"
 viewBox="0.00 0.00 968.00 468.00" xmlns="http://www.w3.org/2000/svg" xmlns:xlink="http://www.w3.org/1999/xlink">
<g id="graph1" class="graph" transform="scale(1 1) rotate(0) translate(4 464)">
<title>G</title>
<polygon fill="white" stroke="white" points="-4,5 -4,-464 965,-464 965,5 -4,5"/>
<!-- Node1 -->
<g id="node1" class="node"><title>Node1</title>
<polygon fill="#bfbfbf" stroke="black" points="0.5,-219.5 0.5,-240.5 129.5,-240.5 129.5,-219.5 0.5,-219.5"/>
<text text-anchor="middle" x="65" y="-227.5" font-family="Helvetica,sans-Serif" font-size="10.00">PowerStateGraph::update</text>
</g>
<!-- Node2 -->
<g id="node3" class="node"><title>Node2</title>
<a xlink:href="struct_signature_1_1_spike.html#ad5c457fd1b72cd723bdf89f715f34abd" target="_top" xlink:title="Signature::Spike::compareIndexAsc">
<polygon fill="white" stroke="black" points="176.5,-418.5 176.5,-439.5 349.5,-439.5 349.5,-418.5 176.5,-418.5"/>
<text text-anchor="middle" x="263" y="-426.5" font-family="Helvetica,sans-Serif" font-size="10.00">Signature::Spike::compareIndexAsc</text>
</a>
</g>
<!-- Node1&#45;&gt;Node2 -->
<g id="edge2" class="edge"><title>Node1&#45;&gt;Node2</title>
<path fill="none" stroke="midnightblue" d="M67.6268,-240.535C76.0027,-271.8 105.174,-364.631 166,-409 168.409,-410.757 170.937,-412.369 173.557,-413.845"/>
<polygon fill="midnightblue" stroke="midnightblue" points="172.258,-417.106 182.778,-418.364 175.338,-410.82 172.258,-417.106"/>
</g>
<!-- Node3 -->
<g id="node5" class="node"><title>Node3</title>
<a xlink:href="class_signature.html#a02acc8e9f1ceb1af2908807eb1526fcd" target="_top" xlink:title="Takes the gradient of this Signature, then merges gradient values with the same sign, then removes transient spikes, then sorts by value.">
<polygon fill="white" stroke="black" points="197.5,-378.5 197.5,-399.5 328.5,-399.5 328.5,-378.5 197.5,-378.5"/>
<text text-anchor="middle" x="263" y="-386.5" font-family="Helvetica,sans-Serif" font-size="10.00">Signature::getDeltaSpikes</text>
</a>
</g>
<!-- Node1&#45;&gt;Node3 -->
<g id="edge4" class="edge"><title>Node1&#45;&gt;Node3</title>
<path fill="none" stroke="midnightblue" d="M69.479,-240.792C81.0895,-267.333 114.863,-336.014 166,-369 172.604,-373.26 179.941,-376.636 187.54,-379.308"/>
<polygon fill="midnightblue" stroke="midnightblue" points="186.681,-382.706 197.269,-382.33 188.758,-376.021 186.681,-382.706"/>
</g>
<!-- Node12 -->
<g id="node24" class="node"><title>Node12</title>
<a xlink:href="class_signature.html#a8ab11925aa916b1d225dd72baba50a2c" target="_top" xlink:title="Determine how many Joules of energy have been consumed.">
<polygon fill="white" stroke="black" points="180,-338.5 180,-359.5 346,-359.5 346,-338.5 180,-338.5"/>
<text text-anchor="middle" x="263" y="-346.5" font-family="Helvetica,sans-Serif" font-size="10.00">Signature::getEnergyConsumption</text>
</a>
</g>
<!-- Node1&#45;&gt;Node12 -->
<g id="edge24" class="edge"><title>Node1&#45;&gt;Node12</title>
<path fill="none" stroke="midnightblue" d="M72.5048,-240.668C87.6331,-261.301 123.957,-306.609 166,-329 170.28,-331.28 174.795,-333.3 179.44,-335.09"/>
<polygon fill="midnightblue" stroke="midnightblue" points="178.53,-338.479 189.125,-338.45 180.825,-331.865 178.53,-338.479"/>
</g>
<!-- Node13 -->
<g id="node26" class="node"><title>Node13</title>
<a xlink:href="class_signature.html#a901e57da453530200cd9c177295a2cd3" target="_top" xlink:title="Signature::getID">
<polygon fill="white" stroke="black" points="219,-298.5 219,-319.5 307,-319.5 307,-298.5 219,-298.5"/>
<text text-anchor="middle" x="263" y="-306.5" font-family="Helvetica,sans-Serif" font-size="10.00">Signature::getID</text>
</a>
</g>
<!-- Node1&#45;&gt;Node13 -->
<g id="edge26" class="edge"><title>Node1&#45;&gt;Node13</title>
<path fill="none" stroke="midnightblue" d="M79.6213,-240.619C98.6036,-253.903 133.195,-276.427 166,-289 179.437,-294.15 194.454,-298.07 208.583,-301.014"/>
<polygon fill="midnightblue" stroke="midnightblue" points="208.193,-304.504 218.679,-302.989 209.537,-297.634 208.193,-304.504"/>
</g>
<!-- Node14 -->
<g id="node28" class="node"><title>Node14</title>
<a xlink:href="class_array.html#ae16b42080e87a53fe2b76af98995111b" target="_top" xlink:title="Array::getSize">
<polygon fill="white" stroke="black" points="456.5,-258.5 456.5,-279.5 535.5,-279.5 535.5,-258.5 456.5,-258.5"/>
<text text-anchor="middle" x="496" y="-266.5" font-family="Helvetica,sans-Serif" font-size="10.00">Array::getSize</text>
</a>
</g>
<!-- Node1&#45;&gt;Node14 -->
<g id="edge28" class="edge"><title>Node1&#45;&gt;Node14</title>
<path fill="none" stroke="midnightblue" d="M129.581,-232.639C189.434,-235.446 280.891,-240.65 360,-249 388.704,-252.03 420.642,-256.661 446.351,-260.704"/>
<polygon fill="midnightblue" stroke="midnightblue" points="445.811,-264.162 456.237,-262.278 446.912,-257.249 445.811,-264.162"/>
</g>
<!-- Node15 -->
<g id="node30" class="node"><title>Node15</title>
<a xlink:href="class_power_state_graph.html#aae4db4000f6485559f06ab4de4d54619" target="_top" xlink:title="Determine the index of the next spike after spike.">
<polygon fill="white" stroke="black" points="173.5,-258.5 173.5,-279.5 352.5,-279.5 352.5,-258.5 173.5,-258.5"/>
<text text-anchor="middle" x="263" y="-266.5" font-family="Helvetica,sans-Serif" font-size="10.00">PowerStateGraph::indexOfNextSpike</text>
</a>
</g>
<!-- Node1&#45;&gt;Node15 -->
<g id="edge30" class="edge"><title>Node1&#45;&gt;Node15</title>
<path fill="none" stroke="midnightblue" d="M118.321,-240.503C143.407,-245.444 173.506,-251.372 199.738,-256.539"/>
<polygon fill="midnightblue" stroke="midnightblue" points="199.096,-259.98 209.584,-258.479 200.449,-253.112 199.096,-259.98"/>
</g>
<!-- Node16 -->
<g id="node33" class="node"><title>Node16</title>
<a xlink:href="class_power_state_graph.html#a6ca3bd89b0334bdaa87c703366ffce11" target="_top" xlink:title="Useful for diagnostics.">
<polygon fill="white" stroke="black" points="183,-180.5 183,-201.5 343,-201.5 343,-180.5 183,-180.5"/>
<text text-anchor="middle" x="263" y="-188.5" font-family="Helvetica,sans-Serif" font-size="10.00">PowerStateGraph::printSpikeInfo</text>
</a>
</g>
<!-- Node1&#45;&gt;Node16 -->
<g id="edge34" class="edge"><title>Node1&#45;&gt;Node16</title>
<path fill="none" stroke="midnightblue" d="M118.321,-219.497C143.407,-214.556 173.506,-208.628 199.738,-203.461"/>
<polygon fill="midnightblue" stroke="midnightblue" points="200.449,-206.888 209.584,-201.521 199.096,-200.02 200.449,-206.888"/>
</g>
<!-- Node17 -->
<g id="node35" class="node"><title>Node17</title>
<a xlink:href="class_power_state_graph.html#a84bbbefd53f67b2945ac17eb11e28fdf" target="_top" xlink:title="Decides whether or not to reject this spike based on the before and after statistics.">
<polygon fill="white" stroke="black" points="421.5,-60.5 421.5,-81.5 570.5,-81.5 570.5,-60.5 421.5,-60.5"/>
<text text-anchor="middle" x="496" y="-68.5" font-family="Helvetica,sans-Serif" font-size="10.00">PowerStateGraph::rejectSpike</text>
</a>
</g>
<!-- Node1&#45;&gt;Node17 -->
<g id="edge36" class="edge"><title>Node1&#45;&gt;Node17</title>
<path fill="none" stroke="midnightblue" d="M69.0439,-219.148C79.8688,-191.847 112.378,-120.397 166,-91 247.79,-46.1608 358.719,-50.1898 428.833,-59.113"/>
<polygon fill="midnightblue" stroke="midnightblue" points="428.497,-62.5991 438.874,-60.4598 429.428,-55.6613 428.497,-62.5991"/>
</g>
<!-- Node21 -->
<g id="node43" class="node"><title>Node21</title>
<a xlink:href="struct_statistic.html#acabbdf2b6cc229a10a8d3d6658a0c366" target="_top" xlink:title="Update an existing Statistic with new data points.">
<polygon fill="white" stroke="black" points="219,-100.5 219,-121.5 307,-121.5 307,-100.5 219,-100.5"/>
<text text-anchor="middle" x="263" y="-108.5" font-family="Helvetica,sans-Serif" font-size="10.00">Statistic::update</text>
</a>
</g>
<!-- Node1&#45;&gt;Node21 -->
<g id="edge44" class="edge"><title>Node1&#45;&gt;Node21</title>
<path fill="none" stroke="midnightblue" d="M72.5048,-219.332C87.6331,-198.699 123.957,-153.391 166,-131 179.071,-124.039 194.325,-119.498 208.815,-116.537"/>
<polygon fill="midnightblue" stroke="midnightblue" points="209.482,-119.973 218.688,-114.728 208.221,-113.087 209.482,-119.973"/>
</g>
<!-- Node22 -->
<g id="node45" class="node"><title>Node22</title>
<a xlink:href="class_power_state_graph.html#a0e3e05ae1b952132621425c042d84ec1" target="_top" xlink:title="Update or Insert a new edge into powerStateGraph.">
<polygon fill="white" stroke="black" points="169.5,-140.5 169.5,-161.5 356.5,-161.5 356.5,-140.5 169.5,-140.5"/>
<text text-anchor="middle" x="263" y="-148.5" font-family="Helvetica,sans-Serif" font-size="10.00">PowerStateGraph::updateOrInsertEdge</text>
</a>
</g>
<!-- Node1&#45;&gt;Node22 -->
<g id="edge46" class="edge"><title>Node1&#45;&gt;Node22</title>
<path fill="none" stroke="midnightblue" d="M79.6213,-219.381C98.6036,-206.097 133.195,-183.573 166,-171 172.788,-168.398 179.981,-166.11 187.258,-164.103"/>
<polygon fill="midnightblue" stroke="midnightblue" points="188.395,-167.425 197.204,-161.538 186.647,-160.646 188.395,-167.425"/>
</g>
<!-- Node26 -->
<g id="node54" class="node"><title>Node26</title>
<a xlink:href="class_power_state_graph.html#ac36cccb3fb0281f9b68e39ba28737770" target="_top" xlink:title="Attempts to find an existing vertex which is statistically similar to stat. If an existing similar ve...">
<polygon fill="white" stroke="black" points="166.5,-21.5 166.5,-42.5 359.5,-42.5 359.5,-21.5 166.5,-21.5"/>
<text text-anchor="middle" x="263" y="-29.5" font-family="Helvetica,sans-Serif" font-size="10.00">PowerStateGraph::updateOrInsertVertex</text>
</a>
</g>
<!-- Node1&#45;&gt;Node26 -->
<g id="edge56" class="edge"><title>Node1&#45;&gt;Node26</title>
<path fill="none" stroke="midnightblue" d="M68.0998,-219.08C77.3907,-188.403 108.016,-100.833 166,-57 171.546,-52.8076 177.725,-49.3149 184.204,-46.4056"/>
<polygon fill="midnightblue" stroke="midnightblue" points="185.883,-49.5042 193.874,-42.5471 183.289,-43.0028 185.883,-49.5042"/>
</g>
<!-- Node4 -->
<g id="node7" class="node"><title>Node4</title>
<a xlink:href="struct_signature_1_1_spike.html#a0345ed985cbc94883286755c47ab0d63" target="_top" xlink:title="Comparison function. Useful for sorting lists of spikes into descending order of absolute magnitude...">
<polygon fill="white" stroke="black" points="397.5,-418.5 397.5,-439.5 594.5,-439.5 594.5,-418.5 397.5,-418.5"/>
<text text-anchor="middle" x="496" y="-426.5" font-family="Helvetica,sans-Serif" font-size="10.00">Signature::Spike::compareAbsValueDesc</text>
</a>
</g>
<!-- Node3&#45;&gt;Node4 -->
<g id="edge6" class="edge"><title>Node3&#45;&gt;Node4</title>
<path fill="none" stroke="midnightblue" d="M324.218,-399.51C354.999,-404.794 392.483,-411.229 424.573,-416.738"/>
<polygon fill="midnightblue" stroke="midnightblue" points="424.339,-420.249 434.787,-418.491 425.523,-413.35 424.339,-420.249"/>
</g>
<!-- Node5 -->
<g id="node9" class="node"><title>Node5</title>
<a xlink:href="class_signature.html#a6bf289b7aa40eb2791d13d8669089953" target="_top" xlink:title="Merge consecutive spikes of the same sign and then remove any spikes under 10 Watts.">
<polygon fill="white" stroke="black" points="426,-378.5 426,-399.5 566,-399.5 566,-378.5 426,-378.5"/>
<text text-anchor="middle" x="496" y="-386.5" font-family="Helvetica,sans-Serif" font-size="10.00">Signature::getMergedSpikes</text>
</a>
</g>
<!-- Node3&#45;&gt;Node5 -->
<g id="edge8" class="edge"><title>Node3&#45;&gt;Node5</title>
<path fill="none" stroke="midnightblue" d="M328.524,-389C355.496,-389 387.01,-389 415.379,-389"/>
<polygon fill="midnightblue" stroke="midnightblue" points="415.674,-392.5 425.674,-389 415.674,-385.5 415.674,-392.5"/>
</g>
<!-- Node11 -->
<g id="node22" class="node"><title>Node11</title>
<a xlink:href="namespace_utils.html#a64df1cf745416e01ed1b1d0618d4cdfa" target="_top" xlink:title="Compares 2 doubles. Are they within (a * tolerance) of each other?">
<polygon fill="white" stroke="black" points="446.5,-338.5 446.5,-359.5 545.5,-359.5 545.5,-338.5 446.5,-338.5"/>
<text text-anchor="middle" x="496" y="-346.5" font-family="Helvetica,sans-Serif" font-size="10.00">Utils::roughlyEqual</text>
</a>
</g>
<!-- Node3&#45;&gt;Node11 -->
<g id="edge22" class="edge"><title>Node3&#45;&gt;Node11</title>
<path fill="none" stroke="midnightblue" d="M324.218,-378.49C358.824,-372.549 401.903,-365.154 436.264,-359.255"/>
<polygon fill="midnightblue" stroke="midnightblue" points="436.904,-362.697 446.168,-357.555 435.72,-355.797 436.904,-362.697"/>
</g>
<!-- Node6 -->
<g id="node11" class="node"><title>Node6</title>
<a xlink:href="class_array.html#adeb6ee31eaa806644ce52552b8fc8bc1" target="_top" xlink:title="Array\&lt; Sample_t \&gt;::getDelta">
<polygon fill="white" stroke="black" points="632,-378.5 632,-399.5 774,-399.5 774,-378.5 632,-378.5"/>
<text text-anchor="middle" x="703" y="-386.5" font-family="Helvetica,sans-Serif" font-size="10.00">Array&lt; Sample_t &gt;::getDelta</text>
</a>
</g>
<!-- Node5&#45;&gt;Node6 -->
<g id="edge10" class="edge"><title>Node5&#45;&gt;Node6</title>
<path fill="none" stroke="midnightblue" d="M566.081,-389C583.993,-389 603.401,-389 621.82,-389"/>
<polygon fill="midnightblue" stroke="midnightblue" points="621.934,-392.5 631.934,-389 621.934,-385.5 621.934,-392.5"/>
</g>
<!-- Node6&#45;&gt;Node6 -->
<g id="edge12" class="edge"><title>Node6&#45;&gt;Node6</title>
<path fill="none" stroke="midnightblue" d="M674.082,-399.708C661.724,-408.653 671.363,-418 703,-418 723.762,-418 735.05,-413.975 736.864,-408.679"/>
<polygon fill="midnightblue" stroke="midnightblue" points="739.811,-406.775 731.918,-399.708 733.681,-410.155 739.811,-406.775"/>
</g>
<!-- Node7 -->
<g id="node14" class="node"><title>Node7</title>
<a xlink:href="class_array.html#a94bb8954df95b259c7fadf175f531b6b" target="_top" xlink:title="Array::setDeviceName">
<polygon fill="white" stroke="black" points="827,-318.5 827,-339.5 943,-339.5 943,-318.5 827,-318.5"/>
<text text-anchor="middle" x="885" y="-326.5" font-family="Helvetica,sans-Serif" font-size="10.00">Array::setDeviceName</text>
</a>
</g>
<!-- Node6&#45;&gt;Node7 -->
<g id="edge14" class="edge"><title>Node6&#45;&gt;Node7</title>
<path fill="none" stroke="midnightblue" d="M729.134,-378.418C750.647,-369.904 782.04,-357.931 810,-349 817.23,-346.691 824.908,-344.429 832.489,-342.307"/>
<polygon fill="midnightblue" stroke="midnightblue" points="833.631,-345.623 842.351,-339.604 831.781,-338.872 833.631,-345.623"/>
</g>
<!-- Node8 -->
<g id="node16" class="node"><title>Node8</title>
<a xlink:href="class_array.html#a5b752093b1b3ab4d82707115d1f41adc" target="_top" xlink:title="Array::setSize">
<polygon fill="white" stroke="black" points="845.5,-438.5 845.5,-459.5 924.5,-459.5 924.5,-438.5 845.5,-438.5"/>
<text text-anchor="middle" x="885" y="-446.5" font-family="Helvetica,sans-Serif" font-size="10.00">Array::setSize</text>
</a>
</g>
<!-- Node6&#45;&gt;Node8 -->
<g id="edge16" class="edge"><title>Node6&#45;&gt;Node8</title>
<path fill="none" stroke="midnightblue" d="M729.134,-399.582C750.647,-408.096 782.04,-420.069 810,-429 818.212,-431.623 827.002,-434.184 835.57,-436.55"/>
<polygon fill="midnightblue" stroke="midnightblue" points="834.91,-439.997 845.477,-439.23 836.738,-433.24 834.91,-439.997"/>
</g>
<!-- Node9 -->
<g id="node18" class="node"><title>Node9</title>
<a xlink:href="class_array.html#af4cbe83b9a05e769dd54007402b9b3e1" target="_top" xlink:title="Used simply to keep tracking of smoothing parameters throughout the workflow.">
<polygon fill="white" stroke="black" points="832,-398.5 832,-419.5 938,-419.5 938,-398.5 832,-398.5"/>
<text text-anchor="middle" x="885" y="-406.5" font-family="Helvetica,sans-Serif" font-size="10.00">Array::setSmoothing</text>
</a>
</g>
<!-- Node6&#45;&gt;Node9 -->
<g id="edge18" class="edge"><title>Node6&#45;&gt;Node9</title>
<path fill="none" stroke="midnightblue" d="M774.148,-396.818C789.932,-398.553 806.554,-400.38 821.987,-402.075"/>
<polygon fill="midnightblue" stroke="midnightblue" points="821.613,-405.555 831.935,-403.169 822.377,-398.597 821.613,-405.555"/>
</g>
<!-- Node10 -->
<g id="node20" class="node"><title>Node10</title>
<a xlink:href="class_array.html#a0af1f966c6f45c8ff7949ca8b290e01a" target="_top" xlink:title="Array::setUpstreamSmoothing">
<polygon fill="white" stroke="black" points="810.5,-358.5 810.5,-379.5 959.5,-379.5 959.5,-358.5 810.5,-358.5"/>
<text text-anchor="middle" x="885" y="-366.5" font-family="Helvetica,sans-Serif" font-size="10.00">Array::setUpstreamSmoothing</text>
</a>
</g>
<!-- Node6&#45;&gt;Node10 -->
<g id="edge20" class="edge"><title>Node6&#45;&gt;Node10</title>
<path fill="none" stroke="midnightblue" d="M774.148,-381.182C782.675,-380.244 791.447,-379.281 800.144,-378.325"/>
<polygon fill="midnightblue" stroke="midnightblue" points="800.741,-381.78 810.299,-377.209 799.977,-374.822 800.741,-381.78"/>
</g>
<!-- Node15&#45;&gt;Node14 -->
<g id="edge32" class="edge"><title>Node15&#45;&gt;Node14</title>
<path fill="none" stroke="midnightblue" d="M352.751,-269C384.466,-269 418.977,-269 446.178,-269"/>
<polygon fill="midnightblue" stroke="midnightblue" points="446.224,-272.5 456.224,-269 446.223,-265.5 446.224,-272.5"/>
</g>
<!-- Node18 -->
<g id="node37" class="node"><title>Node18</title>
<a xlink:href="namespace_utils.html#a6c1d66956e07544cec585bc664b93c4d" target="_top" xlink:title="Utils::highest">
<polygon fill="white" stroke="black" points="666,-40.5 666,-61.5 740,-61.5 740,-40.5 666,-40.5"/>
<text text-anchor="middle" x="703" y="-48.5" font-family="Helvetica,sans-Serif" font-size="10.00">Utils::highest</text>
</a>
</g>
<!-- Node17&#45;&gt;Node18 -->
<g id="edge38" class="edge"><title>Node17&#45;&gt;Node18</title>
<path fill="none" stroke="midnightblue" d="M570.732,-63.7795C599.129,-61.0358 630.665,-57.9889 655.819,-55.5585"/>
<polygon fill="midnightblue" stroke="midnightblue" points="656.211,-59.037 665.828,-54.5915 655.538,-52.0695 656.211,-59.037"/>
</g>
<!-- Node19 -->
<g id="node39" class="node"><title>Node19</title>
<a xlink:href="namespace_utils.html#a0f28dbdddde3ce309eba6afb7d1f2785" target="_top" xlink:title="Utils::within">
<polygon fill="white" stroke="black" points="669,-80.5 669,-101.5 737,-101.5 737,-80.5 669,-80.5"/>
<text text-anchor="middle" x="703" y="-88.5" font-family="Helvetica,sans-Serif" font-size="10.00">Utils::within</text>
</a>
</g>
<!-- Node17&#45;&gt;Node19 -->
<g id="edge40" class="edge"><title>Node17&#45;&gt;Node19</title>
<path fill="none" stroke="midnightblue" d="M570.732,-78.2205C600.249,-81.0723 633.157,-84.2518 658.764,-86.726"/>
<polygon fill="midnightblue" stroke="midnightblue" points="658.615,-90.2278 668.905,-87.7058 659.288,-83.2602 658.615,-90.2278"/>
</g>
<!-- Node20 -->
<g id="node41" class="node"><title>Node20</title>
<a xlink:href="namespace_utils.html#a30128571ef453645d7731302607a16de" target="_top" xlink:title="Utils::between">
<polygon fill="white" stroke="black" points="845,-80.5 845,-101.5 925,-101.5 925,-80.5 845,-80.5"/>
<text text-anchor="middle" x="885" y="-88.5" font-family="Helvetica,sans-Serif" font-size="10.00">Utils::between</text>
</a>
</g>
<!-- Node19&#45;&gt;Node20 -->
<g id="edge42" class="edge"><title>Node19&#45;&gt;Node20</title>
<path fill="none" stroke="midnightblue" d="M737.233,-91C764.709,-91 803.681,-91 834.704,-91"/>
<polygon fill="midnightblue" stroke="midnightblue" points="834.892,-94.5001 844.892,-91 834.892,-87.5001 834.892,-94.5001"/>
</g>
<!-- Node22&#45;&gt;Node19 -->
<g id="edge54" class="edge"><title>Node22&#45;&gt;Node19</title>
<path fill="none" stroke="midnightblue" d="M338.382,-161.519C345.938,-164.037 353.288,-167.151 360,-171 380.748,-182.898 374.151,-201.269 396,-211 477.2,-247.163 514.884,-247.351 596,-211 642.026,-190.374 676.387,-139.08 692.619,-110.688"/>
<polygon fill="midnightblue" stroke="midnightblue" points="695.819,-112.133 697.594,-101.688 689.693,-108.746 695.819,-112.133"/>
</g>
<!-- Node23 -->
<g id="node47" class="node"><title>Node23</title>
<a xlink:href="class_power_state_graph.html#ae3eaaaca0f80786469b8674991db9476" target="_top" xlink:title="PowerStateGraph::addItemToEdgeHistory">
<polygon fill="white" stroke="black" points="396,-100.5 396,-121.5 596,-121.5 596,-100.5 396,-100.5"/>
<text text-anchor="middle" x="496" y="-108.5" font-family="Helvetica,sans-Serif" font-size="10.00">PowerStateGraph::addItemToEdgeHistory</text>
</a>
</g>
<!-- Node22&#45;&gt;Node23 -->
<g id="edge48" class="edge"><title>Node22&#45;&gt;Node23</title>
<path fill="none" stroke="midnightblue" d="M324.218,-140.49C354.999,-135.206 392.483,-128.771 424.573,-123.262"/>
<polygon fill="midnightblue" stroke="midnightblue" points="425.523,-126.65 434.787,-121.509 424.339,-119.751 425.523,-126.65"/>
</g>
<!-- Node24 -->
<g id="node49" class="node"><title>Node24</title>
<a xlink:href="class_power_state_graph.html#a6de44e31afe85bf0ee18dc09a7be329c" target="_top" xlink:title="Check if edge list a and edge list b are equal.">
<polygon fill="white" stroke="black" points="405,-180.5 405,-201.5 587,-201.5 587,-180.5 405,-180.5"/>
<text text-anchor="middle" x="496" y="-188.5" font-family="Helvetica,sans-Serif" font-size="10.00">PowerStateGraph::edgeListsAreEqual</text>
</a>
</g>
<!-- Node22&#45;&gt;Node24 -->
<g id="edge50" class="edge"><title>Node22&#45;&gt;Node24</title>
<path fill="none" stroke="midnightblue" d="M324.218,-161.51C354.999,-166.794 392.483,-173.229 424.573,-178.738"/>
<polygon fill="midnightblue" stroke="midnightblue" points="424.339,-182.249 434.787,-180.491 425.523,-175.35 424.339,-182.249"/>
</g>
<!-- Node25 -->
<g id="node51" class="node"><title>Node25</title>
<a xlink:href="namespace_utils.html#a297beaecb52c2c24b05b9666d080bb7e" target="_top" xlink:title="Returns true if a and b are the same sign. Zero is assumed to be positive.">
<polygon fill="white" stroke="black" points="453,-140.5 453,-161.5 539,-161.5 539,-140.5 453,-140.5"/>
<text text-anchor="middle" x="496" y="-148.5" font-family="Helvetica,sans-Serif" font-size="10.00">Utils::sameSign</text>
</a>
</g>
<!-- Node22&#45;&gt;Node25 -->
<g id="edge52" class="edge"><title>Node22&#45;&gt;Node25</title>
<path fill="none" stroke="midnightblue" d="M356.763,-151C385.993,-151 417.21,-151 442.662,-151"/>
<polygon fill="midnightblue" stroke="midnightblue" points="442.834,-154.5 452.834,-151 442.834,-147.5 442.834,-154.5"/>
</g>
<!-- Node27 -->
<g id="node56" class="node"><title>Node27</title>
<a xlink:href="class_power_state_graph.html#a7420e492ce4608c1a4dbba027af116c0" target="_top" xlink:title="Find the vertex statistically most similarto stat.">
<polygon fill="white" stroke="black" points="406,-20.5 406,-41.5 586,-41.5 586,-20.5 406,-20.5"/>
<text text-anchor="middle" x="496" y="-28.5" font-family="Helvetica,sans-Serif" font-size="10.00">PowerStateGraph::mostSimilarVertex</text>
</a>
</g>
<!-- Node26&#45;&gt;Node27 -->
<g id="edge58" class="edge"><title>Node26&#45;&gt;Node27</title>
<path fill="none" stroke="midnightblue" d="M359.789,-31.5846C371.587,-31.534 383.662,-31.4821 395.513,-31.4313"/>
<polygon fill="midnightblue" stroke="midnightblue" points="395.871,-34.9299 405.856,-31.3869 395.841,-27.9299 395.871,-34.9299"/>
</g>
<!-- Node27&#45;&gt;Node18 -->
<g id="edge60" class="edge"><title>Node27&#45;&gt;Node18</title>
<path fill="none" stroke="midnightblue" d="M586.191,-39.7141C610.144,-42.0284 635.064,-44.4362 655.704,-46.4304"/>
<polygon fill="midnightblue" stroke="midnightblue" points="655.484,-49.9253 665.774,-47.4033 656.157,-42.9577 655.484,-49.9253"/>
</g>
<!-- Node27&#45;&gt;Node19 -->
<g id="edge64" class="edge"><title>Node27&#45;&gt;Node19</title>
<path fill="none" stroke="midnightblue" d="M563.494,-41.5242C574.519,-44.087 585.697,-47.2128 596,-51 613.18,-57.3148 615.077,-64.0271 632,-71 640.608,-74.5469 650.054,-77.6923 659.166,-80.3781"/>
<polygon fill="midnightblue" stroke="midnightblue" points="658.294,-83.7686 668.868,-83.1094 660.191,-77.0305 658.294,-83.7686"/>
</g>
<!-- Node28 -->
<g id="node59" class="node"><title>Node28</title>
<a xlink:href="struct_statistic.html#a2809624bf38cbe0817c3c5e3c2639c71" target="_top" xlink:title="A two&#45;sided Student T&#45;Test.">
<polygon fill="white" stroke="black" points="662.5,-0.5 662.5,-21.5 743.5,-21.5 743.5,-0.5 662.5,-0.5"/>
<text text-anchor="middle" x="703" y="-8.5" font-family="Helvetica,sans-Serif" font-size="10.00">Statistic::tTest</text>
</a>
</g>
<!-- Node27&#45;&gt;Node28 -->
<g id="edge62" class="edge"><title>Node27&#45;&gt;Node28</title>
<path fill="none" stroke="midnightblue" d="M586.191,-22.2859C608.829,-20.0987 632.33,-17.828 652.266,-15.9018"/>
<polygon fill="midnightblue" stroke="midnightblue" points="652.726,-19.3738 662.343,-14.9282 652.052,-12.4063 652.726,-19.3738"/>
</g>
</g>
</svg>
