<?xml version="1.0" encoding="UTF-8" standalone="no"?>
<!DOCTYPE svg PUBLIC "-//W3C//DTD SVG 1.1//EN"
 "http://www.w3.org/Graphics/SVG/1.1/DTD/svg11.dtd">
<!-- Generated by graphviz version 2.26.3 (20100126.1600)
 -->
<!-- Title: G Pages: 1 -->
<svg width="752pt" height="50pt"
 viewBox="0.00 0.00 752.00 50.00" xmlns="http://www.w3.org/2000/svg" xmlns:xlink="http://www.w3.org/1999/xlink">
<g id="graph1" class="graph" transform="scale(1 1) rotate(0) translate(4 46)">
<title>G</title>
<polygon fill="white" stroke="white" points="-4,5 -4,-46 749,-46 749,5 -4,5"/>
<!-- Node1 -->
<g id="node1" class="node"><title>Node1</title>
<polygon fill="#bfbfbf" stroke="black" points="0.5,-0.5 0.5,-21.5 183.5,-21.5 183.5,-0.5 0.5,-0.5"/>
<text text-anchor="middle" x="92" y="-8.5" font-family="Helvetica,sans-Serif" font-size="10.00">Signature::getStateBarsBaseFilename</text>
</g>
<!-- Node2 -->
<g id="node3" class="node"><title>Node2</title>
<a xlink:href="class_signature.html#a80ab9f3c989f356fd8fd61282de3a994" target="_top" xlink:title="Signature::drawHistWithStateBars">
<polygon fill="white" stroke="black" points="220.5,-20.5 220.5,-41.5 387.5,-41.5 387.5,-20.5 220.5,-20.5"/>
<text text-anchor="middle" x="304" y="-28.5" font-family="Helvetica,sans-Serif" font-size="10.00">Signature::drawHistWithStateBars</text>
</a>
</g>
<!-- Node1&#45;&gt;Node2 -->
<g id="edge2" class="edge"><title>Node1&#45;&gt;Node2</title>
<path fill="none" stroke="midnightblue" d="M193.803,-20.6041C202.731,-21.4464 211.699,-22.2924 220.453,-23.1182"/>
<polygon fill="midnightblue" stroke="midnightblue" points="194.038,-17.1108 183.753,-19.656 193.38,-24.0798 194.038,-17.1108"/>
</g>
<!-- Node3 -->
<g id="node5" class="node"><title>Node3</title>
<a xlink:href="class_signature.html#afebb6e34dcba3d828093eba1ffc7fad6" target="_top" xlink:title="Runs through signature data to find power states and stores the resulting power states in powerStates...">
<polygon fill="white" stroke="black" points="424.5,-0.5 424.5,-21.5 573.5,-21.5 573.5,-0.5 424.5,-0.5"/>
<text text-anchor="middle" x="499" y="-8.5" font-family="Helvetica,sans-Serif" font-size="10.00">Signature::updatePowerStates</text>
</a>
</g>
<!-- Node1&#45;&gt;Node3 -->
<g id="edge8" class="edge"><title>Node1&#45;&gt;Node3</title>
<path fill="none" stroke="midnightblue" d="M193.987,-11C265.592,-11 359.737,-11 424.388,-11"/>
<polygon fill="midnightblue" stroke="midnightblue" points="193.592,-7.5001 183.592,-11 193.592,-14.5001 193.592,-7.5001"/>
</g>
<!-- Node2&#45;&gt;Node3 -->
<g id="edge4" class="edge"><title>Node2&#45;&gt;Node3</title>
<path fill="none" stroke="midnightblue" d="M397.603,-21.3997C406.541,-20.483 415.523,-19.5618 424.247,-18.667"/>
<polygon fill="midnightblue" stroke="midnightblue" points="397.137,-17.9291 387.546,-22.4312 397.851,-24.8925 397.137,-17.9291"/>
</g>
<!-- Node4 -->
<g id="node7" class="node"><title>Node4</title>
<a xlink:href="class_signature.html#ada861d4b0e402605478abc4217f35979" target="_top" xlink:title="Signature::getPowerStates">
<polygon fill="white" stroke="black" points="610,-0.5 610,-21.5 744,-21.5 744,-0.5 610,-0.5"/>
<text text-anchor="middle" x="677" y="-8.5" font-family="Helvetica,sans-Serif" font-size="10.00">Signature::getPowerStates</text>
</a>
</g>
<!-- Node3&#45;&gt;Node4 -->
<g id="edge6" class="edge"><title>Node3&#45;&gt;Node4</title>
<path fill="none" stroke="midnightblue" d="M583.893,-11C592.602,-11 601.363,-11 609.842,-11"/>
<polygon fill="midnightblue" stroke="midnightblue" points="583.714,-7.5001 573.714,-11 583.714,-14.5001 583.714,-7.5001"/>
</g>
</g>
</svg>
