<?xml version="1.0" encoding="UTF-8" standalone="no"?>
<!DOCTYPE svg PUBLIC "-//W3C//DTD SVG 1.1//EN"
 "http://www.w3.org/Graphics/SVG/1.1/DTD/svg11.dtd">
<!-- Generated by graphviz version 2.26.3 (20100126.1600)
 -->
<!-- Title: G Pages: 1 -->
<svg width="322pt" height="150pt"
 viewBox="0.00 0.00 322.00 150.00" xmlns="http://www.w3.org/2000/svg" xmlns:xlink="http://www.w3.org/1999/xlink">
<g id="graph1" class="graph" transform="scale(1 1) rotate(0) translate(4 146)">
<title>G</title>
<polygon fill="white" stroke="white" points="-4,5 -4,-146 319,-146 319,5 -4,5"/>
<!-- Node1 -->
<g id="node1" class="node"><title>Node1</title>
<polygon fill="#bfbfbf" stroke="black" points="0,-60.5 0,-81.5 128,-81.5 128,-60.5 0,-60.5"/>
<text text-anchor="middle" x="64" y="-68.5" font-family="Helvetica,sans-Serif" font-size="10.00">AggregateData::findSpike</text>
</g>
<!-- Node2 -->
<g id="node3" class="node"><title>Node2</title>
<a xlink:href="namespace_utils.html#a30128571ef453645d7731302607a16de" target="_top" xlink:title="Utils::between">
<polygon fill="white" stroke="black" points="199,-120.5 199,-141.5 279,-141.5 279,-120.5 199,-120.5"/>
<text text-anchor="middle" x="239" y="-128.5" font-family="Helvetica,sans-Serif" font-size="10.00">Utils::between</text>
</a>
</g>
<!-- Node1&#45;&gt;Node2 -->
<g id="edge2" class="edge"><title>Node1&#45;&gt;Node2</title>
<path fill="none" stroke="midnightblue" d="M87.9479,-81.5214C108.02,-90.1111 137.558,-102.221 164,-111 171.997,-113.655 180.563,-116.207 188.941,-118.546"/>
<polygon fill="midnightblue" stroke="midnightblue" points="188.078,-121.939 198.646,-121.189 189.917,-115.185 188.078,-121.939"/>
</g>
<!-- Node3 -->
<g id="node5" class="node"><title>Node3</title>
<a xlink:href="struct_statistic.html#aa487c5c0322d9d1fa96affa11939b393" target="_top" xlink:title="Returns stdev if stdev &gt; mean/10, else returns mean/10.">
<polygon fill="white" stroke="black" points="179.5,-80.5 179.5,-101.5 298.5,-101.5 298.5,-80.5 179.5,-80.5"/>
<text text-anchor="middle" x="239" y="-88.5" font-family="Helvetica,sans-Serif" font-size="10.00">Statistic::nonZeroStdev</text>
</a>
</g>
<!-- Node1&#45;&gt;Node3 -->
<g id="edge4" class="edge"><title>Node1&#45;&gt;Node3</title>
<path fill="none" stroke="midnightblue" d="M128.17,-78.3337C141.54,-79.8617 155.694,-81.4794 169.255,-83.0291"/>
<polygon fill="midnightblue" stroke="midnightblue" points="169.153,-86.5402 179.486,-84.1984 169.948,-79.5855 169.153,-86.5402"/>
</g>
<!-- Node4 -->
<g id="node7" class="node"><title>Node4</title>
<a xlink:href="struct_statistic.html#a16764e35873ab9b1cfbffe5668515b47" target="_top" xlink:title="The likelihood is normalised by dividing the raw likelihood by the likelihood of the distribution&amp;#39...">
<polygon fill="white" stroke="black" points="164.5,-40.5 164.5,-61.5 313.5,-61.5 313.5,-40.5 164.5,-40.5"/>
<text text-anchor="middle" x="239" y="-48.5" font-family="Helvetica,sans-Serif" font-size="10.00">Statistic::normalisedLikelihood</text>
</a>
</g>
<!-- Node1&#45;&gt;Node4 -->
<g id="edge6" class="edge"><title>Node1&#45;&gt;Node4</title>
<path fill="none" stroke="midnightblue" d="M128.17,-63.6663C136.746,-62.6862 145.644,-61.6692 154.502,-60.657"/>
<polygon fill="midnightblue" stroke="midnightblue" points="154.927,-64.1312 164.465,-59.5183 154.132,-57.1765 154.927,-64.1312"/>
</g>
<!-- Node5 -->
<g id="node9" class="node"><title>Node5</title>
<a xlink:href="namespace_utils.html#a297beaecb52c2c24b05b9666d080bb7e" target="_top" xlink:title="Returns true if a and b are the same sign. Zero is assumed to be positive.">
<polygon fill="white" stroke="black" points="196,-0.5 196,-21.5 282,-21.5 282,-0.5 196,-0.5"/>
<text text-anchor="middle" x="239" y="-8.5" font-family="Helvetica,sans-Serif" font-size="10.00">Utils::sameSign</text>
</a>
</g>
<!-- Node1&#45;&gt;Node5 -->
<g id="edge8" class="edge"><title>Node1&#45;&gt;Node5</title>
<path fill="none" stroke="midnightblue" d="M87.9479,-60.4786C108.02,-51.8889 137.558,-39.7787 164,-31 171.114,-28.6381 178.678,-26.3583 186.159,-24.2365"/>
<polygon fill="midnightblue" stroke="midnightblue" points="187.196,-27.5813 195.903,-21.5446 185.332,-20.834 187.196,-27.5813"/>
</g>
</g>
</svg>
