<?xml version="1.0" encoding="UTF-8" standalone="no"?>
<!DOCTYPE svg PUBLIC "-//W3C//DTD SVG 1.1//EN"
 "http://www.w3.org/Graphics/SVG/1.1/DTD/svg11.dtd">
<!-- Generated by graphviz version 2.26.3 (20100126.1600)
 -->
<!-- Title: G Pages: 1 -->
<svg width="790pt" height="49pt"
 viewBox="0.00 0.00 790.00 49.00" xmlns="http://www.w3.org/2000/svg" xmlns:xlink="http://www.w3.org/1999/xlink">
<g id="graph1" class="graph" transform="scale(1 1) rotate(0) translate(4 45)">
<title>G</title>
<polygon fill="white" stroke="white" points="-4,5 -4,-45 787,-45 787,5 -4,5"/>
<!-- Node1 -->
<g id="node1" class="node"><title>Node1</title>
<polygon fill="#bfbfbf" stroke="black" points="0,-19.5 0,-40.5 128,-40.5 128,-19.5 0,-19.5"/>
<text text-anchor="middle" x="64" y="-27.5" font-family="Helvetica,sans-Serif" font-size="10.00">AggregateData::findSpike</text>
</g>
<!-- Node2 -->
<g id="node3" class="node"><title>Node2</title>
<a xlink:href="class_power_state_graph.html#a3823f720987e5e13eb7f1cfae7cdf4be" target="_top" xlink:title="This is the main public interface to the disaggregation algorithm.">
<polygon fill="white" stroke="black" points="552.5,-19.5 552.5,-40.5 707.5,-40.5 707.5,-19.5 552.5,-19.5"/>
<text text-anchor="middle" x="630" y="-27.5" font-family="Helvetica,sans-Serif" font-size="10.00">PowerStateGraph::disaggregate</text>
</a>
</g>
<!-- Node1&#45;&gt;Node2 -->
<g id="edge2" class="edge"><title>Node1&#45;&gt;Node2</title>
<path fill="none" stroke="midnightblue" d="M138.182,-30.8245C146.885,-30.8967 155.639,-30.9582 164,-31 320.442,-31.7822 359.557,-31.6861 516,-31 527.776,-30.9484 540.237,-30.8667 552.427,-30.7718"/>
<polygon fill="midnightblue" stroke="midnightblue" points="138.046,-27.3233 128.015,-30.7353 137.984,-34.323 138.046,-27.3233"/>
</g>
<!-- Node4 -->
<g id="node7" class="node"><title>Node4</title>
<a xlink:href="class_power_state_graph.html#a0df76ca216d2d48aeb44d2bb08046e2f" target="_top" xlink:title="PowerStateGraph::traceToEnd">
<polygon fill="white" stroke="black" points="164,-0.5 164,-21.5 314,-21.5 314,-0.5 164,-0.5"/>
<text text-anchor="middle" x="239" y="-8.5" font-family="Helvetica,sans-Serif" font-size="10.00">PowerStateGraph::traceToEnd</text>
</a>
</g>
<!-- Node1&#45;&gt;Node4 -->
<g id="edge6" class="edge"><title>Node1&#45;&gt;Node4</title>
<path fill="none" stroke="midnightblue" d="M138.363,-21.9263C146.805,-21.0098 155.414,-20.0751 163.866,-19.1574"/>
<polygon fill="midnightblue" stroke="midnightblue" points="137.734,-18.474 128.17,-23.033 138.489,-25.4331 137.734,-18.474"/>
</g>
<!-- Node3 -->
<g id="node5" class="node"><title>Node3</title>
<a xlink:href="_main_8cpp.html#a0ddf1224851353fc92bfbff6f499fa97" target="_top" xlink:title="main">
<polygon fill="white" stroke="black" points="744,-19.5 744,-40.5 782,-40.5 782,-19.5 744,-19.5"/>
<text text-anchor="middle" x="763" y="-27.5" font-family="Helvetica,sans-Serif" font-size="10.00">main</text>
</a>
</g>
<!-- Node2&#45;&gt;Node3 -->
<g id="edge4" class="edge"><title>Node2&#45;&gt;Node3</title>
<path fill="none" stroke="midnightblue" d="M717.963,-30C727.567,-30 736.502,-30 743.84,-30"/>
<polygon fill="midnightblue" stroke="midnightblue" points="717.752,-26.5001 707.751,-30 717.751,-33.5001 717.752,-26.5001"/>
</g>
<!-- Node5 -->
<g id="node9" class="node"><title>Node5</title>
<a xlink:href="class_power_state_graph.html#a0478f171d51d21613746640c7415fb0b" target="_top" xlink:title="PowerStateGraph::initTraceToEnd">
<polygon fill="white" stroke="black" points="350,-0.5 350,-21.5 516,-21.5 516,-0.5 350,-0.5"/>
<text text-anchor="middle" x="433" y="-8.5" font-family="Helvetica,sans-Serif" font-size="10.00">PowerStateGraph::initTraceToEnd</text>
</a>
</g>
<!-- Node4&#45;&gt;Node5 -->
<g id="edge8" class="edge"><title>Node4&#45;&gt;Node5</title>
<path fill="none" stroke="midnightblue" d="M324.272,-11C332.753,-11 341.355,-11 349.814,-11"/>
<polygon fill="midnightblue" stroke="midnightblue" points="324.005,-7.5001 314.005,-11 324.005,-14.5001 324.005,-7.5001"/>
</g>
<!-- Node5&#45;&gt;Node2 -->
<g id="edge10" class="edge"><title>Node5&#45;&gt;Node2</title>
<path fill="none" stroke="midnightblue" d="M526.418,-20.0098C535.105,-20.8477 543.845,-21.6906 552.367,-22.5125"/>
<polygon fill="midnightblue" stroke="midnightblue" points="526.55,-16.5064 516.26,-19.0302 525.878,-23.4741 526.55,-16.5064"/>
</g>
</g>
</svg>
