<?xml version="1.0" encoding="UTF-8" standalone="no"?>
<!DOCTYPE svg PUBLIC "-//W3C//DTD SVG 1.1//EN"
 "http://www.w3.org/Graphics/SVG/1.1/DTD/svg11.dtd">
<!-- Generated by graphviz version 2.26.3 (20100126.1600)
 -->
<!-- Title: G Pages: 1 -->
<svg width="666pt" height="110pt"
 viewBox="0.00 0.00 666.00 110.00" xmlns="http://www.w3.org/2000/svg" xmlns:xlink="http://www.w3.org/1999/xlink">
<g id="graph1" class="graph" transform="scale(1 1) rotate(0) translate(4 106)">
<title>G</title>
<polygon fill="white" stroke="white" points="-4,5 -4,-106 663,-106 663,5 -4,5"/>
<!-- Node1 -->
<g id="node1" class="node"><title>Node1</title>
<polygon fill="#bfbfbf" stroke="black" points="0.5,-40.5 0.5,-61.5 97.5,-61.5 97.5,-40.5 0.5,-40.5"/>
<text text-anchor="middle" x="49" y="-48.5" font-family="Helvetica,sans-Serif" font-size="10.00">Array::dumpToFile</text>
</g>
<!-- Node2 -->
<g id="node3" class="node"><title>Node2</title>
<a xlink:href="class_array.html#acc8d9358f9cc9fa7d10d5010099cbc10" target="_top" xlink:title="Array\&lt; Sample_t \&gt;::drawGraph">
<polygon fill="white" stroke="black" points="142,-80.5 142,-101.5 294,-101.5 294,-80.5 142,-80.5"/>
<text text-anchor="middle" x="218" y="-88.5" font-family="Helvetica,sans-Serif" font-size="10.00">Array&lt; Sample_t &gt;::drawGraph</text>
</a>
</g>
<!-- Node1&#45;&gt;Node2 -->
<g id="edge2" class="edge"><title>Node1&#45;&gt;Node2</title>
<path fill="none" stroke="midnightblue" d="M103.243,-63.8386C125.964,-69.2164 152.048,-75.3901 173.601,-80.4913"/>
<polygon fill="midnightblue" stroke="midnightblue" points="103.94,-60.4069 93.4028,-61.5095 102.328,-67.2187 103.94,-60.4069"/>
</g>
<!-- Node3 -->
<g id="node5" class="node"><title>Node3</title>
<a xlink:href="class_signature.html#a80ab9f3c989f356fd8fd61282de3a994" target="_top" xlink:title="Signature::drawHistWithStateBars">
<polygon fill="white" stroke="black" points="134.5,-40.5 134.5,-61.5 301.5,-61.5 301.5,-40.5 134.5,-40.5"/>
<text text-anchor="middle" x="218" y="-48.5" font-family="Helvetica,sans-Serif" font-size="10.00">Signature::drawHistWithStateBars</text>
</a>
</g>
<!-- Node1&#45;&gt;Node3 -->
<g id="edge4" class="edge"><title>Node1&#45;&gt;Node3</title>
<path fill="none" stroke="midnightblue" d="M108.012,-51C116.492,-51 125.35,-51 134.198,-51"/>
<polygon fill="midnightblue" stroke="midnightblue" points="107.882,-47.5001 97.8818,-51 107.882,-54.5001 107.882,-47.5001"/>
</g>
<!-- Node6 -->
<g id="node11" class="node"><title>Node6</title>
<a xlink:href="class_array.html#ad09653725c36dbb022a04309465ec277" target="_top" xlink:title="Attempts to automatically find the peaks.">
<polygon fill="white" stroke="black" points="143.5,-0.5 143.5,-21.5 292.5,-21.5 292.5,-0.5 143.5,-0.5"/>
<text text-anchor="middle" x="218" y="-8.5" font-family="Helvetica,sans-Serif" font-size="10.00">Array&lt; Sample_t &gt;::findPeaks</text>
</a>
</g>
<!-- Node1&#45;&gt;Node6 -->
<g id="edge10" class="edge"><title>Node1&#45;&gt;Node6</title>
<path fill="none" stroke="midnightblue" d="M103.243,-38.1614C125.964,-32.7836 152.048,-26.6099 173.601,-21.5087"/>
<polygon fill="midnightblue" stroke="midnightblue" points="102.328,-34.7813 93.4028,-40.4905 103.94,-41.5931 102.328,-34.7813"/>
</g>
<!-- Node4 -->
<g id="node7" class="node"><title>Node4</title>
<a xlink:href="class_signature.html#afebb6e34dcba3d828093eba1ffc7fad6" target="_top" xlink:title="Runs through signature data to find power states and stores the resulting power states in powerStates...">
<polygon fill="white" stroke="black" points="338.5,-40.5 338.5,-61.5 487.5,-61.5 487.5,-40.5 338.5,-40.5"/>
<text text-anchor="middle" x="413" y="-48.5" font-family="Helvetica,sans-Serif" font-size="10.00">Signature::updatePowerStates</text>
</a>
</g>
<!-- Node3&#45;&gt;Node4 -->
<g id="edge6" class="edge"><title>Node3&#45;&gt;Node4</title>
<path fill="none" stroke="midnightblue" d="M311.603,-51C320.541,-51 329.523,-51 338.247,-51"/>
<polygon fill="midnightblue" stroke="midnightblue" points="311.546,-47.5001 301.546,-51 311.546,-54.5001 311.546,-47.5001"/>
</g>
<!-- Node5 -->
<g id="node9" class="node"><title>Node5</title>
<a xlink:href="class_signature.html#ada861d4b0e402605478abc4217f35979" target="_top" xlink:title="Signature::getPowerStates">
<polygon fill="white" stroke="black" points="524,-40.5 524,-61.5 658,-61.5 658,-40.5 524,-40.5"/>
<text text-anchor="middle" x="591" y="-48.5" font-family="Helvetica,sans-Serif" font-size="10.00">Signature::getPowerStates</text>
</a>
</g>
<!-- Node4&#45;&gt;Node5 -->
<g id="edge8" class="edge"><title>Node4&#45;&gt;Node5</title>
<path fill="none" stroke="midnightblue" d="M497.893,-51C506.602,-51 515.363,-51 523.842,-51"/>
<polygon fill="midnightblue" stroke="midnightblue" points="497.714,-47.5001 487.714,-51 497.714,-54.5001 497.714,-47.5001"/>
</g>
</g>
</svg>
