<?xml version="1.0" encoding="UTF-8" standalone="no"?>
<!DOCTYPE svg PUBLIC "-//W3C//DTD SVG 1.1//EN"
 "http://www.w3.org/Graphics/SVG/1.1/DTD/svg11.dtd">
<!-- Generated by graphviz version 2.26.3 (20100126.1600)
 -->
<!-- Title: G Pages: 1 -->
<svg width="394pt" height="30pt"
 viewBox="0.00 0.00 394.00 30.00" xmlns="http://www.w3.org/2000/svg" xmlns:xlink="http://www.w3.org/1999/xlink">
<g id="graph1" class="graph" transform="scale(1 1) rotate(0) translate(4 26)">
<title>G</title>
<polygon fill="white" stroke="white" points="-4,5 -4,-26 391,-26 391,5 -4,5"/>
<!-- Node1 -->
<g id="node1" class="node"><title>Node1</title>
<polygon fill="#bfbfbf" stroke="black" points="0,-0.5 0,-21.5 162,-21.5 162,-0.5 0,-0.5"/>
<text text-anchor="middle" x="81" y="-8.5" font-family="Helvetica,sans-Serif" font-size="10.00">AggregateData::getSamplePeriod</text>
</g>
<!-- Node2 -->
<g id="node3" class="node"><title>Node2</title>
<a xlink:href="class_device.html#a821d5fa106be895802fff97c673ba633" target="_top" xlink:title="Device::findAlignment">
<polygon fill="white" stroke="black" points="198.5,-0.5 198.5,-21.5 311.5,-21.5 311.5,-0.5 198.5,-0.5"/>
<text text-anchor="middle" x="255" y="-8.5" font-family="Helvetica,sans-Serif" font-size="10.00">Device::findAlignment</text>
</a>
</g>
<!-- Node1&#45;&gt;Node2 -->
<g id="edge2" class="edge"><title>Node1&#45;&gt;Node2</title>
<path fill="none" stroke="midnightblue" d="M172.186,-11C181.078,-11 189.912,-11 198.315,-11"/>
<polygon fill="midnightblue" stroke="midnightblue" points="172.142,-7.5001 162.142,-11 172.142,-14.5001 172.142,-7.5001"/>
</g>
<!-- Node3 -->
<g id="node5" class="node"><title>Node3</title>
<a xlink:href="_main_8cpp.html#a0ddf1224851353fc92bfbff6f499fa97" target="_top" xlink:title="main">
<polygon fill="white" stroke="black" points="348,-0.5 348,-21.5 386,-21.5 386,-0.5 348,-0.5"/>
<text text-anchor="middle" x="367" y="-8.5" font-family="Helvetica,sans-Serif" font-size="10.00">main</text>
</a>
</g>
<!-- Node2&#45;&gt;Node3 -->
<g id="edge4" class="edge"><title>Node2&#45;&gt;Node3</title>
<path fill="none" stroke="midnightblue" d="M321.67,-11C331.177,-11 340.259,-11 347.762,-11"/>
<polygon fill="midnightblue" stroke="midnightblue" points="321.656,-7.5001 311.656,-11 321.656,-14.5001 321.656,-7.5001"/>
</g>
</g>
</svg>
