<?xml version="1.0" encoding="UTF-8" standalone="no"?>
<!DOCTYPE svg PUBLIC "-//W3C//DTD SVG 1.1//EN"
 "http://www.w3.org/Graphics/SVG/1.1/DTD/svg11.dtd">
<!-- Generated by graphviz version 2.26.3 (20100126.1600)
 -->
<!-- Title: G Pages: 1 -->
<svg width="712pt" height="70pt"
 viewBox="0.00 0.00 712.00 70.00" xmlns="http://www.w3.org/2000/svg" xmlns:xlink="http://www.w3.org/1999/xlink">
<g id="graph1" class="graph" transform="scale(1 1) rotate(0) translate(4 66)">
<title>G</title>
<polygon fill="white" stroke="white" points="-4,5 -4,-66 709,-66 709,5 -4,5"/>
<!-- Node1 -->
<g id="node1" class="node"><title>Node1</title>
<polygon fill="#bfbfbf" stroke="black" points="0.5,-20.5 0.5,-41.5 143.5,-41.5 143.5,-20.5 0.5,-20.5"/>
<text text-anchor="middle" x="72" y="-28.5" font-family="Helvetica,sans-Serif" font-size="10.00">Histogram::getBaseFilename</text>
</g>
<!-- Node2 -->
<g id="node3" class="node"><title>Node2</title>
<a xlink:href="class_histogram.html#ad4a2b931c86c4a7f2ce465d0c737050f" target="_top" xlink:title="Histogram::drawGraph">
<polygon fill="white" stroke="black" points="206.5,-40.5 206.5,-61.5 321.5,-61.5 321.5,-40.5 206.5,-40.5"/>
<text text-anchor="middle" x="264" y="-48.5" font-family="Helvetica,sans-Serif" font-size="10.00">Histogram::drawGraph</text>
</a>
</g>
<!-- Node1&#45;&gt;Node2 -->
<g id="edge2" class="edge"><title>Node1&#45;&gt;Node2</title>
<path fill="none" stroke="midnightblue" d="M154.048,-39.5467C171.667,-41.382 189.927,-43.284 206.385,-44.9984"/>
<polygon fill="midnightblue" stroke="midnightblue" points="154.076,-36.0307 143.767,-38.4757 153.35,-42.993 154.076,-36.0307"/>
</g>
<!-- Node5 -->
<g id="node9" class="node"><title>Node5</title>
<a xlink:href="class_signature.html#a80ab9f3c989f356fd8fd61282de3a994" target="_top" xlink:title="Signature::drawHistWithStateBars">
<polygon fill="white" stroke="black" points="180.5,-0.5 180.5,-21.5 347.5,-21.5 347.5,-0.5 180.5,-0.5"/>
<text text-anchor="middle" x="264" y="-8.5" font-family="Helvetica,sans-Serif" font-size="10.00">Signature::drawHistWithStateBars</text>
</a>
</g>
<!-- Node1&#45;&gt;Node5 -->
<g id="edge8" class="edge"><title>Node1&#45;&gt;Node5</title>
<path fill="none" stroke="midnightblue" d="M153.941,-22.4645C162.686,-21.5536 171.589,-20.6261 180.353,-19.7132"/>
<polygon fill="midnightblue" stroke="midnightblue" points="153.35,-19.007 143.767,-23.5243 154.076,-25.9693 153.35,-19.007"/>
</g>
<!-- Node3 -->
<g id="node5" class="node"><title>Node3</title>
<a xlink:href="class_signature.html#afebb6e34dcba3d828093eba1ffc7fad6" target="_top" xlink:title="Runs through signature data to find power states and stores the resulting power states in powerStates...">
<polygon fill="white" stroke="black" points="384.5,-20.5 384.5,-41.5 533.5,-41.5 533.5,-20.5 384.5,-20.5"/>
<text text-anchor="middle" x="459" y="-28.5" font-family="Helvetica,sans-Serif" font-size="10.00">Signature::updatePowerStates</text>
</a>
</g>
<!-- Node2&#45;&gt;Node3 -->
<g id="edge4" class="edge"><title>Node2&#45;&gt;Node3</title>
<path fill="none" stroke="midnightblue" d="M332.059,-44.0196C348.976,-42.2845 367.198,-40.4156 384.41,-38.6503"/>
<polygon fill="midnightblue" stroke="midnightblue" points="331.306,-40.5784 321.715,-45.0805 332.02,-47.5419 331.306,-40.5784"/>
</g>
<!-- Node4 -->
<g id="node7" class="node"><title>Node4</title>
<a xlink:href="class_signature.html#ada861d4b0e402605478abc4217f35979" target="_top" xlink:title="Signature::getPowerStates">
<polygon fill="white" stroke="black" points="570,-20.5 570,-41.5 704,-41.5 704,-20.5 570,-20.5"/>
<text text-anchor="middle" x="637" y="-28.5" font-family="Helvetica,sans-Serif" font-size="10.00">Signature::getPowerStates</text>
</a>
</g>
<!-- Node3&#45;&gt;Node4 -->
<g id="edge6" class="edge"><title>Node3&#45;&gt;Node4</title>
<path fill="none" stroke="midnightblue" d="M543.893,-31C552.602,-31 561.363,-31 569.842,-31"/>
<polygon fill="midnightblue" stroke="midnightblue" points="543.714,-27.5001 533.714,-31 543.714,-34.5001 543.714,-27.5001"/>
</g>
<!-- Node5&#45;&gt;Node3 -->
<g id="edge10" class="edge"><title>Node5&#45;&gt;Node3</title>
<path fill="none" stroke="midnightblue" d="M357.603,-20.6003C366.541,-21.517 375.523,-22.4382 384.247,-23.333"/>
<polygon fill="midnightblue" stroke="midnightblue" points="357.851,-17.1075 347.546,-19.5688 357.137,-24.0709 357.851,-17.1075"/>
</g>
</g>
</svg>
