<?xml version="1.0" encoding="UTF-8" standalone="no"?>
<!DOCTYPE svg PUBLIC "-//W3C//DTD SVG 1.1//EN"
 "http://www.w3.org/Graphics/SVG/1.1/DTD/svg11.dtd">
<!-- Generated by graphviz version 2.26.3 (20100126.1600)
 -->
<!-- Title: G Pages: 1 -->
<svg width="652pt" height="110pt"
 viewBox="0.00 0.00 652.00 110.00" xmlns="http://www.w3.org/2000/svg" xmlns:xlink="http://www.w3.org/1999/xlink">
<g id="graph1" class="graph" transform="scale(1 1) rotate(0) translate(4 106)">
<title>G</title>
<polygon fill="white" stroke="white" points="-4,5 -4,-106 649,-106 649,5 -4,5"/>
<!-- Node1 -->
<g id="node1" class="node"><title>Node1</title>
<polygon fill="#bfbfbf" stroke="black" points="0.5,-40.5 0.5,-61.5 193.5,-61.5 193.5,-40.5 0.5,-40.5"/>
<text text-anchor="middle" x="97" y="-48.5" font-family="Helvetica,sans-Serif" font-size="10.00">PowerStateGraph::updateOrInsertVertex</text>
</g>
<!-- Node2 -->
<g id="node3" class="node"><title>Node2</title>
<a xlink:href="class_power_state_graph.html#a7420e492ce4608c1a4dbba027af116c0" target="_top" xlink:title="Find the vertex statistically most similarto stat.">
<polygon fill="white" stroke="black" points="230,-40.5 230,-61.5 410,-61.5 410,-40.5 230,-40.5"/>
<text text-anchor="middle" x="320" y="-48.5" font-family="Helvetica,sans-Serif" font-size="10.00">PowerStateGraph::mostSimilarVertex</text>
</a>
</g>
<!-- Node1&#45;&gt;Node2 -->
<g id="edge2" class="edge"><title>Node1&#45;&gt;Node2</title>
<path fill="none" stroke="midnightblue" d="M193.514,-51C202.144,-51 210.896,-51 219.557,-51"/>
<polygon fill="midnightblue" stroke="midnightblue" points="219.672,-54.5001 229.672,-51 219.672,-47.5001 219.672,-54.5001"/>
</g>
<!-- Node3 -->
<g id="node5" class="node"><title>Node3</title>
<a xlink:href="namespace_utils.html#a6c1d66956e07544cec585bc664b93c4d" target="_top" xlink:title="Utils::highest">
<polygon fill="white" stroke="black" points="450,-80.5 450,-101.5 524,-101.5 524,-80.5 450,-80.5"/>
<text text-anchor="middle" x="487" y="-88.5" font-family="Helvetica,sans-Serif" font-size="10.00">Utils::highest</text>
</a>
</g>
<!-- Node2&#45;&gt;Node3 -->
<g id="edge4" class="edge"><title>Node2&#45;&gt;Node3</title>
<path fill="none" stroke="midnightblue" d="M363.877,-61.5095C387.3,-67.1198 416.138,-74.0271 440.015,-79.7462"/>
<polygon fill="midnightblue" stroke="midnightblue" points="439.374,-83.1916 449.915,-82.1173 441.005,-76.3841 439.374,-83.1916"/>
</g>
<!-- Node4 -->
<g id="node7" class="node"><title>Node4</title>
<a xlink:href="struct_statistic.html#a2809624bf38cbe0817c3c5e3c2639c71" target="_top" xlink:title="A two&#45;sided Student T&#45;Test.">
<polygon fill="white" stroke="black" points="446.5,-40.5 446.5,-61.5 527.5,-61.5 527.5,-40.5 446.5,-40.5"/>
<text text-anchor="middle" x="487" y="-48.5" font-family="Helvetica,sans-Serif" font-size="10.00">Statistic::tTest</text>
</a>
</g>
<!-- Node2&#45;&gt;Node4 -->
<g id="edge6" class="edge"><title>Node2&#45;&gt;Node4</title>
<path fill="none" stroke="midnightblue" d="M410.343,-51C419.205,-51 427.964,-51 436.216,-51"/>
<polygon fill="midnightblue" stroke="midnightblue" points="436.367,-54.5001 446.367,-51 436.367,-47.5001 436.367,-54.5001"/>
</g>
<!-- Node5 -->
<g id="node9" class="node"><title>Node5</title>
<a xlink:href="namespace_utils.html#a0f28dbdddde3ce309eba6afb7d1f2785" target="_top" xlink:title="Utils::within">
<polygon fill="white" stroke="black" points="453,-0.5 453,-21.5 521,-21.5 521,-0.5 453,-0.5"/>
<text text-anchor="middle" x="487" y="-8.5" font-family="Helvetica,sans-Serif" font-size="10.00">Utils::within</text>
</a>
</g>
<!-- Node2&#45;&gt;Node5 -->
<g id="edge8" class="edge"><title>Node2&#45;&gt;Node5</title>
<path fill="none" stroke="midnightblue" d="M363.877,-40.4905C388.339,-34.6314 418.707,-27.3576 443.162,-21.5"/>
<polygon fill="midnightblue" stroke="midnightblue" points="443.993,-24.9001 452.903,-19.167 442.363,-18.0926 443.993,-24.9001"/>
</g>
<!-- Node6 -->
<g id="node11" class="node"><title>Node6</title>
<a xlink:href="namespace_utils.html#a30128571ef453645d7731302607a16de" target="_top" xlink:title="Utils::between">
<polygon fill="white" stroke="black" points="564,-0.5 564,-21.5 644,-21.5 644,-0.5 564,-0.5"/>
<text text-anchor="middle" x="604" y="-8.5" font-family="Helvetica,sans-Serif" font-size="10.00">Utils::between</text>
</a>
</g>
<!-- Node5&#45;&gt;Node6 -->
<g id="edge10" class="edge"><title>Node5&#45;&gt;Node6</title>
<path fill="none" stroke="midnightblue" d="M521.156,-11C531.276,-11 542.58,-11 553.504,-11"/>
<polygon fill="midnightblue" stroke="midnightblue" points="553.811,-14.5001 563.811,-11 553.811,-7.5001 553.811,-14.5001"/>
</g>
</g>
</svg>
