<?xml version="1.0" encoding="UTF-8" standalone="no"?>
<!DOCTYPE svg PUBLIC "-//W3C//DTD SVG 1.1//EN"
 "http://www.w3.org/Graphics/SVG/1.1/DTD/svg11.dtd">
<!-- Generated by graphviz version 2.26.3 (20100126.1600)
 -->
<!-- Title: G Pages: 1 -->
<svg width="596pt" height="90pt"
 viewBox="0.00 0.00 596.00 90.00" xmlns="http://www.w3.org/2000/svg" xmlns:xlink="http://www.w3.org/1999/xlink">
<g id="graph1" class="graph" transform="scale(1 1) rotate(0) translate(4 86)">
<title>G</title>
<polygon fill="white" stroke="white" points="-4,5 -4,-86 593,-86 593,5 -4,5"/>
<!-- Node1 -->
<g id="node1" class="node"><title>Node1</title>
<polygon fill="#bfbfbf" stroke="black" points="0.5,-20.5 0.5,-41.5 159.5,-41.5 159.5,-20.5 0.5,-20.5"/>
<text text-anchor="middle" x="80" y="-28.5" font-family="Helvetica,sans-Serif" font-size="10.00">PowerStateSequence::plotGraph</text>
</g>
<!-- Node2 -->
<g id="node3" class="node"><title>Node2</title>
<a xlink:href="namespace_g_n_uplot.html#ab276a6d946560395f9d6caa8cb6cb640" target="_top" xlink:title="Plot a graph using GNUplot.">
<polygon fill="white" stroke="black" points="196.5,-20.5 196.5,-41.5 273.5,-41.5 273.5,-20.5 196.5,-20.5"/>
<text text-anchor="middle" x="235" y="-28.5" font-family="Helvetica,sans-Serif" font-size="10.00">GNUplot::plot</text>
</a>
</g>
<!-- Node1&#45;&gt;Node2 -->
<g id="edge2" class="edge"><title>Node1&#45;&gt;Node2</title>
<path fill="none" stroke="midnightblue" d="M159.77,-31C168.841,-31 177.87,-31 186.36,-31"/>
<polygon fill="midnightblue" stroke="midnightblue" points="186.415,-34.5001 196.415,-31 186.415,-27.5001 186.415,-34.5001"/>
</g>
<!-- Node3 -->
<g id="node5" class="node"><title>Node3</title>
<a xlink:href="namespace_utils.html#ae7741f30cf104d6660673d7c336ef5cc" target="_top" xlink:title="Utils::fileExists">
<polygon fill="white" stroke="black" points="341.5,-60.5 341.5,-81.5 424.5,-81.5 424.5,-60.5 341.5,-60.5"/>
<text text-anchor="middle" x="383" y="-68.5" font-family="Helvetica,sans-Serif" font-size="10.00">Utils::fileExists</text>
</a>
</g>
<!-- Node2&#45;&gt;Node3 -->
<g id="edge4" class="edge"><title>Node2&#45;&gt;Node3</title>
<path fill="none" stroke="midnightblue" d="M273.885,-41.5095C292.422,-46.5193 314.785,-52.5634 334.427,-57.8721"/>
<polygon fill="midnightblue" stroke="midnightblue" points="333.551,-61.2609 344.118,-60.4913 335.377,-54.5034 333.551,-61.2609"/>
</g>
<!-- Node4 -->
<g id="node7" class="node"><title>Node4</title>
<a xlink:href="namespace_g_n_uplot.html#a1a232691d61b3e55fdcc406a3a2e9c1f" target="_top" xlink:title="Replaces all the tokens in the template file &#39;config/plotVars.inFilename&#39; with variables from...">
<polygon fill="white" stroke="black" points="310,-20.5 310,-41.5 456,-41.5 456,-20.5 310,-20.5"/>
<text text-anchor="middle" x="383" y="-28.5" font-family="Helvetica,sans-Serif" font-size="10.00">GNUplot::instantiateTemplate</text>
</a>
</g>
<!-- Node2&#45;&gt;Node4 -->
<g id="edge6" class="edge"><title>Node2&#45;&gt;Node4</title>
<path fill="none" stroke="midnightblue" d="M273.885,-31C281.912,-31 290.657,-31 299.588,-31"/>
<polygon fill="midnightblue" stroke="midnightblue" points="299.722,-34.5001 309.722,-31 299.721,-27.5001 299.722,-34.5001"/>
</g>
<!-- Node5 -->
<g id="node9" class="node"><title>Node5</title>
<a xlink:href="namespace_g_n_uplot.html#a60ecface5bf85a5e3e2e1743bd266737" target="_top" xlink:title="Replace all characters which might confuse &#39;sed&#39;.">
<polygon fill="white" stroke="black" points="492.5,-0.5 492.5,-21.5 587.5,-21.5 587.5,-0.5 492.5,-0.5"/>
<text text-anchor="middle" x="540" y="-8.5" font-family="Helvetica,sans-Serif" font-size="10.00">GNUplot::sanitise</text>
</a>
</g>
<!-- Node2&#45;&gt;Node5 -->
<g id="edge10" class="edge"><title>Node2&#45;&gt;Node5</title>
<path fill="none" stroke="midnightblue" d="M267.116,-20.4652C280.255,-16.6749 295.703,-12.8735 310,-11 368.157,-3.37889 435.298,-4.50364 481.967,-6.84679"/>
<polygon fill="midnightblue" stroke="midnightblue" points="482.018,-10.3545 492.191,-7.39608 482.393,-3.36457 482.018,-10.3545"/>
</g>
<!-- Node4&#45;&gt;Node5 -->
<g id="edge8" class="edge"><title>Node4&#45;&gt;Node5</title>
<path fill="none" stroke="midnightblue" d="M456.444,-21.6441C465.068,-20.5455 473.773,-19.4365 482.142,-18.3704"/>
<polygon fill="midnightblue" stroke="midnightblue" points="482.678,-21.8306 492.155,-17.0949 481.793,-14.8867 482.678,-21.8306"/>
</g>
</g>
</svg>
