<?xml version="1.0" encoding="UTF-8" standalone="no"?>
<!DOCTYPE svg PUBLIC "-//W3C//DTD SVG 1.1//EN"
 "http://www.w3.org/Graphics/SVG/1.1/DTD/svg11.dtd">
<!-- Generated by graphviz version 2.26.3 (20100126.1600)
 -->
<!-- Title: G Pages: 1 -->
<svg width="884pt" height="30pt"
 viewBox="0.00 0.00 884.00 30.00" xmlns="http://www.w3.org/2000/svg" xmlns:xlink="http://www.w3.org/1999/xlink">
<g id="graph1" class="graph" transform="scale(1 1) rotate(0) translate(4 26)">
<title>G</title>
<polygon fill="white" stroke="white" points="-4,5 -4,-26 881,-26 881,5 -4,5"/>
<!-- Node1 -->
<g id="node1" class="node"><title>Node1</title>
<polygon fill="#bfbfbf" stroke="black" points="0.5,-0.5 0.5,-21.5 221.5,-21.5 221.5,-0.5 0.5,-0.5"/>
<text text-anchor="middle" x="111" y="-8.5" font-family="Helvetica,sans-Serif" font-size="10.00">AggregateData::readingGoesBelowPowerState</text>
</g>
<!-- Node2 -->
<g id="node3" class="node"><title>Node2</title>
<a xlink:href="class_power_state_graph.html#a0df76ca216d2d48aeb44d2bb08046e2f" target="_top" xlink:title="PowerStateGraph::traceToEnd">
<polygon fill="white" stroke="black" points="258,-0.5 258,-21.5 408,-21.5 408,-0.5 258,-0.5"/>
<text text-anchor="middle" x="333" y="-8.5" font-family="Helvetica,sans-Serif" font-size="10.00">PowerStateGraph::traceToEnd</text>
</a>
</g>
<!-- Node1&#45;&gt;Node2 -->
<g id="edge2" class="edge"><title>Node1&#45;&gt;Node2</title>
<path fill="none" stroke="midnightblue" d="M231.731,-11C240.618,-11 249.421,-11 257.909,-11"/>
<polygon fill="midnightblue" stroke="midnightblue" points="231.675,-7.5001 221.675,-11 231.675,-14.5001 231.675,-7.5001"/>
</g>
<!-- Node3 -->
<g id="node5" class="node"><title>Node3</title>
<a xlink:href="class_power_state_graph.html#a0478f171d51d21613746640c7415fb0b" target="_top" xlink:title="PowerStateGraph::initTraceToEnd">
<polygon fill="white" stroke="black" points="444,-0.5 444,-21.5 610,-21.5 610,-0.5 444,-0.5"/>
<text text-anchor="middle" x="527" y="-8.5" font-family="Helvetica,sans-Serif" font-size="10.00">PowerStateGraph::initTraceToEnd</text>
</a>
</g>
<!-- Node2&#45;&gt;Node3 -->
<g id="edge4" class="edge"><title>Node2&#45;&gt;Node3</title>
<path fill="none" stroke="midnightblue" d="M418.272,-11C426.753,-11 435.355,-11 443.814,-11"/>
<polygon fill="midnightblue" stroke="midnightblue" points="418.005,-7.5001 408.005,-11 418.005,-14.5001 418.005,-7.5001"/>
</g>
<!-- Node4 -->
<g id="node7" class="node"><title>Node4</title>
<a xlink:href="class_power_state_graph.html#a3823f720987e5e13eb7f1cfae7cdf4be" target="_top" xlink:title="This is the main public interface to the disaggregation algorithm.">
<polygon fill="white" stroke="black" points="646.5,-0.5 646.5,-21.5 801.5,-21.5 801.5,-0.5 646.5,-0.5"/>
<text text-anchor="middle" x="724" y="-8.5" font-family="Helvetica,sans-Serif" font-size="10.00">PowerStateGraph::disaggregate</text>
</a>
</g>
<!-- Node3&#45;&gt;Node4 -->
<g id="edge6" class="edge"><title>Node3&#45;&gt;Node4</title>
<path fill="none" stroke="midnightblue" d="M620.418,-11C629.105,-11 637.845,-11 646.367,-11"/>
<polygon fill="midnightblue" stroke="midnightblue" points="620.26,-7.5001 610.26,-11 620.26,-14.5001 620.26,-7.5001"/>
</g>
<!-- Node5 -->
<g id="node9" class="node"><title>Node5</title>
<a xlink:href="_main_8cpp.html#a0ddf1224851353fc92bfbff6f499fa97" target="_top" xlink:title="main">
<polygon fill="white" stroke="black" points="838,-0.5 838,-21.5 876,-21.5 876,-0.5 838,-0.5"/>
<text text-anchor="middle" x="857" y="-8.5" font-family="Helvetica,sans-Serif" font-size="10.00">main</text>
</a>
</g>
<!-- Node4&#45;&gt;Node5 -->
<g id="edge8" class="edge"><title>Node4&#45;&gt;Node5</title>
<path fill="none" stroke="midnightblue" d="M811.963,-11C821.567,-11 830.502,-11 837.84,-11"/>
<polygon fill="midnightblue" stroke="midnightblue" points="811.752,-7.5001 801.751,-11 811.751,-14.5001 811.752,-7.5001"/>
</g>
</g>
</svg>
