<?xml version="1.0" encoding="UTF-8" standalone="no"?>
<!DOCTYPE svg PUBLIC "-//W3C//DTD SVG 1.1//EN"
 "http://www.w3.org/Graphics/SVG/1.1/DTD/svg11.dtd">
<!-- Generated by graphviz version 2.26.3 (20100126.1600)
 -->
<!-- Title: G Pages: 1 -->
<svg width="770pt" height="70pt"
 viewBox="0.00 0.00 770.00 70.00" xmlns="http://www.w3.org/2000/svg" xmlns:xlink="http://www.w3.org/1999/xlink">
<g id="graph1" class="graph" transform="scale(1 1) rotate(0) translate(4 66)">
<title>G</title>
<polygon fill="white" stroke="white" points="-4,5 -4,-66 767,-66 767,5 -4,5"/>
<!-- Node1 -->
<g id="node1" class="node"><title>Node1</title>
<polygon fill="#bfbfbf" stroke="black" points="0,-20.5 0,-41.5 140,-41.5 140,-20.5 0,-20.5"/>
<text text-anchor="middle" x="70" y="-28.5" font-family="Helvetica,sans-Serif" font-size="10.00">Signature::getMergedSpikes</text>
</g>
<!-- Node2 -->
<g id="node3" class="node"><title>Node2</title>
<a xlink:href="class_signature.html#a02acc8e9f1ceb1af2908807eb1526fcd" target="_top" xlink:title="Takes the gradient of this Signature, then merges gradient values with the same sign, then removes transient spikes, then sorts by value.">
<polygon fill="white" stroke="black" points="176.5,-20.5 176.5,-41.5 307.5,-41.5 307.5,-20.5 176.5,-20.5"/>
<text text-anchor="middle" x="242" y="-28.5" font-family="Helvetica,sans-Serif" font-size="10.00">Signature::getDeltaSpikes</text>
</a>
</g>
<!-- Node1&#45;&gt;Node2 -->
<g id="edge2" class="edge"><title>Node1&#45;&gt;Node2</title>
<path fill="none" stroke="midnightblue" d="M150.551,-31C159.198,-31 167.918,-31 176.361,-31"/>
<polygon fill="midnightblue" stroke="midnightblue" points="150.455,-27.5001 140.455,-31 150.455,-34.5001 150.455,-27.5001"/>
</g>
<!-- Node3 -->
<g id="node5" class="node"><title>Node3</title>
<a xlink:href="class_power_state_graph.html#a90ebffe4864640182b342a814af0f0a7" target="_top" xlink:title="Update or initialise Power State Graph.">
<polygon fill="white" stroke="black" points="358.5,-40.5 358.5,-61.5 487.5,-61.5 487.5,-40.5 358.5,-40.5"/>
<text text-anchor="middle" x="423" y="-48.5" font-family="Helvetica,sans-Serif" font-size="10.00">PowerStateGraph::update</text>
</a>
</g>
<!-- Node2&#45;&gt;Node3 -->
<g id="edge4" class="edge"><title>Node2&#45;&gt;Node3</title>
<path fill="none" stroke="midnightblue" d="M317.778,-39.3732C331.226,-40.8592 345.12,-42.3945 358.228,-43.8429"/>
<polygon fill="midnightblue" stroke="midnightblue" points="317.925,-35.8683 307.601,-38.2487 317.156,-42.8259 317.925,-35.8683"/>
</g>
<!-- Node6 -->
<g id="node11" class="node"><title>Node6</title>
<a xlink:href="class_power_state_graph.html#a26384a0a6d9867d336814b70b7a22cd3" target="_top" xlink:title="Update (or create) directional edges between power states (vertices) so the edges are consistent with...">
<polygon fill="white" stroke="black" points="344.5,-0.5 344.5,-21.5 501.5,-21.5 501.5,-0.5 344.5,-0.5"/>
<text text-anchor="middle" x="423" y="-8.5" font-family="Helvetica,sans-Serif" font-size="10.00">PowerStateGraph::updateEdges</text>
</a>
</g>
<!-- Node2&#45;&gt;Node6 -->
<g id="edge10" class="edge"><title>Node2&#45;&gt;Node6</title>
<path fill="none" stroke="midnightblue" d="M317.802,-22.6241C326.583,-21.6538 335.555,-20.6625 344.373,-19.6881"/>
<polygon fill="midnightblue" stroke="midnightblue" points="317.156,-19.1741 307.601,-23.7513 317.925,-26.1317 317.156,-19.1741"/>
</g>
<!-- Node4 -->
<g id="node7" class="node"><title>Node4</title>
<a xlink:href="class_device.html#ad3d9721aca89723e22cf723149a39583" target="_top" xlink:title="Trains the powerStateGraph using signatures declared with loadSignatures(). To be called once signatu...">
<polygon fill="white" stroke="black" points="538.5,-40.5 538.5,-61.5 687.5,-61.5 687.5,-40.5 538.5,-40.5"/>
<text text-anchor="middle" x="613" y="-48.5" font-family="Helvetica,sans-Serif" font-size="10.00">Device::trainPowerStateGraph</text>
</a>
</g>
<!-- Node3&#45;&gt;Node4 -->
<g id="edge6" class="edge"><title>Node3&#45;&gt;Node4</title>
<path fill="none" stroke="midnightblue" d="M497.703,-51C511.095,-51 525.051,-51 538.44,-51"/>
<polygon fill="midnightblue" stroke="midnightblue" points="497.59,-47.5001 487.59,-51 497.59,-54.5001 497.59,-47.5001"/>
</g>
<!-- Node5 -->
<g id="node9" class="node"><title>Node5</title>
<a xlink:href="_main_8cpp.html#a0ddf1224851353fc92bfbff6f499fa97" target="_top" xlink:title="main">
<polygon fill="white" stroke="black" points="724,-40.5 724,-61.5 762,-61.5 762,-40.5 724,-40.5"/>
<text text-anchor="middle" x="743" y="-48.5" font-family="Helvetica,sans-Serif" font-size="10.00">main</text>
</a>
</g>
<!-- Node4&#45;&gt;Node5 -->
<g id="edge8" class="edge"><title>Node4&#45;&gt;Node5</title>
<path fill="none" stroke="midnightblue" d="M698.018,-51C707.574,-51 716.49,-51 723.822,-51"/>
<polygon fill="midnightblue" stroke="midnightblue" points="697.868,-47.5001 687.868,-51 697.868,-54.5001 697.868,-47.5001"/>
</g>
</g>
</svg>
