<?xml version="1.0" encoding="UTF-8" standalone="no"?>
<!DOCTYPE svg PUBLIC "-//W3C//DTD SVG 1.1//EN"
 "http://www.w3.org/Graphics/SVG/1.1/DTD/svg11.dtd">
<!-- Generated by graphviz version 2.26.3 (20100126.1600)
 -->
<!-- Title: G Pages: 1 -->
<svg width="512pt" height="150pt"
 viewBox="0.00 0.00 512.00 150.00" xmlns="http://www.w3.org/2000/svg" xmlns:xlink="http://www.w3.org/1999/xlink">
<g id="graph1" class="graph" transform="scale(1 1) rotate(0) translate(4 146)">
<title>G</title>
<polygon fill="white" stroke="white" points="-4,5 -4,-146 509,-146 509,5 -4,5"/>
<!-- Node1 -->
<g id="node1" class="node"><title>Node1</title>
<polygon fill="#bfbfbf" stroke="black" points="0,-60.5 0,-81.5 140,-81.5 140,-60.5 0,-60.5"/>
<text text-anchor="middle" x="70" y="-68.5" font-family="Helvetica,sans-Serif" font-size="10.00">Signature::getMergedSpikes</text>
</g>
<!-- Node2 -->
<g id="node3" class="node"><title>Node2</title>
<a xlink:href="class_array.html#adeb6ee31eaa806644ce52552b8fc8bc1" target="_top" xlink:title="Array\&lt; Sample_t \&gt;::getDelta">
<polygon fill="white" stroke="black" points="176,-60.5 176,-81.5 318,-81.5 318,-60.5 176,-60.5"/>
<text text-anchor="middle" x="247" y="-68.5" font-family="Helvetica,sans-Serif" font-size="10.00">Array&lt; Sample_t &gt;::getDelta</text>
</a>
</g>
<!-- Node1&#45;&gt;Node2 -->
<g id="edge2" class="edge"><title>Node1&#45;&gt;Node2</title>
<path fill="none" stroke="midnightblue" d="M140.209,-71C148.512,-71 157.04,-71 165.482,-71"/>
<polygon fill="midnightblue" stroke="midnightblue" points="165.716,-74.5001 175.716,-71 165.716,-67.5001 165.716,-74.5001"/>
</g>
<!-- Node2&#45;&gt;Node2 -->
<g id="edge4" class="edge"><title>Node2&#45;&gt;Node2</title>
<path fill="none" stroke="midnightblue" d="M219.035,-81.7079C207.085,-90.6531 216.406,-100 247,-100 267.077,-100 277.993,-95.9746 279.748,-90.6791"/>
<polygon fill="midnightblue" stroke="midnightblue" points="282.758,-88.8852 274.965,-81.7079 276.581,-92.1787 282.758,-88.8852"/>
</g>
<!-- Node3 -->
<g id="node6" class="node"><title>Node3</title>
<a xlink:href="class_array.html#a94bb8954df95b259c7fadf175f531b6b" target="_top" xlink:title="Array::setDeviceName">
<polygon fill="white" stroke="black" points="371,-120.5 371,-141.5 487,-141.5 487,-120.5 371,-120.5"/>
<text text-anchor="middle" x="429" y="-128.5" font-family="Helvetica,sans-Serif" font-size="10.00">Array::setDeviceName</text>
</a>
</g>
<!-- Node2&#45;&gt;Node3 -->
<g id="edge6" class="edge"><title>Node2&#45;&gt;Node3</title>
<path fill="none" stroke="midnightblue" d="M273.134,-81.5822C294.647,-90.0955 326.04,-102.069 354,-111 361.23,-113.309 368.908,-115.571 376.489,-117.693"/>
<polygon fill="midnightblue" stroke="midnightblue" points="375.781,-121.128 386.351,-120.396 377.631,-114.377 375.781,-121.128"/>
</g>
<!-- Node4 -->
<g id="node8" class="node"><title>Node4</title>
<a xlink:href="class_array.html#a5b752093b1b3ab4d82707115d1f41adc" target="_top" xlink:title="Array::setSize">
<polygon fill="white" stroke="black" points="389.5,-80.5 389.5,-101.5 468.5,-101.5 468.5,-80.5 389.5,-80.5"/>
<text text-anchor="middle" x="429" y="-88.5" font-family="Helvetica,sans-Serif" font-size="10.00">Array::setSize</text>
</a>
</g>
<!-- Node2&#45;&gt;Node4 -->
<g id="edge8" class="edge"><title>Node2&#45;&gt;Node4</title>
<path fill="none" stroke="midnightblue" d="M318.148,-78.8185C338.589,-81.0648 360.435,-83.4654 379.283,-85.5366"/>
<polygon fill="midnightblue" stroke="midnightblue" points="379.095,-89.037 389.418,-86.6503 379.86,-82.0789 379.095,-89.037"/>
</g>
<!-- Node5 -->
<g id="node10" class="node"><title>Node5</title>
<a xlink:href="class_array.html#af4cbe83b9a05e769dd54007402b9b3e1" target="_top" xlink:title="Used simply to keep tracking of smoothing parameters throughout the workflow.">
<polygon fill="white" stroke="black" points="376,-40.5 376,-61.5 482,-61.5 482,-40.5 376,-40.5"/>
<text text-anchor="middle" x="429" y="-48.5" font-family="Helvetica,sans-Serif" font-size="10.00">Array::setSmoothing</text>
</a>
</g>
<!-- Node2&#45;&gt;Node5 -->
<g id="edge10" class="edge"><title>Node2&#45;&gt;Node5</title>
<path fill="none" stroke="midnightblue" d="M318.148,-63.1815C333.932,-61.447 350.554,-59.6204 365.987,-57.9246"/>
<polygon fill="midnightblue" stroke="midnightblue" points="366.377,-61.4028 375.935,-56.8313 365.613,-54.4446 366.377,-61.4028"/>
</g>
<!-- Node6 -->
<g id="node12" class="node"><title>Node6</title>
<a xlink:href="class_array.html#a0af1f966c6f45c8ff7949ca8b290e01a" target="_top" xlink:title="Array::setUpstreamSmoothing">
<polygon fill="white" stroke="black" points="354.5,-0.5 354.5,-21.5 503.5,-21.5 503.5,-0.5 354.5,-0.5"/>
<text text-anchor="middle" x="429" y="-8.5" font-family="Helvetica,sans-Serif" font-size="10.00">Array::setUpstreamSmoothing</text>
</a>
</g>
<!-- Node2&#45;&gt;Node6 -->
<g id="edge12" class="edge"><title>Node2&#45;&gt;Node6</title>
<path fill="none" stroke="midnightblue" d="M273.134,-60.4178C294.647,-51.9045 326.04,-39.9308 354,-31 361.23,-28.6907 368.908,-26.4295 376.489,-24.3069"/>
<polygon fill="midnightblue" stroke="midnightblue" points="377.631,-27.6229 386.351,-21.6042 375.781,-20.8718 377.631,-27.6229"/>
</g>
</g>
</svg>
