<?xml version="1.0" encoding="UTF-8" standalone="no"?>
<!DOCTYPE svg PUBLIC "-//W3C//DTD SVG 1.1//EN"
 "http://www.w3.org/Graphics/SVG/1.1/DTD/svg11.dtd">
<!-- Generated by graphviz version 2.26.3 (20100126.1600)
 -->
<!-- Title: G Pages: 1 -->
<svg width="902pt" height="150pt"
 viewBox="0.00 0.00 902.00 150.00" xmlns="http://www.w3.org/2000/svg" xmlns:xlink="http://www.w3.org/1999/xlink">
<g id="graph1" class="graph" transform="scale(1 1) rotate(0) translate(4 146)">
<title>G</title>
<polygon fill="white" stroke="white" points="-4,5 -4,-146 899,-146 899,5 -4,5"/>
<!-- Node1 -->
<g id="node1" class="node"><title>Node1</title>
<polygon fill="#bfbfbf" stroke="black" points="0,-80.5 0,-101.5 166,-101.5 166,-80.5 0,-80.5"/>
<text text-anchor="middle" x="83" y="-88.5" font-family="Helvetica,sans-Serif" font-size="10.00">PowerStateGraph::initTraceToEnd</text>
</g>
<!-- Node2 -->
<g id="node3" class="node"><title>Node2</title>
<a xlink:href="class_power_state_graph.html#a222bc37f6c90142887eb36b4e31ab568" target="_top" xlink:title="Iterates through each path in listOfPaths to find the one with the highest likelihood.">
<polygon fill="white" stroke="black" points="248,-120.5 248,-141.5 404,-141.5 404,-120.5 248,-120.5"/>
<text text-anchor="middle" x="326" y="-128.5" font-family="Helvetica,sans-Serif" font-size="10.00">PowerStateGraph::findBestPath</text>
</a>
</g>
<!-- Node1&#45;&gt;Node2 -->
<g id="edge2" class="edge"><title>Node1&#45;&gt;Node2</title>
<path fill="none" stroke="midnightblue" d="M145.057,-101.509C163.39,-104.592 183.499,-107.953 202,-111 217.532,-113.558 234.164,-116.263 250.041,-118.83"/>
<polygon fill="midnightblue" stroke="midnightblue" points="249.916,-122.355 260.346,-120.494 251.032,-115.445 249.916,-122.355"/>
</g>
<!-- Node4 -->
<g id="node7" class="node"><title>Node4</title>
<a xlink:href="class_power_state_graph.html#a492bc7278329e94573559ec0cfdd2c7b" target="_top" xlink:title="Trace the tree downwards from vertex recursively finding every path which successfully completes (i...">
<polygon fill="white" stroke="black" points="202,-80.5 202,-101.5 450,-101.5 450,-80.5 202,-80.5"/>
<text text-anchor="middle" x="326" y="-88.5" font-family="Helvetica,sans-Serif" font-size="10.00">PowerStateGraph::findListOfPathsThroughDisagTree</text>
</a>
</g>
<!-- Node1&#45;&gt;Node4 -->
<g id="edge6" class="edge"><title>Node1&#45;&gt;Node4</title>
<path fill="none" stroke="midnightblue" d="M166.287,-91C174.582,-91 183.141,-91 191.788,-91"/>
<polygon fill="midnightblue" stroke="midnightblue" points="191.967,-94.5001 201.967,-91 191.967,-87.5001 191.967,-94.5001"/>
</g>
<!-- Node5 -->
<g id="node9" class="node"><title>Node5</title>
<a xlink:href="class_power_state_graph.html#a0df76ca216d2d48aeb44d2bb08046e2f" target="_top" xlink:title="PowerStateGraph::traceToEnd">
<polygon fill="white" stroke="black" points="251,-40.5 251,-61.5 401,-61.5 401,-40.5 251,-40.5"/>
<text text-anchor="middle" x="326" y="-48.5" font-family="Helvetica,sans-Serif" font-size="10.00">PowerStateGraph::traceToEnd</text>
</a>
</g>
<!-- Node1&#45;&gt;Node5 -->
<g id="edge8" class="edge"><title>Node1&#45;&gt;Node5</title>
<path fill="none" stroke="midnightblue" d="M145.057,-80.4906C163.39,-77.4075 183.499,-74.0466 202,-71 217.532,-68.4422 234.164,-65.7367 250.041,-63.1701"/>
<polygon fill="midnightblue" stroke="midnightblue" points="251.032,-66.5555 260.346,-61.5064 249.916,-59.645 251.032,-66.5555"/>
</g>
<!-- Node3 -->
<g id="node5" class="node"><title>Node3</title>
<a xlink:href="struct_statistic.html#a16764e35873ab9b1cfbffe5668515b47" target="_top" xlink:title="The likelihood is normalised by dividing the raw likelihood by the likelihood of the distribution&amp;#39...">
<polygon fill="white" stroke="black" points="744.5,-120.5 744.5,-141.5 893.5,-141.5 893.5,-120.5 744.5,-120.5"/>
<text text-anchor="middle" x="819" y="-128.5" font-family="Helvetica,sans-Serif" font-size="10.00">Statistic::normalisedLikelihood</text>
</a>
</g>
<!-- Node2&#45;&gt;Node3 -->
<g id="edge4" class="edge"><title>Node2&#45;&gt;Node3</title>
<path fill="none" stroke="midnightblue" d="M404.117,-131C494.142,-131 641.562,-131 734.284,-131"/>
<polygon fill="midnightblue" stroke="midnightblue" points="734.475,-134.5 744.475,-131 734.475,-127.5 734.475,-134.5"/>
</g>
<!-- Node6 -->
<g id="node11" class="node"><title>Node6</title>
<a xlink:href="class_power_state_graph.html#a6de44e31afe85bf0ee18dc09a7be329c" target="_top" xlink:title="Check if edge list a and edge list b are equal.">
<polygon fill="white" stroke="black" points="506,-80.5 506,-101.5 688,-101.5 688,-80.5 506,-80.5"/>
<text text-anchor="middle" x="597" y="-88.5" font-family="Helvetica,sans-Serif" font-size="10.00">PowerStateGraph::edgeListsAreEqual</text>
</a>
</g>
<!-- Node5&#45;&gt;Node6 -->
<g id="edge10" class="edge"><title>Node5&#45;&gt;Node6</title>
<path fill="none" stroke="midnightblue" d="M397.202,-61.5095C433.623,-66.8854 478.113,-73.4521 515.857,-79.0232"/>
<polygon fill="midnightblue" stroke="midnightblue" points="515.4,-82.4935 525.803,-80.4913 516.422,-75.5685 515.4,-82.4935"/>
</g>
<!-- Node7 -->
<g id="node13" class="node"><title>Node7</title>
<a xlink:href="class_aggregate_data.html#ada468d155767d721c755405582d108ee" target="_top" xlink:title="Find all spikes in aggregate data which fit spikeStats.">
<polygon fill="white" stroke="black" points="533,-40.5 533,-61.5 661,-61.5 661,-40.5 533,-40.5"/>
<text text-anchor="middle" x="597" y="-48.5" font-family="Helvetica,sans-Serif" font-size="10.00">AggregateData::findSpike</text>
</a>
</g>
<!-- Node5&#45;&gt;Node7 -->
<g id="edge12" class="edge"><title>Node5&#45;&gt;Node7</title>
<path fill="none" stroke="midnightblue" d="M401.129,-51C438.929,-51 484.607,-51 522.342,-51"/>
<polygon fill="midnightblue" stroke="midnightblue" points="522.761,-54.5001 532.761,-51 522.761,-47.5001 522.761,-54.5001"/>
</g>
<!-- Node11 -->
<g id="node22" class="node"><title>Node11</title>
<a xlink:href="class_aggregate_data.html#a81a921c732483c6d97cbed3ac1b00366" target="_top" xlink:title="Run through the raw aggregate data from startTime to endTime to make sure that no agg data sample has...">
<polygon fill="white" stroke="black" points="486.5,-0.5 486.5,-21.5 707.5,-21.5 707.5,-0.5 486.5,-0.5"/>
<text text-anchor="middle" x="597" y="-8.5" font-family="Helvetica,sans-Serif" font-size="10.00">AggregateData::readingGoesBelowPowerState</text>
</a>
</g>
<!-- Node5&#45;&gt;Node11 -->
<g id="edge22" class="edge"><title>Node5&#45;&gt;Node11</title>
<path fill="none" stroke="midnightblue" d="M397.202,-40.4905C433.623,-35.1146 478.113,-28.5479 515.857,-22.9768"/>
<polygon fill="midnightblue" stroke="midnightblue" points="516.422,-26.4315 525.803,-21.5087 515.4,-19.5065 516.422,-26.4315"/>
</g>
<!-- Node7&#45;&gt;Node3 -->
<g id="edge18" class="edge"><title>Node7&#45;&gt;Node3</title>
<path fill="none" stroke="midnightblue" d="M661.109,-55.2227C677.141,-58.2103 693.801,-63.0926 708,-71 728.896,-82.6368 723.601,-98.513 744,-111 747.394,-113.078 751.003,-114.942 754.733,-116.615"/>
<polygon fill="midnightblue" stroke="midnightblue" points="753.611,-119.936 764.196,-120.391 756.205,-113.434 753.611,-119.936"/>
</g>
<!-- Node8 -->
<g id="node15" class="node"><title>Node8</title>
<a xlink:href="namespace_utils.html#a30128571ef453645d7731302607a16de" target="_top" xlink:title="Utils::between">
<polygon fill="white" stroke="black" points="779,-80.5 779,-101.5 859,-101.5 859,-80.5 779,-80.5"/>
<text text-anchor="middle" x="819" y="-88.5" font-family="Helvetica,sans-Serif" font-size="10.00">Utils::between</text>
</a>
</g>
<!-- Node7&#45;&gt;Node8 -->
<g id="edge14" class="edge"><title>Node7&#45;&gt;Node8</title>
<path fill="none" stroke="midnightblue" d="M655.328,-61.5095C690.604,-67.8656 735.12,-75.8864 768.817,-81.9581"/>
<polygon fill="midnightblue" stroke="midnightblue" points="768.444,-85.4471 778.906,-83.7758 769.685,-78.558 768.444,-85.4471"/>
</g>
<!-- Node9 -->
<g id="node17" class="node"><title>Node9</title>
<a xlink:href="struct_statistic.html#aa487c5c0322d9d1fa96affa11939b393" target="_top" xlink:title="Returns stdev if stdev &gt; mean/10, else returns mean/10.">
<polygon fill="white" stroke="black" points="759.5,-40.5 759.5,-61.5 878.5,-61.5 878.5,-40.5 759.5,-40.5"/>
<text text-anchor="middle" x="819" y="-48.5" font-family="Helvetica,sans-Serif" font-size="10.00">Statistic::nonZeroStdev</text>
</a>
</g>
<!-- Node7&#45;&gt;Node9 -->
<g id="edge16" class="edge"><title>Node7&#45;&gt;Node9</title>
<path fill="none" stroke="midnightblue" d="M661.212,-51C688.812,-51 721.136,-51 749.316,-51"/>
<polygon fill="midnightblue" stroke="midnightblue" points="749.494,-54.5001 759.494,-51 749.494,-47.5001 749.494,-54.5001"/>
</g>
<!-- Node10 -->
<g id="node20" class="node"><title>Node10</title>
<a xlink:href="namespace_utils.html#a297beaecb52c2c24b05b9666d080bb7e" target="_top" xlink:title="Returns true if a and b are the same sign. Zero is assumed to be positive.">
<polygon fill="white" stroke="black" points="776,-0.5 776,-21.5 862,-21.5 862,-0.5 776,-0.5"/>
<text text-anchor="middle" x="819" y="-8.5" font-family="Helvetica,sans-Serif" font-size="10.00">Utils::sameSign</text>
</a>
</g>
<!-- Node7&#45;&gt;Node10 -->
<g id="edge20" class="edge"><title>Node7&#45;&gt;Node10</title>
<path fill="none" stroke="midnightblue" d="M655.328,-40.4905C689.556,-34.3232 732.483,-26.5886 765.787,-20.588"/>
<polygon fill="midnightblue" stroke="midnightblue" points="766.572,-24.0029 775.793,-18.7851 765.331,-17.1139 766.572,-24.0029"/>
</g>
</g>
</svg>
