<?xml version="1.0" encoding="UTF-8" standalone="no"?>
<!DOCTYPE svg PUBLIC "-//W3C//DTD SVG 1.1//EN"
 "http://www.w3.org/Graphics/SVG/1.1/DTD/svg11.dtd">
<!-- Generated by graphviz version 2.26.3 (20100126.1600)
 -->
<!-- Title: G Pages: 1 -->
<svg width="430pt" height="30pt"
 viewBox="0.00 0.00 430.00 30.00" xmlns="http://www.w3.org/2000/svg" xmlns:xlink="http://www.w3.org/1999/xlink">
<g id="graph1" class="graph" transform="scale(1 1) rotate(0) translate(4 26)">
<title>G</title>
<polygon fill="white" stroke="white" points="-4,5 -4,-26 427,-26 427,5 -4,5"/>
<!-- Node1 -->
<g id="node1" class="node"><title>Node1</title>
<polygon fill="#bfbfbf" stroke="black" points="0.5,-0.5 0.5,-21.5 161.5,-21.5 161.5,-0.5 0.5,-0.5"/>
<text text-anchor="middle" x="81" y="-8.5" font-family="Helvetica,sans-Serif" font-size="10.00">PowerStateGraph::writeGraphViz</text>
</g>
<!-- Node2 -->
<g id="node3" class="node"><title>Node2</title>
<a xlink:href="class_device.html#ad3d9721aca89723e22cf723149a39583" target="_top" xlink:title="Trains the powerStateGraph using signatures declared with loadSignatures(). To be called once signatu...">
<polygon fill="white" stroke="black" points="198.5,-0.5 198.5,-21.5 347.5,-21.5 347.5,-0.5 198.5,-0.5"/>
<text text-anchor="middle" x="273" y="-8.5" font-family="Helvetica,sans-Serif" font-size="10.00">Device::trainPowerStateGraph</text>
</a>
</g>
<!-- Node1&#45;&gt;Node2 -->
<g id="edge2" class="edge"><title>Node1&#45;&gt;Node2</title>
<path fill="none" stroke="midnightblue" d="M171.668,-11C180.633,-11 189.659,-11 198.433,-11"/>
<polygon fill="midnightblue" stroke="midnightblue" points="171.591,-7.5001 161.591,-11 171.591,-14.5001 171.591,-7.5001"/>
</g>
<!-- Node3 -->
<g id="node5" class="node"><title>Node3</title>
<a xlink:href="_main_8cpp.html#a0ddf1224851353fc92bfbff6f499fa97" target="_top" xlink:title="main">
<polygon fill="white" stroke="black" points="384,-0.5 384,-21.5 422,-21.5 422,-0.5 384,-0.5"/>
<text text-anchor="middle" x="403" y="-8.5" font-family="Helvetica,sans-Serif" font-size="10.00">main</text>
</a>
</g>
<!-- Node2&#45;&gt;Node3 -->
<g id="edge4" class="edge"><title>Node2&#45;&gt;Node3</title>
<path fill="none" stroke="midnightblue" d="M358.018,-11C367.574,-11 376.49,-11 383.822,-11"/>
<polygon fill="midnightblue" stroke="midnightblue" points="357.868,-7.5001 347.868,-11 357.868,-14.5001 357.868,-7.5001"/>
</g>
</g>
</svg>
