<?xml version="1.0" encoding="UTF-8" standalone="no"?>
<!DOCTYPE svg PUBLIC "-//W3C//DTD SVG 1.1//EN"
 "http://www.w3.org/Graphics/SVG/1.1/DTD/svg11.dtd">
<!-- Generated by graphviz version 2.26.3 (20100126.1600)
 -->
<!-- Title: G Pages: 1 -->
<svg width="568pt" height="30pt"
 viewBox="0.00 0.00 568.00 30.00" xmlns="http://www.w3.org/2000/svg" xmlns:xlink="http://www.w3.org/1999/xlink">
<g id="graph1" class="graph" transform="scale(1 1) rotate(0) translate(4 26)">
<title>G</title>
<polygon fill="white" stroke="white" points="-4,5 -4,-26 565,-26 565,5 -4,5"/>
<!-- Node1 -->
<g id="node1" class="node"><title>Node1</title>
<polygon fill="#bfbfbf" stroke="black" points="0,-0.5 0,-21.5 128,-21.5 128,-0.5 0,-0.5"/>
<text text-anchor="middle" x="64" y="-8.5" font-family="Helvetica,sans-Serif" font-size="10.00">Signature::getPowerState</text>
</g>
<!-- Node2 -->
<g id="node3" class="node"><title>Node2</title>
<a xlink:href="class_signature.html#af94cd3aa816030f1560410e4ad6f2dcc" target="_top" xlink:title="Finding out where each &#39;powerState&#39; starts and ends.">
<polygon fill="white" stroke="black" points="164,-0.5 164,-21.5 352,-21.5 352,-0.5 164,-0.5"/>
<text text-anchor="middle" x="258" y="-8.5" font-family="Helvetica,sans-Serif" font-size="10.00">Signature::updatePowerStateSequence</text>
</a>
</g>
<!-- Node1&#45;&gt;Node2 -->
<g id="edge2" class="edge"><title>Node1&#45;&gt;Node2</title>
<path fill="none" stroke="midnightblue" d="M138.171,-11C146.573,-11 155.218,-11 163.833,-11"/>
<polygon fill="midnightblue" stroke="midnightblue" points="138.061,-7.5001 128.061,-11 138.06,-14.5001 138.061,-7.5001"/>
</g>
<!-- Node3 -->
<g id="node5" class="node"><title>Node3</title>
<a xlink:href="class_signature.html#abf3dc6265e852ecb66a928c682e3eb5f" target="_top" xlink:title="Signature::getPowerStateSequence">
<polygon fill="white" stroke="black" points="388,-0.5 388,-21.5 560,-21.5 560,-0.5 388,-0.5"/>
<text text-anchor="middle" x="474" y="-8.5" font-family="Helvetica,sans-Serif" font-size="10.00">Signature::getPowerStateSequence</text>
</a>
</g>
<!-- Node2&#45;&gt;Node3 -->
<g id="edge4" class="edge"><title>Node2&#45;&gt;Node3</title>
<path fill="none" stroke="midnightblue" d="M362.129,-11C370.685,-11 379.274,-11 387.68,-11"/>
<polygon fill="midnightblue" stroke="midnightblue" points="362.112,-7.5001 352.112,-11 362.112,-14.5001 362.112,-7.5001"/>
</g>
</g>
</svg>
