<?xml version="1.0" encoding="UTF-8" standalone="no"?>
<!DOCTYPE svg PUBLIC "-//W3C//DTD SVG 1.1//EN"
 "http://www.w3.org/Graphics/SVG/1.1/DTD/svg11.dtd">
<!-- Generated by graphviz version 2.26.3 (20100126.1600)
 -->
<!-- Title: G Pages: 1 -->
<svg width="642pt" height="160pt"
 viewBox="0.00 0.00 642.00 160.00" xmlns="http://www.w3.org/2000/svg" xmlns:xlink="http://www.w3.org/1999/xlink">
<g id="graph1" class="graph" transform="scale(1 1) rotate(0) translate(4 156)">
<title>G</title>
<polygon fill="white" stroke="white" points="-4,5 -4,-156 639,-156 639,5 -4,5"/>
<!-- Node1 -->
<g id="node1" class="node"><title>Node1</title>
<polygon fill="#bfbfbf" stroke="black" points="0.5,-90.5 0.5,-111.5 115.5,-111.5 115.5,-90.5 0.5,-90.5"/>
<text text-anchor="middle" x="58" y="-98.5" font-family="Helvetica,sans-Serif" font-size="10.00">Histogram::drawGraph</text>
</g>
<!-- Node2 -->
<g id="node3" class="node"><title>Node2</title>
<a xlink:href="class_array.html#a6ef27596ae6f5cd98001ca8ba7b13038" target="_top" xlink:title="Array\&lt; Histogram_t \&gt;::dumpToFile">
<polygon fill="white" stroke="black" points="152,-130.5 152,-151.5 320,-151.5 320,-130.5 152,-130.5"/>
<text text-anchor="middle" x="236" y="-138.5" font-family="Helvetica,sans-Serif" font-size="10.00">Array&lt; Histogram_t &gt;::dumpToFile</text>
</a>
</g>
<!-- Node1&#45;&gt;Node2 -->
<g id="edge2" class="edge"><title>Node1&#45;&gt;Node2</title>
<path fill="none" stroke="midnightblue" d="M104.767,-111.51C127.57,-116.634 155.188,-122.84 179.194,-128.235"/>
<polygon fill="midnightblue" stroke="midnightblue" points="178.712,-131.714 189.236,-130.491 180.247,-124.884 178.712,-131.714"/>
</g>
<!-- Node3 -->
<g id="node5" class="node"><title>Node3</title>
<a xlink:href="class_histogram.html#ac542b993b1f5a0ab1b94d4ee7b0bb70d" target="_top" xlink:title="Histogram::getBaseFilename">
<polygon fill="white" stroke="black" points="164.5,-90.5 164.5,-111.5 307.5,-111.5 307.5,-90.5 164.5,-90.5"/>
<text text-anchor="middle" x="236" y="-98.5" font-family="Helvetica,sans-Serif" font-size="10.00">Histogram::getBaseFilename</text>
</a>
</g>
<!-- Node1&#45;&gt;Node3 -->
<g id="edge4" class="edge"><title>Node1&#45;&gt;Node3</title>
<path fill="none" stroke="midnightblue" d="M115.791,-101C128.047,-101 141.206,-101 154.162,-101"/>
<polygon fill="midnightblue" stroke="midnightblue" points="154.487,-104.5 164.487,-101 154.487,-97.5001 154.487,-104.5"/>
</g>
<!-- Node5 -->
<g id="node9" class="node"><title>Node5</title>
<a xlink:href="namespace_g_n_uplot.html#ab276a6d946560395f9d6caa8cb6cb640" target="_top" xlink:title="Plot a graph using GNUplot.">
<polygon fill="white" stroke="black" points="197.5,-30.5 197.5,-51.5 274.5,-51.5 274.5,-30.5 197.5,-30.5"/>
<text text-anchor="middle" x="236" y="-38.5" font-family="Helvetica,sans-Serif" font-size="10.00">GNUplot::plot</text>
</a>
</g>
<!-- Node1&#45;&gt;Node5 -->
<g id="edge8" class="edge"><title>Node1&#45;&gt;Node5</title>
<path fill="none" stroke="midnightblue" d="M89.4131,-90.4113C118.809,-80.5026 162.893,-65.6428 195.039,-54.8072"/>
<polygon fill="midnightblue" stroke="midnightblue" points="196.244,-58.0945 204.602,-51.5836 194.008,-51.4612 196.244,-58.0945"/>
</g>
<!-- Node4 -->
<g id="node7" class="node"><title>Node4</title>
<a xlink:href="namespace_utils.html#a48dfa27103961c7cc6082f7e68857748" target="_top" xlink:title="Utils::size_t_to_s">
<polygon fill="white" stroke="black" points="382.5,-100.5 382.5,-121.5 475.5,-121.5 475.5,-100.5 382.5,-100.5"/>
<text text-anchor="middle" x="429" y="-108.5" font-family="Helvetica,sans-Serif" font-size="10.00">Utils::size_t_to_s</text>
</a>
</g>
<!-- Node3&#45;&gt;Node4 -->
<g id="edge6" class="edge"><title>Node3&#45;&gt;Node4</title>
<path fill="none" stroke="midnightblue" d="M307.592,-104.709C328.975,-105.817 352.109,-107.016 372.391,-108.067"/>
<polygon fill="midnightblue" stroke="midnightblue" points="372.236,-111.563 382.404,-108.586 372.598,-104.573 372.236,-111.563"/>
</g>
<!-- Node6 -->
<g id="node11" class="node"><title>Node6</title>
<a xlink:href="namespace_utils.html#ae7741f30cf104d6660673d7c336ef5cc" target="_top" xlink:title="Utils::fileExists">
<polygon fill="white" stroke="black" points="387.5,-60.5 387.5,-81.5 470.5,-81.5 470.5,-60.5 387.5,-60.5"/>
<text text-anchor="middle" x="429" y="-68.5" font-family="Helvetica,sans-Serif" font-size="10.00">Utils::fileExists</text>
</a>
</g>
<!-- Node5&#45;&gt;Node6 -->
<g id="edge10" class="edge"><title>Node5&#45;&gt;Node6</title>
<path fill="none" stroke="midnightblue" d="M274.593,-46.9988C304.073,-51.5813 344.996,-57.9424 377.306,-62.9646"/>
<polygon fill="midnightblue" stroke="midnightblue" points="377.049,-66.4667 387.468,-64.5442 378.124,-59.5497 377.049,-66.4667"/>
</g>
<!-- Node7 -->
<g id="node13" class="node"><title>Node7</title>
<a xlink:href="namespace_g_n_uplot.html#a1a232691d61b3e55fdcc406a3a2e9c1f" target="_top" xlink:title="Replaces all the tokens in the template file &#39;config/plotVars.inFilename&#39; with variables from...">
<polygon fill="white" stroke="black" points="356,-20.5 356,-41.5 502,-41.5 502,-20.5 356,-20.5"/>
<text text-anchor="middle" x="429" y="-28.5" font-family="Helvetica,sans-Serif" font-size="10.00">GNUplot::instantiateTemplate</text>
</a>
</g>
<!-- Node5&#45;&gt;Node7 -->
<g id="edge12" class="edge"><title>Node5&#45;&gt;Node7</title>
<path fill="none" stroke="midnightblue" d="M274.593,-39.0004C294.993,-37.9434 320.872,-36.6025 345.585,-35.322"/>
<polygon fill="midnightblue" stroke="midnightblue" points="345.91,-38.81 355.716,-34.7971 345.548,-31.8193 345.91,-38.81"/>
</g>
<!-- Node8 -->
<g id="node15" class="node"><title>Node8</title>
<a xlink:href="namespace_g_n_uplot.html#a60ecface5bf85a5e3e2e1743bd266737" target="_top" xlink:title="Replace all characters which might confuse &#39;sed&#39;.">
<polygon fill="white" stroke="black" points="538.5,-0.5 538.5,-21.5 633.5,-21.5 633.5,-0.5 538.5,-0.5"/>
<text text-anchor="middle" x="586" y="-8.5" font-family="Helvetica,sans-Serif" font-size="10.00">GNUplot::sanitise</text>
</a>
</g>
<!-- Node5&#45;&gt;Node8 -->
<g id="edge16" class="edge"><title>Node5&#45;&gt;Node8</title>
<path fill="none" stroke="midnightblue" d="M268.952,-30.4415C292.833,-23.3628 326.054,-14.6865 356,-11 414.215,-3.83343 481.348,-4.8911 527.998,-7.0945"/>
<polygon fill="midnightblue" stroke="midnightblue" points="528.054,-10.6017 538.218,-7.61103 528.408,-3.61065 528.054,-10.6017"/>
</g>
<!-- Node7&#45;&gt;Node8 -->
<g id="edge14" class="edge"><title>Node7&#45;&gt;Node8</title>
<path fill="none" stroke="midnightblue" d="M502.444,-21.6441C511.068,-20.5455 519.773,-19.4365 528.142,-18.3704"/>
<polygon fill="midnightblue" stroke="midnightblue" points="528.678,-21.8306 538.155,-17.0949 527.793,-14.8867 528.678,-21.8306"/>
</g>
</g>
</svg>
