<?xml version="1.0" encoding="UTF-8" standalone="no"?>
<!DOCTYPE svg PUBLIC "-//W3C//DTD SVG 1.1//EN"
 "http://www.w3.org/Graphics/SVG/1.1/DTD/svg11.dtd">
<!-- Generated by graphviz version 2.26.3 (20100126.1600)
 -->
<!-- Title: G Pages: 1 -->
<svg width="602pt" height="150pt"
 viewBox="0.00 0.00 602.00 150.00" xmlns="http://www.w3.org/2000/svg" xmlns:xlink="http://www.w3.org/1999/xlink">
<g id="graph1" class="graph" transform="scale(1 1) rotate(0) translate(4 146)">
<title>G</title>
<polygon fill="white" stroke="white" points="-4,5 -4,-146 599,-146 599,5 -4,5"/>
<!-- Node1 -->
<g id="node1" class="node"><title>Node1</title>
<polygon fill="#bfbfbf" stroke="black" points="0,-60.5 0,-81.5 150,-81.5 150,-60.5 0,-60.5"/>
<text text-anchor="middle" x="75" y="-68.5" font-family="Helvetica,sans-Serif" font-size="10.00">PowerStateGraph::traceToEnd</text>
</g>
<!-- Node2 -->
<g id="node3" class="node"><title>Node2</title>
<a xlink:href="class_power_state_graph.html#a6de44e31afe85bf0ee18dc09a7be329c" target="_top" xlink:title="Check if edge list a and edge list b are equal.">
<polygon fill="white" stroke="black" points="206,-100.5 206,-121.5 388,-121.5 388,-100.5 206,-100.5"/>
<text text-anchor="middle" x="297" y="-108.5" font-family="Helvetica,sans-Serif" font-size="10.00">PowerStateGraph::edgeListsAreEqual</text>
</a>
</g>
<!-- Node1&#45;&gt;Node2 -->
<g id="edge2" class="edge"><title>Node1&#45;&gt;Node2</title>
<path fill="none" stroke="midnightblue" d="M133.328,-81.5095C162.529,-86.771 198.061,-93.1732 228.548,-98.6662"/>
<polygon fill="midnightblue" stroke="midnightblue" points="228.214,-102.162 238.677,-100.491 229.456,-95.2734 228.214,-102.162"/>
</g>
<!-- Node3 -->
<g id="node5" class="node"><title>Node3</title>
<a xlink:href="class_aggregate_data.html#ada468d155767d721c755405582d108ee" target="_top" xlink:title="Find all spikes in aggregate data which fit spikeStats.">
<polygon fill="white" stroke="black" points="233,-60.5 233,-81.5 361,-81.5 361,-60.5 233,-60.5"/>
<text text-anchor="middle" x="297" y="-68.5" font-family="Helvetica,sans-Serif" font-size="10.00">AggregateData::findSpike</text>
</a>
</g>
<!-- Node1&#45;&gt;Node3 -->
<g id="edge4" class="edge"><title>Node1&#45;&gt;Node3</title>
<path fill="none" stroke="midnightblue" d="M150.159,-71C173.498,-71 199.206,-71 222.5,-71"/>
<polygon fill="midnightblue" stroke="midnightblue" points="222.667,-74.5001 232.667,-71 222.667,-67.5001 222.667,-74.5001"/>
</g>
<!-- Node8 -->
<g id="node15" class="node"><title>Node8</title>
<a xlink:href="class_aggregate_data.html#a81a921c732483c6d97cbed3ac1b00366" target="_top" xlink:title="Run through the raw aggregate data from startTime to endTime to make sure that no agg data sample has...">
<polygon fill="white" stroke="black" points="186.5,-20.5 186.5,-41.5 407.5,-41.5 407.5,-20.5 186.5,-20.5"/>
<text text-anchor="middle" x="297" y="-28.5" font-family="Helvetica,sans-Serif" font-size="10.00">AggregateData::readingGoesBelowPowerState</text>
</a>
</g>
<!-- Node1&#45;&gt;Node8 -->
<g id="edge14" class="edge"><title>Node1&#45;&gt;Node8</title>
<path fill="none" stroke="midnightblue" d="M133.328,-60.4905C162.529,-55.229 198.061,-48.8268 228.548,-43.3338"/>
<polygon fill="midnightblue" stroke="midnightblue" points="229.456,-46.7266 238.677,-41.5087 228.214,-39.8375 229.456,-46.7266"/>
</g>
<!-- Node4 -->
<g id="node7" class="node"><title>Node4</title>
<a xlink:href="namespace_utils.html#a30128571ef453645d7731302607a16de" target="_top" xlink:title="Utils::between">
<polygon fill="white" stroke="black" points="479,-120.5 479,-141.5 559,-141.5 559,-120.5 479,-120.5"/>
<text text-anchor="middle" x="519" y="-128.5" font-family="Helvetica,sans-Serif" font-size="10.00">Utils::between</text>
</a>
</g>
<!-- Node3&#45;&gt;Node4 -->
<g id="edge6" class="edge"><title>Node3&#45;&gt;Node4</title>
<path fill="none" stroke="midnightblue" d="M361.043,-78.8432C376.669,-81.7603 393.154,-85.7035 408,-91 425.239,-97.1502 427.029,-104.146 444,-111 451.903,-114.192 460.479,-117.028 468.914,-119.488"/>
<polygon fill="midnightblue" stroke="midnightblue" points="468.129,-122.902 478.701,-122.203 470,-116.157 468.129,-122.902"/>
</g>
<!-- Node5 -->
<g id="node9" class="node"><title>Node5</title>
<a xlink:href="struct_statistic.html#aa487c5c0322d9d1fa96affa11939b393" target="_top" xlink:title="Returns stdev if stdev &gt; mean/10, else returns mean/10.">
<polygon fill="white" stroke="black" points="459.5,-80.5 459.5,-101.5 578.5,-101.5 578.5,-80.5 459.5,-80.5"/>
<text text-anchor="middle" x="519" y="-88.5" font-family="Helvetica,sans-Serif" font-size="10.00">Statistic::nonZeroStdev</text>
</a>
</g>
<!-- Node3&#45;&gt;Node5 -->
<g id="edge8" class="edge"><title>Node3&#45;&gt;Node5</title>
<path fill="none" stroke="midnightblue" d="M361.212,-76.7848C388.812,-79.2713 421.136,-82.1834 449.316,-84.7222"/>
<polygon fill="midnightblue" stroke="midnightblue" points="449.221,-88.2277 459.494,-85.6391 449.849,-81.2559 449.221,-88.2277"/>
</g>
<!-- Node6 -->
<g id="node11" class="node"><title>Node6</title>
<a xlink:href="struct_statistic.html#a16764e35873ab9b1cfbffe5668515b47" target="_top" xlink:title="The likelihood is normalised by dividing the raw likelihood by the likelihood of the distribution&amp;#39...">
<polygon fill="white" stroke="black" points="444.5,-40.5 444.5,-61.5 593.5,-61.5 593.5,-40.5 444.5,-40.5"/>
<text text-anchor="middle" x="519" y="-48.5" font-family="Helvetica,sans-Serif" font-size="10.00">Statistic::normalisedLikelihood</text>
</a>
</g>
<!-- Node3&#45;&gt;Node6 -->
<g id="edge10" class="edge"><title>Node3&#45;&gt;Node6</title>
<path fill="none" stroke="midnightblue" d="M361.212,-65.2152C383.958,-63.166 409.912,-60.8277 434.111,-58.6476"/>
<polygon fill="midnightblue" stroke="midnightblue" points="434.715,-62.1075 444.361,-57.7243 434.087,-55.1357 434.715,-62.1075"/>
</g>
<!-- Node7 -->
<g id="node13" class="node"><title>Node7</title>
<a xlink:href="namespace_utils.html#a297beaecb52c2c24b05b9666d080bb7e" target="_top" xlink:title="Returns true if a and b are the same sign. Zero is assumed to be positive.">
<polygon fill="white" stroke="black" points="476,-0.5 476,-21.5 562,-21.5 562,-0.5 476,-0.5"/>
<text text-anchor="middle" x="519" y="-8.5" font-family="Helvetica,sans-Serif" font-size="10.00">Utils::sameSign</text>
</a>
</g>
<!-- Node3&#45;&gt;Node7 -->
<g id="edge12" class="edge"><title>Node3&#45;&gt;Node7</title>
<path fill="none" stroke="midnightblue" d="M361.043,-63.1568C376.669,-60.2397 393.154,-56.2965 408,-51 425.239,-44.8498 427.029,-37.8545 444,-31 451.037,-28.1577 458.608,-25.5981 466.137,-23.3342"/>
<polygon fill="midnightblue" stroke="midnightblue" points="467.308,-26.6401 475.963,-20.5296 465.386,-19.9089 467.308,-26.6401"/>
</g>
</g>
</svg>
