<?xml version="1.0" encoding="UTF-8" standalone="no"?>
<!DOCTYPE svg PUBLIC "-//W3C//DTD SVG 1.1//EN"
 "http://www.w3.org/Graphics/SVG/1.1/DTD/svg11.dtd">
<!-- Generated by graphviz version 2.26.3 (20100126.1600)
 -->
<!-- Title: G Pages: 1 -->
<svg width="635pt" height="2298pt"
 viewBox="0.00 0.00 635.24 2298.00" xmlns="http://www.w3.org/2000/svg" xmlns:xlink="http://www.w3.org/1999/xlink">
<g id="graph1" class="graph" transform="scale(1 1) rotate(0) translate(4 2294)">
<title>G</title>
<polygon fill="white" stroke="white" points="-4,5 -4,-2294 632.236,-2294 632.236,5 -4,5"/>
<!-- Node1 -->
<g id="node1" class="node"><title>Node1</title>
<polygon fill="#bfbfbf" stroke="black" points="58.736,-1 58.736,-103 165.736,-103 165.736,-1 58.736,-1"/>
<text text-anchor="middle" x="112.236" y="-90" font-family="Helvetica,sans-Serif" font-size="10.00">Histogram</text>
<polyline fill="none" stroke="black" points="58.736,-82 165.736,-82 "/>
<text text-anchor="start" x="66.736" y="-69" font-family="Helvetica,sans-Serif" font-size="10.00"># sizeOfSource</text>
<polyline fill="none" stroke="black" points="58.736,-61 165.736,-61 "/>
<text text-anchor="start" x="66.736" y="-48" font-family="Helvetica,sans-Serif" font-size="10.00">+ Histogram()</text>
<text text-anchor="start" x="66.736" y="-35" font-family="Helvetica,sans-Serif" font-size="10.00">+ getBaseFilename()</text>
<text text-anchor="start" x="66.736" y="-22" font-family="Helvetica,sans-Serif" font-size="10.00">+ drawGraph()</text>
<text text-anchor="start" x="66.736" y="-9" font-family="Helvetica,sans-Serif" font-size="10.00">+ getSizeOfSource()</text>
</g>
<!-- Node2 -->
<g id="node2" class="node"><title>Node2</title>
<a xlink:href="class_array.html" target="_top" xlink:title="{Array\&lt; Histogram_t \&gt;\n|# data\l# size\l# smoothing\l# upstreamSmoothing\l# deviceName\l|+ Array()\l+ Array()\l+ Array()\l+ Array()\l+ ~Array()\l+ operator=()\l+ operator==()\l+ operator[]()\l+ operator[]()\l+ setSize()\l+ getSize()\l+ getSmoothing()\l+ setSmoothing()\l+ getUpstreamSmoothing()\l+ setUpstreamSmoothing()\l+ setDeviceName()\l+ getDeviceName()\l+ setAllEntriesTo()\l+ dumpToFile()\l+ getSmoothedGradOfHistFilename()\l+ getBaseFilename()\l+ drawGraph()\l+ loadData()\l+ rollingAv()\l+ rollingAv()\l+ copyCrop()\l+ getNumLeadingZeros()\l+ getNumTrailingZeros()\l* HIST_GRADIENT_RA_LENGTH\l* max()\l* max()\l* descendPeak()\l* getDelta()\l* getDelta()\l* findPeaks()\l* Array()\l* Array()\l* Array()\l* Array()\l* ~Array()\l* operator=()\l* operator==()\l* operator[]()\l* operator[]()\l* setSize()\l* getSize()\l* getSmoothing()\l* setSmoothing()\l* getUpstreamSmoothing()\l* setUpstreamSmoothing()\l* setDeviceName()\l* getDeviceName()\l* setAllEntriesTo()\l* dumpToFile()\l* getSmoothedGradOfHistFilename()\l* getBaseFilename()\l* drawGraph()\l* loadData()\l* rollingAv()\l* rollingAv()\l* copyCrop()\l* getNumLeadingZeros()\l* getNumTrailingZeros()\l}">
<polygon fill="white" stroke="black" points="263.736,-142.5 263.736,-1063.5 442.736,-1063.5 442.736,-142.5 263.736,-142.5"/>
<text text-anchor="middle" x="353.236" y="-1050.5" font-family="Helvetica,sans-Serif" font-size="10.00">Array&lt; Histogram_t &gt;</text>
<polyline fill="none" stroke="black" points="263.736,-1042.5 442.736,-1042.5 "/>
<text text-anchor="start" x="271.736" y="-1029.5" font-family="Helvetica,sans-Serif" font-size="10.00"># data</text>
<text text-anchor="start" x="271.736" y="-1016.5" font-family="Helvetica,sans-Serif" font-size="10.00"># size</text>
<text text-anchor="start" x="271.736" y="-1003.5" font-family="Helvetica,sans-Serif" font-size="10.00"># smoothing</text>
<text text-anchor="start" x="271.736" y="-990.5" font-family="Helvetica,sans-Serif" font-size="10.00"># upstreamSmoothing</text>
<text text-anchor="start" x="271.736" y="-977.5" font-family="Helvetica,sans-Serif" font-size="10.00"># deviceName</text>
<polyline fill="none" stroke="black" points="263.736,-969.5 442.736,-969.5 "/>
<text text-anchor="start" x="271.736" y="-956.5" font-family="Helvetica,sans-Serif" font-size="10.00">+ Array()</text>
<text text-anchor="start" x="271.736" y="-943.5" font-family="Helvetica,sans-Serif" font-size="10.00">+ Array()</text>
<text text-anchor="start" x="271.736" y="-930.5" font-family="Helvetica,sans-Serif" font-size="10.00">+ Array()</text>
<text text-anchor="start" x="271.736" y="-917.5" font-family="Helvetica,sans-Serif" font-size="10.00">+ Array()</text>
<text text-anchor="start" x="271.736" y="-904.5" font-family="Helvetica,sans-Serif" font-size="10.00">+ ~Array()</text>
<text text-anchor="start" x="271.736" y="-891.5" font-family="Helvetica,sans-Serif" font-size="10.00">+ operator=()</text>
<text text-anchor="start" x="271.736" y="-878.5" font-family="Helvetica,sans-Serif" font-size="10.00">+ operator==()</text>
<text text-anchor="start" x="271.736" y="-865.5" font-family="Helvetica,sans-Serif" font-size="10.00">+ operator[]()</text>
<text text-anchor="start" x="271.736" y="-852.5" font-family="Helvetica,sans-Serif" font-size="10.00">+ operator[]()</text>
<text text-anchor="start" x="271.736" y="-839.5" font-family="Helvetica,sans-Serif" font-size="10.00">+ setSize()</text>
<text text-anchor="start" x="271.736" y="-826.5" font-family="Helvetica,sans-Serif" font-size="10.00">+ getSize()</text>
<text text-anchor="start" x="271.736" y="-813.5" font-family="Helvetica,sans-Serif" font-size="10.00">+ getSmoothing()</text>
<text text-anchor="start" x="271.736" y="-800.5" font-family="Helvetica,sans-Serif" font-size="10.00">+ setSmoothing()</text>
<text text-anchor="start" x="271.736" y="-787.5" font-family="Helvetica,sans-Serif" font-size="10.00">+ getUpstreamSmoothing()</text>
<text text-anchor="start" x="271.736" y="-774.5" font-family="Helvetica,sans-Serif" font-size="10.00">+ setUpstreamSmoothing()</text>
<text text-anchor="start" x="271.736" y="-761.5" font-family="Helvetica,sans-Serif" font-size="10.00">+ setDeviceName()</text>
<text text-anchor="start" x="271.736" y="-748.5" font-family="Helvetica,sans-Serif" font-size="10.00">+ getDeviceName()</text>
<text text-anchor="start" x="271.736" y="-735.5" font-family="Helvetica,sans-Serif" font-size="10.00">+ setAllEntriesTo()</text>
<text text-anchor="start" x="271.736" y="-722.5" font-family="Helvetica,sans-Serif" font-size="10.00">+ dumpToFile()</text>
<text text-anchor="start" x="271.736" y="-709.5" font-family="Helvetica,sans-Serif" font-size="10.00">+ getSmoothedGradOfHistFilename()</text>
<text text-anchor="start" x="271.736" y="-696.5" font-family="Helvetica,sans-Serif" font-size="10.00">+ getBaseFilename()</text>
<text text-anchor="start" x="271.736" y="-683.5" font-family="Helvetica,sans-Serif" font-size="10.00">+ drawGraph()</text>
<text text-anchor="start" x="271.736" y="-670.5" font-family="Helvetica,sans-Serif" font-size="10.00">+ loadData()</text>
<text text-anchor="start" x="271.736" y="-657.5" font-family="Helvetica,sans-Serif" font-size="10.00">+ rollingAv()</text>
<text text-anchor="start" x="271.736" y="-644.5" font-family="Helvetica,sans-Serif" font-size="10.00">+ rollingAv()</text>
<text text-anchor="start" x="271.736" y="-631.5" font-family="Helvetica,sans-Serif" font-size="10.00">+ copyCrop()</text>
<text text-anchor="start" x="271.736" y="-618.5" font-family="Helvetica,sans-Serif" font-size="10.00">+ getNumLeadingZeros()</text>
<text text-anchor="start" x="271.736" y="-605.5" font-family="Helvetica,sans-Serif" font-size="10.00">+ getNumTrailingZeros()</text>
<text text-anchor="start" x="271.736" y="-592.5" font-family="Helvetica,sans-Serif" font-size="10.00">* HIST_GRADIENT_RA_LENGTH</text>
<text text-anchor="start" x="271.736" y="-579.5" font-family="Helvetica,sans-Serif" font-size="10.00">* max()</text>
<text text-anchor="start" x="271.736" y="-566.5" font-family="Helvetica,sans-Serif" font-size="10.00">* max()</text>
<text text-anchor="start" x="271.736" y="-553.5" font-family="Helvetica,sans-Serif" font-size="10.00">* descendPeak()</text>
<text text-anchor="start" x="271.736" y="-540.5" font-family="Helvetica,sans-Serif" font-size="10.00">* getDelta()</text>
<text text-anchor="start" x="271.736" y="-527.5" font-family="Helvetica,sans-Serif" font-size="10.00">* getDelta()</text>
<text text-anchor="start" x="271.736" y="-514.5" font-family="Helvetica,sans-Serif" font-size="10.00">* findPeaks()</text>
<text text-anchor="start" x="271.736" y="-501.5" font-family="Helvetica,sans-Serif" font-size="10.00">* Array()</text>
<text text-anchor="start" x="271.736" y="-488.5" font-family="Helvetica,sans-Serif" font-size="10.00">* Array()</text>
<text text-anchor="start" x="271.736" y="-475.5" font-family="Helvetica,sans-Serif" font-size="10.00">* Array()</text>
<text text-anchor="start" x="271.736" y="-462.5" font-family="Helvetica,sans-Serif" font-size="10.00">* Array()</text>
<text text-anchor="start" x="271.736" y="-449.5" font-family="Helvetica,sans-Serif" font-size="10.00">* ~Array()</text>
<text text-anchor="start" x="271.736" y="-436.5" font-family="Helvetica,sans-Serif" font-size="10.00">* operator=()</text>
<text text-anchor="start" x="271.736" y="-423.5" font-family="Helvetica,sans-Serif" font-size="10.00">* operator==()</text>
<text text-anchor="start" x="271.736" y="-410.5" font-family="Helvetica,sans-Serif" font-size="10.00">* operator[]()</text>
<text text-anchor="start" x="271.736" y="-397.5" font-family="Helvetica,sans-Serif" font-size="10.00">* operator[]()</text>
<text text-anchor="start" x="271.736" y="-384.5" font-family="Helvetica,sans-Serif" font-size="10.00">* setSize()</text>
<text text-anchor="start" x="271.736" y="-371.5" font-family="Helvetica,sans-Serif" font-size="10.00">* getSize()</text>
<text text-anchor="start" x="271.736" y="-358.5" font-family="Helvetica,sans-Serif" font-size="10.00">* getSmoothing()</text>
<text text-anchor="start" x="271.736" y="-345.5" font-family="Helvetica,sans-Serif" font-size="10.00">* setSmoothing()</text>
<text text-anchor="start" x="271.736" y="-332.5" font-family="Helvetica,sans-Serif" font-size="10.00">* getUpstreamSmoothing()</text>
<text text-anchor="start" x="271.736" y="-319.5" font-family="Helvetica,sans-Serif" font-size="10.00">* setUpstreamSmoothing()</text>
<text text-anchor="start" x="271.736" y="-306.5" font-family="Helvetica,sans-Serif" font-size="10.00">* setDeviceName()</text>
<text text-anchor="start" x="271.736" y="-293.5" font-family="Helvetica,sans-Serif" font-size="10.00">* getDeviceName()</text>
<text text-anchor="start" x="271.736" y="-280.5" font-family="Helvetica,sans-Serif" font-size="10.00">* setAllEntriesTo()</text>
<text text-anchor="start" x="271.736" y="-267.5" font-family="Helvetica,sans-Serif" font-size="10.00">* dumpToFile()</text>
<text text-anchor="start" x="271.736" y="-254.5" font-family="Helvetica,sans-Serif" font-size="10.00">* getSmoothedGradOfHistFilename()</text>
<text text-anchor="start" x="271.736" y="-241.5" font-family="Helvetica,sans-Serif" font-size="10.00">* getBaseFilename()</text>
<text text-anchor="start" x="271.736" y="-228.5" font-family="Helvetica,sans-Serif" font-size="10.00">* drawGraph()</text>
<text text-anchor="start" x="271.736" y="-215.5" font-family="Helvetica,sans-Serif" font-size="10.00">* loadData()</text>
<text text-anchor="start" x="271.736" y="-202.5" font-family="Helvetica,sans-Serif" font-size="10.00">* rollingAv()</text>
<text text-anchor="start" x="271.736" y="-189.5" font-family="Helvetica,sans-Serif" font-size="10.00">* rollingAv()</text>
<text text-anchor="start" x="271.736" y="-176.5" font-family="Helvetica,sans-Serif" font-size="10.00">* copyCrop()</text>
<text text-anchor="start" x="271.736" y="-163.5" font-family="Helvetica,sans-Serif" font-size="10.00">* getNumLeadingZeros()</text>
<text text-anchor="start" x="271.736" y="-150.5" font-family="Helvetica,sans-Serif" font-size="10.00">* getNumTrailingZeros()</text>
</a>
</g>
<!-- Node2&#45;&gt;Node1 -->
<g id="edge2" class="edge"><title>Node2&#45;&gt;Node1</title>
<path fill="none" stroke="midnightblue" d="M259.556,-388.819C213.976,-284.608 163.002,-168.066 134.552,-103.02"/>
<polygon fill="none" stroke="midnightblue" points="256.454,-390.46 263.668,-398.22 262.867,-387.655 256.454,-390.46"/>
</g>
<!-- Node3 -->
<g id="node4" class="node"><title>Node3</title>
<a xlink:href="class_histogram__t_01_5.html" target="_top" xlink:title="{Histogram_t *\n||}">
<polygon fill="white" stroke="black" points="550.736,-1543.5 550.736,-1606.5 627.736,-1606.5 627.736,-1543.5 550.736,-1543.5"/>
<text text-anchor="middle" x="589.236" y="-1593.5" font-family="Helvetica,sans-Serif" font-size="10.00">Histogram_t *</text>
<polyline fill="none" stroke="black" points="550.736,-1585.5 627.736,-1585.5 "/>
<text text-anchor="middle" x="589.236" y="-1572.5" font-family="Helvetica,sans-Serif" font-size="10.00"> </text>
<polyline fill="none" stroke="black" points="550.736,-1564.5 627.736,-1564.5 "/>
<text text-anchor="middle" x="589.236" y="-1551.5" font-family="Helvetica,sans-Serif" font-size="10.00"> </text>
</a>
</g>
<!-- Node3&#45;&gt;Node2 -->
<g id="edge4" class="edge"><title>Node3&#45;&gt;Node2</title>
<path fill="none" stroke="#9a32cd" stroke-dasharray="5,2" d="M587.767,-1532.9C584.196,-1451.15 572.578,-1265.64 537.236,-1114 513.988,-1014.25 477.341,-907.148 442.851,-816.893"/>
<polygon fill="#9a32cd" stroke="#9a32cd" points="588.2,-1543.27 583.286,-1533.46 587.991,-1538.27 587.782,-1533.28 587.782,-1533.28 587.782,-1533.28 587.991,-1538.27 592.278,-1533.09 588.2,-1543.27 588.2,-1543.27"/>
<text text-anchor="middle" x="539.736" y="-1086.5" font-family="Helvetica,sans-Serif" font-size="10.00">data</text>
</g>
<!-- Node4 -->
<g id="node6" class="node"><title>Node4</title>
<a xlink:href="classsize__t.html" target="_top" xlink:title="{size_t\n||}">
<polygon fill="white" stroke="black" points="77.736,-2124.5 77.736,-2187.5 120.736,-2187.5 120.736,-2124.5 77.736,-2124.5"/>
<text text-anchor="middle" x="99.236" y="-2174.5" font-family="Helvetica,sans-Serif" font-size="10.00">size_t</text>
<polyline fill="none" stroke="black" points="77.736,-2166.5 120.736,-2166.5 "/>
<text text-anchor="middle" x="99.236" y="-2153.5" font-family="Helvetica,sans-Serif" font-size="10.00"> </text>
<polyline fill="none" stroke="black" points="77.736,-2145.5 120.736,-2145.5 "/>
<text text-anchor="middle" x="99.236" y="-2132.5" font-family="Helvetica,sans-Serif" font-size="10.00"> </text>
</a>
</g>
<!-- Node4&#45;&gt;Node1 -->
<g id="edge20" class="edge"><title>Node4&#45;&gt;Node1</title>
<path fill="none" stroke="#9a32cd" stroke-dasharray="5,2" d="M80.589,-2114.88C71.2847,-2092.14 61.0153,-2063.08 56.236,-2036 -77.6235,-1277.58 64.932,-331.207 103.285,-103.14"/>
<polygon fill="#9a32cd" stroke="#9a32cd" points="84.4987,-2124.22 76.4848,-2116.73 82.5671,-2119.6 80.6355,-2114.99 80.6355,-2114.99 80.6355,-2114.99 82.5671,-2119.6 84.7862,-2113.25 84.4987,-2124.22 84.4987,-2124.22"/>
<text text-anchor="middle" x="34.236" y="-1086.5" font-family="Helvetica,sans-Serif" font-size="10.00">sizeOfSource</text>
</g>
<!-- Node4&#45;&gt;Node2 -->
<g id="edge6" class="edge"><title>Node4&#45;&gt;Node2</title>
<path fill="none" stroke="#9a32cd" stroke-dasharray="5,2" d="M93.1908,-2114.25C73.9244,-1971.93 20.2278,-1493.54 108.236,-1114 138.739,-982.457 206.957,-845.082 263.682,-745.939"/>
<polygon fill="#9a32cd" stroke="#9a32cd" points="94.5697,-2124.3 88.7516,-2115 93.8898,-2119.35 93.2098,-2114.39 93.2098,-2114.39 93.2098,-2114.39 93.8898,-2119.35 97.668,-2113.78 94.5697,-2124.3 94.5697,-2124.3"/>
<text text-anchor="middle" x="181.736" y="-1592" font-family="Helvetica,sans-Serif" font-size="10.00">size</text>
<text text-anchor="middle" x="181.736" y="-1579" font-family="Helvetica,sans-Serif" font-size="10.00">upstreamSmoothing</text>
<text text-anchor="middle" x="181.736" y="-1566" font-family="Helvetica,sans-Serif" font-size="10.00">HIST_GRADIENT_RA_LENGTH</text>
<text text-anchor="middle" x="181.736" y="-1553" font-family="Helvetica,sans-Serif" font-size="10.00">smoothing</text>
</g>
<!-- Node7 -->
<g id="node12" class="node"><title>Node7</title>
<a xlink:href="class_array.html" target="_top" xlink:title="Array class. At its core it&#39;s just a wrapper around a C&#45;style array. With lots of added functiona...">
<polygon fill="white" stroke="black" points="263.736,-1114.5 263.736,-2035.5 442.736,-2035.5 442.736,-1114.5 263.736,-1114.5"/>
<text text-anchor="middle" x="353.236" y="-2022.5" font-family="Helvetica,sans-Serif" font-size="10.00">Array&lt; T &gt;</text>
<polyline fill="none" stroke="black" points="263.736,-2014.5 442.736,-2014.5 "/>
<text text-anchor="start" x="271.736" y="-2001.5" font-family="Helvetica,sans-Serif" font-size="10.00"># data</text>
<text text-anchor="start" x="271.736" y="-1988.5" font-family="Helvetica,sans-Serif" font-size="10.00"># size</text>
<text text-anchor="start" x="271.736" y="-1975.5" font-family="Helvetica,sans-Serif" font-size="10.00"># smoothing</text>
<text text-anchor="start" x="271.736" y="-1962.5" font-family="Helvetica,sans-Serif" font-size="10.00"># upstreamSmoothing</text>
<text text-anchor="start" x="271.736" y="-1949.5" font-family="Helvetica,sans-Serif" font-size="10.00"># deviceName</text>
<polyline fill="none" stroke="black" points="263.736,-1941.5 442.736,-1941.5 "/>
<text text-anchor="start" x="271.736" y="-1928.5" font-family="Helvetica,sans-Serif" font-size="10.00">+ Array()</text>
<text text-anchor="start" x="271.736" y="-1915.5" font-family="Helvetica,sans-Serif" font-size="10.00">+ Array()</text>
<text text-anchor="start" x="271.736" y="-1902.5" font-family="Helvetica,sans-Serif" font-size="10.00">+ Array()</text>
<text text-anchor="start" x="271.736" y="-1889.5" font-family="Helvetica,sans-Serif" font-size="10.00">+ Array()</text>
<text text-anchor="start" x="271.736" y="-1876.5" font-family="Helvetica,sans-Serif" font-size="10.00">+ ~Array()</text>
<text text-anchor="start" x="271.736" y="-1863.5" font-family="Helvetica,sans-Serif" font-size="10.00">+ operator=()</text>
<text text-anchor="start" x="271.736" y="-1850.5" font-family="Helvetica,sans-Serif" font-size="10.00">+ operator==()</text>
<text text-anchor="start" x="271.736" y="-1837.5" font-family="Helvetica,sans-Serif" font-size="10.00">+ operator[]()</text>
<text text-anchor="start" x="271.736" y="-1824.5" font-family="Helvetica,sans-Serif" font-size="10.00">+ operator[]()</text>
<text text-anchor="start" x="271.736" y="-1811.5" font-family="Helvetica,sans-Serif" font-size="10.00">+ setSize()</text>
<text text-anchor="start" x="271.736" y="-1798.5" font-family="Helvetica,sans-Serif" font-size="10.00">+ getSize()</text>
<text text-anchor="start" x="271.736" y="-1785.5" font-family="Helvetica,sans-Serif" font-size="10.00">+ getSmoothing()</text>
<text text-anchor="start" x="271.736" y="-1772.5" font-family="Helvetica,sans-Serif" font-size="10.00">+ setSmoothing()</text>
<text text-anchor="start" x="271.736" y="-1759.5" font-family="Helvetica,sans-Serif" font-size="10.00">+ getUpstreamSmoothing()</text>
<text text-anchor="start" x="271.736" y="-1746.5" font-family="Helvetica,sans-Serif" font-size="10.00">+ setUpstreamSmoothing()</text>
<text text-anchor="start" x="271.736" y="-1733.5" font-family="Helvetica,sans-Serif" font-size="10.00">+ setDeviceName()</text>
<text text-anchor="start" x="271.736" y="-1720.5" font-family="Helvetica,sans-Serif" font-size="10.00">+ getDeviceName()</text>
<text text-anchor="start" x="271.736" y="-1707.5" font-family="Helvetica,sans-Serif" font-size="10.00">+ setAllEntriesTo()</text>
<text text-anchor="start" x="271.736" y="-1694.5" font-family="Helvetica,sans-Serif" font-size="10.00">+ dumpToFile()</text>
<text text-anchor="start" x="271.736" y="-1681.5" font-family="Helvetica,sans-Serif" font-size="10.00">+ getSmoothedGradOfHistFilename()</text>
<text text-anchor="start" x="271.736" y="-1668.5" font-family="Helvetica,sans-Serif" font-size="10.00">+ getBaseFilename()</text>
<text text-anchor="start" x="271.736" y="-1655.5" font-family="Helvetica,sans-Serif" font-size="10.00">+ drawGraph()</text>
<text text-anchor="start" x="271.736" y="-1642.5" font-family="Helvetica,sans-Serif" font-size="10.00">+ loadData()</text>
<text text-anchor="start" x="271.736" y="-1629.5" font-family="Helvetica,sans-Serif" font-size="10.00">+ rollingAv()</text>
<text text-anchor="start" x="271.736" y="-1616.5" font-family="Helvetica,sans-Serif" font-size="10.00">+ rollingAv()</text>
<text text-anchor="start" x="271.736" y="-1603.5" font-family="Helvetica,sans-Serif" font-size="10.00">+ copyCrop()</text>
<text text-anchor="start" x="271.736" y="-1590.5" font-family="Helvetica,sans-Serif" font-size="10.00">+ getNumLeadingZeros()</text>
<text text-anchor="start" x="271.736" y="-1577.5" font-family="Helvetica,sans-Serif" font-size="10.00">+ getNumTrailingZeros()</text>
<text text-anchor="start" x="271.736" y="-1564.5" font-family="Helvetica,sans-Serif" font-size="10.00">* Array()</text>
<text text-anchor="start" x="271.736" y="-1551.5" font-family="Helvetica,sans-Serif" font-size="10.00">* Array()</text>
<text text-anchor="start" x="271.736" y="-1538.5" font-family="Helvetica,sans-Serif" font-size="10.00">* Array()</text>
<text text-anchor="start" x="271.736" y="-1525.5" font-family="Helvetica,sans-Serif" font-size="10.00">* Array()</text>
<text text-anchor="start" x="271.736" y="-1512.5" font-family="Helvetica,sans-Serif" font-size="10.00">* ~Array()</text>
<text text-anchor="start" x="271.736" y="-1499.5" font-family="Helvetica,sans-Serif" font-size="10.00">* operator=()</text>
<text text-anchor="start" x="271.736" y="-1486.5" font-family="Helvetica,sans-Serif" font-size="10.00">* operator==()</text>
<text text-anchor="start" x="271.736" y="-1473.5" font-family="Helvetica,sans-Serif" font-size="10.00">* operator[]()</text>
<text text-anchor="start" x="271.736" y="-1460.5" font-family="Helvetica,sans-Serif" font-size="10.00">* operator[]()</text>
<text text-anchor="start" x="271.736" y="-1447.5" font-family="Helvetica,sans-Serif" font-size="10.00">* setSize()</text>
<text text-anchor="start" x="271.736" y="-1434.5" font-family="Helvetica,sans-Serif" font-size="10.00">* getSize()</text>
<text text-anchor="start" x="271.736" y="-1421.5" font-family="Helvetica,sans-Serif" font-size="10.00">* getSmoothing()</text>
<text text-anchor="start" x="271.736" y="-1408.5" font-family="Helvetica,sans-Serif" font-size="10.00">* setSmoothing()</text>
<text text-anchor="start" x="271.736" y="-1395.5" font-family="Helvetica,sans-Serif" font-size="10.00">* getUpstreamSmoothing()</text>
<text text-anchor="start" x="271.736" y="-1382.5" font-family="Helvetica,sans-Serif" font-size="10.00">* setUpstreamSmoothing()</text>
<text text-anchor="start" x="271.736" y="-1369.5" font-family="Helvetica,sans-Serif" font-size="10.00">* setDeviceName()</text>
<text text-anchor="start" x="271.736" y="-1356.5" font-family="Helvetica,sans-Serif" font-size="10.00">* getDeviceName()</text>
<text text-anchor="start" x="271.736" y="-1343.5" font-family="Helvetica,sans-Serif" font-size="10.00">* setAllEntriesTo()</text>
<text text-anchor="start" x="271.736" y="-1330.5" font-family="Helvetica,sans-Serif" font-size="10.00">* dumpToFile()</text>
<text text-anchor="start" x="271.736" y="-1317.5" font-family="Helvetica,sans-Serif" font-size="10.00">* getSmoothedGradOfHistFilename()</text>
<text text-anchor="start" x="271.736" y="-1304.5" font-family="Helvetica,sans-Serif" font-size="10.00">* getBaseFilename()</text>
<text text-anchor="start" x="271.736" y="-1291.5" font-family="Helvetica,sans-Serif" font-size="10.00">* drawGraph()</text>
<text text-anchor="start" x="271.736" y="-1278.5" font-family="Helvetica,sans-Serif" font-size="10.00">* loadData()</text>
<text text-anchor="start" x="271.736" y="-1265.5" font-family="Helvetica,sans-Serif" font-size="10.00">* rollingAv()</text>
<text text-anchor="start" x="271.736" y="-1252.5" font-family="Helvetica,sans-Serif" font-size="10.00">* rollingAv()</text>
<text text-anchor="start" x="271.736" y="-1239.5" font-family="Helvetica,sans-Serif" font-size="10.00">* HIST_GRADIENT_RA_LENGTH</text>
<text text-anchor="start" x="271.736" y="-1226.5" font-family="Helvetica,sans-Serif" font-size="10.00">* max()</text>
<text text-anchor="start" x="271.736" y="-1213.5" font-family="Helvetica,sans-Serif" font-size="10.00">* max()</text>
<text text-anchor="start" x="271.736" y="-1200.5" font-family="Helvetica,sans-Serif" font-size="10.00">* descendPeak()</text>
<text text-anchor="start" x="271.736" y="-1187.5" font-family="Helvetica,sans-Serif" font-size="10.00">* getDelta()</text>
<text text-anchor="start" x="271.736" y="-1174.5" font-family="Helvetica,sans-Serif" font-size="10.00">* getDelta()</text>
<text text-anchor="start" x="271.736" y="-1161.5" font-family="Helvetica,sans-Serif" font-size="10.00">* findPeaks()</text>
<text text-anchor="start" x="271.736" y="-1148.5" font-family="Helvetica,sans-Serif" font-size="10.00">* copyCrop()</text>
<text text-anchor="start" x="271.736" y="-1135.5" font-family="Helvetica,sans-Serif" font-size="10.00">* getNumLeadingZeros()</text>
<text text-anchor="start" x="271.736" y="-1122.5" font-family="Helvetica,sans-Serif" font-size="10.00">* getNumTrailingZeros()</text>
</a>
</g>
<!-- Node4&#45;&gt;Node7 -->
<g id="edge14" class="edge"><title>Node4&#45;&gt;Node7</title>
<path fill="none" stroke="#9a32cd" stroke-dasharray="5,2" d="M127.561,-2121.21C146.754,-2099.48 173.735,-2072.25 202.236,-2054 221.422,-2041.71 235.283,-2053.19 250.236,-2036 254.811,-2030.74 259.196,-2025.32 263.398,-2019.76"/>
<polygon fill="#9a32cd" stroke="#9a32cd" points="120.854,-2128.94 124.008,-2118.44 124.131,-2125.16 127.407,-2121.39 127.407,-2121.39 127.407,-2121.39 124.131,-2125.16 130.806,-2124.34 120.854,-2128.94 120.854,-2128.94"/>
<text text-anchor="middle" x="275.736" y="-2097" font-family="Helvetica,sans-Serif" font-size="10.00">size</text>
<text text-anchor="middle" x="275.736" y="-2084" font-family="Helvetica,sans-Serif" font-size="10.00">upstreamSmoothing</text>
<text text-anchor="middle" x="275.736" y="-2071" font-family="Helvetica,sans-Serif" font-size="10.00">HIST_GRADIENT_RA_LENGTH</text>
<text text-anchor="middle" x="275.736" y="-2058" font-family="Helvetica,sans-Serif" font-size="10.00">smoothing</text>
</g>
<!-- Node5 -->
<g id="node8" class="node"><title>Node5</title>
<a xlink:title="STL class.">
<polygon fill="white" stroke="#bfbfbf" points="416.236,-2124.5 416.236,-2187.5 476.236,-2187.5 476.236,-2124.5 416.236,-2124.5"/>
<text text-anchor="middle" x="446.236" y="-2174.5" font-family="Helvetica,sans-Serif" font-size="10.00">std::string</text>
<polyline fill="none" stroke="#bfbfbf" points="416.236,-2166.5 476.236,-2166.5 "/>
<text text-anchor="middle" x="446.236" y="-2153.5" font-family="Helvetica,sans-Serif" font-size="10.00"> </text>
<polyline fill="none" stroke="#bfbfbf" points="416.236,-2145.5 476.236,-2145.5 "/>
<text text-anchor="middle" x="446.236" y="-2132.5" font-family="Helvetica,sans-Serif" font-size="10.00"> </text>
</a>
</g>
<!-- Node5&#45;&gt;Node2 -->
<g id="edge8" class="edge"><title>Node5&#45;&gt;Node2</title>
<path fill="none" stroke="#9a32cd" stroke-dasharray="5,2" d="M462.339,-2114.66C463.091,-2111.76 463.738,-2108.85 464.236,-2106 468.209,-2083.23 464.396,-2077.11 464.236,-2054 461.347,-1636.19 493.636,-1529.66 451.236,-1114 448.887,-1090.97 446.026,-1067.43 442.78,-1043.72"/>
<polygon fill="#9a32cd" stroke="#9a32cd" points="459.445,-2124.44 457.969,-2113.57 460.865,-2119.64 462.284,-2114.85 462.284,-2114.85 462.284,-2114.85 460.865,-2119.64 466.599,-2116.13 459.445,-2124.44 459.445,-2124.44"/>
<text text-anchor="middle" x="500.736" y="-1572.5" font-family="Helvetica,sans-Serif" font-size="10.00">deviceName</text>
</g>
<!-- Node5&#45;&gt;Node7 -->
<g id="edge16" class="edge"><title>Node5&#45;&gt;Node7</title>
<path fill="none" stroke="#9a32cd" stroke-dasharray="5,2" d="M413.781,-2115.69C412.053,-2112.51 410.508,-2109.27 409.236,-2106 400.412,-2083.32 392.809,-2059.71 386.27,-2035.6"/>
<polygon fill="#9a32cd" stroke="#9a32cd" points="419.062,-2124.4 410.032,-2118.18 416.471,-2120.13 413.881,-2115.85 413.881,-2115.85 413.881,-2115.85 416.471,-2120.13 417.73,-2113.52 419.062,-2124.4 419.062,-2124.4"/>
<text text-anchor="middle" x="436.736" y="-2077.5" font-family="Helvetica,sans-Serif" font-size="10.00">deviceName</text>
</g>
<!-- Node6 -->
<g id="node10" class="node"><title>Node6</title>
<a xlink:title="STL class.">
<polygon fill="white" stroke="#bfbfbf" points="383.736,-2226.5 383.736,-2289.5 508.736,-2289.5 508.736,-2226.5 383.736,-2226.5"/>
<text text-anchor="middle" x="446.236" y="-2276.5" font-family="Helvetica,sans-Serif" font-size="10.00">std::basic_string&lt; char &gt;</text>
<polyline fill="none" stroke="#bfbfbf" points="383.736,-2268.5 508.736,-2268.5 "/>
<text text-anchor="middle" x="446.236" y="-2255.5" font-family="Helvetica,sans-Serif" font-size="10.00"> </text>
<polyline fill="none" stroke="#bfbfbf" points="383.736,-2247.5 508.736,-2247.5 "/>
<text text-anchor="middle" x="446.236" y="-2234.5" font-family="Helvetica,sans-Serif" font-size="10.00"> </text>
</a>
</g>
<!-- Node6&#45;&gt;Node5 -->
<g id="edge10" class="edge"><title>Node6&#45;&gt;Node5</title>
<path fill="none" stroke="midnightblue" d="M446.236,-2216.19C446.236,-2206.67 446.236,-2196.71 446.236,-2187.69"/>
<polygon fill="none" stroke="midnightblue" points="442.736,-2216.29 446.236,-2226.29 449.736,-2216.29 442.736,-2216.29"/>
</g>
<!-- Node7&#45;&gt;Node2 -->
<g id="edge12" class="edge"><title>Node7&#45;&gt;Node2</title>
<path fill="none" stroke="orange" stroke-dasharray="5,2" d="M353.236,-1104.02C353.236,-1090.62 353.236,-1077.21 353.236,-1063.83"/>
<polygon fill="orange" stroke="orange" points="349.736,-1104.26 353.236,-1114.26 356.736,-1104.26 349.736,-1104.26"/>
<text text-anchor="middle" x="389.236" y="-1086.5" font-family="Helvetica,sans-Serif" font-size="10.00">&lt; Histogram_t &gt;</text>
</g>
<!-- Node8 -->
<g id="node16" class="node"><title>Node8</title>
<polygon fill="white" stroke="#bfbfbf" points="338.736,-2124.5 338.736,-2187.5 367.736,-2187.5 367.736,-2124.5 338.736,-2124.5"/>
<text text-anchor="middle" x="353.236" y="-2174.5" font-family="Helvetica,sans-Serif" font-size="10.00">T</text>
<polyline fill="none" stroke="#bfbfbf" points="338.736,-2166.5 367.736,-2166.5 "/>
<text text-anchor="middle" x="353.236" y="-2153.5" font-family="Helvetica,sans-Serif" font-size="10.00"> </text>
<polyline fill="none" stroke="#bfbfbf" points="338.736,-2145.5 367.736,-2145.5 "/>
<text text-anchor="middle" x="353.236" y="-2132.5" font-family="Helvetica,sans-Serif" font-size="10.00"> </text>
</g>
<!-- Node8&#45;&gt;Node7 -->
<g id="edge18" class="edge"><title>Node8&#45;&gt;Node7</title>
<path fill="none" stroke="#9a32cd" stroke-dasharray="5,2" d="M353.236,-2114.22C353.236,-2093.68 353.236,-2066.67 353.236,-2035.66"/>
<polygon fill="#9a32cd" stroke="#9a32cd" points="353.236,-2124.35 348.736,-2114.35 353.236,-2119.35 353.236,-2114.35 353.236,-2114.35 353.236,-2114.35 353.236,-2119.35 357.736,-2114.35 353.236,-2124.35 353.236,-2124.35"/>
<text text-anchor="middle" x="362.736" y="-2077.5" font-family="Helvetica,sans-Serif" font-size="10.00">data</text>
</g>
</g>
</svg>
