<?xml version="1.0" encoding="UTF-8" standalone="no"?>
<!DOCTYPE svg PUBLIC "-//W3C//DTD SVG 1.1//EN"
 "http://www.w3.org/Graphics/SVG/1.1/DTD/svg11.dtd">
<!-- Generated by graphviz version 2.26.3 (20100126.1600)
 -->
<!-- Title: G Pages: 1 -->
<svg width="1100pt" height="230pt"
 viewBox="0.00 0.00 1100.00 230.00" xmlns="http://www.w3.org/2000/svg" xmlns:xlink="http://www.w3.org/1999/xlink">
<g id="graph1" class="graph" transform="scale(1 1) rotate(0) translate(4 226)">
<title>G</title>
<polygon fill="white" stroke="white" points="-4,5 -4,-226 1097,-226 1097,5 -4,5"/>
<!-- Node1 -->
<g id="node1" class="node"><title>Node1</title>
<polygon fill="#bfbfbf" stroke="black" points="0,-160.5 0,-181.5 172,-181.5 172,-160.5 0,-160.5"/>
<text text-anchor="middle" x="86" y="-168.5" font-family="Helvetica,sans-Serif" font-size="10.00">Signature::getPowerStateSequence</text>
</g>
<!-- Node2 -->
<g id="node3" class="node"><title>Node2</title>
<a xlink:href="class_signature.html#af94cd3aa816030f1560410e4ad6f2dcc" target="_top" xlink:title="Finding out where each &#39;powerState&#39; starts and ends.">
<polygon fill="white" stroke="black" points="208,-160.5 208,-181.5 396,-181.5 396,-160.5 208,-160.5"/>
<text text-anchor="middle" x="302" y="-168.5" font-family="Helvetica,sans-Serif" font-size="10.00">Signature::updatePowerStateSequence</text>
</a>
</g>
<!-- Node1&#45;&gt;Node2 -->
<g id="edge2" class="edge"><title>Node1&#45;&gt;Node2</title>
<path fill="none" stroke="midnightblue" d="M172.3,-171C180.571,-171 189.018,-171 197.438,-171"/>
<polygon fill="midnightblue" stroke="midnightblue" points="197.681,-174.5 207.681,-171 197.681,-167.5 197.681,-174.5"/>
</g>
<!-- Node3 -->
<g id="node5" class="node"><title>Node3</title>
<a xlink:href="class_signature.html#ad298320a4b490ba402d3f5489ce3651a" target="_top" xlink:title="Signature::getPowerState">
<polygon fill="white" stroke="black" points="448,-200.5 448,-221.5 576,-221.5 576,-200.5 448,-200.5"/>
<text text-anchor="middle" x="512" y="-208.5" font-family="Helvetica,sans-Serif" font-size="10.00">Signature::getPowerState</text>
</a>
</g>
<!-- Node2&#45;&gt;Node3 -->
<g id="edge4" class="edge"><title>Node2&#45;&gt;Node3</title>
<path fill="none" stroke="midnightblue" d="M357.175,-181.51C384.678,-186.748 418.117,-193.118 446.871,-198.595"/>
<polygon fill="midnightblue" stroke="midnightblue" points="446.351,-202.058 456.829,-200.491 447.661,-195.182 446.351,-202.058"/>
</g>
<!-- Node5 -->
<g id="node9" class="node"><title>Node5</title>
<a xlink:href="class_power_state_sequence.html#a52cd95f5d505d6e199eb96fb488b4658" target="_top" xlink:title="PowerStateSequence::plotGraph">
<polygon fill="white" stroke="black" points="432.5,-160.5 432.5,-181.5 591.5,-181.5 591.5,-160.5 432.5,-160.5"/>
<text text-anchor="middle" x="512" y="-168.5" font-family="Helvetica,sans-Serif" font-size="10.00">PowerStateSequence::plotGraph</text>
</a>
</g>
<!-- Node2&#45;&gt;Node5 -->
<g id="edge8" class="edge"><title>Node2&#45;&gt;Node5</title>
<path fill="none" stroke="midnightblue" d="M396.25,-171C404.949,-171 413.748,-171 422.404,-171"/>
<polygon fill="midnightblue" stroke="midnightblue" points="422.485,-174.5 432.485,-171 422.485,-167.5 422.485,-174.5"/>
</g>
<!-- Node10 -->
<g id="node20" class="node"><title>Node10</title>
<a xlink:href="class_array.html#a6603ebeb68bb0c1b493f0808d5694498" target="_top" xlink:title="Returns a rolling average of same length as the original array.">
<polygon fill="white" stroke="black" points="440.5,-80.5 440.5,-101.5 583.5,-101.5 583.5,-80.5 440.5,-80.5"/>
<text text-anchor="middle" x="512" y="-88.5" font-family="Helvetica,sans-Serif" font-size="10.00">Array&lt; Sample_t &gt;::rollingAv</text>
</a>
</g>
<!-- Node2&#45;&gt;Node10 -->
<g id="edge20" class="edge"><title>Node2&#45;&gt;Node10</title>
<path fill="none" stroke="midnightblue" d="M329.886,-160.377C367.174,-146.172 433.378,-120.951 474.86,-105.148"/>
<polygon fill="midnightblue" stroke="midnightblue" points="476.234,-108.371 484.333,-101.54 473.742,-101.829 476.234,-108.371"/>
</g>
<!-- Node4 -->
<g id="node7" class="node"><title>Node4</title>
<a xlink:href="namespace_utils.html#a17211384a3579f952022415556bcda62" target="_top" xlink:title="Utils::roundToNearestInt">
<polygon fill="white" stroke="black" points="641,-200.5 641,-221.5 765,-221.5 765,-200.5 641,-200.5"/>
<text text-anchor="middle" x="703" y="-208.5" font-family="Helvetica,sans-Serif" font-size="10.00">Utils::roundToNearestInt</text>
</a>
</g>
<!-- Node3&#45;&gt;Node4 -->
<g id="edge6" class="edge"><title>Node3&#45;&gt;Node4</title>
<path fill="none" stroke="midnightblue" d="M576.132,-211C593.698,-211 612.857,-211 630.84,-211"/>
<polygon fill="midnightblue" stroke="midnightblue" points="630.981,-214.5 640.981,-211 630.981,-207.5 630.981,-214.5"/>
</g>
<!-- Node6 -->
<g id="node11" class="node"><title>Node6</title>
<a xlink:href="namespace_g_n_uplot.html#ab276a6d946560395f9d6caa8cb6cb640" target="_top" xlink:title="Plot a graph using GNUplot.">
<polygon fill="white" stroke="black" points="664.5,-160.5 664.5,-181.5 741.5,-181.5 741.5,-160.5 664.5,-160.5"/>
<text text-anchor="middle" x="703" y="-168.5" font-family="Helvetica,sans-Serif" font-size="10.00">GNUplot::plot</text>
</a>
</g>
<!-- Node5&#45;&gt;Node6 -->
<g id="edge10" class="edge"><title>Node5&#45;&gt;Node6</title>
<path fill="none" stroke="midnightblue" d="M591.618,-171C612.864,-171 635.189,-171 654.227,-171"/>
<polygon fill="midnightblue" stroke="midnightblue" points="654.437,-174.5 664.437,-171 654.437,-167.5 654.437,-174.5"/>
</g>
<!-- Node7 -->
<g id="node13" class="node"><title>Node7</title>
<a xlink:href="namespace_utils.html#ae7741f30cf104d6660673d7c336ef5cc" target="_top" xlink:title="Utils::fileExists">
<polygon fill="white" stroke="black" points="845.5,-200.5 845.5,-221.5 928.5,-221.5 928.5,-200.5 845.5,-200.5"/>
<text text-anchor="middle" x="887" y="-208.5" font-family="Helvetica,sans-Serif" font-size="10.00">Utils::fileExists</text>
</a>
</g>
<!-- Node6&#45;&gt;Node7 -->
<g id="edge12" class="edge"><title>Node6&#45;&gt;Node7</title>
<path fill="none" stroke="midnightblue" d="M741.572,-179.385C768.84,-185.313 805.689,-193.324 835.471,-199.798"/>
<polygon fill="midnightblue" stroke="midnightblue" points="834.761,-203.225 845.276,-201.93 836.248,-196.385 834.761,-203.225"/>
</g>
<!-- Node8 -->
<g id="node15" class="node"><title>Node8</title>
<a xlink:href="namespace_g_n_uplot.html#a1a232691d61b3e55fdcc406a3a2e9c1f" target="_top" xlink:title="Replaces all the tokens in the template file &#39;config/plotVars.inFilename&#39; with variables from...">
<polygon fill="white" stroke="black" points="814,-160.5 814,-181.5 960,-181.5 960,-160.5 814,-160.5"/>
<text text-anchor="middle" x="887" y="-168.5" font-family="Helvetica,sans-Serif" font-size="10.00">GNUplot::instantiateTemplate</text>
</a>
</g>
<!-- Node6&#45;&gt;Node8 -->
<g id="edge14" class="edge"><title>Node6&#45;&gt;Node8</title>
<path fill="none" stroke="midnightblue" d="M741.572,-171C759.676,-171 782.003,-171 803.682,-171"/>
<polygon fill="midnightblue" stroke="midnightblue" points="803.914,-174.5 813.914,-171 803.914,-167.5 803.914,-174.5"/>
</g>
<!-- Node9 -->
<g id="node17" class="node"><title>Node9</title>
<a xlink:href="namespace_g_n_uplot.html#a60ecface5bf85a5e3e2e1743bd266737" target="_top" xlink:title="Replace all characters which might confuse &#39;sed&#39;.">
<polygon fill="white" stroke="black" points="996.5,-140.5 996.5,-161.5 1091.5,-161.5 1091.5,-140.5 996.5,-140.5"/>
<text text-anchor="middle" x="1044" y="-148.5" font-family="Helvetica,sans-Serif" font-size="10.00">GNUplot::sanitise</text>
</a>
</g>
<!-- Node6&#45;&gt;Node9 -->
<g id="edge18" class="edge"><title>Node6&#45;&gt;Node9</title>
<path fill="none" stroke="midnightblue" d="M741.555,-162.308C762.801,-157.96 789.718,-153.17 814,-151 872.421,-145.779 939.524,-146.549 986.111,-148.155"/>
<polygon fill="midnightblue" stroke="midnightblue" points="986.194,-151.66 996.316,-148.531 986.452,-144.665 986.194,-151.66"/>
</g>
<!-- Node8&#45;&gt;Node9 -->
<g id="edge16" class="edge"><title>Node8&#45;&gt;Node9</title>
<path fill="none" stroke="midnightblue" d="M960.444,-161.644C969.068,-160.546 977.773,-159.437 986.142,-158.37"/>
<polygon fill="midnightblue" stroke="midnightblue" points="986.678,-161.831 996.155,-157.095 985.793,-154.887 986.678,-161.831"/>
</g>
<!-- Node10&#45;&gt;Node10 -->
<g id="edge22" class="edge"><title>Node10&#45;&gt;Node10</title>
<path fill="none" stroke="midnightblue" d="M481.811,-101.708C468.91,-110.653 478.973,-120 512,-120 534.19,-120 546.014,-115.781 547.471,-110.299"/>
<polygon fill="midnightblue" stroke="midnightblue" points="550.408,-108.393 542.189,-101.708 544.445,-112.06 550.408,-108.393"/>
</g>
<!-- Node11 -->
<g id="node23" class="node"><title>Node11</title>
<a xlink:href="class_array.html#a94bb8954df95b259c7fadf175f531b6b" target="_top" xlink:title="Array::setDeviceName">
<polygon fill="white" stroke="black" points="645,-120.5 645,-141.5 761,-141.5 761,-120.5 645,-120.5"/>
<text text-anchor="middle" x="703" y="-128.5" font-family="Helvetica,sans-Serif" font-size="10.00">Array::setDeviceName</text>
</a>
</g>
<!-- Node10&#45;&gt;Node11 -->
<g id="edge24" class="edge"><title>Node10&#45;&gt;Node11</title>
<path fill="none" stroke="midnightblue" d="M562.183,-101.51C586.869,-106.679 616.815,-112.951 642.734,-118.379"/>
<polygon fill="midnightblue" stroke="midnightblue" points="642.316,-121.867 652.821,-120.491 643.751,-115.016 642.316,-121.867"/>
</g>
<!-- Node12 -->
<g id="node25" class="node"><title>Node12</title>
<a xlink:href="class_array.html#a5b752093b1b3ab4d82707115d1f41adc" target="_top" xlink:title="Array::setSize">
<polygon fill="white" stroke="black" points="663.5,-80.5 663.5,-101.5 742.5,-101.5 742.5,-80.5 663.5,-80.5"/>
<text text-anchor="middle" x="703" y="-88.5" font-family="Helvetica,sans-Serif" font-size="10.00">Array::setSize</text>
</a>
</g>
<!-- Node10&#45;&gt;Node12 -->
<g id="edge26" class="edge"><title>Node10&#45;&gt;Node12</title>
<path fill="none" stroke="midnightblue" d="M583.665,-91C606.862,-91 632.063,-91 653.303,-91"/>
<polygon fill="midnightblue" stroke="midnightblue" points="653.386,-94.5001 663.386,-91 653.386,-87.5001 653.386,-94.5001"/>
</g>
<!-- Node13 -->
<g id="node27" class="node"><title>Node13</title>
<a xlink:href="class_array.html#af4cbe83b9a05e769dd54007402b9b3e1" target="_top" xlink:title="Used simply to keep tracking of smoothing parameters throughout the workflow.">
<polygon fill="white" stroke="black" points="650,-40.5 650,-61.5 756,-61.5 756,-40.5 650,-40.5"/>
<text text-anchor="middle" x="703" y="-48.5" font-family="Helvetica,sans-Serif" font-size="10.00">Array::setSmoothing</text>
</a>
</g>
<!-- Node10&#45;&gt;Node13 -->
<g id="edge28" class="edge"><title>Node10&#45;&gt;Node13</title>
<path fill="none" stroke="midnightblue" d="M562.183,-80.4905C586.869,-75.3205 616.815,-69.0492 642.734,-63.6212"/>
<polygon fill="midnightblue" stroke="midnightblue" points="643.751,-66.9842 652.821,-61.5087 642.316,-60.1329 643.751,-66.9842"/>
</g>
<!-- Node14 -->
<g id="node29" class="node"><title>Node14</title>
<a xlink:href="class_array.html#a0af1f966c6f45c8ff7949ca8b290e01a" target="_top" xlink:title="Array::setUpstreamSmoothing">
<polygon fill="white" stroke="black" points="628.5,-0.5 628.5,-21.5 777.5,-21.5 777.5,-0.5 628.5,-0.5"/>
<text text-anchor="middle" x="703" y="-8.5" font-family="Helvetica,sans-Serif" font-size="10.00">Array::setUpstreamSmoothing</text>
</a>
</g>
<!-- Node10&#45;&gt;Node14 -->
<g id="edge30" class="edge"><title>Node10&#45;&gt;Node14</title>
<path fill="none" stroke="midnightblue" d="M529.523,-80.4024C551.766,-67.3151 591.626,-45.065 628,-31 634.021,-28.6717 640.415,-26.5144 646.832,-24.5456"/>
<polygon fill="midnightblue" stroke="midnightblue" points="648.266,-27.7732 656.883,-21.6096 646.303,-21.0539 648.266,-27.7732"/>
</g>
</g>
</svg>
