<?xml version="1.0" encoding="UTF-8" standalone="no"?>
<!DOCTYPE svg PUBLIC "-//W3C//DTD SVG 1.1//EN"
 "http://www.w3.org/Graphics/SVG/1.1/DTD/svg11.dtd">
<!-- Generated by graphviz version 2.26.3 (20100126.1600)
 -->
<!-- Title: G Pages: 1 -->
<svg width="1224pt" height="170pt"
 viewBox="0.00 0.00 1224.00 170.00" xmlns="http://www.w3.org/2000/svg" xmlns:xlink="http://www.w3.org/1999/xlink">
<g id="graph1" class="graph" transform="scale(1 1) rotate(0) translate(4 166)">
<title>G</title>
<polygon fill="white" stroke="white" points="-4,5 -4,-166 1221,-166 1221,5 -4,5"/>
<!-- Node1 -->
<g id="node1" class="node"><title>Node1</title>
<polygon fill="#bfbfbf" stroke="black" points="0.5,-60.5 0.5,-81.5 149.5,-81.5 149.5,-60.5 0.5,-60.5"/>
<text text-anchor="middle" x="75" y="-68.5" font-family="Helvetica,sans-Serif" font-size="10.00">Array::setUpstreamSmoothing</text>
</g>
<!-- Node2 -->
<g id="node3" class="node"><title>Node2</title>
<a xlink:href="class_array.html#adeb6ee31eaa806644ce52552b8fc8bc1" target="_top" xlink:title="Array\&lt; Sample_t \&gt;::getDelta">
<polygon fill="white" stroke="black" points="187,-80.5 187,-101.5 329,-101.5 329,-80.5 187,-80.5"/>
<text text-anchor="middle" x="258" y="-88.5" font-family="Helvetica,sans-Serif" font-size="10.00">Array&lt; Sample_t &gt;::getDelta</text>
</a>
</g>
<!-- Node1&#45;&gt;Node2 -->
<g id="edge2" class="edge"><title>Node1&#45;&gt;Node2</title>
<path fill="none" stroke="midnightblue" d="M159.825,-80.2704C168.844,-81.2562 177.951,-82.2514 186.791,-83.2176"/>
<polygon fill="midnightblue" stroke="midnightblue" points="160.018,-76.7708 149.697,-79.1636 159.258,-83.7294 160.018,-76.7708"/>
</g>
<!-- Node10 -->
<g id="node19" class="node"><title>Node10</title>
<a xlink:href="class_array.html#a6603ebeb68bb0c1b493f0808d5694498" target="_top" xlink:title="Returns a rolling average of same length as the original array.">
<polygon fill="white" stroke="black" points="186.5,-40.5 186.5,-61.5 329.5,-61.5 329.5,-40.5 186.5,-40.5"/>
<text text-anchor="middle" x="258" y="-48.5" font-family="Helvetica,sans-Serif" font-size="10.00">Array&lt; Sample_t &gt;::rollingAv</text>
</a>
</g>
<!-- Node1&#45;&gt;Node10 -->
<g id="edge18" class="edge"><title>Node1&#45;&gt;Node10</title>
<path fill="none" stroke="midnightblue" d="M159.742,-61.7385C168.689,-60.7608 177.722,-59.7736 186.497,-58.8146"/>
<polygon fill="midnightblue" stroke="midnightblue" points="159.258,-58.2706 149.697,-62.8364 160.018,-65.2292 159.258,-58.2706"/>
</g>
<!-- Node3 -->
<g id="node5" class="node"><title>Node3</title>
<a xlink:href="class_signature.html#a6bf289b7aa40eb2791d13d8669089953" target="_top" xlink:title="Merge consecutive spikes of the same sign and then remove any spikes under 10 Watts.">
<polygon fill="white" stroke="black" points="390,-120.5 390,-141.5 530,-141.5 530,-120.5 390,-120.5"/>
<text text-anchor="middle" x="460" y="-128.5" font-family="Helvetica,sans-Serif" font-size="10.00">Signature::getMergedSpikes</text>
</a>
</g>
<!-- Node2&#45;&gt;Node3 -->
<g id="edge4" class="edge"><title>Node2&#45;&gt;Node3</title>
<path fill="none" stroke="midnightblue" d="M321.015,-103.478C348.592,-108.939 380.592,-115.276 406.931,-120.491"/>
<polygon fill="midnightblue" stroke="midnightblue" points="321.563,-100.019 311.073,-101.51 320.203,-106.885 321.563,-100.019"/>
</g>
<!-- Node9 -->
<g id="node17" class="node"><title>Node9</title>
<a xlink:href="class_signature.html#a3ddd7b321b4eda212b310c8462febf3f" target="_top" xlink:title="Constructor for opening a CSV file.">
<polygon fill="white" stroke="black" points="407.5,-80.5 407.5,-101.5 512.5,-101.5 512.5,-80.5 407.5,-80.5"/>
<text text-anchor="middle" x="460" y="-88.5" font-family="Helvetica,sans-Serif" font-size="10.00">Signature::Signature</text>
</a>
</g>
<!-- Node2&#45;&gt;Node9 -->
<g id="edge16" class="edge"><title>Node2&#45;&gt;Node9</title>
<path fill="none" stroke="midnightblue" d="M339.27,-91C362.156,-91 386.449,-91 407.197,-91"/>
<polygon fill="midnightblue" stroke="midnightblue" points="339.218,-87.5001 329.218,-91 339.218,-94.5001 339.218,-87.5001"/>
</g>
<!-- Node4 -->
<g id="node7" class="node"><title>Node4</title>
<a xlink:href="class_signature.html#a02acc8e9f1ceb1af2908807eb1526fcd" target="_top" xlink:title="Takes the gradient of this Signature, then merges gradient values with the same sign, then removes transient spikes, then sorts by value.">
<polygon fill="white" stroke="black" points="610.5,-120.5 610.5,-141.5 741.5,-141.5 741.5,-120.5 610.5,-120.5"/>
<text text-anchor="middle" x="676" y="-128.5" font-family="Helvetica,sans-Serif" font-size="10.00">Signature::getDeltaSpikes</text>
</a>
</g>
<!-- Node3&#45;&gt;Node4 -->
<g id="edge6" class="edge"><title>Node3&#45;&gt;Node4</title>
<path fill="none" stroke="midnightblue" d="M540.234,-131C563.298,-131 588.175,-131 610.255,-131"/>
<polygon fill="midnightblue" stroke="midnightblue" points="540.129,-127.5 530.129,-131 540.129,-134.5 540.129,-127.5"/>
</g>
<!-- Node5 -->
<g id="node9" class="node"><title>Node5</title>
<a xlink:href="class_power_state_graph.html#a90ebffe4864640182b342a814af0f0a7" target="_top" xlink:title="Update or initialise Power State Graph.">
<polygon fill="white" stroke="black" points="812.5,-140.5 812.5,-161.5 941.5,-161.5 941.5,-140.5 812.5,-140.5"/>
<text text-anchor="middle" x="877" y="-148.5" font-family="Helvetica,sans-Serif" font-size="10.00">PowerStateGraph::update</text>
</a>
</g>
<!-- Node4&#45;&gt;Node5 -->
<g id="edge8" class="edge"><title>Node4&#45;&gt;Node5</title>
<path fill="none" stroke="midnightblue" d="M751.526,-138.515C771.504,-140.503 792.887,-142.631 812.239,-144.556"/>
<polygon fill="midnightblue" stroke="midnightblue" points="751.834,-135.028 741.537,-137.521 751.141,-141.994 751.834,-135.028"/>
</g>
<!-- Node8 -->
<g id="node15" class="node"><title>Node8</title>
<a xlink:href="class_power_state_graph.html#a26384a0a6d9867d336814b70b7a22cd3" target="_top" xlink:title="Update (or create) directional edges between power states (vertices) so the edges are consistent with...">
<polygon fill="white" stroke="black" points="798.5,-100.5 798.5,-121.5 955.5,-121.5 955.5,-100.5 798.5,-100.5"/>
<text text-anchor="middle" x="877" y="-108.5" font-family="Helvetica,sans-Serif" font-size="10.00">PowerStateGraph::updateEdges</text>
</a>
</g>
<!-- Node4&#45;&gt;Node8 -->
<g id="edge14" class="edge"><title>Node4&#45;&gt;Node8</title>
<path fill="none" stroke="midnightblue" d="M751.882,-123.45C767.036,-121.942 782.986,-120.355 798.234,-118.837"/>
<polygon fill="midnightblue" stroke="midnightblue" points="751.141,-120.006 741.537,-124.479 751.834,-126.972 751.141,-120.006"/>
</g>
<!-- Node6 -->
<g id="node11" class="node"><title>Node6</title>
<a xlink:href="class_device.html#ad3d9721aca89723e22cf723149a39583" target="_top" xlink:title="Trains the powerStateGraph using signatures declared with loadSignatures(). To be called once signatu...">
<polygon fill="white" stroke="black" points="992.5,-140.5 992.5,-161.5 1141.5,-161.5 1141.5,-140.5 992.5,-140.5"/>
<text text-anchor="middle" x="1067" y="-148.5" font-family="Helvetica,sans-Serif" font-size="10.00">Device::trainPowerStateGraph</text>
</a>
</g>
<!-- Node5&#45;&gt;Node6 -->
<g id="edge10" class="edge"><title>Node5&#45;&gt;Node6</title>
<path fill="none" stroke="midnightblue" d="M951.703,-151C965.095,-151 979.051,-151 992.44,-151"/>
<polygon fill="midnightblue" stroke="midnightblue" points="951.59,-147.5 941.59,-151 951.59,-154.5 951.59,-147.5"/>
</g>
<!-- Node7 -->
<g id="node13" class="node"><title>Node7</title>
<a xlink:href="_main_8cpp.html#a0ddf1224851353fc92bfbff6f499fa97" target="_top" xlink:title="main">
<polygon fill="white" stroke="black" points="1178,-140.5 1178,-161.5 1216,-161.5 1216,-140.5 1178,-140.5"/>
<text text-anchor="middle" x="1197" y="-148.5" font-family="Helvetica,sans-Serif" font-size="10.00">main</text>
</a>
</g>
<!-- Node6&#45;&gt;Node7 -->
<g id="edge12" class="edge"><title>Node6&#45;&gt;Node7</title>
<path fill="none" stroke="midnightblue" d="M1152.02,-151C1161.57,-151 1170.49,-151 1177.82,-151"/>
<polygon fill="midnightblue" stroke="midnightblue" points="1151.87,-147.5 1141.87,-151 1151.87,-154.5 1151.87,-147.5"/>
</g>
<!-- Node11 -->
<g id="node21" class="node"><title>Node11</title>
<a xlink:href="class_signature.html#afebb6e34dcba3d828093eba1ffc7fad6" target="_top" xlink:title="Runs through signature data to find power states and stores the resulting power states in powerStates...">
<polygon fill="white" stroke="black" points="385.5,-40.5 385.5,-61.5 534.5,-61.5 534.5,-40.5 385.5,-40.5"/>
<text text-anchor="middle" x="460" y="-48.5" font-family="Helvetica,sans-Serif" font-size="10.00">Signature::updatePowerStates</text>
</a>
</g>
<!-- Node10&#45;&gt;Node11 -->
<g id="edge20" class="edge"><title>Node10&#45;&gt;Node11</title>
<path fill="none" stroke="midnightblue" d="M339.781,-51C354.788,-51 370.384,-51 385.175,-51"/>
<polygon fill="midnightblue" stroke="midnightblue" points="339.502,-47.5001 329.502,-51 339.502,-54.5001 339.502,-47.5001"/>
</g>
<!-- Node13 -->
<g id="node25" class="node"><title>Node13</title>
<a xlink:href="class_signature.html#af94cd3aa816030f1560410e4ad6f2dcc" target="_top" xlink:title="Finding out where each &#39;powerState&#39; starts and ends.">
<polygon fill="white" stroke="black" points="366,-0.5 366,-21.5 554,-21.5 554,-0.5 366,-0.5"/>
<text text-anchor="middle" x="460" y="-8.5" font-family="Helvetica,sans-Serif" font-size="10.00">Signature::updatePowerStateSequence</text>
</a>
</g>
<!-- Node10&#45;&gt;Node13 -->
<g id="edge24" class="edge"><title>Node10&#45;&gt;Node13</title>
<path fill="none" stroke="midnightblue" d="M321.015,-38.5219C348.592,-33.061 380.592,-26.7243 406.931,-21.5087"/>
<polygon fill="midnightblue" stroke="midnightblue" points="320.203,-35.1146 311.073,-40.4905 321.563,-41.9812 320.203,-35.1146"/>
</g>
<!-- Node12 -->
<g id="node23" class="node"><title>Node12</title>
<a xlink:href="class_signature.html#ada861d4b0e402605478abc4217f35979" target="_top" xlink:title="Signature::getPowerStates">
<polygon fill="white" stroke="black" points="609,-40.5 609,-61.5 743,-61.5 743,-40.5 609,-40.5"/>
<text text-anchor="middle" x="676" y="-48.5" font-family="Helvetica,sans-Serif" font-size="10.00">Signature::getPowerStates</text>
</a>
</g>
<!-- Node11&#45;&gt;Node12 -->
<g id="edge22" class="edge"><title>Node11&#45;&gt;Node12</title>
<path fill="none" stroke="midnightblue" d="M544.665,-51C566.001,-51 588.614,-51 608.952,-51"/>
<polygon fill="midnightblue" stroke="midnightblue" points="544.637,-47.5001 534.637,-51 544.637,-54.5001 544.637,-47.5001"/>
</g>
<!-- Node14 -->
<g id="node27" class="node"><title>Node14</title>
<a xlink:href="class_signature.html#abf3dc6265e852ecb66a928c682e3eb5f" target="_top" xlink:title="Signature::getPowerStateSequence">
<polygon fill="white" stroke="black" points="590,-0.5 590,-21.5 762,-21.5 762,-0.5 590,-0.5"/>
<text text-anchor="middle" x="676" y="-8.5" font-family="Helvetica,sans-Serif" font-size="10.00">Signature::getPowerStateSequence</text>
</a>
</g>
<!-- Node13&#45;&gt;Node14 -->
<g id="edge26" class="edge"><title>Node13&#45;&gt;Node14</title>
<path fill="none" stroke="midnightblue" d="M564.129,-11C572.685,-11 581.274,-11 589.68,-11"/>
<polygon fill="midnightblue" stroke="midnightblue" points="564.112,-7.5001 554.112,-11 564.112,-14.5001 564.112,-7.5001"/>
</g>
</g>
</svg>
