<?xml version="1.0" encoding="UTF-8" standalone="no"?>
<!DOCTYPE svg PUBLIC "-//W3C//DTD SVG 1.1//EN"
 "http://www.w3.org/Graphics/SVG/1.1/DTD/svg11.dtd">
<!-- Generated by graphviz version 2.26.3 (20100126.1600)
 -->
<!-- Title: G Pages: 1 -->
<svg width="458pt" height="30pt"
 viewBox="0.00 0.00 458.00 30.00" xmlns="http://www.w3.org/2000/svg" xmlns:xlink="http://www.w3.org/1999/xlink">
<g id="graph1" class="graph" transform="scale(1 1) rotate(0) translate(4 26)">
<title>G</title>
<polygon fill="white" stroke="white" points="-4,5 -4,-26 455,-26 455,5 -4,5"/>
<!-- Node1 -->
<g id="node1" class="node"><title>Node1</title>
<polygon fill="#bfbfbf" stroke="black" points="0,-0.5 0,-21.5 184,-21.5 184,-0.5 0,-0.5"/>
<text text-anchor="middle" x="92" y="-8.5" font-family="Helvetica,sans-Serif" font-size="10.00">PowerStateGraph::removeOverlapping</text>
</g>
<!-- Node2 -->
<g id="node3" class="node"><title>Node2</title>
<a xlink:href="class_power_state_graph.html#a3823f720987e5e13eb7f1cfae7cdf4be" target="_top" xlink:title="This is the main public interface to the disaggregation algorithm.">
<polygon fill="white" stroke="black" points="220.5,-0.5 220.5,-21.5 375.5,-21.5 375.5,-0.5 220.5,-0.5"/>
<text text-anchor="middle" x="298" y="-8.5" font-family="Helvetica,sans-Serif" font-size="10.00">PowerStateGraph::disaggregate</text>
</a>
</g>
<!-- Node1&#45;&gt;Node2 -->
<g id="edge2" class="edge"><title>Node1&#45;&gt;Node2</title>
<path fill="none" stroke="midnightblue" d="M194.401,-11C203.145,-11 211.895,-11 220.398,-11"/>
<polygon fill="midnightblue" stroke="midnightblue" points="194.155,-7.5001 184.155,-11 194.155,-14.5001 194.155,-7.5001"/>
</g>
<!-- Node3 -->
<g id="node5" class="node"><title>Node3</title>
<a xlink:href="_main_8cpp.html#a0ddf1224851353fc92bfbff6f499fa97" target="_top" xlink:title="main">
<polygon fill="white" stroke="black" points="412,-0.5 412,-21.5 450,-21.5 450,-0.5 412,-0.5"/>
<text text-anchor="middle" x="431" y="-8.5" font-family="Helvetica,sans-Serif" font-size="10.00">main</text>
</a>
</g>
<!-- Node2&#45;&gt;Node3 -->
<g id="edge4" class="edge"><title>Node2&#45;&gt;Node3</title>
<path fill="none" stroke="midnightblue" d="M385.963,-11C395.567,-11 404.502,-11 411.84,-11"/>
<polygon fill="midnightblue" stroke="midnightblue" points="385.752,-7.5001 375.751,-11 385.751,-14.5001 385.752,-7.5001"/>
</g>
</g>
</svg>
