<?xml version="1.0" encoding="UTF-8" standalone="no"?>
<!DOCTYPE svg PUBLIC "-//W3C//DTD SVG 1.1//EN"
 "http://www.w3.org/Graphics/SVG/1.1/DTD/svg11.dtd">
<!-- Generated by graphviz version 2.26.3 (20100126.1600)
 -->
<!-- Title: G Pages: 1 -->
<svg width="622pt" height="30pt"
 viewBox="0.00 0.00 622.00 30.00" xmlns="http://www.w3.org/2000/svg" xmlns:xlink="http://www.w3.org/1999/xlink">
<g id="graph1" class="graph" transform="scale(1 1) rotate(0) translate(4 26)">
<title>G</title>
<polygon fill="white" stroke="white" points="-4,5 -4,-26 619,-26 619,5 -4,5"/>
<!-- Node1 -->
<g id="node1" class="node"><title>Node1</title>
<polygon fill="#bfbfbf" stroke="black" points="0.5,-0.5 0.5,-21.5 187.5,-21.5 187.5,-0.5 0.5,-0.5"/>
<text text-anchor="middle" x="94" y="-8.5" font-family="Helvetica,sans-Serif" font-size="10.00">PowerStateGraph::updateOrInsertEdge</text>
</g>
<!-- Node2 -->
<g id="node3" class="node"><title>Node2</title>
<a xlink:href="class_power_state_graph.html#a90ebffe4864640182b342a814af0f0a7" target="_top" xlink:title="Update or initialise Power State Graph.">
<polygon fill="white" stroke="black" points="224.5,-0.5 224.5,-21.5 353.5,-21.5 353.5,-0.5 224.5,-0.5"/>
<text text-anchor="middle" x="289" y="-8.5" font-family="Helvetica,sans-Serif" font-size="10.00">PowerStateGraph::update</text>
</a>
</g>
<!-- Node1&#45;&gt;Node2 -->
<g id="edge2" class="edge"><title>Node1&#45;&gt;Node2</title>
<path fill="none" stroke="midnightblue" d="M197.768,-11C206.848,-11 215.856,-11 224.474,-11"/>
<polygon fill="midnightblue" stroke="midnightblue" points="197.502,-7.5001 187.502,-11 197.502,-14.5001 197.502,-7.5001"/>
</g>
<!-- Node3 -->
<g id="node5" class="node"><title>Node3</title>
<a xlink:href="class_device.html#ad3d9721aca89723e22cf723149a39583" target="_top" xlink:title="Trains the powerStateGraph using signatures declared with loadSignatures(). To be called once signatu...">
<polygon fill="white" stroke="black" points="390.5,-0.5 390.5,-21.5 539.5,-21.5 539.5,-0.5 390.5,-0.5"/>
<text text-anchor="middle" x="465" y="-8.5" font-family="Helvetica,sans-Serif" font-size="10.00">Device::trainPowerStateGraph</text>
</a>
</g>
<!-- Node2&#45;&gt;Node3 -->
<g id="edge4" class="edge"><title>Node2&#45;&gt;Node3</title>
<path fill="none" stroke="midnightblue" d="M363.762,-11C372.562,-11 381.542,-11 390.34,-11"/>
<polygon fill="midnightblue" stroke="midnightblue" points="363.537,-7.5001 353.537,-11 363.536,-14.5001 363.537,-7.5001"/>
</g>
<!-- Node4 -->
<g id="node7" class="node"><title>Node4</title>
<a xlink:href="_main_8cpp.html#a0ddf1224851353fc92bfbff6f499fa97" target="_top" xlink:title="main">
<polygon fill="white" stroke="black" points="576,-0.5 576,-21.5 614,-21.5 614,-0.5 576,-0.5"/>
<text text-anchor="middle" x="595" y="-8.5" font-family="Helvetica,sans-Serif" font-size="10.00">main</text>
</a>
</g>
<!-- Node3&#45;&gt;Node4 -->
<g id="edge6" class="edge"><title>Node3&#45;&gt;Node4</title>
<path fill="none" stroke="midnightblue" d="M550.018,-11C559.574,-11 568.49,-11 575.822,-11"/>
<polygon fill="midnightblue" stroke="midnightblue" points="549.868,-7.5001 539.868,-11 549.868,-14.5001 549.868,-7.5001"/>
</g>
</g>
</svg>
