<?xml version="1.0" encoding="UTF-8" standalone="no"?>
<!DOCTYPE svg PUBLIC "-//W3C//DTD SVG 1.1//EN"
 "http://www.w3.org/Graphics/SVG/1.1/DTD/svg11.dtd">
<!-- Generated by graphviz version 2.26.3 (20100126.1600)
 -->
<!-- Title: G Pages: 1 -->
<svg width="674pt" height="150pt"
 viewBox="0.00 0.00 674.00 150.00" xmlns="http://www.w3.org/2000/svg" xmlns:xlink="http://www.w3.org/1999/xlink">
<g id="graph1" class="graph" transform="scale(1 1) rotate(0) translate(4 146)">
<title>G</title>
<polygon fill="white" stroke="white" points="-4,5 -4,-146 671,-146 671,5 -4,5"/>
<!-- Node1 -->
<g id="node1" class="node"><title>Node1</title>
<polygon fill="#bfbfbf" stroke="black" points="0,-60.5 0,-81.5 106,-81.5 106,-60.5 0,-60.5"/>
<text text-anchor="middle" x="53" y="-68.5" font-family="Helvetica,sans-Serif" font-size="10.00">Array::getSmoothing</text>
</g>
<!-- Node2 -->
<g id="node3" class="node"><title>Node2</title>
<a xlink:href="class_array.html#ae68b00a51265644510bc23945960561e" target="_top" xlink:title="Copy from source to this object, starting at cropFront index and ignoring the last cropBack items fro...">
<polygon fill="white" stroke="black" points="152.5,-120.5 152.5,-141.5 299.5,-141.5 299.5,-120.5 152.5,-120.5"/>
<text text-anchor="middle" x="226" y="-128.5" font-family="Helvetica,sans-Serif" font-size="10.00">Array&lt; Sample_t &gt;::copyCrop</text>
</a>
</g>
<!-- Node1&#45;&gt;Node2 -->
<g id="edge2" class="edge"><title>Node1&#45;&gt;Node2</title>
<path fill="none" stroke="midnightblue" d="M82.8192,-86.104C99.8392,-94.2899 121.757,-104.11 142,-111 152.502,-114.574 163.951,-117.753 174.922,-120.467"/>
<polygon fill="midnightblue" stroke="midnightblue" points="83.9351,-82.7538 73.4138,-81.5077 80.8616,-89.043 83.9351,-82.7538"/>
</g>
<!-- Node4 -->
<g id="node7" class="node"><title>Node4</title>
<a xlink:href="class_signature.html#a80ab9f3c989f356fd8fd61282de3a994" target="_top" xlink:title="Signature::drawHistWithStateBars">
<polygon fill="white" stroke="black" points="142.5,-80.5 142.5,-101.5 309.5,-101.5 309.5,-80.5 142.5,-80.5"/>
<text text-anchor="middle" x="226" y="-88.5" font-family="Helvetica,sans-Serif" font-size="10.00">Signature::drawHistWithStateBars</text>
</a>
</g>
<!-- Node1&#45;&gt;Node4 -->
<g id="edge6" class="edge"><title>Node1&#45;&gt;Node4</title>
<path fill="none" stroke="midnightblue" d="M116.422,-78.3321C124.854,-79.3069 133.602,-80.3182 142.312,-81.3251"/>
<polygon fill="midnightblue" stroke="midnightblue" points="116.653,-74.8355 106.317,-77.1639 115.849,-81.7892 116.653,-74.8355"/>
</g>
<!-- Node7 -->
<g id="node13" class="node"><title>Node7</title>
<a xlink:href="class_histogram.html#a329173c485e08f1da1383e4df38f99ac" target="_top" xlink:title="Create a (relative) histogram from a sample array.">
<polygon fill="white" stroke="black" points="169.5,-40.5 169.5,-61.5 282.5,-61.5 282.5,-40.5 169.5,-40.5"/>
<text text-anchor="middle" x="226" y="-48.5" font-family="Helvetica,sans-Serif" font-size="10.00">Histogram::Histogram</text>
</a>
</g>
<!-- Node1&#45;&gt;Node7 -->
<g id="edge12" class="edge"><title>Node1&#45;&gt;Node7</title>
<path fill="none" stroke="midnightblue" d="M116.34,-63.6774C133.665,-61.6746 152.328,-59.517 169.259,-57.5597"/>
<polygon fill="midnightblue" stroke="midnightblue" points="115.849,-60.2108 106.317,-64.8361 116.653,-67.1645 115.849,-60.2108"/>
</g>
<!-- Node8 -->
<g id="node15" class="node"><title>Node8</title>
<a xlink:href="class_array.html#a72349c801957e25b2d797e31aea10164" target="_top" xlink:title="Array\&lt; Sample_t \&gt;::operator=">
<polygon fill="white" stroke="black" points="153,-0.5 153,-21.5 299,-21.5 299,-0.5 153,-0.5"/>
<text text-anchor="middle" x="226" y="-8.5" font-family="Helvetica,sans-Serif" font-size="10.00">Array&lt; Sample_t &gt;::operator=</text>
</a>
</g>
<!-- Node1&#45;&gt;Node8 -->
<g id="edge14" class="edge"><title>Node1&#45;&gt;Node8</title>
<path fill="none" stroke="midnightblue" d="M82.8192,-55.896C99.8392,-47.7101 121.757,-37.8899 142,-31 152.502,-27.4256 163.951,-24.2465 174.922,-21.5328"/>
<polygon fill="midnightblue" stroke="midnightblue" points="80.8616,-52.957 73.4138,-60.4923 83.9351,-59.2462 80.8616,-52.957"/>
</g>
<!-- Node3 -->
<g id="node5" class="node"><title>Node3</title>
<a xlink:href="class_signature.html#a3ddd7b321b4eda212b310c8462febf3f" target="_top" xlink:title="Constructor for opening a CSV file.">
<polygon fill="white" stroke="black" points="368.5,-120.5 368.5,-141.5 473.5,-141.5 473.5,-120.5 368.5,-120.5"/>
<text text-anchor="middle" x="421" y="-128.5" font-family="Helvetica,sans-Serif" font-size="10.00">Signature::Signature</text>
</a>
</g>
<!-- Node2&#45;&gt;Node3 -->
<g id="edge4" class="edge"><title>Node2&#45;&gt;Node3</title>
<path fill="none" stroke="midnightblue" d="M309.735,-131C329.657,-131 350.362,-131 368.431,-131"/>
<polygon fill="midnightblue" stroke="midnightblue" points="309.721,-127.5 299.721,-131 309.721,-134.5 309.721,-127.5"/>
</g>
<!-- Node5 -->
<g id="node9" class="node"><title>Node5</title>
<a xlink:href="class_signature.html#afebb6e34dcba3d828093eba1ffc7fad6" target="_top" xlink:title="Runs through signature data to find power states and stores the resulting power states in powerStates...">
<polygon fill="white" stroke="black" points="346.5,-80.5 346.5,-101.5 495.5,-101.5 495.5,-80.5 346.5,-80.5"/>
<text text-anchor="middle" x="421" y="-88.5" font-family="Helvetica,sans-Serif" font-size="10.00">Signature::updatePowerStates</text>
</a>
</g>
<!-- Node4&#45;&gt;Node5 -->
<g id="edge8" class="edge"><title>Node4&#45;&gt;Node5</title>
<path fill="none" stroke="midnightblue" d="M319.603,-91C328.541,-91 337.523,-91 346.247,-91"/>
<polygon fill="midnightblue" stroke="midnightblue" points="319.546,-87.5001 309.546,-91 319.546,-94.5001 319.546,-87.5001"/>
</g>
<!-- Node6 -->
<g id="node11" class="node"><title>Node6</title>
<a xlink:href="class_signature.html#ada861d4b0e402605478abc4217f35979" target="_top" xlink:title="Signature::getPowerStates">
<polygon fill="white" stroke="black" points="532,-80.5 532,-101.5 666,-101.5 666,-80.5 532,-80.5"/>
<text text-anchor="middle" x="599" y="-88.5" font-family="Helvetica,sans-Serif" font-size="10.00">Signature::getPowerStates</text>
</a>
</g>
<!-- Node5&#45;&gt;Node6 -->
<g id="edge10" class="edge"><title>Node5&#45;&gt;Node6</title>
<path fill="none" stroke="midnightblue" d="M505.893,-91C514.602,-91 523.363,-91 531.842,-91"/>
<polygon fill="midnightblue" stroke="midnightblue" points="505.714,-87.5001 495.714,-91 505.714,-94.5001 505.714,-87.5001"/>
</g>
</g>
</svg>
