<?xml version="1.0" encoding="UTF-8" standalone="no"?>
<!DOCTYPE svg PUBLIC "-//W3C//DTD SVG 1.1//EN"
 "http://www.w3.org/Graphics/SVG/1.1/DTD/svg11.dtd">
<!-- Generated by graphviz version 2.26.3 (20100126.1600)
 -->
<!-- Title: G Pages: 1 -->
<svg width="406pt" height="70pt"
 viewBox="0.00 0.00 406.00 70.00" xmlns="http://www.w3.org/2000/svg" xmlns:xlink="http://www.w3.org/1999/xlink">
<g id="graph1" class="graph" transform="scale(1 1) rotate(0) translate(4 66)">
<title>G</title>
<polygon fill="white" stroke="white" points="-4,5 -4,-66 403,-66 403,5 -4,5"/>
<!-- Node1 -->
<g id="node1" class="node"><title>Node1</title>
<polygon fill="#bfbfbf" stroke="black" points="0,-20.5 0,-41.5 184,-41.5 184,-20.5 0,-20.5"/>
<text text-anchor="middle" x="92" y="-28.5" font-family="Helvetica,sans-Serif" font-size="10.00">Device::getPowerStatesAndSequence</text>
</g>
<!-- Node2 -->
<g id="node3" class="node"><title>Node2</title>
<a xlink:href="class_device.html#a0fc31c44ec09adabef3b109917048b0e" target="_top" xlink:title="Extract the power states from last signature and add them to this device&#39;s powerStates.">
<polygon fill="white" stroke="black" points="239.5,-40.5 239.5,-61.5 378.5,-61.5 378.5,-40.5 239.5,-40.5"/>
<text text-anchor="middle" x="309" y="-48.5" font-family="Helvetica,sans-Serif" font-size="10.00">Device::updatePowerStates</text>
</a>
</g>
<!-- Node1&#45;&gt;Node2 -->
<g id="edge2" class="edge"><title>Node1&#45;&gt;Node2</title>
<path fill="none" stroke="midnightblue" d="M184.028,-39.4818C199.044,-40.8658 214.492,-42.2896 229.184,-43.6437"/>
<polygon fill="midnightblue" stroke="midnightblue" points="228.941,-47.136 239.22,-44.5687 229.584,-40.1656 228.941,-47.136"/>
</g>
<!-- Node3 -->
<g id="node5" class="node"><title>Node3</title>
<a xlink:href="class_device.html#a255c62bedb8b90aaf4a60d2bed7d6017" target="_top" xlink:title="Extract the power state sequence from last signature and add them to this device&#39;s powerStates...">
<polygon fill="white" stroke="black" points="220.5,-0.5 220.5,-21.5 397.5,-21.5 397.5,-0.5 220.5,-0.5"/>
<text text-anchor="middle" x="309" y="-8.5" font-family="Helvetica,sans-Serif" font-size="10.00">Device::updatePowerStateSequence</text>
</a>
</g>
<!-- Node1&#45;&gt;Node3 -->
<g id="edge4" class="edge"><title>Node1&#45;&gt;Node3</title>
<path fill="none" stroke="midnightblue" d="M184.028,-22.5182C192.662,-21.7224 201.439,-20.9134 210.133,-20.1121"/>
<polygon fill="midnightblue" stroke="midnightblue" points="210.651,-23.5793 220.288,-19.1762 210.009,-16.6089 210.651,-23.5793"/>
</g>
</g>
</svg>
