<?xml version="1.0" encoding="UTF-8" standalone="no"?>
<!DOCTYPE svg PUBLIC "-//W3C//DTD SVG 1.1//EN"
 "http://www.w3.org/Graphics/SVG/1.1/DTD/svg11.dtd">
<!-- Generated by graphviz version 2.26.3 (20100126.1600)
 -->
<!-- Title: G Pages: 1 -->
<svg width="454pt" height="30pt"
 viewBox="0.00 0.00 454.00 30.00" xmlns="http://www.w3.org/2000/svg" xmlns:xlink="http://www.w3.org/1999/xlink">
<g id="graph1" class="graph" transform="scale(1 1) rotate(0) translate(4 26)">
<title>G</title>
<polygon fill="white" stroke="white" points="-4,5 -4,-26 451,-26 451,5 -4,5"/>
<!-- Node1 -->
<g id="node1" class="node"><title>Node1</title>
<polygon fill="#bfbfbf" stroke="black" points="0.5,-0.5 0.5,-21.5 89.5,-21.5 89.5,-0.5 0.5,-0.5"/>
<text text-anchor="middle" x="45" y="-8.5" font-family="Helvetica,sans-Serif" font-size="10.00">Array::findPeaks</text>
</g>
<!-- Node2 -->
<g id="node3" class="node"><title>Node2</title>
<a xlink:href="class_signature.html#afebb6e34dcba3d828093eba1ffc7fad6" target="_top" xlink:title="Runs through signature data to find power states and stores the resulting power states in powerStates...">
<polygon fill="white" stroke="black" points="126.5,-0.5 126.5,-21.5 275.5,-21.5 275.5,-0.5 126.5,-0.5"/>
<text text-anchor="middle" x="201" y="-8.5" font-family="Helvetica,sans-Serif" font-size="10.00">Signature::updatePowerStates</text>
</a>
</g>
<!-- Node1&#45;&gt;Node2 -->
<g id="edge2" class="edge"><title>Node1&#45;&gt;Node2</title>
<path fill="none" stroke="midnightblue" d="M99.8826,-11C108.418,-11 117.36,-11 126.246,-11"/>
<polygon fill="midnightblue" stroke="midnightblue" points="99.7034,-7.5001 89.7033,-11 99.7033,-14.5001 99.7034,-7.5001"/>
</g>
<!-- Node3 -->
<g id="node5" class="node"><title>Node3</title>
<a xlink:href="class_signature.html#ada861d4b0e402605478abc4217f35979" target="_top" xlink:title="Signature::getPowerStates">
<polygon fill="white" stroke="black" points="312,-0.5 312,-21.5 446,-21.5 446,-0.5 312,-0.5"/>
<text text-anchor="middle" x="379" y="-8.5" font-family="Helvetica,sans-Serif" font-size="10.00">Signature::getPowerStates</text>
</a>
</g>
<!-- Node2&#45;&gt;Node3 -->
<g id="edge4" class="edge"><title>Node2&#45;&gt;Node3</title>
<path fill="none" stroke="midnightblue" d="M285.893,-11C294.602,-11 303.363,-11 311.842,-11"/>
<polygon fill="midnightblue" stroke="midnightblue" points="285.714,-7.5001 275.714,-11 285.714,-14.5001 285.714,-7.5001"/>
</g>
</g>
</svg>
