<?xml version="1.0" encoding="UTF-8" standalone="no"?>
<!DOCTYPE svg PUBLIC "-//W3C//DTD SVG 1.1//EN"
 "http://www.w3.org/Graphics/SVG/1.1/DTD/svg11.dtd">
<!-- Generated by graphviz version 2.26.3 (20100126.1600)
 -->
<!-- Title: G Pages: 1 -->
<svg width="460pt" height="148pt"
 viewBox="0.00 0.00 460.00 148.00" xmlns="http://www.w3.org/2000/svg" xmlns:xlink="http://www.w3.org/1999/xlink">
<g id="graph1" class="graph" transform="scale(1 1) rotate(0) translate(4 144)">
<title>G</title>
<polygon fill="white" stroke="white" points="-4,5 -4,-144 457,-144 457,5 -4,5"/>
<!-- Node1 -->
<g id="node1" class="node"><title>Node1</title>
<polygon fill="#bfbfbf" stroke="black" points="0,-59.5 0,-80.5 180,-80.5 180,-59.5 0,-59.5"/>
<text text-anchor="middle" x="90" y="-67.5" font-family="Helvetica,sans-Serif" font-size="10.00">AggregateData::loadCurrentCostData</text>
</g>
<!-- Node2 -->
<g id="node3" class="node"><title>Node2</title>
<a xlink:href="namespace_utils.html#a491439d9860daf48c14c800d8ab35ec0" target="_top" xlink:title="Find the number of numeric data points in file.">
<polygon fill="white" stroke="black" points="216,-118.5 216,-139.5 332,-139.5 332,-118.5 216,-118.5"/>
<text text-anchor="middle" x="274" y="-126.5" font-family="Helvetica,sans-Serif" font-size="10.00">Utils::countDataPoints</text>
</a>
</g>
<!-- Node1&#45;&gt;Node2 -->
<g id="edge2" class="edge"><title>Node1&#45;&gt;Node2</title>
<path fill="none" stroke="midnightblue" d="M122.896,-80.548C153.154,-90.2503 198.204,-104.696 231.242,-115.289"/>
<polygon fill="midnightblue" stroke="midnightblue" points="230.488,-118.723 241.08,-118.444 232.626,-112.058 230.488,-118.723"/>
</g>
<!-- Node3 -->
<g id="node5" class="node"><title>Node3</title>
<a xlink:href="namespace_utils.html#a5f35365dae06a93f4bbf0f406a78b90b" target="_top" xlink:title="Utils::fatalError">
<polygon fill="white" stroke="black" points="368.5,-39.5 368.5,-60.5 451.5,-60.5 451.5,-39.5 368.5,-39.5"/>
<text text-anchor="middle" x="410" y="-47.5" font-family="Helvetica,sans-Serif" font-size="10.00">Utils::fatalError</text>
</a>
</g>
<!-- Node1&#45;&gt;Node3 -->
<g id="edge4" class="edge"><title>Node1&#45;&gt;Node3</title>
<path fill="none" stroke="midnightblue" d="M180.01,-76.1439C225.72,-77.8041 282.018,-77.6106 332,-71 344.043,-69.4071 356.867,-66.4878 368.565,-63.322"/>
<polygon fill="midnightblue" stroke="midnightblue" points="369.84,-66.5985 378.506,-60.5036 367.93,-59.8638 369.84,-66.5985"/>
</g>
<!-- Node4 -->
<g id="node7" class="node"><title>Node4</title>
<a xlink:href="namespace_utils.html#ae7741f30cf104d6660673d7c336ef5cc" target="_top" xlink:title="Utils::fileExists">
<polygon fill="white" stroke="black" points="232.5,-40.5 232.5,-61.5 315.5,-61.5 315.5,-40.5 232.5,-40.5"/>
<text text-anchor="middle" x="274" y="-48.5" font-family="Helvetica,sans-Serif" font-size="10.00">Utils::fileExists</text>
</a>
</g>
<!-- Node1&#45;&gt;Node4 -->
<g id="edge6" class="edge"><title>Node1&#45;&gt;Node4</title>
<path fill="none" stroke="midnightblue" d="M180.113,-60.6948C194.483,-59.211 208.914,-57.7208 222.003,-56.3692"/>
<polygon fill="midnightblue" stroke="midnightblue" points="222.599,-59.8264 232.186,-55.3177 221.88,-52.8635 222.599,-59.8264"/>
</g>
<!-- Node5 -->
<g id="node9" class="node"><title>Node5</title>
<a xlink:href="namespace_utils.html#afb991f08a33e9d7f3298e60f3bf76960" target="_top" xlink:title="Utils::openFile">
<polygon fill="white" stroke="black" points="234,-0.5 234,-21.5 314,-21.5 314,-0.5 234,-0.5"/>
<text text-anchor="middle" x="274" y="-8.5" font-family="Helvetica,sans-Serif" font-size="10.00">Utils::openFile</text>
</a>
</g>
<!-- Node1&#45;&gt;Node5 -->
<g id="edge8" class="edge"><title>Node1&#45;&gt;Node5</title>
<path fill="none" stroke="midnightblue" d="M122.896,-59.452C153.154,-49.7497 198.204,-35.3043 231.242,-24.7105"/>
<polygon fill="midnightblue" stroke="midnightblue" points="232.626,-27.9423 241.08,-21.556 230.488,-21.2766 232.626,-27.9423"/>
</g>
<!-- Node5&#45;&gt;Node3 -->
<g id="edge10" class="edge"><title>Node5&#45;&gt;Node3</title>
<path fill="none" stroke="midnightblue" d="M310.804,-21.554C326.98,-26.1929 346.165,-31.6943 363.331,-36.617"/>
<polygon fill="midnightblue" stroke="midnightblue" points="362.59,-40.0454 373.167,-39.4376 364.519,-33.3166 362.59,-40.0454"/>
</g>
</g>
</svg>
