<?xml version="1.0" encoding="UTF-8" standalone="no"?>
<!DOCTYPE svg PUBLIC "-//W3C//DTD SVG 1.1//EN"
 "http://www.w3.org/Graphics/SVG/1.1/DTD/svg11.dtd">
<!-- Generated by graphviz version 2.26.3 (20100126.1600)
 -->
<!-- Title: G Pages: 1 -->
<svg width="548pt" height="150pt"
 viewBox="0.00 0.00 548.00 150.00" xmlns="http://www.w3.org/2000/svg" xmlns:xlink="http://www.w3.org/1999/xlink">
<g id="graph1" class="graph" transform="scale(1 1) rotate(0) translate(4 146)">
<title>G</title>
<polygon fill="white" stroke="white" points="-4,5 -4,-146 545,-146 545,5 -4,5"/>
<!-- Node1 -->
<g id="node1" class="node"><title>Node1</title>
<polygon fill="#bfbfbf" stroke="black" points="0.5,-60.5 0.5,-81.5 187.5,-81.5 187.5,-60.5 0.5,-60.5"/>
<text text-anchor="middle" x="94" y="-68.5" font-family="Helvetica,sans-Serif" font-size="10.00">PowerStateGraph::updateOrInsertEdge</text>
</g>
<!-- Node2 -->
<g id="node3" class="node"><title>Node2</title>
<a xlink:href="class_power_state_graph.html#ae3eaaaca0f80786469b8674991db9476" target="_top" xlink:title="PowerStateGraph::addItemToEdgeHistory">
<polygon fill="white" stroke="black" points="224,-120.5 224,-141.5 424,-141.5 424,-120.5 224,-120.5"/>
<text text-anchor="middle" x="324" y="-128.5" font-family="Helvetica,sans-Serif" font-size="10.00">PowerStateGraph::addItemToEdgeHistory</text>
</a>
</g>
<!-- Node1&#45;&gt;Node2 -->
<g id="edge2" class="edge"><title>Node1&#45;&gt;Node2</title>
<path fill="none" stroke="midnightblue" d="M125.008,-81.5101C151.191,-90.15 189.777,-102.336 224,-111 234.381,-113.628 245.439,-116.131 256.275,-118.421"/>
<polygon fill="midnightblue" stroke="midnightblue" points="255.635,-121.862 266.137,-120.461 257.054,-115.008 255.635,-121.862"/>
</g>
<!-- Node3 -->
<g id="node5" class="node"><title>Node3</title>
<a xlink:href="class_power_state_graph.html#a6de44e31afe85bf0ee18dc09a7be329c" target="_top" xlink:title="Check if edge list a and edge list b are equal.">
<polygon fill="white" stroke="black" points="233,-80.5 233,-101.5 415,-101.5 415,-80.5 233,-80.5"/>
<text text-anchor="middle" x="324" y="-88.5" font-family="Helvetica,sans-Serif" font-size="10.00">PowerStateGraph::edgeListsAreEqual</text>
</a>
</g>
<!-- Node1&#45;&gt;Node3 -->
<g id="edge4" class="edge"><title>Node1&#45;&gt;Node3</title>
<path fill="none" stroke="midnightblue" d="M187.55,-79.1348C199.093,-80.1385 210.935,-81.1682 222.588,-82.1815"/>
<polygon fill="midnightblue" stroke="midnightblue" points="222.502,-85.6872 232.768,-83.0667 223.108,-78.7135 222.502,-85.6872"/>
</g>
<!-- Node4 -->
<g id="node7" class="node"><title>Node4</title>
<a xlink:href="namespace_utils.html#a297beaecb52c2c24b05b9666d080bb7e" target="_top" xlink:title="Returns true if a and b are the same sign. Zero is assumed to be positive.">
<polygon fill="white" stroke="black" points="281,-40.5 281,-61.5 367,-61.5 367,-40.5 281,-40.5"/>
<text text-anchor="middle" x="324" y="-48.5" font-family="Helvetica,sans-Serif" font-size="10.00">Utils::sameSign</text>
</a>
</g>
<!-- Node1&#45;&gt;Node4 -->
<g id="edge6" class="edge"><title>Node1&#45;&gt;Node4</title>
<path fill="none" stroke="midnightblue" d="M187.55,-62.8652C215.844,-60.4049 245.934,-57.7884 270.637,-55.6402"/>
<polygon fill="midnightblue" stroke="midnightblue" points="271.215,-59.1033 280.874,-54.7501 270.608,-52.1297 271.215,-59.1033"/>
</g>
<!-- Node5 -->
<g id="node9" class="node"><title>Node5</title>
<a xlink:href="namespace_utils.html#a0f28dbdddde3ce309eba6afb7d1f2785" target="_top" xlink:title="Utils::within">
<polygon fill="white" stroke="black" points="290,-0.5 290,-21.5 358,-21.5 358,-0.5 290,-0.5"/>
<text text-anchor="middle" x="324" y="-8.5" font-family="Helvetica,sans-Serif" font-size="10.00">Utils::within</text>
</a>
</g>
<!-- Node1&#45;&gt;Node5 -->
<g id="edge8" class="edge"><title>Node1&#45;&gt;Node5</title>
<path fill="none" stroke="midnightblue" d="M125.008,-60.4899C151.191,-51.85 189.777,-39.6637 224,-31 242.078,-26.4234 262.208,-22.2272 279.642,-18.873"/>
<polygon fill="midnightblue" stroke="midnightblue" points="280.382,-22.2951 289.559,-16.999 279.083,-15.4168 280.382,-22.2951"/>
</g>
<!-- Node6 -->
<g id="node11" class="node"><title>Node6</title>
<a xlink:href="namespace_utils.html#a30128571ef453645d7731302607a16de" target="_top" xlink:title="Utils::between">
<polygon fill="white" stroke="black" points="460,-0.5 460,-21.5 540,-21.5 540,-0.5 460,-0.5"/>
<text text-anchor="middle" x="500" y="-8.5" font-family="Helvetica,sans-Serif" font-size="10.00">Utils::between</text>
</a>
</g>
<!-- Node5&#45;&gt;Node6 -->
<g id="edge10" class="edge"><title>Node5&#45;&gt;Node6</title>
<path fill="none" stroke="midnightblue" d="M358.352,-11C384.393,-11 420.569,-11 449.843,-11"/>
<polygon fill="midnightblue" stroke="midnightblue" points="449.881,-14.5001 459.881,-11 449.881,-7.5001 449.881,-14.5001"/>
</g>
</g>
</svg>
