<?xml version="1.0" encoding="UTF-8" standalone="no"?>
<!DOCTYPE svg PUBLIC "-//W3C//DTD SVG 1.1//EN"
 "http://www.w3.org/Graphics/SVG/1.1/DTD/svg11.dtd">
<!-- Generated by graphviz version 2.26.3 (20100126.1600)
 -->
<!-- Title: G Pages: 1 -->
<svg width="782pt" height="190pt"
 viewBox="0.00 0.00 782.00 190.00" xmlns="http://www.w3.org/2000/svg" xmlns:xlink="http://www.w3.org/1999/xlink">
<g id="graph1" class="graph" transform="scale(1 1) rotate(0) translate(4 186)">
<title>G</title>
<polygon fill="white" stroke="white" points="-4,5 -4,-186 779,-186 779,5 -4,5"/>
<!-- Node1 -->
<g id="node1" class="node"><title>Node1</title>
<polygon fill="#bfbfbf" stroke="black" points="0.5,-80.5 0.5,-101.5 77.5,-101.5 77.5,-80.5 0.5,-80.5"/>
<text text-anchor="middle" x="39" y="-88.5" font-family="Helvetica,sans-Serif" font-size="10.00">GNUplot::plot</text>
</g>
<!-- Node2 -->
<g id="node3" class="node"><title>Node2</title>
<a xlink:href="class_power_state_graph.html#a8c7b40b543c04d5f5b498a537093ae46" target="_top" xlink:title="PowerStateGraph::displayAndPlotFingerprintList">
<polygon fill="white" stroke="black" points="114.5,-160.5 114.5,-181.5 341.5,-181.5 341.5,-160.5 114.5,-160.5"/>
<text text-anchor="middle" x="228" y="-168.5" font-family="Helvetica,sans-Serif" font-size="10.00">PowerStateGraph::displayAndPlotFingerprintList</text>
</a>
</g>
<!-- Node1&#45;&gt;Node2 -->
<g id="edge2" class="edge"><title>Node1&#45;&gt;Node2</title>
<path fill="none" stroke="midnightblue" d="M56.1163,-108.935C70.3017,-122.672 91.6891,-140.924 114,-151 122.516,-154.846 131.699,-157.954 141.026,-160.467"/>
<polygon fill="midnightblue" stroke="midnightblue" points="58.5668,-106.436 49.0164,-101.849 53.6218,-111.39 58.5668,-106.436"/>
</g>
<!-- Node5 -->
<g id="node9" class="node"><title>Node5</title>
<a xlink:href="class_histogram.html#ad4a2b931c86c4a7f2ce465d0c737050f" target="_top" xlink:title="Histogram::drawGraph">
<polygon fill="white" stroke="black" points="170.5,-120.5 170.5,-141.5 285.5,-141.5 285.5,-120.5 170.5,-120.5"/>
<text text-anchor="middle" x="228" y="-128.5" font-family="Helvetica,sans-Serif" font-size="10.00">Histogram::drawGraph</text>
</a>
</g>
<!-- Node1&#45;&gt;Node5 -->
<g id="edge8" class="edge"><title>Node1&#45;&gt;Node5</title>
<path fill="none" stroke="midnightblue" d="M85.7496,-104.138C95.0723,-106.568 104.819,-108.975 114,-111 132.249,-115.026 152.283,-118.766 170.398,-121.897"/>
<polygon fill="midnightblue" stroke="midnightblue" points="86.4101,-100.692 75.8468,-101.509 84.614,-107.458 86.4101,-100.692"/>
</g>
<!-- Node8 -->
<g id="node15" class="node"><title>Node8</title>
<a xlink:href="class_array.html#acc8d9358f9cc9fa7d10d5010099cbc10" target="_top" xlink:title="Array\&lt; Sample_t \&gt;::drawGraph">
<polygon fill="white" stroke="black" points="152,-80.5 152,-101.5 304,-101.5 304,-80.5 152,-80.5"/>
<text text-anchor="middle" x="228" y="-88.5" font-family="Helvetica,sans-Serif" font-size="10.00">Array&lt; Sample_t &gt;::drawGraph</text>
</a>
</g>
<!-- Node1&#45;&gt;Node8 -->
<g id="edge14" class="edge"><title>Node1&#45;&gt;Node8</title>
<path fill="none" stroke="midnightblue" d="M87.8618,-91C107.368,-91 130.288,-91 151.878,-91"/>
<polygon fill="midnightblue" stroke="midnightblue" points="87.7031,-87.5001 77.703,-91 87.703,-94.5001 87.7031,-87.5001"/>
</g>
<!-- Node9 -->
<g id="node17" class="node"><title>Node9</title>
<a xlink:href="class_signature.html#a80ab9f3c989f356fd8fd61282de3a994" target="_top" xlink:title="Signature::drawHistWithStateBars">
<polygon fill="white" stroke="black" points="144.5,-40.5 144.5,-61.5 311.5,-61.5 311.5,-40.5 144.5,-40.5"/>
<text text-anchor="middle" x="228" y="-48.5" font-family="Helvetica,sans-Serif" font-size="10.00">Signature::drawHistWithStateBars</text>
</a>
</g>
<!-- Node1&#45;&gt;Node9 -->
<g id="edge16" class="edge"><title>Node1&#45;&gt;Node9</title>
<path fill="none" stroke="midnightblue" d="M85.7496,-77.8622C95.0723,-75.4322 104.819,-73.0254 114,-71 129.6,-67.5585 146.504,-64.3257 162.399,-61.5039"/>
<polygon fill="midnightblue" stroke="midnightblue" points="84.614,-74.5423 75.8468,-80.4911 86.4101,-81.308 84.614,-74.5423"/>
</g>
<!-- Node10 -->
<g id="node20" class="node"><title>Node10</title>
<a xlink:href="class_power_state_sequence.html#a52cd95f5d505d6e199eb96fb488b4658" target="_top" xlink:title="PowerStateSequence::plotGraph">
<polygon fill="white" stroke="black" points="148.5,-0.5 148.5,-21.5 307.5,-21.5 307.5,-0.5 148.5,-0.5"/>
<text text-anchor="middle" x="228" y="-8.5" font-family="Helvetica,sans-Serif" font-size="10.00">PowerStateSequence::plotGraph</text>
</a>
</g>
<!-- Node1&#45;&gt;Node10 -->
<g id="edge20" class="edge"><title>Node1&#45;&gt;Node10</title>
<path fill="none" stroke="midnightblue" d="M56.1163,-73.0651C70.3017,-59.3285 91.6891,-41.0762 114,-31 124.713,-26.1617 136.483,-22.4903 148.267,-19.705"/>
<polygon fill="midnightblue" stroke="midnightblue" points="53.6218,-70.6099 49.0164,-80.1515 58.5668,-75.5644 53.6218,-70.6099"/>
</g>
<!-- Node3 -->
<g id="node5" class="node"><title>Node3</title>
<a xlink:href="class_power_state_graph.html#a3823f720987e5e13eb7f1cfae7cdf4be" target="_top" xlink:title="This is the main public interface to the disaggregation algorithm.">
<polygon fill="white" stroke="black" points="394.5,-160.5 394.5,-181.5 549.5,-181.5 549.5,-160.5 394.5,-160.5"/>
<text text-anchor="middle" x="472" y="-168.5" font-family="Helvetica,sans-Serif" font-size="10.00">PowerStateGraph::disaggregate</text>
</a>
</g>
<!-- Node2&#45;&gt;Node3 -->
<g id="edge4" class="edge"><title>Node2&#45;&gt;Node3</title>
<path fill="none" stroke="midnightblue" d="M351.793,-171C366.256,-171 380.686,-171 394.268,-171"/>
<polygon fill="midnightblue" stroke="midnightblue" points="351.785,-167.5 341.785,-171 351.785,-174.5 351.785,-167.5"/>
</g>
<!-- Node4 -->
<g id="node7" class="node"><title>Node4</title>
<a xlink:href="_main_8cpp.html#a0ddf1224851353fc92bfbff6f499fa97" target="_top" xlink:title="main">
<polygon fill="white" stroke="black" points="669,-160.5 669,-181.5 707,-181.5 707,-160.5 669,-160.5"/>
<text text-anchor="middle" x="688" y="-168.5" font-family="Helvetica,sans-Serif" font-size="10.00">main</text>
</a>
</g>
<!-- Node3&#45;&gt;Node4 -->
<g id="edge6" class="edge"><title>Node3&#45;&gt;Node4</title>
<path fill="none" stroke="midnightblue" d="M559.823,-171C600.121,-171 644.305,-171 668.844,-171"/>
<polygon fill="midnightblue" stroke="midnightblue" points="559.676,-167.5 549.676,-171 559.676,-174.5 559.676,-167.5"/>
</g>
<!-- Node6 -->
<g id="node11" class="node"><title>Node6</title>
<a xlink:href="class_signature.html#afebb6e34dcba3d828093eba1ffc7fad6" target="_top" xlink:title="Runs through signature data to find power states and stores the resulting power states in powerStates...">
<polygon fill="white" stroke="black" points="397.5,-80.5 397.5,-101.5 546.5,-101.5 546.5,-80.5 397.5,-80.5"/>
<text text-anchor="middle" x="472" y="-88.5" font-family="Helvetica,sans-Serif" font-size="10.00">Signature::updatePowerStates</text>
</a>
</g>
<!-- Node5&#45;&gt;Node6 -->
<g id="edge10" class="edge"><title>Node5&#45;&gt;Node6</title>
<path fill="none" stroke="midnightblue" d="M295.638,-119.912C330.608,-114.179 373.07,-107.218 407.565,-101.563"/>
<polygon fill="midnightblue" stroke="midnightblue" points="294.818,-116.499 285.516,-121.571 295.95,-123.407 294.818,-116.499"/>
</g>
<!-- Node7 -->
<g id="node13" class="node"><title>Node7</title>
<a xlink:href="class_signature.html#ada861d4b0e402605478abc4217f35979" target="_top" xlink:title="Signature::getPowerStates">
<polygon fill="white" stroke="black" points="621,-80.5 621,-101.5 755,-101.5 755,-80.5 621,-80.5"/>
<text text-anchor="middle" x="688" y="-88.5" font-family="Helvetica,sans-Serif" font-size="10.00">Signature::getPowerStates</text>
</a>
</g>
<!-- Node6&#45;&gt;Node7 -->
<g id="edge12" class="edge"><title>Node6&#45;&gt;Node7</title>
<path fill="none" stroke="midnightblue" d="M556.665,-91C578.001,-91 600.614,-91 620.952,-91"/>
<polygon fill="midnightblue" stroke="midnightblue" points="556.637,-87.5001 546.637,-91 556.637,-94.5001 556.637,-87.5001"/>
</g>
<!-- Node9&#45;&gt;Node6 -->
<g id="edge18" class="edge"><title>Node9&#45;&gt;Node6</title>
<path fill="none" stroke="midnightblue" d="M302.368,-63.1915C336.07,-68.7163 375.524,-75.1842 407.897,-80.4913"/>
<polygon fill="midnightblue" stroke="midnightblue" points="302.543,-59.6735 292.108,-61.5095 301.41,-66.5813 302.543,-59.6735"/>
</g>
<!-- Node11 -->
<g id="node22" class="node"><title>Node11</title>
<a xlink:href="class_signature.html#af94cd3aa816030f1560410e4ad6f2dcc" target="_top" xlink:title="Finding out where each &#39;powerState&#39; starts and ends.">
<polygon fill="white" stroke="black" points="378,-0.5 378,-21.5 566,-21.5 566,-0.5 378,-0.5"/>
<text text-anchor="middle" x="472" y="-8.5" font-family="Helvetica,sans-Serif" font-size="10.00">Signature::updatePowerStateSequence</text>
</a>
</g>
<!-- Node10&#45;&gt;Node11 -->
<g id="edge22" class="edge"><title>Node10&#45;&gt;Node11</title>
<path fill="none" stroke="midnightblue" d="M317.66,-11C337.21,-11 357.955,-11 377.68,-11"/>
<polygon fill="midnightblue" stroke="midnightblue" points="317.557,-7.5001 307.557,-11 317.557,-14.5001 317.557,-7.5001"/>
</g>
<!-- Node12 -->
<g id="node24" class="node"><title>Node12</title>
<a xlink:href="class_signature.html#abf3dc6265e852ecb66a928c682e3eb5f" target="_top" xlink:title="Signature::getPowerStateSequence">
<polygon fill="white" stroke="black" points="602,-0.5 602,-21.5 774,-21.5 774,-0.5 602,-0.5"/>
<text text-anchor="middle" x="688" y="-8.5" font-family="Helvetica,sans-Serif" font-size="10.00">Signature::getPowerStateSequence</text>
</a>
</g>
<!-- Node11&#45;&gt;Node12 -->
<g id="edge24" class="edge"><title>Node11&#45;&gt;Node12</title>
<path fill="none" stroke="midnightblue" d="M576.129,-11C584.685,-11 593.274,-11 601.68,-11"/>
<polygon fill="midnightblue" stroke="midnightblue" points="576.112,-7.5001 566.112,-11 576.112,-14.5001 576.112,-7.5001"/>
</g>
</g>
</svg>
