<?xml version="1.0" encoding="UTF-8" standalone="no"?>
<!DOCTYPE svg PUBLIC "-//W3C//DTD SVG 1.1//EN"
 "http://www.w3.org/Graphics/SVG/1.1/DTD/svg11.dtd">
<!-- Generated by graphviz version 2.26.3 (20100126.1600)
 -->
<!-- Title: G Pages: 1 -->
<svg width="1158pt" height="210pt"
 viewBox="0.00 0.00 1158.00 210.04" xmlns="http://www.w3.org/2000/svg" xmlns:xlink="http://www.w3.org/1999/xlink">
<g id="graph1" class="graph" transform="scale(1 1) rotate(0) translate(4 206.044)">
<title>G</title>
<polygon fill="white" stroke="white" points="-4,5 -4,-206.044 1155,-206.044 1155,5 -4,5"/>
<!-- Node1 -->
<g id="node1" class="node"><title>Node1</title>
<polygon fill="#bfbfbf" stroke="black" points="0,-108.5 0,-129.5 80,-129.5 80,-108.5 0,-108.5"/>
<text text-anchor="middle" x="40" y="-116.5" font-family="Helvetica,sans-Serif" font-size="10.00">Utils::between</text>
</g>
<!-- Node2 -->
<g id="node3" class="node"><title>Node2</title>
<a xlink:href="class_aggregate_data.html#ada468d155767d721c755405582d108ee" target="_top" xlink:title="Find all spikes in aggregate data which fit spikeStats.">
<polygon fill="white" stroke="black" points="116,-158.5 116,-179.5 244,-179.5 244,-158.5 116,-158.5"/>
<text text-anchor="middle" x="180" y="-166.5" font-family="Helvetica,sans-Serif" font-size="10.00">AggregateData::findSpike</text>
</a>
</g>
<!-- Node1&#45;&gt;Node2 -->
<g id="edge2" class="edge"><title>Node1&#45;&gt;Node2</title>
<path fill="none" stroke="midnightblue" d="M79.3064,-133.038C101.841,-141.086 129.666,-151.024 150.352,-158.412"/>
<polygon fill="midnightblue" stroke="midnightblue" points="80.285,-129.671 69.6904,-129.604 77.9306,-136.263 80.285,-129.671"/>
</g>
<!-- Node7 -->
<g id="node14" class="node"><title>Node7</title>
<a xlink:href="class_aggregate_data.html#a330afb37cdef0863a94babd3954b714f" target="_top" xlink:title="a simple way to find the array index at which a timestamp occurs. If precise time cannot be found...">
<polygon fill="white" stroke="black" points="117.5,-108.5 117.5,-129.5 242.5,-129.5 242.5,-108.5 117.5,-108.5"/>
<text text-anchor="middle" x="180" y="-116.5" font-family="Helvetica,sans-Serif" font-size="10.00">AggregateData::findTime</text>
</a>
</g>
<!-- Node1&#45;&gt;Node7 -->
<g id="edge14" class="edge"><title>Node1&#45;&gt;Node7</title>
<path fill="none" stroke="midnightblue" d="M90.2199,-119C99.0353,-119 108.307,-119 117.409,-119"/>
<polygon fill="midnightblue" stroke="midnightblue" points="90.1184,-115.5 80.1184,-119 90.1183,-122.5 90.1184,-115.5"/>
</g>
<!-- Node8 -->
<g id="node16" class="node"><title>Node8</title>
<a xlink:href="namespace_utils.html#a0f28dbdddde3ce309eba6afb7d1f2785" target="_top" xlink:title="Utils::within">
<polygon fill="white" stroke="black" points="146,-49.5 146,-70.5 214,-70.5 214,-49.5 146,-49.5"/>
<text text-anchor="middle" x="180" y="-57.5" font-family="Helvetica,sans-Serif" font-size="10.00">Utils::within</text>
</a>
</g>
<!-- Node1&#45;&gt;Node8 -->
<g id="edge16" class="edge"><title>Node1&#45;&gt;Node8</title>
<path fill="none" stroke="midnightblue" d="M74.4501,-104.482C99.2964,-94.0108 132.277,-80.1116 154.715,-70.6556"/>
<polygon fill="midnightblue" stroke="midnightblue" points="72.8851,-101.343 65.0292,-108.452 75.6036,-107.794 72.8851,-101.343"/>
</g>
<!-- Node3 -->
<g id="node5" class="node"><title>Node3</title>
<a xlink:href="class_power_state_graph.html#a3823f720987e5e13eb7f1cfae7cdf4be" target="_top" xlink:title="This is the main public interface to the disaggregation algorithm.">
<polygon fill="white" stroke="black" points="734.5,-158.5 734.5,-179.5 889.5,-179.5 889.5,-158.5 734.5,-158.5"/>
<text text-anchor="middle" x="812" y="-166.5" font-family="Helvetica,sans-Serif" font-size="10.00">PowerStateGraph::disaggregate</text>
</a>
</g>
<!-- Node2&#45;&gt;Node3 -->
<g id="edge4" class="edge"><title>Node2&#45;&gt;Node3</title>
<path fill="none" stroke="midnightblue" d="M233.194,-181.662C248.236,-184.69 264.683,-187.483 280,-189 464.874,-207.306 512.922,-205.112 698,-189 719.42,-187.135 742.849,-183.335 762.867,-179.544"/>
<polygon fill="midnightblue" stroke="midnightblue" points="233.54,-178.159 223.035,-179.542 232.109,-185.012 233.54,-178.159"/>
</g>
<!-- Node5 -->
<g id="node9" class="node"><title>Node5</title>
<a xlink:href="class_power_state_graph.html#a0df76ca216d2d48aeb44d2bb08046e2f" target="_top" xlink:title="PowerStateGraph::traceToEnd">
<polygon fill="white" stroke="black" points="299,-158.5 299,-179.5 449,-179.5 449,-158.5 299,-158.5"/>
<text text-anchor="middle" x="374" y="-166.5" font-family="Helvetica,sans-Serif" font-size="10.00">PowerStateGraph::traceToEnd</text>
</a>
</g>
<!-- Node2&#45;&gt;Node5 -->
<g id="edge8" class="edge"><title>Node2&#45;&gt;Node5</title>
<path fill="none" stroke="midnightblue" d="M254.086,-169C268.764,-169 284.184,-169 298.896,-169"/>
<polygon fill="midnightblue" stroke="midnightblue" points="254.061,-165.5 244.061,-169 254.06,-172.5 254.061,-165.5"/>
</g>
<!-- Node4 -->
<g id="node7" class="node"><title>Node4</title>
<a xlink:href="_main_8cpp.html#a0ddf1224851353fc92bfbff6f499fa97" target="_top" xlink:title="main">
<polygon fill="white" stroke="black" points="1112,-117.5 1112,-138.5 1150,-138.5 1150,-117.5 1112,-117.5"/>
<text text-anchor="middle" x="1131" y="-125.5" font-family="Helvetica,sans-Serif" font-size="10.00">main</text>
</a>
</g>
<!-- Node3&#45;&gt;Node4 -->
<g id="edge6" class="edge"><title>Node3&#45;&gt;Node4</title>
<path fill="none" stroke="midnightblue" d="M899.755,-157.721C972.778,-148.336 1071.15,-135.693 1111.99,-130.443"/>
<polygon fill="midnightblue" stroke="midnightblue" points="899.1,-154.276 889.628,-159.023 899.993,-161.219 899.1,-154.276"/>
</g>
<!-- Node6 -->
<g id="node11" class="node"><title>Node6</title>
<a xlink:href="class_power_state_graph.html#a0478f171d51d21613746640c7415fb0b" target="_top" xlink:title="PowerStateGraph::initTraceToEnd">
<polygon fill="white" stroke="black" points="518,-158.5 518,-179.5 684,-179.5 684,-158.5 518,-158.5"/>
<text text-anchor="middle" x="601" y="-166.5" font-family="Helvetica,sans-Serif" font-size="10.00">PowerStateGraph::initTraceToEnd</text>
</a>
</g>
<!-- Node5&#45;&gt;Node6 -->
<g id="edge10" class="edge"><title>Node5&#45;&gt;Node6</title>
<path fill="none" stroke="midnightblue" d="M459.436,-169C478.515,-169 498.723,-169 517.714,-169"/>
<polygon fill="midnightblue" stroke="midnightblue" points="459.272,-165.5 449.272,-169 459.272,-172.5 459.272,-165.5"/>
</g>
<!-- Node6&#45;&gt;Node3 -->
<g id="edge12" class="edge"><title>Node6&#45;&gt;Node3</title>
<path fill="none" stroke="midnightblue" d="M694.291,-169C707.718,-169 721.413,-169 734.489,-169"/>
<polygon fill="midnightblue" stroke="midnightblue" points="694.09,-165.5 684.09,-169 694.09,-172.5 694.09,-165.5"/>
</g>
<!-- Node9 -->
<g id="node18" class="node"><title>Node9</title>
<a xlink:href="class_power_state_graph.html#a7420e492ce4608c1a4dbba027af116c0" target="_top" xlink:title="Find the vertex statistically most similarto stat.">
<polygon fill="white" stroke="black" points="284,-78.5 284,-99.5 464,-99.5 464,-78.5 284,-78.5"/>
<text text-anchor="middle" x="374" y="-86.5" font-family="Helvetica,sans-Serif" font-size="10.00">PowerStateGraph::mostSimilarVertex</text>
</a>
</g>
<!-- Node8&#45;&gt;Node9 -->
<g id="edge18" class="edge"><title>Node8&#45;&gt;Node9</title>
<path fill="none" stroke="midnightblue" d="M224.231,-66.6119C247.684,-70.1177 277.052,-74.5078 303.555,-78.4696"/>
<polygon fill="midnightblue" stroke="midnightblue" points="224.644,-63.1348 214.237,-65.1179 223.609,-70.0579 224.644,-63.1348"/>
</g>
<!-- Node14 -->
<g id="node29" class="node"><title>Node14</title>
<a xlink:href="class_power_state_graph.html#a84bbbefd53f67b2945ac17eb11e28fdf" target="_top" xlink:title="Decides whether or not to reject this spike based on the before and after statistics.">
<polygon fill="white" stroke="black" points="526.5,-38.5 526.5,-59.5 675.5,-59.5 675.5,-38.5 526.5,-38.5"/>
<text text-anchor="middle" x="601" y="-46.5" font-family="Helvetica,sans-Serif" font-size="10.00">PowerStateGraph::rejectSpike</text>
</a>
</g>
<!-- Node8&#45;&gt;Node14 -->
<g id="edge30" class="edge"><title>Node8&#45;&gt;Node14</title>
<path fill="none" stroke="midnightblue" d="M224.151,-58.8464C295.896,-56.9718 438.58,-53.2438 526.32,-50.9512"/>
<polygon fill="midnightblue" stroke="midnightblue" points="224.001,-55.349 214.096,-59.1091 224.184,-62.3467 224.001,-55.349"/>
</g>
<!-- Node15 -->
<g id="node32" class="node"><title>Node15</title>
<a xlink:href="class_power_state_graph.html#a0e3e05ae1b952132621425c042d84ec1" target="_top" xlink:title="Update or Insert a new edge into powerStateGraph.">
<polygon fill="white" stroke="black" points="280.5,-0.5 280.5,-21.5 467.5,-21.5 467.5,-0.5 280.5,-0.5"/>
<text text-anchor="middle" x="374" y="-8.5" font-family="Helvetica,sans-Serif" font-size="10.00">PowerStateGraph::updateOrInsertEdge</text>
</a>
</g>
<!-- Node8&#45;&gt;Node15 -->
<g id="edge34" class="edge"><title>Node8&#45;&gt;Node15</title>
<path fill="none" stroke="midnightblue" d="M224.348,-48.7987C256.803,-40.6014 300.54,-29.5543 332.346,-21.5209"/>
<polygon fill="midnightblue" stroke="midnightblue" points="223.075,-45.5102 214.237,-51.3526 224.789,-52.2971 223.075,-45.5102"/>
</g>
<!-- Node10 -->
<g id="node20" class="node"><title>Node10</title>
<a xlink:href="class_power_state_graph.html#a26384a0a6d9867d336814b70b7a22cd3" target="_top" xlink:title="Update (or create) directional edges between power states (vertices) so the edges are consistent with...">
<polygon fill="white" stroke="black" points="522.5,-118.5 522.5,-139.5 679.5,-139.5 679.5,-118.5 522.5,-118.5"/>
<text text-anchor="middle" x="601" y="-126.5" font-family="Helvetica,sans-Serif" font-size="10.00">PowerStateGraph::updateEdges</text>
</a>
</g>
<!-- Node9&#45;&gt;Node10 -->
<g id="edge20" class="edge"><title>Node9&#45;&gt;Node10</title>
<path fill="none" stroke="midnightblue" d="M443.593,-101.263C474.857,-106.772 511.375,-113.207 541.363,-118.491"/>
<polygon fill="midnightblue" stroke="midnightblue" points="444.097,-97.7981 433.642,-99.5095 442.882,-104.692 444.097,-97.7981"/>
</g>
<!-- Node11 -->
<g id="node22" class="node"><title>Node11</title>
<a xlink:href="class_power_state_graph.html#ac36cccb3fb0281f9b68e39ba28737770" target="_top" xlink:title="Attempts to find an existing vertex which is statistically similar to stat. If an existing similar ve...">
<polygon fill="white" stroke="black" points="504.5,-78.5 504.5,-99.5 697.5,-99.5 697.5,-78.5 504.5,-78.5"/>
<text text-anchor="middle" x="601" y="-86.5" font-family="Helvetica,sans-Serif" font-size="10.00">PowerStateGraph::updateOrInsertVertex</text>
</a>
</g>
<!-- Node9&#45;&gt;Node11 -->
<g id="edge22" class="edge"><title>Node9&#45;&gt;Node11</title>
<path fill="none" stroke="midnightblue" d="M474.048,-89C484.113,-89 494.321,-89 504.349,-89"/>
<polygon fill="midnightblue" stroke="midnightblue" points="474.042,-85.5001 464.042,-89 474.042,-92.5001 474.042,-85.5001"/>
</g>
<!-- Node12 -->
<g id="node24" class="node"><title>Node12</title>
<a xlink:href="class_power_state_graph.html#a90ebffe4864640182b342a814af0f0a7" target="_top" xlink:title="Update or initialise Power State Graph.">
<polygon fill="white" stroke="black" points="747.5,-48.5 747.5,-69.5 876.5,-69.5 876.5,-48.5 747.5,-48.5"/>
<text text-anchor="middle" x="812" y="-56.5" font-family="Helvetica,sans-Serif" font-size="10.00">PowerStateGraph::update</text>
</a>
</g>
<!-- Node11&#45;&gt;Node12 -->
<g id="edge24" class="edge"><title>Node11&#45;&gt;Node12</title>
<path fill="none" stroke="midnightblue" d="M685.134,-77.0378C705.803,-74.0991 727.614,-70.9981 747.211,-68.2117"/>
<polygon fill="midnightblue" stroke="midnightblue" points="684.502,-73.5924 675.094,-78.4653 685.487,-80.5227 684.502,-73.5924"/>
</g>
<!-- Node13 -->
<g id="node26" class="node"><title>Node13</title>
<a xlink:href="class_device.html#ad3d9721aca89723e22cf723149a39583" target="_top" xlink:title="Trains the powerStateGraph using signatures declared with loadSignatures(). To be called once signatu...">
<polygon fill="white" stroke="black" points="926.5,-88.5 926.5,-109.5 1075.5,-109.5 1075.5,-88.5 926.5,-88.5"/>
<text text-anchor="middle" x="1001" y="-96.5" font-family="Helvetica,sans-Serif" font-size="10.00">Device::trainPowerStateGraph</text>
</a>
</g>
<!-- Node12&#45;&gt;Node13 -->
<g id="edge26" class="edge"><title>Node12&#45;&gt;Node13</title>
<path fill="none" stroke="midnightblue" d="M871.639,-71.622C897.287,-77.0501 926.919,-83.3215 951.346,-88.4913"/>
<polygon fill="midnightblue" stroke="midnightblue" points="872.166,-68.156 861.658,-69.5095 870.716,-75.0043 872.166,-68.156"/>
</g>
<!-- Node13&#45;&gt;Node4 -->
<g id="edge28" class="edge"><title>Node13&#45;&gt;Node4</title>
<path fill="none" stroke="midnightblue" d="M1058.22,-111.764C1077.42,-116.047 1097.53,-120.535 1111.74,-123.704"/>
<polygon fill="midnightblue" stroke="midnightblue" points="1058.82,-108.313 1048.3,-109.552 1057.3,-115.145 1058.82,-108.313"/>
</g>
<!-- Node14&#45;&gt;Node12 -->
<g id="edge32" class="edge"><title>Node14&#45;&gt;Node12</title>
<path fill="none" stroke="midnightblue" d="M685.937,-53.0254C706.37,-53.9938 727.873,-55.013 747.219,-55.9298"/>
<polygon fill="midnightblue" stroke="midnightblue" points="685.842,-49.5171 675.688,-52.5397 685.511,-56.5093 685.842,-49.5171"/>
</g>
<!-- Node15&#45;&gt;Node12 -->
<g id="edge36" class="edge"><title>Node15&#45;&gt;Node12</title>
<path fill="none" stroke="midnightblue" d="M477.828,-11.4525C541.676,-13.0442 624.972,-17.4836 698,-29 725.695,-33.3676 756.397,-41.6522 778.955,-48.4106"/>
<polygon fill="midnightblue" stroke="midnightblue" points="477.831,-7.9517 467.753,-11.2208 477.67,-14.9498 477.831,-7.9517"/>
</g>
</g>
</svg>
