<?xml version="1.0" encoding="UTF-8" standalone="no"?>
<!DOCTYPE svg PUBLIC "-//W3C//DTD SVG 1.1//EN"
 "http://www.w3.org/Graphics/SVG/1.1/DTD/svg11.dtd">
<!-- Generated by graphviz version 2.26.3 (20100126.1600)
 -->
<!-- Title: G Pages: 1 -->
<svg width="954pt" height="109pt"
 viewBox="0.00 0.00 954.00 109.00" xmlns="http://www.w3.org/2000/svg" xmlns:xlink="http://www.w3.org/1999/xlink">
<g id="graph1" class="graph" transform="scale(1 1) rotate(0) translate(4 105)">
<title>G</title>
<polygon fill="white" stroke="white" points="-4,5 -4,-105 951,-105 951,5 -4,5"/>
<!-- Node1 -->
<g id="node1" class="node"><title>Node1</title>
<polygon fill="#bfbfbf" stroke="black" points="0,-20.5 0,-41.5 74,-41.5 74,-20.5 0,-20.5"/>
<text text-anchor="middle" x="37" y="-28.5" font-family="Helvetica,sans-Serif" font-size="10.00">Utils::highest</text>
</g>
<!-- Node2 -->
<g id="node3" class="node"><title>Node2</title>
<a xlink:href="class_power_state_graph.html#a7420e492ce4608c1a4dbba027af116c0" target="_top" xlink:title="Find the vertex statistically most similarto stat.">
<polygon fill="white" stroke="black" points="110,-40.5 110,-61.5 290,-61.5 290,-40.5 110,-40.5"/>
<text text-anchor="middle" x="200" y="-48.5" font-family="Helvetica,sans-Serif" font-size="10.00">PowerStateGraph::mostSimilarVertex</text>
</a>
</g>
<!-- Node1&#45;&gt;Node2 -->
<g id="edge2" class="edge"><title>Node1&#45;&gt;Node2</title>
<path fill="none" stroke="midnightblue" d="M84.3396,-36.8085C93.8041,-37.9698 104.019,-39.2232 114.323,-40.4875"/>
<polygon fill="midnightblue" stroke="midnightblue" points="84.7473,-33.3324 74.3955,-35.5884 83.8948,-40.2803 84.7473,-33.3324"/>
</g>
<!-- Node8 -->
<g id="node15" class="node"><title>Node8</title>
<a xlink:href="class_power_state_graph.html#a84bbbefd53f67b2945ac17eb11e28fdf" target="_top" xlink:title="Decides whether or not to reject this spike based on the before and after statistics.">
<polygon fill="white" stroke="black" points="125.5,-0.5 125.5,-21.5 274.5,-21.5 274.5,-0.5 125.5,-0.5"/>
<text text-anchor="middle" x="200" y="-8.5" font-family="Helvetica,sans-Serif" font-size="10.00">PowerStateGraph::rejectSpike</text>
</a>
</g>
<!-- Node1&#45;&gt;Node8 -->
<g id="edge14" class="edge"><title>Node1&#45;&gt;Node8</title>
<path fill="none" stroke="midnightblue" d="M84.3278,-25.1929C97.118,-23.6236 111.279,-21.886 125.18,-20.1804"/>
<polygon fill="midnightblue" stroke="midnightblue" points="83.8948,-21.7197 74.3955,-26.4116 84.7473,-28.6676 83.8948,-21.7197"/>
</g>
<!-- Node3 -->
<g id="node5" class="node"><title>Node3</title>
<a xlink:href="class_power_state_graph.html#a26384a0a6d9867d336814b70b7a22cd3" target="_top" xlink:title="Update (or create) directional edges between power states (vertices) so the edges are consistent with...">
<polygon fill="white" stroke="black" points="344.5,-79.5 344.5,-100.5 501.5,-100.5 501.5,-79.5 344.5,-79.5"/>
<text text-anchor="middle" x="423" y="-87.5" font-family="Helvetica,sans-Serif" font-size="10.00">PowerStateGraph::updateEdges</text>
</a>
</g>
<!-- Node2&#45;&gt;Node3 -->
<g id="edge4" class="edge"><title>Node2&#45;&gt;Node3</title>
<path fill="none" stroke="midnightblue" d="M269.969,-63.2367C299.774,-68.4492 334.198,-74.4695 362.84,-79.4787"/>
<polygon fill="midnightblue" stroke="midnightblue" points="270.507,-59.7777 260.053,-61.5026 269.301,-66.6731 270.507,-59.7777"/>
</g>
<!-- Node4 -->
<g id="node7" class="node"><title>Node4</title>
<a xlink:href="class_power_state_graph.html#ac36cccb3fb0281f9b68e39ba28737770" target="_top" xlink:title="Attempts to find an existing vertex which is statistically similar to stat. If an existing similar ve...">
<polygon fill="white" stroke="black" points="326.5,-39.5 326.5,-60.5 519.5,-60.5 519.5,-39.5 326.5,-39.5"/>
<text text-anchor="middle" x="423" y="-47.5" font-family="Helvetica,sans-Serif" font-size="10.00">PowerStateGraph::updateOrInsertVertex</text>
</a>
</g>
<!-- Node2&#45;&gt;Node4 -->
<g id="edge6" class="edge"><title>Node2&#45;&gt;Node4</title>
<path fill="none" stroke="midnightblue" d="M300.225,-50.5506C308.932,-50.5115 317.732,-50.4721 326.409,-50.4331"/>
<polygon fill="midnightblue" stroke="midnightblue" points="300.044,-47.0512 290.06,-50.5961 300.075,-54.0512 300.044,-47.0512"/>
</g>
<!-- Node5 -->
<g id="node9" class="node"><title>Node5</title>
<a xlink:href="class_power_state_graph.html#a90ebffe4864640182b342a814af0f0a7" target="_top" xlink:title="Update or initialise Power State Graph.">
<polygon fill="white" stroke="black" points="556.5,-19.5 556.5,-40.5 685.5,-40.5 685.5,-19.5 556.5,-19.5"/>
<text text-anchor="middle" x="621" y="-27.5" font-family="Helvetica,sans-Serif" font-size="10.00">PowerStateGraph::update</text>
</a>
</g>
<!-- Node4&#45;&gt;Node5 -->
<g id="edge8" class="edge"><title>Node4&#45;&gt;Node5</title>
<path fill="none" stroke="midnightblue" d="M529.902,-39.2019C538.936,-38.2893 547.883,-37.3856 556.437,-36.5215"/>
<polygon fill="midnightblue" stroke="midnightblue" points="529.277,-35.747 519.68,-40.2344 529.981,-42.7116 529.277,-35.747"/>
</g>
<!-- Node6 -->
<g id="node11" class="node"><title>Node6</title>
<a xlink:href="class_device.html#ad3d9721aca89723e22cf723149a39583" target="_top" xlink:title="Trains the powerStateGraph using signatures declared with loadSignatures(). To be called once signatu...">
<polygon fill="white" stroke="black" points="722.5,-19.5 722.5,-40.5 871.5,-40.5 871.5,-19.5 722.5,-19.5"/>
<text text-anchor="middle" x="797" y="-27.5" font-family="Helvetica,sans-Serif" font-size="10.00">Device::trainPowerStateGraph</text>
</a>
</g>
<!-- Node5&#45;&gt;Node6 -->
<g id="edge10" class="edge"><title>Node5&#45;&gt;Node6</title>
<path fill="none" stroke="midnightblue" d="M695.762,-30C704.562,-30 713.542,-30 722.34,-30"/>
<polygon fill="midnightblue" stroke="midnightblue" points="695.537,-26.5001 685.537,-30 695.536,-33.5001 695.537,-26.5001"/>
</g>
<!-- Node7 -->
<g id="node13" class="node"><title>Node7</title>
<a xlink:href="_main_8cpp.html#a0ddf1224851353fc92bfbff6f499fa97" target="_top" xlink:title="main">
<polygon fill="white" stroke="black" points="908,-19.5 908,-40.5 946,-40.5 946,-19.5 908,-19.5"/>
<text text-anchor="middle" x="927" y="-27.5" font-family="Helvetica,sans-Serif" font-size="10.00">main</text>
</a>
</g>
<!-- Node6&#45;&gt;Node7 -->
<g id="edge12" class="edge"><title>Node6&#45;&gt;Node7</title>
<path fill="none" stroke="midnightblue" d="M882.018,-30C891.574,-30 900.49,-30 907.822,-30"/>
<polygon fill="midnightblue" stroke="midnightblue" points="881.868,-26.5001 871.868,-30 881.868,-33.5001 881.868,-26.5001"/>
</g>
<!-- Node8&#45;&gt;Node5 -->
<g id="edge16" class="edge"><title>Node8&#45;&gt;Node5</title>
<path fill="none" stroke="midnightblue" d="M284.846,-14.8292C364.98,-18.4457 483.433,-23.7915 556.228,-27.0768"/>
<polygon fill="midnightblue" stroke="midnightblue" points="284.929,-11.3294 274.781,-14.3749 284.613,-18.3223 284.929,-11.3294"/>
</g>
</g>
</svg>
