<?xml version="1.0" encoding="UTF-8" standalone="no"?>
<!DOCTYPE svg PUBLIC "-//W3C//DTD SVG 1.1//EN"
 "http://www.w3.org/Graphics/SVG/1.1/DTD/svg11.dtd">
<!-- Generated by graphviz version 2.26.3 (20100126.1600)
 -->
<!-- Title: G Pages: 1 -->
<svg width="400pt" height="90pt"
 viewBox="0.00 0.00 400.00 90.00" xmlns="http://www.w3.org/2000/svg" xmlns:xlink="http://www.w3.org/1999/xlink">
<g id="graph1" class="graph" transform="scale(1 1) rotate(0) translate(4 86)">
<title>G</title>
<polygon fill="white" stroke="white" points="-4,5 -4,-86 397,-86 397,5 -4,5"/>
<!-- Node1 -->
<g id="node1" class="node"><title>Node1</title>
<polygon fill="#bfbfbf" stroke="black" points="0.5,-20.5 0.5,-41.5 77.5,-41.5 77.5,-20.5 0.5,-20.5"/>
<text text-anchor="middle" x="39" y="-28.5" font-family="Helvetica,sans-Serif" font-size="10.00">GNUplot::plot</text>
</g>
<!-- Node2 -->
<g id="node3" class="node"><title>Node2</title>
<a xlink:href="namespace_utils.html#ae7741f30cf104d6660673d7c336ef5cc" target="_top" xlink:title="Utils::fileExists">
<polygon fill="white" stroke="black" points="145.5,-60.5 145.5,-81.5 228.5,-81.5 228.5,-60.5 145.5,-60.5"/>
<text text-anchor="middle" x="187" y="-68.5" font-family="Helvetica,sans-Serif" font-size="10.00">Utils::fileExists</text>
</a>
</g>
<!-- Node1&#45;&gt;Node2 -->
<g id="edge2" class="edge"><title>Node1&#45;&gt;Node2</title>
<path fill="none" stroke="midnightblue" d="M77.8853,-41.5095C96.4215,-46.5193 118.785,-52.5634 138.427,-57.8721"/>
<polygon fill="midnightblue" stroke="midnightblue" points="137.551,-61.2609 148.118,-60.4913 139.377,-54.5034 137.551,-61.2609"/>
</g>
<!-- Node3 -->
<g id="node5" class="node"><title>Node3</title>
<a xlink:href="namespace_g_n_uplot.html#a1a232691d61b3e55fdcc406a3a2e9c1f" target="_top" xlink:title="Replaces all the tokens in the template file &#39;config/plotVars.inFilename&#39; with variables from...">
<polygon fill="white" stroke="black" points="114,-20.5 114,-41.5 260,-41.5 260,-20.5 114,-20.5"/>
<text text-anchor="middle" x="187" y="-28.5" font-family="Helvetica,sans-Serif" font-size="10.00">GNUplot::instantiateTemplate</text>
</a>
</g>
<!-- Node1&#45;&gt;Node3 -->
<g id="edge4" class="edge"><title>Node1&#45;&gt;Node3</title>
<path fill="none" stroke="midnightblue" d="M77.8853,-31C85.9124,-31 94.6572,-31 103.588,-31"/>
<polygon fill="midnightblue" stroke="midnightblue" points="103.722,-34.5001 113.722,-31 103.721,-27.5001 103.722,-34.5001"/>
</g>
<!-- Node4 -->
<g id="node7" class="node"><title>Node4</title>
<a xlink:href="namespace_g_n_uplot.html#a60ecface5bf85a5e3e2e1743bd266737" target="_top" xlink:title="Replace all characters which might confuse &#39;sed&#39;.">
<polygon fill="white" stroke="black" points="296.5,-0.5 296.5,-21.5 391.5,-21.5 391.5,-0.5 296.5,-0.5"/>
<text text-anchor="middle" x="344" y="-8.5" font-family="Helvetica,sans-Serif" font-size="10.00">GNUplot::sanitise</text>
</a>
</g>
<!-- Node1&#45;&gt;Node4 -->
<g id="edge8" class="edge"><title>Node1&#45;&gt;Node4</title>
<path fill="none" stroke="midnightblue" d="M71.116,-20.4652C84.2551,-16.6749 99.7031,-12.8735 114,-11 172.157,-3.37889 239.298,-4.50364 285.967,-6.84679"/>
<polygon fill="midnightblue" stroke="midnightblue" points="286.018,-10.3545 296.191,-7.39608 286.393,-3.36457 286.018,-10.3545"/>
</g>
<!-- Node3&#45;&gt;Node4 -->
<g id="edge6" class="edge"><title>Node3&#45;&gt;Node4</title>
<path fill="none" stroke="midnightblue" d="M260.444,-21.6441C269.068,-20.5455 277.773,-19.4365 286.142,-18.3704"/>
<polygon fill="midnightblue" stroke="midnightblue" points="286.678,-21.8306 296.155,-17.0949 285.793,-14.8867 286.678,-21.8306"/>
</g>
</g>
</svg>
