<?xml version="1.0" encoding="UTF-8" standalone="no"?>
<!DOCTYPE svg PUBLIC "-//W3C//DTD SVG 1.1//EN"
 "http://www.w3.org/Graphics/SVG/1.1/DTD/svg11.dtd">
<!-- Generated by graphviz version 2.26.3 (20100126.1600)
 -->
<!-- Title: G Pages: 1 -->
<svg width="1096pt" height="190pt"
 viewBox="0.00 0.00 1096.00 190.00" xmlns="http://www.w3.org/2000/svg" xmlns:xlink="http://www.w3.org/1999/xlink">
<g id="graph1" class="graph" transform="scale(1 1) rotate(0) translate(4 186)">
<title>G</title>
<polygon fill="white" stroke="white" points="-4,5 -4,-186 1093,-186 1093,5 -4,5"/>
<!-- Node1 -->
<g id="node1" class="node"><title>Node1</title>
<polygon fill="#bfbfbf" stroke="black" points="0.5,-61.5 0.5,-82.5 95.5,-82.5 95.5,-61.5 0.5,-61.5"/>
<text text-anchor="middle" x="48" y="-69.5" font-family="Helvetica,sans-Serif" font-size="10.00">GNUplot::sanitise</text>
</g>
<!-- Node2 -->
<g id="node3" class="node"><title>Node2</title>
<a xlink:href="namespace_g_n_uplot.html#a1a232691d61b3e55fdcc406a3a2e9c1f" target="_top" xlink:title="Replaces all the tokens in the template file &#39;config/plotVars.inFilename&#39; with variables from...">
<polygon fill="white" stroke="black" points="132,-100.5 132,-121.5 278,-121.5 278,-100.5 132,-100.5"/>
<text text-anchor="middle" x="205" y="-108.5" font-family="Helvetica,sans-Serif" font-size="10.00">GNUplot::instantiateTemplate</text>
</a>
</g>
<!-- Node1&#45;&gt;Node2 -->
<g id="edge2" class="edge"><title>Node1&#45;&gt;Node2</title>
<path fill="none" stroke="midnightblue" d="M100.454,-85.03C120.617,-90.0385 143.364,-95.6892 162.48,-100.438"/>
<polygon fill="midnightblue" stroke="midnightblue" points="101.035,-81.5681 90.4865,-82.554 99.3477,-88.3616 101.035,-81.5681"/>
</g>
<!-- Node3 -->
<g id="node5" class="node"><title>Node3</title>
<a xlink:href="namespace_g_n_uplot.html#ab276a6d946560395f9d6caa8cb6cb640" target="_top" xlink:title="Plot a graph using GNUplot.">
<polygon fill="white" stroke="black" points="314.5,-80.5 314.5,-101.5 391.5,-101.5 391.5,-80.5 314.5,-80.5"/>
<text text-anchor="middle" x="353" y="-88.5" font-family="Helvetica,sans-Serif" font-size="10.00">GNUplot::plot</text>
</a>
</g>
<!-- Node1&#45;&gt;Node3 -->
<g id="edge30" class="edge"><title>Node1&#45;&gt;Node3</title>
<path fill="none" stroke="midnightblue" d="M105.918,-75.608C167.066,-79.4172 261.74,-85.3149 314.372,-88.5936"/>
<polygon fill="midnightblue" stroke="midnightblue" points="105.855,-72.0974 95.6562,-74.9688 105.419,-79.0838 105.855,-72.0974"/>
</g>
<!-- Node15 -->
<g id="node31" class="node"><title>Node15</title>
<a xlink:href="namespace_g_n_uplot.html#af1eee0d9c6bd6d1746f0eb97676d7368" target="_top" xlink:title="GNUplot::sanitise">
<polygon fill="white" stroke="black" points="157.5,-22.5 157.5,-43.5 252.5,-43.5 252.5,-22.5 157.5,-22.5"/>
<text text-anchor="middle" x="205" y="-30.5" font-family="Helvetica,sans-Serif" font-size="10.00">GNUplot::sanitise</text>
</a>
</g>
<!-- Node1&#45;&gt;Node15 -->
<g id="edge32" class="edge"><title>Node1&#45;&gt;Node15</title>
<path fill="none" stroke="midnightblue" d="M100.454,-58.97C120.617,-53.9615 143.364,-48.3108 162.48,-43.5624"/>
<polygon fill="midnightblue" stroke="midnightblue" points="99.3477,-55.6384 90.4865,-61.446 101.035,-62.4319 99.3477,-55.6384"/>
</g>
<!-- Node2&#45;&gt;Node3 -->
<g id="edge4" class="edge"><title>Node2&#45;&gt;Node3</title>
<path fill="none" stroke="midnightblue" d="M288.095,-99.771C297.232,-98.5362 306.181,-97.3268 314.374,-96.2197"/>
<polygon fill="midnightblue" stroke="midnightblue" points="287.574,-96.3094 278.133,-101.117 288.511,-103.246 287.574,-96.3094"/>
</g>
<!-- Node4 -->
<g id="node7" class="node"><title>Node4</title>
<a xlink:href="class_power_state_graph.html#a8c7b40b543c04d5f5b498a537093ae46" target="_top" xlink:title="PowerStateGraph::displayAndPlotFingerprintList">
<polygon fill="white" stroke="black" points="428.5,-160.5 428.5,-181.5 655.5,-181.5 655.5,-160.5 428.5,-160.5"/>
<text text-anchor="middle" x="542" y="-168.5" font-family="Helvetica,sans-Serif" font-size="10.00">PowerStateGraph::displayAndPlotFingerprintList</text>
</a>
</g>
<!-- Node3&#45;&gt;Node4 -->
<g id="edge6" class="edge"><title>Node3&#45;&gt;Node4</title>
<path fill="none" stroke="midnightblue" d="M370.116,-108.935C384.302,-122.672 405.689,-140.924 428,-151 436.516,-154.846 445.699,-157.954 455.026,-160.467"/>
<polygon fill="midnightblue" stroke="midnightblue" points="372.567,-106.436 363.016,-101.849 367.622,-111.39 372.567,-106.436"/>
</g>
<!-- Node7 -->
<g id="node13" class="node"><title>Node7</title>
<a xlink:href="class_histogram.html#ad4a2b931c86c4a7f2ce465d0c737050f" target="_top" xlink:title="Histogram::drawGraph">
<polygon fill="white" stroke="black" points="484.5,-120.5 484.5,-141.5 599.5,-141.5 599.5,-120.5 484.5,-120.5"/>
<text text-anchor="middle" x="542" y="-128.5" font-family="Helvetica,sans-Serif" font-size="10.00">Histogram::drawGraph</text>
</a>
</g>
<!-- Node3&#45;&gt;Node7 -->
<g id="edge12" class="edge"><title>Node3&#45;&gt;Node7</title>
<path fill="none" stroke="midnightblue" d="M399.75,-104.138C409.072,-106.568 418.819,-108.975 428,-111 446.249,-115.026 466.283,-118.766 484.398,-121.897"/>
<polygon fill="midnightblue" stroke="midnightblue" points="400.41,-100.692 389.847,-101.509 398.614,-107.458 400.41,-100.692"/>
</g>
<!-- Node10 -->
<g id="node19" class="node"><title>Node10</title>
<a xlink:href="class_array.html#acc8d9358f9cc9fa7d10d5010099cbc10" target="_top" xlink:title="Array\&lt; Sample_t \&gt;::drawGraph">
<polygon fill="white" stroke="black" points="466,-80.5 466,-101.5 618,-101.5 618,-80.5 466,-80.5"/>
<text text-anchor="middle" x="542" y="-88.5" font-family="Helvetica,sans-Serif" font-size="10.00">Array&lt; Sample_t &gt;::drawGraph</text>
</a>
</g>
<!-- Node3&#45;&gt;Node10 -->
<g id="edge18" class="edge"><title>Node3&#45;&gt;Node10</title>
<path fill="none" stroke="midnightblue" d="M401.862,-91C421.368,-91 444.288,-91 465.878,-91"/>
<polygon fill="midnightblue" stroke="midnightblue" points="401.703,-87.5001 391.703,-91 401.703,-94.5001 401.703,-87.5001"/>
</g>
<!-- Node11 -->
<g id="node21" class="node"><title>Node11</title>
<a xlink:href="class_signature.html#a80ab9f3c989f356fd8fd61282de3a994" target="_top" xlink:title="Signature::drawHistWithStateBars">
<polygon fill="white" stroke="black" points="458.5,-40.5 458.5,-61.5 625.5,-61.5 625.5,-40.5 458.5,-40.5"/>
<text text-anchor="middle" x="542" y="-48.5" font-family="Helvetica,sans-Serif" font-size="10.00">Signature::drawHistWithStateBars</text>
</a>
</g>
<!-- Node3&#45;&gt;Node11 -->
<g id="edge20" class="edge"><title>Node3&#45;&gt;Node11</title>
<path fill="none" stroke="midnightblue" d="M399.75,-77.8622C409.072,-75.4322 418.819,-73.0254 428,-71 443.6,-67.5585 460.504,-64.3257 476.399,-61.5039"/>
<polygon fill="midnightblue" stroke="midnightblue" points="398.614,-74.5423 389.847,-80.4911 400.41,-81.308 398.614,-74.5423"/>
</g>
<!-- Node12 -->
<g id="node24" class="node"><title>Node12</title>
<a xlink:href="class_power_state_sequence.html#a52cd95f5d505d6e199eb96fb488b4658" target="_top" xlink:title="PowerStateSequence::plotGraph">
<polygon fill="white" stroke="black" points="462.5,-0.5 462.5,-21.5 621.5,-21.5 621.5,-0.5 462.5,-0.5"/>
<text text-anchor="middle" x="542" y="-8.5" font-family="Helvetica,sans-Serif" font-size="10.00">PowerStateSequence::plotGraph</text>
</a>
</g>
<!-- Node3&#45;&gt;Node12 -->
<g id="edge24" class="edge"><title>Node3&#45;&gt;Node12</title>
<path fill="none" stroke="midnightblue" d="M370.116,-73.0651C384.302,-59.3285 405.689,-41.0762 428,-31 438.713,-26.1617 450.483,-22.4903 462.267,-19.705"/>
<polygon fill="midnightblue" stroke="midnightblue" points="367.622,-70.6099 363.016,-80.1515 372.567,-75.5644 367.622,-70.6099"/>
</g>
<!-- Node5 -->
<g id="node9" class="node"><title>Node5</title>
<a xlink:href="class_power_state_graph.html#a3823f720987e5e13eb7f1cfae7cdf4be" target="_top" xlink:title="This is the main public interface to the disaggregation algorithm.">
<polygon fill="white" stroke="black" points="708.5,-160.5 708.5,-181.5 863.5,-181.5 863.5,-160.5 708.5,-160.5"/>
<text text-anchor="middle" x="786" y="-168.5" font-family="Helvetica,sans-Serif" font-size="10.00">PowerStateGraph::disaggregate</text>
</a>
</g>
<!-- Node4&#45;&gt;Node5 -->
<g id="edge8" class="edge"><title>Node4&#45;&gt;Node5</title>
<path fill="none" stroke="midnightblue" d="M665.793,-171C680.256,-171 694.686,-171 708.268,-171"/>
<polygon fill="midnightblue" stroke="midnightblue" points="665.785,-167.5 655.785,-171 665.785,-174.5 665.785,-167.5"/>
</g>
<!-- Node6 -->
<g id="node11" class="node"><title>Node6</title>
<a xlink:href="_main_8cpp.html#a0ddf1224851353fc92bfbff6f499fa97" target="_top" xlink:title="main">
<polygon fill="white" stroke="black" points="983,-160.5 983,-181.5 1021,-181.5 1021,-160.5 983,-160.5"/>
<text text-anchor="middle" x="1002" y="-168.5" font-family="Helvetica,sans-Serif" font-size="10.00">main</text>
</a>
</g>
<!-- Node5&#45;&gt;Node6 -->
<g id="edge10" class="edge"><title>Node5&#45;&gt;Node6</title>
<path fill="none" stroke="midnightblue" d="M873.823,-171C914.121,-171 958.305,-171 982.844,-171"/>
<polygon fill="midnightblue" stroke="midnightblue" points="873.676,-167.5 863.676,-171 873.676,-174.5 873.676,-167.5"/>
</g>
<!-- Node8 -->
<g id="node15" class="node"><title>Node8</title>
<a xlink:href="class_signature.html#afebb6e34dcba3d828093eba1ffc7fad6" target="_top" xlink:title="Runs through signature data to find power states and stores the resulting power states in powerStates...">
<polygon fill="white" stroke="black" points="711.5,-80.5 711.5,-101.5 860.5,-101.5 860.5,-80.5 711.5,-80.5"/>
<text text-anchor="middle" x="786" y="-88.5" font-family="Helvetica,sans-Serif" font-size="10.00">Signature::updatePowerStates</text>
</a>
</g>
<!-- Node7&#45;&gt;Node8 -->
<g id="edge14" class="edge"><title>Node7&#45;&gt;Node8</title>
<path fill="none" stroke="midnightblue" d="M609.638,-119.912C644.608,-114.179 687.07,-107.218 721.565,-101.563"/>
<polygon fill="midnightblue" stroke="midnightblue" points="608.818,-116.499 599.516,-121.571 609.95,-123.407 608.818,-116.499"/>
</g>
<!-- Node9 -->
<g id="node17" class="node"><title>Node9</title>
<a xlink:href="class_signature.html#ada861d4b0e402605478abc4217f35979" target="_top" xlink:title="Signature::getPowerStates">
<polygon fill="white" stroke="black" points="935,-80.5 935,-101.5 1069,-101.5 1069,-80.5 935,-80.5"/>
<text text-anchor="middle" x="1002" y="-88.5" font-family="Helvetica,sans-Serif" font-size="10.00">Signature::getPowerStates</text>
</a>
</g>
<!-- Node8&#45;&gt;Node9 -->
<g id="edge16" class="edge"><title>Node8&#45;&gt;Node9</title>
<path fill="none" stroke="midnightblue" d="M870.665,-91C892.001,-91 914.614,-91 934.952,-91"/>
<polygon fill="midnightblue" stroke="midnightblue" points="870.637,-87.5001 860.637,-91 870.637,-94.5001 870.637,-87.5001"/>
</g>
<!-- Node11&#45;&gt;Node8 -->
<g id="edge22" class="edge"><title>Node11&#45;&gt;Node8</title>
<path fill="none" stroke="midnightblue" d="M616.368,-63.1915C650.07,-68.7163 689.524,-75.1842 721.897,-80.4913"/>
<polygon fill="midnightblue" stroke="midnightblue" points="616.543,-59.6735 606.108,-61.5095 615.41,-66.5813 616.543,-59.6735"/>
</g>
<!-- Node13 -->
<g id="node26" class="node"><title>Node13</title>
<a xlink:href="class_signature.html#af94cd3aa816030f1560410e4ad6f2dcc" target="_top" xlink:title="Finding out where each &#39;powerState&#39; starts and ends.">
<polygon fill="white" stroke="black" points="692,-0.5 692,-21.5 880,-21.5 880,-0.5 692,-0.5"/>
<text text-anchor="middle" x="786" y="-8.5" font-family="Helvetica,sans-Serif" font-size="10.00">Signature::updatePowerStateSequence</text>
</a>
</g>
<!-- Node12&#45;&gt;Node13 -->
<g id="edge26" class="edge"><title>Node12&#45;&gt;Node13</title>
<path fill="none" stroke="midnightblue" d="M631.66,-11C651.21,-11 671.955,-11 691.68,-11"/>
<polygon fill="midnightblue" stroke="midnightblue" points="631.557,-7.5001 621.557,-11 631.557,-14.5001 631.557,-7.5001"/>
</g>
<!-- Node14 -->
<g id="node28" class="node"><title>Node14</title>
<a xlink:href="class_signature.html#abf3dc6265e852ecb66a928c682e3eb5f" target="_top" xlink:title="Signature::getPowerStateSequence">
<polygon fill="white" stroke="black" points="916,-0.5 916,-21.5 1088,-21.5 1088,-0.5 916,-0.5"/>
<text text-anchor="middle" x="1002" y="-8.5" font-family="Helvetica,sans-Serif" font-size="10.00">Signature::getPowerStateSequence</text>
</a>
</g>
<!-- Node13&#45;&gt;Node14 -->
<g id="edge28" class="edge"><title>Node13&#45;&gt;Node14</title>
<path fill="none" stroke="midnightblue" d="M890.129,-11C898.685,-11 907.274,-11 915.68,-11"/>
<polygon fill="midnightblue" stroke="midnightblue" points="890.112,-7.5001 880.112,-11 890.112,-14.5001 890.112,-7.5001"/>
</g>
</g>
</svg>
