<?xml version="1.0" encoding="UTF-8" standalone="no"?>
<!DOCTYPE svg PUBLIC "-//W3C//DTD SVG 1.1//EN"
 "http://www.w3.org/Graphics/SVG/1.1/DTD/svg11.dtd">
<!-- Generated by graphviz version 2.26.3 (20100126.1600)
 -->
<!-- Title: G Pages: 1 -->
<svg width="950pt" height="228pt"
 viewBox="0.00 0.00 950.00 228.00" xmlns="http://www.w3.org/2000/svg" xmlns:xlink="http://www.w3.org/1999/xlink">
<g id="graph1" class="graph" transform="scale(1 1) rotate(0) translate(4 224)">
<title>G</title>
<polygon fill="white" stroke="white" points="-4,5 -4,-224 947,-224 947,5 -4,5"/>
<!-- Node1 -->
<g id="node1" class="node"><title>Node1</title>
<polygon fill="#bfbfbf" stroke="black" points="0.5,-100.5 0.5,-121.5 93.5,-121.5 93.5,-100.5 0.5,-100.5"/>
<text text-anchor="middle" x="47" y="-108.5" font-family="Helvetica,sans-Serif" font-size="10.00">Utils::size_t_to_s</text>
</g>
<!-- Node2 -->
<g id="node3" class="node"><title>Node2</title>
<a xlink:href="class_power_state_graph.html#a8c7b40b543c04d5f5b498a537093ae46" target="_top" xlink:title="PowerStateGraph::displayAndPlotFingerprintList">
<polygon fill="white" stroke="black" points="142.5,-198.5 142.5,-219.5 369.5,-219.5 369.5,-198.5 142.5,-198.5"/>
<text text-anchor="middle" x="256" y="-206.5" font-family="Helvetica,sans-Serif" font-size="10.00">PowerStateGraph::displayAndPlotFingerprintList</text>
</a>
</g>
<!-- Node1&#45;&gt;Node2 -->
<g id="edge2" class="edge"><title>Node1&#45;&gt;Node2</title>
<path fill="none" stroke="midnightblue" d="M62.4394,-129.238C77.8032,-146.145 102.939,-170.639 130,-184 142.698,-190.269 156.849,-194.967 170.951,-198.486"/>
<polygon fill="midnightblue" stroke="midnightblue" points="64.9611,-126.806 55.7167,-121.63 59.7156,-131.441 64.9611,-126.806"/>
</g>
<!-- Node5 -->
<g id="node9" class="node"><title>Node5</title>
<a xlink:href="class_signature.html#a80ab9f3c989f356fd8fd61282de3a994" target="_top" xlink:title="Signature::drawHistWithStateBars">
<polygon fill="white" stroke="black" points="418.5,-158.5 418.5,-179.5 585.5,-179.5 585.5,-158.5 418.5,-158.5"/>
<text text-anchor="middle" x="502" y="-166.5" font-family="Helvetica,sans-Serif" font-size="10.00">Signature::drawHistWithStateBars</text>
</a>
</g>
<!-- Node1&#45;&gt;Node5 -->
<g id="edge8" class="edge"><title>Node1&#45;&gt;Node5</title>
<path fill="none" stroke="midnightblue" d="M72.4264,-126.558C88.3537,-135.45 109.653,-145.832 130,-151 226.667,-175.551 341.899,-177.051 418.228,-174.365"/>
<polygon fill="midnightblue" stroke="midnightblue" points="74.1302,-123.501 63.7173,-121.546 70.6384,-129.568 74.1302,-123.501"/>
</g>
<!-- Node8 -->
<g id="node15" class="node"><title>Node8</title>
<a xlink:href="class_histogram.html#ac542b993b1f5a0ab1b94d4ee7b0bb70d" target="_top" xlink:title="Histogram::getBaseFilename">
<polygon fill="white" stroke="black" points="184.5,-120.5 184.5,-141.5 327.5,-141.5 327.5,-120.5 184.5,-120.5"/>
<text text-anchor="middle" x="256" y="-128.5" font-family="Helvetica,sans-Serif" font-size="10.00">Histogram::getBaseFilename</text>
</a>
</g>
<!-- Node1&#45;&gt;Node8 -->
<g id="edge14" class="edge"><title>Node1&#45;&gt;Node8</title>
<path fill="none" stroke="midnightblue" d="M103.65,-116.421C128.544,-118.803 158.059,-121.628 184.45,-124.153"/>
<polygon fill="midnightblue" stroke="midnightblue" points="103.932,-112.932 93.6435,-115.463 103.265,-119.9 103.932,-112.932"/>
</g>
<!-- Node10 -->
<g id="node21" class="node"><title>Node10</title>
<a xlink:href="class_array.html#af1aa87814043813d26e34957778cdb3d" target="_top" xlink:title="Array\&lt; Sample_t \&gt;::getBaseFilename">
<polygon fill="white" stroke="black" points="165.5,-80.5 165.5,-101.5 346.5,-101.5 346.5,-80.5 165.5,-80.5"/>
<text text-anchor="middle" x="256" y="-88.5" font-family="Helvetica,sans-Serif" font-size="10.00">Array&lt; Sample_t &gt;::getBaseFilename</text>
</a>
</g>
<!-- Node1&#45;&gt;Node10 -->
<g id="edge22" class="edge"><title>Node1&#45;&gt;Node10</title>
<path fill="none" stroke="midnightblue" d="M103.623,-105.582C122.654,-103.76 144.389,-101.68 165.365,-99.6732"/>
<polygon fill="midnightblue" stroke="midnightblue" points="103.265,-102.1 93.6435,-106.537 103.932,-109.068 103.265,-102.1"/>
</g>
<!-- Node11 -->
<g id="node23" class="node"><title>Node11</title>
<a xlink:href="class_array.html#a142bd1adb0eb622a1d89e6ca514509c0" target="_top" xlink:title="Array\&lt; Sample_t \&gt;::getSmoothedGradOfHistFilename">
<polygon fill="white" stroke="black" points="130,-40.5 130,-61.5 382,-61.5 382,-40.5 130,-40.5"/>
<text text-anchor="middle" x="256" y="-48.5" font-family="Helvetica,sans-Serif" font-size="10.00">Array&lt; Sample_t &gt;::getSmoothedGradOfHistFilename</text>
</a>
</g>
<!-- Node1&#45;&gt;Node11 -->
<g id="edge24" class="edge"><title>Node1&#45;&gt;Node11</title>
<path fill="none" stroke="midnightblue" d="M74.3284,-95.3277C90.13,-86.912 110.658,-77.0523 130,-71 142.26,-67.1638 155.433,-64.0392 168.475,-61.5008"/>
<polygon fill="midnightblue" stroke="midnightblue" points="72.2551,-92.4718 65.1533,-100.334 75.608,-98.6166 72.2551,-92.4718"/>
</g>
<!-- Node12 -->
<g id="node25" class="node"><title>Node12</title>
<a xlink:href="namespace_utils.html#ad66c6623876ef260ee9f2ca1593854d8" target="_top" xlink:title="Utils::secondsToTime">
<polygon fill="white" stroke="black" points="199.5,-0.5 199.5,-21.5 312.5,-21.5 312.5,-0.5 199.5,-0.5"/>
<text text-anchor="middle" x="256" y="-8.5" font-family="Helvetica,sans-Serif" font-size="10.00">Utils::secondsToTime</text>
</a>
</g>
<!-- Node1&#45;&gt;Node12 -->
<g id="edge26" class="edge"><title>Node1&#45;&gt;Node12</title>
<path fill="none" stroke="midnightblue" d="M60.7718,-92.2134C75.6296,-73.4565 101.082,-45.4072 130,-31 151.213,-20.4319 176.705,-15.2041 199.193,-12.6987"/>
<polygon fill="midnightblue" stroke="midnightblue" points="57.8505,-90.2711 54.5381,-100.335 63.4033,-94.5333 57.8505,-90.2711"/>
</g>
<!-- Node3 -->
<g id="node5" class="node"><title>Node3</title>
<a xlink:href="class_power_state_graph.html#a3823f720987e5e13eb7f1cfae7cdf4be" target="_top" xlink:title="This is the main public interface to the disaggregation algorithm.">
<polygon fill="white" stroke="black" points="424.5,-198.5 424.5,-219.5 579.5,-219.5 579.5,-198.5 424.5,-198.5"/>
<text text-anchor="middle" x="502" y="-206.5" font-family="Helvetica,sans-Serif" font-size="10.00">PowerStateGraph::disaggregate</text>
</a>
</g>
<!-- Node2&#45;&gt;Node3 -->
<g id="edge4" class="edge"><title>Node2&#45;&gt;Node3</title>
<path fill="none" stroke="midnightblue" d="M380.067,-209C395.142,-209 410.195,-209 424.321,-209"/>
<polygon fill="midnightblue" stroke="midnightblue" points="379.639,-205.5 369.639,-209 379.639,-212.5 379.639,-205.5"/>
</g>
<!-- Node4 -->
<g id="node7" class="node"><title>Node4</title>
<a xlink:href="_main_8cpp.html#a0ddf1224851353fc92bfbff6f499fa97" target="_top" xlink:title="main">
<polygon fill="white" stroke="black" points="678,-198.5 678,-219.5 716,-219.5 716,-198.5 678,-198.5"/>
<text text-anchor="middle" x="697" y="-206.5" font-family="Helvetica,sans-Serif" font-size="10.00">main</text>
</a>
</g>
<!-- Node3&#45;&gt;Node4 -->
<g id="edge6" class="edge"><title>Node3&#45;&gt;Node4</title>
<path fill="none" stroke="midnightblue" d="M589.808,-209C622.815,-209 657.318,-209 677.985,-209"/>
<polygon fill="midnightblue" stroke="midnightblue" points="589.63,-205.5 579.629,-209 589.629,-212.5 589.63,-205.5"/>
</g>
<!-- Node6 -->
<g id="node11" class="node"><title>Node6</title>
<a xlink:href="class_signature.html#afebb6e34dcba3d828093eba1ffc7fad6" target="_top" xlink:title="Runs through signature data to find power states and stores the resulting power states in powerStates...">
<polygon fill="white" stroke="black" points="622.5,-138.5 622.5,-159.5 771.5,-159.5 771.5,-138.5 622.5,-138.5"/>
<text text-anchor="middle" x="697" y="-146.5" font-family="Helvetica,sans-Serif" font-size="10.00">Signature::updatePowerStates</text>
</a>
</g>
<!-- Node5&#45;&gt;Node6 -->
<g id="edge10" class="edge"><title>Node5&#45;&gt;Node6</title>
<path fill="none" stroke="midnightblue" d="M595.603,-159.4C604.541,-158.483 613.523,-157.562 622.247,-156.667"/>
<polygon fill="midnightblue" stroke="midnightblue" points="595.137,-155.929 585.546,-160.431 595.851,-162.893 595.137,-155.929"/>
</g>
<!-- Node7 -->
<g id="node13" class="node"><title>Node7</title>
<a xlink:href="class_signature.html#ada861d4b0e402605478abc4217f35979" target="_top" xlink:title="Signature::getPowerStates">
<polygon fill="white" stroke="black" points="808,-138.5 808,-159.5 942,-159.5 942,-138.5 808,-138.5"/>
<text text-anchor="middle" x="875" y="-146.5" font-family="Helvetica,sans-Serif" font-size="10.00">Signature::getPowerStates</text>
</a>
</g>
<!-- Node6&#45;&gt;Node7 -->
<g id="edge12" class="edge"><title>Node6&#45;&gt;Node7</title>
<path fill="none" stroke="midnightblue" d="M781.893,-149C790.602,-149 799.363,-149 807.842,-149"/>
<polygon fill="midnightblue" stroke="midnightblue" points="781.714,-145.5 771.714,-149 781.714,-152.5 781.714,-145.5"/>
</g>
<!-- Node8&#45;&gt;Node5 -->
<g id="edge20" class="edge"><title>Node8&#45;&gt;Node5</title>
<path fill="none" stroke="midnightblue" d="M334.385,-143.108C366.304,-148.039 402.859,-153.686 433.669,-158.445"/>
<polygon fill="midnightblue" stroke="midnightblue" points="334.615,-139.602 324.198,-141.535 333.546,-146.52 334.615,-139.602"/>
</g>
<!-- Node9 -->
<g id="node17" class="node"><title>Node9</title>
<a xlink:href="class_histogram.html#ad4a2b931c86c4a7f2ce465d0c737050f" target="_top" xlink:title="Histogram::drawGraph">
<polygon fill="white" stroke="black" points="444.5,-118.5 444.5,-139.5 559.5,-139.5 559.5,-118.5 444.5,-118.5"/>
<text text-anchor="middle" x="502" y="-126.5" font-family="Helvetica,sans-Serif" font-size="10.00">Histogram::drawGraph</text>
</a>
</g>
<!-- Node8&#45;&gt;Node9 -->
<g id="edge16" class="edge"><title>Node8&#45;&gt;Node9</title>
<path fill="none" stroke="midnightblue" d="M337.961,-130.334C372.754,-130.051 412.494,-129.728 444.145,-129.47"/>
<polygon fill="midnightblue" stroke="midnightblue" points="337.786,-126.835 327.815,-130.416 337.843,-133.835 337.786,-126.835"/>
</g>
<!-- Node9&#45;&gt;Node6 -->
<g id="edge18" class="edge"><title>Node9&#45;&gt;Node6</title>
<path fill="none" stroke="midnightblue" d="M570.059,-135.98C586.976,-137.715 605.198,-139.584 622.41,-141.35"/>
<polygon fill="midnightblue" stroke="midnightblue" points="570.02,-132.458 559.715,-134.919 569.306,-139.422 570.02,-132.458"/>
</g>
</g>
</svg>
