<?xml version="1.0" encoding="UTF-8" standalone="no"?>
<!DOCTYPE svg PUBLIC "-//W3C//DTD SVG 1.1//EN"
 "http://www.w3.org/Graphics/SVG/1.1/DTD/svg11.dtd">
<!-- Generated by graphviz version 2.26.3 (20100126.1600)
 -->
<!-- Title: G Pages: 1 -->
<svg width="964pt" height="190pt"
 viewBox="0.00 0.00 964.00 190.00" xmlns="http://www.w3.org/2000/svg" xmlns:xlink="http://www.w3.org/1999/xlink">
<g id="graph1" class="graph" transform="scale(1 1) rotate(0) translate(4 186)">
<title>G</title>
<polygon fill="white" stroke="white" points="-4,5 -4,-186 961,-186 961,5 -4,5"/>
<!-- Node1 -->
<g id="node1" class="node"><title>Node1</title>
<polygon fill="#bfbfbf" stroke="black" points="0,-80.5 0,-101.5 146,-101.5 146,-80.5 0,-80.5"/>
<text text-anchor="middle" x="73" y="-88.5" font-family="Helvetica,sans-Serif" font-size="10.00">GNUplot::instantiateTemplate</text>
</g>
<!-- Node2 -->
<g id="node3" class="node"><title>Node2</title>
<a xlink:href="namespace_g_n_uplot.html#ab276a6d946560395f9d6caa8cb6cb640" target="_top" xlink:title="Plot a graph using GNUplot.">
<polygon fill="white" stroke="black" points="182.5,-80.5 182.5,-101.5 259.5,-101.5 259.5,-80.5 182.5,-80.5"/>
<text text-anchor="middle" x="221" y="-88.5" font-family="Helvetica,sans-Serif" font-size="10.00">GNUplot::plot</text>
</a>
</g>
<!-- Node1&#45;&gt;Node2 -->
<g id="edge2" class="edge"><title>Node1&#45;&gt;Node2</title>
<path fill="none" stroke="midnightblue" d="M156.386,-91C165.422,-91 174.269,-91 182.374,-91"/>
<polygon fill="midnightblue" stroke="midnightblue" points="156.133,-87.5001 146.133,-91 156.133,-94.5001 156.133,-87.5001"/>
</g>
<!-- Node3 -->
<g id="node5" class="node"><title>Node3</title>
<a xlink:href="class_power_state_graph.html#a8c7b40b543c04d5f5b498a537093ae46" target="_top" xlink:title="PowerStateGraph::displayAndPlotFingerprintList">
<polygon fill="white" stroke="black" points="296.5,-160.5 296.5,-181.5 523.5,-181.5 523.5,-160.5 296.5,-160.5"/>
<text text-anchor="middle" x="410" y="-168.5" font-family="Helvetica,sans-Serif" font-size="10.00">PowerStateGraph::displayAndPlotFingerprintList</text>
</a>
</g>
<!-- Node2&#45;&gt;Node3 -->
<g id="edge4" class="edge"><title>Node2&#45;&gt;Node3</title>
<path fill="none" stroke="midnightblue" d="M238.116,-108.935C252.302,-122.672 273.689,-140.924 296,-151 304.516,-154.846 313.699,-157.954 323.026,-160.467"/>
<polygon fill="midnightblue" stroke="midnightblue" points="240.567,-106.436 231.016,-101.849 235.622,-111.39 240.567,-106.436"/>
</g>
<!-- Node6 -->
<g id="node11" class="node"><title>Node6</title>
<a xlink:href="class_histogram.html#ad4a2b931c86c4a7f2ce465d0c737050f" target="_top" xlink:title="Histogram::drawGraph">
<polygon fill="white" stroke="black" points="352.5,-120.5 352.5,-141.5 467.5,-141.5 467.5,-120.5 352.5,-120.5"/>
<text text-anchor="middle" x="410" y="-128.5" font-family="Helvetica,sans-Serif" font-size="10.00">Histogram::drawGraph</text>
</a>
</g>
<!-- Node2&#45;&gt;Node6 -->
<g id="edge10" class="edge"><title>Node2&#45;&gt;Node6</title>
<path fill="none" stroke="midnightblue" d="M267.75,-104.138C277.072,-106.568 286.819,-108.975 296,-111 314.249,-115.026 334.283,-118.766 352.398,-121.897"/>
<polygon fill="midnightblue" stroke="midnightblue" points="268.41,-100.692 257.847,-101.509 266.614,-107.458 268.41,-100.692"/>
</g>
<!-- Node9 -->
<g id="node17" class="node"><title>Node9</title>
<a xlink:href="class_array.html#acc8d9358f9cc9fa7d10d5010099cbc10" target="_top" xlink:title="Array\&lt; Sample_t \&gt;::drawGraph">
<polygon fill="white" stroke="black" points="334,-80.5 334,-101.5 486,-101.5 486,-80.5 334,-80.5"/>
<text text-anchor="middle" x="410" y="-88.5" font-family="Helvetica,sans-Serif" font-size="10.00">Array&lt; Sample_t &gt;::drawGraph</text>
</a>
</g>
<!-- Node2&#45;&gt;Node9 -->
<g id="edge16" class="edge"><title>Node2&#45;&gt;Node9</title>
<path fill="none" stroke="midnightblue" d="M269.862,-91C289.368,-91 312.288,-91 333.878,-91"/>
<polygon fill="midnightblue" stroke="midnightblue" points="269.703,-87.5001 259.703,-91 269.703,-94.5001 269.703,-87.5001"/>
</g>
<!-- Node10 -->
<g id="node19" class="node"><title>Node10</title>
<a xlink:href="class_signature.html#a80ab9f3c989f356fd8fd61282de3a994" target="_top" xlink:title="Signature::drawHistWithStateBars">
<polygon fill="white" stroke="black" points="326.5,-40.5 326.5,-61.5 493.5,-61.5 493.5,-40.5 326.5,-40.5"/>
<text text-anchor="middle" x="410" y="-48.5" font-family="Helvetica,sans-Serif" font-size="10.00">Signature::drawHistWithStateBars</text>
</a>
</g>
<!-- Node2&#45;&gt;Node10 -->
<g id="edge18" class="edge"><title>Node2&#45;&gt;Node10</title>
<path fill="none" stroke="midnightblue" d="M267.75,-77.8622C277.072,-75.4322 286.819,-73.0254 296,-71 311.6,-67.5585 328.504,-64.3257 344.399,-61.5039"/>
<polygon fill="midnightblue" stroke="midnightblue" points="266.614,-74.5423 257.847,-80.4911 268.41,-81.308 266.614,-74.5423"/>
</g>
<!-- Node11 -->
<g id="node22" class="node"><title>Node11</title>
<a xlink:href="class_power_state_sequence.html#a52cd95f5d505d6e199eb96fb488b4658" target="_top" xlink:title="PowerStateSequence::plotGraph">
<polygon fill="white" stroke="black" points="330.5,-0.5 330.5,-21.5 489.5,-21.5 489.5,-0.5 330.5,-0.5"/>
<text text-anchor="middle" x="410" y="-8.5" font-family="Helvetica,sans-Serif" font-size="10.00">PowerStateSequence::plotGraph</text>
</a>
</g>
<!-- Node2&#45;&gt;Node11 -->
<g id="edge22" class="edge"><title>Node2&#45;&gt;Node11</title>
<path fill="none" stroke="midnightblue" d="M238.116,-73.0651C252.302,-59.3285 273.689,-41.0762 296,-31 306.713,-26.1617 318.483,-22.4903 330.267,-19.705"/>
<polygon fill="midnightblue" stroke="midnightblue" points="235.622,-70.6099 231.016,-80.1515 240.567,-75.5644 235.622,-70.6099"/>
</g>
<!-- Node4 -->
<g id="node7" class="node"><title>Node4</title>
<a xlink:href="class_power_state_graph.html#a3823f720987e5e13eb7f1cfae7cdf4be" target="_top" xlink:title="This is the main public interface to the disaggregation algorithm.">
<polygon fill="white" stroke="black" points="576.5,-160.5 576.5,-181.5 731.5,-181.5 731.5,-160.5 576.5,-160.5"/>
<text text-anchor="middle" x="654" y="-168.5" font-family="Helvetica,sans-Serif" font-size="10.00">PowerStateGraph::disaggregate</text>
</a>
</g>
<!-- Node3&#45;&gt;Node4 -->
<g id="edge6" class="edge"><title>Node3&#45;&gt;Node4</title>
<path fill="none" stroke="midnightblue" d="M533.793,-171C548.256,-171 562.686,-171 576.268,-171"/>
<polygon fill="midnightblue" stroke="midnightblue" points="533.785,-167.5 523.785,-171 533.785,-174.5 533.785,-167.5"/>
</g>
<!-- Node5 -->
<g id="node9" class="node"><title>Node5</title>
<a xlink:href="_main_8cpp.html#a0ddf1224851353fc92bfbff6f499fa97" target="_top" xlink:title="main">
<polygon fill="white" stroke="black" points="851,-160.5 851,-181.5 889,-181.5 889,-160.5 851,-160.5"/>
<text text-anchor="middle" x="870" y="-168.5" font-family="Helvetica,sans-Serif" font-size="10.00">main</text>
</a>
</g>
<!-- Node4&#45;&gt;Node5 -->
<g id="edge8" class="edge"><title>Node4&#45;&gt;Node5</title>
<path fill="none" stroke="midnightblue" d="M741.823,-171C782.121,-171 826.305,-171 850.844,-171"/>
<polygon fill="midnightblue" stroke="midnightblue" points="741.676,-167.5 731.676,-171 741.676,-174.5 741.676,-167.5"/>
</g>
<!-- Node7 -->
<g id="node13" class="node"><title>Node7</title>
<a xlink:href="class_signature.html#afebb6e34dcba3d828093eba1ffc7fad6" target="_top" xlink:title="Runs through signature data to find power states and stores the resulting power states in powerStates...">
<polygon fill="white" stroke="black" points="579.5,-80.5 579.5,-101.5 728.5,-101.5 728.5,-80.5 579.5,-80.5"/>
<text text-anchor="middle" x="654" y="-88.5" font-family="Helvetica,sans-Serif" font-size="10.00">Signature::updatePowerStates</text>
</a>
</g>
<!-- Node6&#45;&gt;Node7 -->
<g id="edge12" class="edge"><title>Node6&#45;&gt;Node7</title>
<path fill="none" stroke="midnightblue" d="M477.638,-119.912C512.608,-114.179 555.07,-107.218 589.565,-101.563"/>
<polygon fill="midnightblue" stroke="midnightblue" points="476.818,-116.499 467.516,-121.571 477.95,-123.407 476.818,-116.499"/>
</g>
<!-- Node8 -->
<g id="node15" class="node"><title>Node8</title>
<a xlink:href="class_signature.html#ada861d4b0e402605478abc4217f35979" target="_top" xlink:title="Signature::getPowerStates">
<polygon fill="white" stroke="black" points="803,-80.5 803,-101.5 937,-101.5 937,-80.5 803,-80.5"/>
<text text-anchor="middle" x="870" y="-88.5" font-family="Helvetica,sans-Serif" font-size="10.00">Signature::getPowerStates</text>
</a>
</g>
<!-- Node7&#45;&gt;Node8 -->
<g id="edge14" class="edge"><title>Node7&#45;&gt;Node8</title>
<path fill="none" stroke="midnightblue" d="M738.665,-91C760.001,-91 782.614,-91 802.952,-91"/>
<polygon fill="midnightblue" stroke="midnightblue" points="738.637,-87.5001 728.637,-91 738.637,-94.5001 738.637,-87.5001"/>
</g>
<!-- Node10&#45;&gt;Node7 -->
<g id="edge20" class="edge"><title>Node10&#45;&gt;Node7</title>
<path fill="none" stroke="midnightblue" d="M484.368,-63.1915C518.07,-68.7163 557.524,-75.1842 589.897,-80.4913"/>
<polygon fill="midnightblue" stroke="midnightblue" points="484.543,-59.6735 474.108,-61.5095 483.41,-66.5813 484.543,-59.6735"/>
</g>
<!-- Node12 -->
<g id="node24" class="node"><title>Node12</title>
<a xlink:href="class_signature.html#af94cd3aa816030f1560410e4ad6f2dcc" target="_top" xlink:title="Finding out where each &#39;powerState&#39; starts and ends.">
<polygon fill="white" stroke="black" points="560,-0.5 560,-21.5 748,-21.5 748,-0.5 560,-0.5"/>
<text text-anchor="middle" x="654" y="-8.5" font-family="Helvetica,sans-Serif" font-size="10.00">Signature::updatePowerStateSequence</text>
</a>
</g>
<!-- Node11&#45;&gt;Node12 -->
<g id="edge24" class="edge"><title>Node11&#45;&gt;Node12</title>
<path fill="none" stroke="midnightblue" d="M499.66,-11C519.21,-11 539.955,-11 559.68,-11"/>
<polygon fill="midnightblue" stroke="midnightblue" points="499.557,-7.5001 489.557,-11 499.557,-14.5001 499.557,-7.5001"/>
</g>
<!-- Node13 -->
<g id="node26" class="node"><title>Node13</title>
<a xlink:href="class_signature.html#abf3dc6265e852ecb66a928c682e3eb5f" target="_top" xlink:title="Signature::getPowerStateSequence">
<polygon fill="white" stroke="black" points="784,-0.5 784,-21.5 956,-21.5 956,-0.5 784,-0.5"/>
<text text-anchor="middle" x="870" y="-8.5" font-family="Helvetica,sans-Serif" font-size="10.00">Signature::getPowerStateSequence</text>
</a>
</g>
<!-- Node12&#45;&gt;Node13 -->
<g id="edge26" class="edge"><title>Node12&#45;&gt;Node13</title>
<path fill="none" stroke="midnightblue" d="M758.129,-11C766.685,-11 775.274,-11 783.68,-11"/>
<polygon fill="midnightblue" stroke="midnightblue" points="758.112,-7.5001 748.112,-11 758.112,-14.5001 758.112,-7.5001"/>
</g>
</g>
</svg>
