<?xml version="1.0" encoding="UTF-8" standalone="no"?>
<!DOCTYPE svg PUBLIC "-//W3C//DTD SVG 1.1//EN"
 "http://www.w3.org/Graphics/SVG/1.1/DTD/svg11.dtd">
<!-- Generated by graphviz version 2.26.3 (20100126.1600)
 -->
<!-- Title: G Pages: 1 -->
<svg width="414pt" height="70pt"
 viewBox="0.00 0.00 414.00 70.00" xmlns="http://www.w3.org/2000/svg" xmlns:xlink="http://www.w3.org/1999/xlink">
<g id="graph1" class="graph" transform="scale(1 1) rotate(0) translate(4 66)">
<title>G</title>
<polygon fill="white" stroke="white" points="-4,5 -4,-66 411,-66 411,5 -4,5"/>
<!-- Node1 -->
<g id="node1" class="node"><title>Node1</title>
<polygon fill="#bfbfbf" stroke="black" points="0,-20.5 0,-41.5 116,-41.5 116,-20.5 0,-20.5"/>
<text text-anchor="middle" x="58" y="-28.5" font-family="Helvetica,sans-Serif" font-size="10.00">Utils::countDataPoints</text>
</g>
<!-- Node2 -->
<g id="node3" class="node"><title>Node2</title>
<a xlink:href="class_aggregate_data.html#a6081d80a8dacb3fe085b5dc9d99f8086" target="_top" xlink:title="AggregateData::loadCurrentCostData">
<polygon fill="white" stroke="black" points="152,-40.5 152,-61.5 332,-61.5 332,-40.5 152,-40.5"/>
<text text-anchor="middle" x="242" y="-48.5" font-family="Helvetica,sans-Serif" font-size="10.00">AggregateData::loadCurrentCostData</text>
</a>
</g>
<!-- Node1&#45;&gt;Node2 -->
<g id="edge2" class="edge"><title>Node1&#45;&gt;Node2</title>
<path fill="none" stroke="midnightblue" d="M126.259,-38.4195C134.622,-39.3285 143.265,-40.268 151.887,-41.2051"/>
<polygon fill="midnightblue" stroke="midnightblue" points="126.538,-34.9293 116.219,-37.3281 125.782,-41.8883 126.538,-34.9293"/>
</g>
<!-- Node4 -->
<g id="node7" class="node"><title>Node4</title>
<a xlink:href="class_array.html#a16b3e6c252265356859eea3843afa84c" target="_top" xlink:title="Load data from a CSV file with a single column.">
<polygon fill="white" stroke="black" points="170,-0.5 170,-21.5 314,-21.5 314,-0.5 170,-0.5"/>
<text text-anchor="middle" x="242" y="-8.5" font-family="Helvetica,sans-Serif" font-size="10.00">Array&lt; Sample_t &gt;::loadData</text>
</a>
</g>
<!-- Node1&#45;&gt;Node4 -->
<g id="edge6" class="edge"><title>Node1&#45;&gt;Node4</title>
<path fill="none" stroke="midnightblue" d="M126.397,-23.5655C140.6,-22.0217 155.608,-20.3904 169.938,-18.8328"/>
<polygon fill="midnightblue" stroke="midnightblue" points="125.782,-20.1117 116.219,-24.6719 126.538,-27.0707 125.782,-20.1117"/>
</g>
<!-- Node3 -->
<g id="node5" class="node"><title>Node3</title>
<a xlink:href="_main_8cpp.html#a0ddf1224851353fc92bfbff6f499fa97" target="_top" xlink:title="main">
<polygon fill="white" stroke="black" points="368,-40.5 368,-61.5 406,-61.5 406,-40.5 368,-40.5"/>
<text text-anchor="middle" x="387" y="-48.5" font-family="Helvetica,sans-Serif" font-size="10.00">main</text>
</a>
</g>
<!-- Node2&#45;&gt;Node3 -->
<g id="edge4" class="edge"><title>Node2&#45;&gt;Node3</title>
<path fill="none" stroke="midnightblue" d="M342.312,-51C351.805,-51 360.548,-51 367.736,-51"/>
<polygon fill="midnightblue" stroke="midnightblue" points="342.182,-47.5001 332.182,-51 342.182,-54.5001 342.182,-47.5001"/>
</g>
</g>
</svg>
