<?xml version="1.0" encoding="UTF-8" standalone="no"?>
<!DOCTYPE svg PUBLIC "-//W3C//DTD SVG 1.1//EN"
 "http://www.w3.org/Graphics/SVG/1.1/DTD/svg11.dtd">
<!-- Generated by graphviz version 2.26.3 (20100126.1600)
 -->
<!-- Title: G Pages: 1 -->
<svg width="642pt" height="226pt"
 viewBox="0.00 0.00 642.00 226.00" xmlns="http://www.w3.org/2000/svg" xmlns:xlink="http://www.w3.org/1999/xlink">
<g id="graph1" class="graph" transform="scale(1 1) rotate(0) translate(4 222)">
<title>G</title>
<polygon fill="white" stroke="white" points="-4,5 -4,-222 639,-222 639,5 -4,5"/>
<!-- Node1 -->
<g id="node1" class="node"><title>Node1</title>
<polygon fill="#bfbfbf" stroke="black" points="0,-97.5 0,-118.5 80,-118.5 80,-97.5 0,-97.5"/>
<text text-anchor="middle" x="40" y="-105.5" font-family="Helvetica,sans-Serif" font-size="10.00">Utils::openFile</text>
</g>
<!-- Node2 -->
<g id="node3" class="node"><title>Node2</title>
<a xlink:href="class_power_state_graph.html#a8c7b40b543c04d5f5b498a537093ae46" target="_top" xlink:title="PowerStateGraph::displayAndPlotFingerprintList">
<polygon fill="white" stroke="black" points="116.5,-196.5 116.5,-217.5 343.5,-217.5 343.5,-196.5 116.5,-196.5"/>
<text text-anchor="middle" x="230" y="-204.5" font-family="Helvetica,sans-Serif" font-size="10.00">PowerStateGraph::displayAndPlotFingerprintList</text>
</a>
</g>
<!-- Node1&#45;&gt;Node2 -->
<g id="edge2" class="edge"><title>Node1&#45;&gt;Node2</title>
<path fill="none" stroke="midnightblue" d="M52.7468,-127.013C66.1982,-145.462 89.1474,-172.704 116,-187 123.183,-190.824 130.947,-193.939 138.928,-196.473"/>
<polygon fill="midnightblue" stroke="midnightblue" points="55.5516,-124.917 46.9308,-118.759 49.8293,-128.949 55.5516,-124.917"/>
</g>
<!-- Node5 -->
<g id="node9" class="node"><title>Node5</title>
<a xlink:href="class_power_state_sequence.html#a41b5f635d81abca292bd6cbcf08c73df" target="_top" xlink:title="Dump the contents of powerStateSequence to a data file ready for gnuplot to plot using the &#39;boxxy...">
<polygon fill="white" stroke="black" points="146,-156.5 146,-177.5 314,-177.5 314,-156.5 146,-156.5"/>
<text text-anchor="middle" x="230" y="-164.5" font-family="Helvetica,sans-Serif" font-size="10.00">PowerStateSequence::dumpToFile</text>
</a>
</g>
<!-- Node1&#45;&gt;Node5 -->
<g id="edge8" class="edge"><title>Node1&#45;&gt;Node5</title>
<path fill="none" stroke="midnightblue" d="M69.5593,-122.922C83.4008,-129.465 100.272,-136.818 116,-142 133.609,-147.802 153.193,-152.65 171.092,-156.485"/>
<polygon fill="midnightblue" stroke="midnightblue" points="71.0396,-119.75 60.512,-118.558 67.9984,-126.055 71.0396,-119.75"/>
</g>
<!-- Node6 -->
<g id="node11" class="node"><title>Node6</title>
<a xlink:href="class_aggregate_data.html#a6081d80a8dacb3fe085b5dc9d99f8086" target="_top" xlink:title="AggregateData::loadCurrentCostData">
<polygon fill="white" stroke="black" points="380,-117.5 380,-138.5 560,-138.5 560,-117.5 380,-117.5"/>
<text text-anchor="middle" x="470" y="-125.5" font-family="Helvetica,sans-Serif" font-size="10.00">AggregateData::loadCurrentCostData</text>
</a>
</g>
<!-- Node1&#45;&gt;Node6 -->
<g id="edge10" class="edge"><title>Node1&#45;&gt;Node6</title>
<path fill="none" stroke="midnightblue" d="M90.0845,-110.33C161.01,-113.628 291.864,-119.715 379.917,-123.81"/>
<polygon fill="midnightblue" stroke="midnightblue" points="90.2191,-106.832 80.0672,-109.864 89.8938,-113.825 90.2191,-106.832"/>
</g>
<!-- Node7 -->
<g id="node14" class="node"><title>Node7</title>
<a xlink:href="class_signature.html#a3ddd7b321b4eda212b310c8462febf3f" target="_top" xlink:title="Constructor for opening a CSV file.">
<polygon fill="white" stroke="black" points="177.5,-78.5 177.5,-99.5 282.5,-99.5 282.5,-78.5 177.5,-78.5"/>
<text text-anchor="middle" x="230" y="-86.5" font-family="Helvetica,sans-Serif" font-size="10.00">Signature::Signature</text>
</a>
</g>
<!-- Node1&#45;&gt;Node7 -->
<g id="edge14" class="edge"><title>Node1&#45;&gt;Node7</title>
<path fill="none" stroke="midnightblue" d="M90.2729,-102.973C117.167,-100.283 150.257,-96.9743 177.484,-94.2516"/>
<polygon fill="midnightblue" stroke="midnightblue" points="89.8962,-99.4928 80.2941,-103.971 90.5928,-106.458 89.8962,-99.4928"/>
</g>
<!-- Node8 -->
<g id="node16" class="node"><title>Node8</title>
<a xlink:href="class_device.html#ad3d9721aca89723e22cf723149a39583" target="_top" xlink:title="Trains the powerStateGraph using signatures declared with loadSignatures(). To be called once signatu...">
<polygon fill="white" stroke="black" points="395.5,-59.5 395.5,-80.5 544.5,-80.5 544.5,-59.5 395.5,-59.5"/>
<text text-anchor="middle" x="470" y="-67.5" font-family="Helvetica,sans-Serif" font-size="10.00">Device::trainPowerStateGraph</text>
</a>
</g>
<!-- Node1&#45;&gt;Node8 -->
<g id="edge16" class="edge"><title>Node1&#45;&gt;Node8</title>
<path fill="none" stroke="midnightblue" d="M63.8955,-92.0031C78.3138,-83.3284 97.4344,-73.4855 116,-69 210.239,-46.2316 322.756,-51.9032 395.24,-59.6102"/>
<polygon fill="midnightblue" stroke="midnightblue" points="61.7781,-89.1991 55.1528,-97.4668 65.4879,-95.1352 61.7781,-89.1991"/>
</g>
<!-- Node9 -->
<g id="node19" class="node"><title>Node9</title>
<a xlink:href="class_signature.html#afebb6e34dcba3d828093eba1ffc7fad6" target="_top" xlink:title="Runs through signature data to find power states and stores the resulting power states in powerStates...">
<polygon fill="white" stroke="black" points="155.5,-0.5 155.5,-21.5 304.5,-21.5 304.5,-0.5 155.5,-0.5"/>
<text text-anchor="middle" x="230" y="-8.5" font-family="Helvetica,sans-Serif" font-size="10.00">Signature::updatePowerStates</text>
</a>
</g>
<!-- Node1&#45;&gt;Node9 -->
<g id="edge20" class="edge"><title>Node1&#45;&gt;Node9</title>
<path fill="none" stroke="midnightblue" d="M54.5341,-89.3745C68.4999,-72.7952 91.1077,-49.1856 116,-36 128.086,-29.598 141.724,-24.834 155.256,-21.2892"/>
<polygon fill="midnightblue" stroke="midnightblue" points="51.667,-87.352 48.0523,-97.3111 57.0886,-91.7799 51.667,-87.352"/>
</g>
<!-- Node3 -->
<g id="node5" class="node"><title>Node3</title>
<a xlink:href="class_power_state_graph.html#a3823f720987e5e13eb7f1cfae7cdf4be" target="_top" xlink:title="This is the main public interface to the disaggregation algorithm.">
<polygon fill="white" stroke="black" points="392.5,-176.5 392.5,-197.5 547.5,-197.5 547.5,-176.5 392.5,-176.5"/>
<text text-anchor="middle" x="470" y="-184.5" font-family="Helvetica,sans-Serif" font-size="10.00">PowerStateGraph::disaggregate</text>
</a>
</g>
<!-- Node2&#45;&gt;Node3 -->
<g id="edge4" class="edge"><title>Node2&#45;&gt;Node3</title>
<path fill="none" stroke="midnightblue" d="M353.725,-196.69C366.866,-195.595 379.947,-194.504 392.338,-193.472"/>
<polygon fill="midnightblue" stroke="midnightblue" points="353.349,-193.209 343.674,-197.527 353.931,-200.184 353.349,-193.209"/>
</g>
<!-- Node4 -->
<g id="node7" class="node"><title>Node4</title>
<a xlink:href="_main_8cpp.html#a0ddf1224851353fc92bfbff6f499fa97" target="_top" xlink:title="main">
<polygon fill="white" stroke="black" points="596,-117.5 596,-138.5 634,-138.5 634,-117.5 596,-117.5"/>
<text text-anchor="middle" x="615" y="-125.5" font-family="Helvetica,sans-Serif" font-size="10.00">main</text>
</a>
</g>
<!-- Node3&#45;&gt;Node4 -->
<g id="edge6" class="edge"><title>Node3&#45;&gt;Node4</title>
<path fill="none" stroke="midnightblue" d="M505.515,-172.549C533.98,-160.967 572.832,-145.158 595.783,-135.82"/>
<polygon fill="midnightblue" stroke="midnightblue" points="503.867,-169.441 495.923,-176.452 506.505,-175.925 503.867,-169.441"/>
</g>
<!-- Node6&#45;&gt;Node4 -->
<g id="edge12" class="edge"><title>Node6&#45;&gt;Node4</title>
<path fill="none" stroke="midnightblue" d="M570.312,-128C579.805,-128 588.548,-128 595.736,-128"/>
<polygon fill="midnightblue" stroke="midnightblue" points="570.182,-124.5 560.182,-128 570.182,-131.5 570.182,-124.5"/>
</g>
<!-- Node8&#45;&gt;Node4 -->
<g id="edge18" class="edge"><title>Node8&#45;&gt;Node4</title>
<path fill="none" stroke="midnightblue" d="M505.86,-84.344C534.332,-95.7326 573.03,-111.212 595.876,-120.35"/>
<polygon fill="midnightblue" stroke="midnightblue" points="506.843,-80.9677 496.258,-80.5034 504.243,-87.467 506.843,-80.9677"/>
</g>
<!-- Node10 -->
<g id="node21" class="node"><title>Node10</title>
<a xlink:href="class_signature.html#ada861d4b0e402605478abc4217f35979" target="_top" xlink:title="Signature::getPowerStates">
<polygon fill="white" stroke="black" points="403,-0.5 403,-21.5 537,-21.5 537,-0.5 403,-0.5"/>
<text text-anchor="middle" x="470" y="-8.5" font-family="Helvetica,sans-Serif" font-size="10.00">Signature::getPowerStates</text>
</a>
</g>
<!-- Node9&#45;&gt;Node10 -->
<g id="edge22" class="edge"><title>Node9&#45;&gt;Node10</title>
<path fill="none" stroke="midnightblue" d="M314.698,-11C343.574,-11 375.442,-11 402.758,-11"/>
<polygon fill="midnightblue" stroke="midnightblue" points="314.622,-7.5001 304.622,-11 314.622,-14.5001 314.622,-7.5001"/>
</g>
</g>
</svg>
