<?xml version="1.0" encoding="UTF-8" standalone="no"?>
<!DOCTYPE svg PUBLIC "-//W3C//DTD SVG 1.1//EN"
 "http://www.w3.org/Graphics/SVG/1.1/DTD/svg11.dtd">
<!-- Generated by graphviz version 2.26.3 (20100126.1600)
 -->
<!-- Title: G Pages: 1 -->
<svg width="950pt" height="91pt"
 viewBox="0.00 0.00 950.00 91.17" xmlns="http://www.w3.org/2000/svg" xmlns:xlink="http://www.w3.org/1999/xlink">
<g id="graph1" class="graph" transform="scale(1 1) rotate(0) translate(4 87.1701)">
<title>G</title>
<polygon fill="white" stroke="white" points="-4,5 -4,-87.1701 947,-87.1701 947,5 -4,5"/>
<!-- Node1 -->
<g id="node1" class="node"><title>Node1</title>
<polygon fill="#bfbfbf" stroke="black" points="0,-20.5 0,-41.5 86,-41.5 86,-20.5 0,-20.5"/>
<text text-anchor="middle" x="43" y="-28.5" font-family="Helvetica,sans-Serif" font-size="10.00">Utils::sameSign</text>
</g>
<!-- Node2 -->
<g id="node3" class="node"><title>Node2</title>
<a xlink:href="class_aggregate_data.html#ada468d155767d721c755405582d108ee" target="_top" xlink:title="Find all spikes in aggregate data which fit spikeStats.">
<polygon fill="white" stroke="black" points="122,-40.5 122,-61.5 250,-61.5 250,-40.5 122,-40.5"/>
<text text-anchor="middle" x="186" y="-48.5" font-family="Helvetica,sans-Serif" font-size="10.00">AggregateData::findSpike</text>
</a>
</g>
<!-- Node1&#45;&gt;Node2 -->
<g id="edge2" class="edge"><title>Node1&#45;&gt;Node2</title>
<path fill="none" stroke="midnightblue" d="M96.2293,-38.4447C104.546,-39.6079 113.217,-40.8206 121.748,-42.0138"/>
<polygon fill="midnightblue" stroke="midnightblue" points="96.6812,-34.9739 86.2928,-37.0549 95.7116,-41.9064 96.6812,-34.9739"/>
</g>
<!-- Node7 -->
<g id="node14" class="node"><title>Node7</title>
<a xlink:href="class_power_state_graph.html#a0e3e05ae1b952132621425c042d84ec1" target="_top" xlink:title="Update or Insert a new edge into powerStateGraph.">
<polygon fill="white" stroke="black" points="286.5,-0.5 286.5,-21.5 473.5,-21.5 473.5,-0.5 286.5,-0.5"/>
<text text-anchor="middle" x="380" y="-8.5" font-family="Helvetica,sans-Serif" font-size="10.00">PowerStateGraph::updateOrInsertEdge</text>
</a>
</g>
<!-- Node1&#45;&gt;Node7 -->
<g id="edge14" class="edge"><title>Node1&#45;&gt;Node7</title>
<path fill="none" stroke="midnightblue" d="M96.1466,-27.8459C147.056,-24.8246 224.984,-20.1998 286.316,-16.5599"/>
<polygon fill="midnightblue" stroke="midnightblue" points="95.7986,-24.3603 86.0236,-28.4467 96.2134,-31.348 95.7986,-24.3603"/>
</g>
<!-- Node3 -->
<g id="node5" class="node"><title>Node3</title>
<a xlink:href="class_power_state_graph.html#a3823f720987e5e13eb7f1cfae7cdf4be" target="_top" xlink:title="This is the main public interface to the disaggregation algorithm.">
<polygon fill="white" stroke="black" points="712.5,-40.5 712.5,-61.5 867.5,-61.5 867.5,-40.5 712.5,-40.5"/>
<text text-anchor="middle" x="790" y="-48.5" font-family="Helvetica,sans-Serif" font-size="10.00">PowerStateGraph::disaggregate</text>
</a>
</g>
<!-- Node2&#45;&gt;Node3 -->
<g id="edge4" class="edge"><title>Node2&#45;&gt;Node3</title>
<path fill="none" stroke="midnightblue" d="M239.194,-63.6625C254.236,-66.6902 270.683,-69.4833 286,-71 458.49,-88.0799 503.32,-86.0326 676,-71 697.42,-69.1353 720.849,-65.3355 740.867,-61.5438"/>
<polygon fill="midnightblue" stroke="midnightblue" points="239.54,-60.1593 229.035,-61.5417 238.109,-67.0116 239.54,-60.1593"/>
</g>
<!-- Node5 -->
<g id="node9" class="node"><title>Node5</title>
<a xlink:href="class_power_state_graph.html#a0df76ca216d2d48aeb44d2bb08046e2f" target="_top" xlink:title="PowerStateGraph::traceToEnd">
<polygon fill="white" stroke="black" points="305,-40.5 305,-61.5 455,-61.5 455,-40.5 305,-40.5"/>
<text text-anchor="middle" x="380" y="-48.5" font-family="Helvetica,sans-Serif" font-size="10.00">PowerStateGraph::traceToEnd</text>
</a>
</g>
<!-- Node2&#45;&gt;Node5 -->
<g id="edge8" class="edge"><title>Node2&#45;&gt;Node5</title>
<path fill="none" stroke="midnightblue" d="M260.086,-51C274.764,-51 290.184,-51 304.896,-51"/>
<polygon fill="midnightblue" stroke="midnightblue" points="260.061,-47.5001 250.061,-51 260.06,-54.5001 260.061,-47.5001"/>
</g>
<!-- Node4 -->
<g id="node7" class="node"><title>Node4</title>
<a xlink:href="_main_8cpp.html#a0ddf1224851353fc92bfbff6f499fa97" target="_top" xlink:title="main">
<polygon fill="white" stroke="black" points="904,-20.5 904,-41.5 942,-41.5 942,-20.5 904,-20.5"/>
<text text-anchor="middle" x="923" y="-28.5" font-family="Helvetica,sans-Serif" font-size="10.00">main</text>
</a>
</g>
<!-- Node3&#45;&gt;Node4 -->
<g id="edge6" class="edge"><title>Node3&#45;&gt;Node4</title>
<path fill="none" stroke="midnightblue" d="M870.15,-38.9474C882.664,-37.0656 894.504,-35.2851 903.793,-33.8883"/>
<polygon fill="midnightblue" stroke="midnightblue" points="869.374,-35.5247 860.005,-40.4729 870.415,-42.4468 869.374,-35.5247"/>
</g>
<!-- Node6 -->
<g id="node11" class="node"><title>Node6</title>
<a xlink:href="class_power_state_graph.html#a0478f171d51d21613746640c7415fb0b" target="_top" xlink:title="PowerStateGraph::initTraceToEnd">
<polygon fill="white" stroke="black" points="510,-40.5 510,-61.5 676,-61.5 676,-40.5 510,-40.5"/>
<text text-anchor="middle" x="593" y="-48.5" font-family="Helvetica,sans-Serif" font-size="10.00">PowerStateGraph::initTraceToEnd</text>
</a>
</g>
<!-- Node5&#45;&gt;Node6 -->
<g id="edge10" class="edge"><title>Node5&#45;&gt;Node6</title>
<path fill="none" stroke="midnightblue" d="M465.187,-51C479.915,-51 495.209,-51 509.881,-51"/>
<polygon fill="midnightblue" stroke="midnightblue" points="465.096,-47.5001 455.096,-51 465.096,-54.5001 465.096,-47.5001"/>
</g>
<!-- Node6&#45;&gt;Node3 -->
<g id="edge12" class="edge"><title>Node6&#45;&gt;Node3</title>
<path fill="none" stroke="midnightblue" d="M686.418,-51C695.105,-51 703.845,-51 712.367,-51"/>
<polygon fill="midnightblue" stroke="midnightblue" points="686.26,-47.5001 676.26,-51 686.26,-54.5001 686.26,-47.5001"/>
</g>
<!-- Node8 -->
<g id="node16" class="node"><title>Node8</title>
<a xlink:href="class_power_state_graph.html#a90ebffe4864640182b342a814af0f0a7" target="_top" xlink:title="Update or initialise Power State Graph.">
<polygon fill="white" stroke="black" points="528.5,-0.5 528.5,-21.5 657.5,-21.5 657.5,-0.5 528.5,-0.5"/>
<text text-anchor="middle" x="593" y="-8.5" font-family="Helvetica,sans-Serif" font-size="10.00">PowerStateGraph::update</text>
</a>
</g>
<!-- Node7&#45;&gt;Node8 -->
<g id="edge16" class="edge"><title>Node7&#45;&gt;Node8</title>
<path fill="none" stroke="midnightblue" d="M484.134,-11C499.19,-11 514.309,-11 528.287,-11"/>
<polygon fill="midnightblue" stroke="midnightblue" points="483.735,-7.5001 473.735,-11 483.735,-14.5001 483.735,-7.5001"/>
</g>
<!-- Node9 -->
<g id="node18" class="node"><title>Node9</title>
<a xlink:href="class_device.html#ad3d9721aca89723e22cf723149a39583" target="_top" xlink:title="Trains the powerStateGraph using signatures declared with loadSignatures(). To be called once signatu...">
<polygon fill="white" stroke="black" points="715.5,-0.5 715.5,-21.5 864.5,-21.5 864.5,-0.5 715.5,-0.5"/>
<text text-anchor="middle" x="790" y="-8.5" font-family="Helvetica,sans-Serif" font-size="10.00">Device::trainPowerStateGraph</text>
</a>
</g>
<!-- Node8&#45;&gt;Node9 -->
<g id="edge18" class="edge"><title>Node8&#45;&gt;Node9</title>
<path fill="none" stroke="midnightblue" d="M667.645,-11C683.29,-11 699.789,-11 715.431,-11"/>
<polygon fill="midnightblue" stroke="midnightblue" points="667.505,-7.5001 657.505,-11 667.505,-14.5001 667.505,-7.5001"/>
</g>
<!-- Node9&#45;&gt;Node4 -->
<g id="edge20" class="edge"><title>Node9&#45;&gt;Node4</title>
<path fill="none" stroke="midnightblue" d="M870.15,-23.0526C882.664,-24.9344 894.504,-26.7149 903.793,-28.1117"/>
<polygon fill="midnightblue" stroke="midnightblue" points="870.415,-19.5532 860.005,-21.5271 869.374,-26.4753 870.415,-19.5532"/>
</g>
</g>
</svg>
