<?xml version="1.0" encoding="UTF-8" standalone="no"?>
<!DOCTYPE svg PUBLIC "-//W3C//DTD SVG 1.1//EN"
 "http://www.w3.org/Graphics/SVG/1.1/DTD/svg11.dtd">
<!-- Generated by graphviz version 2.26.3 (20100126.1600)
 -->
<!-- Title: G Pages: 1 -->
<svg width="754pt" height="110pt"
 viewBox="0.00 0.00 754.00 110.00" xmlns="http://www.w3.org/2000/svg" xmlns:xlink="http://www.w3.org/1999/xlink">
<g id="graph1" class="graph" transform="scale(1 1) rotate(0) translate(4 106)">
<title>G</title>
<polygon fill="white" stroke="white" points="-4,5 -4,-106 751,-106 751,5 -4,5"/>
<!-- Node1 -->
<g id="node1" class="node"><title>Node1</title>
<polygon fill="#bfbfbf" stroke="black" points="0,-40.5 0,-61.5 124,-61.5 124,-40.5 0,-40.5"/>
<text text-anchor="middle" x="62" y="-48.5" font-family="Helvetica,sans-Serif" font-size="10.00">Utils::roundToNearestInt</text>
</g>
<!-- Node2 -->
<g id="node3" class="node"><title>Node2</title>
<a xlink:href="class_signature.html#ad298320a4b490ba402d3f5489ce3651a" target="_top" xlink:title="Signature::getPowerState">
<polygon fill="white" stroke="black" points="173,-80.5 173,-101.5 301,-101.5 301,-80.5 173,-80.5"/>
<text text-anchor="middle" x="237" y="-88.5" font-family="Helvetica,sans-Serif" font-size="10.00">Signature::getPowerState</text>
</a>
</g>
<!-- Node1&#45;&gt;Node2 -->
<g id="edge2" class="edge"><title>Node1&#45;&gt;Node2</title>
<path fill="none" stroke="midnightblue" d="M117.853,-63.7663C141.454,-69.161 168.607,-75.3672 191.024,-80.4913"/>
<polygon fill="midnightblue" stroke="midnightblue" points="118.508,-60.3258 107.979,-61.5095 116.948,-67.1499 118.508,-60.3258"/>
</g>
<!-- Node5 -->
<g id="node9" class="node"><title>Node5</title>
<a xlink:href="class_histogram.html#a329173c485e08f1da1383e4df38f99ac" target="_top" xlink:title="Create a (relative) histogram from a sample array.">
<polygon fill="white" stroke="black" points="180.5,-40.5 180.5,-61.5 293.5,-61.5 293.5,-40.5 180.5,-40.5"/>
<text text-anchor="middle" x="237" y="-48.5" font-family="Helvetica,sans-Serif" font-size="10.00">Histogram::Histogram</text>
</a>
</g>
<!-- Node1&#45;&gt;Node5 -->
<g id="edge8" class="edge"><title>Node1&#45;&gt;Node5</title>
<path fill="none" stroke="midnightblue" d="M134.616,-51C149.852,-51 165.707,-51 180.262,-51"/>
<polygon fill="midnightblue" stroke="midnightblue" points="134.191,-47.5001 124.191,-51 134.191,-54.5001 134.191,-47.5001"/>
</g>
<!-- Node6 -->
<g id="node11" class="node"><title>Node6</title>
<a xlink:href="struct_statistic.html#af65b6ce15fbfb16859606e61cf29ba4c" target="_top" xlink:title="Constructor from histogram data.">
<polygon fill="white" stroke="black" points="160,-0.5 160,-21.5 314,-21.5 314,-0.5 160,-0.5"/>
<text text-anchor="middle" x="237" y="-8.5" font-family="Helvetica,sans-Serif" font-size="10.00">Statistic&lt; Sample_t &gt;::Statistic</text>
</a>
</g>
<!-- Node1&#45;&gt;Node6 -->
<g id="edge10" class="edge"><title>Node1&#45;&gt;Node6</title>
<path fill="none" stroke="midnightblue" d="M117.853,-38.2337C141.454,-32.839 168.607,-26.6328 191.024,-21.5087"/>
<polygon fill="midnightblue" stroke="midnightblue" points="116.948,-34.8501 107.979,-40.4905 118.508,-41.6742 116.948,-34.8501"/>
</g>
<!-- Node3 -->
<g id="node5" class="node"><title>Node3</title>
<a xlink:href="class_signature.html#af94cd3aa816030f1560410e4ad6f2dcc" target="_top" xlink:title="Finding out where each &#39;powerState&#39; starts and ends.">
<polygon fill="white" stroke="black" points="350,-80.5 350,-101.5 538,-101.5 538,-80.5 350,-80.5"/>
<text text-anchor="middle" x="444" y="-88.5" font-family="Helvetica,sans-Serif" font-size="10.00">Signature::updatePowerStateSequence</text>
</a>
</g>
<!-- Node2&#45;&gt;Node3 -->
<g id="edge4" class="edge"><title>Node2&#45;&gt;Node3</title>
<path fill="none" stroke="midnightblue" d="M311.388,-91C323.854,-91 336.934,-91 349.819,-91"/>
<polygon fill="midnightblue" stroke="midnightblue" points="311.079,-87.5001 301.078,-91 311.078,-94.5001 311.079,-87.5001"/>
</g>
<!-- Node4 -->
<g id="node7" class="node"><title>Node4</title>
<a xlink:href="class_signature.html#abf3dc6265e852ecb66a928c682e3eb5f" target="_top" xlink:title="Signature::getPowerStateSequence">
<polygon fill="white" stroke="black" points="574,-80.5 574,-101.5 746,-101.5 746,-80.5 574,-80.5"/>
<text text-anchor="middle" x="660" y="-88.5" font-family="Helvetica,sans-Serif" font-size="10.00">Signature::getPowerStateSequence</text>
</a>
</g>
<!-- Node3&#45;&gt;Node4 -->
<g id="edge6" class="edge"><title>Node3&#45;&gt;Node4</title>
<path fill="none" stroke="midnightblue" d="M548.129,-91C556.685,-91 565.274,-91 573.68,-91"/>
<polygon fill="midnightblue" stroke="midnightblue" points="548.112,-87.5001 538.112,-91 548.112,-94.5001 548.112,-87.5001"/>
</g>
</g>
</svg>
