<?xml version="1.0" encoding="UTF-8" standalone="no"?>
<!DOCTYPE svg PUBLIC "-//W3C//DTD SVG 1.1//EN"
 "http://www.w3.org/Graphics/SVG/1.1/DTD/svg11.dtd">
<!-- Generated by graphviz version 2.26.3 (20100126.1600)
 -->
<!-- Title: G Pages: 1 -->
<svg width="956pt" height="149pt"
 viewBox="0.00 0.00 956.00 149.00" xmlns="http://www.w3.org/2000/svg" xmlns:xlink="http://www.w3.org/1999/xlink">
<g id="graph1" class="graph" transform="scale(1 1) rotate(0) translate(4 145)">
<title>G</title>
<polygon fill="white" stroke="white" points="-4,5 -4,-145 953,-145 953,5 -4,5"/>
<!-- Node1 -->
<g id="node1" class="node"><title>Node1</title>
<polygon fill="#bfbfbf" stroke="black" points="0,-39.5 0,-60.5 68,-60.5 68,-39.5 0,-39.5"/>
<text text-anchor="middle" x="34" y="-47.5" font-family="Helvetica,sans-Serif" font-size="10.00">Utils::within</text>
</g>
<!-- Node2 -->
<g id="node3" class="node"><title>Node2</title>
<a xlink:href="class_power_state_graph.html#a7420e492ce4608c1a4dbba027af116c0" target="_top" xlink:title="Find the vertex statistically most similarto stat.">
<polygon fill="white" stroke="black" points="108,-79.5 108,-100.5 288,-100.5 288,-79.5 108,-79.5"/>
<text text-anchor="middle" x="198" y="-87.5" font-family="Helvetica,sans-Serif" font-size="10.00">PowerStateGraph::mostSimilarVertex</text>
</a>
</g>
<!-- Node1&#45;&gt;Node2 -->
<g id="edge2" class="edge"><title>Node1&#45;&gt;Node2</title>
<path fill="none" stroke="midnightblue" d="M78.2166,-60.7845C102.021,-66.5905 131.262,-73.7225 154.894,-79.4864"/>
<polygon fill="midnightblue" stroke="midnightblue" points="78.9244,-57.3546 68.3798,-58.3853 77.2656,-64.1553 78.9244,-57.3546"/>
</g>
<!-- Node8 -->
<g id="node15" class="node"><title>Node8</title>
<a xlink:href="class_power_state_graph.html#a84bbbefd53f67b2945ac17eb11e28fdf" target="_top" xlink:title="Decides whether or not to reject this spike based on the before and after statistics.">
<polygon fill="white" stroke="black" points="350.5,-39.5 350.5,-60.5 499.5,-60.5 499.5,-39.5 350.5,-39.5"/>
<text text-anchor="middle" x="425" y="-47.5" font-family="Helvetica,sans-Serif" font-size="10.00">PowerStateGraph::rejectSpike</text>
</a>
</g>
<!-- Node1&#45;&gt;Node8 -->
<g id="edge14" class="edge"><title>Node1&#45;&gt;Node8</title>
<path fill="none" stroke="midnightblue" d="M78.0963,-50C144.195,-50 269.784,-50 350.339,-50"/>
<polygon fill="midnightblue" stroke="midnightblue" points="78.0147,-46.5001 68.0147,-50 78.0147,-53.5001 78.0147,-46.5001"/>
</g>
<!-- Node9 -->
<g id="node18" class="node"><title>Node9</title>
<a xlink:href="class_power_state_graph.html#a0e3e05ae1b952132621425c042d84ec1" target="_top" xlink:title="Update or Insert a new edge into powerStateGraph.">
<polygon fill="white" stroke="black" points="104.5,-0.5 104.5,-21.5 291.5,-21.5 291.5,-0.5 104.5,-0.5"/>
<text text-anchor="middle" x="198" y="-8.5" font-family="Helvetica,sans-Serif" font-size="10.00">PowerStateGraph::updateOrInsertEdge</text>
</a>
</g>
<!-- Node1&#45;&gt;Node9 -->
<g id="edge18" class="edge"><title>Node1&#45;&gt;Node9</title>
<path fill="none" stroke="midnightblue" d="M78.3785,-39.4466C101.747,-33.8894 130.32,-27.0946 153.68,-21.5395"/>
<polygon fill="midnightblue" stroke="midnightblue" points="77.2987,-36.1057 68.3798,-41.8243 78.9182,-42.9158 77.2987,-36.1057"/>
</g>
<!-- Node3 -->
<g id="node5" class="node"><title>Node3</title>
<a xlink:href="class_power_state_graph.html#a26384a0a6d9867d336814b70b7a22cd3" target="_top" xlink:title="Update (or create) directional edges between power states (vertices) so the edges are consistent with...">
<polygon fill="white" stroke="black" points="346.5,-119.5 346.5,-140.5 503.5,-140.5 503.5,-119.5 346.5,-119.5"/>
<text text-anchor="middle" x="425" y="-127.5" font-family="Helvetica,sans-Serif" font-size="10.00">PowerStateGraph::updateEdges</text>
</a>
</g>
<!-- Node2&#45;&gt;Node3 -->
<g id="edge4" class="edge"><title>Node2&#45;&gt;Node3</title>
<path fill="none" stroke="midnightblue" d="M267.593,-102.263C298.857,-107.772 335.375,-114.207 365.363,-119.491"/>
<polygon fill="midnightblue" stroke="midnightblue" points="268.097,-98.7981 257.642,-100.51 266.882,-105.692 268.097,-98.7981"/>
</g>
<!-- Node4 -->
<g id="node7" class="node"><title>Node4</title>
<a xlink:href="class_power_state_graph.html#ac36cccb3fb0281f9b68e39ba28737770" target="_top" xlink:title="Attempts to find an existing vertex which is statistically similar to stat. If an existing similar ve...">
<polygon fill="white" stroke="black" points="328.5,-79.5 328.5,-100.5 521.5,-100.5 521.5,-79.5 328.5,-79.5"/>
<text text-anchor="middle" x="425" y="-87.5" font-family="Helvetica,sans-Serif" font-size="10.00">PowerStateGraph::updateOrInsertVertex</text>
</a>
</g>
<!-- Node2&#45;&gt;Node4 -->
<g id="edge6" class="edge"><title>Node2&#45;&gt;Node4</title>
<path fill="none" stroke="midnightblue" d="M298.048,-90C308.113,-90 318.321,-90 328.349,-90"/>
<polygon fill="midnightblue" stroke="midnightblue" points="298.042,-86.5001 288.042,-90 298.042,-93.5001 298.042,-86.5001"/>
</g>
<!-- Node5 -->
<g id="node9" class="node"><title>Node5</title>
<a xlink:href="class_power_state_graph.html#a90ebffe4864640182b342a814af0f0a7" target="_top" xlink:title="Update or initialise Power State Graph.">
<polygon fill="white" stroke="black" points="558.5,-39.5 558.5,-60.5 687.5,-60.5 687.5,-39.5 558.5,-39.5"/>
<text text-anchor="middle" x="623" y="-47.5" font-family="Helvetica,sans-Serif" font-size="10.00">PowerStateGraph::update</text>
</a>
</g>
<!-- Node4&#45;&gt;Node5 -->
<g id="edge8" class="edge"><title>Node4&#45;&gt;Node5</title>
<path fill="none" stroke="midnightblue" d="M487.123,-77.45C514.073,-72.0054 545.278,-65.7014 570.982,-60.5087"/>
<polygon fill="midnightblue" stroke="midnightblue" points="486.131,-74.0795 477.022,-79.4905 487.517,-80.9409 486.131,-74.0795"/>
</g>
<!-- Node6 -->
<g id="node11" class="node"><title>Node6</title>
<a xlink:href="class_device.html#ad3d9721aca89723e22cf723149a39583" target="_top" xlink:title="Trains the powerStateGraph using signatures declared with loadSignatures(). To be called once signatu...">
<polygon fill="white" stroke="black" points="724.5,-39.5 724.5,-60.5 873.5,-60.5 873.5,-39.5 724.5,-39.5"/>
<text text-anchor="middle" x="799" y="-47.5" font-family="Helvetica,sans-Serif" font-size="10.00">Device::trainPowerStateGraph</text>
</a>
</g>
<!-- Node5&#45;&gt;Node6 -->
<g id="edge10" class="edge"><title>Node5&#45;&gt;Node6</title>
<path fill="none" stroke="midnightblue" d="M697.762,-50C706.562,-50 715.542,-50 724.34,-50"/>
<polygon fill="midnightblue" stroke="midnightblue" points="697.537,-46.5001 687.537,-50 697.536,-53.5001 697.537,-46.5001"/>
</g>
<!-- Node7 -->
<g id="node13" class="node"><title>Node7</title>
<a xlink:href="_main_8cpp.html#a0ddf1224851353fc92bfbff6f499fa97" target="_top" xlink:title="main">
<polygon fill="white" stroke="black" points="910,-39.5 910,-60.5 948,-60.5 948,-39.5 910,-39.5"/>
<text text-anchor="middle" x="929" y="-47.5" font-family="Helvetica,sans-Serif" font-size="10.00">main</text>
</a>
</g>
<!-- Node6&#45;&gt;Node7 -->
<g id="edge12" class="edge"><title>Node6&#45;&gt;Node7</title>
<path fill="none" stroke="midnightblue" d="M884.018,-50C893.574,-50 902.49,-50 909.822,-50"/>
<polygon fill="midnightblue" stroke="midnightblue" points="883.868,-46.5001 873.868,-50 883.868,-53.5001 883.868,-46.5001"/>
</g>
<!-- Node8&#45;&gt;Node5 -->
<g id="edge16" class="edge"><title>Node8&#45;&gt;Node5</title>
<path fill="none" stroke="midnightblue" d="M509.622,-50C525.898,-50 542.703,-50 558.227,-50"/>
<polygon fill="midnightblue" stroke="midnightblue" points="509.573,-46.5001 499.573,-50 509.573,-53.5001 509.573,-46.5001"/>
</g>
<!-- Node9&#45;&gt;Node5 -->
<g id="edge20" class="edge"><title>Node9&#45;&gt;Node5</title>
<path fill="none" stroke="midnightblue" d="M301.6,-13.4646C365.364,-15.8756 448.652,-20.632 522,-30 539.997,-32.2986 559.6,-35.9185 576.707,-39.4506"/>
<polygon fill="midnightblue" stroke="midnightblue" points="301.66,-9.96455 291.539,-13.0974 301.405,-16.9599 301.66,-9.96455"/>
</g>
</g>
</svg>
