<?xml version="1.0" encoding="UTF-8" standalone="no"?>
<!DOCTYPE svg PUBLIC "-//W3C//DTD SVG 1.1//EN"
 "http://www.w3.org/Graphics/SVG/1.1/DTD/svg11.dtd">
<!-- Generated by graphviz version 2.26.3 (20100126.1600)
 -->
<!-- Title: G Pages: 1 -->
<svg width="1004pt" height="267pt"
 viewBox="0.00 0.00 1004.00 267.00" xmlns="http://www.w3.org/2000/svg" xmlns:xlink="http://www.w3.org/1999/xlink">
<g id="graph1" class="graph" transform="scale(1 1) rotate(0) translate(4 263)">
<title>G</title>
<polygon fill="white" stroke="white" points="-4,5 -4,-263 1001,-263 1001,5 -4,5"/>
<!-- Node1 -->
<g id="node1" class="node"><title>Node1</title>
<polygon fill="#bfbfbf" stroke="black" points="0.5,-197.5 0.5,-218.5 83.5,-218.5 83.5,-197.5 0.5,-197.5"/>
<text text-anchor="middle" x="42" y="-205.5" font-family="Helvetica,sans-Serif" font-size="10.00">Utils::fileExists</text>
</g>
<!-- Node2 -->
<g id="node3" class="node"><title>Node2</title>
<a xlink:href="class_aggregate_data.html#a6081d80a8dacb3fe085b5dc9d99f8086" target="_top" xlink:title="AggregateData::loadCurrentCostData">
<polygon fill="white" stroke="black" points="120,-237.5 120,-258.5 300,-258.5 300,-237.5 120,-237.5"/>
<text text-anchor="middle" x="210" y="-245.5" font-family="Helvetica,sans-Serif" font-size="10.00">AggregateData::loadCurrentCostData</text>
</a>
</g>
<!-- Node1&#45;&gt;Node2 -->
<g id="edge2" class="edge"><title>Node1&#45;&gt;Node2</title>
<path fill="none" stroke="midnightblue" d="M91.9448,-221.062C101.256,-223.424 110.914,-225.826 120,-228 133.387,-231.203 147.937,-234.511 161.357,-237.492"/>
<polygon fill="midnightblue" stroke="midnightblue" points="92.5751,-217.61 82.0199,-218.526 90.8423,-224.393 92.5751,-217.61"/>
</g>
<!-- Node4 -->
<g id="node7" class="node"><title>Node4</title>
<a xlink:href="class_device.html#a82d7e65439c0191ab9e767612b2ed843" target="_top" xlink:title="Load signature data files.">
<polygon fill="white" stroke="black" points="151,-197.5 151,-218.5 269,-218.5 269,-197.5 151,-197.5"/>
<text text-anchor="middle" x="210" y="-205.5" font-family="Helvetica,sans-Serif" font-size="10.00">Device::loadSignatures</text>
</a>
</g>
<!-- Node1&#45;&gt;Node4 -->
<g id="edge6" class="edge"><title>Node1&#45;&gt;Node4</title>
<path fill="none" stroke="midnightblue" d="M93.6023,-208C111.715,-208 132.201,-208 150.882,-208"/>
<polygon fill="midnightblue" stroke="midnightblue" points="93.5281,-204.5 83.5281,-208 93.5281,-211.5 93.5281,-204.5"/>
</g>
<!-- Node5 -->
<g id="node10" class="node"><title>Node5</title>
<a xlink:href="namespace_g_n_uplot.html#ab276a6d946560395f9d6caa8cb6cb640" target="_top" xlink:title="Plot a graph using GNUplot.">
<polygon fill="white" stroke="black" points="171.5,-100.5 171.5,-121.5 248.5,-121.5 248.5,-100.5 171.5,-100.5"/>
<text text-anchor="middle" x="210" y="-108.5" font-family="Helvetica,sans-Serif" font-size="10.00">GNUplot::plot</text>
</a>
</g>
<!-- Node1&#45;&gt;Node5 -->
<g id="edge10" class="edge"><title>Node1&#45;&gt;Node5</title>
<path fill="none" stroke="midnightblue" d="M69.3507,-192.208C103.843,-172.293 162.199,-138.599 191.724,-121.552"/>
<polygon fill="midnightblue" stroke="midnightblue" points="67.2088,-189.403 60.2988,-197.435 70.709,-195.465 67.2088,-189.403"/>
</g>
<!-- Node3 -->
<g id="node5" class="node"><title>Node3</title>
<a xlink:href="_main_8cpp.html#a0ddf1224851353fc92bfbff6f499fa97" target="_top" xlink:title="main">
<polygon fill="white" stroke="black" points="891,-199.5 891,-220.5 929,-220.5 929,-199.5 891,-199.5"/>
<text text-anchor="middle" x="910" y="-207.5" font-family="Helvetica,sans-Serif" font-size="10.00">main</text>
</a>
</g>
<!-- Node2&#45;&gt;Node3 -->
<g id="edge4" class="edge"><title>Node2&#45;&gt;Node3</title>
<path fill="none" stroke="midnightblue" d="M310.435,-245.572C425.818,-242.339 620.77,-235.514 788,-223 824.322,-220.282 866.554,-215.395 890.595,-212.449"/>
<polygon fill="midnightblue" stroke="midnightblue" points="310.108,-242.08 300.209,-245.855 310.302,-249.077 310.108,-242.08"/>
</g>
<!-- Node4&#45;&gt;Node3 -->
<g id="edge8" class="edge"><title>Node4&#45;&gt;Node3</title>
<path fill="none" stroke="midnightblue" d="M279.433,-208.198C434.642,-208.642 802.969,-209.694 890.907,-209.945"/>
<polygon fill="midnightblue" stroke="midnightblue" points="279.088,-204.697 269.078,-208.169 279.068,-211.697 279.088,-204.697"/>
</g>
<!-- Node6 -->
<g id="node12" class="node"><title>Node6</title>
<a xlink:href="class_power_state_graph.html#a8c7b40b543c04d5f5b498a537093ae46" target="_top" xlink:title="PowerStateGraph::displayAndPlotFingerprintList">
<polygon fill="white" stroke="black" points="336.5,-160.5 336.5,-181.5 563.5,-181.5 563.5,-160.5 336.5,-160.5"/>
<text text-anchor="middle" x="450" y="-168.5" font-family="Helvetica,sans-Serif" font-size="10.00">PowerStateGraph::displayAndPlotFingerprintList</text>
</a>
</g>
<!-- Node5&#45;&gt;Node6 -->
<g id="edge12" class="edge"><title>Node5&#45;&gt;Node6</title>
<path fill="none" stroke="midnightblue" d="M248.938,-124.847C273.644,-133.261 306.418,-143.744 336,-151 350.539,-154.566 366.271,-157.751 381.269,-160.473"/>
<polygon fill="midnightblue" stroke="midnightblue" points="249.81,-121.446 239.216,-121.501 247.532,-128.065 249.81,-121.446"/>
</g>
<!-- Node8 -->
<g id="node17" class="node"><title>Node8</title>
<a xlink:href="class_histogram.html#ad4a2b931c86c4a7f2ce465d0c737050f" target="_top" xlink:title="Histogram::drawGraph">
<polygon fill="white" stroke="black" points="392.5,-120.5 392.5,-141.5 507.5,-141.5 507.5,-120.5 392.5,-120.5"/>
<text text-anchor="middle" x="450" y="-128.5" font-family="Helvetica,sans-Serif" font-size="10.00">Histogram::drawGraph</text>
</a>
</g>
<!-- Node5&#45;&gt;Node8 -->
<g id="edge18" class="edge"><title>Node5&#45;&gt;Node8</title>
<path fill="none" stroke="midnightblue" d="M258.529,-115.044C297.18,-118.265 351.395,-122.783 392.273,-126.189"/>
<polygon fill="midnightblue" stroke="midnightblue" points="258.816,-111.556 248.56,-114.213 258.235,-118.532 258.816,-111.556"/>
</g>
<!-- Node11 -->
<g id="node23" class="node"><title>Node11</title>
<a xlink:href="class_array.html#acc8d9358f9cc9fa7d10d5010099cbc10" target="_top" xlink:title="Array\&lt; Sample_t \&gt;::drawGraph">
<polygon fill="white" stroke="black" points="374,-80.5 374,-101.5 526,-101.5 526,-80.5 374,-80.5"/>
<text text-anchor="middle" x="450" y="-88.5" font-family="Helvetica,sans-Serif" font-size="10.00">Array&lt; Sample_t &gt;::drawGraph</text>
</a>
</g>
<!-- Node5&#45;&gt;Node11 -->
<g id="edge24" class="edge"><title>Node5&#45;&gt;Node11</title>
<path fill="none" stroke="midnightblue" d="M258.861,-106.928C291.873,-104.177 336.126,-100.489 373.738,-97.3552"/>
<polygon fill="midnightblue" stroke="midnightblue" points="258.235,-103.468 248.56,-107.787 258.816,-110.444 258.235,-103.468"/>
</g>
<!-- Node12 -->
<g id="node25" class="node"><title>Node12</title>
<a xlink:href="class_signature.html#a80ab9f3c989f356fd8fd61282de3a994" target="_top" xlink:title="Signature::drawHistWithStateBars">
<polygon fill="white" stroke="black" points="366.5,-40.5 366.5,-61.5 533.5,-61.5 533.5,-40.5 366.5,-40.5"/>
<text text-anchor="middle" x="450" y="-48.5" font-family="Helvetica,sans-Serif" font-size="10.00">Signature::drawHistWithStateBars</text>
</a>
</g>
<!-- Node5&#45;&gt;Node12 -->
<g id="edge26" class="edge"><title>Node5&#45;&gt;Node12</title>
<path fill="none" stroke="midnightblue" d="M248.938,-97.153C273.644,-88.739 306.418,-78.256 336,-71 350.539,-67.4338 366.271,-64.2495 381.269,-61.5267"/>
<polygon fill="midnightblue" stroke="midnightblue" points="247.532,-93.9354 239.216,-100.499 249.81,-100.554 247.532,-93.9354"/>
</g>
<!-- Node13 -->
<g id="node28" class="node"><title>Node13</title>
<a xlink:href="class_power_state_sequence.html#a52cd95f5d505d6e199eb96fb488b4658" target="_top" xlink:title="PowerStateSequence::plotGraph">
<polygon fill="white" stroke="black" points="370.5,-0.5 370.5,-21.5 529.5,-21.5 529.5,-0.5 370.5,-0.5"/>
<text text-anchor="middle" x="450" y="-8.5" font-family="Helvetica,sans-Serif" font-size="10.00">PowerStateSequence::plotGraph</text>
</a>
</g>
<!-- Node5&#45;&gt;Node13 -->
<g id="edge30" class="edge"><title>Node5&#45;&gt;Node13</title>
<path fill="none" stroke="midnightblue" d="M231.047,-93.9369C254.99,-75.4453 295.976,-46.5096 336,-31 346.867,-26.789 358.662,-23.4594 370.406,-20.8282"/>
<polygon fill="midnightblue" stroke="midnightblue" points="228.733,-91.3038 223.03,-100.233 233.057,-96.809 228.733,-91.3038"/>
</g>
<!-- Node7 -->
<g id="node14" class="node"><title>Node7</title>
<a xlink:href="class_power_state_graph.html#a3823f720987e5e13eb7f1cfae7cdf4be" target="_top" xlink:title="This is the main public interface to the disaggregation algorithm.">
<polygon fill="white" stroke="black" points="616.5,-160.5 616.5,-181.5 771.5,-181.5 771.5,-160.5 616.5,-160.5"/>
<text text-anchor="middle" x="694" y="-168.5" font-family="Helvetica,sans-Serif" font-size="10.00">PowerStateGraph::disaggregate</text>
</a>
</g>
<!-- Node6&#45;&gt;Node7 -->
<g id="edge14" class="edge"><title>Node6&#45;&gt;Node7</title>
<path fill="none" stroke="midnightblue" d="M573.793,-171C588.256,-171 602.686,-171 616.268,-171"/>
<polygon fill="midnightblue" stroke="midnightblue" points="573.785,-167.5 563.785,-171 573.785,-174.5 573.785,-167.5"/>
</g>
<!-- Node7&#45;&gt;Node3 -->
<g id="edge16" class="edge"><title>Node7&#45;&gt;Node3</title>
<path fill="none" stroke="midnightblue" d="M762.136,-183.302C806.943,-191.392 862.399,-201.405 890.982,-206.566"/>
<polygon fill="midnightblue" stroke="midnightblue" points="762.631,-179.835 752.168,-181.503 761.387,-186.724 762.631,-179.835"/>
</g>
<!-- Node9 -->
<g id="node19" class="node"><title>Node9</title>
<a xlink:href="class_signature.html#afebb6e34dcba3d828093eba1ffc7fad6" target="_top" xlink:title="Runs through signature data to find power states and stores the resulting power states in powerStates...">
<polygon fill="white" stroke="black" points="619.5,-80.5 619.5,-101.5 768.5,-101.5 768.5,-80.5 619.5,-80.5"/>
<text text-anchor="middle" x="694" y="-88.5" font-family="Helvetica,sans-Serif" font-size="10.00">Signature::updatePowerStates</text>
</a>
</g>
<!-- Node8&#45;&gt;Node9 -->
<g id="edge20" class="edge"><title>Node8&#45;&gt;Node9</title>
<path fill="none" stroke="midnightblue" d="M517.638,-119.912C552.608,-114.179 595.07,-107.218 629.565,-101.563"/>
<polygon fill="midnightblue" stroke="midnightblue" points="516.818,-116.499 507.516,-121.571 517.95,-123.407 516.818,-116.499"/>
</g>
<!-- Node10 -->
<g id="node21" class="node"><title>Node10</title>
<a xlink:href="class_signature.html#ada861d4b0e402605478abc4217f35979" target="_top" xlink:title="Signature::getPowerStates">
<polygon fill="white" stroke="black" points="843,-80.5 843,-101.5 977,-101.5 977,-80.5 843,-80.5"/>
<text text-anchor="middle" x="910" y="-88.5" font-family="Helvetica,sans-Serif" font-size="10.00">Signature::getPowerStates</text>
</a>
</g>
<!-- Node9&#45;&gt;Node10 -->
<g id="edge22" class="edge"><title>Node9&#45;&gt;Node10</title>
<path fill="none" stroke="midnightblue" d="M778.665,-91C800.001,-91 822.614,-91 842.952,-91"/>
<polygon fill="midnightblue" stroke="midnightblue" points="778.637,-87.5001 768.637,-91 778.637,-94.5001 778.637,-87.5001"/>
</g>
<!-- Node12&#45;&gt;Node9 -->
<g id="edge28" class="edge"><title>Node12&#45;&gt;Node9</title>
<path fill="none" stroke="midnightblue" d="M524.368,-63.1915C558.07,-68.7163 597.524,-75.1842 629.897,-80.4913"/>
<polygon fill="midnightblue" stroke="midnightblue" points="524.543,-59.6735 514.108,-61.5095 523.41,-66.5813 524.543,-59.6735"/>
</g>
<!-- Node14 -->
<g id="node30" class="node"><title>Node14</title>
<a xlink:href="class_signature.html#af94cd3aa816030f1560410e4ad6f2dcc" target="_top" xlink:title="Finding out where each &#39;powerState&#39; starts and ends.">
<polygon fill="white" stroke="black" points="600,-0.5 600,-21.5 788,-21.5 788,-0.5 600,-0.5"/>
<text text-anchor="middle" x="694" y="-8.5" font-family="Helvetica,sans-Serif" font-size="10.00">Signature::updatePowerStateSequence</text>
</a>
</g>
<!-- Node13&#45;&gt;Node14 -->
<g id="edge32" class="edge"><title>Node13&#45;&gt;Node14</title>
<path fill="none" stroke="midnightblue" d="M539.66,-11C559.21,-11 579.955,-11 599.68,-11"/>
<polygon fill="midnightblue" stroke="midnightblue" points="539.557,-7.5001 529.557,-11 539.557,-14.5001 539.557,-7.5001"/>
</g>
<!-- Node15 -->
<g id="node32" class="node"><title>Node15</title>
<a xlink:href="class_signature.html#abf3dc6265e852ecb66a928c682e3eb5f" target="_top" xlink:title="Signature::getPowerStateSequence">
<polygon fill="white" stroke="black" points="824,-0.5 824,-21.5 996,-21.5 996,-0.5 824,-0.5"/>
<text text-anchor="middle" x="910" y="-8.5" font-family="Helvetica,sans-Serif" font-size="10.00">Signature::getPowerStateSequence</text>
</a>
</g>
<!-- Node14&#45;&gt;Node15 -->
<g id="edge34" class="edge"><title>Node14&#45;&gt;Node15</title>
<path fill="none" stroke="midnightblue" d="M798.129,-11C806.685,-11 815.274,-11 823.68,-11"/>
<polygon fill="midnightblue" stroke="midnightblue" points="798.112,-7.5001 788.112,-11 798.112,-14.5001 798.112,-7.5001"/>
</g>
</g>
</svg>
