<?xml version="1.0" encoding="UTF-8" standalone="no"?>
<!DOCTYPE svg PUBLIC "-//W3C//DTD SVG 1.1//EN"
 "http://www.w3.org/Graphics/SVG/1.1/DTD/svg11.dtd">
<!-- Generated by graphviz version 2.26.3 (20100126.1600)
 -->
<!-- Title: G Pages: 1 -->
<svg width="814pt" height="395pt"
 viewBox="0.00 0.00 814.00 394.99" xmlns="http://www.w3.org/2000/svg" xmlns:xlink="http://www.w3.org/1999/xlink">
<g id="graph1" class="graph" transform="scale(1 1) rotate(0) translate(4 390.987)">
<title>G</title>
<polygon fill="white" stroke="white" points="-4,5 -4,-390.987 811,-390.987 811,5 -4,5"/>
<!-- Node1 -->
<g id="node1" class="node"><title>Node1</title>
<polygon fill="#bfbfbf" stroke="black" points="0.5,-214.5 0.5,-235.5 83.5,-235.5 83.5,-214.5 0.5,-214.5"/>
<text text-anchor="middle" x="42" y="-222.5" font-family="Helvetica,sans-Serif" font-size="10.00">Utils::fatalError</text>
</g>
<!-- Node2 -->
<g id="node3" class="node"><title>Node2</title>
<a xlink:href="class_power_state_graph.html#a3823f720987e5e13eb7f1cfae7cdf4be" target="_top" xlink:title="This is the main public interface to the disaggregation algorithm.">
<polygon fill="white" stroke="black" points="576.5,-115.5 576.5,-136.5 731.5,-136.5 731.5,-115.5 576.5,-115.5"/>
<text text-anchor="middle" x="654" y="-123.5" font-family="Helvetica,sans-Serif" font-size="10.00">PowerStateGraph::disaggregate</text>
</a>
</g>
<!-- Node1&#45;&gt;Node2 -->
<g id="edge2" class="edge"><title>Node1&#45;&gt;Node2</title>
<path fill="none" stroke="midnightblue" d="M67.6252,-209.194C114.176,-181.56 216.649,-125.629 312,-107 413.99,-87.0741 536.1,-103.205 603.338,-115.452"/>
<polygon fill="midnightblue" stroke="midnightblue" points="65.5919,-206.333 58.8209,-214.482 69.1957,-212.334 65.5919,-206.333"/>
</g>
<!-- Node3 -->
<g id="node5" class="node"><title>Node3</title>
<a xlink:href="_main_8cpp.html#a0ddf1224851353fc92bfbff6f499fa97" target="_top" xlink:title="main">
<polygon fill="white" stroke="black" points="768,-155.5 768,-176.5 806,-176.5 806,-155.5 768,-155.5"/>
<text text-anchor="middle" x="787" y="-163.5" font-family="Helvetica,sans-Serif" font-size="10.00">main</text>
</a>
</g>
<!-- Node1&#45;&gt;Node3 -->
<g id="edge18" class="edge"><title>Node1&#45;&gt;Node3</title>
<path fill="none" stroke="midnightblue" d="M49.9608,-245.363C61.2396,-271.119 84.5298,-314.463 120,-334 283.561,-424.089 356.266,-378.317 540,-345 629.674,-328.739 663.929,-333.598 732,-273 762.421,-245.918 778.41,-198.011 784.302,-176.718"/>
<polygon fill="midnightblue" stroke="midnightblue" points="53.063,-243.708 45.9825,-235.827 46.6026,-246.403 53.063,-243.708"/>
</g>
<!-- Node4 -->
<g id="node7" class="node"><title>Node4</title>
<a xlink:href="class_array.html#a6ef27596ae6f5cd98001ca8ba7b13038" target="_top" xlink:title="Array\&lt; Sample_t \&gt;::dumpToFile">
<polygon fill="white" stroke="black" points="120,-274.5 120,-295.5 276,-295.5 276,-274.5 120,-274.5"/>
<text text-anchor="middle" x="198" y="-282.5" font-family="Helvetica,sans-Serif" font-size="10.00">Array&lt; Sample_t &gt;::dumpToFile</text>
</a>
</g>
<!-- Node1&#45;&gt;Node4 -->
<g id="edge6" class="edge"><title>Node1&#45;&gt;Node4</title>
<path fill="none" stroke="midnightblue" d="M68.8011,-240.627C83.5436,-248.736 102.374,-258.317 120,-265 129.542,-268.618 139.985,-271.799 150.039,-274.498"/>
<polygon fill="midnightblue" stroke="midnightblue" points="70.1914,-237.394 59.7572,-235.556 66.7677,-243.499 70.1914,-237.394"/>
</g>
<!-- Node5 -->
<g id="node9" class="node"><title>Node5</title>
<a xlink:href="class_aggregate_data.html#a330afb37cdef0863a94babd3954b714f" target="_top" xlink:title="a simple way to find the array index at which a timestamp occurs. If precise time cannot be found...">
<polygon fill="white" stroke="black" points="135.5,-234.5 135.5,-255.5 260.5,-255.5 260.5,-234.5 135.5,-234.5"/>
<text text-anchor="middle" x="198" y="-242.5" font-family="Helvetica,sans-Serif" font-size="10.00">AggregateData::findTime</text>
</a>
</g>
<!-- Node1&#45;&gt;Node5 -->
<g id="edge8" class="edge"><title>Node1&#45;&gt;Node5</title>
<path fill="none" stroke="midnightblue" d="M94.1058,-231.68C107.289,-233.37 121.586,-235.203 135.235,-236.953"/>
<polygon fill="midnightblue" stroke="midnightblue" points="94.1691,-228.16 83.8051,-230.36 93.2789,-235.103 94.1691,-228.16"/>
</g>
<!-- Node6 -->
<g id="node11" class="node"><title>Node6</title>
<a xlink:href="class_aggregate_data.html#a6081d80a8dacb3fe085b5dc9d99f8086" target="_top" xlink:title="AggregateData::loadCurrentCostData">
<polygon fill="white" stroke="black" points="336,-314.5 336,-335.5 516,-335.5 516,-314.5 336,-314.5"/>
<text text-anchor="middle" x="426" y="-322.5" font-family="Helvetica,sans-Serif" font-size="10.00">AggregateData::loadCurrentCostData</text>
</a>
</g>
<!-- Node1&#45;&gt;Node6 -->
<g id="edge10" class="edge"><title>Node1&#45;&gt;Node6</title>
<path fill="none" stroke="midnightblue" d="M54.2075,-244.014C67.7175,-263.204 91.4056,-291.828 120,-305 188.301,-336.462 274.389,-339.294 337.841,-335.511"/>
<polygon fill="midnightblue" stroke="midnightblue" points="57.0835,-242.019 48.5754,-235.705 51.2893,-245.947 57.0835,-242.019"/>
</g>
<!-- Node7 -->
<g id="node14" class="node"><title>Node7</title>
<a xlink:href="class_device.html#a82d7e65439c0191ab9e767612b2ed843" target="_top" xlink:title="Load signature data files.">
<polygon fill="white" stroke="black" points="595,-57.5 595,-78.5 713,-78.5 713,-57.5 595,-57.5"/>
<text text-anchor="middle" x="654" y="-65.5" font-family="Helvetica,sans-Serif" font-size="10.00">Device::loadSignatures</text>
</a>
</g>
<!-- Node1&#45;&gt;Node7 -->
<g id="edge14" class="edge"><title>Node1&#45;&gt;Node7</title>
<path fill="none" stroke="midnightblue" d="M49.5625,-204.889C60.6285,-178.56 83.923,-133.266 120,-112 272.66,-22.0129 493.819,-41.5871 596.996,-57.4945"/>
<polygon fill="midnightblue" stroke="midnightblue" points="46.2738,-203.687 45.8009,-214.271 52.771,-206.292 46.2738,-203.687"/>
</g>
<!-- Node8 -->
<g id="node18" class="node"><title>Node8</title>
<a xlink:href="namespace_utils.html#afb991f08a33e9d7f3298e60f3bf76960" target="_top" xlink:title="Utils::openFile">
<polygon fill="white" stroke="black" points="158,-194.5 158,-215.5 238,-215.5 238,-194.5 158,-194.5"/>
<text text-anchor="middle" x="198" y="-202.5" font-family="Helvetica,sans-Serif" font-size="10.00">Utils::openFile</text>
</a>
</g>
<!-- Node1&#45;&gt;Node8 -->
<g id="edge20" class="edge"><title>Node1&#45;&gt;Node8</title>
<path fill="none" stroke="midnightblue" d="M93.8039,-218.358C114.699,-215.68 138.432,-212.637 157.964,-210.133"/>
<polygon fill="midnightblue" stroke="midnightblue" points="93.2788,-214.897 83.8051,-219.64 94.1691,-221.84 93.2788,-214.897"/>
</g>
<!-- Node15 -->
<g id="node35" class="node"><title>Node15</title>
<a xlink:href="class_array.html#a5b752093b1b3ab4d82707115d1f41adc" target="_top" xlink:title="Array\&lt; Sample_t \&gt;::setSize">
<polygon fill="white" stroke="black" points="129,-0.5 129,-21.5 267,-21.5 267,-0.5 129,-0.5"/>
<text text-anchor="middle" x="198" y="-8.5" font-family="Helvetica,sans-Serif" font-size="10.00">Array&lt; Sample_t &gt;::setSize</text>
</a>
</g>
<!-- Node1&#45;&gt;Node15 -->
<g id="edge40" class="edge"><title>Node1&#45;&gt;Node15</title>
<path fill="none" stroke="midnightblue" d="M44.7877,-204.156C51.0618,-165.448 69.8792,-82.2059 120,-36 126.796,-29.7349 135.169,-25.0396 143.881,-21.5208"/>
<polygon fill="midnightblue" stroke="midnightblue" points="41.2975,-203.831 43.2784,-214.239 48.2204,-204.868 41.2975,-203.831"/>
</g>
<!-- Node2&#45;&gt;Node3 -->
<g id="edge4" class="edge"><title>Node2&#45;&gt;Node3</title>
<path fill="none" stroke="midnightblue" d="M708.075,-139.133C716.131,-141.302 724.309,-143.622 732,-146 744.037,-149.722 757.317,-154.531 767.812,-158.5"/>
<polygon fill="midnightblue" stroke="midnightblue" points="708.911,-135.734 698.349,-136.571 707.127,-142.503 708.911,-135.734"/>
</g>
<!-- Node6&#45;&gt;Node3 -->
<g id="edge12" class="edge"><title>Node6&#45;&gt;Node3</title>
<path fill="none" stroke="midnightblue" d="M505.81,-312.562C571.2,-299.388 663.745,-273.663 732,-226 751.927,-212.084 769.905,-189.783 779.558,-176.646"/>
<polygon fill="midnightblue" stroke="midnightblue" points="505.101,-309.134 495.961,-314.493 506.448,-316.003 505.101,-309.134"/>
</g>
<!-- Node7&#45;&gt;Node3 -->
<g id="edge16" class="edge"><title>Node7&#45;&gt;Node3</title>
<path fill="none" stroke="midnightblue" d="M691.274,-82.698C704.745,-88.8816 719.663,-96.7933 732,-106 751.253,-120.367 769.189,-142.112 779.068,-155.1"/>
<polygon fill="midnightblue" stroke="midnightblue" points="692.34,-79.3427 681.778,-78.5071 689.513,-85.7468 692.34,-79.3427"/>
</g>
<!-- Node8&#45;&gt;Node6 -->
<g id="edge28" class="edge"><title>Node8&#45;&gt;Node6</title>
<path fill="none" stroke="midnightblue" d="M247.797,-210.73C257.954,-213.735 267.975,-218.248 276,-225 305.834,-250.102 281.218,-281.07 312,-305 319.139,-310.55 327.29,-314.766 335.878,-317.947"/>
<polygon fill="midnightblue" stroke="midnightblue" points="248.63,-207.33 238.078,-208.286 246.923,-214.119 248.63,-207.33"/>
</g>
<!-- Node9 -->
<g id="node20" class="node"><title>Node9</title>
<a xlink:href="class_power_state_graph.html#a8c7b40b543c04d5f5b498a537093ae46" target="_top" xlink:title="PowerStateGraph::displayAndPlotFingerprintList">
<polygon fill="white" stroke="black" points="312.5,-116.5 312.5,-137.5 539.5,-137.5 539.5,-116.5 312.5,-116.5"/>
<text text-anchor="middle" x="426" y="-124.5" font-family="Helvetica,sans-Serif" font-size="10.00">PowerStateGraph::displayAndPlotFingerprintList</text>
</a>
</g>
<!-- Node8&#45;&gt;Node9 -->
<g id="edge22" class="edge"><title>Node8&#45;&gt;Node9</title>
<path fill="none" stroke="midnightblue" d="M226.274,-189.728C248.918,-178.024 281.782,-162.2 312,-152 329.278,-146.168 348.497,-141.347 366.158,-137.546"/>
<polygon fill="midnightblue" stroke="midnightblue" points="224.468,-186.723 217.233,-194.463 227.716,-192.924 224.468,-186.723"/>
</g>
<!-- Node10 -->
<g id="node23" class="node"><title>Node10</title>
<a xlink:href="class_power_state_sequence.html#a41b5f635d81abca292bd6cbcf08c73df" target="_top" xlink:title="Dump the contents of powerStateSequence to a data file ready for gnuplot to plot using the &#39;boxxy...">
<polygon fill="white" stroke="black" points="342,-274.5 342,-295.5 510,-295.5 510,-274.5 342,-274.5"/>
<text text-anchor="middle" x="426" y="-282.5" font-family="Helvetica,sans-Serif" font-size="10.00">PowerStateSequence::dumpToFile</text>
</a>
</g>
<!-- Node8&#45;&gt;Node10 -->
<g id="edge26" class="edge"><title>Node8&#45;&gt;Node10</title>
<path fill="none" stroke="midnightblue" d="M248.229,-213.243C257.865,-216.084 267.569,-219.894 276,-225 296.459,-237.389 291.078,-253.411 312,-265 321.228,-270.111 331.466,-273.968 341.911,-276.868"/>
<polygon fill="midnightblue" stroke="midnightblue" points="248.83,-209.782 238.268,-210.619 247.047,-216.551 248.83,-209.782"/>
</g>
<!-- Node11 -->
<g id="node26" class="node"><title>Node11</title>
<a xlink:href="class_signature.html#a3ddd7b321b4eda212b310c8462febf3f" target="_top" xlink:title="Constructor for opening a CSV file.">
<polygon fill="white" stroke="black" points="373.5,-234.5 373.5,-255.5 478.5,-255.5 478.5,-234.5 373.5,-234.5"/>
<text text-anchor="middle" x="426" y="-242.5" font-family="Helvetica,sans-Serif" font-size="10.00">Signature::Signature</text>
</a>
</g>
<!-- Node8&#45;&gt;Node11 -->
<g id="edge30" class="edge"><title>Node8&#45;&gt;Node11</title>
<path fill="none" stroke="midnightblue" d="M248.321,-213.828C285.392,-220.332 335.69,-229.156 373.31,-235.756"/>
<polygon fill="midnightblue" stroke="midnightblue" points="248.691,-210.34 238.237,-212.059 247.482,-217.235 248.691,-210.34"/>
</g>
<!-- Node12 -->
<g id="node28" class="node"><title>Node12</title>
<a xlink:href="class_device.html#ad3d9721aca89723e22cf723149a39583" target="_top" xlink:title="Trains the powerStateGraph using signatures declared with loadSignatures(). To be called once signatu...">
<polygon fill="white" stroke="black" points="579.5,-155.5 579.5,-176.5 728.5,-176.5 728.5,-155.5 579.5,-155.5"/>
<text text-anchor="middle" x="654" y="-163.5" font-family="Helvetica,sans-Serif" font-size="10.00">Device::trainPowerStateGraph</text>
</a>
</g>
<!-- Node8&#45;&gt;Node12 -->
<g id="edge32" class="edge"><title>Node8&#45;&gt;Node12</title>
<path fill="none" stroke="midnightblue" d="M248.226,-194.869C268.022,-191.222 291.006,-187.416 312,-185 403.716,-174.444 509.97,-169.704 579.398,-167.607"/>
<polygon fill="midnightblue" stroke="midnightblue" points="247.374,-191.468 238.192,-196.753 248.666,-198.347 247.374,-191.468"/>
</g>
<!-- Node13 -->
<g id="node31" class="node"><title>Node13</title>
<a xlink:href="class_signature.html#afebb6e34dcba3d828093eba1ffc7fad6" target="_top" xlink:title="Runs through signature data to find power states and stores the resulting power states in powerStates...">
<polygon fill="white" stroke="black" points="351.5,-194.5 351.5,-215.5 500.5,-215.5 500.5,-194.5 351.5,-194.5"/>
<text text-anchor="middle" x="426" y="-202.5" font-family="Helvetica,sans-Serif" font-size="10.00">Signature::updatePowerStates</text>
</a>
</g>
<!-- Node8&#45;&gt;Node13 -->
<g id="edge36" class="edge"><title>Node8&#45;&gt;Node13</title>
<path fill="none" stroke="midnightblue" d="M248.515,-205C278.661,-205 317.504,-205 351.162,-205"/>
<polygon fill="midnightblue" stroke="midnightblue" points="248.237,-201.5 238.237,-205 248.237,-208.5 248.237,-201.5"/>
</g>
<!-- Node9&#45;&gt;Node2 -->
<g id="edge24" class="edge"><title>Node9&#45;&gt;Node2</title>
<path fill="none" stroke="midnightblue" d="M549.812,-126.457C558.778,-126.418 567.663,-126.379 576.242,-126.341"/>
<polygon fill="midnightblue" stroke="midnightblue" points="549.651,-122.958 539.666,-126.501 549.681,-129.957 549.651,-122.958"/>
</g>
<!-- Node12&#45;&gt;Node3 -->
<g id="edge34" class="edge"><title>Node12&#45;&gt;Node3</title>
<path fill="none" stroke="midnightblue" d="M738.782,-166C749.624,-166 759.763,-166 767.919,-166"/>
<polygon fill="midnightblue" stroke="midnightblue" points="738.664,-162.5 728.664,-166 738.664,-169.5 738.664,-162.5"/>
</g>
<!-- Node14 -->
<g id="node33" class="node"><title>Node14</title>
<a xlink:href="class_signature.html#ada861d4b0e402605478abc4217f35979" target="_top" xlink:title="Signature::getPowerStates">
<polygon fill="white" stroke="black" points="587,-195.5 587,-216.5 721,-216.5 721,-195.5 587,-195.5"/>
<text text-anchor="middle" x="654" y="-203.5" font-family="Helvetica,sans-Serif" font-size="10.00">Signature::getPowerStates</text>
</a>
</g>
<!-- Node13&#45;&gt;Node14 -->
<g id="edge38" class="edge"><title>Node13&#45;&gt;Node14</title>
<path fill="none" stroke="midnightblue" d="M510.895,-205.372C535.978,-205.482 563.076,-205.601 586.874,-205.706"/>
<polygon fill="midnightblue" stroke="midnightblue" points="510.671,-201.871 500.656,-205.327 510.64,-208.871 510.671,-201.871"/>
</g>
</g>
</svg>
