<?xml version="1.0" encoding="UTF-8" standalone="no"?>
<!DOCTYPE svg PUBLIC "-//W3C//DTD SVG 1.1//EN"
 "http://www.w3.org/Graphics/SVG/1.1/DTD/svg11.dtd">
<!-- Generated by graphviz version 2.26.3 (20100126.1600)
 -->
<!-- Title: G Pages: 1 -->
<svg width="458pt" height="200pt"
 viewBox="0.00 0.00 458.00 200.00" xmlns="http://www.w3.org/2000/svg" xmlns:xlink="http://www.w3.org/1999/xlink">
<g id="graph1" class="graph" transform="scale(1 1) rotate(0) translate(4 196)">
<title>G</title>
<polygon fill="white" stroke="white" points="-4,5 -4,-196 455,-196 455,5 -4,5"/>
<!-- Node1 -->
<g id="node1" class="node"><title>Node1</title>
<polygon fill="#bfbfbf" stroke="black" points="137,-1 137,-77 313,-77 313,-1 137,-1"/>
<text text-anchor="middle" x="225" y="-64" font-family="Helvetica,sans-Serif" font-size="10.00">PowerStateGraph::PSG_edge_writer</text>
<polyline fill="none" stroke="black" points="137,-56 313,-56 "/>
<text text-anchor="start" x="145" y="-43" font-family="Helvetica,sans-Serif" font-size="10.00">+ g</text>
<polyline fill="none" stroke="black" points="137,-35 313,-35 "/>
<text text-anchor="start" x="145" y="-22" font-family="Helvetica,sans-Serif" font-size="10.00">+ PSG_edge_writer()</text>
<text text-anchor="start" x="145" y="-9" font-family="Helvetica,sans-Serif" font-size="10.00">+ operator()()</text>
</g>
<!-- Node2 -->
<g id="node2" class="node"><title>Node2</title>
<polygon fill="white" stroke="#bfbfbf" points="0,-128.5 0,-191.5 450,-191.5 450,-128.5 0,-128.5"/>
<text text-anchor="middle" x="225" y="-178.5" font-family="Helvetica,sans-Serif" font-size="10.00">adjacency_list&lt; boost::vecS, boost::vecS, boost::directedS, PowerStateVertex, PowerStateEdge &gt;</text>
<polyline fill="none" stroke="#bfbfbf" points="0,-170.5 450,-170.5 "/>
<text text-anchor="middle" x="225" y="-157.5" font-family="Helvetica,sans-Serif" font-size="10.00"> </text>
<polyline fill="none" stroke="#bfbfbf" points="0,-149.5 450,-149.5 "/>
<text text-anchor="middle" x="225" y="-136.5" font-family="Helvetica,sans-Serif" font-size="10.00"> </text>
</g>
<!-- Node2&#45;&gt;Node1 -->
<g id="edge2" class="edge"><title>Node2&#45;&gt;Node1</title>
<path fill="none" stroke="#9a32cd" stroke-dasharray="5,2" d="M225,-117.892C225,-104.608 225,-90.0181 225,-77.0361"/>
<polygon fill="#9a32cd" stroke="#9a32cd" points="225,-128.209 220.5,-118.209 225,-123.209 225,-118.209 225,-118.209 225,-118.209 225,-123.209 229.5,-118.209 225,-128.209 225,-128.209"/>
<text text-anchor="middle" x="228" y="-100.5" font-family="Helvetica,sans-Serif" font-size="10.00">g</text>
</g>
</g>
</svg>
