<?xml version="1.0" encoding="UTF-8" standalone="no"?>
<!DOCTYPE svg PUBLIC "-//W3C//DTD SVG 1.1//EN"
 "http://www.w3.org/Graphics/SVG/1.1/DTD/svg11.dtd">
<!-- Generated by graphviz version 2.26.3 (20100126.1600)
 -->
<!-- Title: G Pages: 1 -->
<svg width="828pt" height="70pt"
 viewBox="0.00 0.00 828.00 70.00" xmlns="http://www.w3.org/2000/svg" xmlns:xlink="http://www.w3.org/1999/xlink">
<g id="graph1" class="graph" transform="scale(1 1) rotate(0) translate(4 66)">
<title>G</title>
<polygon fill="white" stroke="white" points="-4,5 -4,-66 825,-66 825,5 -4,5"/>
<!-- Node1 -->
<g id="node1" class="node"><title>Node1</title>
<polygon fill="#bfbfbf" stroke="black" points="0.5,-20.5 0.5,-41.5 197.5,-41.5 197.5,-20.5 0.5,-20.5"/>
<text text-anchor="middle" x="99" y="-28.5" font-family="Helvetica,sans-Serif" font-size="10.00">Signature::Spike::compareAbsValueDesc</text>
</g>
<!-- Node2 -->
<g id="node3" class="node"><title>Node2</title>
<a xlink:href="class_signature.html#a02acc8e9f1ceb1af2908807eb1526fcd" target="_top" xlink:title="Takes the gradient of this Signature, then merges gradient values with the same sign, then removes transient spikes, then sorts by value.">
<polygon fill="white" stroke="black" points="234.5,-20.5 234.5,-41.5 365.5,-41.5 365.5,-20.5 234.5,-20.5"/>
<text text-anchor="middle" x="300" y="-28.5" font-family="Helvetica,sans-Serif" font-size="10.00">Signature::getDeltaSpikes</text>
</a>
</g>
<!-- Node1&#45;&gt;Node2 -->
<g id="edge2" class="edge"><title>Node1&#45;&gt;Node2</title>
<path fill="none" stroke="midnightblue" d="M207.906,-31C216.896,-31 225.796,-31 234.314,-31"/>
<polygon fill="midnightblue" stroke="midnightblue" points="207.734,-27.5001 197.733,-31 207.733,-34.5001 207.734,-27.5001"/>
</g>
<!-- Node3 -->
<g id="node5" class="node"><title>Node3</title>
<a xlink:href="class_power_state_graph.html#a90ebffe4864640182b342a814af0f0a7" target="_top" xlink:title="Update or initialise Power State Graph.">
<polygon fill="white" stroke="black" points="416.5,-40.5 416.5,-61.5 545.5,-61.5 545.5,-40.5 416.5,-40.5"/>
<text text-anchor="middle" x="481" y="-48.5" font-family="Helvetica,sans-Serif" font-size="10.00">PowerStateGraph::update</text>
</a>
</g>
<!-- Node2&#45;&gt;Node3 -->
<g id="edge4" class="edge"><title>Node2&#45;&gt;Node3</title>
<path fill="none" stroke="midnightblue" d="M375.778,-39.3732C389.226,-40.8592 403.12,-42.3945 416.228,-43.8429"/>
<polygon fill="midnightblue" stroke="midnightblue" points="375.925,-35.8683 365.601,-38.2487 375.156,-42.8259 375.925,-35.8683"/>
</g>
<!-- Node6 -->
<g id="node11" class="node"><title>Node6</title>
<a xlink:href="class_power_state_graph.html#a26384a0a6d9867d336814b70b7a22cd3" target="_top" xlink:title="Update (or create) directional edges between power states (vertices) so the edges are consistent with...">
<polygon fill="white" stroke="black" points="402.5,-0.5 402.5,-21.5 559.5,-21.5 559.5,-0.5 402.5,-0.5"/>
<text text-anchor="middle" x="481" y="-8.5" font-family="Helvetica,sans-Serif" font-size="10.00">PowerStateGraph::updateEdges</text>
</a>
</g>
<!-- Node2&#45;&gt;Node6 -->
<g id="edge10" class="edge"><title>Node2&#45;&gt;Node6</title>
<path fill="none" stroke="midnightblue" d="M375.802,-22.6241C384.583,-21.6538 393.555,-20.6625 402.373,-19.6881"/>
<polygon fill="midnightblue" stroke="midnightblue" points="375.156,-19.1741 365.601,-23.7513 375.925,-26.1317 375.156,-19.1741"/>
</g>
<!-- Node4 -->
<g id="node7" class="node"><title>Node4</title>
<a xlink:href="class_device.html#ad3d9721aca89723e22cf723149a39583" target="_top" xlink:title="Trains the powerStateGraph using signatures declared with loadSignatures(). To be called once signatu...">
<polygon fill="white" stroke="black" points="596.5,-40.5 596.5,-61.5 745.5,-61.5 745.5,-40.5 596.5,-40.5"/>
<text text-anchor="middle" x="671" y="-48.5" font-family="Helvetica,sans-Serif" font-size="10.00">Device::trainPowerStateGraph</text>
</a>
</g>
<!-- Node3&#45;&gt;Node4 -->
<g id="edge6" class="edge"><title>Node3&#45;&gt;Node4</title>
<path fill="none" stroke="midnightblue" d="M555.703,-51C569.095,-51 583.051,-51 596.44,-51"/>
<polygon fill="midnightblue" stroke="midnightblue" points="555.59,-47.5001 545.59,-51 555.59,-54.5001 555.59,-47.5001"/>
</g>
<!-- Node5 -->
<g id="node9" class="node"><title>Node5</title>
<a xlink:href="_main_8cpp.html#a0ddf1224851353fc92bfbff6f499fa97" target="_top" xlink:title="main">
<polygon fill="white" stroke="black" points="782,-40.5 782,-61.5 820,-61.5 820,-40.5 782,-40.5"/>
<text text-anchor="middle" x="801" y="-48.5" font-family="Helvetica,sans-Serif" font-size="10.00">main</text>
</a>
</g>
<!-- Node4&#45;&gt;Node5 -->
<g id="edge8" class="edge"><title>Node4&#45;&gt;Node5</title>
<path fill="none" stroke="midnightblue" d="M756.018,-51C765.574,-51 774.49,-51 781.822,-51"/>
<polygon fill="midnightblue" stroke="midnightblue" points="755.868,-47.5001 745.868,-51 755.868,-54.5001 755.868,-47.5001"/>
</g>
</g>
</svg>
