<?xml version="1.0" encoding="UTF-8" standalone="no"?>
<!DOCTYPE svg PUBLIC "-//W3C//DTD SVG 1.1//EN"
 "http://www.w3.org/Graphics/SVG/1.1/DTD/svg11.dtd">
<!-- Generated by graphviz version 2.26.3 (20100126.1600)
 -->
<!-- Title: G Pages: 1 -->
<svg width="102pt" height="212pt"
 viewBox="0.00 0.00 102.00 212.00" xmlns="http://www.w3.org/2000/svg" xmlns:xlink="http://www.w3.org/1999/xlink">
<g id="graph1" class="graph" transform="scale(1 1) rotate(0) translate(4 208)">
<title>G</title>
<polygon fill="white" stroke="white" points="-4,5 -4,-208 99,-208 99,5 -4,5"/>
<!-- Node1 -->
<g id="node1" class="node"><title>Node1</title>
<polygon fill="#bfbfbf" stroke="black" points="0,-1 0,-77 94,-77 94,-1 0,-1"/>
<text text-anchor="middle" x="47" y="-64" font-family="Helvetica,sans-Serif" font-size="10.00">AggregateSample</text>
<polyline fill="none" stroke="black" points="0,-56 94,-56 "/>
<text text-anchor="start" x="8" y="-43" font-family="Helvetica,sans-Serif" font-size="10.00">+ timestamp</text>
<text text-anchor="start" x="8" y="-30" font-family="Helvetica,sans-Serif" font-size="10.00">+ reading</text>
<polyline fill="none" stroke="black" points="0,-22 94,-22 "/>
<text text-anchor="middle" x="47" y="-9" font-family="Helvetica,sans-Serif" font-size="10.00"> </text>
</g>
<!-- Node2 -->
<g id="node2" class="node"><title>Node2</title>
<a xlink:href="classsize__t.html" target="_top" xlink:title="{size_t\n||}">
<polygon fill="white" stroke="black" points="25.5,-140.5 25.5,-203.5 68.5,-203.5 68.5,-140.5 25.5,-140.5"/>
<text text-anchor="middle" x="47" y="-190.5" font-family="Helvetica,sans-Serif" font-size="10.00">size_t</text>
<polyline fill="none" stroke="black" points="25.5,-182.5 68.5,-182.5 "/>
<text text-anchor="middle" x="47" y="-169.5" font-family="Helvetica,sans-Serif" font-size="10.00"> </text>
<polyline fill="none" stroke="black" points="25.5,-161.5 68.5,-161.5 "/>
<text text-anchor="middle" x="47" y="-148.5" font-family="Helvetica,sans-Serif" font-size="10.00"> </text>
</a>
</g>
<!-- Node2&#45;&gt;Node1 -->
<g id="edge2" class="edge"><title>Node2&#45;&gt;Node1</title>
<path fill="none" stroke="#9a32cd" stroke-dasharray="5,2" d="M47,-130.318C47,-113.4 47,-93.9801 47,-77.4105"/>
<polygon fill="#9a32cd" stroke="#9a32cd" points="47,-140.481 42.5001,-130.481 47,-135.481 47.0001,-130.481 47.0001,-130.481 47.0001,-130.481 47,-135.481 51.5001,-130.481 47,-140.481 47,-140.481"/>
<text text-anchor="middle" x="70" y="-113" font-family="Helvetica,sans-Serif" font-size="10.00">reading</text>
<text text-anchor="middle" x="70" y="-100" font-family="Helvetica,sans-Serif" font-size="10.00">timestamp</text>
</g>
</g>
</svg>
