<?xml version="1.0" encoding="UTF-8" standalone="no"?>
<!DOCTYPE svg PUBLIC "-//W3C//DTD SVG 1.1//EN"
 "http://www.w3.org/Graphics/SVG/1.1/DTD/svg11.dtd">
<!-- Generated by graphviz version 2.26.3 (20100126.1600)
 -->
<!-- Title: G Pages: 1 -->
<svg width="142pt" height="238pt"
 viewBox="0.00 0.00 142.00 238.00" xmlns="http://www.w3.org/2000/svg" xmlns:xlink="http://www.w3.org/1999/xlink">
<g id="graph1" class="graph" transform="scale(1 1) rotate(0) translate(4 234)">
<title>G</title>
<polygon fill="white" stroke="white" points="-4,5 -4,-234 139,-234 139,5 -4,5"/>
<!-- Node1 -->
<g id="node1" class="node"><title>Node1</title>
<polygon fill="#bfbfbf" stroke="black" points="0,-1 0,-103 134,-103 134,-1 0,-1"/>
<text text-anchor="middle" x="67" y="-90" font-family="Helvetica,sans-Serif" font-size="10.00">Signature::Spike</text>
<polyline fill="none" stroke="black" points="0,-82 134,-82 "/>
<text text-anchor="start" x="8" y="-69" font-family="Helvetica,sans-Serif" font-size="10.00">+ index</text>
<text text-anchor="start" x="8" y="-56" font-family="Helvetica,sans-Serif" font-size="10.00">+ n</text>
<text text-anchor="start" x="8" y="-43" font-family="Helvetica,sans-Serif" font-size="10.00">+ delta</text>
<polyline fill="none" stroke="black" points="0,-35 134,-35 "/>
<text text-anchor="start" x="8" y="-22" font-family="Helvetica,sans-Serif" font-size="10.00">+ compareAbsValueDesc()</text>
<text text-anchor="start" x="8" y="-9" font-family="Helvetica,sans-Serif" font-size="10.00">+ compareIndexAsc()</text>
</g>
<!-- Node2 -->
<g id="node2" class="node"><title>Node2</title>
<polygon fill="white" stroke="#bfbfbf" points="14.5,-166.5 14.5,-229.5 59.5,-229.5 59.5,-166.5 14.5,-166.5"/>
<text text-anchor="middle" x="37" y="-216.5" font-family="Helvetica,sans-Serif" font-size="10.00">double</text>
<polyline fill="none" stroke="#bfbfbf" points="14.5,-208.5 59.5,-208.5 "/>
<text text-anchor="middle" x="37" y="-195.5" font-family="Helvetica,sans-Serif" font-size="10.00"> </text>
<polyline fill="none" stroke="#bfbfbf" points="14.5,-187.5 59.5,-187.5 "/>
<text text-anchor="middle" x="37" y="-174.5" font-family="Helvetica,sans-Serif" font-size="10.00"> </text>
</g>
<!-- Node2&#45;&gt;Node1 -->
<g id="edge2" class="edge"><title>Node2&#45;&gt;Node1</title>
<path fill="none" stroke="#9a32cd" stroke-dasharray="5,2" d="M45.5518,-156.381C48.9587,-139.801 52.9138,-120.553 56.493,-103.134"/>
<polygon fill="#9a32cd" stroke="#9a32cd" points="43.5096,-166.32 41.1145,-155.619 44.516,-161.422 45.5224,-156.525 45.5224,-156.525 45.5224,-156.525 44.516,-161.422 49.9303,-157.431 43.5096,-166.32 43.5096,-166.32"/>
<text text-anchor="middle" x="63" y="-132.5" font-family="Helvetica,sans-Serif" font-size="10.00">delta</text>
</g>
<!-- Node3 -->
<g id="node4" class="node"><title>Node3</title>
<a xlink:href="classsize__t.html" target="_top" xlink:title="{size_t\n||}">
<polygon fill="white" stroke="black" points="76.5,-166.5 76.5,-229.5 119.5,-229.5 119.5,-166.5 76.5,-166.5"/>
<text text-anchor="middle" x="98" y="-216.5" font-family="Helvetica,sans-Serif" font-size="10.00">size_t</text>
<polyline fill="none" stroke="black" points="76.5,-208.5 119.5,-208.5 "/>
<text text-anchor="middle" x="98" y="-195.5" font-family="Helvetica,sans-Serif" font-size="10.00"> </text>
<polyline fill="none" stroke="black" points="76.5,-187.5 119.5,-187.5 "/>
<text text-anchor="middle" x="98" y="-174.5" font-family="Helvetica,sans-Serif" font-size="10.00"> </text>
</a>
</g>
<!-- Node3&#45;&gt;Node1 -->
<g id="edge4" class="edge"><title>Node3&#45;&gt;Node1</title>
<path fill="none" stroke="#9a32cd" stroke-dasharray="5,2" d="M89.1632,-156.381C85.6426,-139.801 81.5557,-120.553 77.8573,-103.134"/>
<polygon fill="#9a32cd" stroke="#9a32cd" points="91.2735,-166.32 84.7945,-157.473 90.2349,-161.429 89.1964,-156.538 89.1964,-156.538 89.1964,-156.538 90.2349,-161.429 93.5983,-155.604 91.2735,-166.32 91.2735,-166.32"/>
<text text-anchor="middle" x="99" y="-139" font-family="Helvetica,sans-Serif" font-size="10.00">n</text>
<text text-anchor="middle" x="99" y="-126" font-family="Helvetica,sans-Serif" font-size="10.00">index</text>
</g>
</g>
</svg>
