<?xml version="1.0" encoding="UTF-8" standalone="no"?>
<!DOCTYPE svg PUBLIC "-//W3C//DTD SVG 1.1//EN"
 "http://www.w3.org/Graphics/SVG/1.1/DTD/svg11.dtd">
<!-- Generated by graphviz version 2.26.3 (20100126.1600)
 -->
<!-- Title: G Pages: 1 -->
<svg width="300pt" height="70pt"
 viewBox="0.00 0.00 300.00 70.00" xmlns="http://www.w3.org/2000/svg" xmlns:xlink="http://www.w3.org/1999/xlink">
<g id="graph1" class="graph" transform="scale(1 1) rotate(0) translate(4 66)">
<title>G</title>
<polygon fill="white" stroke="white" points="-4,5 -4,-66 297,-66 297,5 -4,5"/>
<!-- Node1 -->
<g id="node1" class="node"><title>Node1</title>
<polygon fill="#bfbfbf" stroke="black" points="0,-20.5 0,-41.5 102,-41.5 102,-20.5 0,-20.5"/>
<text text-anchor="middle" x="51" y="-28.5" font-family="Helvetica,sans-Serif" font-size="10.00">Statistic::calcStdev</text>
</g>
<!-- Node2 -->
<g id="node3" class="node"><title>Node2</title>
<a xlink:href="struct_statistic.html#aac9cadc86022e96266234b94fe10a307" target="_top" xlink:title="Constructor from array data (NOT histograms)">
<polygon fill="white" stroke="black" points="138,-40.5 138,-61.5 292,-61.5 292,-40.5 138,-40.5"/>
<text text-anchor="middle" x="215" y="-48.5" font-family="Helvetica,sans-Serif" font-size="10.00">Statistic&lt; Sample_t &gt;::Statistic</text>
</a>
</g>
<!-- Node1&#45;&gt;Node2 -->
<g id="edge2" class="edge"><title>Node1&#45;&gt;Node2</title>
<path fill="none" stroke="midnightblue" d="M112.416,-38.4898C120.738,-39.5046 129.362,-40.5564 137.915,-41.5994"/>
<polygon fill="midnightblue" stroke="midnightblue" points="112.791,-35.0096 102.441,-37.2733 111.943,-41.9581 112.791,-35.0096"/>
</g>
<!-- Node3 -->
<g id="node5" class="node"><title>Node3</title>
<a xlink:href="struct_statistic.html#acabbdf2b6cc229a10a8d3d6658a0c366" target="_top" xlink:title="Update an existing Statistic with new data points.">
<polygon fill="white" stroke="black" points="141.5,-0.5 141.5,-21.5 288.5,-21.5 288.5,-0.5 141.5,-0.5"/>
<text text-anchor="middle" x="215" y="-8.5" font-family="Helvetica,sans-Serif" font-size="10.00">Statistic&lt; Sample_t &gt;::update</text>
</a>
</g>
<!-- Node1&#45;&gt;Node3 -->
<g id="edge4" class="edge"><title>Node1&#45;&gt;Node3</title>
<path fill="none" stroke="midnightblue" d="M112.448,-23.5063C121.833,-22.3618 131.602,-21.1705 141.219,-19.9977"/>
<polygon fill="midnightblue" stroke="midnightblue" points="111.943,-20.0419 102.441,-24.7267 112.791,-26.9904 111.943,-20.0419"/>
</g>
</g>
</svg>
