<?xml version="1.0" encoding="UTF-8" standalone="no"?>
<!DOCTYPE svg PUBLIC "-//W3C//DTD SVG 1.1//EN"
 "http://www.w3.org/Graphics/SVG/1.1/DTD/svg11.dtd">
<!-- Generated by graphviz version 2.26.3 (20100126.1600)
 -->
<!-- Title: G Pages: 1 -->
<svg width="439pt" height="1138pt"
 viewBox="0.00 0.00 439.00 1138.00" xmlns="http://www.w3.org/2000/svg" xmlns:xlink="http://www.w3.org/1999/xlink">
<g id="graph1" class="graph" transform="scale(1 1) rotate(0) translate(4 1134)">
<title>G</title>
<polygon fill="white" stroke="white" points="-4,5 -4,-1134 436,-1134 436,5 -4,5"/>
<!-- Node1 -->
<g id="node1" class="node"><title>Node1</title>
<polygon fill="#bfbfbf" stroke="black" points="87.5,-1 87.5,-77 266.5,-77 266.5,-1 87.5,-1"/>
<text text-anchor="middle" x="177" y="-64" font-family="Helvetica,sans-Serif" font-size="10.00">PowerStateGraph::PowerStateVertex</text>
<polyline fill="none" stroke="black" points="87.5,-56 266.5,-56 "/>
<text text-anchor="start" x="95.5" y="-43" font-family="Helvetica,sans-Serif" font-size="10.00">+ postSpike</text>
<text text-anchor="start" x="95.5" y="-30" font-family="Helvetica,sans-Serif" font-size="10.00">+ betweenSpikes</text>
<polyline fill="none" stroke="black" points="87.5,-22 266.5,-22 "/>
<text text-anchor="middle" x="177" y="-9" font-family="Helvetica,sans-Serif" font-size="10.00"> </text>
</g>
<!-- Node2 -->
<g id="node2" class="node"><title>Node2</title>
<a xlink:href="struct_statistic.html" target="_top" xlink:title="{Statistic\&lt; Sample_t \&gt;\n|+ mean\l+ stdev\l+ min\l+ max\l+ numDataPoints\l+ dataStore\l|+ Statistic()\l+ Statistic()\l+ Statistic()\l+ Statistic()\l+ update()\l+ update()\l+ update()\l+ calcStdev()\l+ similar()\l+ tTest()\l+ nonZeroStdev()\l+ normalisedLikelihood()\l+ outputStateBarsLine()\l+ getMean()\l+ getStdev()\l+ getMin()\l+ getMax()\l+ getNumDataPoints()\l}">
<polygon fill="white" stroke="black" points="116,-140.5 116,-489.5 238,-489.5 238,-140.5 116,-140.5"/>
<text text-anchor="middle" x="177" y="-476.5" font-family="Helvetica,sans-Serif" font-size="10.00">Statistic&lt; Sample_t &gt;</text>
<polyline fill="none" stroke="black" points="116,-468.5 238,-468.5 "/>
<text text-anchor="start" x="124" y="-455.5" font-family="Helvetica,sans-Serif" font-size="10.00">+ mean</text>
<text text-anchor="start" x="124" y="-442.5" font-family="Helvetica,sans-Serif" font-size="10.00">+ stdev</text>
<text text-anchor="start" x="124" y="-429.5" font-family="Helvetica,sans-Serif" font-size="10.00">+ min</text>
<text text-anchor="start" x="124" y="-416.5" font-family="Helvetica,sans-Serif" font-size="10.00">+ max</text>
<text text-anchor="start" x="124" y="-403.5" font-family="Helvetica,sans-Serif" font-size="10.00">+ numDataPoints</text>
<text text-anchor="start" x="124" y="-390.5" font-family="Helvetica,sans-Serif" font-size="10.00">+ dataStore</text>
<polyline fill="none" stroke="black" points="116,-382.5 238,-382.5 "/>
<text text-anchor="start" x="124" y="-369.5" font-family="Helvetica,sans-Serif" font-size="10.00">+ Statistic()</text>
<text text-anchor="start" x="124" y="-356.5" font-family="Helvetica,sans-Serif" font-size="10.00">+ Statistic()</text>
<text text-anchor="start" x="124" y="-343.5" font-family="Helvetica,sans-Serif" font-size="10.00">+ Statistic()</text>
<text text-anchor="start" x="124" y="-330.5" font-family="Helvetica,sans-Serif" font-size="10.00">+ Statistic()</text>
<text text-anchor="start" x="124" y="-317.5" font-family="Helvetica,sans-Serif" font-size="10.00">+ update()</text>
<text text-anchor="start" x="124" y="-304.5" font-family="Helvetica,sans-Serif" font-size="10.00">+ update()</text>
<text text-anchor="start" x="124" y="-291.5" font-family="Helvetica,sans-Serif" font-size="10.00">+ update()</text>
<text text-anchor="start" x="124" y="-278.5" font-family="Helvetica,sans-Serif" font-size="10.00">+ calcStdev()</text>
<text text-anchor="start" x="124" y="-265.5" font-family="Helvetica,sans-Serif" font-size="10.00">+ similar()</text>
<text text-anchor="start" x="124" y="-252.5" font-family="Helvetica,sans-Serif" font-size="10.00">+ tTest()</text>
<text text-anchor="start" x="124" y="-239.5" font-family="Helvetica,sans-Serif" font-size="10.00">+ nonZeroStdev()</text>
<text text-anchor="start" x="124" y="-226.5" font-family="Helvetica,sans-Serif" font-size="10.00">+ normalisedLikelihood()</text>
<text text-anchor="start" x="124" y="-213.5" font-family="Helvetica,sans-Serif" font-size="10.00">+ outputStateBarsLine()</text>
<text text-anchor="start" x="124" y="-200.5" font-family="Helvetica,sans-Serif" font-size="10.00">+ getMean()</text>
<text text-anchor="start" x="124" y="-187.5" font-family="Helvetica,sans-Serif" font-size="10.00">+ getStdev()</text>
<text text-anchor="start" x="124" y="-174.5" font-family="Helvetica,sans-Serif" font-size="10.00">+ getMin()</text>
<text text-anchor="start" x="124" y="-161.5" font-family="Helvetica,sans-Serif" font-size="10.00">+ getMax()</text>
<text text-anchor="start" x="124" y="-148.5" font-family="Helvetica,sans-Serif" font-size="10.00">+ getNumDataPoints()</text>
</a>
</g>
<!-- Node2&#45;&gt;Node1 -->
<g id="edge2" class="edge"><title>Node2&#45;&gt;Node1</title>
<path fill="none" stroke="#9a32cd" stroke-dasharray="5,2" d="M177,-130.106C177,-110.407 177,-92.1543 177,-77.2407"/>
<polygon fill="#9a32cd" stroke="#9a32cd" points="177,-140.205 172.5,-130.205 177,-135.205 177,-130.205 177,-130.205 177,-130.205 177,-135.205 181.5,-130.205 177,-140.205 177,-140.205"/>
<text text-anchor="middle" x="210.5" y="-113" font-family="Helvetica,sans-Serif" font-size="10.00">postSpike</text>
<text text-anchor="middle" x="210.5" y="-100" font-family="Helvetica,sans-Serif" font-size="10.00">betweenSpikes</text>
</g>
<!-- Node3 -->
<g id="node4" class="node"><title>Node3</title>
<polygon fill="white" stroke="#bfbfbf" points="0,-683.5 0,-746.5 108,-746.5 108,-683.5 0,-683.5"/>
<text text-anchor="middle" x="54" y="-733.5" font-family="Helvetica,sans-Serif" font-size="10.00">std::list&lt; Sample_t &gt;</text>
<polyline fill="none" stroke="#bfbfbf" points="0,-725.5 108,-725.5 "/>
<text text-anchor="start" x="8" y="-712.5" font-family="Helvetica,sans-Serif" font-size="10.00">&#45; elements</text>
<polyline fill="none" stroke="#bfbfbf" points="0,-704.5 108,-704.5 "/>
<text text-anchor="middle" x="54" y="-691.5" font-family="Helvetica,sans-Serif" font-size="10.00"> </text>
</g>
<!-- Node3&#45;&gt;Node2 -->
<g id="edge4" class="edge"><title>Node3&#45;&gt;Node2</title>
<path fill="none" stroke="#9a32cd" stroke-dasharray="5,2" d="M57.2517,-672.948C61.3262,-630.569 69.9537,-563.654 87,-508 94.6874,-482.901 105.033,-456.879 115.972,-432.376"/>
<polygon fill="#9a32cd" stroke="#9a32cd" points="56.3116,-683.171 52.7463,-672.801 56.7695,-678.193 57.2274,-673.214 57.2274,-673.214 57.2274,-673.214 56.7695,-678.193 61.7085,-673.626 56.3116,-683.171 56.3116,-683.171"/>
<text text-anchor="middle" x="108.5" y="-512.5" font-family="Helvetica,sans-Serif" font-size="10.00">dataStore</text>
</g>
<!-- Node4 -->
<g id="node6" class="node"><title>Node4</title>
<polygon fill="white" stroke="#bfbfbf" points="121.5,-952.5 121.5,-1015.5 166.5,-1015.5 166.5,-952.5 121.5,-952.5"/>
<text text-anchor="middle" x="144" y="-1002.5" font-family="Helvetica,sans-Serif" font-size="10.00">double</text>
<polyline fill="none" stroke="#bfbfbf" points="121.5,-994.5 166.5,-994.5 "/>
<text text-anchor="middle" x="144" y="-981.5" font-family="Helvetica,sans-Serif" font-size="10.00"> </text>
<polyline fill="none" stroke="#bfbfbf" points="121.5,-973.5 166.5,-973.5 "/>
<text text-anchor="middle" x="144" y="-960.5" font-family="Helvetica,sans-Serif" font-size="10.00"> </text>
</g>
<!-- Node4&#45;&gt;Node2 -->
<g id="edge12" class="edge"><title>Node4&#45;&gt;Node2</title>
<path fill="none" stroke="#9a32cd" stroke-dasharray="5,2" d="M145.705,-942.225C148.956,-863.516 156.398,-687.866 164,-540 164.839,-523.686 165.75,-506.708 166.687,-489.718"/>
<polygon fill="#9a32cd" stroke="#9a32cd" points="145.292,-952.229 141.208,-942.052 145.498,-947.233 145.704,-942.237 145.704,-942.237 145.704,-942.237 145.498,-947.233 150.2,-942.423 145.292,-952.229 145.292,-952.229"/>
<text text-anchor="middle" x="176.5" y="-732" font-family="Helvetica,sans-Serif" font-size="10.00">mean</text>
<text text-anchor="middle" x="176.5" y="-719" font-family="Helvetica,sans-Serif" font-size="10.00">min</text>
<text text-anchor="middle" x="176.5" y="-706" font-family="Helvetica,sans-Serif" font-size="10.00">max</text>
<text text-anchor="middle" x="176.5" y="-693" font-family="Helvetica,sans-Serif" font-size="10.00">stdev</text>
</g>
<!-- Node4&#45;&gt;Node3 -->
<g id="edge6" class="edge"><title>Node4&#45;&gt;Node3</title>
<path fill="none" stroke="#9a32cd" stroke-dasharray="5,2" d="M113.649,-962.264C104.692,-954.359 95.7566,-944.705 90,-934 57.5174,-873.594 52.8014,-791.313 52.943,-746.78"/>
<polygon fill="#9a32cd" stroke="#9a32cd" points="121.446,-968.743 110.878,-965.813 117.6,-965.548 113.755,-962.352 113.755,-962.352 113.755,-962.352 117.6,-965.548 116.631,-958.891 121.446,-968.743 121.446,-968.743"/>
<text text-anchor="middle" x="110" y="-918.5" font-family="Helvetica,sans-Serif" font-size="10.00">elements</text>
</g>
<!-- Node8 -->
<g id="node15" class="node"><title>Node8</title>
<a xlink:href="struct_statistic.html" target="_top" xlink:title="{Statistic\&lt; T \&gt;\n|+ mean\l+ stdev\l+ min\l+ max\l+ numDataPoints\l+ dataStore\l|+ Statistic()\l+ Statistic()\l+ Statistic()\l+ Statistic()\l+ update()\l+ update()\l+ calcStdev()\l+ update()\l+ similar()\l+ tTest()\l+ nonZeroStdev()\l+ normalisedLikelihood()\l+ outputStateBarsLine()\l+ getMean()\l+ getStdev()\l+ getMin()\l+ getMax()\l+ getNumDataPoints()\l}">
<polygon fill="white" stroke="black" points="297,-540.5 297,-889.5 419,-889.5 419,-540.5 297,-540.5"/>
<text text-anchor="middle" x="358" y="-876.5" font-family="Helvetica,sans-Serif" font-size="10.00">Statistic&lt; T &gt;</text>
<polyline fill="none" stroke="black" points="297,-868.5 419,-868.5 "/>
<text text-anchor="start" x="305" y="-855.5" font-family="Helvetica,sans-Serif" font-size="10.00">+ mean</text>
<text text-anchor="start" x="305" y="-842.5" font-family="Helvetica,sans-Serif" font-size="10.00">+ stdev</text>
<text text-anchor="start" x="305" y="-829.5" font-family="Helvetica,sans-Serif" font-size="10.00">+ min</text>
<text text-anchor="start" x="305" y="-816.5" font-family="Helvetica,sans-Serif" font-size="10.00">+ max</text>
<text text-anchor="start" x="305" y="-803.5" font-family="Helvetica,sans-Serif" font-size="10.00">+ numDataPoints</text>
<text text-anchor="start" x="305" y="-790.5" font-family="Helvetica,sans-Serif" font-size="10.00">+ dataStore</text>
<polyline fill="none" stroke="black" points="297,-782.5 419,-782.5 "/>
<text text-anchor="start" x="305" y="-769.5" font-family="Helvetica,sans-Serif" font-size="10.00">+ Statistic()</text>
<text text-anchor="start" x="305" y="-756.5" font-family="Helvetica,sans-Serif" font-size="10.00">+ Statistic()</text>
<text text-anchor="start" x="305" y="-743.5" font-family="Helvetica,sans-Serif" font-size="10.00">+ Statistic()</text>
<text text-anchor="start" x="305" y="-730.5" font-family="Helvetica,sans-Serif" font-size="10.00">+ Statistic()</text>
<text text-anchor="start" x="305" y="-717.5" font-family="Helvetica,sans-Serif" font-size="10.00">+ update()</text>
<text text-anchor="start" x="305" y="-704.5" font-family="Helvetica,sans-Serif" font-size="10.00">+ update()</text>
<text text-anchor="start" x="305" y="-691.5" font-family="Helvetica,sans-Serif" font-size="10.00">+ calcStdev()</text>
<text text-anchor="start" x="305" y="-678.5" font-family="Helvetica,sans-Serif" font-size="10.00">+ update()</text>
<text text-anchor="start" x="305" y="-665.5" font-family="Helvetica,sans-Serif" font-size="10.00">+ similar()</text>
<text text-anchor="start" x="305" y="-652.5" font-family="Helvetica,sans-Serif" font-size="10.00">+ tTest()</text>
<text text-anchor="start" x="305" y="-639.5" font-family="Helvetica,sans-Serif" font-size="10.00">+ nonZeroStdev()</text>
<text text-anchor="start" x="305" y="-626.5" font-family="Helvetica,sans-Serif" font-size="10.00">+ normalisedLikelihood()</text>
<text text-anchor="start" x="305" y="-613.5" font-family="Helvetica,sans-Serif" font-size="10.00">+ outputStateBarsLine()</text>
<text text-anchor="start" x="305" y="-600.5" font-family="Helvetica,sans-Serif" font-size="10.00">+ getMean()</text>
<text text-anchor="start" x="305" y="-587.5" font-family="Helvetica,sans-Serif" font-size="10.00">+ getStdev()</text>
<text text-anchor="start" x="305" y="-574.5" font-family="Helvetica,sans-Serif" font-size="10.00">+ getMin()</text>
<text text-anchor="start" x="305" y="-561.5" font-family="Helvetica,sans-Serif" font-size="10.00">+ getMax()</text>
<text text-anchor="start" x="305" y="-548.5" font-family="Helvetica,sans-Serif" font-size="10.00">+ getNumDataPoints()</text>
</a>
</g>
<!-- Node4&#45;&gt;Node8 -->
<g id="edge20" class="edge"><title>Node4&#45;&gt;Node8</title>
<path fill="none" stroke="#9a32cd" stroke-dasharray="5,2" d="M170.715,-944.292C181.483,-930.987 194.937,-917.209 210,-908 238.51,-890.57 257.524,-911.625 283,-890 287.914,-885.829 292.514,-881.278 296.821,-876.429"/>
<polygon fill="#9a32cd" stroke="#9a32cd" points="164.367,-952.471 166.944,-941.812 167.433,-948.521 170.499,-944.571 170.499,-944.571 170.499,-944.571 167.433,-948.521 174.054,-947.33 164.367,-952.471 164.367,-952.471"/>
<text text-anchor="middle" x="222.5" y="-925" font-family="Helvetica,sans-Serif" font-size="10.00">mean</text>
<text text-anchor="middle" x="222.5" y="-912" font-family="Helvetica,sans-Serif" font-size="10.00">stdev</text>
</g>
<!-- Node5 -->
<g id="node8" class="node"><title>Node5</title>
<a xlink:title="STL class.">
<polygon fill="white" stroke="#bfbfbf" points="0.5,-952.5 0.5,-1015.5 73.5,-1015.5 73.5,-952.5 0.5,-952.5"/>
<text text-anchor="middle" x="37" y="-1002.5" font-family="Helvetica,sans-Serif" font-size="10.00">std::list&lt; T &gt;</text>
<polyline fill="none" stroke="#bfbfbf" points="0.5,-994.5 73.5,-994.5 "/>
<text text-anchor="start" x="8.5" y="-981.5" font-family="Helvetica,sans-Serif" font-size="10.00">&#45; elements</text>
<polyline fill="none" stroke="#bfbfbf" points="0.5,-973.5 73.5,-973.5 "/>
<text text-anchor="middle" x="37" y="-960.5" font-family="Helvetica,sans-Serif" font-size="10.00"> </text>
</a>
</g>
<!-- Node5&#45;&gt;Node3 -->
<g id="edge8" class="edge"><title>Node5&#45;&gt;Node3</title>
<path fill="none" stroke="orange" stroke-dasharray="5,2" d="M10.2752,-943.319C8.98199,-940.245 7.86471,-937.122 7,-934 3.91543,-922.864 5.62312,-919.473 7,-908 13.9444,-850.134 32.2029,-784.558 43.811,-746.671"/>
<polygon fill="orange" stroke="orange" points="7.12564,-944.846 14.6059,-952.349 13.4373,-941.819 7.12564,-944.846"/>
<text text-anchor="middle" x="37" y="-918.5" font-family="Helvetica,sans-Serif" font-size="10.00">&lt; Sample_t &gt;</text>
</g>
<!-- Node6 -->
<g id="node10" class="node"><title>Node6</title>
<polygon fill="white" stroke="#bfbfbf" points="230.5,-1066.5 230.5,-1129.5 259.5,-1129.5 259.5,-1066.5 230.5,-1066.5"/>
<text text-anchor="middle" x="245" y="-1116.5" font-family="Helvetica,sans-Serif" font-size="10.00">T</text>
<polyline fill="none" stroke="#bfbfbf" points="230.5,-1108.5 259.5,-1108.5 "/>
<text text-anchor="middle" x="245" y="-1095.5" font-family="Helvetica,sans-Serif" font-size="10.00"> </text>
<polyline fill="none" stroke="#bfbfbf" points="230.5,-1087.5 259.5,-1087.5 "/>
<text text-anchor="middle" x="245" y="-1074.5" font-family="Helvetica,sans-Serif" font-size="10.00"> </text>
</g>
<!-- Node6&#45;&gt;Node5 -->
<g id="edge10" class="edge"><title>Node6&#45;&gt;Node5</title>
<path fill="none" stroke="#9a32cd" stroke-dasharray="5,2" d="M221.549,-1085.15C185.497,-1065.39 116.165,-1027.39 73.5052,-1004.01"/>
<polygon fill="#9a32cd" stroke="#9a32cd" points="230.374,-1089.98 219.442,-1089.12 225.989,-1087.58 221.605,-1085.18 221.605,-1085.18 221.605,-1085.18 225.989,-1087.58 223.767,-1081.23 230.374,-1089.98 230.374,-1089.98"/>
<text text-anchor="middle" x="173" y="-1038.5" font-family="Helvetica,sans-Serif" font-size="10.00">elements</text>
</g>
<!-- Node6&#45;&gt;Node8 -->
<g id="edge24" class="edge"><title>Node6&#45;&gt;Node8</title>
<path fill="none" stroke="#9a32cd" stroke-dasharray="5,2" d="M264.319,-1062.12C281.089,-1029.55 304.841,-979.764 319,-934 323.423,-919.704 327.401,-904.718 330.967,-889.578"/>
<polygon fill="#9a32cd" stroke="#9a32cd" points="259.573,-1071.24 260.197,-1060.29 261.881,-1066.81 264.189,-1062.37 264.189,-1062.37 264.189,-1062.37 261.881,-1066.81 268.181,-1064.45 259.573,-1071.24 259.573,-1071.24"/>
<text text-anchor="middle" x="321.5" y="-988" font-family="Helvetica,sans-Serif" font-size="10.00">min</text>
<text text-anchor="middle" x="321.5" y="-975" font-family="Helvetica,sans-Serif" font-size="10.00">max</text>
</g>
<!-- Node7 -->
<g id="node13" class="node"><title>Node7</title>
<a xlink:href="classsize__t.html" target="_top" xlink:title="{size_t\n||}">
<polygon fill="white" stroke="black" points="211.5,-952.5 211.5,-1015.5 254.5,-1015.5 254.5,-952.5 211.5,-952.5"/>
<text text-anchor="middle" x="233" y="-1002.5" font-family="Helvetica,sans-Serif" font-size="10.00">size_t</text>
<polyline fill="none" stroke="black" points="211.5,-994.5 254.5,-994.5 "/>
<text text-anchor="middle" x="233" y="-981.5" font-family="Helvetica,sans-Serif" font-size="10.00"> </text>
<polyline fill="none" stroke="black" points="211.5,-973.5 254.5,-973.5 "/>
<text text-anchor="middle" x="233" y="-960.5" font-family="Helvetica,sans-Serif" font-size="10.00"> </text>
</a>
</g>
<!-- Node7&#45;&gt;Node2 -->
<g id="edge14" class="edge"><title>Node7&#45;&gt;Node2</title>
<path fill="none" stroke="#9a32cd" stroke-dasharray="5,2" d="M226.623,-942.039C224.307,-925.81 221.817,-907.067 220,-890 205.724,-755.866 194.563,-603.629 187.193,-489.509"/>
<polygon fill="#9a32cd" stroke="#9a32cd" points="228.111,-952.298 222.222,-943.047 227.393,-947.35 226.676,-942.402 226.676,-942.402 226.676,-942.402 227.393,-947.35 231.129,-941.756 228.111,-952.298 228.111,-952.298"/>
<text text-anchor="middle" x="254" y="-712.5" font-family="Helvetica,sans-Serif" font-size="10.00">numDataPoints</text>
</g>
<!-- Node7&#45;&gt;Node8 -->
<g id="edge22" class="edge"><title>Node7&#45;&gt;Node8</title>
<path fill="none" stroke="#9a32cd" stroke-dasharray="5,2" d="M236.508,-942.426C239.117,-930.42 243.544,-917.901 251,-908 260.817,-894.965 272.098,-902.142 283,-890 287.858,-884.589 292.436,-878.816 296.744,-872.782"/>
<polygon fill="#9a32cd" stroke="#9a32cd" points="234.716,-952.322 232.07,-941.68 235.607,-947.402 236.498,-942.482 236.498,-942.482 236.498,-942.482 235.607,-947.402 240.926,-943.284 234.716,-952.322 234.716,-952.322"/>
<text text-anchor="middle" x="285" y="-918.5" font-family="Helvetica,sans-Serif" font-size="10.00">numDataPoints</text>
</g>
<!-- Node8&#45;&gt;Node2 -->
<g id="edge16" class="edge"><title>Node8&#45;&gt;Node2</title>
<path fill="none" stroke="orange" stroke-dasharray="5,2" d="M292.686,-561.735C289.434,-554.377 286.193,-547.101 283,-540 268.744,-508.298 252.973,-474.285 238.048,-442.549"/>
<polygon fill="orange" stroke="orange" points="289.574,-563.353 296.808,-571.093 295.98,-560.531 289.574,-563.353"/>
<text text-anchor="middle" x="304" y="-512.5" font-family="Helvetica,sans-Serif" font-size="10.00">&lt; Sample_t &gt;</text>
</g>
<!-- Node9 -->
<g id="node17" class="node"><title>Node9</title>
<polygon fill="white" stroke="#bfbfbf" points="369.5,-952.5 369.5,-1015.5 422.5,-1015.5 422.5,-952.5 369.5,-952.5"/>
<text text-anchor="middle" x="396" y="-1002.5" font-family="Helvetica,sans-Serif" font-size="10.00">list&lt; T &gt;</text>
<polyline fill="none" stroke="#bfbfbf" points="369.5,-994.5 422.5,-994.5 "/>
<text text-anchor="middle" x="396" y="-981.5" font-family="Helvetica,sans-Serif" font-size="10.00"> </text>
<polyline fill="none" stroke="#bfbfbf" points="369.5,-973.5 422.5,-973.5 "/>
<text text-anchor="middle" x="396" y="-960.5" font-family="Helvetica,sans-Serif" font-size="10.00"> </text>
</g>
<!-- Node9&#45;&gt;Node8 -->
<g id="edge18" class="edge"><title>Node9&#45;&gt;Node8</title>
<path fill="none" stroke="#9a32cd" stroke-dasharray="5,2" d="M390.124,-942.404C387.99,-927.299 385.424,-909.136 382.685,-889.744"/>
<polygon fill="#9a32cd" stroke="#9a32cd" points="391.529,-952.351 385.675,-943.079 390.83,-947.4 390.13,-942.45 390.13,-942.45 390.13,-942.45 390.83,-947.4 394.586,-941.82 391.529,-952.351 391.529,-952.351"/>
<text text-anchor="middle" x="409.5" y="-918.5" font-family="Helvetica,sans-Serif" font-size="10.00">dataStore</text>
</g>
</g>
</svg>
