<?xml version="1.0" encoding="UTF-8" standalone="no"?>
<!DOCTYPE svg PUBLIC "-//W3C//DTD SVG 1.1//EN"
 "http://www.w3.org/Graphics/SVG/1.1/DTD/svg11.dtd">
<!-- Generated by graphviz version 2.26.3 (20100126.1600)
 -->
<!-- Title: G Pages: 1 -->
<svg width="300pt" height="724pt"
 viewBox="0.00 0.00 300.00 724.00" xmlns="http://www.w3.org/2000/svg" xmlns:xlink="http://www.w3.org/1999/xlink">
<g id="graph1" class="graph" transform="scale(1 1) rotate(0) translate(4 720)">
<title>G</title>
<polygon fill="white" stroke="white" points="-4,5 -4,-720 297,-720 297,5 -4,5"/>
<!-- Node1 -->
<g id="node1" class="node"><title>Node1</title>
<polygon fill="#bfbfbf" stroke="black" points="77,-0.5 77,-141.5 175,-141.5 175,-0.5 77,-0.5"/>
<text text-anchor="middle" x="126" y="-128.5" font-family="Helvetica,sans-Serif" font-size="10.00">GNUplot::PlotVars</text>
<polyline fill="none" stroke="black" points="77,-120.5 175,-120.5 "/>
<text text-anchor="start" x="85" y="-107.5" font-family="Helvetica,sans-Serif" font-size="10.00">+ inFilename</text>
<text text-anchor="start" x="85" y="-94.5" font-family="Helvetica,sans-Serif" font-size="10.00">+ outFilename</text>
<text text-anchor="start" x="85" y="-81.5" font-family="Helvetica,sans-Serif" font-size="10.00">+ title</text>
<text text-anchor="start" x="85" y="-68.5" font-family="Helvetica,sans-Serif" font-size="10.00">+ xlabel</text>
<text text-anchor="start" x="85" y="-55.5" font-family="Helvetica,sans-Serif" font-size="10.00">+ ylabel</text>
<text text-anchor="start" x="85" y="-42.5" font-family="Helvetica,sans-Serif" font-size="10.00">+ plotArgs</text>
<text text-anchor="start" x="85" y="-29.5" font-family="Helvetica,sans-Serif" font-size="10.00">+ data</text>
<polyline fill="none" stroke="black" points="77,-21.5 175,-21.5 "/>
<text text-anchor="middle" x="126" y="-8.5" font-family="Helvetica,sans-Serif" font-size="10.00"> </text>
</g>
<!-- Node2 -->
<g id="node2" class="node"><title>Node2</title>
<polygon fill="white" stroke="#bfbfbf" points="22.5,-192.5 22.5,-255.5 127.5,-255.5 127.5,-192.5 22.5,-192.5"/>
<text text-anchor="middle" x="75" y="-242.5" font-family="Helvetica,sans-Serif" font-size="10.00">std::list&lt; PlotData &gt;</text>
<polyline fill="none" stroke="#bfbfbf" points="22.5,-234.5 127.5,-234.5 "/>
<text text-anchor="start" x="30.5" y="-221.5" font-family="Helvetica,sans-Serif" font-size="10.00">&#45; elements</text>
<polyline fill="none" stroke="#bfbfbf" points="22.5,-213.5 127.5,-213.5 "/>
<text text-anchor="middle" x="75" y="-200.5" font-family="Helvetica,sans-Serif" font-size="10.00"> </text>
</g>
<!-- Node2&#45;&gt;Node1 -->
<g id="edge2" class="edge"><title>Node2&#45;&gt;Node1</title>
<path fill="none" stroke="#9a32cd" stroke-dasharray="5,2" d="M88.8088,-182.574C93.0101,-169.97 97.7518,-155.745 102.408,-141.776"/>
<polygon fill="#9a32cd" stroke="#9a32cd" points="85.5672,-192.298 84.4605,-181.388 87.1484,-187.555 88.7296,-182.811 88.7296,-182.811 88.7296,-182.811 87.1484,-187.555 92.9987,-184.235 85.5672,-192.298 85.5672,-192.298"/>
<text text-anchor="middle" x="105.5" y="-164.5" font-family="Helvetica,sans-Serif" font-size="10.00">data</text>
</g>
<!-- Node3 -->
<g id="node4" class="node"><title>Node3</title>
<a xlink:href="struct_g_n_uplot_1_1_plot_data.html" target="_top" xlink:title="Structure for storing details about data elements to be plotted.">
<polygon fill="white" stroke="black" points="25.5,-371 25.5,-473 124.5,-473 124.5,-371 25.5,-371"/>
<text text-anchor="middle" x="75" y="-460" font-family="Helvetica,sans-Serif" font-size="10.00">GNUplot::PlotData</text>
<polyline fill="none" stroke="black" points="25.5,-452 124.5,-452 "/>
<text text-anchor="start" x="33.5" y="-439" font-family="Helvetica,sans-Serif" font-size="10.00">+ dataFile</text>
<text text-anchor="start" x="33.5" y="-426" font-family="Helvetica,sans-Serif" font-size="10.00">+ title</text>
<text text-anchor="start" x="33.5" y="-413" font-family="Helvetica,sans-Serif" font-size="10.00">+ tokenBase</text>
<text text-anchor="start" x="33.5" y="-400" font-family="Helvetica,sans-Serif" font-size="10.00">+ useDefaults</text>
<polyline fill="none" stroke="black" points="25.5,-392 124.5,-392 "/>
<text text-anchor="start" x="33.5" y="-379" font-family="Helvetica,sans-Serif" font-size="10.00">+ PlotData()</text>
</a>
</g>
<!-- Node3&#45;&gt;Node2 -->
<g id="edge4" class="edge"><title>Node3&#45;&gt;Node2</title>
<path fill="none" stroke="#9a32cd" stroke-dasharray="5,2" d="M75,-360.677C75,-325.864 75,-283.745 75,-255.547"/>
<polygon fill="#9a32cd" stroke="#9a32cd" points="75,-370.753 70.5001,-360.753 75,-365.753 75.0001,-360.753 75.0001,-360.753 75.0001,-360.753 75,-365.753 79.5001,-360.753 75,-370.753 75,-370.753"/>
<text text-anchor="middle" x="95" y="-310.5" font-family="Helvetica,sans-Serif" font-size="10.00">elements</text>
</g>
<!-- Node4 -->
<g id="node6" class="node"><title>Node4</title>
<polygon fill="white" stroke="#bfbfbf" points="-0.5,-550.5 -0.5,-613.5 34.5,-613.5 34.5,-550.5 -0.5,-550.5"/>
<text text-anchor="middle" x="17" y="-600.5" font-family="Helvetica,sans-Serif" font-size="10.00">bool</text>
<polyline fill="none" stroke="#bfbfbf" points="-0.5,-592.5 34.5,-592.5 "/>
<text text-anchor="middle" x="17" y="-579.5" font-family="Helvetica,sans-Serif" font-size="10.00"> </text>
<polyline fill="none" stroke="#bfbfbf" points="-0.5,-571.5 34.5,-571.5 "/>
<text text-anchor="middle" x="17" y="-558.5" font-family="Helvetica,sans-Serif" font-size="10.00"> </text>
</g>
<!-- Node4&#45;&gt;Node3 -->
<g id="edge6" class="edge"><title>Node4&#45;&gt;Node3</title>
<path fill="none" stroke="#9a32cd" stroke-dasharray="5,2" d="M17.4235,-539.966C18.6709,-524.499 21.3926,-507.086 27,-492 29.3616,-485.646 32.4243,-479.316 35.8599,-473.206"/>
<polygon fill="#9a32cd" stroke="#9a32cd" points="16.7781,-550.31 12.9096,-540.049 17.0895,-545.319 17.4009,-540.329 17.4009,-540.329 17.4009,-540.329 17.0895,-545.319 21.8922,-540.609 16.7781,-550.31 16.7781,-550.31"/>
<text text-anchor="middle" x="53.5" y="-509.5" font-family="Helvetica,sans-Serif" font-size="10.00">useDefaults</text>
</g>
<!-- Node5 -->
<g id="node8" class="node"><title>Node5</title>
<a xlink:title="STL class.">
<polygon fill="white" stroke="#bfbfbf" points="94,-550.5 94,-613.5 154,-613.5 154,-550.5 94,-550.5"/>
<text text-anchor="middle" x="124" y="-600.5" font-family="Helvetica,sans-Serif" font-size="10.00">std::string</text>
<polyline fill="none" stroke="#bfbfbf" points="94,-592.5 154,-592.5 "/>
<text text-anchor="middle" x="124" y="-579.5" font-family="Helvetica,sans-Serif" font-size="10.00"> </text>
<polyline fill="none" stroke="#bfbfbf" points="94,-571.5 154,-571.5 "/>
<text text-anchor="middle" x="124" y="-558.5" font-family="Helvetica,sans-Serif" font-size="10.00"> </text>
</a>
</g>
<!-- Node5&#45;&gt;Node1 -->
<g id="edge16" class="edge"><title>Node5&#45;&gt;Node1</title>
<path fill="none" stroke="#9a32cd" stroke-dasharray="5,2" d="M139.211,-540.633C139.92,-537.737 140.53,-534.841 141,-532 143.9,-514.46 141.148,-509.777 141,-492 139.889,-358.653 142.606,-325.188 136,-192 135.191,-175.684 133.955,-158.158 132.625,-141.649"/>
<polygon fill="#9a32cd" stroke="#9a32cd" points="136.478,-550.392 134.841,-539.549 137.826,-545.577 139.174,-540.763 139.174,-540.763 139.174,-540.763 137.826,-545.577 143.508,-541.976 136.478,-550.392 136.478,-550.392"/>
<text text-anchor="middle" x="168" y="-343" font-family="Helvetica,sans-Serif" font-size="10.00">title</text>
<text text-anchor="middle" x="168" y="-330" font-family="Helvetica,sans-Serif" font-size="10.00">inFilename</text>
<text text-anchor="middle" x="168" y="-317" font-family="Helvetica,sans-Serif" font-size="10.00">plotArgs</text>
<text text-anchor="middle" x="168" y="-304" font-family="Helvetica,sans-Serif" font-size="10.00">outFilename</text>
<text text-anchor="middle" x="168" y="-291" font-family="Helvetica,sans-Serif" font-size="10.00">ylabel</text>
<text text-anchor="middle" x="168" y="-278" font-family="Helvetica,sans-Serif" font-size="10.00">xlabel</text>
</g>
<!-- Node5&#45;&gt;Node3 -->
<g id="edge8" class="edge"><title>Node5&#45;&gt;Node3</title>
<path fill="none" stroke="#9a32cd" stroke-dasharray="5,2" d="M97.9479,-541.265C96.4842,-538.191 95.1458,-535.084 94,-532 87.0817,-513.379 82.6575,-492.035 79.8393,-473.134"/>
<polygon fill="#9a32cd" stroke="#9a32cd" points="102.647,-550.334 94.0508,-543.525 100.347,-545.894 98.0463,-541.455 98.0463,-541.455 98.0463,-541.455 100.347,-545.894 102.042,-539.385 102.647,-550.334 102.647,-550.334"/>
<text text-anchor="middle" x="117.5" y="-522.5" font-family="Helvetica,sans-Serif" font-size="10.00">title</text>
<text text-anchor="middle" x="117.5" y="-509.5" font-family="Helvetica,sans-Serif" font-size="10.00">tokenBase</text>
<text text-anchor="middle" x="117.5" y="-496.5" font-family="Helvetica,sans-Serif" font-size="10.00">dataFile</text>
</g>
<!-- Node6 -->
<g id="node10" class="node"><title>Node6</title>
<a xlink:title="STL class.">
<polygon fill="white" stroke="#bfbfbf" points="61.5,-652.5 61.5,-715.5 186.5,-715.5 186.5,-652.5 61.5,-652.5"/>
<text text-anchor="middle" x="124" y="-702.5" font-family="Helvetica,sans-Serif" font-size="10.00">std::basic_string&lt; char &gt;</text>
<polyline fill="none" stroke="#bfbfbf" points="61.5,-694.5 186.5,-694.5 "/>
<text text-anchor="middle" x="124" y="-681.5" font-family="Helvetica,sans-Serif" font-size="10.00"> </text>
<polyline fill="none" stroke="#bfbfbf" points="61.5,-673.5 186.5,-673.5 "/>
<text text-anchor="middle" x="124" y="-660.5" font-family="Helvetica,sans-Serif" font-size="10.00"> </text>
</a>
</g>
<!-- Node6&#45;&gt;Node5 -->
<g id="edge10" class="edge"><title>Node6&#45;&gt;Node5</title>
<path fill="none" stroke="midnightblue" d="M124,-642.194C124,-632.674 124,-622.712 124,-613.695"/>
<polygon fill="none" stroke="midnightblue" points="120.5,-642.286 124,-652.286 127.5,-642.286 120.5,-642.286"/>
</g>
<!-- Node7 -->
<g id="node12" class="node"><title>Node7</title>
<a xlink:title="STL class.">
<polygon fill="white" stroke="#bfbfbf" points="195.5,-390.5 195.5,-453.5 268.5,-453.5 268.5,-390.5 195.5,-390.5"/>
<text text-anchor="middle" x="232" y="-440.5" font-family="Helvetica,sans-Serif" font-size="10.00">std::list&lt; T &gt;</text>
<polyline fill="none" stroke="#bfbfbf" points="195.5,-432.5 268.5,-432.5 "/>
<text text-anchor="start" x="203.5" y="-419.5" font-family="Helvetica,sans-Serif" font-size="10.00">&#45; elements</text>
<polyline fill="none" stroke="#bfbfbf" points="195.5,-411.5 268.5,-411.5 "/>
<text text-anchor="middle" x="232" y="-398.5" font-family="Helvetica,sans-Serif" font-size="10.00"> </text>
</a>
</g>
<!-- Node7&#45;&gt;Node2 -->
<g id="edge12" class="edge"><title>Node7&#45;&gt;Node2</title>
<path fill="none" stroke="orange" stroke-dasharray="5,2" d="M236.529,-380.236C237.728,-347.824 234.005,-303.574 210,-274 189.917,-249.258 156.352,-236.759 127.716,-230.445"/>
<polygon fill="orange" stroke="orange" points="233.029,-380.136 235.986,-390.309 240.019,-380.512 233.029,-380.136"/>
<text text-anchor="middle" x="263.5" y="-310.5" font-family="Helvetica,sans-Serif" font-size="10.00">&lt; PlotData &gt;</text>
</g>
<!-- Node8 -->
<g id="node14" class="node"><title>Node8</title>
<polygon fill="white" stroke="#bfbfbf" points="217.5,-550.5 217.5,-613.5 246.5,-613.5 246.5,-550.5 217.5,-550.5"/>
<text text-anchor="middle" x="232" y="-600.5" font-family="Helvetica,sans-Serif" font-size="10.00">T</text>
<polyline fill="none" stroke="#bfbfbf" points="217.5,-592.5 246.5,-592.5 "/>
<text text-anchor="middle" x="232" y="-579.5" font-family="Helvetica,sans-Serif" font-size="10.00"> </text>
<polyline fill="none" stroke="#bfbfbf" points="217.5,-571.5 246.5,-571.5 "/>
<text text-anchor="middle" x="232" y="-558.5" font-family="Helvetica,sans-Serif" font-size="10.00"> </text>
</g>
<!-- Node8&#45;&gt;Node7 -->
<g id="edge14" class="edge"><title>Node8&#45;&gt;Node7</title>
<path fill="none" stroke="#9a32cd" stroke-dasharray="5,2" d="M232,-540.045C232,-512.96 232,-478.291 232,-453.545"/>
<polygon fill="#9a32cd" stroke="#9a32cd" points="232,-550.389 227.5,-540.389 232,-545.389 232,-540.389 232,-540.389 232,-540.389 232,-545.389 236.5,-540.389 232,-550.389 232,-550.389"/>
<text text-anchor="middle" x="252" y="-509.5" font-family="Helvetica,sans-Serif" font-size="10.00">elements</text>
</g>
</g>
</svg>
