<?xml version="1.0" encoding="UTF-8" standalone="no"?>
<!DOCTYPE svg PUBLIC "-//W3C//DTD SVG 1.1//EN"
 "http://www.w3.org/Graphics/SVG/1.1/DTD/svg11.dtd">
<!-- Generated by graphviz version 2.26.3 (20100126.1600)
 -->
<!-- Title: G Pages: 1 -->
<svg width="962pt" height="90pt"
 viewBox="0.00 0.00 962.00 90.00" xmlns="http://www.w3.org/2000/svg" xmlns:xlink="http://www.w3.org/1999/xlink">
<g id="graph1" class="graph" transform="scale(1 1) rotate(0) translate(4 86)">
<title>G</title>
<polygon fill="white" stroke="white" points="-4,5 -4,-86 959,-86 959,5 -4,5"/>
<!-- Node1 -->
<g id="node1" class="node"><title>Node1</title>
<polygon fill="#bfbfbf" stroke="black" points="0.5,-20.5 0.5,-41.5 81.5,-41.5 81.5,-20.5 0.5,-20.5"/>
<text text-anchor="middle" x="41" y="-28.5" font-family="Helvetica,sans-Serif" font-size="10.00">Statistic::tTest</text>
</g>
<!-- Node2 -->
<g id="node3" class="node"><title>Node2</title>
<a xlink:href="class_power_state_graph.html#a7420e492ce4608c1a4dbba027af116c0" target="_top" xlink:title="Find the vertex statistically most similarto stat.">
<polygon fill="white" stroke="black" points="118,-40.5 118,-61.5 298,-61.5 298,-40.5 118,-40.5"/>
<text text-anchor="middle" x="208" y="-48.5" font-family="Helvetica,sans-Serif" font-size="10.00">PowerStateGraph::mostSimilarVertex</text>
</a>
</g>
<!-- Node1&#45;&gt;Node2 -->
<g id="edge2" class="edge"><title>Node1&#45;&gt;Node2</title>
<path fill="none" stroke="midnightblue" d="M92.0421,-37.1128C100.978,-38.183 110.501,-39.3234 120.101,-40.4732"/>
<polygon fill="midnightblue" stroke="midnightblue" points="92.1981,-33.6066 81.8528,-35.8926 91.3656,-40.5569 92.1981,-33.6066"/>
</g>
<!-- Node8 -->
<g id="node15" class="node"><title>Node8</title>
<a xlink:href="struct_statistic.html#ab94f7ca35daf363dfe676ad613de006d" target="_top" xlink:title="Uses a two&#45;sided Student T&#45;Test to determine if other.mean is &#39;similar&#39; to the calling object...">
<polygon fill="white" stroke="black" points="135,-0.5 135,-21.5 281,-21.5 281,-0.5 135,-0.5"/>
<text text-anchor="middle" x="208" y="-8.5" font-family="Helvetica,sans-Serif" font-size="10.00">Statistic&lt; Sample_t &gt;::similar</text>
</a>
</g>
<!-- Node1&#45;&gt;Node8 -->
<g id="edge14" class="edge"><title>Node1&#45;&gt;Node8</title>
<path fill="none" stroke="midnightblue" d="M91.9458,-24.8987C105.531,-23.2718 120.478,-21.4816 134.996,-19.743"/>
<polygon fill="midnightblue" stroke="midnightblue" points="91.3656,-21.4431 81.8528,-26.1074 92.1981,-28.3934 91.3656,-21.4431"/>
</g>
<!-- Node3 -->
<g id="node5" class="node"><title>Node3</title>
<a xlink:href="class_power_state_graph.html#a26384a0a6d9867d336814b70b7a22cd3" target="_top" xlink:title="Update (or create) directional edges between power states (vertices) so the edges are consistent with...">
<polygon fill="white" stroke="black" points="352.5,-60.5 352.5,-81.5 509.5,-81.5 509.5,-60.5 352.5,-60.5"/>
<text text-anchor="middle" x="431" y="-68.5" font-family="Helvetica,sans-Serif" font-size="10.00">PowerStateGraph::updateEdges</text>
</a>
</g>
<!-- Node2&#45;&gt;Node3 -->
<g id="edge4" class="edge"><title>Node2&#45;&gt;Node3</title>
<path fill="none" stroke="midnightblue" d="M308.26,-59.9919C323.074,-61.3205 338.155,-62.6731 352.443,-63.9546"/>
<polygon fill="midnightblue" stroke="midnightblue" points="308.333,-56.4845 298.06,-59.0771 307.707,-63.4565 308.333,-56.4845"/>
</g>
<!-- Node4 -->
<g id="node7" class="node"><title>Node4</title>
<a xlink:href="class_power_state_graph.html#ac36cccb3fb0281f9b68e39ba28737770" target="_top" xlink:title="Attempts to find an existing vertex which is statistically similar to stat. If an existing similar ve...">
<polygon fill="white" stroke="black" points="334.5,-20.5 334.5,-41.5 527.5,-41.5 527.5,-20.5 334.5,-20.5"/>
<text text-anchor="middle" x="431" y="-28.5" font-family="Helvetica,sans-Serif" font-size="10.00">PowerStateGraph::updateOrInsertVertex</text>
</a>
</g>
<!-- Node2&#45;&gt;Node4 -->
<g id="edge6" class="edge"><title>Node2&#45;&gt;Node4</title>
<path fill="none" stroke="midnightblue" d="M308.225,-42.0112C316.932,-41.2303 325.732,-40.4411 334.409,-39.6629"/>
<polygon fill="midnightblue" stroke="midnightblue" points="307.707,-38.5435 298.06,-42.9229 308.333,-45.5155 307.707,-38.5435"/>
</g>
<!-- Node5 -->
<g id="node9" class="node"><title>Node5</title>
<a xlink:href="class_power_state_graph.html#a90ebffe4864640182b342a814af0f0a7" target="_top" xlink:title="Update or initialise Power State Graph.">
<polygon fill="white" stroke="black" points="564.5,-20.5 564.5,-41.5 693.5,-41.5 693.5,-20.5 564.5,-20.5"/>
<text text-anchor="middle" x="629" y="-28.5" font-family="Helvetica,sans-Serif" font-size="10.00">PowerStateGraph::update</text>
</a>
</g>
<!-- Node4&#45;&gt;Node5 -->
<g id="edge8" class="edge"><title>Node4&#45;&gt;Node5</title>
<path fill="none" stroke="midnightblue" d="M537.902,-31C546.936,-31 555.883,-31 564.437,-31"/>
<polygon fill="midnightblue" stroke="midnightblue" points="537.68,-27.5001 527.68,-31 537.68,-34.5001 537.68,-27.5001"/>
</g>
<!-- Node6 -->
<g id="node11" class="node"><title>Node6</title>
<a xlink:href="class_device.html#ad3d9721aca89723e22cf723149a39583" target="_top" xlink:title="Trains the powerStateGraph using signatures declared with loadSignatures(). To be called once signatu...">
<polygon fill="white" stroke="black" points="730.5,-20.5 730.5,-41.5 879.5,-41.5 879.5,-20.5 730.5,-20.5"/>
<text text-anchor="middle" x="805" y="-28.5" font-family="Helvetica,sans-Serif" font-size="10.00">Device::trainPowerStateGraph</text>
</a>
</g>
<!-- Node5&#45;&gt;Node6 -->
<g id="edge10" class="edge"><title>Node5&#45;&gt;Node6</title>
<path fill="none" stroke="midnightblue" d="M703.762,-31C712.562,-31 721.542,-31 730.34,-31"/>
<polygon fill="midnightblue" stroke="midnightblue" points="703.537,-27.5001 693.537,-31 703.536,-34.5001 703.537,-27.5001"/>
</g>
<!-- Node7 -->
<g id="node13" class="node"><title>Node7</title>
<a xlink:href="_main_8cpp.html#a0ddf1224851353fc92bfbff6f499fa97" target="_top" xlink:title="main">
<polygon fill="white" stroke="black" points="916,-20.5 916,-41.5 954,-41.5 954,-20.5 916,-20.5"/>
<text text-anchor="middle" x="935" y="-28.5" font-family="Helvetica,sans-Serif" font-size="10.00">main</text>
</a>
</g>
<!-- Node6&#45;&gt;Node7 -->
<g id="edge12" class="edge"><title>Node6&#45;&gt;Node7</title>
<path fill="none" stroke="midnightblue" d="M890.018,-31C899.574,-31 908.49,-31 915.822,-31"/>
<polygon fill="midnightblue" stroke="midnightblue" points="889.868,-27.5001 879.868,-31 889.868,-34.5001 889.868,-27.5001"/>
</g>
</g>
</svg>
