<?xml version="1.0" encoding="UTF-8" standalone="no"?>
<!DOCTYPE svg PUBLIC "-//W3C//DTD SVG 1.1//EN"
 "http://www.w3.org/Graphics/SVG/1.1/DTD/svg11.dtd">
<!-- Generated by graphviz version 2.26.3 (20100126.1600)
 -->
<!-- Title: G Pages: 1 -->
<svg width="402pt" height="200pt"
 viewBox="0.00 0.00 402.00 200.00" xmlns="http://www.w3.org/2000/svg" xmlns:xlink="http://www.w3.org/1999/xlink">
<g id="graph1" class="graph" transform="scale(1 1) rotate(0) translate(4 196)">
<title>G</title>
<polygon fill="white" stroke="white" points="-4,5 -4,-196 399,-196 399,5 -4,5"/>
<!-- Node1 -->
<g id="node1" class="node"><title>Node1</title>
<polygon fill="#bfbfbf" stroke="black" points="103.5,-1 103.5,-77 290.5,-77 290.5,-1 103.5,-1"/>
<text text-anchor="middle" x="197" y="-64" font-family="Helvetica,sans-Serif" font-size="10.00">PowerStateGraph::Disag_vertex_writer</text>
<polyline fill="none" stroke="black" points="103.5,-56 290.5,-56 "/>
<text text-anchor="start" x="111.5" y="-43" font-family="Helvetica,sans-Serif" font-size="10.00">+ g</text>
<polyline fill="none" stroke="black" points="103.5,-35 290.5,-35 "/>
<text text-anchor="start" x="111.5" y="-22" font-family="Helvetica,sans-Serif" font-size="10.00">+ Disag_vertex_writer()</text>
<text text-anchor="start" x="111.5" y="-9" font-family="Helvetica,sans-Serif" font-size="10.00">+ operator()()</text>
</g>
<!-- Node2 -->
<g id="node2" class="node"><title>Node2</title>
<polygon fill="white" stroke="#bfbfbf" points="-0.5,-128.5 -0.5,-191.5 394.5,-191.5 394.5,-128.5 -0.5,-128.5"/>
<text text-anchor="middle" x="197" y="-178.5" font-family="Helvetica,sans-Serif" font-size="10.00">adjacency_list&lt; boost::setS, boost::vecS, boost::bidirectionalS, DisagVertex, double &gt;</text>
<polyline fill="none" stroke="#bfbfbf" points="-0.5,-170.5 394.5,-170.5 "/>
<text text-anchor="middle" x="197" y="-157.5" font-family="Helvetica,sans-Serif" font-size="10.00"> </text>
<polyline fill="none" stroke="#bfbfbf" points="-0.5,-149.5 394.5,-149.5 "/>
<text text-anchor="middle" x="197" y="-136.5" font-family="Helvetica,sans-Serif" font-size="10.00"> </text>
</g>
<!-- Node2&#45;&gt;Node1 -->
<g id="edge2" class="edge"><title>Node2&#45;&gt;Node1</title>
<path fill="none" stroke="#9a32cd" stroke-dasharray="5,2" d="M197,-117.892C197,-104.608 197,-90.0181 197,-77.0361"/>
<polygon fill="#9a32cd" stroke="#9a32cd" points="197,-128.209 192.5,-118.209 197,-123.209 197,-118.209 197,-118.209 197,-118.209 197,-123.209 201.5,-118.209 197,-128.209 197,-128.209"/>
<text text-anchor="middle" x="200" y="-100.5" font-family="Helvetica,sans-Serif" font-size="10.00">g</text>
</g>
</g>
</svg>
