<?xml version="1.0" encoding="UTF-8" standalone="no"?>
<!DOCTYPE svg PUBLIC "-//W3C//DTD SVG 1.1//EN"
 "http://www.w3.org/Graphics/SVG/1.1/DTD/svg11.dtd">
<!-- Generated by graphviz version 2.26.3 (20100126.1600)
 -->
<!-- Title: G Pages: 1 -->
<svg width="268pt" height="238pt"
 viewBox="0.00 0.00 268.00 238.00" xmlns="http://www.w3.org/2000/svg" xmlns:xlink="http://www.w3.org/1999/xlink">
<g id="graph1" class="graph" transform="scale(1 1) rotate(0) translate(4 234)">
<title>G</title>
<polygon fill="white" stroke="white" points="-4,5 -4,-234 265,-234 265,5 -4,5"/>
<!-- Node1 -->
<g id="node1" class="node"><title>Node1</title>
<polygon fill="#bfbfbf" stroke="black" points="10,-1 10,-103 156,-103 156,-1 10,-1"/>
<text text-anchor="middle" x="83" y="-90" font-family="Helvetica,sans-Serif" font-size="10.00">PowerStateSequenceItem</text>
<polyline fill="none" stroke="black" points="10,-82 156,-82 "/>
<text text-anchor="start" x="18" y="-69" font-family="Helvetica,sans-Serif" font-size="10.00">+ powerState</text>
<text text-anchor="start" x="18" y="-56" font-family="Helvetica,sans-Serif" font-size="10.00">+ startTime</text>
<text text-anchor="start" x="18" y="-43" font-family="Helvetica,sans-Serif" font-size="10.00">+ endTime</text>
<text text-anchor="start" x="18" y="-30" font-family="Helvetica,sans-Serif" font-size="10.00">+ delta</text>
<polyline fill="none" stroke="black" points="10,-22 156,-22 "/>
<text text-anchor="start" x="18" y="-9" font-family="Helvetica,sans-Serif" font-size="10.00">+ PowerStateSequenceItem()</text>
</g>
<!-- Node2 -->
<g id="node2" class="node"><title>Node2</title>
<polygon fill="white" stroke="#bfbfbf" points="-0.5,-166.5 -0.5,-229.5 44.5,-229.5 44.5,-166.5 -0.5,-166.5"/>
<text text-anchor="middle" x="22" y="-216.5" font-family="Helvetica,sans-Serif" font-size="10.00">double</text>
<polyline fill="none" stroke="#bfbfbf" points="-0.5,-208.5 44.5,-208.5 "/>
<text text-anchor="middle" x="22" y="-195.5" font-family="Helvetica,sans-Serif" font-size="10.00"> </text>
<polyline fill="none" stroke="#bfbfbf" points="-0.5,-187.5 44.5,-187.5 "/>
<text text-anchor="middle" x="22" y="-174.5" font-family="Helvetica,sans-Serif" font-size="10.00"> </text>
</g>
<!-- Node2&#45;&gt;Node1 -->
<g id="edge2" class="edge"><title>Node2&#45;&gt;Node1</title>
<path fill="none" stroke="#9a32cd" stroke-dasharray="5,2" d="M39.1928,-156.85C46.1643,-140.164 54.2895,-120.717 61.6357,-103.134"/>
<polygon fill="#9a32cd" stroke="#9a32cd" points="35.2361,-166.32 34.9391,-155.358 37.1637,-161.707 39.0913,-157.093 39.0913,-157.093 39.0913,-157.093 37.1637,-161.707 43.2434,-158.828 35.2361,-166.32 35.2361,-166.32"/>
<text text-anchor="middle" x="64" y="-132.5" font-family="Helvetica,sans-Serif" font-size="10.00">delta</text>
</g>
<!-- Node3 -->
<g id="node4" class="node"><title>Node3</title>
<a xlink:href="classsize__t.html" target="_top" xlink:title="{size_t\n||}">
<polygon fill="white" stroke="black" points="61.5,-166.5 61.5,-229.5 104.5,-229.5 104.5,-166.5 61.5,-166.5"/>
<text text-anchor="middle" x="83" y="-216.5" font-family="Helvetica,sans-Serif" font-size="10.00">size_t</text>
<polyline fill="none" stroke="black" points="61.5,-208.5 104.5,-208.5 "/>
<text text-anchor="middle" x="83" y="-195.5" font-family="Helvetica,sans-Serif" font-size="10.00"> </text>
<polyline fill="none" stroke="black" points="61.5,-187.5 104.5,-187.5 "/>
<text text-anchor="middle" x="83" y="-174.5" font-family="Helvetica,sans-Serif" font-size="10.00"> </text>
</a>
</g>
<!-- Node3&#45;&gt;Node1 -->
<g id="edge4" class="edge"><title>Node3&#45;&gt;Node1</title>
<path fill="none" stroke="#9a32cd" stroke-dasharray="5,2" d="M83,-155.911C83,-139.438 83,-120.388 83,-103.134"/>
<polygon fill="#9a32cd" stroke="#9a32cd" points="83,-166.32 78.5001,-156.32 83,-161.32 83.0001,-156.32 83.0001,-156.32 83.0001,-156.32 83,-161.32 87.5001,-156.32 83,-166.32 83,-166.32"/>
<text text-anchor="middle" x="104" y="-139" font-family="Helvetica,sans-Serif" font-size="10.00">endTime</text>
<text text-anchor="middle" x="104" y="-126" font-family="Helvetica,sans-Serif" font-size="10.00">startTime</text>
</g>
<!-- Node4 -->
<g id="node6" class="node"><title>Node4</title>
<a xlink:title="STL iterator class.">
<polygon fill="white" stroke="#bfbfbf" points="122,-166.5 122,-229.5 260,-229.5 260,-166.5 122,-166.5"/>
<text text-anchor="middle" x="191" y="-216.5" font-family="Helvetica,sans-Serif" font-size="10.00">std::list&lt; T &gt;::const_iterator</text>
<polyline fill="none" stroke="#bfbfbf" points="122,-208.5 260,-208.5 "/>
<text text-anchor="middle" x="191" y="-195.5" font-family="Helvetica,sans-Serif" font-size="10.00"> </text>
<polyline fill="none" stroke="#bfbfbf" points="122,-187.5 260,-187.5 "/>
<text text-anchor="middle" x="191" y="-174.5" font-family="Helvetica,sans-Serif" font-size="10.00"> </text>
</a>
</g>
<!-- Node4&#45;&gt;Node1 -->
<g id="edge6" class="edge"><title>Node4&#45;&gt;Node1</title>
<path fill="none" stroke="#9a32cd" stroke-dasharray="5,2" d="M161.594,-158.247C149.025,-141.256 134.196,-121.21 120.825,-103.134"/>
<polygon fill="#9a32cd" stroke="#9a32cd" points="167.566,-166.32 158.001,-160.957 164.592,-162.3 161.619,-158.281 161.619,-158.281 161.619,-158.281 164.592,-162.3 165.236,-155.605 167.566,-166.32 167.566,-166.32"/>
<text text-anchor="middle" x="177" y="-132.5" font-family="Helvetica,sans-Serif" font-size="10.00">powerState</text>
</g>
</g>
</svg>
