<?xml version="1.0" encoding="UTF-8" standalone="no"?>
<!DOCTYPE svg PUBLIC "-//W3C//DTD SVG 1.1//EN"
 "http://www.w3.org/Graphics/SVG/1.1/DTD/svg11.dtd">
<!-- Generated by graphviz version 2.26.3 (20100126.1600)
 -->
<!-- Title: G Pages: 1 -->
<svg width="636pt" height="110pt"
 viewBox="0.00 0.00 636.00 110.00" xmlns="http://www.w3.org/2000/svg" xmlns:xlink="http://www.w3.org/1999/xlink">
<g id="graph1" class="graph" transform="scale(1 1) rotate(0) translate(4 106)">
<title>G</title>
<polygon fill="white" stroke="white" points="-4,5 -4,-106 633,-106 633,5 -4,5"/>
<!-- Node1 -->
<g id="node1" class="node"><title>Node1</title>
<polygon fill="#bfbfbf" stroke="black" points="0.5,-40.5 0.5,-61.5 173.5,-61.5 173.5,-40.5 0.5,-40.5"/>
<text text-anchor="middle" x="87" y="-48.5" font-family="Helvetica,sans-Serif" font-size="10.00">Signature::Spike::compareIndexAsc</text>
</g>
<!-- Node2 -->
<g id="node3" class="node"><title>Node2</title>
<a xlink:href="class_device.html#a54d749a3f88565a707388b3e5e8cf3fe" target="_top" xlink:title="Device::getSalientSpikes">
<polygon fill="white" stroke="black" points="225.5,-80.5 225.5,-101.5 352.5,-101.5 352.5,-80.5 225.5,-80.5"/>
<text text-anchor="middle" x="289" y="-88.5" font-family="Helvetica,sans-Serif" font-size="10.00">Device::getSalientSpikes</text>
</a>
</g>
<!-- Node1&#45;&gt;Node2 -->
<g id="edge2" class="edge"><title>Node1&#45;&gt;Node2</title>
<path fill="none" stroke="midnightblue" d="M150.015,-63.4781C177.592,-68.939 209.592,-75.2757 235.931,-80.4913"/>
<polygon fill="midnightblue" stroke="midnightblue" points="150.563,-60.0188 140.073,-61.5095 149.203,-66.8854 150.563,-60.0188"/>
</g>
<!-- Node4 -->
<g id="node7" class="node"><title>Node4</title>
<a xlink:href="class_power_state_graph.html#a90ebffe4864640182b342a814af0f0a7" target="_top" xlink:title="Update or initialise Power State Graph.">
<polygon fill="white" stroke="black" points="224.5,-40.5 224.5,-61.5 353.5,-61.5 353.5,-40.5 224.5,-40.5"/>
<text text-anchor="middle" x="289" y="-48.5" font-family="Helvetica,sans-Serif" font-size="10.00">PowerStateGraph::update</text>
</a>
</g>
<!-- Node1&#45;&gt;Node4 -->
<g id="edge6" class="edge"><title>Node1&#45;&gt;Node4</title>
<path fill="none" stroke="midnightblue" d="M183.571,-51C197.386,-51 211.312,-51 224.313,-51"/>
<polygon fill="midnightblue" stroke="midnightblue" points="183.545,-47.5001 173.545,-51 183.545,-54.5001 183.545,-47.5001"/>
</g>
<!-- Node7 -->
<g id="node13" class="node"><title>Node7</title>
<a xlink:href="class_power_state_graph.html#a26384a0a6d9867d336814b70b7a22cd3" target="_top" xlink:title="Update (or create) directional edges between power states (vertices) so the edges are consistent with...">
<polygon fill="white" stroke="black" points="210.5,-0.5 210.5,-21.5 367.5,-21.5 367.5,-0.5 210.5,-0.5"/>
<text text-anchor="middle" x="289" y="-8.5" font-family="Helvetica,sans-Serif" font-size="10.00">PowerStateGraph::updateEdges</text>
</a>
</g>
<!-- Node1&#45;&gt;Node7 -->
<g id="edge12" class="edge"><title>Node1&#45;&gt;Node7</title>
<path fill="none" stroke="midnightblue" d="M150.015,-38.5219C177.592,-33.061 209.592,-26.7243 235.931,-21.5087"/>
<polygon fill="midnightblue" stroke="midnightblue" points="149.203,-35.1146 140.073,-40.4905 150.563,-41.9812 149.203,-35.1146"/>
</g>
<!-- Node3 -->
<g id="node5" class="node"><title>Node3</title>
<a xlink:href="class_device.html#a47fcd7e3c739ede14fdb27407d1b4481" target="_top" xlink:title="Device::getStartTimes">
<polygon fill="white" stroke="black" points="421.5,-80.5 421.5,-101.5 536.5,-101.5 536.5,-80.5 421.5,-80.5"/>
<text text-anchor="middle" x="479" y="-88.5" font-family="Helvetica,sans-Serif" font-size="10.00">Device::getStartTimes</text>
</a>
</g>
<!-- Node2&#45;&gt;Node3 -->
<g id="edge4" class="edge"><title>Node2&#45;&gt;Node3</title>
<path fill="none" stroke="midnightblue" d="M362.58,-91C382.053,-91 402.792,-91 421.29,-91"/>
<polygon fill="midnightblue" stroke="midnightblue" points="362.531,-87.5001 352.531,-91 362.531,-94.5001 362.531,-87.5001"/>
</g>
<!-- Node5 -->
<g id="node9" class="node"><title>Node5</title>
<a xlink:href="class_device.html#ad3d9721aca89723e22cf723149a39583" target="_top" xlink:title="Trains the powerStateGraph using signatures declared with loadSignatures(). To be called once signatu...">
<polygon fill="white" stroke="black" points="404.5,-40.5 404.5,-61.5 553.5,-61.5 553.5,-40.5 404.5,-40.5"/>
<text text-anchor="middle" x="479" y="-48.5" font-family="Helvetica,sans-Serif" font-size="10.00">Device::trainPowerStateGraph</text>
</a>
</g>
<!-- Node4&#45;&gt;Node5 -->
<g id="edge8" class="edge"><title>Node4&#45;&gt;Node5</title>
<path fill="none" stroke="midnightblue" d="M363.703,-51C377.095,-51 391.051,-51 404.44,-51"/>
<polygon fill="midnightblue" stroke="midnightblue" points="363.59,-47.5001 353.59,-51 363.59,-54.5001 363.59,-47.5001"/>
</g>
<!-- Node6 -->
<g id="node11" class="node"><title>Node6</title>
<a xlink:href="_main_8cpp.html#a0ddf1224851353fc92bfbff6f499fa97" target="_top" xlink:title="main">
<polygon fill="white" stroke="black" points="590,-40.5 590,-61.5 628,-61.5 628,-40.5 590,-40.5"/>
<text text-anchor="middle" x="609" y="-48.5" font-family="Helvetica,sans-Serif" font-size="10.00">main</text>
</a>
</g>
<!-- Node5&#45;&gt;Node6 -->
<g id="edge10" class="edge"><title>Node5&#45;&gt;Node6</title>
<path fill="none" stroke="midnightblue" d="M564.018,-51C573.574,-51 582.49,-51 589.822,-51"/>
<polygon fill="midnightblue" stroke="midnightblue" points="563.868,-47.5001 553.868,-51 563.868,-54.5001 563.868,-47.5001"/>
</g>
</g>
</svg>
