<?xml version="1.0" encoding="UTF-8" standalone="no"?>
<!DOCTYPE svg PUBLIC "-//W3C//DTD SVG 1.1//EN"
 "http://www.w3.org/Graphics/SVG/1.1/DTD/svg11.dtd">
<!-- Generated by graphviz version 2.26.3 (20100126.1600)
 -->
<!-- Title: G Pages: 1 -->
<svg width="163pt" height="354pt"
 viewBox="0.00 0.00 163.00 354.00" xmlns="http://www.w3.org/2000/svg" xmlns:xlink="http://www.w3.org/1999/xlink">
<g id="graph1" class="graph" transform="scale(1 1) rotate(0) translate(4 350)">
<title>G</title>
<polygon fill="white" stroke="white" points="-4,5 -4,-350 160,-350 160,5 -4,5"/>
<!-- Node1 -->
<g id="node1" class="node"><title>Node1</title>
<polygon fill="#bfbfbf" stroke="black" points="5.5,-1 5.5,-103 104.5,-103 104.5,-1 5.5,-1"/>
<text text-anchor="middle" x="55" y="-90" font-family="Helvetica,sans-Serif" font-size="10.00">GNUplot::PlotData</text>
<polyline fill="none" stroke="black" points="5.5,-82 104.5,-82 "/>
<text text-anchor="start" x="13.5" y="-69" font-family="Helvetica,sans-Serif" font-size="10.00">+ dataFile</text>
<text text-anchor="start" x="13.5" y="-56" font-family="Helvetica,sans-Serif" font-size="10.00">+ title</text>
<text text-anchor="start" x="13.5" y="-43" font-family="Helvetica,sans-Serif" font-size="10.00">+ tokenBase</text>
<text text-anchor="start" x="13.5" y="-30" font-family="Helvetica,sans-Serif" font-size="10.00">+ useDefaults</text>
<polyline fill="none" stroke="black" points="5.5,-22 104.5,-22 "/>
<text text-anchor="start" x="13.5" y="-9" font-family="Helvetica,sans-Serif" font-size="10.00">+ PlotData()</text>
</g>
<!-- Node2 -->
<g id="node2" class="node"><title>Node2</title>
<polygon fill="white" stroke="#bfbfbf" points="-0.5,-180.5 -0.5,-243.5 34.5,-243.5 34.5,-180.5 -0.5,-180.5"/>
<text text-anchor="middle" x="17" y="-230.5" font-family="Helvetica,sans-Serif" font-size="10.00">bool</text>
<polyline fill="none" stroke="#bfbfbf" points="-0.5,-222.5 34.5,-222.5 "/>
<text text-anchor="middle" x="17" y="-209.5" font-family="Helvetica,sans-Serif" font-size="10.00"> </text>
<polyline fill="none" stroke="#bfbfbf" points="-0.5,-201.5 34.5,-201.5 "/>
<text text-anchor="middle" x="17" y="-188.5" font-family="Helvetica,sans-Serif" font-size="10.00"> </text>
</g>
<!-- Node2&#45;&gt;Node1 -->
<g id="edge2" class="edge"><title>Node2&#45;&gt;Node1</title>
<path fill="none" stroke="#9a32cd" stroke-dasharray="5,2" d="M13.3881,-170.051C13.1299,-154.724 14.094,-137.382 18,-122 19.5901,-115.738 21.8435,-109.416 24.463,-103.267"/>
<polygon fill="#9a32cd" stroke="#9a32cd" points="13.7411,-180.29 8.89916,-170.451 13.5688,-175.293 13.3965,-170.296 13.3965,-170.296 13.3965,-170.296 13.5688,-175.293 17.8938,-170.141 13.7411,-180.29 13.7411,-180.29"/>
<text text-anchor="middle" x="44.5" y="-139.5" font-family="Helvetica,sans-Serif" font-size="10.00">useDefaults</text>
</g>
<!-- Node3 -->
<g id="node4" class="node"><title>Node3</title>
<a xlink:title="STL class.">
<polygon fill="white" stroke="#bfbfbf" points="63,-180.5 63,-243.5 123,-243.5 123,-180.5 63,-180.5"/>
<text text-anchor="middle" x="93" y="-230.5" font-family="Helvetica,sans-Serif" font-size="10.00">std::string</text>
<polyline fill="none" stroke="#bfbfbf" points="63,-222.5 123,-222.5 "/>
<text text-anchor="middle" x="93" y="-209.5" font-family="Helvetica,sans-Serif" font-size="10.00"> </text>
<polyline fill="none" stroke="#bfbfbf" points="63,-201.5 123,-201.5 "/>
<text text-anchor="middle" x="93" y="-188.5" font-family="Helvetica,sans-Serif" font-size="10.00"> </text>
</a>
</g>
<!-- Node3&#45;&gt;Node1 -->
<g id="edge4" class="edge"><title>Node3&#45;&gt;Node1</title>
<path fill="none" stroke="#9a32cd" stroke-dasharray="5,2" d="M83.1149,-170.378C78.2285,-149.804 72.288,-124.792 67.1287,-103.068"/>
<polygon fill="#9a32cd" stroke="#9a32cd" points="85.4924,-180.389 78.8034,-171.7 84.337,-175.524 83.1816,-170.66 83.1816,-170.66 83.1816,-170.66 84.337,-175.524 87.5598,-169.62 85.4924,-180.389 85.4924,-180.389"/>
<text text-anchor="middle" x="103.5" y="-152.5" font-family="Helvetica,sans-Serif" font-size="10.00">title</text>
<text text-anchor="middle" x="103.5" y="-139.5" font-family="Helvetica,sans-Serif" font-size="10.00">tokenBase</text>
<text text-anchor="middle" x="103.5" y="-126.5" font-family="Helvetica,sans-Serif" font-size="10.00">dataFile</text>
</g>
<!-- Node4 -->
<g id="node6" class="node"><title>Node4</title>
<a xlink:title="STL class.">
<polygon fill="white" stroke="#bfbfbf" points="30.5,-282.5 30.5,-345.5 155.5,-345.5 155.5,-282.5 30.5,-282.5"/>
<text text-anchor="middle" x="93" y="-332.5" font-family="Helvetica,sans-Serif" font-size="10.00">std::basic_string&lt; char &gt;</text>
<polyline fill="none" stroke="#bfbfbf" points="30.5,-324.5 155.5,-324.5 "/>
<text text-anchor="middle" x="93" y="-311.5" font-family="Helvetica,sans-Serif" font-size="10.00"> </text>
<polyline fill="none" stroke="#bfbfbf" points="30.5,-303.5 155.5,-303.5 "/>
<text text-anchor="middle" x="93" y="-290.5" font-family="Helvetica,sans-Serif" font-size="10.00"> </text>
</a>
</g>
<!-- Node4&#45;&gt;Node3 -->
<g id="edge6" class="edge"><title>Node4&#45;&gt;Node3</title>
<path fill="none" stroke="midnightblue" d="M93,-272.194C93,-262.674 93,-252.712 93,-243.695"/>
<polygon fill="none" stroke="midnightblue" points="89.5001,-272.286 93,-282.286 96.5001,-272.286 89.5001,-272.286"/>
</g>
</g>
</svg>
