<?xml version="1.0" encoding="UTF-8" standalone="no"?>
<!DOCTYPE svg PUBLIC "-//W3C//DTD SVG 1.1//EN"
 "http://www.w3.org/Graphics/SVG/1.1/DTD/svg11.dtd">
<!-- Generated by graphviz version 2.26.3 (20100126.1600)
 -->
<!-- Title: G Pages: 1 -->
<svg width="174pt" height="200pt"
 viewBox="0.00 0.00 174.00 200.00" xmlns="http://www.w3.org/2000/svg" xmlns:xlink="http://www.w3.org/1999/xlink">
<g id="graph1" class="graph" transform="scale(1 1) rotate(0) translate(4 196)">
<title>G</title>
<polygon fill="white" stroke="white" points="-4,5 -4,-196 171,-196 171,5 -4,5"/>
<!-- Node1 -->
<g id="node1" class="node"><title>Node1</title>
<polygon fill="#bfbfbf" stroke="black" points="-0.5,-1 -0.5,-77 166.5,-77 166.5,-1 -0.5,-1"/>
<text text-anchor="middle" x="83" y="-64" font-family="Helvetica,sans-Serif" font-size="10.00">PowerStateGraph::TimeAndPower</text>
<polyline fill="none" stroke="black" points="-0.5,-56 166.5,-56 "/>
<text text-anchor="start" x="7.5" y="-43" font-family="Helvetica,sans-Serif" font-size="10.00">+ timestamp</text>
<text text-anchor="start" x="7.5" y="-30" font-family="Helvetica,sans-Serif" font-size="10.00">+ meanPower</text>
<polyline fill="none" stroke="black" points="-0.5,-22 166.5,-22 "/>
<text text-anchor="start" x="7.5" y="-9" font-family="Helvetica,sans-Serif" font-size="10.00">+ TimeAndPower()</text>
</g>
<!-- Node2 -->
<g id="node2" class="node"><title>Node2</title>
<polygon fill="white" stroke="#bfbfbf" points="23.5,-128.5 23.5,-191.5 68.5,-191.5 68.5,-128.5 23.5,-128.5"/>
<text text-anchor="middle" x="46" y="-178.5" font-family="Helvetica,sans-Serif" font-size="10.00">double</text>
<polyline fill="none" stroke="#bfbfbf" points="23.5,-170.5 68.5,-170.5 "/>
<text text-anchor="middle" x="46" y="-157.5" font-family="Helvetica,sans-Serif" font-size="10.00"> </text>
<polyline fill="none" stroke="#bfbfbf" points="23.5,-149.5 68.5,-149.5 "/>
<text text-anchor="middle" x="46" y="-136.5" font-family="Helvetica,sans-Serif" font-size="10.00"> </text>
</g>
<!-- Node2&#45;&gt;Node1 -->
<g id="edge2" class="edge"><title>Node2&#45;&gt;Node1</title>
<path fill="none" stroke="#9a32cd" stroke-dasharray="5,2" d="M43.3753,-118.184C43.826,-110.688 44.9065,-103.029 47,-96 48.9043,-89.6061 51.7454,-83.2337 55.0116,-77.1902"/>
<polygon fill="#9a32cd" stroke="#9a32cd" points="43.1151,-128.231 38.8756,-118.118 43.2446,-123.233 43.3741,-118.235 43.3741,-118.235 43.3741,-118.235 43.2446,-123.233 47.8726,-118.351 43.1151,-128.231 43.1151,-128.231"/>
<text text-anchor="middle" x="73" y="-100.5" font-family="Helvetica,sans-Serif" font-size="10.00">meanPower</text>
</g>
<!-- Node3 -->
<g id="node4" class="node"><title>Node3</title>
<a xlink:href="classsize__t.html" target="_top" xlink:title="{size_t\n||}">
<polygon fill="white" stroke="black" points="99.5,-128.5 99.5,-191.5 142.5,-191.5 142.5,-128.5 99.5,-128.5"/>
<text text-anchor="middle" x="121" y="-178.5" font-family="Helvetica,sans-Serif" font-size="10.00">size_t</text>
<polyline fill="none" stroke="black" points="99.5,-170.5 142.5,-170.5 "/>
<text text-anchor="middle" x="121" y="-157.5" font-family="Helvetica,sans-Serif" font-size="10.00"> </text>
<polyline fill="none" stroke="black" points="99.5,-149.5 142.5,-149.5 "/>
<text text-anchor="middle" x="121" y="-136.5" font-family="Helvetica,sans-Serif" font-size="10.00"> </text>
</a>
</g>
<!-- Node3&#45;&gt;Node1 -->
<g id="edge4" class="edge"><title>Node3&#45;&gt;Node1</title>
<path fill="none" stroke="#9a32cd" stroke-dasharray="5,2" d="M107.9,-118.286C103.695,-104.898 99.0626,-90.1466 94.9452,-77.0361"/>
<polygon fill="#9a32cd" stroke="#9a32cd" points="111.016,-128.209 103.726,-120.016 109.518,-123.438 108.02,-118.668 108.02,-118.668 108.02,-118.668 109.518,-123.438 112.313,-117.32 111.016,-128.209 111.016,-128.209"/>
<text text-anchor="middle" x="127" y="-100.5" font-family="Helvetica,sans-Serif" font-size="10.00">timestamp</text>
</g>
</g>
</svg>
