<?xml version="1.0" encoding="UTF-8" standalone="no"?>
<!DOCTYPE svg PUBLIC "-//W3C//DTD SVG 1.1//EN"
 "http://www.w3.org/Graphics/SVG/1.1/DTD/svg11.dtd">
<!-- Generated by graphviz version 2.26.3 (20100126.1600)
 -->
<!-- Title: G Pages: 1 -->
<svg width="259pt" height="484pt"
 viewBox="0.00 0.00 259.00 484.00" xmlns="http://www.w3.org/2000/svg" xmlns:xlink="http://www.w3.org/1999/xlink">
<g id="graph1" class="graph" transform="scale(1 1) rotate(0) translate(4 480)">
<title>G</title>
<polygon fill="white" stroke="white" points="-4,5 -4,-480 256,-480 256,5 -4,5"/>
<!-- Node1 -->
<g id="node1" class="node"><title>Node1</title>
<polygon fill="#bfbfbf" stroke="black" points="58,-0.5 58,-349.5 180,-349.5 180,-0.5 58,-0.5"/>
<text text-anchor="middle" x="119" y="-336.5" font-family="Helvetica,sans-Serif" font-size="10.00">Statistic&lt; T &gt;</text>
<polyline fill="none" stroke="black" points="58,-328.5 180,-328.5 "/>
<text text-anchor="start" x="66" y="-315.5" font-family="Helvetica,sans-Serif" font-size="10.00">+ mean</text>
<text text-anchor="start" x="66" y="-302.5" font-family="Helvetica,sans-Serif" font-size="10.00">+ stdev</text>
<text text-anchor="start" x="66" y="-289.5" font-family="Helvetica,sans-Serif" font-size="10.00">+ min</text>
<text text-anchor="start" x="66" y="-276.5" font-family="Helvetica,sans-Serif" font-size="10.00">+ max</text>
<text text-anchor="start" x="66" y="-263.5" font-family="Helvetica,sans-Serif" font-size="10.00">+ numDataPoints</text>
<text text-anchor="start" x="66" y="-250.5" font-family="Helvetica,sans-Serif" font-size="10.00">+ dataStore</text>
<polyline fill="none" stroke="black" points="58,-242.5 180,-242.5 "/>
<text text-anchor="start" x="66" y="-229.5" font-family="Helvetica,sans-Serif" font-size="10.00">+ Statistic()</text>
<text text-anchor="start" x="66" y="-216.5" font-family="Helvetica,sans-Serif" font-size="10.00">+ Statistic()</text>
<text text-anchor="start" x="66" y="-203.5" font-family="Helvetica,sans-Serif" font-size="10.00">+ Statistic()</text>
<text text-anchor="start" x="66" y="-190.5" font-family="Helvetica,sans-Serif" font-size="10.00">+ Statistic()</text>
<text text-anchor="start" x="66" y="-177.5" font-family="Helvetica,sans-Serif" font-size="10.00">+ update()</text>
<text text-anchor="start" x="66" y="-164.5" font-family="Helvetica,sans-Serif" font-size="10.00">+ update()</text>
<text text-anchor="start" x="66" y="-151.5" font-family="Helvetica,sans-Serif" font-size="10.00">+ calcStdev()</text>
<text text-anchor="start" x="66" y="-138.5" font-family="Helvetica,sans-Serif" font-size="10.00">+ update()</text>
<text text-anchor="start" x="66" y="-125.5" font-family="Helvetica,sans-Serif" font-size="10.00">+ similar()</text>
<text text-anchor="start" x="66" y="-112.5" font-family="Helvetica,sans-Serif" font-size="10.00">+ tTest()</text>
<text text-anchor="start" x="66" y="-99.5" font-family="Helvetica,sans-Serif" font-size="10.00">+ nonZeroStdev()</text>
<text text-anchor="start" x="66" y="-86.5" font-family="Helvetica,sans-Serif" font-size="10.00">+ normalisedLikelihood()</text>
<text text-anchor="start" x="66" y="-73.5" font-family="Helvetica,sans-Serif" font-size="10.00">+ outputStateBarsLine()</text>
<text text-anchor="start" x="66" y="-60.5" font-family="Helvetica,sans-Serif" font-size="10.00">+ getMean()</text>
<text text-anchor="start" x="66" y="-47.5" font-family="Helvetica,sans-Serif" font-size="10.00">+ getStdev()</text>
<text text-anchor="start" x="66" y="-34.5" font-family="Helvetica,sans-Serif" font-size="10.00">+ getMin()</text>
<text text-anchor="start" x="66" y="-21.5" font-family="Helvetica,sans-Serif" font-size="10.00">+ getMax()</text>
<text text-anchor="start" x="66" y="-8.5" font-family="Helvetica,sans-Serif" font-size="10.00">+ getNumDataPoints()</text>
</g>
<!-- Node2 -->
<g id="node2" class="node"><title>Node2</title>
<polygon fill="white" stroke="#bfbfbf" points="-0.5,-412.5 -0.5,-475.5 52.5,-475.5 52.5,-412.5 -0.5,-412.5"/>
<text text-anchor="middle" x="26" y="-462.5" font-family="Helvetica,sans-Serif" font-size="10.00">list&lt; T &gt;</text>
<polyline fill="none" stroke="#bfbfbf" points="-0.5,-454.5 52.5,-454.5 "/>
<text text-anchor="middle" x="26" y="-441.5" font-family="Helvetica,sans-Serif" font-size="10.00"> </text>
<polyline fill="none" stroke="#bfbfbf" points="-0.5,-433.5 52.5,-433.5 "/>
<text text-anchor="middle" x="26" y="-420.5" font-family="Helvetica,sans-Serif" font-size="10.00"> </text>
</g>
<!-- Node2&#45;&gt;Node1 -->
<g id="edge2" class="edge"><title>Node2&#45;&gt;Node1</title>
<path fill="none" stroke="#9a32cd" stroke-dasharray="5,2" d="M38.0276,-402.793C41.451,-391.476 45.267,-379.231 49,-368 51.8669,-359.375 54.8571,-350.553 57.9178,-341.66"/>
<polygon fill="#9a32cd" stroke="#9a32cd" points="35.1322,-412.45 33.6939,-401.578 36.5683,-407.66 38.0043,-402.871 38.0043,-402.871 38.0043,-402.871 36.5683,-407.66 42.3147,-404.163 35.1322,-412.45 35.1322,-412.45"/>
<text text-anchor="middle" x="70.5" y="-378.5" font-family="Helvetica,sans-Serif" font-size="10.00">dataStore</text>
</g>
<!-- Node3 -->
<g id="node4" class="node"><title>Node3</title>
<polygon fill="white" stroke="#bfbfbf" points="69.5,-412.5 69.5,-475.5 114.5,-475.5 114.5,-412.5 69.5,-412.5"/>
<text text-anchor="middle" x="92" y="-462.5" font-family="Helvetica,sans-Serif" font-size="10.00">double</text>
<polyline fill="none" stroke="#bfbfbf" points="69.5,-454.5 114.5,-454.5 "/>
<text text-anchor="middle" x="92" y="-441.5" font-family="Helvetica,sans-Serif" font-size="10.00"> </text>
<polyline fill="none" stroke="#bfbfbf" points="69.5,-433.5 114.5,-433.5 "/>
<text text-anchor="middle" x="92" y="-420.5" font-family="Helvetica,sans-Serif" font-size="10.00"> </text>
</g>
<!-- Node3&#45;&gt;Node1 -->
<g id="edge4" class="edge"><title>Node3&#45;&gt;Node1</title>
<path fill="none" stroke="#9a32cd" stroke-dasharray="5,2" d="M95.789,-401.925C96.8068,-390.885 97.9242,-378.993 99,-368 99.5906,-361.965 100.197,-355.825 100.814,-349.624"/>
<polygon fill="#9a32cd" stroke="#9a32cd" points="94.8482,-412.192 91.2796,-401.823 95.3045,-407.213 95.7608,-402.233 95.7608,-402.233 95.7608,-402.233 95.3045,-407.213 100.242,-402.644 94.8482,-412.192 94.8482,-412.192"/>
<text text-anchor="middle" x="111.5" y="-385" font-family="Helvetica,sans-Serif" font-size="10.00">mean</text>
<text text-anchor="middle" x="111.5" y="-372" font-family="Helvetica,sans-Serif" font-size="10.00">stdev</text>
</g>
<!-- Node4 -->
<g id="node6" class="node"><title>Node4</title>
<a xlink:href="classsize__t.html" target="_top" xlink:title="{size_t\n||}">
<polygon fill="white" stroke="black" points="131.5,-412.5 131.5,-475.5 174.5,-475.5 174.5,-412.5 131.5,-412.5"/>
<text text-anchor="middle" x="153" y="-462.5" font-family="Helvetica,sans-Serif" font-size="10.00">size_t</text>
<polyline fill="none" stroke="black" points="131.5,-454.5 174.5,-454.5 "/>
<text text-anchor="middle" x="153" y="-441.5" font-family="Helvetica,sans-Serif" font-size="10.00"> </text>
<polyline fill="none" stroke="black" points="131.5,-433.5 174.5,-433.5 "/>
<text text-anchor="middle" x="153" y="-420.5" font-family="Helvetica,sans-Serif" font-size="10.00"> </text>
</a>
</g>
<!-- Node4&#45;&gt;Node1 -->
<g id="edge6" class="edge"><title>Node4&#45;&gt;Node1</title>
<path fill="none" stroke="#9a32cd" stroke-dasharray="5,2" d="M147.743,-402.404C145.833,-387.299 143.538,-369.136 141.087,-349.744"/>
<polygon fill="#9a32cd" stroke="#9a32cd" points="149,-412.351 143.281,-402.995 148.373,-407.391 147.746,-402.43 147.746,-402.43 147.746,-402.43 148.373,-407.391 152.21,-401.866 149,-412.351 149,-412.351"/>
<text text-anchor="middle" x="180" y="-378.5" font-family="Helvetica,sans-Serif" font-size="10.00">numDataPoints</text>
</g>
<!-- Node5 -->
<g id="node8" class="node"><title>Node5</title>
<polygon fill="white" stroke="#bfbfbf" points="222.5,-412.5 222.5,-475.5 251.5,-475.5 251.5,-412.5 222.5,-412.5"/>
<text text-anchor="middle" x="237" y="-462.5" font-family="Helvetica,sans-Serif" font-size="10.00">T</text>
<polyline fill="none" stroke="#bfbfbf" points="222.5,-454.5 251.5,-454.5 "/>
<text text-anchor="middle" x="237" y="-441.5" font-family="Helvetica,sans-Serif" font-size="10.00"> </text>
<polyline fill="none" stroke="#bfbfbf" points="222.5,-433.5 251.5,-433.5 "/>
<text text-anchor="middle" x="237" y="-420.5" font-family="Helvetica,sans-Serif" font-size="10.00"> </text>
</g>
<!-- Node5&#45;&gt;Node1 -->
<g id="edge8" class="edge"><title>Node5&#45;&gt;Node1</title>
<path fill="none" stroke="#9a32cd" stroke-dasharray="5,2" d="M226.439,-402.47C223.167,-391.153 219.283,-378.988 215,-368 204.875,-342.023 192.512,-314.821 180.072,-289.306"/>
<polygon fill="#9a32cd" stroke="#9a32cd" points="229.151,-412.147 222.119,-403.732 227.802,-407.332 226.452,-402.518 226.452,-402.518 226.452,-402.518 227.802,-407.332 230.785,-401.303 229.151,-412.147 229.151,-412.147"/>
<text text-anchor="middle" x="232.5" y="-385" font-family="Helvetica,sans-Serif" font-size="10.00">min</text>
<text text-anchor="middle" x="232.5" y="-372" font-family="Helvetica,sans-Serif" font-size="10.00">max</text>
</g>
</g>
</svg>
