<?xml version="1.0" encoding="UTF-8" standalone="no"?>
<!DOCTYPE svg PUBLIC "-//W3C//DTD SVG 1.1//EN"
 "http://www.w3.org/Graphics/SVG/1.1/DTD/svg11.dtd">
<!-- Generated by graphviz version 2.26.3 (20100126.1600)
 -->
<!-- Title: G Pages: 1 -->
<svg width="1028pt" height="110pt"
 viewBox="0.00 0.00 1028.00 110.00" xmlns="http://www.w3.org/2000/svg" xmlns:xlink="http://www.w3.org/1999/xlink">
<g id="graph1" class="graph" transform="scale(1 1) rotate(0) translate(4 106)">
<title>G</title>
<polygon fill="white" stroke="white" points="-4,5 -4,-106 1025,-106 1025,5 -4,5"/>
<!-- Node1 -->
<g id="node1" class="node"><title>Node1</title>
<polygon fill="#bfbfbf" stroke="black" points="0.5,-40.5 0.5,-61.5 119.5,-61.5 119.5,-40.5 0.5,-40.5"/>
<text text-anchor="middle" x="60" y="-48.5" font-family="Helvetica,sans-Serif" font-size="10.00">Statistic::nonZeroStdev</text>
</g>
<!-- Node2 -->
<g id="node3" class="node"><title>Node2</title>
<a xlink:href="class_aggregate_data.html#ada468d155767d721c755405582d108ee" target="_top" xlink:title="Find all spikes in aggregate data which fit spikeStats.">
<polygon fill="white" stroke="black" points="197,-80.5 197,-101.5 325,-101.5 325,-80.5 197,-80.5"/>
<text text-anchor="middle" x="261" y="-88.5" font-family="Helvetica,sans-Serif" font-size="10.00">AggregateData::findSpike</text>
</a>
</g>
<!-- Node1&#45;&gt;Node2 -->
<g id="edge2" class="edge"><title>Node1&#45;&gt;Node2</title>
<path fill="none" stroke="midnightblue" d="M119.723,-63.6081C131.728,-66.0957 144.261,-68.6593 156,-71 171.833,-74.1569 189.031,-77.478 204.838,-80.487"/>
<polygon fill="midnightblue" stroke="midnightblue" points="120.296,-60.1523 109.793,-61.543 118.871,-67.0057 120.296,-60.1523"/>
</g>
<!-- Node7 -->
<g id="node14" class="node"><title>Node7</title>
<a xlink:href="struct_statistic.html#a16764e35873ab9b1cfbffe5668515b47" target="_top" xlink:title="The likelihood is normalised by dividing the raw likelihood by the likelihood of the distribution&amp;#39...">
<polygon fill="white" stroke="black" points="156.5,-40.5 156.5,-61.5 365.5,-61.5 365.5,-40.5 156.5,-40.5"/>
<text text-anchor="middle" x="261" y="-48.5" font-family="Helvetica,sans-Serif" font-size="10.00">Statistic&lt; Sample_t &gt;::normalisedLikelihood</text>
</a>
</g>
<!-- Node1&#45;&gt;Node7 -->
<g id="edge14" class="edge"><title>Node1&#45;&gt;Node7</title>
<path fill="none" stroke="midnightblue" d="M129.996,-51C138.533,-51 147.395,-51 156.301,-51"/>
<polygon fill="midnightblue" stroke="midnightblue" points="129.762,-47.5001 119.762,-51 129.762,-54.5001 129.762,-47.5001"/>
</g>
<!-- Node8 -->
<g id="node16" class="node"><title>Node8</title>
<a xlink:href="struct_statistic.html#a2809624bf38cbe0817c3c5e3c2639c71" target="_top" xlink:title="A two&#45;sided Student T&#45;Test.">
<polygon fill="white" stroke="black" points="191,-0.5 191,-21.5 331,-21.5 331,-0.5 191,-0.5"/>
<text text-anchor="middle" x="261" y="-8.5" font-family="Helvetica,sans-Serif" font-size="10.00">Statistic&lt; Sample_t &gt;::tTest</text>
</a>
</g>
<!-- Node1&#45;&gt;Node8 -->
<g id="edge16" class="edge"><title>Node1&#45;&gt;Node8</title>
<path fill="none" stroke="midnightblue" d="M119.723,-38.3919C131.728,-35.9043 144.261,-33.3407 156,-31 171.833,-27.8431 189.031,-24.522 204.838,-21.513"/>
<polygon fill="midnightblue" stroke="midnightblue" points="118.871,-34.9943 109.793,-40.457 120.296,-41.8477 118.871,-34.9943"/>
</g>
<!-- Node3 -->
<g id="node5" class="node"><title>Node3</title>
<a xlink:href="class_power_state_graph.html#a3823f720987e5e13eb7f1cfae7cdf4be" target="_top" xlink:title="This is the main public interface to the disaggregation algorithm.">
<polygon fill="white" stroke="black" points="790.5,-79.5 790.5,-100.5 945.5,-100.5 945.5,-79.5 790.5,-79.5"/>
<text text-anchor="middle" x="868" y="-87.5" font-family="Helvetica,sans-Serif" font-size="10.00">PowerStateGraph::disaggregate</text>
</a>
</g>
<!-- Node2&#45;&gt;Node3 -->
<g id="edge4" class="edge"><title>Node2&#45;&gt;Node3</title>
<path fill="none" stroke="midnightblue" d="M335.45,-91.2032C431.981,-91.42 605.562,-91.651 754,-91 765.776,-90.9484 778.237,-90.8667 790.427,-90.7718"/>
<polygon fill="midnightblue" stroke="midnightblue" points="335.218,-87.7027 325.21,-91.1796 335.202,-94.7027 335.218,-87.7027"/>
</g>
<!-- Node5 -->
<g id="node9" class="node"><title>Node5</title>
<a xlink:href="class_power_state_graph.html#a0df76ca216d2d48aeb44d2bb08046e2f" target="_top" xlink:title="PowerStateGraph::traceToEnd">
<polygon fill="white" stroke="black" points="402,-60.5 402,-81.5 552,-81.5 552,-60.5 402,-60.5"/>
<text text-anchor="middle" x="477" y="-68.5" font-family="Helvetica,sans-Serif" font-size="10.00">PowerStateGraph::traceToEnd</text>
</a>
</g>
<!-- Node2&#45;&gt;Node5 -->
<g id="edge8" class="edge"><title>Node2&#45;&gt;Node5</title>
<path fill="none" stroke="midnightblue" d="M335.246,-84.1254C356.688,-82.14 380.103,-79.9719 401.614,-77.9802"/>
<polygon fill="midnightblue" stroke="midnightblue" points="334.857,-80.6463 325.222,-85.0535 335.502,-87.6165 334.857,-80.6463"/>
</g>
<!-- Node4 -->
<g id="node7" class="node"><title>Node4</title>
<a xlink:href="_main_8cpp.html#a0ddf1224851353fc92bfbff6f499fa97" target="_top" xlink:title="main">
<polygon fill="white" stroke="black" points="982,-79.5 982,-100.5 1020,-100.5 1020,-79.5 982,-79.5"/>
<text text-anchor="middle" x="1001" y="-87.5" font-family="Helvetica,sans-Serif" font-size="10.00">main</text>
</a>
</g>
<!-- Node3&#45;&gt;Node4 -->
<g id="edge6" class="edge"><title>Node3&#45;&gt;Node4</title>
<path fill="none" stroke="midnightblue" d="M955.963,-90C965.567,-90 974.502,-90 981.84,-90"/>
<polygon fill="midnightblue" stroke="midnightblue" points="955.752,-86.5001 945.751,-90 955.751,-93.5001 955.752,-86.5001"/>
</g>
<!-- Node6 -->
<g id="node11" class="node"><title>Node6</title>
<a xlink:href="class_power_state_graph.html#a0478f171d51d21613746640c7415fb0b" target="_top" xlink:title="PowerStateGraph::initTraceToEnd">
<polygon fill="white" stroke="black" points="588,-60.5 588,-81.5 754,-81.5 754,-60.5 588,-60.5"/>
<text text-anchor="middle" x="671" y="-68.5" font-family="Helvetica,sans-Serif" font-size="10.00">PowerStateGraph::initTraceToEnd</text>
</a>
</g>
<!-- Node5&#45;&gt;Node6 -->
<g id="edge10" class="edge"><title>Node5&#45;&gt;Node6</title>
<path fill="none" stroke="midnightblue" d="M562.272,-71C570.753,-71 579.355,-71 587.814,-71"/>
<polygon fill="midnightblue" stroke="midnightblue" points="562.005,-67.5001 552.005,-71 562.005,-74.5001 562.005,-67.5001"/>
</g>
<!-- Node6&#45;&gt;Node3 -->
<g id="edge12" class="edge"><title>Node6&#45;&gt;Node3</title>
<path fill="none" stroke="midnightblue" d="M764.418,-80.0098C773.105,-80.8477 781.845,-81.6906 790.367,-82.5125"/>
<polygon fill="midnightblue" stroke="midnightblue" points="764.55,-76.5064 754.26,-79.0302 763.878,-83.4741 764.55,-76.5064"/>
</g>
</g>
</svg>
