<?xml version="1.0" encoding="UTF-8" standalone="no"?>
<!DOCTYPE svg PUBLIC "-//W3C//DTD SVG 1.1//EN"
 "http://www.w3.org/Graphics/SVG/1.1/DTD/svg11.dtd">
<!-- Generated by graphviz version 2.26.3 (20100126.1600)
 -->
<!-- Title: G Pages: 1 -->
<svg width="196pt" height="212pt"
 viewBox="0.00 0.00 196.00 212.00" xmlns="http://www.w3.org/2000/svg" xmlns:xlink="http://www.w3.org/1999/xlink">
<g id="graph1" class="graph" transform="scale(1 1) rotate(0) translate(4 208)">
<title>G</title>
<polygon fill="white" stroke="white" points="-4,5 -4,-208 193,-208 193,5 -4,5"/>
<!-- Node1 -->
<g id="node1" class="node"><title>Node1</title>
<polygon fill="#bfbfbf" stroke="black" points="-0.5,-0.5 -0.5,-89.5 188.5,-89.5 188.5,-0.5 -0.5,-0.5"/>
<text text-anchor="middle" x="94" y="-76.5" font-family="Helvetica,sans-Serif" font-size="10.00">PowerStateGraph::LikelihoodAndVertex</text>
<polyline fill="none" stroke="black" points="-0.5,-68.5 188.5,-68.5 "/>
<text text-anchor="start" x="7.5" y="-55.5" font-family="Helvetica,sans-Serif" font-size="10.00">+ likelihood</text>
<text text-anchor="start" x="7.5" y="-42.5" font-family="Helvetica,sans-Serif" font-size="10.00">+ vertex</text>
<polyline fill="none" stroke="black" points="-0.5,-34.5 188.5,-34.5 "/>
<text text-anchor="start" x="7.5" y="-21.5" font-family="Helvetica,sans-Serif" font-size="10.00">+ LikelihoodAndVertex()</text>
<text text-anchor="start" x="7.5" y="-8.5" font-family="Helvetica,sans-Serif" font-size="10.00">+ LikelihoodAndVertex()</text>
</g>
<!-- Node2 -->
<g id="node2" class="node"><title>Node2</title>
<polygon fill="white" stroke="#bfbfbf" points="28.5,-140.5 28.5,-203.5 73.5,-203.5 73.5,-140.5 28.5,-140.5"/>
<text text-anchor="middle" x="51" y="-190.5" font-family="Helvetica,sans-Serif" font-size="10.00">double</text>
<polyline fill="none" stroke="#bfbfbf" points="28.5,-182.5 73.5,-182.5 "/>
<text text-anchor="middle" x="51" y="-169.5" font-family="Helvetica,sans-Serif" font-size="10.00"> </text>
<polyline fill="none" stroke="#bfbfbf" points="28.5,-161.5 73.5,-161.5 "/>
<text text-anchor="middle" x="51" y="-148.5" font-family="Helvetica,sans-Serif" font-size="10.00"> </text>
</g>
<!-- Node2&#45;&gt;Node1 -->
<g id="edge2" class="edge"><title>Node2&#45;&gt;Node1</title>
<path fill="none" stroke="#9a32cd" stroke-dasharray="5,2" d="M65.0167,-130.602C69.4444,-117.525 74.356,-103.018 78.8587,-89.7196"/>
<polygon fill="#9a32cd" stroke="#9a32cd" points="61.7398,-140.28 60.6845,-129.365 63.3433,-135.544 64.9469,-130.808 64.9469,-130.808 64.9469,-130.808 63.3433,-135.544 69.2092,-132.252 61.7398,-140.28 61.7398,-140.28"/>
<text text-anchor="middle" x="93.5" y="-112.5" font-family="Helvetica,sans-Serif" font-size="10.00">likelihood</text>
</g>
<!-- Node3 -->
<g id="node4" class="node"><title>Node3</title>
<polygon fill="white" stroke="#bfbfbf" points="91,-140.5 91,-203.5 183,-203.5 183,-140.5 91,-140.5"/>
<text text-anchor="middle" x="137" y="-190.5" font-family="Helvetica,sans-Serif" font-size="10.00">vertex_descriptor</text>
<polyline fill="none" stroke="#bfbfbf" points="91,-182.5 183,-182.5 "/>
<text text-anchor="middle" x="137" y="-169.5" font-family="Helvetica,sans-Serif" font-size="10.00"> </text>
<polyline fill="none" stroke="#bfbfbf" points="91,-161.5 183,-161.5 "/>
<text text-anchor="middle" x="137" y="-148.5" font-family="Helvetica,sans-Serif" font-size="10.00"> </text>
</g>
<!-- Node3&#45;&gt;Node1 -->
<g id="edge4" class="edge"><title>Node3&#45;&gt;Node1</title>
<path fill="none" stroke="#9a32cd" stroke-dasharray="5,2" d="M122.983,-130.602C118.556,-117.525 113.644,-103.018 109.141,-89.7196"/>
<polygon fill="#9a32cd" stroke="#9a32cd" points="126.26,-140.28 118.791,-132.252 124.657,-135.544 123.053,-130.808 123.053,-130.808 123.053,-130.808 124.657,-135.544 127.315,-129.365 126.26,-140.28 126.26,-140.28"/>
<text text-anchor="middle" x="133" y="-112.5" font-family="Helvetica,sans-Serif" font-size="10.00">vertex</text>
</g>
</g>
</svg>
