<?xml version="1.0" encoding="UTF-8" standalone="no"?>
<!DOCTYPE svg PUBLIC "-//W3C//DTD SVG 1.1//EN"
 "http://www.w3.org/Graphics/SVG/1.1/DTD/svg11.dtd">
<!-- Generated by graphviz version 2.26.3 (20100126.1600)
 -->
<!-- Title: G Pages: 1 -->
<svg width="148pt" height="224pt"
 viewBox="0.00 0.00 148.00 224.00" xmlns="http://www.w3.org/2000/svg" xmlns:xlink="http://www.w3.org/1999/xlink">
<g id="graph1" class="graph" transform="scale(1 1) rotate(0) translate(4 220)">
<title>G</title>
<polygon fill="white" stroke="white" points="-4,5 -4,-220 145,-220 145,5 -4,5"/>
<!-- Node1 -->
<g id="node1" class="node"><title>Node1</title>
<polygon fill="#bfbfbf" stroke="black" points="0,-0.5 0,-89.5 140,-89.5 140,-0.5 0,-0.5"/>
<text text-anchor="middle" x="70" y="-76.5" font-family="Helvetica,sans-Serif" font-size="10.00">AggregateData::FoundSpike</text>
<polyline fill="none" stroke="black" points="0,-68.5 140,-68.5 "/>
<text text-anchor="start" x="8" y="-55.5" font-family="Helvetica,sans-Serif" font-size="10.00">+ timestamp</text>
<text text-anchor="start" x="8" y="-42.5" font-family="Helvetica,sans-Serif" font-size="10.00">+ delta</text>
<text text-anchor="start" x="8" y="-29.5" font-family="Helvetica,sans-Serif" font-size="10.00">+ likelihood</text>
<polyline fill="none" stroke="black" points="0,-21.5 140,-21.5 "/>
<text text-anchor="start" x="8" y="-8.5" font-family="Helvetica,sans-Serif" font-size="10.00">+ FoundSpike()</text>
</g>
<!-- Node2 -->
<g id="node2" class="node"><title>Node2</title>
<polygon fill="white" stroke="#bfbfbf" points="15.5,-152.5 15.5,-215.5 60.5,-215.5 60.5,-152.5 15.5,-152.5"/>
<text text-anchor="middle" x="38" y="-202.5" font-family="Helvetica,sans-Serif" font-size="10.00">double</text>
<polyline fill="none" stroke="#bfbfbf" points="15.5,-194.5 60.5,-194.5 "/>
<text text-anchor="middle" x="38" y="-181.5" font-family="Helvetica,sans-Serif" font-size="10.00"> </text>
<polyline fill="none" stroke="#bfbfbf" points="15.5,-173.5 60.5,-173.5 "/>
<text text-anchor="middle" x="38" y="-160.5" font-family="Helvetica,sans-Serif" font-size="10.00"> </text>
</g>
<!-- Node2&#45;&gt;Node1 -->
<g id="edge2" class="edge"><title>Node2&#45;&gt;Node1</title>
<path fill="none" stroke="#9a32cd" stroke-dasharray="5,2" d="M35.2436,-142.166C35.398,-130.946 36.3865,-118.905 39,-108 40.4773,-101.836 42.6335,-95.5764 45.1318,-89.5149"/>
<polygon fill="#9a32cd" stroke="#9a32cd" points="35.3136,-152.183 30.7437,-142.215 35.2786,-147.183 35.2436,-142.183 35.2436,-142.183 35.2436,-142.183 35.2786,-147.183 39.7435,-142.152 35.3136,-152.183 35.3136,-152.183"/>
<text text-anchor="middle" x="59.5" y="-125" font-family="Helvetica,sans-Serif" font-size="10.00">delta</text>
<text text-anchor="middle" x="59.5" y="-112" font-family="Helvetica,sans-Serif" font-size="10.00">likelihood</text>
</g>
<!-- Node3 -->
<g id="node4" class="node"><title>Node3</title>
<a xlink:href="classsize__t.html" target="_top" xlink:title="{size_t\n||}">
<polygon fill="white" stroke="black" points="80.5,-152.5 80.5,-215.5 123.5,-215.5 123.5,-152.5 80.5,-152.5"/>
<text text-anchor="middle" x="102" y="-202.5" font-family="Helvetica,sans-Serif" font-size="10.00">size_t</text>
<polyline fill="none" stroke="black" points="80.5,-194.5 123.5,-194.5 "/>
<text text-anchor="middle" x="102" y="-181.5" font-family="Helvetica,sans-Serif" font-size="10.00"> </text>
<polyline fill="none" stroke="black" points="80.5,-173.5 123.5,-173.5 "/>
<text text-anchor="middle" x="102" y="-160.5" font-family="Helvetica,sans-Serif" font-size="10.00"> </text>
</a>
</g>
<!-- Node3&#45;&gt;Node1 -->
<g id="edge4" class="edge"><title>Node3&#45;&gt;Node1</title>
<path fill="none" stroke="#9a32cd" stroke-dasharray="5,2" d="M92.4362,-142.457C88.5993,-125.791 84.1698,-106.55 80.2653,-89.5899"/>
<polygon fill="#9a32cd" stroke="#9a32cd" points="94.7387,-152.459 88.1099,-143.723 93.6169,-147.586 92.4952,-142.714 92.4952,-142.714 92.4952,-142.714 93.6169,-147.586 96.8804,-141.704 94.7387,-152.459 94.7387,-152.459"/>
<text text-anchor="middle" x="112" y="-118.5" font-family="Helvetica,sans-Serif" font-size="10.00">timestamp</text>
</g>
</g>
</svg>
