<?xml version="1.0" encoding="UTF-8" standalone="no"?>
<!DOCTYPE svg PUBLIC "-//W3C//DTD SVG 1.1//EN"
 "http://www.w3.org/Graphics/SVG/1.1/DTD/svg11.dtd">
<!-- Generated by graphviz version 2.26.3 (20100126.1600)
 -->
<!-- Title: G Pages: 1 -->
<svg width="1022pt" height="1152pt"
 viewBox="0.00 0.00 1022.00 1152.00" xmlns="http://www.w3.org/2000/svg" xmlns:xlink="http://www.w3.org/1999/xlink">
<g id="graph1" class="graph" transform="scale(1 1) rotate(0) translate(4 1148)">
<title>G</title>
<polygon fill="white" stroke="white" points="-4,5 -4,-1148 1019,-1148 1019,5 -4,5"/>
<!-- Node1 -->
<g id="node1" class="node"><title>Node1</title>
<polygon fill="#bfbfbf" stroke="black" points="617.5,-1 617.5,-103 790.5,-103 790.5,-1 617.5,-1"/>
<text text-anchor="middle" x="704" y="-90" font-family="Helvetica,sans-Serif" font-size="10.00">PowerStateGraph::PowerStateEdge</text>
<polyline fill="none" stroke="black" points="617.5,-82 790.5,-82 "/>
<text text-anchor="start" x="625.5" y="-69" font-family="Helvetica,sans-Serif" font-size="10.00">+ delta</text>
<text text-anchor="start" x="625.5" y="-56" font-family="Helvetica,sans-Serif" font-size="10.00">+ duration</text>
<text text-anchor="start" x="625.5" y="-43" font-family="Helvetica,sans-Serif" font-size="10.00">+ count</text>
<text text-anchor="start" x="625.5" y="-30" font-family="Helvetica,sans-Serif" font-size="10.00">+ edgeHistory</text>
<polyline fill="none" stroke="black" points="617.5,-22 790.5,-22 "/>
<text text-anchor="middle" x="704" y="-9" font-family="Helvetica,sans-Serif" font-size="10.00"> </text>
</g>
<!-- Node2 -->
<g id="node2" class="node"><title>Node2</title>
<a xlink:href="struct_statistic.html" target="_top" xlink:title="{Statistic\&lt; double \&gt;\n|+ mean\l+ stdev\l+ min\l+ max\l+ numDataPoints\l+ dataStore\l|+ Statistic()\l+ Statistic()\l+ Statistic()\l+ Statistic()\l+ update()\l+ update()\l+ update()\l+ calcStdev()\l+ similar()\l+ tTest()\l+ nonZeroStdev()\l+ normalisedLikelihood()\l+ outputStateBarsLine()\l+ getMean()\l+ getStdev()\l+ getMin()\l+ getMax()\l+ getNumDataPoints()\l}">
<polygon fill="white" stroke="black" points="224,-154.5 224,-503.5 346,-503.5 346,-154.5 224,-154.5"/>
<text text-anchor="middle" x="285" y="-490.5" font-family="Helvetica,sans-Serif" font-size="10.00">Statistic&lt; double &gt;</text>
<polyline fill="none" stroke="black" points="224,-482.5 346,-482.5 "/>
<text text-anchor="start" x="232" y="-469.5" font-family="Helvetica,sans-Serif" font-size="10.00">+ mean</text>
<text text-anchor="start" x="232" y="-456.5" font-family="Helvetica,sans-Serif" font-size="10.00">+ stdev</text>
<text text-anchor="start" x="232" y="-443.5" font-family="Helvetica,sans-Serif" font-size="10.00">+ min</text>
<text text-anchor="start" x="232" y="-430.5" font-family="Helvetica,sans-Serif" font-size="10.00">+ max</text>
<text text-anchor="start" x="232" y="-417.5" font-family="Helvetica,sans-Serif" font-size="10.00">+ numDataPoints</text>
<text text-anchor="start" x="232" y="-404.5" font-family="Helvetica,sans-Serif" font-size="10.00">+ dataStore</text>
<polyline fill="none" stroke="black" points="224,-396.5 346,-396.5 "/>
<text text-anchor="start" x="232" y="-383.5" font-family="Helvetica,sans-Serif" font-size="10.00">+ Statistic()</text>
<text text-anchor="start" x="232" y="-370.5" font-family="Helvetica,sans-Serif" font-size="10.00">+ Statistic()</text>
<text text-anchor="start" x="232" y="-357.5" font-family="Helvetica,sans-Serif" font-size="10.00">+ Statistic()</text>
<text text-anchor="start" x="232" y="-344.5" font-family="Helvetica,sans-Serif" font-size="10.00">+ Statistic()</text>
<text text-anchor="start" x="232" y="-331.5" font-family="Helvetica,sans-Serif" font-size="10.00">+ update()</text>
<text text-anchor="start" x="232" y="-318.5" font-family="Helvetica,sans-Serif" font-size="10.00">+ update()</text>
<text text-anchor="start" x="232" y="-305.5" font-family="Helvetica,sans-Serif" font-size="10.00">+ update()</text>
<text text-anchor="start" x="232" y="-292.5" font-family="Helvetica,sans-Serif" font-size="10.00">+ calcStdev()</text>
<text text-anchor="start" x="232" y="-279.5" font-family="Helvetica,sans-Serif" font-size="10.00">+ similar()</text>
<text text-anchor="start" x="232" y="-266.5" font-family="Helvetica,sans-Serif" font-size="10.00">+ tTest()</text>
<text text-anchor="start" x="232" y="-253.5" font-family="Helvetica,sans-Serif" font-size="10.00">+ nonZeroStdev()</text>
<text text-anchor="start" x="232" y="-240.5" font-family="Helvetica,sans-Serif" font-size="10.00">+ normalisedLikelihood()</text>
<text text-anchor="start" x="232" y="-227.5" font-family="Helvetica,sans-Serif" font-size="10.00">+ outputStateBarsLine()</text>
<text text-anchor="start" x="232" y="-214.5" font-family="Helvetica,sans-Serif" font-size="10.00">+ getMean()</text>
<text text-anchor="start" x="232" y="-201.5" font-family="Helvetica,sans-Serif" font-size="10.00">+ getStdev()</text>
<text text-anchor="start" x="232" y="-188.5" font-family="Helvetica,sans-Serif" font-size="10.00">+ getMin()</text>
<text text-anchor="start" x="232" y="-175.5" font-family="Helvetica,sans-Serif" font-size="10.00">+ getMax()</text>
<text text-anchor="start" x="232" y="-162.5" font-family="Helvetica,sans-Serif" font-size="10.00">+ getNumDataPoints()</text>
</a>
</g>
<!-- Node2&#45;&gt;Node1 -->
<g id="edge2" class="edge"><title>Node2&#45;&gt;Node1</title>
<path fill="none" stroke="#9a32cd" stroke-dasharray="5,2" d="M353.653,-263.297C392.383,-228.258 442.763,-185.917 492,-154 531.243,-128.562 577.791,-105.474 617.26,-87.723"/>
<polygon fill="#9a32cd" stroke="#9a32cd" points="346.066,-270.202 350.433,-260.143 349.764,-266.837 353.462,-263.471 353.462,-263.471 353.462,-263.471 349.764,-266.837 356.491,-266.799 346.066,-270.202 346.066,-270.202"/>
<text text-anchor="middle" x="552" y="-126.5" font-family="Helvetica,sans-Serif" font-size="10.00">delta</text>
</g>
<!-- Node3 -->
<g id="node4" class="node"><title>Node3</title>
<polygon fill="white" stroke="#bfbfbf" points="248.5,-966.5 248.5,-1029.5 293.5,-1029.5 293.5,-966.5 248.5,-966.5"/>
<text text-anchor="middle" x="271" y="-1016.5" font-family="Helvetica,sans-Serif" font-size="10.00">double</text>
<polyline fill="none" stroke="#bfbfbf" points="248.5,-1008.5 293.5,-1008.5 "/>
<text text-anchor="middle" x="271" y="-995.5" font-family="Helvetica,sans-Serif" font-size="10.00"> </text>
<polyline fill="none" stroke="#bfbfbf" points="248.5,-987.5 293.5,-987.5 "/>
<text text-anchor="middle" x="271" y="-974.5" font-family="Helvetica,sans-Serif" font-size="10.00"> </text>
</g>
<!-- Node3&#45;&gt;Node2 -->
<g id="edge4" class="edge"><title>Node3&#45;&gt;Node2</title>
<path fill="none" stroke="#9a32cd" stroke-dasharray="5,2" d="M239.128,-985.824C192.492,-967.284 109.401,-931.257 93,-904 12.8003,-770.713 39.1911,-699.953 93,-554 119.023,-483.414 178.14,-419.931 223.951,-378.538"/>
<polygon fill="#9a32cd" stroke="#9a32cd" points="248.489,-989.505 237.536,-990.033 243.836,-987.675 239.183,-985.845 239.183,-985.845 239.183,-985.845 243.836,-987.675 240.83,-981.658 248.489,-989.505 248.489,-989.505"/>
<text text-anchor="middle" x="105.5" y="-746" font-family="Helvetica,sans-Serif" font-size="10.00">mean</text>
<text text-anchor="middle" x="105.5" y="-733" font-family="Helvetica,sans-Serif" font-size="10.00">min</text>
<text text-anchor="middle" x="105.5" y="-720" font-family="Helvetica,sans-Serif" font-size="10.00">max</text>
<text text-anchor="middle" x="105.5" y="-707" font-family="Helvetica,sans-Serif" font-size="10.00">stdev</text>
</g>
<!-- Node4 -->
<g id="node6" class="node"><title>Node4</title>
<polygon fill="white" stroke="#bfbfbf" points="370.5,-697.5 370.5,-760.5 465.5,-760.5 465.5,-697.5 370.5,-697.5"/>
<text text-anchor="middle" x="418" y="-747.5" font-family="Helvetica,sans-Serif" font-size="10.00">std::list&lt; double &gt;</text>
<polyline fill="none" stroke="#bfbfbf" points="370.5,-739.5 465.5,-739.5 "/>
<text text-anchor="start" x="378.5" y="-726.5" font-family="Helvetica,sans-Serif" font-size="10.00">&#45; elements</text>
<polyline fill="none" stroke="#bfbfbf" points="370.5,-718.5 465.5,-718.5 "/>
<text text-anchor="middle" x="418" y="-705.5" font-family="Helvetica,sans-Serif" font-size="10.00"> </text>
</g>
<!-- Node3&#45;&gt;Node4 -->
<g id="edge8" class="edge"><title>Node3&#45;&gt;Node4</title>
<path fill="none" stroke="#9a32cd" stroke-dasharray="5,2" d="M301.039,-971.246C319.297,-953.645 341.921,-929.259 357,-904 384.625,-857.726 402.214,-797.087 411.074,-760.692"/>
<polygon fill="#9a32cd" stroke="#9a32cd" points="293.515,-978.357 297.692,-968.217 297.149,-974.922 300.783,-971.488 300.783,-971.488 300.783,-971.488 297.149,-974.922 303.874,-974.758 293.515,-978.357 293.515,-978.357"/>
<text text-anchor="middle" x="363" y="-932.5" font-family="Helvetica,sans-Serif" font-size="10.00">elements</text>
</g>
<!-- Node8 -->
<g id="node15" class="node"><title>Node8</title>
<a xlink:href="struct_statistic.html" target="_top" xlink:title="{Statistic\&lt; T \&gt;\n|+ mean\l+ stdev\l+ min\l+ max\l+ numDataPoints\l+ dataStore\l|+ Statistic()\l+ Statistic()\l+ Statistic()\l+ Statistic()\l+ update()\l+ update()\l+ calcStdev()\l+ update()\l+ similar()\l+ tTest()\l+ nonZeroStdev()\l+ normalisedLikelihood()\l+ outputStateBarsLine()\l+ getMean()\l+ getStdev()\l+ getMin()\l+ getMax()\l+ getNumDataPoints()\l}">
<polygon fill="white" stroke="black" points="127,-554.5 127,-903.5 249,-903.5 249,-554.5 127,-554.5"/>
<text text-anchor="middle" x="188" y="-890.5" font-family="Helvetica,sans-Serif" font-size="10.00">Statistic&lt; T &gt;</text>
<polyline fill="none" stroke="black" points="127,-882.5 249,-882.5 "/>
<text text-anchor="start" x="135" y="-869.5" font-family="Helvetica,sans-Serif" font-size="10.00">+ mean</text>
<text text-anchor="start" x="135" y="-856.5" font-family="Helvetica,sans-Serif" font-size="10.00">+ stdev</text>
<text text-anchor="start" x="135" y="-843.5" font-family="Helvetica,sans-Serif" font-size="10.00">+ min</text>
<text text-anchor="start" x="135" y="-830.5" font-family="Helvetica,sans-Serif" font-size="10.00">+ max</text>
<text text-anchor="start" x="135" y="-817.5" font-family="Helvetica,sans-Serif" font-size="10.00">+ numDataPoints</text>
<text text-anchor="start" x="135" y="-804.5" font-family="Helvetica,sans-Serif" font-size="10.00">+ dataStore</text>
<polyline fill="none" stroke="black" points="127,-796.5 249,-796.5 "/>
<text text-anchor="start" x="135" y="-783.5" font-family="Helvetica,sans-Serif" font-size="10.00">+ Statistic()</text>
<text text-anchor="start" x="135" y="-770.5" font-family="Helvetica,sans-Serif" font-size="10.00">+ Statistic()</text>
<text text-anchor="start" x="135" y="-757.5" font-family="Helvetica,sans-Serif" font-size="10.00">+ Statistic()</text>
<text text-anchor="start" x="135" y="-744.5" font-family="Helvetica,sans-Serif" font-size="10.00">+ Statistic()</text>
<text text-anchor="start" x="135" y="-731.5" font-family="Helvetica,sans-Serif" font-size="10.00">+ update()</text>
<text text-anchor="start" x="135" y="-718.5" font-family="Helvetica,sans-Serif" font-size="10.00">+ update()</text>
<text text-anchor="start" x="135" y="-705.5" font-family="Helvetica,sans-Serif" font-size="10.00">+ calcStdev()</text>
<text text-anchor="start" x="135" y="-692.5" font-family="Helvetica,sans-Serif" font-size="10.00">+ update()</text>
<text text-anchor="start" x="135" y="-679.5" font-family="Helvetica,sans-Serif" font-size="10.00">+ similar()</text>
<text text-anchor="start" x="135" y="-666.5" font-family="Helvetica,sans-Serif" font-size="10.00">+ tTest()</text>
<text text-anchor="start" x="135" y="-653.5" font-family="Helvetica,sans-Serif" font-size="10.00">+ nonZeroStdev()</text>
<text text-anchor="start" x="135" y="-640.5" font-family="Helvetica,sans-Serif" font-size="10.00">+ normalisedLikelihood()</text>
<text text-anchor="start" x="135" y="-627.5" font-family="Helvetica,sans-Serif" font-size="10.00">+ outputStateBarsLine()</text>
<text text-anchor="start" x="135" y="-614.5" font-family="Helvetica,sans-Serif" font-size="10.00">+ getMean()</text>
<text text-anchor="start" x="135" y="-601.5" font-family="Helvetica,sans-Serif" font-size="10.00">+ getStdev()</text>
<text text-anchor="start" x="135" y="-588.5" font-family="Helvetica,sans-Serif" font-size="10.00">+ getMin()</text>
<text text-anchor="start" x="135" y="-575.5" font-family="Helvetica,sans-Serif" font-size="10.00">+ getMax()</text>
<text text-anchor="start" x="135" y="-562.5" font-family="Helvetica,sans-Serif" font-size="10.00">+ getNumDataPoints()</text>
</a>
</g>
<!-- Node3&#45;&gt;Node8 -->
<g id="edge20" class="edge"><title>Node3&#45;&gt;Node8</title>
<path fill="none" stroke="#9a32cd" stroke-dasharray="5,2" d="M238.679,-987.293C220.614,-979.463 199.65,-966.867 189,-948 181.243,-934.259 175.976,-919.218 172.593,-903.66"/>
<polygon fill="#9a32cd" stroke="#9a32cd" points="248.332,-991.162 237.376,-991.619 243.691,-989.302 239.05,-987.442 239.05,-987.442 239.05,-987.442 243.691,-989.302 240.724,-983.265 248.332,-991.162 248.332,-991.162"/>
<text text-anchor="middle" x="201.5" y="-939" font-family="Helvetica,sans-Serif" font-size="10.00">mean</text>
<text text-anchor="middle" x="201.5" y="-926" font-family="Helvetica,sans-Serif" font-size="10.00">stdev</text>
</g>
<!-- Node12 -->
<g id="node28" class="node"><title>Node12</title>
<a xlink:href="struct_statistic.html" target="_top" xlink:title="{Statistic\&lt; size_t \&gt;\n|+ mean\l+ stdev\l+ min\l+ max\l+ numDataPoints\l+ dataStore\l|+ Statistic()\l+ Statistic()\l+ Statistic()\l+ Statistic()\l+ update()\l+ update()\l+ update()\l+ calcStdev()\l+ similar()\l+ tTest()\l+ nonZeroStdev()\l+ normalisedLikelihood()\l+ outputStateBarsLine()\l+ getMean()\l+ getStdev()\l+ getMin()\l+ getMax()\l+ getNumDataPoints()\l}">
<polygon fill="white" stroke="black" points="501,-154.5 501,-503.5 623,-503.5 623,-154.5 501,-154.5"/>
<text text-anchor="middle" x="562" y="-490.5" font-family="Helvetica,sans-Serif" font-size="10.00">Statistic&lt; size_t &gt;</text>
<polyline fill="none" stroke="black" points="501,-482.5 623,-482.5 "/>
<text text-anchor="start" x="509" y="-469.5" font-family="Helvetica,sans-Serif" font-size="10.00">+ mean</text>
<text text-anchor="start" x="509" y="-456.5" font-family="Helvetica,sans-Serif" font-size="10.00">+ stdev</text>
<text text-anchor="start" x="509" y="-443.5" font-family="Helvetica,sans-Serif" font-size="10.00">+ min</text>
<text text-anchor="start" x="509" y="-430.5" font-family="Helvetica,sans-Serif" font-size="10.00">+ max</text>
<text text-anchor="start" x="509" y="-417.5" font-family="Helvetica,sans-Serif" font-size="10.00">+ numDataPoints</text>
<text text-anchor="start" x="509" y="-404.5" font-family="Helvetica,sans-Serif" font-size="10.00">+ dataStore</text>
<polyline fill="none" stroke="black" points="501,-396.5 623,-396.5 "/>
<text text-anchor="start" x="509" y="-383.5" font-family="Helvetica,sans-Serif" font-size="10.00">+ Statistic()</text>
<text text-anchor="start" x="509" y="-370.5" font-family="Helvetica,sans-Serif" font-size="10.00">+ Statistic()</text>
<text text-anchor="start" x="509" y="-357.5" font-family="Helvetica,sans-Serif" font-size="10.00">+ Statistic()</text>
<text text-anchor="start" x="509" y="-344.5" font-family="Helvetica,sans-Serif" font-size="10.00">+ Statistic()</text>
<text text-anchor="start" x="509" y="-331.5" font-family="Helvetica,sans-Serif" font-size="10.00">+ update()</text>
<text text-anchor="start" x="509" y="-318.5" font-family="Helvetica,sans-Serif" font-size="10.00">+ update()</text>
<text text-anchor="start" x="509" y="-305.5" font-family="Helvetica,sans-Serif" font-size="10.00">+ update()</text>
<text text-anchor="start" x="509" y="-292.5" font-family="Helvetica,sans-Serif" font-size="10.00">+ calcStdev()</text>
<text text-anchor="start" x="509" y="-279.5" font-family="Helvetica,sans-Serif" font-size="10.00">+ similar()</text>
<text text-anchor="start" x="509" y="-266.5" font-family="Helvetica,sans-Serif" font-size="10.00">+ tTest()</text>
<text text-anchor="start" x="509" y="-253.5" font-family="Helvetica,sans-Serif" font-size="10.00">+ nonZeroStdev()</text>
<text text-anchor="start" x="509" y="-240.5" font-family="Helvetica,sans-Serif" font-size="10.00">+ normalisedLikelihood()</text>
<text text-anchor="start" x="509" y="-227.5" font-family="Helvetica,sans-Serif" font-size="10.00">+ outputStateBarsLine()</text>
<text text-anchor="start" x="509" y="-214.5" font-family="Helvetica,sans-Serif" font-size="10.00">+ getMean()</text>
<text text-anchor="start" x="509" y="-201.5" font-family="Helvetica,sans-Serif" font-size="10.00">+ getStdev()</text>
<text text-anchor="start" x="509" y="-188.5" font-family="Helvetica,sans-Serif" font-size="10.00">+ getMin()</text>
<text text-anchor="start" x="509" y="-175.5" font-family="Helvetica,sans-Serif" font-size="10.00">+ getMax()</text>
<text text-anchor="start" x="509" y="-162.5" font-family="Helvetica,sans-Serif" font-size="10.00">+ getNumDataPoints()</text>
</a>
</g>
<!-- Node3&#45;&gt;Node12 -->
<g id="edge36" class="edge"><title>Node3&#45;&gt;Node12</title>
<path fill="none" stroke="#9a32cd" stroke-dasharray="5,2" d="M303.575,-992.959C349.728,-983.954 433.081,-960.451 474,-904 485.863,-887.634 517.314,-666.781 539.208,-503.652"/>
<polygon fill="#9a32cd" stroke="#9a32cd" points="293.504,-994.808 302.527,-988.576 298.422,-993.905 303.34,-993.002 303.34,-993.002 303.34,-993.002 298.422,-993.905 304.153,-997.428 293.504,-994.808 293.504,-994.808"/>
<text text-anchor="middle" x="543.5" y="-733" font-family="Helvetica,sans-Serif" font-size="10.00">mean</text>
<text text-anchor="middle" x="543.5" y="-720" font-family="Helvetica,sans-Serif" font-size="10.00">stdev</text>
</g>
<!-- Node4&#45;&gt;Node2 -->
<g id="edge6" class="edge"><title>Node4&#45;&gt;Node2</title>
<path fill="none" stroke="#9a32cd" stroke-dasharray="5,2" d="M404.228,-687.581C389.678,-643.822 365.755,-571.871 343.141,-503.86"/>
<polygon fill="#9a32cd" stroke="#9a32cd" points="407.453,-697.278 400.027,-689.209 405.875,-692.534 404.297,-687.789 404.297,-687.789 404.297,-687.789 405.875,-692.534 408.567,-686.369 407.453,-697.278 407.453,-697.278"/>
<text text-anchor="middle" x="372.5" y="-526.5" font-family="Helvetica,sans-Serif" font-size="10.00">dataStore</text>
</g>
<!-- Node5 -->
<g id="node9" class="node"><title>Node5</title>
<a xlink:title="STL class.">
<polygon fill="white" stroke="#bfbfbf" points="655.5,-966.5 655.5,-1029.5 728.5,-1029.5 728.5,-966.5 655.5,-966.5"/>
<text text-anchor="middle" x="692" y="-1016.5" font-family="Helvetica,sans-Serif" font-size="10.00">std::list&lt; T &gt;</text>
<polyline fill="none" stroke="#bfbfbf" points="655.5,-1008.5 728.5,-1008.5 "/>
<text text-anchor="start" x="663.5" y="-995.5" font-family="Helvetica,sans-Serif" font-size="10.00">&#45; elements</text>
<polyline fill="none" stroke="#bfbfbf" points="655.5,-987.5 728.5,-987.5 "/>
<text text-anchor="middle" x="692" y="-974.5" font-family="Helvetica,sans-Serif" font-size="10.00"> </text>
</a>
</g>
<!-- Node5&#45;&gt;Node4 -->
<g id="edge10" class="edge"><title>Node5&#45;&gt;Node4</title>
<path fill="none" stroke="orange" stroke-dasharray="5,2" d="M645.538,-983.009C589.802,-964.121 501.089,-930.883 479,-904 444.275,-861.739 428.77,-798.435 422.271,-760.671"/>
<polygon fill="orange" stroke="orange" points="644.605,-986.387 655.199,-986.251 646.832,-979.751 644.605,-986.387"/>
<text text-anchor="middle" x="573.5" y="-932.5" font-family="Helvetica,sans-Serif" font-size="10.00">&lt; double &gt;</text>
</g>
<!-- Node10 -->
<g id="node22" class="node"><title>Node10</title>
<polygon fill="white" stroke="#bfbfbf" points="796,-697.5 796,-760.5 978,-760.5 978,-697.5 796,-697.5"/>
<text text-anchor="middle" x="887" y="-747.5" font-family="Helvetica,sans-Serif" font-size="10.00">std::list&lt; PSGraph::edge_descriptor &gt;</text>
<polyline fill="none" stroke="#bfbfbf" points="796,-739.5 978,-739.5 "/>
<text text-anchor="start" x="804" y="-726.5" font-family="Helvetica,sans-Serif" font-size="10.00">&#45; elements</text>
<polyline fill="none" stroke="#bfbfbf" points="796,-718.5 978,-718.5 "/>
<text text-anchor="middle" x="887" y="-705.5" font-family="Helvetica,sans-Serif" font-size="10.00"> </text>
</g>
<!-- Node5&#45;&gt;Node10 -->
<g id="edge30" class="edge"><title>Node5&#45;&gt;Node10</title>
<path fill="none" stroke="orange" stroke-dasharray="5,2" d="M730.231,-959.179C733.884,-955.413 737.52,-951.641 741,-948 759.467,-928.675 765.924,-925.355 782,-904 817.586,-856.727 851.426,-796.659 870.655,-760.606"/>
<polygon fill="orange" stroke="orange" points="727.693,-956.769 723.227,-966.377 732.709,-961.651 727.693,-956.769"/>
<text text-anchor="middle" x="832.5" y="-932.5" font-family="Helvetica,sans-Serif" font-size="10.00">&lt; PSGraph::edge_descriptor &gt;</text>
</g>
<!-- Node13 -->
<g id="node32" class="node"><title>Node13</title>
<polygon fill="white" stroke="#bfbfbf" points="647.5,-697.5 647.5,-760.5 740.5,-760.5 740.5,-697.5 647.5,-697.5"/>
<text text-anchor="middle" x="694" y="-747.5" font-family="Helvetica,sans-Serif" font-size="10.00">std::list&lt; size_t &gt;</text>
<polyline fill="none" stroke="#bfbfbf" points="647.5,-739.5 740.5,-739.5 "/>
<text text-anchor="start" x="655.5" y="-726.5" font-family="Helvetica,sans-Serif" font-size="10.00">&#45; elements</text>
<polyline fill="none" stroke="#bfbfbf" points="647.5,-718.5 740.5,-718.5 "/>
<text text-anchor="middle" x="694" y="-705.5" font-family="Helvetica,sans-Serif" font-size="10.00"> </text>
</g>
<!-- Node5&#45;&gt;Node13 -->
<g id="edge44" class="edge"><title>Node5&#45;&gt;Node13</title>
<path fill="none" stroke="orange" stroke-dasharray="5,2" d="M692.312,-956.071C692.714,-901.959 693.405,-809.02 693.766,-760.528"/>
<polygon fill="orange" stroke="orange" points="688.81,-956.325 692.235,-966.351 695.81,-956.378 688.81,-956.325"/>
<text text-anchor="middle" x="714.5" y="-932.5" font-family="Helvetica,sans-Serif" font-size="10.00">&lt; size_t &gt;</text>
</g>
<!-- Node6 -->
<g id="node11" class="node"><title>Node6</title>
<polygon fill="white" stroke="#bfbfbf" points="282.5,-1080.5 282.5,-1143.5 311.5,-1143.5 311.5,-1080.5 282.5,-1080.5"/>
<text text-anchor="middle" x="297" y="-1130.5" font-family="Helvetica,sans-Serif" font-size="10.00">T</text>
<polyline fill="none" stroke="#bfbfbf" points="282.5,-1122.5 311.5,-1122.5 "/>
<text text-anchor="middle" x="297" y="-1109.5" font-family="Helvetica,sans-Serif" font-size="10.00"> </text>
<polyline fill="none" stroke="#bfbfbf" points="282.5,-1101.5 311.5,-1101.5 "/>
<text text-anchor="middle" x="297" y="-1088.5" font-family="Helvetica,sans-Serif" font-size="10.00"> </text>
</g>
<!-- Node6&#45;&gt;Node5 -->
<g id="edge12" class="edge"><title>Node6&#45;&gt;Node5</title>
<path fill="none" stroke="#9a32cd" stroke-dasharray="5,2" d="M321.525,-1105.53C372.217,-1092.07 492.147,-1059.84 592,-1030 612.958,-1023.74 636.241,-1016.31 655.063,-1010.19"/>
<polygon fill="#9a32cd" stroke="#9a32cd" points="311.792,-1108.1 320.305,-1101.19 316.625,-1106.82 321.458,-1105.54 321.458,-1105.54 321.458,-1105.54 316.625,-1106.82 322.611,-1109.89 311.792,-1108.1 311.792,-1108.1"/>
<text text-anchor="middle" x="547" y="-1052.5" font-family="Helvetica,sans-Serif" font-size="10.00">elements</text>
</g>
<!-- Node6&#45;&gt;Node8 -->
<g id="edge24" class="edge"><title>Node6&#45;&gt;Node8</title>
<path fill="none" stroke="#9a32cd" stroke-dasharray="5,2" d="M274.546,-1092.64C244.08,-1064.52 191.648,-1009.04 176,-948 172.336,-933.707 170.056,-918.723 168.825,-903.585"/>
<polygon fill="#9a32cd" stroke="#9a32cd" points="282.146,-1099.5 271.709,-1096.14 278.436,-1096.15 274.726,-1092.8 274.726,-1092.8 274.726,-1092.8 278.436,-1096.15 277.743,-1089.46 282.146,-1099.5 282.146,-1099.5"/>
<text text-anchor="middle" x="227.5" y="-1002" font-family="Helvetica,sans-Serif" font-size="10.00">min</text>
<text text-anchor="middle" x="227.5" y="-989" font-family="Helvetica,sans-Serif" font-size="10.00">max</text>
</g>
<!-- Node7 -->
<g id="node13" class="node"><title>Node7</title>
<a xlink:href="classsize__t.html" target="_top" xlink:title="{size_t\n||}">
<polygon fill="white" stroke="black" points="540.5,-966.5 540.5,-1029.5 583.5,-1029.5 583.5,-966.5 540.5,-966.5"/>
<text text-anchor="middle" x="562" y="-1016.5" font-family="Helvetica,sans-Serif" font-size="10.00">size_t</text>
<polyline fill="none" stroke="black" points="540.5,-1008.5 583.5,-1008.5 "/>
<text text-anchor="middle" x="562" y="-995.5" font-family="Helvetica,sans-Serif" font-size="10.00"> </text>
<polyline fill="none" stroke="black" points="540.5,-987.5 583.5,-987.5 "/>
<text text-anchor="middle" x="562" y="-974.5" font-family="Helvetica,sans-Serif" font-size="10.00"> </text>
</a>
</g>
<!-- Node7&#45;&gt;Node1 -->
<g id="edge32" class="edge"><title>Node7&#45;&gt;Node1</title>
<path fill="none" stroke="#9a32cd" stroke-dasharray="5,2" d="M592.798,-984.685C643.585,-962.418 740.2,-918.625 749,-904 830.57,-768.435 744.669,-265.835 713.996,-103.161"/>
<polygon fill="#9a32cd" stroke="#9a32cd" points="583.585,-988.709 590.948,-980.582 588.167,-986.707 592.749,-984.706 592.749,-984.706 592.749,-984.706 588.167,-986.707 594.55,-988.83 583.585,-988.709 583.585,-988.709"/>
<text text-anchor="middle" x="787.5" y="-526.5" font-family="Helvetica,sans-Serif" font-size="10.00">count</text>
</g>
<!-- Node7&#45;&gt;Node2 -->
<g id="edge14" class="edge"><title>Node7&#45;&gt;Node2</title>
<path fill="none" stroke="#9a32cd" stroke-dasharray="5,2" d="M530.763,-984.253C492.81,-967.904 426.577,-940.505 368,-922 335.724,-911.804 315.123,-930.448 294,-904 269.39,-873.185 271.729,-661.378 277.127,-503.729"/>
<polygon fill="#9a32cd" stroke="#9a32cd" points="540.235,-988.357 529.27,-988.51 535.647,-986.369 531.059,-984.381 531.059,-984.381 531.059,-984.381 535.647,-986.369 532.848,-980.252 540.235,-988.357 540.235,-988.357"/>
<text text-anchor="middle" x="328" y="-726.5" font-family="Helvetica,sans-Serif" font-size="10.00">numDataPoints</text>
</g>
<!-- Node7&#45;&gt;Node8 -->
<g id="edge22" class="edge"><title>Node7&#45;&gt;Node8</title>
<path fill="none" stroke="#9a32cd" stroke-dasharray="5,2" d="M529.905,-994.747C455.048,-986.887 273.663,-966.172 253,-948 238.928,-935.625 227.837,-920.357 219.105,-903.686"/>
<polygon fill="#9a32cd" stroke="#9a32cd" points="540.144,-995.811 529.732,-999.253 535.171,-995.294 530.198,-994.777 530.198,-994.777 530.198,-994.777 535.171,-995.294 530.663,-990.301 540.144,-995.811 540.144,-995.811"/>
<text text-anchor="middle" x="287" y="-932.5" font-family="Helvetica,sans-Serif" font-size="10.00">numDataPoints</text>
</g>
<!-- Node7&#45;&gt;Node12 -->
<g id="edge38" class="edge"><title>Node7&#45;&gt;Node12</title>
<path fill="none" stroke="#9a32cd" stroke-dasharray="5,2" d="M562,-955.983C562,-867.288 562,-656.553 562,-503.832"/>
<polygon fill="#9a32cd" stroke="#9a32cd" points="562,-966.183 557.5,-956.183 562,-961.183 562,-956.183 562,-956.183 562,-956.183 562,-961.183 566.5,-956.183 562,-966.183 562,-966.183"/>
<text text-anchor="middle" x="596" y="-739.5" font-family="Helvetica,sans-Serif" font-size="10.00">numDataPoints</text>
<text text-anchor="middle" x="596" y="-726.5" font-family="Helvetica,sans-Serif" font-size="10.00">min</text>
<text text-anchor="middle" x="596" y="-713.5" font-family="Helvetica,sans-Serif" font-size="10.00">max</text>
</g>
<!-- Node7&#45;&gt;Node13 -->
<g id="edge42" class="edge"><title>Node7&#45;&gt;Node13</title>
<path fill="none" stroke="#9a32cd" stroke-dasharray="5,2" d="M590.081,-966.721C604.688,-949.226 621.959,-926.469 634,-904 659.336,-856.724 677.15,-796.657 686.473,-760.605"/>
<polygon fill="#9a32cd" stroke="#9a32cd" points="583.585,-974.369 586.629,-963.834 586.821,-970.558 590.058,-966.747 590.058,-966.747 590.058,-966.747 586.821,-970.558 593.488,-969.66 583.585,-974.369 583.585,-974.369"/>
<text text-anchor="middle" x="642" y="-932.5" font-family="Helvetica,sans-Serif" font-size="10.00">elements</text>
</g>
<!-- Node8&#45;&gt;Node2 -->
<g id="edge16" class="edge"><title>Node8&#45;&gt;Node2</title>
<path fill="none" stroke="orange" stroke-dasharray="5,2" d="M218.802,-544.418C220.479,-536.828 222.213,-529.331 224,-522 225.478,-515.94 227.043,-509.793 228.678,-503.599"/>
<polygon fill="orange" stroke="orange" points="215.327,-543.927 216.631,-554.442 222.169,-545.409 215.327,-543.927"/>
<text text-anchor="middle" x="247.5" y="-526.5" font-family="Helvetica,sans-Serif" font-size="10.00">&lt; double &gt;</text>
</g>
<!-- Node8&#45;&gt;Node12 -->
<g id="edge46" class="edge"><title>Node8&#45;&gt;Node12</title>
<path fill="none" stroke="orange" stroke-dasharray="5,2" d="M256.785,-559.064C258.798,-557.308 260.869,-555.617 263,-554 311.216,-517.405 345.37,-565.901 398,-536 439.36,-512.502 474.132,-474.051 500.863,-436.627"/>
<polygon fill="orange" stroke="orange" points="254.153,-556.736 249.304,-566.156 258.969,-561.816 254.153,-556.736"/>
<text text-anchor="middle" x="437.5" y="-526.5" font-family="Helvetica,sans-Serif" font-size="10.00">&lt; size_t &gt;</text>
</g>
<!-- Node9 -->
<g id="node17" class="node"><title>Node9</title>
<polygon fill="white" stroke="#bfbfbf" points="-0.5,-966.5 -0.5,-1029.5 52.5,-1029.5 52.5,-966.5 -0.5,-966.5"/>
<text text-anchor="middle" x="26" y="-1016.5" font-family="Helvetica,sans-Serif" font-size="10.00">list&lt; T &gt;</text>
<polyline fill="none" stroke="#bfbfbf" points="-0.5,-1008.5 52.5,-1008.5 "/>
<text text-anchor="middle" x="26" y="-995.5" font-family="Helvetica,sans-Serif" font-size="10.00"> </text>
<polyline fill="none" stroke="#bfbfbf" points="-0.5,-987.5 52.5,-987.5 "/>
<text text-anchor="middle" x="26" y="-974.5" font-family="Helvetica,sans-Serif" font-size="10.00"> </text>
</g>
<!-- Node9&#45;&gt;Node8 -->
<g id="edge18" class="edge"><title>Node9&#45;&gt;Node8</title>
<path fill="none" stroke="#9a32cd" stroke-dasharray="5,2" d="M59.9929,-962.452C82.5266,-938.687 108.712,-910.606 113,-904 117.86,-896.514 122.529,-888.661 126.993,-880.601"/>
<polygon fill="#9a32cd" stroke="#9a32cd" points="52.8375,-969.984 56.4628,-959.634 56.2814,-966.359 59.7252,-962.734 59.7252,-962.734 59.7252,-962.734 56.2814,-966.359 62.9877,-965.833 52.8375,-969.984 52.8375,-969.984"/>
<text text-anchor="middle" x="119.5" y="-932.5" font-family="Helvetica,sans-Serif" font-size="10.00">dataStore</text>
</g>
<!-- Node10&#45;&gt;Node1 -->
<g id="edge26" class="edge"><title>Node10&#45;&gt;Node1</title>
<path fill="none" stroke="#9a32cd" stroke-dasharray="5,2" d="M888.847,-687.296C891.574,-584.345 887.491,-312.671 782,-122 778.389,-115.472 773.933,-109.24 768.997,-103.376"/>
<polygon fill="#9a32cd" stroke="#9a32cd" points="888.545,-697.296 884.349,-687.165 888.696,-692.298 888.847,-687.3 888.847,-687.3 888.847,-687.3 888.696,-692.298 893.344,-687.436 888.545,-697.296 888.545,-697.296"/>
<text text-anchor="middle" x="908.5" y="-326.5" font-family="Helvetica,sans-Serif" font-size="10.00">edgeHistory</text>
</g>
<!-- Node11 -->
<g id="node24" class="node"><title>Node11</title>
<polygon fill="white" stroke="#bfbfbf" points="928,-966.5 928,-1029.5 1014,-1029.5 1014,-966.5 928,-966.5"/>
<text text-anchor="middle" x="971" y="-1016.5" font-family="Helvetica,sans-Serif" font-size="10.00">edge_descriptor</text>
<polyline fill="none" stroke="#bfbfbf" points="928,-1008.5 1014,-1008.5 "/>
<text text-anchor="middle" x="971" y="-995.5" font-family="Helvetica,sans-Serif" font-size="10.00"> </text>
<polyline fill="none" stroke="#bfbfbf" points="928,-987.5 1014,-987.5 "/>
<text text-anchor="middle" x="971" y="-974.5" font-family="Helvetica,sans-Serif" font-size="10.00"> </text>
</g>
<!-- Node11&#45;&gt;Node10 -->
<g id="edge28" class="edge"><title>Node11&#45;&gt;Node10</title>
<path fill="none" stroke="#9a32cd" stroke-dasharray="5,2" d="M959.139,-956.21C955.914,-945.074 952.378,-933.064 949,-922 931.582,-864.947 910.049,-798.835 897.486,-760.672"/>
<polygon fill="#9a32cd" stroke="#9a32cd" points="962,-966.138 954.907,-957.775 960.616,-961.334 959.231,-956.529 959.231,-956.529 959.231,-956.529 960.616,-961.334 963.555,-955.283 962,-966.138 962,-966.138"/>
<text text-anchor="middle" x="976" y="-932.5" font-family="Helvetica,sans-Serif" font-size="10.00">elements</text>
</g>
<!-- Node12&#45;&gt;Node1 -->
<g id="edge34" class="edge"><title>Node12&#45;&gt;Node1</title>
<path fill="none" stroke="#9a32cd" stroke-dasharray="5,2" d="M627.779,-200.685C645.488,-166.14 663.633,-130.745 677.774,-103.159"/>
<polygon fill="#9a32cd" stroke="#9a32cd" points="623.045,-209.92 623.602,-198.968 625.326,-205.47 627.607,-201.021 627.607,-201.021 627.607,-201.021 625.326,-205.47 631.611,-203.074 623.045,-209.92 623.045,-209.92"/>
<text text-anchor="middle" x="682.5" y="-126.5" font-family="Helvetica,sans-Serif" font-size="10.00">duration</text>
</g>
<!-- Node13&#45;&gt;Node12 -->
<g id="edge40" class="edge"><title>Node13&#45;&gt;Node12</title>
<path fill="none" stroke="#9a32cd" stroke-dasharray="5,2" d="M680.332,-687.581C665.891,-643.822 642.147,-571.871 619.704,-503.86"/>
<polygon fill="#9a32cd" stroke="#9a32cd" points="683.532,-697.278 676.125,-689.192 681.965,-692.53 680.398,-687.782 680.398,-687.782 680.398,-687.782 681.965,-692.53 684.671,-686.372 683.532,-697.278 683.532,-697.278"/>
<text text-anchor="middle" x="649.5" y="-526.5" font-family="Helvetica,sans-Serif" font-size="10.00">dataStore</text>
</g>
</g>
</svg>
