<?xml version="1.0" encoding="UTF-8" standalone="no"?>
<!DOCTYPE svg PUBLIC "-//W3C//DTD SVG 1.1//EN"
 "http://www.w3.org/Graphics/SVG/1.1/DTD/svg11.dtd">
<!-- Generated by graphviz version 2.26.3 (20100126.1600)
 -->
<!-- Title: G Pages: 1 -->
<svg width="126pt" height="212pt"
 viewBox="0.00 0.00 126.00 212.00" xmlns="http://www.w3.org/2000/svg" xmlns:xlink="http://www.w3.org/1999/xlink">
<g id="graph1" class="graph" transform="scale(1 1) rotate(0) translate(4 208)">
<title>G</title>
<polygon fill="white" stroke="white" points="-4,5 -4,-208 123,-208 123,5 -4,5"/>
<!-- Node1 -->
<g id="node1" class="node"><title>Node1</title>
<polygon fill="#bfbfbf" stroke="black" points="0,-1 0,-77 118,-77 118,-1 0,-1"/>
<text text-anchor="middle" x="59" y="-64" font-family="Helvetica,sans-Serif" font-size="10.00">Device::IndexAndDelta</text>
<polyline fill="none" stroke="black" points="0,-56 118,-56 "/>
<text text-anchor="start" x="8" y="-43" font-family="Helvetica,sans-Serif" font-size="10.00">+ index</text>
<text text-anchor="start" x="8" y="-30" font-family="Helvetica,sans-Serif" font-size="10.00">+ delta</text>
<polyline fill="none" stroke="black" points="0,-22 118,-22 "/>
<text text-anchor="middle" x="59" y="-9" font-family="Helvetica,sans-Serif" font-size="10.00"> </text>
</g>
<!-- Node2 -->
<g id="node2" class="node"><title>Node2</title>
<a xlink:href="classsize__t.html" target="_top" xlink:title="{size_t\n||}">
<polygon fill="white" stroke="black" points="37.5,-140.5 37.5,-203.5 80.5,-203.5 80.5,-140.5 37.5,-140.5"/>
<text text-anchor="middle" x="59" y="-190.5" font-family="Helvetica,sans-Serif" font-size="10.00">size_t</text>
<polyline fill="none" stroke="black" points="37.5,-182.5 80.5,-182.5 "/>
<text text-anchor="middle" x="59" y="-169.5" font-family="Helvetica,sans-Serif" font-size="10.00"> </text>
<polyline fill="none" stroke="black" points="37.5,-161.5 80.5,-161.5 "/>
<text text-anchor="middle" x="59" y="-148.5" font-family="Helvetica,sans-Serif" font-size="10.00"> </text>
</a>
</g>
<!-- Node2&#45;&gt;Node1 -->
<g id="edge2" class="edge"><title>Node2&#45;&gt;Node1</title>
<path fill="none" stroke="#9a32cd" stroke-dasharray="5,2" d="M59,-130.318C59,-113.4 59,-93.9801 59,-77.4105"/>
<polygon fill="#9a32cd" stroke="#9a32cd" points="59,-140.481 54.5001,-130.481 59,-135.481 59.0001,-130.481 59.0001,-130.481 59.0001,-130.481 59,-135.481 63.5001,-130.481 59,-140.481 59,-140.481"/>
<text text-anchor="middle" x="71" y="-113" font-family="Helvetica,sans-Serif" font-size="10.00">delta</text>
<text text-anchor="middle" x="71" y="-100" font-family="Helvetica,sans-Serif" font-size="10.00">index</text>
</g>
</g>
</svg>
