<?xml version="1.0" encoding="UTF-8" standalone="no"?>
<!DOCTYPE svg PUBLIC "-//W3C//DTD SVG 1.1//EN"
 "http://www.w3.org/Graphics/SVG/1.1/DTD/svg11.dtd">
<!-- Generated by graphviz version 2.26.3 (20100126.1600)
 -->
<!-- Title: G Pages: 1 -->
<svg width="506pt" height="480pt"
 viewBox="0.00 0.00 506.00 480.00" xmlns="http://www.w3.org/2000/svg" xmlns:xlink="http://www.w3.org/1999/xlink">
<g id="graph1" class="graph" transform="scale(1 1) rotate(0) translate(4 476)">
<title>G</title>
<polygon fill="white" stroke="white" points="-4,5 -4,-476 503,-476 503,5 -4,5"/>
<!-- Node1 -->
<g id="node1" class="node"><title>Node1</title>
<polygon fill="#bfbfbf" stroke="black" points="160,-1 160,-129 314,-129 314,-1 160,-1"/>
<text text-anchor="middle" x="237" y="-116" font-family="Helvetica,sans-Serif" font-size="10.00">PowerStateGraph::DisagVertex</text>
<polyline fill="none" stroke="black" points="160,-108 314,-108 "/>
<text text-anchor="start" x="168" y="-95" font-family="Helvetica,sans-Serif" font-size="10.00">+ timestamp</text>
<text text-anchor="start" x="168" y="-82" font-family="Helvetica,sans-Serif" font-size="10.00">+ meanPower</text>
<text text-anchor="start" x="168" y="-69" font-family="Helvetica,sans-Serif" font-size="10.00">+ psgVertex</text>
<text text-anchor="start" x="168" y="-56" font-family="Helvetica,sans-Serif" font-size="10.00">+ psgEdge</text>
<text text-anchor="start" x="168" y="-43" font-family="Helvetica,sans-Serif" font-size="10.00">+ edgeHistory</text>
<polyline fill="none" stroke="black" points="160,-35 314,-35 "/>
<text text-anchor="start" x="168" y="-22" font-family="Helvetica,sans-Serif" font-size="10.00">+ DisagVertex()</text>
<text text-anchor="start" x="168" y="-9" font-family="Helvetica,sans-Serif" font-size="10.00">+ DisagVertex()</text>
</g>
<!-- Node2 -->
<g id="node2" class="node"><title>Node2</title>
<polygon fill="white" stroke="#bfbfbf" points="-0.5,-180.5 -0.5,-243.5 44.5,-243.5 44.5,-180.5 -0.5,-180.5"/>
<text text-anchor="middle" x="22" y="-230.5" font-family="Helvetica,sans-Serif" font-size="10.00">double</text>
<polyline fill="none" stroke="#bfbfbf" points="-0.5,-222.5 44.5,-222.5 "/>
<text text-anchor="middle" x="22" y="-209.5" font-family="Helvetica,sans-Serif" font-size="10.00"> </text>
<polyline fill="none" stroke="#bfbfbf" points="-0.5,-201.5 44.5,-201.5 "/>
<text text-anchor="middle" x="22" y="-188.5" font-family="Helvetica,sans-Serif" font-size="10.00"> </text>
</g>
<!-- Node2&#45;&gt;Node1 -->
<g id="edge2" class="edge"><title>Node2&#45;&gt;Node1</title>
<path fill="none" stroke="#9a32cd" stroke-dasharray="5,2" d="M15.7292,-170.422C16.3652,-162.439 18.4461,-154.541 23,-148 39.4514,-124.372 105.513,-100.973 159.937,-85.0733"/>
<polygon fill="#9a32cd" stroke="#9a32cd" points="15.6189,-180.483 11.2289,-170.434 15.6738,-175.483 15.7287,-170.483 15.7287,-170.483 15.7287,-170.483 15.6738,-175.483 20.2284,-170.533 15.6189,-180.483 15.6189,-180.483"/>
<text text-anchor="middle" x="49" y="-152.5" font-family="Helvetica,sans-Serif" font-size="10.00">meanPower</text>
</g>
<!-- Node3 -->
<g id="node4" class="node"><title>Node3</title>
<polygon fill="white" stroke="#bfbfbf" points="146,-180.5 146,-243.5 328,-243.5 328,-180.5 146,-180.5"/>
<text text-anchor="middle" x="237" y="-230.5" font-family="Helvetica,sans-Serif" font-size="10.00">std::list&lt; PSGraph::edge_descriptor &gt;</text>
<polyline fill="none" stroke="#bfbfbf" points="146,-222.5 328,-222.5 "/>
<text text-anchor="start" x="154" y="-209.5" font-family="Helvetica,sans-Serif" font-size="10.00">&#45; elements</text>
<polyline fill="none" stroke="#bfbfbf" points="146,-201.5 328,-201.5 "/>
<text text-anchor="middle" x="237" y="-188.5" font-family="Helvetica,sans-Serif" font-size="10.00"> </text>
</g>
<!-- Node3&#45;&gt;Node1 -->
<g id="edge4" class="edge"><title>Node3&#45;&gt;Node1</title>
<path fill="none" stroke="#9a32cd" stroke-dasharray="5,2" d="M237,-170.15C237,-157.377 237,-143.027 237,-129.131"/>
<polygon fill="#9a32cd" stroke="#9a32cd" points="237,-180.465 232.5,-170.465 237,-175.465 237,-170.465 237,-170.465 237,-170.465 237,-175.465 241.5,-170.465 237,-180.465 237,-180.465"/>
<text text-anchor="middle" x="263.5" y="-152.5" font-family="Helvetica,sans-Serif" font-size="10.00">edgeHistory</text>
</g>
<!-- Node4 -->
<g id="node6" class="node"><title>Node4</title>
<polygon fill="white" stroke="#bfbfbf" points="72,-294.5 72,-357.5 158,-357.5 158,-294.5 72,-294.5"/>
<text text-anchor="middle" x="115" y="-344.5" font-family="Helvetica,sans-Serif" font-size="10.00">edge_descriptor</text>
<polyline fill="none" stroke="#bfbfbf" points="72,-336.5 158,-336.5 "/>
<text text-anchor="middle" x="115" y="-323.5" font-family="Helvetica,sans-Serif" font-size="10.00"> </text>
<polyline fill="none" stroke="#bfbfbf" points="72,-315.5 158,-315.5 "/>
<text text-anchor="middle" x="115" y="-302.5" font-family="Helvetica,sans-Serif" font-size="10.00"> </text>
</g>
<!-- Node4&#45;&gt;Node1 -->
<g id="edge14" class="edge"><title>Node4&#45;&gt;Node1</title>
<path fill="none" stroke="#9a32cd" stroke-dasharray="5,2" d="M98.7016,-284.405C89.4854,-254.095 82.5771,-212.777 98,-180 111.335,-151.66 135.462,-127.913 159.914,-109.495"/>
<polygon fill="#9a32cd" stroke="#9a32cd" points="101.887,-294.233 94.5229,-286.107 100.345,-289.477 98.8038,-284.72 98.8038,-284.72 98.8038,-284.72 100.345,-289.477 103.085,-283.333 101.887,-294.233 101.887,-294.233"/>
<text text-anchor="middle" x="117.5" y="-209.5" font-family="Helvetica,sans-Serif" font-size="10.00">psgEdge</text>
</g>
<!-- Node4&#45;&gt;Node3 -->
<g id="edge6" class="edge"><title>Node4&#45;&gt;Node3</title>
<path fill="none" stroke="#9a32cd" stroke-dasharray="5,2" d="M156.309,-287.4C171.573,-273.137 188.678,-257.153 203.198,-243.585"/>
<polygon fill="#9a32cd" stroke="#9a32cd" points="148.984,-294.245 153.218,-284.129 152.637,-290.831 156.29,-287.417 156.29,-287.417 156.29,-287.417 152.637,-290.831 159.363,-290.705 148.984,-294.245 148.984,-294.245"/>
<text text-anchor="middle" x="204" y="-266.5" font-family="Helvetica,sans-Serif" font-size="10.00">elements</text>
</g>
<!-- Node5 -->
<g id="node8" class="node"><title>Node5</title>
<a xlink:title="STL class.">
<polygon fill="white" stroke="#bfbfbf" points="200.5,-294.5 200.5,-357.5 273.5,-357.5 273.5,-294.5 200.5,-294.5"/>
<text text-anchor="middle" x="237" y="-344.5" font-family="Helvetica,sans-Serif" font-size="10.00">std::list&lt; T &gt;</text>
<polyline fill="none" stroke="#bfbfbf" points="200.5,-336.5 273.5,-336.5 "/>
<text text-anchor="start" x="208.5" y="-323.5" font-family="Helvetica,sans-Serif" font-size="10.00">&#45; elements</text>
<polyline fill="none" stroke="#bfbfbf" points="200.5,-315.5 273.5,-315.5 "/>
<text text-anchor="middle" x="237" y="-302.5" font-family="Helvetica,sans-Serif" font-size="10.00"> </text>
</a>
</g>
<!-- Node5&#45;&gt;Node3 -->
<g id="edge8" class="edge"><title>Node5&#45;&gt;Node3</title>
<path fill="none" stroke="orange" stroke-dasharray="5,2" d="M237,-283.866C237,-270.538 237,-256.043 237,-243.585"/>
<polygon fill="orange" stroke="orange" points="233.5,-284.245 237,-294.245 240.5,-284.245 233.5,-284.245"/>
<text text-anchor="middle" x="303.5" y="-266.5" font-family="Helvetica,sans-Serif" font-size="10.00">&lt; PSGraph::edge_descriptor &gt;</text>
</g>
<!-- Node6 -->
<g id="node10" class="node"><title>Node6</title>
<polygon fill="white" stroke="#bfbfbf" points="222.5,-408.5 222.5,-471.5 251.5,-471.5 251.5,-408.5 222.5,-408.5"/>
<text text-anchor="middle" x="237" y="-458.5" font-family="Helvetica,sans-Serif" font-size="10.00">T</text>
<polyline fill="none" stroke="#bfbfbf" points="222.5,-450.5 251.5,-450.5 "/>
<text text-anchor="middle" x="237" y="-437.5" font-family="Helvetica,sans-Serif" font-size="10.00"> </text>
<polyline fill="none" stroke="#bfbfbf" points="222.5,-429.5 251.5,-429.5 "/>
<text text-anchor="middle" x="237" y="-416.5" font-family="Helvetica,sans-Serif" font-size="10.00"> </text>
</g>
<!-- Node6&#45;&gt;Node5 -->
<g id="edge10" class="edge"><title>Node6&#45;&gt;Node5</title>
<path fill="none" stroke="#9a32cd" stroke-dasharray="5,2" d="M237,-397.866C237,-384.538 237,-370.043 237,-357.585"/>
<polygon fill="#9a32cd" stroke="#9a32cd" points="237,-408.245 232.5,-398.245 237,-403.245 237,-398.245 237,-398.245 237,-398.245 237,-403.245 241.5,-398.245 237,-408.245 237,-408.245"/>
<text text-anchor="middle" x="257" y="-380.5" font-family="Helvetica,sans-Serif" font-size="10.00">elements</text>
</g>
<!-- Node7 -->
<g id="node12" class="node"><title>Node7</title>
<a xlink:href="classsize__t.html" target="_top" xlink:title="{size_t\n||}">
<polygon fill="white" stroke="black" points="345.5,-180.5 345.5,-243.5 388.5,-243.5 388.5,-180.5 345.5,-180.5"/>
<text text-anchor="middle" x="367" y="-230.5" font-family="Helvetica,sans-Serif" font-size="10.00">size_t</text>
<polyline fill="none" stroke="black" points="345.5,-222.5 388.5,-222.5 "/>
<text text-anchor="middle" x="367" y="-209.5" font-family="Helvetica,sans-Serif" font-size="10.00"> </text>
<polyline fill="none" stroke="black" points="345.5,-201.5 388.5,-201.5 "/>
<text text-anchor="middle" x="367" y="-188.5" font-family="Helvetica,sans-Serif" font-size="10.00"> </text>
</a>
</g>
<!-- Node7&#45;&gt;Node1 -->
<g id="edge12" class="edge"><title>Node7&#45;&gt;Node1</title>
<path fill="none" stroke="#9a32cd" stroke-dasharray="5,2" d="M338.255,-179.496C325.101,-164.622 309.035,-146.455 293.609,-129.012"/>
<polygon fill="#9a32cd" stroke="#9a32cd" points="345.241,-187.396 335.245,-182.886 341.929,-183.65 338.616,-179.905 338.616,-179.905 338.616,-179.905 341.929,-183.65 341.987,-176.923 345.241,-187.396 345.241,-187.396"/>
<text text-anchor="middle" x="345" y="-152.5" font-family="Helvetica,sans-Serif" font-size="10.00">timestamp</text>
</g>
<!-- Node8 -->
<g id="node15" class="node"><title>Node8</title>
<polygon fill="white" stroke="#bfbfbf" points="406,-180.5 406,-243.5 498,-243.5 498,-180.5 406,-180.5"/>
<text text-anchor="middle" x="452" y="-230.5" font-family="Helvetica,sans-Serif" font-size="10.00">vertex_descriptor</text>
<polyline fill="none" stroke="#bfbfbf" points="406,-222.5 498,-222.5 "/>
<text text-anchor="middle" x="452" y="-209.5" font-family="Helvetica,sans-Serif" font-size="10.00"> </text>
<polyline fill="none" stroke="#bfbfbf" points="406,-201.5 498,-201.5 "/>
<text text-anchor="middle" x="452" y="-188.5" font-family="Helvetica,sans-Serif" font-size="10.00"> </text>
</g>
<!-- Node8&#45;&gt;Node1 -->
<g id="edge16" class="edge"><title>Node8&#45;&gt;Node1</title>
<path fill="none" stroke="#9a32cd" stroke-dasharray="5,2" d="M406.576,-174.069C395.468,-165.241 383.473,-156.07 372,-148 353.66,-135.1 333.314,-122.001 314.099,-110.138"/>
<polygon fill="#9a32cd" stroke="#9a32cd" points="414.487,-180.416 403.871,-177.668 410.587,-177.287 406.687,-174.158 406.687,-174.158 406.687,-174.158 410.587,-177.287 409.503,-170.648 414.487,-180.416 414.487,-180.416"/>
<text text-anchor="middle" x="412.5" y="-152.5" font-family="Helvetica,sans-Serif" font-size="10.00">psgVertex</text>
</g>
</g>
</svg>
