<?xml version="1.0" encoding="UTF-8" standalone="no"?>
<!DOCTYPE svg PUBLIC "-//W3C//DTD SVG 1.1//EN"
 "http://www.w3.org/Graphics/SVG/1.1/DTD/svg11.dtd">
<!-- Generated by graphviz version 2.26.3 (20100126.1600)
 -->
<!-- Title: G Pages: 1 -->
<svg width="982pt" height="90pt"
 viewBox="0.00 0.00 982.00 90.00" xmlns="http://www.w3.org/2000/svg" xmlns:xlink="http://www.w3.org/1999/xlink">
<g id="graph1" class="graph" transform="scale(1 1) rotate(0) translate(4 86)">
<title>G</title>
<polygon fill="white" stroke="white" points="-4,5 -4,-86 979,-86 979,5 -4,5"/>
<!-- Node1 -->
<g id="node1" class="node"><title>Node1</title>
<polygon fill="#bfbfbf" stroke="black" points="0.5,-39.5 0.5,-60.5 149.5,-60.5 149.5,-39.5 0.5,-39.5"/>
<text text-anchor="middle" x="75" y="-47.5" font-family="Helvetica,sans-Serif" font-size="10.00">Statistic::normalisedLikelihood</text>
</g>
<!-- Node2 -->
<g id="node3" class="node"><title>Node2</title>
<a xlink:href="class_power_state_graph.html#a222bc37f6c90142887eb36b4e31ab568" target="_top" xlink:title="Iterates through each path in listOfPaths to find the one with the highest likelihood.">
<polygon fill="white" stroke="black" points="350,-60.5 350,-81.5 506,-81.5 506,-60.5 350,-60.5"/>
<text text-anchor="middle" x="428" y="-68.5" font-family="Helvetica,sans-Serif" font-size="10.00">PowerStateGraph::findBestPath</text>
</a>
</g>
<!-- Node1&#45;&gt;Node2 -->
<g id="edge2" class="edge"><title>Node1&#45;&gt;Node2</title>
<path fill="none" stroke="midnightblue" d="M160.064,-55.0605C217.829,-58.4969 293.647,-63.0073 349.884,-66.3529"/>
<polygon fill="midnightblue" stroke="midnightblue" points="160.052,-51.5537 149.862,-54.4536 159.637,-58.5413 160.052,-51.5537"/>
</g>
<!-- Node6 -->
<g id="node11" class="node"><title>Node6</title>
<a xlink:href="class_aggregate_data.html#ada468d155767d721c755405582d108ee" target="_top" xlink:title="Find all spikes in aggregate data which fit spikeStats.">
<polygon fill="white" stroke="black" points="186,-20.5 186,-41.5 314,-41.5 314,-20.5 186,-20.5"/>
<text text-anchor="middle" x="250" y="-28.5" font-family="Helvetica,sans-Serif" font-size="10.00">AggregateData::findSpike</text>
</a>
</g>
<!-- Node1&#45;&gt;Node6 -->
<g id="edge10" class="edge"><title>Node1&#45;&gt;Node6</title>
<path fill="none" stroke="midnightblue" d="M159.892,-40.7832C168.585,-39.8394 177.312,-38.8918 185.73,-37.9778"/>
<polygon fill="midnightblue" stroke="midnightblue" points="159.287,-37.3282 149.723,-41.8872 160.043,-44.2873 159.287,-37.3282"/>
</g>
<!-- Node3 -->
<g id="node5" class="node"><title>Node3</title>
<a xlink:href="class_power_state_graph.html#a0478f171d51d21613746640c7415fb0b" target="_top" xlink:title="PowerStateGraph::initTraceToEnd">
<polygon fill="white" stroke="black" points="542,-20.5 542,-41.5 708,-41.5 708,-20.5 542,-20.5"/>
<text text-anchor="middle" x="625" y="-28.5" font-family="Helvetica,sans-Serif" font-size="10.00">PowerStateGraph::initTraceToEnd</text>
</a>
</g>
<!-- Node2&#45;&gt;Node3 -->
<g id="edge4" class="edge"><title>Node2&#45;&gt;Node3</title>
<path fill="none" stroke="midnightblue" d="M489.809,-58.45C516.623,-53.0054 547.671,-46.7014 573.245,-41.5087"/>
<polygon fill="midnightblue" stroke="midnightblue" points="488.863,-55.0705 479.759,-60.4905 490.256,-61.9305 488.863,-55.0705"/>
</g>
<!-- Node4 -->
<g id="node7" class="node"><title>Node4</title>
<a xlink:href="class_power_state_graph.html#a3823f720987e5e13eb7f1cfae7cdf4be" target="_top" xlink:title="This is the main public interface to the disaggregation algorithm.">
<polygon fill="white" stroke="black" points="744.5,-0.5 744.5,-21.5 899.5,-21.5 899.5,-0.5 744.5,-0.5"/>
<text text-anchor="middle" x="822" y="-8.5" font-family="Helvetica,sans-Serif" font-size="10.00">PowerStateGraph::disaggregate</text>
</a>
</g>
<!-- Node3&#45;&gt;Node4 -->
<g id="edge6" class="edge"><title>Node3&#45;&gt;Node4</title>
<path fill="none" stroke="midnightblue" d="M718.418,-21.516C727.105,-20.634 735.845,-19.7467 744.367,-18.8815"/>
<polygon fill="midnightblue" stroke="midnightblue" points="717.856,-18.055 708.26,-22.5472 718.563,-25.0192 717.856,-18.055"/>
</g>
<!-- Node5 -->
<g id="node9" class="node"><title>Node5</title>
<a xlink:href="_main_8cpp.html#a0ddf1224851353fc92bfbff6f499fa97" target="_top" xlink:title="main">
<polygon fill="white" stroke="black" points="936,-0.5 936,-21.5 974,-21.5 974,-0.5 936,-0.5"/>
<text text-anchor="middle" x="955" y="-8.5" font-family="Helvetica,sans-Serif" font-size="10.00">main</text>
</a>
</g>
<!-- Node4&#45;&gt;Node5 -->
<g id="edge8" class="edge"><title>Node4&#45;&gt;Node5</title>
<path fill="none" stroke="midnightblue" d="M909.963,-11C919.567,-11 928.502,-11 935.84,-11"/>
<polygon fill="midnightblue" stroke="midnightblue" points="909.752,-7.5001 899.751,-11 909.751,-14.5001 909.752,-7.5001"/>
</g>
<!-- Node6&#45;&gt;Node4 -->
<g id="edge12" class="edge"><title>Node6&#45;&gt;Node4</title>
<path fill="none" stroke="midnightblue" d="M303.194,-18.3375C318.236,-15.3098 334.683,-12.5167 350,-11 488.22,2.68646 650.326,-1.75094 744.094,-6.31225"/>
<polygon fill="midnightblue" stroke="midnightblue" points="302.109,-14.9884 293.035,-20.4583 303.54,-21.8407 302.109,-14.9884"/>
</g>
<!-- Node7 -->
<g id="node14" class="node"><title>Node7</title>
<a xlink:href="class_power_state_graph.html#a0df76ca216d2d48aeb44d2bb08046e2f" target="_top" xlink:title="PowerStateGraph::traceToEnd">
<polygon fill="white" stroke="black" points="353,-20.5 353,-41.5 503,-41.5 503,-20.5 353,-20.5"/>
<text text-anchor="middle" x="428" y="-28.5" font-family="Helvetica,sans-Serif" font-size="10.00">PowerStateGraph::traceToEnd</text>
</a>
</g>
<!-- Node6&#45;&gt;Node7 -->
<g id="edge14" class="edge"><title>Node6&#45;&gt;Node7</title>
<path fill="none" stroke="midnightblue" d="M324.15,-31C333.597,-31 343.273,-31 352.737,-31"/>
<polygon fill="midnightblue" stroke="midnightblue" points="324.011,-27.5001 314.011,-31 324.011,-34.5001 324.011,-27.5001"/>
</g>
<!-- Node7&#45;&gt;Node3 -->
<g id="edge16" class="edge"><title>Node7&#45;&gt;Node3</title>
<path fill="none" stroke="midnightblue" d="M513.277,-31C522.789,-31 532.468,-31 541.951,-31"/>
<polygon fill="midnightblue" stroke="midnightblue" points="513.039,-27.5001 503.039,-31 513.039,-34.5001 513.039,-27.5001"/>
</g>
</g>
</svg>
