<?xml version="1.0" encoding="UTF-8" standalone="no"?>
<!DOCTYPE svg PUBLIC "-//W3C//DTD SVG 1.1//EN"
 "http://www.w3.org/Graphics/SVG/1.1/DTD/svg11.dtd">
<!-- Generated by graphviz version 2.26.3 (20100126.1600)
 -->
<!-- Title: G Pages: 1 -->
<svg width="355pt" height="492pt"
 viewBox="0.00 0.00 355.00 492.00" xmlns="http://www.w3.org/2000/svg" xmlns:xlink="http://www.w3.org/1999/xlink">
<g id="graph1" class="graph" transform="scale(1 1) rotate(0) translate(4 488)">
<title>G</title>
<polygon fill="white" stroke="white" points="-4,5 -4,-488 352,-488 352,5 -4,5"/>
<!-- Node1 -->
<g id="node1" class="node"><title>Node1</title>
<polygon fill="#bfbfbf" stroke="black" points="79,-0.5 79,-115.5 225,-115.5 225,-0.5 79,-0.5"/>
<text text-anchor="middle" x="152" y="-102.5" font-family="Helvetica,sans-Serif" font-size="10.00">PowerStateGraph::Fingerprint</text>
<polyline fill="none" stroke="black" points="79,-94.5 225,-94.5 "/>
<text text-anchor="start" x="87" y="-81.5" font-family="Helvetica,sans-Serif" font-size="10.00">+ timestamp</text>
<text text-anchor="start" x="87" y="-68.5" font-family="Helvetica,sans-Serif" font-size="10.00">+ duration</text>
<text text-anchor="start" x="87" y="-55.5" font-family="Helvetica,sans-Serif" font-size="10.00">+ energy</text>
<text text-anchor="start" x="87" y="-42.5" font-family="Helvetica,sans-Serif" font-size="10.00">+ avLikelihood</text>
<text text-anchor="start" x="87" y="-29.5" font-family="Helvetica,sans-Serif" font-size="10.00">+ timeAndPower</text>
<polyline fill="none" stroke="black" points="79,-21.5 225,-21.5 "/>
<text text-anchor="middle" x="152" y="-8.5" font-family="Helvetica,sans-Serif" font-size="10.00"> </text>
</g>
<!-- Node2 -->
<g id="node2" class="node"><title>Node2</title>
<polygon fill="white" stroke="#bfbfbf" points="248.5,-420.5 248.5,-483.5 293.5,-483.5 293.5,-420.5 248.5,-420.5"/>
<text text-anchor="middle" x="271" y="-470.5" font-family="Helvetica,sans-Serif" font-size="10.00">double</text>
<polyline fill="none" stroke="#bfbfbf" points="248.5,-462.5 293.5,-462.5 "/>
<text text-anchor="middle" x="271" y="-449.5" font-family="Helvetica,sans-Serif" font-size="10.00"> </text>
<polyline fill="none" stroke="#bfbfbf" points="248.5,-441.5 293.5,-441.5 "/>
<text text-anchor="middle" x="271" y="-428.5" font-family="Helvetica,sans-Serif" font-size="10.00"> </text>
</g>
<!-- Node2&#45;&gt;Node1 -->
<g id="edge2" class="edge"><title>Node2&#45;&gt;Node1</title>
<path fill="none" stroke="#9a32cd" stroke-dasharray="5,2" d="M294.229,-410.987C295.324,-408.005 296.268,-404.992 297,-402 308.61,-354.51 307.99,-339.638 297,-292 279.439,-215.882 263.571,-198.838 220,-134 215.852,-127.828 211.236,-121.636 206.415,-115.596"/>
<polygon fill="#9a32cd" stroke="#9a32cd" points="290.301,-420.35 290.02,-409.388 292.235,-415.739 294.17,-411.129 294.17,-411.129 294.17,-411.129 292.235,-415.739 298.319,-412.87 290.301,-420.35 290.301,-420.35"/>
<text text-anchor="middle" x="319.5" y="-265" font-family="Helvetica,sans-Serif" font-size="10.00">avLikelihood</text>
<text text-anchor="middle" x="319.5" y="-252" font-family="Helvetica,sans-Serif" font-size="10.00">energy</text>
</g>
<!-- Node4 -->
<g id="node6" class="node"><title>Node4</title>
<a xlink:href="struct_power_state_graph_1_1_time_and_power.html" target="_top" xlink:title="A simple struct for pairing timestamp and meanPower. Used in Fingerprint struct.">
<polygon fill="white" stroke="black" points="121.5,-293 121.5,-369 288.5,-369 288.5,-293 121.5,-293"/>
<text text-anchor="middle" x="205" y="-356" font-family="Helvetica,sans-Serif" font-size="10.00">PowerStateGraph::TimeAndPower</text>
<polyline fill="none" stroke="black" points="121.5,-348 288.5,-348 "/>
<text text-anchor="start" x="129.5" y="-335" font-family="Helvetica,sans-Serif" font-size="10.00">+ timestamp</text>
<text text-anchor="start" x="129.5" y="-322" font-family="Helvetica,sans-Serif" font-size="10.00">+ meanPower</text>
<polyline fill="none" stroke="black" points="121.5,-314 288.5,-314 "/>
<text text-anchor="start" x="129.5" y="-301" font-family="Helvetica,sans-Serif" font-size="10.00">+ TimeAndPower()</text>
</a>
</g>
<!-- Node2&#45;&gt;Node4 -->
<g id="edge8" class="edge"><title>Node2&#45;&gt;Node4</title>
<path fill="none" stroke="#9a32cd" stroke-dasharray="5,2" d="M248.676,-411.072C241.26,-397.477 233.038,-382.404 225.747,-369.036"/>
<polygon fill="#9a32cd" stroke="#9a32cd" points="253.659,-420.209 244.92,-413.585 251.265,-415.819 248.871,-411.43 248.871,-411.43 248.871,-411.43 251.265,-415.819 252.821,-409.275 253.659,-420.209 253.659,-420.209"/>
<text text-anchor="middle" x="267" y="-392.5" font-family="Helvetica,sans-Serif" font-size="10.00">meanPower</text>
</g>
<!-- Node3 -->
<g id="node4" class="node"><title>Node3</title>
<polygon fill="white" stroke="#bfbfbf" points="85,-166.5 85,-229.5 219,-229.5 219,-166.5 85,-166.5"/>
<text text-anchor="middle" x="152" y="-216.5" font-family="Helvetica,sans-Serif" font-size="10.00">std::list&lt; TimeAndPower &gt;</text>
<polyline fill="none" stroke="#bfbfbf" points="85,-208.5 219,-208.5 "/>
<text text-anchor="start" x="93" y="-195.5" font-family="Helvetica,sans-Serif" font-size="10.00">&#45; elements</text>
<polyline fill="none" stroke="#bfbfbf" points="85,-187.5 219,-187.5 "/>
<text text-anchor="middle" x="152" y="-174.5" font-family="Helvetica,sans-Serif" font-size="10.00"> </text>
</g>
<!-- Node3&#45;&gt;Node1 -->
<g id="edge4" class="edge"><title>Node3&#45;&gt;Node1</title>
<path fill="none" stroke="#9a32cd" stroke-dasharray="5,2" d="M152,-155.945C152,-143.232 152,-129.048 152,-115.508"/>
<polygon fill="#9a32cd" stroke="#9a32cd" points="152,-166.232 147.5,-156.232 152,-161.232 152,-156.232 152,-156.232 152,-156.232 152,-161.232 156.5,-156.232 152,-166.232 152,-166.232"/>
<text text-anchor="middle" x="184" y="-138.5" font-family="Helvetica,sans-Serif" font-size="10.00">timeAndPower</text>
</g>
<!-- Node4&#45;&gt;Node3 -->
<g id="edge6" class="edge"><title>Node4&#45;&gt;Node3</title>
<path fill="none" stroke="#9a32cd" stroke-dasharray="5,2" d="M185.976,-283.261C178.902,-265.508 171.053,-245.813 164.683,-229.828"/>
<polygon fill="#9a32cd" stroke="#9a32cd" points="189.812,-292.888 181.93,-285.264 187.961,-288.243 186.11,-283.598 186.11,-283.598 186.11,-283.598 187.961,-288.243 190.291,-281.932 189.812,-292.888 189.812,-292.888"/>
<text text-anchor="middle" x="201" y="-258.5" font-family="Helvetica,sans-Serif" font-size="10.00">elements</text>
</g>
<!-- Node5 -->
<g id="node9" class="node"><title>Node5</title>
<a xlink:href="classsize__t.html" target="_top" xlink:title="{size_t\n||}">
<polygon fill="white" stroke="black" points="-0.5,-420.5 -0.5,-483.5 42.5,-483.5 42.5,-420.5 -0.5,-420.5"/>
<text text-anchor="middle" x="21" y="-470.5" font-family="Helvetica,sans-Serif" font-size="10.00">size_t</text>
<polyline fill="none" stroke="black" points="-0.5,-462.5 42.5,-462.5 "/>
<text text-anchor="middle" x="21" y="-449.5" font-family="Helvetica,sans-Serif" font-size="10.00"> </text>
<polyline fill="none" stroke="black" points="-0.5,-441.5 42.5,-441.5 "/>
<text text-anchor="middle" x="21" y="-428.5" font-family="Helvetica,sans-Serif" font-size="10.00"> </text>
</a>
</g>
<!-- Node5&#45;&gt;Node1 -->
<g id="edge16" class="edge"><title>Node5&#45;&gt;Node1</title>
<path fill="none" stroke="#9a32cd" stroke-dasharray="5,2" d="M14.392,-410.293C9.30608,-368.324 5.60458,-302.223 22,-248 36.8647,-198.839 69.5611,-151.159 98.4425,-115.86"/>
<polygon fill="#9a32cd" stroke="#9a32cd" points="15.7035,-420.422 9.95653,-411.083 15.0614,-415.463 14.4193,-410.505 14.4193,-410.505 14.4193,-410.505 15.0614,-415.463 18.882,-409.927 15.7035,-420.422 15.7035,-420.422"/>
<text text-anchor="middle" x="45" y="-265" font-family="Helvetica,sans-Serif" font-size="10.00">duration</text>
<text text-anchor="middle" x="45" y="-252" font-family="Helvetica,sans-Serif" font-size="10.00">timestamp</text>
</g>
<!-- Node5&#45;&gt;Node4 -->
<g id="edge10" class="edge"><title>Node5&#45;&gt;Node4</title>
<path fill="none" stroke="#9a32cd" stroke-dasharray="5,2" d="M24.4734,-410.468C26.9359,-402.129 30.8503,-394.074 37,-388 61.6972,-363.608 80.0147,-380.812 113,-370 115.802,-369.081 118.638,-368.113 121.491,-367.105"/>
<polygon fill="#9a32cd" stroke="#9a32cd" points="22.2026,-420.288 20.0715,-409.531 23.3292,-415.417 24.4558,-410.545 24.4558,-410.545 24.4558,-410.545 23.3292,-415.417 28.84,-411.559 22.2026,-420.288 22.2026,-420.288"/>
<text text-anchor="middle" x="60" y="-392.5" font-family="Helvetica,sans-Serif" font-size="10.00">timestamp</text>
</g>
<!-- Node6 -->
<g id="node11" class="node"><title>Node6</title>
<a xlink:title="STL class.">
<polygon fill="white" stroke="#bfbfbf" points="31.5,-299.5 31.5,-362.5 104.5,-362.5 104.5,-299.5 31.5,-299.5"/>
<text text-anchor="middle" x="68" y="-349.5" font-family="Helvetica,sans-Serif" font-size="10.00">std::list&lt; T &gt;</text>
<polyline fill="none" stroke="#bfbfbf" points="31.5,-341.5 104.5,-341.5 "/>
<text text-anchor="start" x="39.5" y="-328.5" font-family="Helvetica,sans-Serif" font-size="10.00">&#45; elements</text>
<polyline fill="none" stroke="#bfbfbf" points="31.5,-320.5 104.5,-320.5 "/>
<text text-anchor="middle" x="68" y="-307.5" font-family="Helvetica,sans-Serif" font-size="10.00"> </text>
</a>
</g>
<!-- Node6&#45;&gt;Node3 -->
<g id="edge12" class="edge"><title>Node6&#45;&gt;Node3</title>
<path fill="none" stroke="orange" stroke-dasharray="5,2" d="M69.3004,-289.476C71.2946,-275.459 75.2859,-260.27 83,-248 87.2519,-241.237 92.7802,-235.102 98.8572,-229.632"/>
<polygon fill="orange" stroke="orange" points="65.8222,-289.087 68.1767,-299.416 72.7779,-289.873 65.8222,-289.087"/>
<text text-anchor="middle" x="125.5" y="-258.5" font-family="Helvetica,sans-Serif" font-size="10.00">&lt; TimeAndPower &gt;</text>
</g>
<!-- Node7 -->
<g id="node13" class="node"><title>Node7</title>
<polygon fill="white" stroke="#bfbfbf" points="91.5,-420.5 91.5,-483.5 120.5,-483.5 120.5,-420.5 91.5,-420.5"/>
<text text-anchor="middle" x="106" y="-470.5" font-family="Helvetica,sans-Serif" font-size="10.00">T</text>
<polyline fill="none" stroke="#bfbfbf" points="91.5,-462.5 120.5,-462.5 "/>
<text text-anchor="middle" x="106" y="-449.5" font-family="Helvetica,sans-Serif" font-size="10.00"> </text>
<polyline fill="none" stroke="#bfbfbf" points="91.5,-441.5 120.5,-441.5 "/>
<text text-anchor="middle" x="106" y="-428.5" font-family="Helvetica,sans-Serif" font-size="10.00"> </text>
</g>
<!-- Node7&#45;&gt;Node6 -->
<g id="edge14" class="edge"><title>Node7&#45;&gt;Node6</title>
<path fill="none" stroke="#9a32cd" stroke-dasharray="5,2" d="M92.8898,-410.254C87.981,-394.624 82.4903,-377.14 77.9174,-362.579"/>
<polygon fill="#9a32cd" stroke="#9a32cd" points="96.0159,-420.209 88.7264,-412.016 94.5178,-415.438 93.0197,-410.668 93.0197,-410.668 93.0197,-410.668 94.5178,-415.438 97.3129,-409.32 96.0159,-420.209 96.0159,-420.209"/>
<text text-anchor="middle" x="109" y="-392.5" font-family="Helvetica,sans-Serif" font-size="10.00">elements</text>
</g>
</g>
</svg>
